<svg xmlns="http://www.w3.org/2000/svg" height="1024" preserveAspectRatio="none" style="display: block;" version="1.1" viewBox="0 0 2048 2048" width="1024">
<path d="M 0 0 L 2048 0 L 2048 2048 L 0 2048 L 0 0 z" fill="rgb(255,255,255)" transform="translate(0,0)"></path>
<path d="M 893.713 188.605 L 903.382 184.29 C 909.081 195.613 917.659 209.134 924.254 220.31 L 961.96 284.466 L 1097.28 514.567 C 1102.31 514.776 1110.15 514.99 1114.14 518.084 C 1117.42 529.136 1121.17 527.633 1129.78 530.1 C 1132.75 534.569 1131.91 543.498 1131.79 549.076 C 1137.97 552.77 1143.23 552.98 1144.21 561.036 C 1147.72 564.306 1153.45 561.877 1158.02 561.51 C 1181.11 559.656 1203.92 556.451 1226.9 553.61 C 1257.31 550.052 1287.76 546.682 1318.22 543.5 C 1336.08 541.523 1359.91 535.325 1377.43 539.85 C 1384.64 541.714 1393.04 545.987 1396.85 552.696 C 1398.83 556.185 1399.07 559.907 1397.94 563.719 C 1394.89 573.956 1384.66 579.275 1375.02 581.836 C 1348.53 588.871 1152.01 583.754 1148.57 586.895 C 1143.6 591.426 1145.01 597.831 1134.62 603.347 C 1119.65 611.292 1099.83 605.647 1084.57 601.381 C 1071.41 605.02 1058.6 611.433 1045.84 616.57 C 1034.71 621.049 1025.89 623.819 1014.47 626.991 C 1011 633.147 974.318 646.159 965.168 649.682 C 951.688 654.872 936.138 661.872 922.724 666.625 C 925.282 658.561 928.614 643.585 927.91 635.224 C 927.465 632.75 927.513 633 927.471 630.536 L 929.618 629.378 C 934.058 629.585 935.163 629.404 939.622 628.749 C 944.097 623.334 944.997 621.293 947.431 614.734 C 942.85 619.167 932.169 629.718 926.037 623.305 C 924.266 617.852 935.998 595.906 938.884 589.343 C 943.908 577.913 948.981 565.029 954.646 553.971 C 956.006 551.292 957.471 548.668 959.039 546.106 C 922.686 530.928 910.866 512.145 866.606 511.176 C 894.431 519.896 920.419 533.646 943.283 551.743 C 933.448 573.359 924.854 599.156 915.617 618.419 C 884.828 609.03 864.864 598.469 838.217 580.813 C 859.135 601.585 888.584 618.932 916.036 628.812 L 915.535 630.167 C 913.107 636.574 912.034 638.974 905.787 646.543 C 897.787 656.237 882.749 666.715 874.378 676.684 C 874.553 677.296 874.729 677.908 874.904 678.52 C 880.097 681.913 889.69 683.066 895.986 684.067 L 896.859 682.872 C 906.892 669.015 917.744 647.296 920.101 630.456 C 920.256 629.349 920.627 629.207 921.417 628.203 L 922.834 628.853 C 926.287 642.305 905.406 688.334 895.707 698.181 C 884.951 712.271 904.927 718.657 905.446 732.216 C 905.623 736.83 904.15 741.461 903.801 746 C 914.208 752.847 966.613 886.976 969.97 903.22 C 970.662 906.629 971.271 910.054 971.796 913.493 C 980.075 919.743 976.664 930.839 981.419 940.541 C 1002.43 983.424 1017.46 1028.88 1030.4 1074.78 C 1033.98 1087.47 1039.67 1092.04 1038.98 1105.96 C 1052.4 1115.64 1058.35 1125.05 1069.22 1136.95 C 1074.69 1142.94 1086.22 1147.81 1091.99 1154.15 C 1116.48 1182.25 1051.66 1179.81 1039.11 1176.34 C 1029.5 1173.59 1022.52 1166.81 1013.06 1163.29 C 1001.95 1159.16 980.975 1161.94 972.203 1154.98 C 966.793 1150.69 983.093 1117.3 986.272 1112.15 L 981.06 1104.89 C 933.314 1105.67 892.476 1108.7 846.487 1122.93 C 772.969 1145.68 688.29 1199.52 690.24 1286.38 C 690.276 1288.96 690.41 1291.53 690.642 1294.1 L 844.631 1293.98 C 866.534 1209.24 990.394 1190.27 1062.13 1210.35 C 1083.82 1216.42 1106.96 1227.13 1124.79 1240.94 C 1144.32 1227.55 1164.79 1216.42 1184.12 1203.63 C 1158.24 1181.48 1134.53 1170.66 1103.77 1158.18 C 1100.11 1151.13 1099.17 1149.34 1093.56 1143.29 C 1126.61 1153.14 1170.58 1173.68 1194.54 1198.12 C 1218.69 1180.72 1252.4 1161.14 1278.07 1145.36 L 1402.08 1068.65 C 1419.67 1057.85 1446.7 1042.23 1463.21 1030.56 C 1424.12 1012.94 1387.94 998.771 1348.26 982.688 L 1202.27 922.898 L 1066.52 866.515 C 1041.15 855.811 1009.77 841.489 984.487 832.073 C 976.697 835.272 966.951 839.592 959.13 842.235 C 957.853 838.13 956.716 834.621 955.793 830.398 C 965.811 826.629 974.718 823.238 984.521 818.857 C 1193.01 906.435 1402.17 992.401 1611.99 1076.75 C 1663.69 1097.95 1715.49 1118.9 1767.4 1139.58 C 1794.22 1150.23 1827.73 1161.77 1853.18 1174.34 C 1793.66 1208.2 1735.27 1245.39 1676.08 1279.93 C 1668.49 1284.37 1661.09 1288.85 1653.75 1293.7 C 1665.74 1293.91 1677.7 1294.2 1689.68 1293.94 C 1734.73 1266.88 1779.53 1239.42 1824.09 1211.57 C 1848.01 1196.77 1879.16 1178.46 1901.62 1162.49 C 1852.57 1139.23 1786.33 1114.11 1735.29 1093.44 L 1481.69 990.066 L 1132.3 846.568 C 1083.13 826.355 1032.79 804.61 983.309 785.41 C 969.067 790.737 955.237 795.837 941.278 801.862 C 939.127 796.221 937.274 791.637 935.839 785.757 L 982.554 767.468 L 1031.51 787.203 C 1037.05 789.578 1054.26 797.248 1059.32 798.382 C 1067.48 801.852 1075.62 805.403 1083.95 808.458 C 1133.93 714.38 1210.62 638.254 1314.31 606.566 C 1403.98 579.827 1500.61 589.988 1582.75 634.792 C 1676.51 685.374 1746.61 770.819 1777.88 872.659 C 1797.35 937.534 1801.11 1029.46 1779.25 1093.94 C 1794.66 1100.14 1812.03 1106.6 1827 1113.35 C 1834.55 1116.3 1846.9 1121.61 1854.26 1123.86 C 1873.39 1130.64 1912.7 1148.18 1930.79 1156.76 L 1930.92 1233.16 C 1898.81 1249.92 1860.71 1274.32 1829.63 1293.92 C 1870.2 1294.43 1912.19 1293.88 1952.87 1293.76 L 1952.95 1309 L 96.9698 1309.25 L 96.9027 1293.85 C 134.807 1293.9 174.553 1294.53 212.312 1293.51 C 183.517 1275.12 135.66 1245.84 105.842 1231.33 C 105.488 1205.03 105.082 1173.39 103.741 1147.47 C 131.383 1133.62 172.102 1118.3 201.653 1106.17 L 350.334 1044.76 C 479.008 991.824 607.947 939.54 737.146 887.904 L 742.174 903.314 C 712.483 913.633 677.013 929.264 647.265 941.311 L 454.399 1019.82 L 233.535 1110.47 C 201.839 1123.65 159.462 1139.65 129.58 1153.95 C 140.25 1161.65 156.268 1170.62 167.857 1177.38 L 221.281 1208.91 C 267.899 1236.66 316.886 1267.68 363.621 1294.17 C 380.613 1294.09 397.604 1293.9 414.594 1293.6 C 407.282 1289 399.647 1284.93 392.178 1280.59 C 323.427 1240.62 252.704 1202.81 185.211 1160.77 C 202.773 1154.2 218.802 1146.69 236.037 1139.69 C 274.039 1124.59 311.94 1109.24 349.735 1093.63 L 563.5 1008.49 C 595.709 995.564 627.998 982.838 660.363 970.31 C 667.101 967.657 697.196 953.945 701.924 954.854 L 702.122 957.188 C 699.865 962.717 695.654 966.743 691.646 971.305 C 653.164 983.505 600.436 1006.86 561.785 1021.81 C 444.359 1067.81 327.336 1114.84 210.729 1162.89 C 225.209 1173.38 260.293 1191.55 277.184 1201.46 C 330.365 1232.68 383.809 1261.77 436.481 1294.08 L 678.155 1294.09 L 678.138 1290.97 C 677.703 1154.54 842.792 1095.47 956.871 1094.22 C 962.864 1094.16 968.849 1094.13 974.841 1094.16 C 965.307 1076.68 956.893 1057.68 947.509 1040.07 C 934.811 1016.22 923.996 999.07 914.629 973.56 C 905.85 971.922 898.549 970.309 894.877 959.622 C 894.075 957.288 895.447 955.993 896.782 954.245 C 905.777 950.755 908.791 947.214 915.364 939.752 C 904.461 940.425 880.28 937.353 878.545 924.195 C 879.297 920.987 879.195 921.201 881.382 918.733 C 887.024 922.658 897.129 930.863 903.307 922.732 C 896.93 919.429 883.851 920.931 881.987 911.379 C 883.821 909.541 883.943 909.66 884.855 907.282 C 883.135 903.072 876.295 894.18 873.395 889.635 C 865.38 877.073 857.776 864.242 849.307 852.002 C 842.094 868.87 835.672 886.066 830.063 903.533 C 823.305 924.8 817.064 946.88 807.95 967.324 C 803.242 977.886 800.022 978.547 789.842 982.159 C 782.198 991.19 776.865 1007.29 765.22 1011.34 C 758.357 1016.52 747.189 1027.4 740.785 1033.39 C 718.04 1054.66 691.49 1074.48 670.131 1096.83 C 687.204 1097.37 701.008 1103.77 716.278 1110.31 C 787.339 1140.72 711.956 1152.13 679.948 1150.11 C 671.548 1149.4 661.584 1140.58 654.278 1138.65 C 630.602 1132.38 610.089 1134.29 617.908 1099.37 C 618.801 1095.38 620.282 1091.54 622.305 1087.99 C 626.887 1079.97 634.452 1071.25 639.655 1062.62 C 657.895 1032.38 676.971 981.144 706.671 961.879 C 721.37 970.597 718.887 971.645 737.246 976.635 C 728.84 969.605 707.209 953.074 708.99 940.173 C 709.916 933.461 727.725 931.882 734.619 928.327 C 745.686 943.163 750.11 947.262 767.894 952.122 C 754.535 943.811 748.776 937.809 743.295 923.223 C 744.418 918.555 746.405 912.377 747.785 907.648 C 752.939 914.152 762.635 922.455 771.449 922.18 C 768.239 916.166 765.236 919.466 762.067 916.649 C 751.177 906.969 747.973 890.085 745.187 876.599 C 748.4 878.981 751.914 882.54 754.872 885.355 C 747.902 869.973 748.014 839.626 745.821 821.648 C 742.805 796.914 736.77 771.439 737.321 746.758 C 737.698 729.862 752.302 717.616 764.12 707.464 C 763.261 706.261 762.434 705.035 761.638 703.79 C 745.812 678.821 755.673 609.564 762.528 579.96 C 770.231 546.319 784.263 514.451 803.876 486.054 C 807.411 481.022 812.179 473.375 817.631 470.514 C 823.758 467.3 822.466 465.552 823.782 459.141 C 827.012 456.585 830.552 456.211 834.656 455.242 C 822.471 433.133 812.928 397.532 828.999 374.627 C 841.925 356.205 872.855 348.801 893.758 355.278 C 907.425 359.512 915.819 372.488 928.345 378.711 C 939.569 384.072 954.016 383.613 964.708 389.826 C 966.002 390.613 965.674 391.768 965.869 393.671 C 960.824 405.919 938.172 408.028 930.876 416.726 C 930.42 420.152 930.065 418.589 932.162 421.525 C 944.265 421.01 978.266 397.714 983.4 405.036 C 979.985 411.576 941.063 426.303 931.657 430.2 C 942.448 448.824 931.623 454.736 929.676 478.731 C 921.733 491.643 914.067 490.892 900.098 491.687 C 900.423 491.893 900.747 492.099 901.071 492.305 L 902.71 493.306 C 913.46 499.974 924.486 502.699 935.415 508.611 C 941.063 511.666 948.221 518.383 953.687 521.798 C 970.893 532.546 985.333 544.103 1001.49 556.029 C 1015.77 552.694 1030.72 548.769 1043.66 541.62 C 1059.83 532.675 1067.5 525.336 1085.23 519.633 C 1065.49 488.541 1047.81 454.716 1028.57 423.125 C 981.533 345.924 937.242 267.809 893.713 188.605 z" fill="rgb(22,24,64)" transform="translate(0,0)"></path>
<path d="M 1083.95 808.458 C 1133.93 714.38 1210.62 638.254 1314.31 606.566 C 1403.98 579.827 1500.61 589.988 1582.75 634.792 C 1676.51 685.374 1746.61 770.819 1777.88 872.659 C 1797.35 937.534 1801.11 1029.46 1779.25 1093.94 C 1771.37 1091.35 1760.82 1085.94 1752.2 1082.75 C 1740.42 1077.39 1724.6 1071.53 1712.32 1066.52 L 1684.62 1054.91 C 1673.63 1051.5 1660.09 1044.94 1648.26 1040.86 C 1639.03 1036.69 1629.59 1032.65 1620.31 1028.58 L 1579.77 1012.07 C 1499.09 979.906 1418.64 947.194 1338.42 913.932 C 1314.96 904.332 1291.1 893.32 1267.52 884.268 C 1251.99 878.309 1236.59 872.018 1221.33 865.401 C 1215.28 863.58 1200.65 856.492 1192.64 853.634 C 1183.93 850.728 1175.9 846.241 1166.81 843.364 C 1157.36 839.137 1147.85 835.054 1138.27 831.119 L 1112.99 820.141 C 1104.79 817.568 1093.47 811.707 1083.95 808.458 z" fill="rgb(255,255,255)" transform="translate(0,0)"></path>
<path d="M 1083.95 808.458 C 1133.93 714.38 1210.62 638.254 1314.31 606.566 C 1403.98 579.827 1500.61 589.988 1582.75 634.792 C 1676.51 685.374 1746.61 770.819 1777.88 872.659 C 1797.35 937.534 1801.11 1029.46 1779.25 1093.94 C 1771.37 1091.35 1760.82 1085.94 1752.2 1082.75 C 1740.42 1077.39 1724.6 1071.53 1712.32 1066.52 L 1684.62 1054.91 C 1695.59 996.184 1696.74 950.014 1676.75 892.282 C 1651.56 818.026 1597.25 757.213 1526.3 723.829 C 1461.58 692.647 1387.01 688.92 1319.5 713.495 C 1267.56 732.189 1220.5 768.15 1187.13 811.966 C 1180.94 820.103 1171.12 834.136 1166.81 843.364 C 1157.36 839.137 1147.85 835.054 1138.27 831.119 L 1112.99 820.141 C 1104.79 817.568 1093.47 811.707 1083.95 808.458 z" fill="rgb(255,255,255)" transform="translate(0,0)"></path>
<path d="M 1083.95 808.458 C 1133.93 714.38 1210.62 638.254 1314.31 606.566 C 1403.98 579.827 1500.61 589.988 1582.75 634.792 C 1676.51 685.374 1746.61 770.819 1777.88 872.659 C 1797.35 937.534 1801.11 1029.46 1779.25 1093.94 C 1771.37 1091.35 1760.82 1085.94 1752.2 1082.75 C 1763.31 1051.01 1765.2 998.455 1763.64 965.423 C 1754.62 774.605 1584.2 608.863 1390.18 622.584 C 1280.69 630.328 1186.57 697.569 1129.99 790.09 C 1124.69 798.742 1119.62 813.2 1112.99 820.141 C 1104.79 817.568 1093.47 811.707 1083.95 808.458 z" fill="rgb(186,37,58)" transform="translate(0,0)"></path>
<path d="M 1138.27 831.119 C 1147.89 815.68 1157.45 800.736 1168.87 786.517 C 1212.65 731.509 1273.53 692.666 1341.86 676.129 C 1421.72 657.902 1505.55 672.367 1574.68 716.303 C 1646.32 761.387 1696.87 833.324 1715.01 915.995 C 1727.1 969.07 1724.55 1014.44 1712.32 1066.52 L 1684.62 1054.91 C 1695.59 996.184 1696.74 950.014 1676.75 892.282 C 1651.56 818.026 1597.25 757.213 1526.3 723.829 C 1461.58 692.647 1387.01 688.92 1319.5 713.495 C 1267.56 732.189 1220.5 768.15 1187.13 811.966 C 1180.94 820.103 1171.12 834.136 1166.81 843.364 C 1157.36 839.137 1147.85 835.054 1138.27 831.119 z" fill="rgb(186,37,58)" transform="translate(0,0)"></path>
<path d="M 1267.52 884.268 C 1275.11 873.374 1287.95 861.017 1298.44 853.093 C 1404.85 772.686 1554.75 835.348 1578.2 965.431 C 1581.1 981.556 1581.56 996.103 1579.77 1012.07 C 1499.09 979.906 1418.64 947.194 1338.42 913.932 C 1314.96 904.332 1291.1 893.32 1267.52 884.268 z" fill="rgb(186,37,58)" transform="translate(0,0)"></path>
<path d="M 1221.33 865.401 C 1259.72 815.636 1309.59 782.863 1372.76 774.583 C 1432.06 766.644 1492.09 782.453 1539.79 818.567 C 1586.15 854.33 1614.69 902.024 1623.23 960.499 C 1626.68 984.124 1624.42 1005.24 1620.31 1028.58 L 1579.77 1012.07 C 1581.56 996.103 1581.1 981.556 1578.2 965.431 C 1554.75 835.348 1404.85 772.686 1298.44 853.093 C 1287.95 861.017 1275.11 873.374 1267.52 884.268 C 1251.99 878.309 1236.59 872.018 1221.33 865.401 z" fill="rgb(255,255,255)" transform="translate(0,0)"></path>
<path d="M 1192.64 853.634 C 1237.28 793.393 1287.24 758.291 1362.75 747.038 C 1432.29 736.125 1503.29 753.863 1559.52 796.202 C 1610.42 834.551 1644.02 891.544 1652.92 954.654 C 1657 983.399 1656.52 1012.92 1648.26 1040.86 C 1639.03 1036.69 1629.59 1032.65 1620.31 1028.58 C 1624.42 1005.24 1626.68 984.124 1623.23 960.499 C 1614.69 902.024 1586.15 854.33 1539.79 818.567 C 1492.09 782.453 1432.06 766.644 1372.76 774.583 C 1309.59 782.863 1259.72 815.636 1221.33 865.401 C 1215.28 863.58 1200.65 856.492 1192.64 853.634 z" fill="rgb(186,37,58)" transform="translate(0,0)"></path>
<path d="M 955.423 622.392 C 976.477 628.552 992.919 631.923 1014.47 626.991 C 1011 633.147 974.318 646.159 965.168 649.682 C 951.688 654.872 936.138 661.872 922.724 666.625 C 925.282 658.561 928.614 643.585 927.91 635.224 C 927.465 632.75 927.513 633 927.471 630.536 L 929.618 629.378 C 934.058 629.585 935.163 629.404 939.622 628.749 C 938.205 630.858 938.483 630.007 938.364 632.59 L 955.423 622.392 z" fill="rgb(186,37,58)" transform="translate(0,0)"></path>
<path d="M 927.91 635.224 C 927.465 632.75 927.513 633 927.471 630.536 L 929.618 629.378 C 934.058 629.585 935.163 629.404 939.622 628.749 C 938.205 630.858 938.483 630.007 938.364 632.59 C 933.964 635.387 933.224 634.938 927.91 635.224 z" fill="rgb(7,10,34)" transform="translate(0,0)"></path>
<path d="M 775.226 710.711 C 779.809 712.235 784.425 713.653 789.073 714.963 C 815.8 722.344 857.077 722.987 881.337 709.207 C 882.565 713.077 884.225 716.597 883.198 720.405 C 881.603 722.658 880.654 722.756 878.109 723.921 C 857.057 731.013 830.695 733.518 808.592 731.333 C 791.903 729.684 784.912 722.934 775.226 710.711 z" fill="rgb(255,255,255)" transform="translate(0,0)"></path>
<path d="M 881.337 709.207 C 881.117 708.264 881.332 707.484 881.442 706.429 C 885 701.534 889.174 696.416 895.707 698.181 C 884.951 712.271 904.927 718.657 905.446 732.216 C 905.623 736.83 904.15 741.461 903.801 746 C 900.86 747.085 895.803 750.435 893.205 750.261 C 881.794 749.494 886.313 733.613 887.663 727.809 C 883.193 726.55 881.875 726.432 878.109 723.921 C 880.654 722.756 881.603 722.658 883.198 720.405 C 884.225 716.597 882.565 713.077 881.337 709.207 z" fill="rgb(7,10,34)" transform="translate(0,0)"></path>
<path d="M 1477.18 1035.21 C 1485.72 1039.67 1512.81 1049.54 1523.59 1053.84 L 1617.16 1091.71 L 1755.37 1147.43 C 1775.55 1155.46 1807.75 1169.14 1828.02 1175.12 C 1810.31 1187.11 1786.02 1201.21 1767.55 1212.2 C 1732.05 1233.09 1696.69 1254.21 1661.46 1275.55 C 1651.4 1281.73 1638.05 1293.07 1626.72 1293.51 C 1608.69 1294.21 1589.32 1293.91 1571.28 1293.9 L 1449.24 1293.77 C 1441.23 1226.92 1385.53 1159.73 1327.91 1127.64 C 1377.56 1098.44 1427.87 1065.51 1477.18 1035.21 z" fill="rgb(255,255,255)" transform="translate(0,0)"></path>
<path d="M 1318.14 1134.1 C 1375.05 1170.9 1428.15 1223.3 1437.81 1293.62 C 1401.02 1294.46 1361.51 1293.76 1324.5 1293.8 L 1238.06 1293.88 C 1238.56 1252.72 1229.46 1235.44 1202.33 1205.22 C 1241.06 1181.72 1279.66 1158.01 1318.14 1134.1 z" fill="rgb(255,255,255)" transform="translate(0,0)"></path>
<path d="M 989.959 1214.42 C 1029.98 1210.49 1081.16 1222.83 1113.38 1247.16 C 1096.61 1259.27 1076.83 1269.67 1059.55 1281.64 L 1055.74 1291.59 C 1033.47 1284.79 1005.69 1279.51 983.585 1289.67 L 982.247 1293.14 C 977.921 1295.28 869.526 1293.97 856.048 1293.92 C 874.106 1238.75 937.275 1218.06 989.959 1214.42 z" fill="rgb(255,255,255)" transform="translate(0,0)"></path>
<path d="M 121.476 1169.64 C 130.712 1173.4 329.395 1290.71 332.364 1293.91 C 308.794 1294.49 268.419 1295.04 245.589 1292.78 C 242.233 1292.45 199.173 1264.82 191.628 1260.25 L 121.876 1218.73 L 121.476 1169.64 z" fill="rgb(255,255,255)" transform="translate(0,0)"></path>
<path d="M 1106.34 525.28 L 1108.56 525.919 C 1113.01 531.81 1101.28 536.552 1100.88 545.953 C 1104.83 557.173 1123.72 552.949 1130.47 559.244 L 1130.26 560.207 C 1128.34 569.425 1130.09 566.298 1134.65 574.078 C 1148 596.87 1124.59 601.192 1106.94 598.902 C 1100.77 598.102 1087.08 592.077 1081.43 593.601 C 1035.83 605.911 1016.98 626.814 968.476 612.07 L 948.12 606.046 C 951.331 595.635 963.724 555.754 970.982 550.88 C 976.518 551.029 987.108 558.9 992.297 562.327 C 988.847 567.718 988.162 571.05 986.582 577.066 C 1006.04 564.464 1012.1 568.853 1033.66 569.119 C 1047.8 569.293 1076.41 576.178 1084.11 561.714 C 1088.21 554.025 1087.24 539.273 1084.5 531.141 C 1093.01 528.317 1097.58 527.003 1106.34 525.28 z" fill="rgb(255,255,255)" transform="translate(0,0)"></path>
<path d="M 1912.64 1173.79 C 1914.07 1178.12 1913.38 1216.46 1913.43 1223.39 C 1876.71 1247.27 1836.57 1269.47 1798.56 1294.1 C 1773.74 1294.52 1747.46 1293.99 1722.53 1293.87 L 1722.64 1292.28 L 1823.14 1230.46 C 1849.21 1214.54 1888.16 1191.25 1912.64 1173.79 z" fill="rgb(255,255,255)" transform="translate(0,0)"></path>
<path d="M 1192.9 1211.86 C 1210.26 1225.63 1235.12 1270.35 1223.66 1291.84 C 1221.77 1295.37 1175.25 1293.79 1168.35 1293.73 L 1151.32 1293.59 C 1151.6 1274.87 1143.73 1264.22 1133.97 1249.05 C 1154.74 1234.56 1171.17 1224.69 1192.9 1211.86 z" fill="rgb(255,255,255)" transform="translate(0,0)"></path>
<path d="M 947.863 960.905 C 961.598 969.332 987.394 1045.11 992.761 1063.57 C 995.581 1073.28 998.841 1090.87 1002.39 1100.31 C 1005.22 1107.83 1023 1101.49 1029.93 1102.64 L 1029.65 1104.3 C 1024.13 1109.5 1020.98 1108.32 1012.98 1108.28 C 1005.19 1108.09 1000.91 1106.26 993.953 1103.38 C 984.117 1090.62 969.375 1059.14 961.423 1043.4 C 950.407 1021.59 931.495 992.506 925.482 970.136 C 933.529 967.213 940.026 964.405 947.863 960.905 z" fill="rgb(255,255,255)" transform="translate(0,0)"></path>
<path d="M 862.493 428.214 C 889.483 428.85 893.033 447.185 923.855 432.734 C 927.118 437.234 928.886 440.669 931.486 445.507 C 927.232 450.118 926.431 451.436 923.463 456.753 C 920.237 462.536 912.315 468.085 907.286 473.325 C 912.545 474.925 915.302 472.977 919.769 475.237 L 919.988 476.965 C 913.858 485.131 899.443 480.555 890.884 478.815 C 873.454 475.272 847.966 451.603 854.235 432.321 C 856.484 429.347 858.821 429.216 862.493 428.214 z" fill="rgb(255,255,255)" transform="translate(0,0)"></path>
<path d="M 706.171 975.582 C 724.1 983.213 697.318 1021.03 690.72 1029.68 C 673.691 1052.01 659.086 1075.09 645.607 1099.67 C 644.176 1102.28 643.892 1101.8 641.397 1102.19 C 637.889 1099.93 635.721 1099.05 633.71 1095.58 C 634.446 1090.71 642.963 1076.69 646.017 1071.76 C 664.477 1041.96 680.294 999.663 706.171 975.582 z" fill="rgb(255,255,255)" transform="translate(0,0)"></path>
<path d="M 1122.1 1255.76 C 1132.52 1256.59 1139.49 1284.53 1140.26 1293.34 C 1122.97 1294.05 1103.58 1293.6 1086.14 1293.56 C 1080.1 1293.52 1073.52 1293.78 1067.66 1292.66 L 1067.35 1291.09 C 1070.39 1285.51 1113.52 1260.93 1122.1 1255.76 z" fill="rgb(255,255,255)" transform="translate(0,0)"></path>
<path d="M 840.617 477.063 C 855.977 475.805 872.996 492.924 885.625 502.81 C 857.497 488.256 828.957 494.08 803.913 511.777 C 792.67 520.568 787.693 529.187 780.093 541.009 C 791.385 507.109 810.193 492.486 840.617 477.063 z" fill="rgb(255,255,255)" transform="translate(0,0)"></path>
<path d="M 748.969 1001 C 751.629 1003.05 752.264 1003.18 753.77 1006.2 C 750.293 1014.15 686.307 1066.16 674.985 1076.34 L 673.413 1077.53 L 672.861 1077.1 C 696.248 1046.44 719.061 1024.92 748.969 1001 z" fill="rgb(255,255,255)" transform="translate(0,0)"></path>
<path d="M 1076 534.774 L 1076.69 535.028 C 1078.67 537.501 1078.16 539.259 1078.27 542.508 C 1079.08 567.739 1054.23 561.181 1036.24 559.312 L 1032.99 558.805 L 1033 558.295 C 1048.13 550.527 1061.47 543.687 1076 534.774 z" fill="rgb(255,255,255)" transform="translate(0,0)"></path>
<path d="M 1039.75 1120.25 L 1041.81 1120.08 L 1042.63 1121.76 C 1040.99 1125.69 1027.49 1141.67 1023.38 1147.99 L 1020.85 1148.97 L 1020.2 1149.3 C 1018.15 1145.05 1019.69 1146.31 1016.11 1144.66 C 1014.91 1145.73 1015.7 1145.21 1013.53 1145.87 L 1012.11 1144.45 C 1011.46 1133.87 1021.84 1123.21 1031.74 1120.36 C 1035.76 1121.12 1035.79 1121.05 1039.75 1120.25 z" fill="rgb(7,10,34)" transform="translate(0,0)"></path>
<path d="M 1039.75 1120.25 L 1041.81 1120.08 L 1042.63 1121.76 C 1040.99 1125.69 1027.49 1141.67 1023.38 1147.99 L 1020.85 1148.97 C 1022.17 1134.99 1030.23 1130.2 1039.75 1120.25 z" fill="rgb(255,255,255)" transform="translate(0,0)"></path>
<path d="M 1016.11 1144.66 C 1014.91 1145.73 1015.7 1145.21 1013.53 1145.87 L 1012.11 1144.45 C 1011.46 1133.87 1021.84 1123.21 1031.74 1120.36 C 1025.91 1126.87 1016.85 1135.61 1016.11 1144.66 z" fill="rgb(255,255,255)" transform="translate(0,0)"></path>
<path d="M 911.558 378.821 L 913.492 378.883 C 916.775 380.433 918.18 383.049 920.398 386.027 C 905.185 386.912 898.003 388.483 883.291 391.791 C 880.23 392.414 879.58 392.519 876.47 392.619 L 877.351 391.705 C 882.309 390.96 906.262 381.168 911.558 378.821 z" fill="rgb(255,255,255)" transform="translate(0,0)"></path>
<path d="M 1117.44 536.594 L 1120.47 536.844 C 1124.7 539.428 1129.66 543.865 1128.35 549.252 L 1125.67 549.372 C 1119 547.103 1121.61 544.616 1112.8 542.446 C 1113.34 539.665 1114.94 539.037 1117.44 536.594 z" fill="rgb(255,255,255)" transform="translate(0,0)"></path>
<path d="M 686.745 1107.7 L 688.167 1109.06 C 686.79 1114.2 677.463 1118.45 672.498 1121.34 L 670.973 1120.83 C 672.713 1117.35 683.061 1110.41 686.745 1107.7 z" fill="rgb(255,255,255)" transform="translate(0,0)"></path>
<path d="M 707.814 1117.67 C 710.339 1117.76 709.166 1117.42 711.333 1118.7 C 710.133 1121.67 706.116 1124.16 703.416 1126.25 C 702.278 1126.75 701.684 1126.69 700.389 1126.86 L 700.224 1125.69 C 703.017 1121.37 703.729 1121.02 707.814 1117.67 z" fill="rgb(255,255,255)" transform="translate(0,0)"></path>
<path d="M 697.484 1115.23 L 697.653 1116.29 C 694.902 1120.2 689.011 1123.17 684.747 1125.08 L 684.548 1123.91 C 688.698 1118.56 691.013 1117.23 697.484 1115.23 z" fill="rgb(255,255,255)" transform="translate(0,0)"></path>
<path d="M 209.402 1659.5 L 1950.83 1659.17 L 1950.77 1675.93 L 1655.5 1675.93 C 1544.22 1675.87 1429.31 1674.3 1318.36 1676.05 L 1136.03 1792.12 C 1100.29 1814.99 1057.78 1843.62 1021.27 1864.34 L 788.944 1718.89 C 772.214 1708.63 738.559 1683.91 722.475 1677.67 C 712.062 1673.63 559.989 1675.95 538.448 1675.96 L 96.2473 1676.32 L 96.1701 1659.84 L 209.402 1659.5 z" fill="rgb(22,24,64)" transform="translate(0,0)"></path>
<path d="M 755.382 1676.23 C 781.12 1675.4 813.27 1675.96 839.083 1676.23 C 849.711 1682.65 861.182 1690.51 872.002 1697.2 L 1014.07 1784.93 L 1014.06 1837.52 C 1002.09 1831.47 985.51 1820.51 974.014 1813.29 L 909.032 1772.43 C 859.158 1741.09 804.326 1708.58 755.382 1676.23 z" fill="rgb(255,255,255)" transform="translate(0,0)"></path>
<path d="M 1200.72 1676.01 C 1225.84 1675.05 1258.78 1676.21 1284.38 1676.34 C 1265.34 1689.78 1238.17 1705.32 1217.83 1718.32 L 1084.05 1803.85 L 1031.53 1836.83 C 1031.56 1819.44 1031.44 1802.04 1031.17 1784.65 L 1200.72 1676.01 z" fill="rgb(255,255,255)" transform="translate(0,0)"></path>
<path d="M 1136.71 1676.01 C 1147.96 1675.9 1159.21 1675.91 1170.46 1676.03 C 1165.75 1678.77 1160.76 1681.99 1156.09 1684.87 C 1119.24 1707.56 1083.04 1731.51 1046.28 1754.37 C 1037.84 1759.61 1029.64 1764.94 1020.8 1769.49 C 1009.86 1763.78 990.549 1750.61 979.133 1743.67 C 942.459 1721.39 906.068 1697.37 868.756 1676.1 C 880.561 1675.88 892.369 1675.95 904.17 1676.33 L 983.866 1725.58 C 995.697 1732.8 1008.16 1741.02 1020.15 1747.68 C 1028.49 1743.47 1039.11 1735.98 1047.51 1731.15 C 1077.67 1713.78 1106.73 1693.42 1136.71 1676.01 z" fill="rgb(255,255,255)" transform="translate(0,0)"></path>
<path d="M 926.399 1676.2 C 944.008 1675.1 971.358 1676.01 989.751 1676.01 L 1114.67 1675.91 L 1077.93 1699.04 C 1058.58 1710.9 1039.33 1722.93 1020.19 1735.11 C 990.25 1715.34 956.978 1695.35 926.399 1676.2 z" fill="rgb(255,255,255)" transform="translate(0,0)"></path>
<path d="M 1201.3 546.609 C 1209.86 542.839 1219.53 540.572 1228.39 537.506 C 1336.85 499.96 1455.48 498.599 1563.1 540.47 C 1683.5 587.171 1780.2 680.123 1831.62 798.587 C 1867.45 879.695 1879.92 969.192 1867.64 1057.01 C 1864.69 1079.78 1861.18 1101.89 1854.26 1123.86 C 1846.9 1121.61 1834.55 1116.3 1827 1113.35 C 1833.87 1084.87 1839.27 1058.28 1841.84 1029 C 1849.7 932.546 1826.23 836.126 1774.92 754.071 C 1712.34 651.439 1611.27 578.133 1494.27 550.513 C 1462.82 542.999 1434.53 540.484 1402.46 538.67 C 1394.08 538.196 1381.57 527.293 1371.76 527.933 C 1358.58 527.985 1343.76 529.215 1330.69 531.342 C 1288.43 538.219 1243.22 539.773 1201.3 546.609 z" fill="rgb(186,37,58)" transform="translate(0,0)"></path>
<path d="M 1436.92 1395.79 C 1485.09 1389.83 1529.03 1423.91 1535.24 1472.05 C 1541.46 1520.19 1507.62 1564.31 1459.52 1570.79 C 1411.04 1577.31 1366.51 1543.16 1360.24 1494.65 C 1353.98 1446.14 1388.37 1401.79 1436.92 1395.79 z" fill="rgb(186,37,58)" transform="translate(0,0)"></path>
<path d="M 1439 1432.84 C 1466.97 1428.11 1493.44 1447.07 1497.96 1475.08 C 1502.49 1503.09 1483.32 1529.42 1455.28 1533.73 C 1427.53 1538 1401.54 1519.08 1397.07 1491.37 C 1392.6 1463.65 1411.32 1437.52 1439 1432.84 z" fill="rgb(255,255,255)" transform="translate(0,0)"></path>
<path d="M 885.861 199.137 L 887.662 199.007 C 893.064 202.458 914.712 246.288 919.307 255.294 C 892.45 258.461 839.815 270.937 813.978 278.428 C 646.102 326.546 500.511 432.204 402.717 576.89 C 388.749 597.599 376.94 618.629 364.916 640.484 L 355.764 657.727 L 354.432 657.914 L 355.333 658.441 L 354.04 660.091 L 354.078 660.104 L 354.409 657.544 L 354.225 659.873 L 354.022 658.9 L 355.185 658.431 L 354.442 657.406 C 360.332 638.41 376.789 605.651 386.083 588.101 C 469.834 429.95 602.738 308.461 767.939 239.119 C 809.329 221.746 842.88 211.818 885.861 199.137 z" fill="rgb(22,24,64)" transform="translate(0,0)"></path>
<path d="M 767.2 1398.37 C 806.806 1398.46 850.448 1392.59 881.336 1420.44 C 898.079 1435.79 907.889 1457.28 908.529 1479.98 C 909.466 1504.81 900.995 1525.6 884.297 1543.63 C 852.112 1574.21 809.606 1568.19 767.493 1568.11 C 768.162 1511.81 766.686 1454.81 767.2 1398.37 z" fill="rgb(22,24,64)" transform="translate(0,0)"></path>
<path d="M 802.15 1431.93 C 822.981 1431.48 842.104 1430.64 858.704 1445.71 C 872.693 1458.41 876.732 1477.02 873.369 1495.05 C 871.281 1506.24 866.817 1513.25 859.465 1521.41 C 842.258 1536.3 823.395 1535.14 802.178 1534.99 L 802.15 1431.93 z" fill="rgb(255,255,255)" transform="translate(0,0)"></path>
<path d="M 1557.78 1397.72 L 1590.66 1397.9 C 1597.84 1410.13 1611.62 1428.79 1619.89 1441.11 C 1634.45 1462.83 1649.5 1485.85 1664.85 1506.9 C 1664.79 1470.62 1664.53 1434.33 1664.06 1398.05 L 1700.44 1398 C 1701.19 1453.66 1700.76 1511.52 1700.62 1567.25 C 1700.52 1569.48 1700.87 1568.39 1699.29 1570.4 C 1693.13 1571.68 1673.13 1571.06 1665.45 1570.98 C 1654.07 1553.65 1641.89 1536.48 1630.25 1519.27 C 1618.35 1501.68 1606.4 1482.77 1593.74 1465.82 C 1594.33 1500.87 1594.18 1535.94 1593.29 1570.98 L 1558.07 1571.04 L 1557.78 1397.72 z" fill="rgb(186,37,58)" transform="translate(0,0)"></path>
<path d="M 949.659 305.363 C 950.424 305.213 951.759 305.42 952.623 305.493 C 955.854 309.092 958.674 315.54 960.943 320.041 C 935.842 323.508 914.462 329.368 890.413 336.437 C 882.173 337.264 873.881 337.616 865.57 338.121 C 846.464 339.282 831.527 364.164 816.812 368.985 C 789.839 377.821 763.568 384.39 736.987 395.32 C 606.644 448.136 494.393 537.583 413.809 652.844 C 412.308 655.116 411.744 655.733 409.896 657.76 C 411.219 649.19 444.451 600.775 451.275 591.625 C 574.396 426.547 748.067 334.959 949.659 305.363 z" fill="rgb(22,24,64)" transform="translate(0,0)"></path>
<path d="M 526.812 1398.3 L 625.686 1398.6 L 625.387 1430.91 L 560.966 1430.52 L 560.967 1464.32 C 580.805 1464.94 601.911 1464.35 622.065 1464.75 L 622.069 1496.04 C 608.965 1495.94 573.573 1494.95 562.175 1496.36 C 560.543 1498.9 561.126 1500.19 561.01 1503.75 L 560.974 1536 L 625.189 1535.67 L 625.182 1567.88 L 526.98 1567.91 C 526.826 1511.63 526.228 1454.51 526.812 1398.3 z" fill="rgb(22,24,64)" transform="translate(0,0)"></path>
<path d="M 1219.63 1394.44 C 1242.81 1395.04 1253.62 1400.67 1272.28 1414.24 C 1265.62 1424.29 1259.38 1435.12 1253.19 1445.5 C 1244.1 1437.71 1215.57 1413.19 1203.83 1441.97 C 1202.47 1452.82 1219.53 1460.97 1225.59 1463.7 C 1255.05 1476.93 1278.76 1487.93 1275.79 1522.91 C 1274.66 1537.27 1267.67 1550.52 1256.46 1559.55 C 1241.39 1571.78 1224.38 1572.46 1206.13 1570.87 C 1185.83 1567.34 1172.98 1558.45 1157.78 1545.43 C 1165.08 1534.69 1170.76 1525.42 1177.37 1514.22 C 1189.19 1526.48 1201.08 1536.19 1219.01 1536.68 C 1228.82 1536.95 1241.24 1528.32 1239.52 1517.95 C 1237.22 1507.67 1219.8 1498.92 1210.33 1495.46 C 1170.6 1480.94 1151.65 1449.11 1179.27 1411.44 C 1188.27 1399.16 1204.23 1395.51 1219.63 1394.44 z" fill="rgb(186,37,58)" transform="translate(0,0)"></path>
<path d="M 1041.92 1397.96 L 1082.74 1398.11 C 1075.19 1412.52 1068.82 1427.47 1062.26 1442.36 C 1042.44 1483.87 1023.51 1526.55 1004.19 1568.41 C 998.287 1568.57 992.063 1568.5 986.128 1568.51 C 979.343 1551.04 969.384 1530.68 961.522 1513.46 L 928.851 1440.55 C 922.839 1427.23 914.736 1411.39 909.883 1398 C 923.246 1398.31 936.616 1398.31 949.98 1398 C 963.359 1432.97 981.347 1468.06 994.657 1504.13 C 1012.28 1469.56 1024.89 1431.77 1041.92 1397.96 z" fill="rgb(186,37,58)" transform="translate(0,0)"></path>
<path d="M 182.626 1415.63 C 186.727 1418.66 203.338 1435.25 207.856 1439.69 C 224.436 1455.95 242.182 1472.49 257.956 1489.4 C 235.028 1513.96 206.628 1537.18 183.294 1562.71 C 175.8 1557.02 165.23 1545.93 158.092 1539.16 C 141.219 1523.17 124.659 1505.91 107.327 1490.44 C 114.913 1481.49 126.893 1470.33 135.389 1462.06 C 151.304 1446.76 167.05 1431.28 182.626 1415.63 z" fill="rgb(186,37,58)" transform="translate(0,0)"></path>
<path d="M 331.121 1398.29 C 366.439 1398.52 401.758 1398.57 437.076 1398.44 L 437.071 1431.06 L 365.889 1430.81 L 365.921 1464.78 L 426.822 1464.69 L 426.757 1497.24 C 406.371 1497.43 385.984 1497.5 365.597 1497.46 C 365.648 1520.91 365.55 1544.35 365.304 1567.79 C 354.012 1567.96 342.361 1567.83 331.039 1567.83 C 330.965 1511.7 330.295 1454.31 331.121 1398.29 z" fill="rgb(22,24,64)" transform="translate(0,0)"></path>
<path d="M 1858.07 1420.65 C 1863.75 1422.9 1919.66 1480.66 1929.91 1489.5 C 1906.56 1513.44 1882.76 1536.94 1858.5 1559.96 C 1835.93 1539.02 1807.15 1511.71 1785.76 1489.98 C 1794 1480.91 1808.59 1467.61 1817.89 1458.61 C 1829.54 1447.33 1846.04 1430.34 1858.07 1420.65 z" fill="rgb(186,37,58)" transform="translate(0,0)"></path>
<path d="M 1189.88 596.231 C 1207.34 596.511 1224.67 597.008 1242.13 596.716 C 1235.01 603.167 1225.5 608.997 1217.44 614.48 C 1205.5 622.473 1193.83 630.858 1182.45 639.621 C 1139.5 672.919 1102.13 718.802 1075.78 766.152 C 1070.77 775.151 1062.97 788.945 1059.32 798.382 C 1054.26 797.248 1037.05 789.578 1031.51 787.203 C 1063.53 715.422 1123.33 638.554 1189.88 596.231 z" fill="rgb(186,37,58)" transform="translate(0,0)"></path>
<path d="M 654.975 1398.26 L 688.959 1398.38 L 688.956 1535.22 L 748.606 1535 C 748.436 1545.96 748.475 1557.08 748.428 1568.05 L 654.938 1568.02 C 654.742 1512.78 653.726 1453.19 654.975 1398.26 z" fill="rgb(22,24,64)" transform="translate(0,0)"></path>
<path d="M 1299.7 1398.26 L 1336.81 1398.05 C 1337.14 1454.99 1337.15 1511.94 1336.83 1568.89 L 1299.89 1568.46 L 1299.7 1398.26 z" fill="rgb(186,37,58)" transform="translate(0,0)"></path>
<path d="M 1101.91 1397.87 C 1113.81 1397.77 1125.96 1397.95 1137.87 1398.02 C 1138.31 1454.81 1138.36 1511.6 1138.02 1568.39 C 1126.02 1568.2 1114.02 1568.18 1102.02 1568.33 C 1101.69 1511.51 1101.65 1454.69 1101.91 1397.87 z" fill="rgb(186,37,58)" transform="translate(0,0)"></path>
<path d="M 458.057 1398.32 C 469.423 1398.19 480.79 1398.25 492.155 1398.48 L 491.519 1567.85 L 458.266 1567.91 L 458.057 1398.32 z" fill="rgb(22,24,64)" transform="translate(0,0)"></path>
<path d="M 810.384 430.09 C 813.162 430.394 816.937 444.02 818.214 447.389 C 814.601 451.038 811.563 453.92 806.644 455.666 C 790.528 461.385 773.375 465.757 757.012 470.887 C 732.374 478.819 708.248 488.265 684.774 499.172 C 600.942 537.566 534.572 588.083 473.618 656.617 C 471.941 658.535 470.811 659.559 468.96 661.278 L 468.639 660.645 C 478.181 644.723 503.329 617.006 516.726 603.418 C 580.823 538.231 657.855 487.182 742.867 453.555 C 763.999 444.971 788.297 435.963 810.384 430.09 z" fill="rgb(22,24,64)" transform="translate(0,0)"></path>
<path d="M 1203.24 967.621 C 1221.76 965.823 1238.21 979.411 1239.95 997.933 C 1241.68 1016.46 1228.04 1032.86 1209.51 1034.54 C 1191.07 1036.2 1174.76 1022.64 1173.03 1004.2 C 1171.31 985.769 1184.81 969.411 1203.24 967.621 z" fill="rgb(22,24,64)" transform="translate(0,0)"></path>
<path d="M 1188.84 1003.91 C 1189.18 999.421 1189.51 995.469 1189.51 990.942 L 1188.32 990.7 L 1185.38 993.323 C 1187.9 972.645 1229.01 973.441 1226.58 989.598 L 1225.41 988.538 C 1209.82 974.42 1203.81 995.989 1198 996.212 L 1197.11 994.938 L 1194.15 991.581 C 1192.19 995.85 1190.56 999.518 1188.84 1003.91 z" fill="rgb(255,255,255)" transform="translate(0,0)"></path>
<path d="M 1194.15 991.581 C 1195.87 989.236 1197.12 987.206 1199.25 985.257 L 1200.78 985.981 L 1200.87 984.219 L 1200.21 984.503 L 1201.34 984.919 C 1200.39 989.812 1198.82 990.693 1197.11 994.938 L 1194.15 991.581 z" fill="rgb(7,10,34)" transform="translate(0,0)"></path>
<path d="M 853.067 871.575 C 856.532 875.337 860.895 884.735 863.299 889.522 L 851.747 894.381 L 844.415 897.409 L 843.403 896.718 C 846.439 888.163 848.788 879.436 853.067 871.575 z" fill="rgb(22,24,64)" transform="translate(0,0)"></path>
<metadata><recraft-signature>{"signed_by": "recraft", "signature_b64": "eVp7aT3+dJzFxs1o8ckDjveCEs57qRoLqLo9sKBnqXGuhwncYOs+iSzg0PoOtJs9B+spxMHoRTU37XkB/UUbDQ==", "signing_algo": "Ed25519", "generation_timestamp": 1777330431, "identifier": "c70977ac-d5fd-4b6d-b351-a664b43a4b8d"}</recraft-signature></metadata></svg>