<svg xmlns="http://www.w3.org/2000/svg" height="1024" preserveAspectRatio="none" style="display: block;" version="1.1" viewBox="0 0 2048 2048" width="1024">
<path d="M 0 0 L 2048 0 L 2048 2048 L 0 2048 L 0 0 z" fill="rgb(255,255,255)" transform="translate(0,0)"></path>
<path d="M 544.596 686.182 C 560.223 684.972 571.418 689.401 567.065 707.158 C 562.333 725.79 555.214 744.071 548.613 762.174 C 539.552 787.023 532.065 813.103 520.167 836.744 C 510.064 856.818 503.411 879.766 498.009 901.526 C 502.593 901.923 507.815 902.874 512.415 903.594 C 517.395 920.95 528.902 929.432 505.134 934.985 C 496.3 950.211 498.826 969.418 490.038 984.294 C 483.083 996.067 456.98 993.368 447.468 986.143 C 442.241 982.174 442.532 978.105 441.982 972.029 C 438.109 972.26 425.528 973.308 423.741 971.744 C 417.611 966.38 422.786 946.942 426.611 940.728 C 428.601 937.495 432.649 936.55 435.461 936.141 C 443.181 935.017 450.792 933.451 457.458 938.06 C 460.017 942.978 454.337 960.958 452.904 968.662 C 457.332 971.406 461.029 973.446 466.308 974.09 C 478.363 975.56 487.793 962.152 488.256 951.36 C 485.126 947.081 469.935 944.204 463.012 941.723 L 462.667 940.894 C 457.36 927.923 458.37 923.803 463.48 911.448 C 452.675 915.379 442.916 920.016 431.683 923.619 C 405.922 931.879 381.436 932.251 354.846 933.874 C 352.803 939.01 343.812 962.38 347.49 966.114 C 357.338 967.923 376.375 967.709 386.324 965.757 C 390.184 965 397.274 944.018 404.904 945.936 C 407.138 950.96 399.806 957.611 398.345 965.165 C 400.402 967.166 399.196 966.527 402.251 966.66 C 407.395 962.725 407.596 945.635 415.029 943.068 C 416.321 944.712 415.909 943.71 416.176 945.683 C 420.943 980.913 420.324 977.72 385.321 980.236 C 380.196 995.152 377.781 1013.61 376.951 1029.31 C 385.256 1038 393.217 1048.83 399.783 1059.46 C 434.931 1116.35 448.783 1185.82 472.449 1248.08 C 479.576 1266.83 483.645 1290.71 492.08 1308.05 C 498.358 1320.96 514.926 1329.52 523.074 1344.61 C 522.499 1348.53 521.623 1357.76 518.642 1359.23 C 511.373 1362.81 469.82 1361.47 463.165 1360.28 C 450.183 1357.97 459.054 1327.08 455.84 1319.3 C 443.523 1293.85 425.734 1266.9 409.629 1243.38 C 389.652 1214.21 391.075 1193.61 379.396 1164.49 C 362.11 1151.4 344.61 1136.67 327.753 1122.9 C 321.772 1131.78 316.319 1142.86 310.12 1151.96 C 292.409 1177.96 273.974 1203.57 250.234 1224.26 C 283.19 1254.68 313.197 1286.9 345.445 1317.9 C 351.867 1313.09 361.371 1303.1 367.381 1297.12 L 406.737 1257.43 C 409.424 1261.64 411.312 1265.57 413.555 1270 C 406.876 1277.79 352.594 1333.49 346.699 1336.28 C 343.395 1335.46 340.232 1333.4 337.81 1331.04 C 304.795 1298.93 273.421 1264.46 239.983 1232.83 C 213.374 1253.66 173.752 1282.86 154.84 1311.19 C 153.35 1313.42 152.206 1319.83 151.655 1322.73 C 164.644 1348.67 172.037 1364.39 135.109 1360.02 C 127.57 1359.12 119.612 1359.25 111.74 1358.13 C 109.044 1340.67 103.824 1320.67 102.311 1304 C 138.682 1273.01 144.853 1244.48 170.05 1206.07 C 173.785 1200.38 181.205 1191.94 185.854 1186.55 C 179.011 1177.06 158.369 1156.78 149.301 1147.52 C 107.135 1105.35 65.4289 1062.73 24.1904 1019.66 C 68.8972 973.886 114.3 929.889 159.587 884.937 L 234.258 809.708 C 269.61 774.619 314.368 731.639 347.342 695.229 C 381.364 731.391 419.529 766.681 453.871 803.112 C 460.353 809.988 484.051 836.684 490.067 840.408 L 484.861 856.426 C 474.829 846.686 465.51 835.3 455.57 825.239 L 347.352 716.087 C 340.117 724.982 315.572 748.598 306.342 757.929 C 274.046 790.698 241.452 823.17 208.562 855.343 L 107.667 956.151 C 89.4086 974.595 62.9669 1002.62 44.1483 1019.39 C 60.6536 1038.69 85.0082 1062.04 103.297 1080.26 C 133.969 1110.81 165.813 1146.37 197.062 1175.77 C 237.713 1134.03 222.785 1088.84 238.392 1036.37 C 243.723 1017.81 256.072 1004.86 259.727 985.449 C 268.507 938.812 260.015 883.981 316.944 868.512 C 295.366 834.943 296.05 797.369 341.277 782.178 C 351.03 778.903 365.803 781.23 374.504 786.729 C 384.166 792.835 386.748 800.304 389.135 810.902 C 397.108 811.486 417.107 811.567 421.516 817.934 L 420.809 819.957 C 414.076 826.191 399.283 829.769 390.135 832.666 C 394.517 851.648 399.528 878.183 379.263 889.879 C 381.012 896.765 382.977 909.704 388.767 914.307 C 395.361 919.55 414.129 916.042 421.953 914.571 C 431.114 912.848 478.701 899.761 482.974 892.887 C 483.177 892.56 483.348 892.215 483.541 891.882 C 490.384 880.136 499.96 845.345 503.115 830.937 C 505.149 821.649 505.893 812.135 508.054 802.839 C 514.385 775.604 521.315 748.416 528.254 721.33 C 531.085 710.278 534.109 692.385 544.596 686.182 z" fill="rgb(36,46,85)" transform="translate(0,0)"></path>
<path d="M 266.324 1010.52 C 272.714 1012.74 278.73 1015.23 284.99 1017.78 C 280.319 1027.33 264.489 1047.65 257.783 1056.59 C 270.56 1052.17 281.24 1043.89 294.736 1039.15 C 283.226 1059.3 275.234 1067.83 259.376 1084.56 C 268.705 1082.36 280.638 1077.68 289.882 1074.35 C 279.134 1092.96 269.22 1102.82 253.666 1117.43 C 266.47 1114.67 272.682 1111.94 284.674 1106.39 C 275.734 1126.09 261.736 1135.03 250.252 1151.08 C 260.117 1148.19 269.571 1143.15 278.889 1138.67 C 258.592 1165.46 254.015 1170.49 228.506 1192.87 C 235.566 1191.05 240.77 1189.47 247.67 1187.11 L 264.893 1178.29 C 250.676 1196.94 225.241 1210.49 203.65 1218.78 C 196.303 1221.6 184.435 1224.64 177.904 1228 L 178.105 1229.29 C 189.52 1233.39 197.66 1229.04 205.49 1230.28 L 204.297 1232.77 C 195.025 1239.91 175.147 1241.81 163.668 1242.01 C 170.467 1230.03 175.849 1219.4 184.476 1208.73 C 197.216 1192.97 221.753 1172.53 229.174 1153.92 C 250.387 1100.69 233.741 1060.68 266.324 1010.52 z" fill="rgb(255,255,255)" transform="translate(0,0)"></path>
<path d="M 337.764 844.332 C 338.35 841.385 338.702 837.209 340.735 835.375 C 348.866 833.393 377.524 831.077 384.705 834.803 C 387.392 841.203 385.76 855.308 383.015 861.889 C 379.664 869.922 373.93 873.199 365.408 873.279 C 348.008 873.442 342.641 865.362 337.01 849.599 C 330.939 848.615 327.107 845.727 329.785 839.223 L 331.826 838.619 C 335.323 840.095 335.665 841.191 337.764 844.332 z" fill="rgb(255,255,255)" transform="translate(0,0)"></path>
<path d="M 342.297 1020.45 C 345.688 1020.06 344.19 1019.73 347.01 1021.03 C 349.304 1025.5 349.002 1030.82 349.252 1036.01 L 335.757 1036.98 C 333.115 1037.13 333.177 1037.32 330.884 1036.1 C 328.483 1031.58 328.849 1026.72 328.632 1021.46 L 342.297 1020.45 z" fill="rgb(255,255,255)" transform="translate(0,0)"></path>
<path d="M 1608.53 924.377 C 1625.79 923.674 1641.44 926.666 1655.8 936.704 C 1674.61 949.85 1687.33 970.029 1691.07 992.675 C 1695.07 1015.47 1690.46 1039.98 1676.97 1058.95 C 1664.2 1076.76 1644.8 1088.67 1623.14 1092 C 1622.51 1092.07 1621.89 1092.15 1621.26 1092.23 C 1601.92 1094.37 1582.53 1088.71 1567.39 1076.5 C 1512.1 1032.67 1529.91 932.885 1608.53 924.377 z" fill="rgb(36,46,85)" transform="translate(0,0)"></path>
<path d="M 1604.89 958.201 C 1615.36 957.232 1623.64 956.783 1633.44 961.581 C 1659.71 974.442 1667.99 1011.08 1654.46 1035.89 C 1646.9 1049.74 1636.67 1056.07 1622.3 1060.62 C 1611.05 1061.74 1598.66 1059.41 1589.63 1053.48 C 1559.43 1033.66 1559.23 981.071 1591.48 963.087 C 1595.76 960.702 1600.4 959.464 1604.89 958.201 z" fill="rgb(255,255,255)" transform="translate(0,0)"></path>
<path d="M 1079.08 925.099 C 1107.26 925.366 1148.89 920.185 1171.56 939.246 C 1209.1 970.804 1209.93 1031.61 1179.63 1068.69 L 1178.27 1070.05 C 1151.09 1097.1 1116.73 1090.56 1079.06 1090.36 L 1079.08 925.099 z" fill="rgb(36,46,85)" transform="translate(0,0)"></path>
<path d="M 1110.05 956.969 C 1139.48 955.659 1164.4 960.744 1168.54 995.241 C 1170.67 1012.97 1168.82 1029.94 1157.79 1044.63 C 1143.04 1059.54 1129.45 1057.53 1110.55 1057.03 C 1109.67 1024.33 1110.13 989.803 1110.05 956.969 z" fill="rgb(255,255,255)" transform="translate(0,0)"></path>
<path d="M 1731.84 925.448 L 1733.96 925.417 C 1737.7 929.084 1756.63 961.256 1760.62 967.858 C 1771.99 986.893 1783.79 1005.66 1796.02 1024.15 L 1795.19 925.652 L 1825.89 925.664 L 1826.2 1091.17 L 1807.75 1091 L 1806.27 1090.8 C 1801.33 1086.99 1748.81 1004.42 1742.28 993.812 C 1743.36 1025.05 1742.78 1059.19 1742.83 1090.64 C 1732.92 1090.79 1722.56 1090.66 1712.61 1090.67 L 1712.17 926.185 L 1731.84 925.448 z" fill="rgb(36,46,85)" transform="translate(0,0)"></path>
<path d="M 872.538 925.227 L 959.538 925.117 L 959.243 955.402 L 902.378 955.525 L 902.402 993.837 L 949.049 993.552 L 949.061 1021.25 C 933.968 1020.77 918.083 1021.03 902.923 1021.05 L 902.95 1044.5 L 902.996 1058.21 C 922.032 1058.52 942.117 1058.11 961.235 1058.04 L 961.226 1090.28 C 931.755 1090.2 902.285 1090.3 872.815 1090.57 L 872.538 925.227 z" fill="rgb(36,46,85)" transform="translate(0,0)"></path>
<path d="M 1927.02 925.315 C 1935.06 924.26 1960.32 924.942 1965.04 931.99 C 1942.03 950.556 1962.11 951.828 1973.61 970.318 C 1996.61 1007.3 1985.18 1051.95 1942.9 1067.45 C 1916.38 1073.35 1910.45 1065.56 1904.35 1041.95 C 1898.43 1019.05 1900.41 1009.12 1914.5 989.211 C 1926.6 972.12 1938.67 943.171 1907.97 937.7 C 1904.88 937.149 1902.52 937.767 1900.49 935.418 C 1903.57 930.105 1920.79 926.278 1927.02 925.315 z" fill="rgb(204,38,55)" transform="translate(0,0)"></path>
<path d="M 1298.53 925.116 L 1332.58 925.085 C 1321.31 948.681 1309.82 985.582 1299.85 1010.89 C 1288.01 1040.94 1276.02 1069.16 1263.63 1098.84 C 1251.03 1068.67 1240.38 1038.56 1229.48 1007.74 C 1219.29 980.531 1209.43 953.198 1199.91 925.748 C 1210.65 925.551 1221.4 925.553 1232.14 925.756 C 1243.82 957.416 1254.54 991.141 1265.27 1023.28 C 1268.67 1015.35 1273.4 1000.05 1276.32 991.434 L 1298.53 925.116 z" fill="rgb(36,46,85)" transform="translate(0,0)"></path>
<path d="M 708.768 925.169 L 797.123 925.2 C 797.33 935.062 797.093 945.365 797.011 955.262 C 777.788 955.443 758.565 955.733 739.345 956.133 C 739.643 969.822 739.689 983.515 739.484 997.206 C 754.321 997.116 769.158 997.122 783.995 997.222 C 783.97 1002.89 785.133 1021.74 782.836 1026.01 L 780.25 1026.39 C 766.96 1026.1 753.299 1026.16 739.976 1026.06 L 740.066 1090.38 L 708.961 1090.33 L 708.768 925.169 z" fill="rgb(36,46,85)" transform="translate(0,0)"></path>
<path d="M 1423.54 923.245 C 1440.15 921.944 1448.93 925.341 1463.08 932.889 L 1462.97 962.485 C 1453.18 958.203 1443.56 949.694 1432.16 950.805 C 1428.06 951.205 1422.87 953.506 1420.54 957.063 C 1409.8 973.477 1466.09 1006.26 1471.93 1037.72 C 1474.23 1050.12 1470.56 1062.55 1463.5 1072.81 C 1454.85 1085.39 1442.43 1090.12 1428.13 1092.82 C 1412.33 1094.74 1403.54 1090.96 1390.75 1082.73 C 1390.34 1069.38 1390.19 1056.03 1390.28 1042.67 C 1400.21 1052.99 1412.6 1065.05 1427.48 1060.62 C 1454.49 1052.58 1433.32 1026.88 1422.42 1017.57 C 1399.49 997.978 1376.61 967.544 1396.01 937.878 C 1401.89 928.888 1413.44 924.922 1423.54 923.245 z" fill="rgb(36,46,85)" transform="translate(0,0)"></path>
<path d="M 518.06 871.386 C 534.388 884.559 565.451 918.546 580.523 934.277 C 592.337 946.606 658.143 1009.71 661.028 1017.3 C 656.088 1026.94 633.295 1047.41 624.488 1056.64 C 577.185 1106.22 526.222 1153.31 478.014 1201.79 L 472.754 1206.35 C 470.409 1200.45 469.597 1197.35 468.052 1191.24 C 498.913 1163.57 529.789 1130.24 559.476 1100.67 L 608.274 1051.9 C 618.786 1041.35 631.961 1028.57 641.393 1017.22 C 630.799 1005.49 616.117 991.451 604.763 980.037 L 554.005 928.686 C 541.057 915.826 523.544 899.603 512.525 885.779 C 514.234 879.562 514.711 877.087 518.06 871.386 z" fill="rgb(36,46,85)" transform="translate(0,0)"></path>
<path d="M 983.696 925.131 L 1013.41 925.021 L 1013.66 1057.98 L 1061.98 1057.89 L 1061.97 1090.3 L 983.574 1090.42 L 983.696 925.131 z" fill="rgb(36,46,85)" transform="translate(0,0)"></path>
<path d="M 1339.72 925.129 L 1369.75 925.167 L 1369.13 1090.91 L 1339.4 1090.95 C 1339.1 1035.67 1339.2 980.4 1339.72 925.129 z" fill="rgb(36,46,85)" transform="translate(0,0)"></path>
<path d="M 1488.52 925.807 L 1518.15 925.62 C 1517.55 980.454 1518.05 1036.17 1518.07 1091.07 L 1488.79 1091.19 C 1488.24 1036.07 1488.15 980.935 1488.52 925.807 z" fill="rgb(36,46,85)" transform="translate(0,0)"></path>
<path d="M 816.635 925.458 L 844.993 925.299 C 844.979 941.159 845.812 1087.17 843.925 1090.5 L 815.399 1090.27 C 815.671 1069.06 814.228 932.318 816.635 925.458 z" fill="rgb(36,46,85)" transform="translate(0,0)"></path>
<path d="M 1896.68 1079.42 C 1885.74 1072.5 1890.35 1070.04 1889.48 1059.43 C 1877.89 1048.92 1867.66 1051.16 1859.95 1033.53 C 1845.22 999.834 1863.6 957.167 1893.55 938.652 C 1895.26 937.597 1902.52 942.622 1903.59 944.024 C 1927.43 964.04 1890.5 988.295 1888.26 1009.31 C 1883.7 1037.85 1899.44 1047.93 1905.39 1072.65 C 1905.8 1074.35 1904.41 1074.96 1902.68 1076.75 C 1900.25 1077.65 1898.8 1077.96 1896.68 1079.42 z" fill="rgb(204,38,55)" transform="translate(0,0)"></path>
<path d="M 1997.27 1008.53 C 1992.68 999.894 1994.33 983.547 1987.61 972.34 C 1982.67 964.089 1965.51 946.653 1969.11 937.997 C 1970.2 937.413 1972.09 936.265 1973.25 936.707 C 1994.65 944.847 2016.71 978.895 2016.89 999.831 C 2016.25 1001.55 2015.5 1002.79 2015.56 1004.39 C 2009.7 1006.34 2008.01 1006.77 2002.7 1010.32 L 1997.27 1008.53 z" fill="rgb(204,38,55)" transform="translate(0,0)"></path>
<path d="M 2016.89 999.831 C 2016.25 1001.55 2015.5 1002.79 2015.56 1004.39 C 2009.7 1006.34 2008.01 1006.77 2002.7 1010.32 L 1997.27 1008.53 C 2001.84 1007.34 2010.26 1002.23 2016.89 999.831 z" fill="rgb(234,243,247)" transform="translate(0,0)"></path>
<path d="M 2015.56 1004.39 C 2025.98 1015.37 2007.48 1054.93 1997.03 1064.37 C 1996.33 1065 1995.61 1065.61 1994.89 1066.21 C 1988.5 1067.29 1976.65 1070.25 1971.41 1067.65 C 1971.63 1064.08 1980.18 1053.78 1983.36 1048.4 C 1990.26 1036.71 1993.99 1019.18 2002.7 1010.32 C 2008.01 1006.77 2009.7 1006.34 2015.56 1004.39 z" fill="rgb(204,38,55)" transform="translate(0,0)"></path>
<path d="M 1902.68 1076.75 C 1916.31 1083.06 1971.47 1075.66 1986 1070.44 C 1987.81 1069.8 1989.6 1069.11 1991.38 1068.39 C 1966.89 1094.21 1926.52 1098.37 1896.68 1079.42 C 1898.8 1077.96 1900.25 1077.65 1902.68 1076.75 z" fill="rgb(204,38,55)" transform="translate(0,0)"></path>
<metadata><recraft-signature>{"signed_by": "recraft", "signature_b64": "d9dkkcAGLT76YvEUfGlseCFLWE0J5TaG7wZDaEyClUiFfsMNCEflbhvqGLc2VduNNt20miTmQ59ChdYc89XrBQ==", "signing_algo": "Ed25519", "generation_timestamp": 1777331199, "identifier": "d910a8da-d1b9-4245-9bcf-4ecddcf1dadf"}</recraft-signature></metadata></svg>