<svg xmlns="http://www.w3.org/2000/svg" height="1024" preserveAspectRatio="none" style="display: block;" version="1.1" viewBox="0 0 2048 2048" width="1024">
<path d="M 0 0 L 2048 0 L 2048 2048 L 0 2048 L 0 0 z" fill="rgb(255,255,255)" transform="translate(0,0)"></path>
<path d="M 1614.6 829.664 C 1684.99 821.104 1748.99 871.238 1757.53 941.629 C 1766.07 1012.02 1715.91 1076 1645.52 1084.52 C 1575.15 1093.04 1511.2 1042.91 1502.67 972.548 C 1494.13 902.185 1544.24 838.221 1614.6 829.664 z" fill="rgb(34,47,71)" transform="translate(0,0)"></path>
<path d="M 1624.64 883.408 C 1666.06 880.358 1702.03 911.64 1704.75 953.08 C 1707.48 994.52 1675.92 1030.24 1634.46 1032.64 C 1593.45 1035.02 1558.21 1003.88 1555.52 962.893 C 1552.82 921.91 1583.68 886.424 1624.64 883.408 z" fill="rgb(255,255,255)" transform="translate(0,0)"></path>
<path d="M 668.964 833.696 L 723.877 833.727 C 767.504 833.703 801.909 834.669 835.48 866.359 C 884.932 913.039 884.285 998.859 837.85 1046.94 C 804.499 1079.81 769.106 1081.04 725.03 1081.04 L 669.439 1080.95 L 668.964 833.696 z" fill="rgb(34,47,71)" transform="translate(0,0)"></path>
<path d="M 723.183 880.474 C 772.866 878.809 814.749 892.873 819.131 949.668 C 821.08 974.928 815.444 995.231 798.644 1014.57 C 775.868 1034.65 749.348 1033.27 720.968 1032.77 L 720.998 924.11 C 720.999 917.272 720.503 886.092 721.358 881.654 L 723.183 880.474 z" fill="rgb(255,255,255)" transform="translate(0,0)"></path>
<path d="M 1827.62 831.481 L 1830.86 831.53 C 1836.37 835.659 1862.67 876.248 1868.39 884.136 C 1891.66 916.254 1913.74 951.091 1937.11 983.011 C 1937.6 932.791 1937.68 882.568 1937.35 832.347 L 1989.22 832.424 L 1989.24 1080.79 L 1951.75 1080.44 C 1950.86 1080.47 1945.99 1080.49 1945.53 1079.89 C 1908 1031.8 1876.36 977.91 1839.74 929.235 C 1838.54 977.81 1839.86 1031.04 1839.6 1080.24 L 1788.37 1080.37 L 1788.42 831.974 C 1801.48 832.015 1814.55 831.851 1827.62 831.481 z" fill="rgb(34,47,71)" transform="translate(0,0)"></path>
<path d="M 332.462 833.792 L 471.459 833.819 L 471.321 881.819 L 383.542 881.863 L 383.5 934.151 L 455.636 933.899 L 455.503 982.037 L 383.596 981.887 L 383.512 1009.75 L 383.592 1032.63 L 472.088 1032.58 L 471.982 1080.75 C 425.521 1080.8 379.131 1080 332.635 1080.33 L 332.462 833.792 z" fill="rgb(34,47,71)" transform="translate(0,0)"></path>
<path d="M 1292.87 831.354 C 1327.23 827.183 1357.34 841.506 1381.11 865.422 C 1370.05 876.595 1358.74 889.584 1348.14 901.358 C 1335.62 890.644 1318.55 876.131 1301 877.068 C 1295.39 877.229 1286.65 879.791 1283.26 884.865 C 1261.98 916.612 1311.21 927.861 1331.44 937.778 C 1358.38 950.981 1382.7 968.41 1385.88 1000.77 C 1390.75 1050.48 1359.62 1078.85 1311.97 1083.89 C 1310.22 1083.94 1308.47 1083.97 1306.72 1083.97 C 1272.12 1084.1 1245.22 1069.54 1221 1045.42 C 1232 1033.58 1245.38 1021.26 1255.45 1008.88 C 1257.69 1011.22 1260.04 1013.47 1262.48 1015.61 C 1277.8 1029.15 1309.44 1045.75 1325.73 1025.7 C 1329.63 1020.85 1331.36 1014.61 1330.53 1008.45 C 1327.68 988.006 1290.27 976.378 1272.58 967.769 C 1265.31 964.263 1258.4 960.059 1251.95 955.215 C 1221.25 931.868 1215.12 891.786 1238.12 860.016 C 1250.85 842.434 1271.74 834.194 1292.87 831.354 z" fill="rgb(34,47,71)" transform="translate(0,0)"></path>
<path d="M 196.118 833.491 L 200.041 833.508 C 202.565 837.068 201.51 874.241 201.477 881.368 C 175.029 882.384 144.1 881.504 117.446 881.345 C 117.624 900.304 117.664 919.263 117.563 938.222 L 188.029 938.263 L 188.005 985.391 L 117.538 985.162 C 117.788 1008.94 117.913 1032.72 117.914 1056.5 L 117.834 1080.89 L 64.1462 1080.52 L 64.341 833.777 L 196.118 833.491 z" fill="rgb(34,47,71)" transform="translate(0,0)"></path>
<path d="M 1051.45 833.064 L 1112.21 832.998 C 1076.31 903.359 1044.03 976.235 1008.65 1046.93 C 1002.04 1060.12 995.978 1073.69 988.669 1086.52 C 980.738 1072.81 969.558 1048.8 962.478 1034.28 L 918.613 943.842 C 941.076 939.439 970.259 943.023 992.139 949.852 C 993.223 952.161 992.747 951.498 994.402 953.237 C 996.068 951.893 1044.77 846.471 1051.45 833.064 z" fill="rgb(34,47,71)" transform="translate(0,0)"></path>
<path d="M 509.953 833.757 L 561.193 833.549 L 561.712 1031.54 L 639.809 1031.92 C 639.847 1048.2 639.784 1064.48 639.618 1080.76 C 597.117 1081.71 552.756 1080.51 509.937 1080.81 L 509.953 833.757 z" fill="rgb(34,47,71)" transform="translate(0,0)"></path>
<path d="M 274.479 833.504 L 287.603 833.412 L 287.278 1080.48 L 245.75 1080.4 L 235.411 1080.42 C 236.678 999.831 235.113 914.583 235.033 833.557 L 274.479 833.504 z" fill="rgb(34,47,71)" transform="translate(0,0)"></path>
<path d="M 1132.57 833.405 L 1184.56 833.333 L 1184.28 1079.76 C 1180.5 1081.73 1140.11 1080.81 1132.68 1080.77 L 1132.57 833.405 z" fill="rgb(34,47,71)" transform="translate(0,0)"></path>
<path d="M 1417.89 832.932 C 1434.66 832.597 1452.58 832.943 1469.44 832.97 L 1469.99 1080.63 C 1453.27 1081.03 1434.87 1080.62 1418.02 1080.59 L 1417.89 832.932 z" fill="rgb(34,47,71)" transform="translate(0,0)"></path>
<path d="M 864.738 833.773 C 889.149 833.939 913.56 833.851 937.969 833.509 C 952.853 867.752 969.751 901.062 985.63 934.845 C 987.94 939.76 990.371 944.712 992.139 949.852 C 970.259 943.023 941.076 939.439 918.613 943.842 C 903.284 914.739 876.293 863.509 864.738 833.773 z" fill="rgb(151,49,54)" transform="translate(0,0)"></path>
<metadata><recraft-signature>{"signed_by": "recraft", "signature_b64": "tU93CZSogJ8VDrk/E00zR731dmEJprtdX8Y9p8+UxwgD0sH2ixv9F2YaiOHjksMiy9+7E4ObXQFQNPgIOPUDDA==", "signing_algo": "Ed25519", "generation_timestamp": 1777331559, "identifier": "e620a268-6973-4a1c-9dd0-55525f578c80"}</recraft-signature></metadata></svg>