<svg xmlns="http://www.w3.org/2000/svg" height="1024" preserveAspectRatio="none" style="display: block;" version="1.1" viewBox="0 0 2048 2048" width="1024">
<defs>
	<linearGradient gradientUnits="userSpaceOnUse" id="Gradient1" x1="1072.09" x2="1067.76" y1="1856.27" y2="1884.71">
		<stop class="stop0" offset="0" stop-color="rgb(241,230,205)" stop-opacity="1"></stop>
		<stop class="stop1" offset="1" stop-color="rgb(255,255,255)" stop-opacity="1"></stop>
	</linearGradient>
	<linearGradient gradientUnits="userSpaceOnUse" id="Gradient2" x1="1063.35" x2="1052.14" y1="835.363" y2="799.851">
		<stop class="stop0" offset="0" stop-color="rgb(111,13,30)" stop-opacity="1"></stop>
		<stop class="stop1" offset="1" stop-color="rgb(148,41,59)" stop-opacity="1"></stop>
	</linearGradient>
	<linearGradient gradientUnits="userSpaceOnUse" id="Gradient3" x1="1040.95" x2="1074.95" y1="829.032" y2="792.821">
		<stop class="stop0" offset="0" stop-color="rgb(111,22,39)" stop-opacity="1"></stop>
		<stop class="stop1" offset="1" stop-color="rgb(194,43,60)" stop-opacity="1"></stop>
	</linearGradient>
</defs>
<path d="M 0 0 L 2048 0 L 2048 2048 L 0 2048 L 0 0 z" fill="rgb(255,255,255)" transform="translate(0,0)"></path>
<path d="M 290.558 881.009 C 303.644 866.631 326.996 846.113 341.762 832.004 C 389.99 785.835 440.664 742.289 493.563 701.554 C 564.18 646.763 623.801 605.088 706.229 566.702 C 809.383 518.664 915.424 501.955 1028.38 517.984 C 1042.22 519.948 1072.55 525.076 1085.15 529.713 C 1108.36 535.035 1150.68 547.521 1172.58 557.472 C 1188.86 563.002 1211.16 573.696 1226.67 581.294 C 1272.78 604.173 1317.56 629.628 1360.81 657.538 C 1364.3 659.801 1381.5 670.824 1383.44 673.256 C 1391.04 677.956 1412.41 692.847 1419.29 698.617 C 1406.89 694.164 1394.47 687.568 1382.25 682.265 C 1375.69 680.296 1364.23 675.37 1357.27 672.647 C 1342.1 666.619 1326.83 660.845 1311.47 655.327 C 1292.58 648.586 1271.2 640.423 1252.45 634.346 C 1209.92 620.611 1166.61 609.391 1122.76 600.745 C 1139.27 608.615 1154.41 615.888 1168.98 627.295 C 1208.8 654.487 1253.13 698.031 1273.7 741.727 C 1278.1 746.267 1286.91 767.92 1289.93 774.786 C 1326.99 859.052 1324.37 950.899 1289.79 1035.64 C 1223.09 1198.71 1028.34 1260.23 865.998 1234.97 C 648.794 1201.16 463.714 1079.82 321.213 916.2 C 311.051 904.532 299.812 893.481 290.558 881.009 z" fill="rgb(4,21,72)" transform="translate(0,0)"></path>
<path d="M 1273.7 741.727 L 1272.01 742.172 C 1256.12 712.936 1227.99 681.234 1203.46 658.948 C 1198.54 654.481 1169.8 632.341 1168.2 629.566 L 1168.98 627.295 C 1208.8 654.487 1253.13 698.031 1273.7 741.727 z" fill="rgb(2,5,20)" transform="translate(0,0)"></path>
<path d="M 1085.15 529.713 C 1108.36 535.035 1150.68 547.521 1172.58 557.472 L 1171.43 558.195 C 1162.74 557.472 1136.5 547.533 1127.37 544.722 C 1113.78 540.535 1098.55 535.879 1085.16 530.952 L 1085.15 529.713 z" fill="rgb(2,5,20)" transform="translate(0,0)"></path>
<path d="M 1383.44 673.256 C 1391.04 677.956 1412.41 692.847 1419.29 698.617 C 1406.89 694.164 1394.47 687.568 1382.25 682.265 L 1382.88 681.52 C 1386.11 681.84 1388.29 682.999 1390.92 681.533 C 1387.48 676.274 1385.37 678.921 1383.44 673.256 z" fill="rgb(2,5,20)" transform="translate(0,0)"></path>
<path d="M 706.165 840.47 C 716.501 779.33 748.68 724.808 793.218 682.234 C 845.808 631.177 916.694 603.369 989.972 605.049 C 992.326 605.106 997.691 605.099 999.73 605.49 C 1014.9 607.353 1029.71 608.986 1044.64 612.095 C 1115.08 626.766 1177.65 663.638 1221.92 720.916 C 1255.72 764.646 1280.21 825.311 1283.65 880.409 C 1281.4 882.58 1279.73 883.914 1278.18 886.659 L 1279.68 886.357 C 1281.48 885.977 1282.27 885.757 1283.98 885.203 C 1285.92 888.526 1285.62 898.569 1284.33 902.225 C 1284.19 905.559 1283.95 909.227 1283.96 912.537 C 1283.73 918.827 1283.58 920.254 1282.12 926.482 C 1264.53 1122.24 1085.83 1238.93 899.387 1181.84 C 896.494 1181.49 894.759 1180.19 892.212 1178.75 C 860.02 1170.47 811.736 1137.5 789.159 1113.89 C 781.858 1106.25 774.123 1096.68 766.818 1088.71 L 764.878 1088.41 C 743.99 1069.39 735.771 1041.6 722.037 1017.55 C 716.633 1008.08 702.195 961.309 705.704 952.206 C 700.98 926.068 698.513 894.552 701.493 868.01 L 702.164 862.041 L 703.882 847.664 C 704.649 844.259 704.827 843.692 706.165 840.47 z" fill="rgb(255,255,255)" transform="translate(0,0)"></path>
<path d="M 989.972 605.049 C 992.326 605.106 997.691 605.099 999.73 605.49 C 1014.9 607.353 1029.71 608.986 1044.64 612.095 C 1115.08 626.766 1177.65 663.638 1221.92 720.916 C 1255.72 764.646 1280.21 825.311 1283.65 880.409 C 1281.4 882.58 1279.73 883.914 1278.18 886.659 C 1277.2 889.009 1277.42 888.606 1277.29 890.997 C 1272.11 892.512 1261.47 891.483 1255.75 891.068 C 1252.05 887.345 1252.18 888.378 1246.92 888.651 L 1246.6 889.484 C 1242.74 890.888 1232.05 888.753 1228.05 887.556 C 1227.64 887.538 1223.69 885.542 1220.13 885.321 L 1219.77 886.072 C 1217.46 886.721 1208.13 884.06 1204.66 883.461 C 1201.44 884.824 1197.29 882.669 1195.21 880.182 C 1189.23 878.517 1181.6 875.579 1175.6 873.456 L 1174.62 873.142 C 1173.15 869.835 1172.49 868.951 1170.5 866.063 C 1168.69 868.077 1168.48 868.648 1166.13 869.894 C 1160.87 869.617 1155.41 865.134 1149.87 863.109 L 1148.55 863.656 L 1143.12 858.956 L 1130.08 851.008 L 1128.34 852.861 C 1124.71 852.868 1122.61 850.769 1119.5 848.616 C 1115.91 847.773 1117.32 847.356 1114.83 848.783 C 1114.62 851.114 1114.54 851.545 1114.79 853.849 C 1110.19 850.949 1107.13 846.748 1103.06 845.509 L 1101.81 846.597 L 1101.53 852.532 C 1098.61 848.607 1098.83 845.171 1099.49 840.567 C 1101.52 840.491 1102.78 840.28 1104.79 840.006 C 1107 836.225 1101.95 837.907 1103.38 831.68 C 1100.16 828.199 1096.04 827.295 1094.73 823.392 L 1098.1 822.122 C 1095.09 822.214 1093.73 822.385 1090.73 821.74 L 1089.7 819.289 L 1081.28 811.103 C 1080.11 809.73 1076.94 804.784 1075.75 803.04 C 1072.82 800.878 1067.44 794.518 1064.76 791.541 C 1061.29 788.878 1061.04 787.978 1058.74 784.103 C 1057.24 781.131 1053.89 776.196 1052 773.214 L 1051.54 772.913 C 1050.06 767.504 1050.73 768.892 1046.79 765.539 L 1041.75 758.803 L 1040.31 759.435 C 1037.68 758.597 1035.82 758.018 1033.27 756.888 L 1031.79 756.674 C 1028.14 754.088 1027.79 754.014 1025.74 750.19 C 1022.44 743.844 1019.32 737.409 1016.38 730.891 L 1018.55 729.994 C 1017.28 726.098 1016.82 725.771 1013.47 724.285 L 1005.3 702.273 L 1002.33 696.07 C 999.287 688.983 998.077 678.866 995.448 674.081 C 994.798 671.952 995.204 672.69 996.466 669.659 L 995.169 668.854 L 995.957 669.383 C 993.264 668.797 994.559 668.821 992.037 669.608 C 992.765 668.564 993.493 667.52 994.221 666.476 C 994.148 661.266 991.869 652.493 990.944 647.288 C 990.852 643.748 991.216 641.763 991.701 638.312 L 990.26 632.44 L 989.905 627.502 C 990.741 621.868 990.389 618.529 990.073 612.931 L 989.972 605.049 z" fill="rgb(255,255,255)" transform="translate(0,0)"></path>
<path d="M 990.26 632.44 C 993.181 627.273 990.938 626.526 994.375 621.861 L 995.779 621.729 C 999.163 625.094 999.579 627.759 1001.08 632.286 C 1002.45 635.829 1001.6 638.569 1003.18 641.217 C 1005.74 645.426 1007.79 646.749 1004.94 651.639 C 1005.47 656.953 1005.89 662.278 1006.19 667.61 C 1006.35 670.646 1006.34 673.959 1007.12 676.86 C 1008.74 681.853 1010.31 686.864 1011.83 691.89 C 1015.52 692.127 1019.86 692.271 1023.46 692.799 C 1019.43 693.234 1016.88 692.844 1013.92 694.96 C 1014.05 698.301 1013.57 696.801 1015.47 699.604 C 1017.04 704.175 1020.66 715.718 1022.98 719.161 C 1023.97 723.573 1023.1 722.427 1025.88 725.429 C 1026.42 729.853 1030.77 737.945 1032.86 742.354 C 1032.64 745.941 1033.26 746.591 1034.87 749.753 L 1036.07 750.593 L 1036.51 750.389 C 1039.42 753.93 1039.86 754.625 1041.75 758.803 L 1040.31 759.435 C 1037.68 758.597 1035.82 758.018 1033.27 756.888 L 1031.79 756.674 C 1028.14 754.088 1027.79 754.014 1025.74 750.19 C 1022.44 743.844 1019.32 737.409 1016.38 730.891 L 1018.55 729.994 C 1017.28 726.098 1016.82 725.771 1013.47 724.285 L 1005.3 702.273 L 1002.33 696.07 C 999.287 688.983 998.077 678.866 995.448 674.081 C 994.798 671.952 995.204 672.69 996.466 669.659 L 995.169 668.854 L 995.957 669.383 C 993.264 668.797 994.559 668.821 992.037 669.608 C 992.765 668.564 993.493 667.52 994.221 666.476 C 994.148 661.266 991.869 652.493 990.944 647.288 C 990.852 643.748 991.216 641.763 991.701 638.312 L 990.26 632.44 z" fill="rgb(168,29,47)" transform="translate(0,0)"></path>
<path d="M 1016.38 730.891 L 1018.55 729.994 C 1026.85 741.427 1026.53 748.785 1031.79 756.674 C 1028.14 754.088 1027.79 754.014 1025.74 750.19 C 1022.44 743.844 1019.32 737.409 1016.38 730.891 z" fill="rgb(138,26,40)" transform="translate(0,0)"></path>
<path d="M 989.972 605.049 C 992.326 605.106 997.691 605.099 999.73 605.49 C 998.894 608.844 999.079 608.711 999.789 612.161 C 1003.28 616.781 1010.14 616.661 1015.38 620.534 L 1015.11 621.907 C 1011.19 623.563 1005.03 622.398 1000.7 621.911 L 1000.28 622.971 L 1001.88 624.315 C 1000.83 627.888 1001 628.669 1001.08 632.286 C 999.579 627.759 999.163 625.094 995.779 621.729 L 994.375 621.861 C 990.938 626.526 993.181 627.273 990.26 632.44 L 989.905 627.502 C 990.741 621.868 990.389 618.529 990.073 612.931 L 989.972 605.049 z" fill="rgb(138,26,40)" transform="translate(0,0)"></path>
<path d="M 1058.74 784.103 C 1071.26 782.251 1084.34 778.545 1096.48 783.179 L 1096.92 784.497 C 1091.79 788.611 1072.15 790.467 1064.76 791.541 C 1061.29 788.878 1061.04 787.978 1058.74 784.103 z" fill="rgb(138,26,40)" transform="translate(0,0)"></path>
<path d="M 1006.19 667.61 C 1019.09 669.425 1027.08 669.315 1036.68 678.517 L 1037.12 680.319 C 1032.74 682.688 1014.61 677.678 1007.12 676.86 C 1006.34 673.959 1006.35 670.646 1006.19 667.61 z" fill="rgb(124,17,27)" transform="translate(0,0)"></path>
<path d="M 1120.5 846.242 C 1129.08 841.798 1146.41 833.81 1156.04 836.742 L 1157.68 838.727 L 1157.41 840.213 C 1150.49 842.2 1134.47 845.107 1129.7 849.109 L 1130.08 851.008 L 1128.34 852.861 C 1124.71 852.868 1122.61 850.769 1119.5 848.616 L 1120.5 846.242 z" fill="rgb(138,26,40)" transform="translate(0,0)"></path>
<path d="M 1022.98 719.161 C 1039.21 713.074 1044.08 713.844 1058.5 724.384 C 1046.58 723.962 1037.75 723.133 1025.88 725.429 C 1023.1 722.427 1023.97 723.573 1022.98 719.161 z" fill="rgb(138,26,40)" transform="translate(0,0)"></path>
<path d="M 1195.21 880.182 C 1200.04 869.956 1214.48 862.888 1224.86 866.024 L 1225.92 867.431 C 1222.32 873.365 1200.92 873.015 1204.66 883.461 C 1201.44 884.824 1197.29 882.669 1195.21 880.182 z" fill="rgb(138,26,40)" transform="translate(0,0)"></path>
<path d="M 1046.79 765.539 C 1055.1 762.408 1073.05 756.956 1079.3 765.984 C 1076.14 768.383 1060.81 768.211 1052 773.214 L 1051.54 772.913 C 1050.06 767.504 1050.73 768.892 1046.79 765.539 z" fill="rgb(192,47,54)" transform="translate(0,0)"></path>
<path d="M 1023.46 692.799 C 1030.77 693.286 1038.85 694.692 1043.54 700.89 L 1043.07 702.322 C 1036.99 703.93 1021.91 701.004 1015.47 699.604 C 1013.57 696.801 1014.05 698.301 1013.92 694.96 C 1016.88 692.844 1019.43 693.234 1023.46 692.799 z" fill="rgb(138,26,40)" transform="translate(0,0)"></path>
<path d="M 1003.18 641.217 C 1009.88 643.239 1027.83 648.251 1031.3 654.649 C 1027.29 658.202 1010.13 652.907 1004.94 651.639 C 1007.79 646.749 1005.74 645.426 1003.18 641.217 z" fill="rgb(138,26,40)" transform="translate(0,0)"></path>
<path d="M 1143.12 858.956 C 1150.21 853.311 1167.14 843.267 1175.76 849.798 L 1176.13 851.376 C 1166 856.603 1161.01 853.571 1149.87 863.109 L 1148.55 863.656 L 1143.12 858.956 z" fill="rgb(138,26,40)" transform="translate(0,0)"></path>
<path d="M 1103.38 831.68 L 1105.1 832.092 L 1109.5 838.862 L 1109.7 837.56 C 1112.84 839.778 1118.77 843.341 1120.5 846.242 L 1119.5 848.616 C 1115.91 847.773 1117.32 847.356 1114.83 848.783 C 1114.62 851.114 1114.54 851.545 1114.79 853.849 C 1110.19 850.949 1107.13 846.748 1103.06 845.509 L 1101.81 846.597 L 1101.53 852.532 C 1098.61 848.607 1098.83 845.171 1099.49 840.567 C 1101.52 840.491 1102.78 840.28 1104.79 840.006 C 1107 836.225 1101.95 837.907 1103.38 831.68 z" fill="rgb(192,47,54)" transform="translate(0,0)"></path>
<path d="M 1105.1 832.092 C 1114.35 829.371 1131.19 822.168 1139.55 826.215 C 1137.31 829.848 1116.05 835.093 1109.7 837.56 L 1109.5 838.862 L 1105.1 832.092 z" fill="rgb(138,26,40)" transform="translate(0,0)"></path>
<path d="M 1170.5 866.063 C 1178.6 862.274 1187.81 856.957 1196.96 859.732 L 1197.09 861.152 C 1190.61 866.433 1183.38 867.114 1175.6 873.456 L 1174.62 873.142 C 1173.15 869.835 1172.49 868.951 1170.5 866.063 z" fill="rgb(138,26,40)" transform="translate(0,0)"></path>
<path d="M 1246.92 888.651 C 1252 879.105 1263.44 873.449 1273.8 871.847 L 1274.91 872.682 C 1268.77 877.806 1258.34 884.509 1255.75 891.068 C 1252.05 887.345 1252.18 888.378 1246.92 888.651 z" fill="rgb(138,26,40)" transform="translate(0,0)"></path>
<path d="M 1089.7 819.289 C 1099.17 816.606 1115.5 809.545 1124.3 815.56 C 1122.29 818.004 1102.21 822.05 1098.1 822.122 C 1095.09 822.214 1093.73 822.385 1090.73 821.74 L 1089.7 819.289 z" fill="rgb(138,26,40)" transform="translate(0,0)"></path>
<path d="M 1015.38 620.534 C 1021.54 623.574 1023.99 625.484 1027.34 631.513 L 1027.33 633.546 C 1022.33 635.023 1008.74 626.857 1001.88 624.315 L 1000.28 622.971 L 1000.7 621.911 C 1005.03 622.398 1011.19 623.563 1015.11 621.907 L 1015.38 620.534 z" fill="rgb(124,17,27)" transform="translate(0,0)"></path>
<path d="M 1220.13 885.321 C 1225.41 877.175 1233.6 873.164 1242.92 871.246 C 1245.43 870.747 1247.94 870.304 1250.47 869.916 C 1242.55 876.294 1234.71 880.358 1228.05 887.556 C 1227.64 887.538 1223.69 885.542 1220.13 885.321 z" fill="rgb(138,26,40)" transform="translate(0,0)"></path>
<path d="M 1075.75 803.04 C 1085.43 800.518 1097.78 796.609 1107.44 798.75 C 1100.59 801.522 1088.6 801.825 1084.04 806.201 L 1085.02 808.748 L 1081.28 811.103 C 1080.11 809.73 1076.94 804.784 1075.75 803.04 z" fill="rgb(192,47,54)" transform="translate(0,0)"></path>
<path d="M 1040.62 740.756 C 1044.72 740.184 1051.24 739.073 1055.18 738.945 C 1060.01 741.372 1063.99 743.283 1068.53 746.302 C 1062.48 746.795 1057.31 747.284 1051.24 747.163 C 1051.74 745.632 1051.7 746.497 1050.84 744.598 C 1045.56 743.538 1045 743.615 1040.62 740.756 z" fill="rgb(138,26,40)" transform="translate(0,0)"></path>
<path d="M 1107.44 798.75 L 1110.85 800.793 L 1111.17 802.548 C 1107.38 804.967 1091.96 806.621 1085.02 808.748 L 1084.04 806.201 C 1088.6 801.825 1100.59 801.522 1107.44 798.75 z" fill="rgb(138,26,40)" transform="translate(0,0)"></path>
<path d="M 1032.86 742.354 L 1040.62 740.756 C 1045 743.615 1045.56 743.538 1050.84 744.598 C 1051.7 746.497 1051.74 745.632 1051.24 747.163 C 1046.37 747.691 1040.44 747.755 1036.51 750.389 L 1036.07 750.593 L 1034.87 749.753 C 1033.26 746.591 1032.64 745.941 1032.86 742.354 z" fill="rgb(104,23,32)" transform="translate(0,0)"></path>
<path d="M 722.983 836.508 C 727.042 838.385 728.256 839.113 731.905 841.707 C 732.784 851.712 737.682 852.957 746.534 856.335 L 748.767 855.93 C 750.562 858.984 752.809 860.531 756.485 860.896 C 760.621 863.071 769.102 868.66 772.638 868.006 C 773.929 870.172 774.541 871.191 776.085 873.167 C 777.908 873.041 777.25 873.355 778.222 872.706 C 780.347 876.52 790.112 882.92 794.221 884.528 C 795.576 882.049 795 876.654 794.995 873.318 C 803.963 879.44 797.512 883.404 804.675 891.392 C 809.556 896.31 815.641 901.307 820.956 905.878 C 822.791 902.854 822.347 902.367 824.969 901.323 C 826.731 904.226 827.104 907.723 828.737 909.651 C 831.957 916.63 840.335 926.015 845.669 931.738 L 847.107 931.956 L 847.358 931.728 C 849.386 935.85 848.543 935.577 853.019 938.056 C 853.997 941.982 862.346 952.851 865.525 955.524 C 866.846 952.986 867.572 951.667 868.52 948.904 C 871.807 948.834 872.727 948.914 875.997 948.037 L 875.957 949.339 C 875.069 971.984 868.511 962.281 882.691 985.333 C 884.934 989.25 884.788 1004.8 890.423 1007.87 L 892.598 1007.04 C 894.142 1010.45 895.731 1013.85 897.166 1017.3 C 899.675 1013.88 902.538 1010.25 904.557 1006.55 C 907.476 1007.31 908.2 1007.42 910.981 1008.74 C 908.126 1016.33 905.74 1019.99 900.5 1026.45 L 905.376 1047.73 C 908.205 1045.16 911.243 1042.25 914.186 1039.87 C 916.468 1040.71 917.28 1040.98 919.451 1042.07 L 919.212 1045.82 C 915.685 1050.59 912.382 1053.03 907.895 1056.83 C 909.018 1063.99 909.452 1070.48 910.364 1077.51 C 909.061 1081.75 908.784 1082.1 909.262 1086.38 L 910.288 1087.59 C 911.897 1093.85 911.09 1101.95 911.291 1108.77 C 909.524 1112.85 908.815 1113.62 910.427 1117.76 C 911.239 1124.19 910.082 1133.71 909.522 1140.48 C 908.034 1144.16 908.031 1142.43 908.883 1145.82 L 909.851 1146.68 L 908.003 1148 C 907.718 1149.74 907.396 1151.54 907.148 1153.28 L 905.243 1166.31 C 904.018 1170.2 903.67 1171.75 903.084 1175.79 L 899.387 1181.84 C 896.494 1181.49 894.759 1180.19 892.212 1178.75 C 860.02 1170.47 811.736 1137.5 789.159 1113.89 C 781.858 1106.25 774.123 1096.68 766.818 1088.71 L 764.878 1088.41 C 743.99 1069.39 735.771 1041.6 722.037 1017.55 C 716.633 1008.08 702.195 961.309 705.704 952.206 C 700.98 926.068 698.513 894.552 701.493 868.01 L 702.164 862.041 L 703.882 847.664 C 704.649 844.259 704.827 843.692 706.165 840.47 C 710.821 843.378 718.28 847.248 723.502 845.047 C 724.801 842.322 723.682 839.65 722.983 836.508 z" fill="rgb(255,255,255)" transform="translate(0,0)"></path>
<path d="M 722.983 836.508 C 727.042 838.385 728.256 839.113 731.905 841.707 C 732.784 851.712 737.682 852.957 746.534 856.335 L 748.767 855.93 C 750.562 858.984 752.809 860.531 756.485 860.896 C 760.621 863.071 769.102 868.66 772.638 868.006 C 773.929 870.172 774.541 871.191 776.085 873.167 C 777.908 873.041 777.25 873.355 778.222 872.706 C 780.347 876.52 790.112 882.92 794.221 884.528 C 795.576 882.049 795 876.654 794.995 873.318 C 803.963 879.44 797.512 883.404 804.675 891.392 C 809.556 896.31 815.641 901.307 820.956 905.878 C 822.791 902.854 822.347 902.367 824.969 901.323 C 826.731 904.226 827.104 907.723 828.737 909.651 C 831.957 916.63 840.335 926.015 845.669 931.738 L 847.107 931.956 L 847.358 931.728 C 849.386 935.85 848.543 935.577 853.019 938.056 C 853.997 941.982 862.346 952.851 865.525 955.524 C 866.846 952.986 867.572 951.667 868.52 948.904 C 871.807 948.834 872.727 948.914 875.997 948.037 L 875.957 949.339 C 875.069 971.984 868.511 962.281 882.691 985.333 C 884.934 989.25 884.788 1004.8 890.423 1007.87 L 892.598 1007.04 C 894.142 1010.45 895.731 1013.85 897.166 1017.3 C 899.675 1013.88 902.538 1010.25 904.557 1006.55 C 907.476 1007.31 908.2 1007.42 910.981 1008.74 C 908.126 1016.33 905.74 1019.99 900.5 1026.45 L 905.376 1047.73 C 908.205 1045.16 911.243 1042.25 914.186 1039.87 C 916.468 1040.71 917.28 1040.98 919.451 1042.07 L 919.212 1045.82 C 915.685 1050.59 912.382 1053.03 907.895 1056.83 C 909.018 1063.99 909.452 1070.48 910.364 1077.51 C 909.061 1081.75 908.784 1082.1 909.262 1086.38 L 910.288 1087.59 C 911.897 1093.85 911.09 1101.95 911.291 1108.77 C 909.524 1112.85 908.815 1113.62 910.427 1117.76 C 911.239 1124.19 910.082 1133.71 909.522 1140.48 C 908.034 1144.16 908.031 1142.43 908.883 1145.82 L 909.851 1146.68 L 908.003 1148 C 907.718 1149.74 907.396 1151.54 907.148 1153.28 L 905.243 1166.31 C 904.018 1170.2 903.67 1171.75 903.084 1175.79 L 899.387 1181.84 C 896.494 1181.49 894.759 1180.19 892.212 1178.75 C 887.212 1165.96 863.409 1151.65 867.01 1138.89 C 870.108 1140.13 874.502 1147.32 877.938 1150.39 C 883.412 1155.28 888.869 1159.9 894.483 1164.6 C 895.156 1158.98 896.701 1151.94 897.801 1146.26 C 899.073 1143.4 898.676 1140.54 898.719 1137.2 C 899.617 1129.41 899.819 1125.24 899.785 1117.4 C 901.898 1113.09 901.182 1113.96 900.54 1108.35 C 901.258 1103.21 900.876 1093.86 900.806 1088.36 C 901.261 1085.09 900.837 1082.94 900.466 1079.7 C 899.244 1071.58 898.184 1065.43 896.314 1057.46 C 894.283 1056.11 890.186 1053.96 887.947 1052.69 C 889.175 1048.3 889.32 1048.6 893.127 1046.76 C 894.358 1045.88 893.776 1046.51 894.499 1044.58 C 893.363 1039.1 891.7 1028.88 888.086 1024.87 C 869.361 1022.33 863.233 1017.31 851.064 1003.14 C 861.283 1006.33 874.973 1013.73 886.078 1018.06 C 883.956 1012.19 881.679 1004.95 878.184 999.796 C 875.98 996.547 875.108 997.244 871.113 996.771 L 874.056 996.049 L 874.778 994.594 L 872.913 990.083 C 868.617 979.797 868.116 972.336 856.672 970.731 C 859.622 969.459 858.569 970.504 860.306 968.05 L 858.3 963.637 C 858.636 961.219 846.708 946.031 844.486 943.025 C 835.305 943.441 812.85 943.361 807.839 934.82 C 811.66 932.569 831.795 936.314 838.115 936.902 C 833.417 931.145 827.008 924.397 821.956 918.772 C 805.391 921.253 795.316 921.596 780.562 913.938 C 790.388 912.847 803.316 912.659 813.659 911.938 C 807.703 907.114 802.517 903.24 796.269 898.788 C 787.988 900.644 767.487 905.574 760.785 898.981 C 763.947 895.471 781.605 893.049 788.755 891.023 C 782.013 887.045 779.433 885.48 772.149 882.773 C 771.085 878.453 768.791 878.199 764.937 877.031 C 759.848 873.884 753.733 871.544 748.092 869.619 C 745.191 867.227 742.67 867.25 738.913 866.638 L 740.34 865.635 C 737.384 862.969 730.3 860.625 726.3 859.042 L 701.493 868.01 L 702.164 862.041 L 703.882 847.664 C 704.649 844.259 704.827 843.692 706.165 840.47 C 710.821 843.378 718.28 847.248 723.502 845.047 C 724.801 842.322 723.682 839.65 722.983 836.508 z" fill="rgb(168,29,47)" transform="translate(0,0)"></path>
<path d="M 703.882 847.664 C 708.522 851.287 710.654 852.108 715.872 854.493 L 702.164 862.041 L 703.882 847.664 z" fill="rgb(255,255,255)" transform="translate(0,0)"></path>
<path d="M 705.704 952.206 C 717.3 1005.09 734.741 1044.78 766.818 1088.71 L 764.878 1088.41 C 743.99 1069.39 735.771 1041.6 722.037 1017.55 C 716.633 1008.08 702.195 961.309 705.704 952.206 z" fill="rgb(8,12,42)" transform="translate(0,0)"></path>
<path d="M 866.745 1080 C 879.025 1091.61 886.291 1099.23 900.54 1108.35 C 901.182 1113.96 901.898 1113.09 899.785 1117.4 C 879.651 1108.06 875.961 1098.39 866.745 1080 z" fill="rgb(138,26,40)" transform="translate(0,0)"></path>
<path d="M 865.931 1052.96 C 868.639 1054.92 875.149 1061.15 878.198 1063.8 C 886.139 1070.68 891.509 1074.28 900.466 1079.7 C 900.837 1082.94 901.261 1085.09 900.806 1088.36 C 882.205 1078.67 872.83 1073.22 865.931 1052.96 z" fill="rgb(138,26,40)" transform="translate(0,0)"></path>
<path d="M 897.801 1146.26 C 895.616 1144.82 893.442 1143.37 891.279 1141.89 C 877.414 1132.43 870.928 1125.77 867.79 1109.05 C 876.704 1120.05 886.628 1129.79 898.719 1137.2 C 898.676 1140.54 899.073 1143.4 897.801 1146.26 z" fill="rgb(192,47,54)" transform="translate(0,0)"></path>
<path d="M 764.937 877.031 C 768.791 878.199 771.085 878.453 772.149 882.773 C 764.11 885.627 744.954 893.799 738.25 886.164 L 738.814 884.69 C 743.954 882.058 757.362 879.587 764.937 877.031 z" fill="rgb(138,26,40)" transform="translate(0,0)"></path>
<path d="M 838.743 979.119 C 849.555 981.641 861.666 986.807 872.913 990.083 L 874.778 994.594 L 874.056 996.049 L 871.113 996.771 C 864.016 995.463 860.099 994.162 853.505 991.511 L 852.378 990.494 C 847.1 987.811 842.848 983.29 838.743 979.119 z" fill="rgb(104,23,32)" transform="translate(0,0)"></path>
<path d="M 823.446 954.782 C 834.374 959.205 846.712 961.411 858.3 963.637 L 860.306 968.05 C 858.569 970.504 859.622 969.459 856.672 970.731 C 840.471 967.428 834.884 966.955 823.446 954.782 z" fill="rgb(138,26,40)" transform="translate(0,0)"></path>
<path d="M 748.092 869.619 C 740.645 871.611 718.921 883.612 713.14 877.472 L 714.441 875.452 C 720.35 872.401 732.45 867.784 738.913 866.638 C 742.67 867.25 745.191 867.227 748.092 869.619 z" fill="rgb(138,26,40)" transform="translate(0,0)"></path>
<path d="M 878.246 1039.15 C 881.421 1040.74 890.555 1045.08 893.127 1046.76 C 889.32 1048.6 889.175 1048.3 887.947 1052.69 C 881.234 1049.39 878.893 1048.22 872.878 1043.82 C 874.64 1041.47 875.85 1040.92 878.246 1039.15 z" fill="rgb(192,47,54)" transform="translate(0,0)"></path>
<path d="M 860.383 1028.15 C 868.01 1032.2 871.166 1034.1 878.246 1039.15 C 875.85 1040.92 874.64 1041.47 872.878 1043.82 C 867.334 1038.24 864.943 1034.65 860.383 1028.15 z" fill="rgb(104,23,32)" transform="translate(0,0)"></path>
<path d="M 852.378 990.494 L 853.505 991.511 C 854.024 995.781 854.282 996.889 853.798 1001.08 L 852.922 1001.73 C 850.938 997.65 851.01 994.675 852.378 990.494 z" fill="rgb(238,215,219)" transform="translate(0,0)"></path>
<path d="M 1114.79 853.849 C 1114.54 851.545 1114.62 851.114 1114.83 848.783 C 1117.32 847.356 1115.91 847.773 1119.5 848.616 C 1122.61 850.769 1124.71 852.868 1128.34 852.861 L 1130.08 851.008 L 1143.12 858.956 L 1148.55 863.656 L 1149.87 863.109 C 1155.41 865.134 1160.87 869.617 1166.13 869.894 C 1168.48 868.648 1168.69 868.077 1170.5 866.063 C 1172.49 868.951 1173.15 869.835 1174.62 873.142 L 1175.6 873.456 C 1181.6 875.579 1189.23 878.517 1195.21 880.182 C 1197.29 882.669 1201.44 884.824 1204.66 883.461 C 1208.13 884.06 1217.46 886.721 1219.77 886.072 L 1220.13 885.321 C 1223.69 885.542 1227.64 887.538 1228.05 887.556 C 1232.05 888.753 1242.74 890.888 1246.6 889.484 L 1246.92 888.651 C 1252.18 888.378 1252.05 887.345 1255.75 891.068 C 1261.47 891.483 1272.11 892.512 1277.29 890.997 C 1277.42 888.606 1277.2 889.009 1278.18 886.659 L 1279.68 886.357 C 1281.48 885.977 1282.27 885.757 1283.98 885.203 C 1285.92 888.526 1285.62 898.569 1284.33 902.225 C 1279.78 902.242 1275.73 902.039 1271.21 901.793 C 1267.4 901.321 1260.56 900.718 1257.31 902.816 L 1257.05 903.66 C 1254.6 906.817 1253.96 906.757 1250.17 907.848 L 1248.27 901.624 C 1242.42 900.667 1236.45 900.017 1230.56 899.3 C 1231.57 901.897 1232.59 904.488 1233.62 907.074 C 1230.37 908.572 1230.53 908.483 1226.94 908.823 L 1222.19 898.685 C 1217.58 897.571 1207.92 894.798 1203.75 895.442 L 1203.38 897.581 C 1200.74 899.647 1199.61 899.563 1196.34 900.107 C 1195.41 897.314 1194.56 894.215 1193.72 891.37 L 1176.35 884.779 C 1177.27 891.726 1178.42 898.639 1179.81 905.508 C 1172.71 903.036 1174.24 888.944 1168.42 884.886 L 1167.29 886.851 L 1166.76 883.621 C 1164.28 881.125 1153.82 876.337 1149.92 874.354 C 1146.95 871.709 1146.52 871.645 1142.78 870.052 C 1140.6 868.37 1130.38 863.787 1125.89 860.741 L 1124.91 858.23 C 1122.26 856.059 1122.43 856.236 1118.99 855.969 L 1114.79 853.849 z" fill="rgb(168,29,47)" transform="translate(0,0)"></path>
<path d="M 1033.27 756.888 C 1035.82 758.018 1037.68 758.597 1040.31 759.435 L 1041.75 758.803 L 1046.79 765.539 C 1050.73 768.892 1050.06 767.504 1051.54 772.913 L 1052 773.214 C 1053.89 776.196 1057.24 781.131 1058.74 784.103 C 1061.04 787.978 1061.29 788.878 1064.76 791.541 C 1067.44 794.518 1072.82 800.878 1075.75 803.04 C 1076.94 804.784 1080.11 809.73 1081.28 811.103 L 1089.7 819.289 L 1090.73 821.74 C 1093.73 822.385 1095.09 822.214 1098.1 822.122 L 1094.73 823.392 C 1096.04 827.295 1100.16 828.199 1103.38 831.68 C 1101.95 837.907 1107 836.225 1104.79 840.006 C 1102.78 840.28 1101.52 840.491 1099.49 840.567 L 1096.85 842.147 C 1096.4 843.963 1095.97 845.73 1095.22 847.446 L 1093.91 847.897 C 1094.03 844.389 1094.8 843.663 1094.7 839.567 C 1091.99 834.191 1087.2 831.186 1082.37 826.875 C 1077.23 840.271 1079.55 854.388 1076.32 861.515 L 1075.12 861.088 C 1069.02 846.886 1072.79 834.751 1076.56 820.431 C 1072.04 815.304 1068.25 810.977 1064.14 805.525 C 1065.1 804.435 1064.65 804.856 1064.63 802.664 C 1062.43 798.988 1061.04 796.171 1056.42 796.687 C 1052.26 794.662 1048.09 788.639 1045.08 784.872 C 1042.26 782.338 1041.96 780.667 1040.59 777.147 C 1040.37 774.509 1035.66 768.691 1033.61 765.276 C 1035.85 761.12 1034.9 760.82 1033.27 756.888 z" fill="url(#Gradient3)" transform="translate(0,0)"></path>
<path d="M 1056.42 796.687 C 1061.04 796.171 1062.43 798.988 1064.63 802.664 C 1064.65 804.856 1065.1 804.435 1064.14 805.525 C 1058.19 814.388 1058.16 833.047 1057.81 843.539 L 1057.25 842.641 C 1048.43 828.213 1052.77 812.347 1056.42 796.687 z" fill="url(#Gradient2)" transform="translate(0,0)"></path>
<path d="M 882.691 985.333 C 886.05 978.592 890.865 961.673 894.421 959.915 C 899.743 969.109 892.319 985.505 887.119 993.665 C 888.906 998.237 890.601 1002.54 892.598 1007.04 L 890.423 1007.87 C 884.788 1004.8 884.934 989.25 882.691 985.333 z" fill="rgb(138,26,40)" transform="translate(0,0)"></path>
<path d="M 1025.74 750.19 C 1027.79 754.014 1028.14 754.088 1031.79 756.674 L 1033.27 756.888 C 1034.9 760.82 1035.85 761.12 1033.61 765.276 C 1031.63 762.129 1031.07 761.393 1028.64 758.576 L 1027.36 759.168 C 1022.52 766.66 1019.78 784.954 1016.58 795.162 C 1014.04 776.668 1012.89 765.3 1025.74 750.19 z" fill="rgb(104,23,32)" transform="translate(0,0)"></path>
<path d="M 990.944 647.288 C 976.384 655.088 973.089 673.067 968.164 674.675 C 963.069 667.732 971.67 656.817 975.52 650.604 C 979.847 643.622 984.148 641.041 991.701 638.312 C 991.216 641.763 990.852 643.748 990.944 647.288 z" fill="rgb(138,26,40)" transform="translate(0,0)"></path>
<path d="M 1013.47 724.285 C 1016.82 725.771 1017.28 726.098 1018.55 729.994 L 1016.38 730.891 C 1008.06 742.08 1008.13 751.968 1002.23 762.912 L 1000.23 762.047 C 998.839 746.57 1002.45 735.162 1013.47 724.285 z" fill="rgb(138,26,40)" transform="translate(0,0)"></path>
<path d="M 992.037 669.608 C 994.559 668.821 993.264 668.797 995.957 669.383 L 995.169 668.854 L 996.466 669.659 C 995.204 672.69 994.798 671.952 995.448 674.081 C 990.736 679.744 987.71 683.332 984.047 689.675 C 981.139 694.709 979.772 701.042 976.296 704.85 L 975.115 703.87 C 973.587 693.536 980.991 671.848 992.037 669.608 z" fill="rgb(138,26,40)" transform="translate(0,0)"></path>
<path d="M 986.4 736.287 C 983.808 716.397 984.572 707.589 1002.33 696.07 L 1005.3 702.273 C 993.976 712.691 991.512 722.273 986.4 736.287 z" fill="rgb(138,26,40)" transform="translate(0,0)"></path>
<path d="M 911.291 1108.77 C 926.444 1101.28 929.46 1097.33 941.346 1085.39 C 933.888 1103.39 930.439 1111.73 910.427 1117.76 C 908.815 1113.62 909.524 1112.85 911.291 1108.77 z" fill="rgb(124,17,27)" transform="translate(0,0)"></path>
<path d="M 909.522 1140.48 C 914.874 1137.85 917.335 1136.67 922.186 1133.13 C 926.989 1129.61 935.614 1120.26 940.397 1118.14 C 941.018 1124.4 928.482 1136.29 925.798 1141.24 C 919.942 1144.15 916.155 1144.99 909.851 1146.68 L 908.883 1145.82 C 908.031 1142.43 908.034 1144.16 909.522 1140.48 z" fill="rgb(138,26,40)" transform="translate(0,0)"></path>
<path d="M 905.243 1166.31 C 925.485 1162.81 927.046 1160.98 942.444 1148.34 C 933.739 1162.94 929.296 1169.32 912.02 1173.65 C 909.047 1174.39 906.068 1175.1 903.084 1175.79 C 903.67 1171.75 904.018 1170.2 905.243 1166.31 z" fill="rgb(138,26,40)" transform="translate(0,0)"></path>
<path d="M 936.08 1052.82 C 929.761 1072.97 927.874 1076.02 910.288 1087.59 L 909.262 1086.38 C 908.784 1082.1 909.061 1081.75 910.364 1077.51 C 922.475 1069.58 926.623 1063.61 936.08 1052.82 z" fill="rgb(124,17,27)" transform="translate(0,0)"></path>
<path d="M 1099.49 840.567 C 1098.83 845.171 1098.61 848.607 1101.53 852.532 C 1103.08 859.978 1103.16 878.514 1103.24 886.629 C 1096.23 874.706 1093.36 861.687 1093.91 847.897 L 1095.22 847.446 C 1095.97 845.73 1096.4 843.963 1096.85 842.147 L 1099.49 840.567 z" fill="rgb(138,26,40)" transform="translate(0,0)"></path>
<path d="M 1040.59 777.147 C 1041.96 780.667 1042.26 782.338 1045.08 784.872 C 1039.65 793.92 1038.53 808.6 1033.81 819.677 C 1030.71 803.211 1031.04 791.573 1040.59 777.147 z" fill="rgb(104,23,32)" transform="translate(0,0)"></path>
<path d="M 1142.78 870.052 C 1146.52 871.645 1146.95 871.709 1149.92 874.354 C 1150.87 887.778 1153.45 900.544 1155.84 913.781 C 1145.5 898.444 1143.13 888.398 1142.78 870.052 z" fill="rgb(138,26,40)" transform="translate(0,0)"></path>
<path d="M 843.367 892.651 C 852.459 907.488 854.595 920.681 853.019 938.056 C 848.543 935.577 849.386 935.85 847.358 931.728 C 846.338 918.873 845.56 905.266 843.367 892.651 z" fill="rgb(124,17,27)" transform="translate(0,0)"></path>
<path d="M 1203.38 897.581 C 1207.69 908.159 1212.39 922.285 1214.61 933.512 C 1204.55 922.361 1201.31 914.195 1196.34 900.107 C 1199.61 899.563 1200.74 899.647 1203.38 897.581 z" fill="rgb(104,23,32)" transform="translate(0,0)"></path>
<path d="M 972.956 616.226 C 979.949 613.773 982.646 612.668 990.073 612.931 C 990.389 618.529 990.741 621.868 989.905 627.502 C 989.452 624.188 988.959 620.879 988.426 617.577 C 983.517 618.041 973.589 627.757 970.331 631.71 C 968.829 628.34 969.593 626.559 967.684 623.071 C 969.157 620.55 971.075 618.499 972.956 616.226 z" fill="rgb(192,47,54)" transform="translate(0,0)"></path>
<path d="M 1250.17 907.848 C 1253.96 906.757 1254.6 906.817 1257.05 903.66 C 1261.19 915.114 1269.03 928.71 1270.97 939.583 C 1262.78 930.369 1255.1 919.173 1250.17 907.848 z" fill="rgb(104,23,32)" transform="translate(0,0)"></path>
<path d="M 1271.21 901.793 C 1275.73 902.039 1279.78 902.242 1284.33 902.225 C 1284.19 905.559 1283.95 909.227 1283.96 912.537 C 1283.73 918.827 1283.58 920.254 1282.12 926.482 C 1278.49 920.518 1274.72 912.574 1272.22 906.036 L 1271.21 901.793 z" fill="rgb(168,29,47)" transform="translate(0,0)"></path>
<path d="M 1271.21 901.793 C 1275.73 902.039 1279.78 902.242 1284.33 902.225 C 1284.19 905.559 1283.95 909.227 1283.96 912.537 C 1280.69 909.368 1278.71 906.941 1274.54 905.124 L 1272.22 906.036 L 1271.21 901.793 z" fill="rgb(238,215,219)" transform="translate(0,0)"></path>
<path d="M 816.842 873.795 C 825.342 882.573 830.39 897.56 828.737 909.651 C 827.104 907.723 826.731 904.226 824.969 901.323 C 822.347 902.367 822.791 902.854 820.956 905.878 C 820.156 895.118 818.782 884.408 816.842 873.795 z" fill="rgb(104,23,32)" transform="translate(0,0)"></path>
<path d="M 739.517 826.651 C 750.906 838.948 753.34 843.633 756.485 860.896 C 752.809 860.531 750.562 858.984 748.767 855.93 C 745.963 845.583 742.979 836.758 739.517 826.651 z" fill="rgb(138,26,40)" transform="translate(0,0)"></path>
<path d="M 766.76 838.618 C 773.885 849.543 781.583 858.826 778.222 872.706 C 777.25 873.355 777.908 873.041 776.085 873.167 C 774.541 871.191 773.929 870.172 772.638 868.006 C 770.778 858.753 768.192 847.783 766.76 838.618 z" fill="rgb(138,26,40)" transform="translate(0,0)"></path>
<path d="M 1167.29 886.851 L 1168.42 884.886 C 1174.24 888.944 1172.71 903.036 1179.81 905.508 C 1181.84 912.866 1183.75 920.257 1185.54 927.679 C 1176.62 913.038 1170.85 903.864 1167.29 886.851 z" fill="rgb(104,23,32)" transform="translate(0,0)"></path>
<path d="M 1119.63 875.071 C 1120.13 872.039 1119.77 870.366 1121.54 868.825 L 1126.09 870.19 C 1128.3 881.25 1129.02 889.744 1129.51 900.952 C 1124.86 891.798 1121.48 885.198 1119.63 875.071 z" fill="rgb(138,26,40)" transform="translate(0,0)"></path>
<path d="M 794.995 873.318 C 794.054 868.601 792.465 863.13 793.301 858.582 L 794.613 857.963 C 800.65 863.702 804.541 883.145 804.675 891.392 C 797.512 883.404 803.963 879.44 794.995 873.318 z" fill="rgb(124,17,27)" transform="translate(0,0)"></path>
<path d="M 1226.94 908.823 C 1230.53 908.483 1230.37 908.572 1233.62 907.074 L 1243.49 933.913 C 1235.55 926.248 1230.93 919.293 1226.94 908.823 z" fill="rgb(124,17,27)" transform="translate(0,0)"></path>
<path d="M 914.186 1039.87 C 916.972 1035.3 922.387 1024.03 924.871 1021.5 L 925.787 1022.1 C 926.298 1030.82 924.614 1038.86 919.212 1045.82 L 919.451 1042.07 C 917.28 1040.98 916.468 1040.71 914.186 1039.87 z" fill="rgb(138,26,40)" transform="translate(0,0)"></path>
<path d="M 868.52 948.904 C 870.178 941.443 870.211 930.864 871.57 926.804 L 872.779 927.203 C 876.358 935.004 875.988 939.629 875.997 948.037 C 872.727 948.914 871.807 948.834 868.52 948.904 z" fill="rgb(138,26,40)" transform="translate(0,0)"></path>
<path d="M 909.851 1146.68 C 916.155 1144.99 919.942 1144.15 925.798 1141.24 C 922.922 1153 916.453 1149.93 907.148 1153.28 C 907.396 1151.54 907.718 1149.74 908.003 1148 L 909.851 1146.68 z" fill="rgb(238,215,219)" transform="translate(0,0)"></path>
<path d="M 722.983 836.508 C 721.659 832.758 719.588 828.439 720.203 824.685 L 721.603 824.1 C 728.164 829.567 728.904 833.674 731.905 841.707 C 728.256 839.113 727.042 838.385 722.983 836.508 z" fill="rgb(138,26,40)" transform="translate(0,0)"></path>
<path d="M 1118.99 855.969 C 1122.43 856.236 1122.26 856.059 1124.91 858.23 L 1125.89 860.741 L 1126.09 870.19 L 1121.54 868.825 C 1119.77 870.366 1120.13 872.039 1119.63 875.071 C 1118.86 869.757 1119.03 861.558 1118.99 855.969 z" fill="rgb(192,47,54)" transform="translate(0,0)"></path>
<path d="M 967.684 623.071 C 969.593 626.559 968.829 628.34 970.331 631.71 C 968.576 635.058 965.676 641.254 962.695 643.022 L 961.886 641.484 C 962.537 633.589 963.835 629.938 967.684 623.071 z" fill="rgb(138,26,40)" transform="translate(0,0)"></path>
<path d="M 904.557 1006.55 C 905.716 1002.45 907.309 994.833 910.346 992.406 C 911.893 997.459 911.273 1003.44 910.981 1008.74 C 908.2 1007.42 907.476 1007.31 904.557 1006.55 z" fill="rgb(104,23,32)" transform="translate(0,0)"></path>
<path d="M 389.533 887.656 C 409.857 868.09 429.995 849.668 451.262 831.006 C 464.526 819.367 477.129 806.596 491.066 795.43 C 572.638 730.075 658.576 671.636 756.162 632.736 C 779.428 623.461 802.865 617.765 826.68 611.531 C 750.961 657.977 696.514 732.303 675.064 818.502 C 652.085 910.638 670.362 1000.54 718.392 1081.67 C 730.367 1101.9 756.001 1135.37 773.917 1150.71 C 673.562 1118.72 563.594 1047.87 482.201 981.68 L 479.726 982.479 C 470.015 980.784 395.425 904.944 395.169 894.094 C 393.296 891.897 391.499 889.779 389.533 887.656 z" fill="rgb(255,255,255)" transform="translate(0,0)"></path>
<path d="M 395.169 894.094 L 395.921 894.868 C 400.89 900.043 405.313 905.616 409.978 911.061 C 431.896 936.639 457.118 959.302 482.201 981.68 L 479.726 982.479 C 470.015 980.784 395.425 904.944 395.169 894.094 z" fill="rgb(8,12,42)" transform="translate(0,0)"></path>
<path d="M 1478.26 501.037 C 1476.44 498.328 1474.06 493.702 1474.8 490.441 C 1477.72 477.645 1505.61 460.338 1517.89 462.684 C 1526.58 464.346 1541.05 487.719 1547.12 495.857 C 1554.04 505.13 1562.13 516.025 1568.51 525.589 C 1593.31 560.191 1617.93 594.92 1642.37 629.773 C 1654.95 647.632 1678.29 679.819 1688.76 698.855 C 1704.14 718.628 1726.95 756.275 1741.37 778.271 C 1761.91 809.598 1788.64 846.686 1806.81 878.576 C 1819.53 878.52 1823.71 883.129 1836.37 885.195 C 1842.52 890.902 1847.48 893.022 1845.03 901.862 C 1847.37 907.312 1853.71 904.416 1853.47 913.385 C 1853.31 919.096 1856.87 921.664 1860.85 925.717 C 1860.76 929.786 1859.98 935.6 1862.04 938.827 L 1865.18 940.015 C 1875.73 940.6 1874.86 944.632 1878.25 952.97 C 1881.44 955.021 1884.97 956.779 1886.77 959.984 L 1886.8 962.848 C 1887.48 967.047 1892.43 968.593 1894.43 973.247 C 1896.1 977.132 1893.43 987.145 1894.04 988.536 C 1896.9 995.071 1899.63 995.724 1901.39 1003.89 C 1902.46 1004.8 1902.71 1005.17 1903.95 1005.81 C 1922.08 1010.76 1906.66 1028.72 1898.23 1035.02 C 1888.86 1046.11 1868.28 1051.41 1856.31 1041.11 C 1849.76 1035.47 1848.55 1028.5 1847.82 1020.26 C 1821.62 1050.57 1772.59 1111 1730.84 1117.63 C 1719.76 1119.39 1683.05 1102.56 1668.7 1097.33 C 1656.24 1107.16 1649.35 1113.93 1633.46 1117.7 C 1610.18 1110.77 1595.14 1094.81 1572.53 1086.39 C 1569.97 1133.4 1560.5 1179.63 1541.98 1223.28 C 1535.72 1238.05 1524.21 1252.35 1517.87 1268.64 C 1566.95 1343.41 1610.72 1433.25 1646.93 1515.12 C 1655.49 1534.47 1665.86 1553.04 1673.48 1572.75 C 1680.01 1588.76 1679.62 1608.32 1684.46 1624.35 C 1689.73 1639.48 1694.62 1656.76 1700.36 1671.56 C 1711.26 1699.65 1718.57 1738.39 1734.07 1763.59 C 1754.14 1796.24 1751.59 1793.3 1753.16 1829.5 C 1763.92 1831.79 1776.77 1843.09 1786.99 1849.28 C 1800.86 1857.6 1816.07 1863.45 1831.95 1866.55 C 1835.81 1867.28 1854.92 1870.32 1856.81 1872.62 C 1862.67 1879.73 1864.06 1899.92 1865.38 1909.26 C 1795.07 1909.53 1724.76 1909.23 1654.46 1908.38 C 1655.86 1901.36 1661.16 1879.77 1660.66 1874.36 C 1659.03 1856.35 1658.01 1844.57 1659.29 1826.09 C 1653.07 1815.78 1637.06 1792.3 1632.76 1783.95 C 1625.88 1774.19 1615.05 1760.15 1609.36 1750.36 C 1604.45 1745.27 1598.69 1735.66 1594.52 1729.67 C 1568.28 1691.96 1557.12 1650.08 1538.11 1608.94 C 1518.55 1566.64 1485.79 1512.49 1454.16 1478.16 C 1436.69 1527.19 1416.1 1575.21 1392.44 1621.58 C 1383.32 1639.45 1371.69 1663.37 1352.53 1672.09 C 1333.86 1680.58 1314.63 1688.29 1295.75 1696.33 C 1272.4 1706.34 1249.23 1716.75 1226.25 1727.56 C 1183.99 1747.26 1142.62 1768.09 1099.5 1785.95 C 1085.69 1791.68 1068.8 1800.16 1055.17 1805.08 C 1056.1 1813.22 1056.57 1841.28 1059.15 1845.6 C 1077.84 1861.22 1111.15 1866.88 1115.52 1893.94 C 1117.67 1900 1124.22 1904.17 1122.4 1910.32 C 1118.8 1910.99 1094.06 1910.13 1087.7 1910.11 C 1053.79 1909.86 1019.87 1909.8 985.957 1909.93 C 984.132 1897.03 979.433 1866.04 974.34 1855.18 C 960.633 1825.94 938.584 1798.6 937.973 1764.32 C 953.48 1754.44 974.187 1750.37 988.204 1738.84 C 996.733 1730.07 1005.7 1730.79 1016.33 1726.86 C 1061.41 1710.21 1106.11 1675.82 1146.08 1649.42 C 1182.94 1625.08 1213.72 1596.47 1257.58 1585.32 C 1264.51 1583.56 1278.03 1584.27 1279.83 1577.03 C 1285.13 1556.26 1278.13 1534.4 1276.76 1513.49 C 1272.27 1470.6 1268.87 1427.96 1266.27 1384.93 C 1264.01 1354.46 1256.01 1336.79 1261.76 1303.37 C 1266.66 1274.99 1275.05 1253.66 1286.53 1227.56 C 1291.07 1217.26 1288.61 1213.48 1296.28 1199.04 C 1299.58 1192.02 1302.15 1182.97 1310.49 1181.53 C 1314.72 1177.69 1319.63 1153.94 1321.36 1146.9 C 1325.35 1117.26 1334.66 1084.68 1341.18 1055.26 C 1346.53 1031.09 1352.08 1006.95 1358.62 983.075 C 1362.9 970.636 1364.74 952.771 1370.7 941.246 C 1386.86 910.004 1404.89 877.223 1424 847.681 C 1427.72 841.921 1437.61 833.346 1443.54 829.456 C 1447.9 826.285 1471.71 823.005 1472.54 817.439 C 1477.97 780.993 1465.81 744.324 1490.14 711.677 C 1516.82 675.877 1582.12 681.587 1615.57 703.131 C 1630.89 713.001 1635.61 745.376 1637.5 761.823 C 1648.76 767.621 1681.86 780.269 1688.79 787.936 C 1691.83 802.626 1639.38 822.675 1628.11 826.51 C 1627.08 848.454 1620.65 907.562 1609.43 925.472 C 1627.39 934.847 1638.26 953.173 1663.66 959.542 C 1670.43 956.594 1683.11 953.817 1690.55 951.578 C 1713.91 944.553 1742.31 938.171 1764.07 927.002 C 1769.52 915.327 1776.62 891.899 1782.03 877.939 C 1777.93 872.766 1773.91 867.518 1770 862.198 C 1762.14 854.101 1737.73 820.879 1730.04 810.415 C 1684.08 751.264 1631.99 698.646 1586.02 639.436 C 1554.61 598.974 1522.84 558.95 1491.76 518.205 C 1487.09 512.62 1482.59 506.894 1478.26 501.037 z" fill="rgb(4,21,72)" transform="translate(0,0)"></path>
<path d="M 1865.18 940.015 C 1875.73 940.6 1874.86 944.632 1878.25 952.97 C 1881.44 955.021 1884.97 956.779 1886.77 959.984 L 1886.8 962.848 L 1884.54 963.599 C 1882.79 962.605 1882.09 962.288 1880.5 961.062 L 1880.11 961.698 L 1881.73 963.705 L 1881.33 964.615 L 1881.81 966.869 C 1884.22 969.584 1887.16 972.171 1887.7 975.599 C 1886.41 978.665 1885.94 978.966 1883.86 981.489 C 1883.32 984.862 1884.42 986.196 1885.96 989.288 C 1871.68 998.875 1855.98 1007.08 1839.15 1011.18 C 1838.37 1011.37 1833.16 1008.61 1831.35 1008.24 C 1832.84 1010.49 1837.08 1011.89 1839.92 1013.36 C 1825.83 1034.17 1787.9 1069.22 1761.69 1073.88 C 1754.04 1075.24 1748.06 1074.81 1740.43 1074.22 C 1734.28 1080.07 1731.24 1083.08 1723.37 1086.85 C 1711.41 1087.13 1701.31 1074.92 1691.21 1066.7 C 1702.38 1048.74 1706.65 1038.01 1709.68 1017.44 C 1721.5 1022.85 1726.67 1025.54 1736.67 1033.68 C 1761.9 1021.88 1796.88 1015.22 1819.61 994.249 C 1823.73 991.484 1825.09 983.577 1826.08 979.033 C 1830.26 959.707 1835.98 954.124 1851.78 944.144 C 1856.94 939.099 1857.95 939.845 1865.18 940.015 z" fill="rgb(255,255,255)" transform="translate(0,0)"></path>
<path d="M 1865.18 940.015 C 1875.73 940.6 1874.86 944.632 1878.25 952.97 C 1881.44 955.021 1884.97 956.779 1886.77 959.984 L 1886.8 962.848 L 1884.54 963.599 C 1882.79 962.605 1882.09 962.288 1880.5 961.062 L 1880.11 961.698 L 1881.73 963.705 L 1881.33 964.615 L 1881.81 966.869 C 1865.05 952.86 1881.65 950.342 1851.78 944.144 C 1856.94 939.099 1857.95 939.845 1865.18 940.015 z" fill="rgb(2,5,20)" transform="translate(0,0)"></path>
<path d="M 1643.59 959.829 C 1654.93 965.571 1699.9 997.729 1701.48 1009.04 C 1698.86 1033.67 1695.7 1039.91 1682.43 1061.6 C 1673.89 1072.8 1644.07 1109.25 1627.44 1098.73 C 1630.3 1094.52 1645.64 1084.77 1651.22 1080.18 C 1663.34 1070.18 1697.76 1019.45 1686.81 1003.91 C 1679.36 993.334 1654.65 970.629 1643.59 959.829 z" fill="rgb(255,255,255)" transform="translate(0,0)"></path>
<path d="M 1688.76 698.855 C 1687.34 699.886 1688.17 699.515 1686.2 699.816 C 1678.81 693.501 1655.24 653.601 1647.01 641.958 C 1620.57 604.558 1592.79 566.899 1566.69 529.351 C 1567.64 527.85 1567.94 527.206 1568.51 525.589 C 1593.31 560.191 1617.93 594.92 1642.37 629.773 C 1654.95 647.632 1678.29 679.819 1688.76 698.855 z" fill="rgb(2,5,20)" transform="translate(0,0)"></path>
<path d="M 1701.48 1009.04 L 1702.66 1009.31 C 1704.47 1014.4 1699.14 1033.54 1697.69 1039.85 C 1709.84 1039.59 1703.25 1022.35 1708.95 1016.19 C 1716.26 1014.56 1734.04 1032.31 1740.51 1030.02 C 1759.87 1023.19 1781.18 1015.1 1799.59 1005.55 C 1805.83 1002.31 1814.13 994.321 1819.61 994.249 C 1796.88 1015.22 1761.9 1021.88 1736.67 1033.68 C 1726.67 1025.54 1721.5 1022.85 1709.68 1017.44 C 1706.65 1038.01 1702.38 1048.74 1691.21 1066.7 C 1701.31 1074.92 1711.41 1087.13 1723.37 1086.85 L 1724.95 1087.38 L 1724.44 1088.13 C 1712.34 1092.05 1697.3 1074.23 1688.65 1066.85 C 1688.98 1067.13 1686.16 1062.83 1686.09 1062.72 C 1684.3 1062.39 1684.17 1062.43 1682.43 1061.6 C 1695.7 1039.91 1698.86 1033.67 1701.48 1009.04 z" fill="rgb(8,12,42)" transform="translate(0,0)"></path>
<path d="M 1897.4 1004.16 L 1898.73 1005.03 L 1898.41 1007.01 C 1900.37 1008.03 1902.21 1009.08 1904 1010.38 L 1903.82 1011.86 C 1900.54 1012.56 1894.64 1012.83 1893.12 1014.22 C 1898.56 1017.55 1904.75 1011.63 1909.3 1018.61 L 1908.79 1018.08 L 1910.22 1016.96 C 1910.76 1012.4 1911.26 1014.38 1909.13 1010.71 C 1907.05 1009.49 1905.04 1008.33 1903.01 1007.02 L 1903.95 1005.81 C 1922.08 1010.76 1906.66 1028.72 1898.23 1035.02 C 1900.42 1028.64 1909.42 1024.14 1906.22 1017.81 C 1895.82 1012.37 1877.38 1023.44 1874 1022.95 L 1874.23 1022.58 L 1873.33 1021.83 C 1870.58 1025.12 1865.94 1032.1 1863 1033.73 C 1860.5 1032.72 1861.51 1033.58 1859.76 1031.31 L 1856.13 1027.27 C 1860.97 1017.85 1874.65 1013.03 1884.39 1008.66 C 1888.13 1007.16 1893.5 1005.48 1897.4 1004.16 z" fill="rgb(2,5,20)" transform="translate(0,0)"></path>
<path d="M 1859.76 1031.31 C 1868.44 1018.17 1880.47 1010.79 1896.07 1008.79 C 1893.97 1011.41 1878.38 1017.96 1873.33 1021.83 C 1870.58 1025.12 1865.94 1032.1 1863 1033.73 C 1860.5 1032.72 1861.51 1033.58 1859.76 1031.31 z" fill="rgb(223,224,233)" transform="translate(0,0)"></path>
<path d="M 1115.52 1893.94 C 1111.67 1892.95 1109.76 1882.12 1105.77 1879.22 C 1100.98 1875.18 1094.84 1872.13 1089.92 1868.38 C 1082.57 1862.77 1057.56 1856.23 1059.15 1845.6 C 1077.84 1861.22 1111.15 1866.88 1115.52 1893.94 z" fill="rgb(8,12,42)" transform="translate(0,0)"></path>
<path d="M 1730.04 810.415 C 1732.07 810.656 1733.66 810.838 1735.7 810.925 C 1743.13 818.555 1747.45 828.314 1753.38 836.689 C 1758.91 844.496 1764.65 851.975 1770.18 859.892 L 1770 862.198 C 1762.14 854.101 1737.73 820.879 1730.04 810.415 z" fill="rgb(8,12,42)" transform="translate(0,0)"></path>
<path d="M 1609.43 925.472 C 1627.39 934.847 1638.26 953.173 1663.66 959.542 L 1663.51 960.969 C 1654.55 961.753 1613.32 935.651 1608.53 927.486 L 1609.43 925.472 z" fill="rgb(8,12,42)" transform="translate(0,0)"></path>
<path d="M 1321.36 1146.9 C 1325.08 1154.69 1316.83 1181.05 1311.35 1184.23 L 1306.52 1184.35 C 1304.66 1187.62 1299.79 1197.05 1297.58 1199.32 L 1296.28 1199.04 C 1299.58 1192.02 1302.15 1182.97 1310.49 1181.53 C 1314.72 1177.69 1319.63 1153.94 1321.36 1146.9 z" fill="rgb(8,12,42)" transform="translate(0,0)"></path>
<path d="M 1609.36 1750.36 C 1615.37 1751.54 1634.23 1775.76 1632.76 1783.95 C 1625.88 1774.19 1615.05 1760.15 1609.36 1750.36 z" fill="rgb(8,12,42)" transform="translate(0,0)"></path>
<path d="M 1881.25 1006.91 C 1886.95 1002.19 1887.09 996.939 1891.4 995.435 C 1894.44 997.328 1895.72 1000.86 1897.4 1004.16 C 1893.5 1005.48 1888.13 1007.16 1884.39 1008.66 L 1881.25 1006.91 z" fill="rgb(255,255,255)" transform="translate(0,0)"></path>
<path d="M 1881.25 1006.91 L 1884.39 1008.66 C 1874.65 1013.03 1860.97 1017.85 1856.13 1027.27 L 1855.54 1027.41 L 1854.33 1025.43 L 1855.2 1023.25 C 1860.15 1019.16 1875.46 1009.03 1881.25 1006.91 z" fill="rgb(223,224,233)" transform="translate(0,0)"></path>
<path d="M 1478.26 501.037 L 1480.9 500.776 C 1486.43 505.507 1489.52 508.059 1493.33 514.513 C 1492.66 516.775 1493 516.315 1491.76 518.205 C 1487.09 512.62 1482.59 506.894 1478.26 501.037 z" fill="rgb(8,12,42)" transform="translate(0,0)"></path>
<path d="M 1470.14 1318.5 C 1478.08 1311.63 1485.74 1305.11 1494.2 1298.97 C 1498.18 1296.08 1507.14 1291.64 1506.9 1287.17 C 1506.72 1283.88 1505.84 1280.41 1507.38 1277.42 L 1509.07 1277.04 C 1511.24 1278.77 1520.16 1297.51 1522.33 1301.47 C 1552.07 1355.35 1580.43 1409.97 1607.4 1465.29 C 1618.62 1488.65 1629.65 1518.29 1641.2 1540.57 C 1658.66 1574.28 1659.93 1574.03 1667.2 1612.76 C 1675.96 1659.47 1698.38 1706.54 1711.58 1753 C 1716.3 1769.59 1747.96 1805.06 1735.78 1824.58 C 1727.12 1832.43 1686.41 1834.83 1672.22 1836.67 C 1683.46 1830.63 1697.75 1827.6 1708.29 1821.53 C 1708.99 1819.84 1710.08 1818.27 1709.52 1817.09 C 1705.07 1807.63 1674.33 1783.73 1673.68 1775.31 L 1675.27 1774.69 C 1667.64 1765.3 1658.3 1757.48 1650.26 1748.03 C 1663.1 1757.79 1676.27 1767.11 1689.74 1775.98 C 1690.07 1774.47 1690.89 1770.54 1690.27 1768.83 C 1674.67 1725.91 1656.39 1683.59 1641.26 1640.56 C 1641.66 1639.6 1642.06 1638.64 1642.46 1637.68 C 1640.77 1633.62 1640 1632.59 1640.08 1628.34 C 1639.79 1627.85 1639.5 1627.37 1639.21 1626.88 C 1639.68 1619.83 1631.34 1614.98 1630.37 1608.43 C 1629.85 1607.74 1615.01 1593.81 1612.02 1590.65 C 1619.31 1593.78 1626.55 1597.01 1633.74 1600.34 C 1622.38 1572.18 1610.98 1539.97 1598.51 1512.52 C 1582.42 1479.3 1566.19 1446.11 1547.65 1414.18 C 1537.95 1397.47 1541.88 1388.68 1523.29 1378.12 L 1516.79 1374.34 L 1516.22 1372.14 C 1503.6 1365.64 1497.82 1365.21 1483.85 1364.23 C 1497.5 1361.77 1513.4 1357.92 1526.81 1361.2 C 1518.62 1345.53 1509.8 1327.93 1502.62 1311.83 C 1489.51 1312.81 1482.82 1314.65 1470.14 1318.5 z" fill="rgb(255,255,255)" transform="translate(0,0)"></path>
<path d="M 1516.22 1372.14 C 1540.9 1383.82 1539.94 1390.82 1552.3 1413.92 C 1568.78 1444.16 1584.37 1474.87 1599.05 1506.01 C 1603.66 1516 1637.52 1594.03 1637.5 1599.99 L 1636.09 1600.91 L 1633.74 1600.34 C 1622.38 1572.18 1610.98 1539.97 1598.51 1512.52 C 1582.42 1479.3 1566.19 1446.11 1547.65 1414.18 C 1537.95 1397.47 1541.88 1388.68 1523.29 1378.12 L 1516.79 1374.34 L 1516.22 1372.14 z" fill="rgb(2,5,20)" transform="translate(0,0)"></path>
<path d="M 1689.74 1775.98 C 1690.07 1774.47 1690.89 1770.54 1690.27 1768.83 C 1674.67 1725.91 1656.39 1683.59 1641.26 1640.56 C 1641.66 1639.6 1642.06 1638.64 1642.46 1637.68 C 1655.34 1665.34 1665.68 1695.35 1676.67 1723.94 C 1686.63 1749.83 1690.73 1763.96 1705.48 1787.85 C 1700.22 1784.02 1694.7 1780.16 1689.74 1775.98 z" fill="rgb(2,5,20)" transform="translate(0,0)"></path>
<path d="M 1708.29 1821.53 C 1708.99 1819.84 1710.08 1818.27 1709.52 1817.09 C 1705.07 1807.63 1674.33 1783.73 1673.68 1775.31 L 1675.27 1774.69 C 1690.26 1790.68 1701.48 1802.31 1717.75 1816.71 C 1714.61 1818.36 1711.52 1820.06 1708.29 1821.53 z" fill="rgb(8,12,42)" transform="translate(0,0)"></path>
<path d="M 1630.37 1608.43 C 1641.15 1617.65 1649.83 1625.21 1657.41 1637.25 C 1649.76 1634.06 1647.12 1632.69 1640.08 1628.34 C 1639.79 1627.85 1639.5 1627.37 1639.21 1626.88 C 1639.68 1619.83 1631.34 1614.98 1630.37 1608.43 z" fill="rgb(2,5,20)" transform="translate(0,0)"></path>
<path d="M 1301.81 1601.85 C 1293.63 1541.56 1287.36 1481.03 1283 1420.34 C 1282.08 1406.24 1282.16 1392.17 1281.44 1378.06 C 1280.95 1368.54 1277.07 1357.84 1275.98 1348.18 C 1271.84 1311.47 1278.3 1273.57 1291.36 1239.18 C 1293.2 1234.34 1295.53 1227.74 1298.43 1223.66 L 1300.21 1223.91 C 1302.76 1232.73 1293.33 1273.65 1292.47 1286.31 C 1290.61 1313.55 1290.45 1340.13 1293.21 1367.46 C 1294.19 1377.22 1296.42 1387.05 1297.17 1396.83 C 1297.51 1410.35 1296.52 1423.6 1297.55 1437.37 C 1300.21 1472.66 1303.95 1508.04 1307.76 1543.22 C 1310.53 1568.71 1312 1594.67 1315.53 1619.97 C 1275.3 1613.2 1260.59 1617.18 1223.24 1636.17 C 1174.05 1661.18 1132.43 1696.24 1086.96 1727 C 1082.28 1730.17 1077.13 1734.06 1073.29 1738.13 C 1096.89 1737.39 1120.84 1734.25 1144.41 1733.82 C 1109.22 1745.72 1069.7 1751.47 1033.58 1760.14 C 1030.47 1760.89 1028.2 1761.85 1025.83 1763.94 L 1025.81 1765.74 C 1033.67 1772.52 1071.05 1775.71 1072.78 1778.72 C 1067.43 1784.58 1040.96 1791.15 1032.68 1788.33 C 1022.42 1784.83 1008.65 1781.04 1003.12 1770.56 C 1001.18 1766.9 1001.99 1763.82 999.945 1760.5 C 997.313 1756.28 997.504 1756.89 998.12 1752.93 C 998.106 1751.24 997.594 1748.88 998.776 1747.59 C 1002.27 1743.77 1012.23 1743.36 1017.19 1742.03 C 1032.03 1738.06 1045.85 1731.95 1059.23 1724.47 C 1119.52 1690.76 1214.77 1597.4 1283.18 1599.17 C 1289.45 1599.34 1295.68 1600.62 1301.81 1601.85 z" fill="rgb(255,255,255)" transform="translate(0,0)"></path>
<path d="M 998.12 1752.93 C 1004.34 1766.56 1010.51 1778.03 1025.67 1783.81 C 1043.04 1790.43 1057.26 1781.77 1072.78 1778.72 C 1067.43 1784.58 1040.96 1791.15 1032.68 1788.33 C 1022.42 1784.83 1008.65 1781.04 1003.12 1770.56 C 1001.18 1766.9 1001.99 1763.82 999.945 1760.5 C 997.313 1756.28 997.504 1756.89 998.12 1752.93 z" fill="rgb(8,12,42)" transform="translate(0,0)"></path>
<path d="M 1396.84 924.435 C 1408.5 929.395 1420.38 940.098 1429.66 948.766 C 1430.42 953.814 1433.7 973.367 1433.91 977.473 C 1434.41 987.549 1423.08 1015.45 1418.51 1025 L 1417.12 1025.91 C 1415.53 1026.96 1414.84 1027.47 1413.39 1028.65 C 1413.01 1032.29 1414.09 1037.4 1413.38 1039.94 C 1408.32 1058.19 1403.33 1077.15 1397.12 1095 C 1394 1103.99 1381.22 1108.23 1374.46 1114.65 L 1373.37 1115.86 C 1366.78 1116.62 1356.04 1106.62 1353.5 1100.37 C 1350.18 1093.08 1348.28 1087.7 1344.44 1080.07 C 1345.2 1071.74 1353.73 1021.25 1360.61 1019.25 C 1364.11 1021.98 1366.77 1028.41 1367.64 1032.72 L 1370.79 1031.51 C 1363.92 1012.55 1366.99 1009.46 1371.78 990.187 C 1372.19 988.504 1368.58 985.344 1368.55 985.469 C 1372.95 962.439 1378.1 939.239 1396.84 924.435 z" fill="rgb(255,255,255)" transform="translate(0,0)"></path>
<path d="M 1370.79 1031.51 C 1376.26 1035.58 1379.89 1037.29 1385.97 1040.37 C 1383.48 1047.78 1379.44 1061.14 1375.89 1067.57 L 1374.27 1068.3 C 1369.6 1066.41 1365.5 1062.5 1361.51 1059.22 C 1360.81 1053.51 1364.84 1037.36 1367.64 1032.72 L 1370.79 1031.51 z" fill="rgb(4,21,72)" transform="translate(0,0)"></path>
<path d="M 1353.5 1100.37 C 1358.53 1104.05 1371.44 1112.01 1374.46 1114.65 L 1373.37 1115.86 C 1366.78 1116.62 1356.04 1106.62 1353.5 1100.37 z" fill="rgb(2,5,20)" transform="translate(0,0)"></path>
<path d="M 1392.22 963.096 C 1397.36 969.368 1402.77 972.103 1408.81 976.996 C 1406.56 982.533 1400.06 1002.1 1396.07 1004.12 L 1392.88 1002.43 C 1387.74 998.764 1385.73 996.8 1381.24 992.435 C 1383.27 986.433 1384.92 982.05 1387.43 976.234 C 1388.95 971.787 1390.35 967.411 1392.22 963.096 z" fill="rgb(4,21,72)" transform="translate(0,0)"></path>
<path d="M 1392.22 963.096 C 1397.36 969.368 1402.77 972.103 1408.81 976.996 C 1406.56 982.533 1400.06 1002.1 1396.07 1004.12 L 1392.88 1002.43 C 1396.98 998.32 1401.66 983.846 1403.72 978.109 C 1400.94 975.431 1397.68 971.778 1394.05 971.271 C 1389.73 972.684 1390.94 972.436 1387.43 976.234 C 1388.95 971.787 1390.35 967.411 1392.22 963.096 z" fill="rgb(2,5,20)" transform="translate(0,0)"></path>
<path d="M 1383.84 1196.09 C 1395.87 1193.73 1409.41 1191.39 1420.97 1187.75 C 1467.93 1172.95 1526.85 1142.54 1562.47 1108.94 C 1559.15 1144.5 1542.13 1216.4 1519.69 1243.26 C 1517.16 1243.13 1517.98 1243.37 1515.86 1242.16 L 1514.24 1242.3 C 1508.34 1245.27 1498.84 1240.94 1492 1240.04 C 1483.34 1238.9 1474.46 1237.75 1465.93 1235.96 C 1459.19 1234.54 1453.15 1230.73 1446.22 1230.42 L 1449.02 1227.37 L 1448.9 1226.32 C 1484.89 1210.8 1535.43 1172.39 1555.98 1137.07 C 1556.99 1135.33 1557.54 1132.67 1556.96 1130.65 C 1553.47 1130.76 1546.54 1137.21 1543.76 1139.81 C 1502.78 1178.17 1440.84 1202.29 1383.84 1196.09 z" fill="rgb(255,255,255)" transform="translate(0,0)"></path>
<path d="M 1449.02 1227.37 C 1469.18 1232.49 1494.03 1239.2 1514.24 1242.3 C 1508.34 1245.27 1498.84 1240.94 1492 1240.04 C 1483.34 1238.9 1474.46 1237.75 1465.93 1235.96 C 1459.19 1234.54 1453.15 1230.73 1446.22 1230.42 L 1449.02 1227.37 z" fill="rgb(2,5,20)" transform="translate(0,0)"></path>
<path d="M 1627.7 767.991 C 1644.37 776.434 1661.2 784.551 1678.18 792.339 C 1657.74 804.684 1637.56 814.522 1614.68 821.553 C 1604.41 829.959 1587.94 826.349 1576.7 822.404 L 1577.38 822.354 C 1570.18 819.359 1548.07 810.822 1545.01 804.375 C 1540.48 800.94 1535 797.739 1530.13 794.709 C 1566.9 803.314 1591.48 788.415 1623.43 770.888 C 1624.78 770.15 1626.44 768.926 1627.7 767.991 z" fill="rgb(255,255,255)" transform="translate(0,0)"></path>
<path d="M 1545.01 804.375 C 1570.23 817.543 1585.85 826.795 1614.68 821.553 C 1604.41 829.959 1587.94 826.349 1576.7 822.404 L 1577.38 822.354 C 1570.18 819.359 1548.07 810.822 1545.01 804.375 z" fill="rgb(2,5,20)" transform="translate(0,0)"></path>
<path d="M 1797.86 969.055 C 1803.9 968.896 1812.52 969.421 1818.76 969.611 C 1817.81 973.424 1815.8 980.949 1814.49 984.261 C 1808.78 998.718 1745.25 1026.34 1735.51 1021.82 C 1727.34 1016.9 1718.29 1012.51 1709.76 1008.17 C 1729.31 996.645 1776.4 976.004 1797.86 969.055 z" fill="rgb(255,255,255)" transform="translate(0,0)"></path>
<path d="M 1396.3 1217.51 C 1406.87 1224.8 1429.46 1229.77 1441.92 1232.06 C 1442 1239.52 1443.52 1261.88 1437.98 1266.31 L 1433.84 1265.58 C 1417.21 1260.69 1400.64 1254.75 1384.24 1249.05 C 1387.88 1235.88 1390.09 1229.67 1396.3 1217.51 z" fill="rgb(255,255,255)" transform="translate(0,0)"></path>
<path d="M 1738.83 1841.02 C 1750.02 1841.44 1776.8 1862.74 1788.35 1868.17 C 1806.21 1876.55 1824.86 1878.08 1842.57 1885.49 C 1844.99 1886.51 1845.45 1888.64 1845.88 1890.93 L 1844.55 1892.32 C 1838.93 1893.07 1832.45 1891.95 1826.69 1891.3 C 1807.95 1887.49 1791.55 1878.09 1774.29 1869.95 C 1753.16 1859.98 1738 1853.6 1714.99 1849.24 C 1723.86 1846.96 1730.42 1844.51 1738.83 1841.02 z" fill="rgb(255,255,255)" transform="translate(0,0)"></path>
<path d="M 1542.73 697.398 C 1566.46 693.427 1613.6 700.38 1620.38 726.733 C 1622.2 733.827 1628.71 757.593 1625.93 763.928 C 1619.48 764.315 1617.67 751.878 1616.24 746.737 C 1597.39 697.13 1554.66 704.428 1512.12 703.899 C 1523.34 700.234 1531.06 698.74 1542.73 697.398 z" fill="rgb(255,255,255)" transform="translate(0,0)"></path>
<path d="M 1463.23 830.956 C 1463.8 831.096 1464.2 831.61 1464.66 831.973 C 1463.21 836.771 1454.25 846.661 1453.42 849.705 C 1447.71 870.852 1472.87 896.088 1485.27 910.397 C 1488.82 914.489 1494.6 918.582 1497.21 923 C 1494.73 923.151 1493.59 921.651 1490.96 919.914 C 1463.8 902.218 1404.26 852.595 1463.23 830.956 z" fill="rgb(255,255,255)" transform="translate(0,0)"></path>
<path d="M 1316.45 1185.63 C 1324.93 1190.84 1333.36 1196.14 1341.74 1201.51 C 1338.26 1210.82 1335.78 1220.74 1331.97 1229.98 L 1330.52 1230.35 C 1320.49 1226.7 1312 1221.88 1302.77 1216.7 C 1307.07 1206.23 1311.63 1195.87 1316.45 1185.63 z" fill="rgb(255,255,255)" transform="translate(0,0)"></path>
<path d="M 992.903 1752.04 C 994.602 1754.54 996.543 1771.33 997.288 1775.77 C 985.095 1779.9 968.623 1786.3 956.102 1787.3 C 954.285 1783.54 952.519 1777.41 951.181 1773.26 C 964.457 1768.67 980.958 1759.34 992.903 1752.04 z" fill="rgb(255,255,255)" transform="translate(0,0)"></path>
<path d="M 1791.75 880.92 C 1802.84 885.928 1805.57 886.979 1817.62 888.404 C 1805.67 893.965 1798.37 893.724 1794.73 908.755 C 1793.23 914.939 1790.53 922.589 1788.51 928.745 C 1787.52 931.328 1786.03 936.986 1785.18 939.863 L 1773.99 926.927 C 1780.31 911.722 1785.87 896.302 1791.75 880.92 z" fill="rgb(255,255,255)" transform="translate(0,0)"></path>
<path d="M 1720.11 953.13 C 1732.66 949.921 1750.56 943.056 1764.26 938.978 C 1758.05 942.611 1751.49 945.605 1744.96 948.594 L 1745.02 950.268 C 1726.22 959.142 1709.85 964.757 1689.7 969.864 C 1683.84 971.348 1682.27 973.298 1675.18 973.716 C 1672.84 972.851 1671.3 971.638 1669.23 970.245 L 1668.64 968.33 C 1671.89 963.189 1710.57 953.993 1719.55 951.57 L 1720.11 953.13 z" fill="rgb(255,255,255)" transform="translate(0,0)"></path>
<path d="M 1720.11 953.13 C 1709.73 958.237 1676.77 962.751 1671.51 968.273 L 1672.86 970.121 C 1678.44 972.534 1684.38 970.37 1689.83 968.41 C 1708.21 961.811 1726.55 955.099 1744.96 948.594 L 1745.02 950.268 C 1726.22 959.142 1709.85 964.757 1689.7 969.864 C 1683.84 971.348 1682.27 973.298 1675.18 973.716 C 1672.84 972.851 1671.3 971.638 1669.23 970.245 L 1668.64 968.33 C 1671.89 963.189 1710.57 953.993 1719.55 951.57 L 1720.11 953.13 z" fill="rgb(8,12,42)" transform="translate(0,0)"></path>
<path d="M 1481.54 1246.08 L 1504.86 1250.69 C 1502.36 1260.96 1500.26 1267.93 1496.72 1277.87 C 1494.06 1280.88 1481.8 1280.78 1477.61 1280.69 C 1476.43 1278 1476.75 1279.15 1477.12 1275.93 L 1477.98 1276.66 C 1480.72 1265.79 1481.07 1257.3 1481.54 1246.08 z" fill="rgb(255,255,255)" transform="translate(0,0)"></path>
<path d="M 1496.72 1277.87 C 1494.06 1280.88 1481.8 1280.78 1477.61 1280.69 C 1476.43 1278 1476.75 1279.15 1477.12 1275.93 L 1477.98 1276.66 C 1485.27 1275.39 1489.78 1275.29 1496.72 1277.87 z" fill="rgb(8,12,42)" transform="translate(0,0)"></path>
<path d="M 1041.93 1847.81 C 1047.13 1853.22 1051.62 1865.26 1059.63 1870.12 C 1077.52 1880.97 1087.76 1872.09 1101.39 1892.23 C 1091.2 1890.89 1070.02 1887.34 1061.29 1883.54 C 1051.54 1879.29 1044.52 1858.01 1041.93 1847.81 z" fill="url(#Gradient1)" transform="translate(0,0)"></path>
<path d="M 1474.42 829.716 C 1474.63 830.047 1474.83 830.378 1475.04 830.709 C 1476.63 838.84 1479.41 843.89 1483.65 850.876 C 1481.66 857.046 1479.83 868.397 1477.57 873.197 C 1461.97 857.94 1466.39 847.135 1474.42 829.716 z" fill="rgb(255,255,255)" transform="translate(0,0)"></path>
<path d="M 1833.24 923.786 C 1840.25 924.565 1847.77 923.692 1853.18 927.731 C 1854.87 931.637 1854.32 930.533 1853.78 935.338 C 1849.29 935.854 1844.84 936.563 1840.38 937.234 L 1833.24 923.786 z" fill="rgb(255,255,255)" transform="translate(0,0)"></path>
<path d="M 1826.47 906.886 C 1830.32 907.456 1833.41 907.413 1837.31 907.478 C 1841.4 910.644 1845.18 913.953 1849.1 917.323 C 1845.71 918.364 1835.76 918.227 1831.63 918.296 C 1829.92 915.035 1828.01 910.35 1826.47 906.886 z" fill="rgb(255,255,255)" transform="translate(0,0)"></path>
<path d="M 1825.71 892.739 C 1830.08 893.543 1835.97 894.124 1838.37 898.329 C 1837.39 901.589 1838.22 900.041 1834.76 902.521 C 1829.43 902.903 1821.38 903.19 1819.88 896.623 C 1821.84 893.507 1821.49 894.425 1825.71 892.739 z" fill="rgb(255,255,255)" transform="translate(0,0)"></path>
<path d="M 348.445 599.597 C 351.829 599.282 392.066 572.865 399.677 569.038 C 423.816 556.9 460.078 536.595 483.492 525.885 C 512.238 512.737 638.309 455.587 661.915 459.79 C 629.117 482.128 596.87 505.264 565.201 529.176 C 555.839 536.152 534.486 554.218 526.235 559.319 L 489.374 589.041 C 481.886 596.346 453.349 622.38 445.124 628.433 L 430.266 642.183 C 368.801 699.105 310.256 759.103 254.858 821.946 C 234.697 844.543 208.564 873.086 190.232 896.834 C 200.044 910.636 211.843 923.634 222.388 936.981 C 260.642 986.033 301.199 1033.24 343.921 1078.46 C 400.508 1139.28 462.992 1204.34 526.683 1257.98 C 653.667 1364.93 797.735 1460.87 954.947 1516.72 C 1005.88 1534.82 1055.24 1550.62 1108.74 1559.64 C 1112.54 1560.28 1116.34 1560.88 1120.15 1561.42 C 1106.84 1573.55 1093.79 1585.97 1081.01 1598.67 C 1073.18 1606.37 1062.64 1617.42 1054.14 1624.01 C 1051.14 1627.86 1028.91 1649.64 1024.27 1653.7 C 1022.34 1656.41 1004.38 1674.31 1000.89 1677.97 C 990.581 1674.75 976.867 1668.11 966.902 1663.52 C 950.738 1656.15 934.648 1648.61 918.636 1640.91 C 753.437 1560.47 611.174 1453.04 476.216 1329.64 C 449.036 1305.13 422.609 1279.81 396.973 1253.69 C 386.279 1242.95 373.878 1231.07 363.842 1219.9 C 348.392 1203.81 333.101 1187.57 317.971 1171.19 C 314.335 1168.6 289.304 1140.39 285.041 1135.69 C 217.061 1059.78 152.484 980.881 91.4997 899.237 C 102.776 882.022 121.805 859.508 135.15 842.398 C 185.689 778.189 238.806 716.053 294.371 656.141 C 306.568 643.048 335.456 610.836 348.445 599.597 z" fill="rgb(192,47,54)" transform="translate(0,0)"></path>
<path d="M 317.971 1171.19 C 324.65 1172.47 329.894 1180.05 334.44 1185.07 C 343.994 1195.63 353.735 1206.03 363.203 1216.66 C 363.411 1217.6 363.787 1218.99 363.842 1219.9 C 348.392 1203.81 333.101 1187.57 317.971 1171.19 z" fill="rgb(168,29,47)" transform="translate(0,0)"></path>
<path d="M 489.374 589.041 C 489.681 587.389 489.61 586.641 491.433 584.882 C 500.983 575.664 511.597 566.884 522.572 559.424 C 523.793 559.389 525.014 559.354 526.235 559.319 L 489.374 589.041 z" fill="rgb(124,17,27)" transform="translate(0,0)"></path>
<path d="M 1024.27 1653.7 C 1025.84 1646.78 1046.19 1629.04 1052.53 1623.85 L 1054.14 1624.01 C 1051.14 1627.86 1028.91 1649.64 1024.27 1653.7 z" fill="rgb(168,29,47)" transform="translate(0,0)"></path>
<path d="M 430.266 642.183 L 429.056 642.346 L 428.472 641.207 C 431.469 636.577 439.444 628.452 445.124 628.433 L 430.266 642.183 z" fill="rgb(168,29,47)" transform="translate(0,0)"></path>
<path d="M 348.445 599.597 C 607.792 327.241 1034.96 -26.0761 1410.84 251.405 C 1418.77 257.259 1426.54 263.014 1434.12 269.332 C 1451.14 282.944 1467.7 297.103 1483.8 311.786 C 1488.46 315.678 1504.53 329.842 1507.47 334.385 C 1536.01 359.522 1567.99 396.717 1594.02 424.931 C 1601.57 433.116 1621.3 454.615 1627.45 463.283 C 1646.54 485.146 1664.34 508.753 1683.68 530.892 C 1561.11 437.185 1415.66 335.429 1264.86 297.984 C 1092.66 255.224 913.905 314.319 763.486 397.161 C 728.808 416.259 695.388 438.44 661.915 459.79 C 638.309 455.587 512.238 512.737 483.492 525.885 C 460.078 536.595 423.816 556.9 399.677 569.038 C 392.066 572.865 351.829 599.282 348.445 599.597 z" fill="rgb(4,21,72)" transform="translate(0,0)"></path>
<path d="M 1507.47 334.385 C 1536.01 359.522 1567.99 396.717 1594.02 424.931 C 1601.57 433.116 1621.3 454.615 1627.45 463.283 L 1626.41 464.126 L 1625.42 463.866 C 1594.83 428.843 1562.55 395.862 1530.76 361.921 C 1525.69 356.506 1508.38 340.175 1507.47 334.385 z" fill="rgb(8,12,42)" transform="translate(0,0)"></path>
<path d="M 1483.8 311.786 C 1483.01 313.312 1483.57 312.65 1482.04 313.701 C 1478.77 312.227 1436.74 276.41 1433.6 272.219 L 1434.12 269.332 C 1451.14 282.944 1467.7 297.103 1483.8 311.786 z" fill="rgb(8,12,42)" transform="translate(0,0)"></path>
<metadata><recraft-signature>{"signed_by": "recraft", "signature_b64": "D7p/ZMw0LleOgOk6q+sPjK3bxj6nXIeDYBTHX7lnvt3ob7LoLQllpVD8/M+exU3FhC79PHAkhMqWH1+muUqKAg==", "signing_algo": "Ed25519", "generation_timestamp": 1777331962, "identifier": "e02fd9bc-249c-4078-8031-8a15a4a43bd9"}</recraft-signature></metadata></svg>