<svg xmlns="http://www.w3.org/2000/svg" height="1024" preserveAspectRatio="none" style="display: block;" version="1.1" viewBox="0 0 2048 2048" width="1024">
<path d="M 0 0 L 2048 0 L 2048 2048 L 0 2048 L 0 0 z" fill="rgb(255,255,255)" transform="translate(0,0)"></path>
<path d="M 1022.68 107.648 C 1030.59 113.037 1042.88 127.214 1050.92 134.325 C 1131.68 205.731 1230.06 233.518 1334.81 249.267 C 1466.96 269.136 1600.26 262.502 1732.83 245.368 C 1760.79 241.979 1788.68 238.074 1816.49 233.656 C 1826.96 231.9 1840.41 229.984 1850.48 227.124 C 1849.03 267.804 1847.71 308.451 1845.64 349.106 C 1819.71 858.191 1650.04 1376.66 1279.64 1740.13 C 1199.39 1818.89 1116.33 1883.19 1026 1949.18 C 1023.97 1950.52 1024.82 1950.21 1022.34 1950.31 C 1014.13 1946.73 986.756 1926.08 978.014 1919.66 C 913.704 1873.24 852.699 1822.41 795.441 1767.53 C 768.052 1741.32 741.563 1714.2 716.02 1686.19 C 642.832 1607.42 577.116 1522.02 519.716 1431.1 C 510.938 1417.12 502.642 1401.37 494.129 1386.89 C 388.314 1204.53 310.975 1007.07 264.787 801.351 C 257.339 767.253 250.574 733.01 244.497 698.641 C 232.089 634.549 222.173 570 214.771 505.139 C 203.608 406.511 200.298 326.033 197.432 227.423 C 232.276 234.775 280.284 241.469 315.229 245.813 C 400.886 257.148 487.256 262.222 573.65 260.993 C 695.654 258.988 849.584 238.344 952.071 168.502 C 976.023 152.179 1002.53 128.491 1022.68 107.648 z" fill="rgb(11,29,64)" transform="translate(0,0)"></path>
<path d="M 1022.18 164.74 C 1025.51 166.35 1039.43 179.49 1044.08 182.806 C 1091.11 216.368 1146.12 244.786 1201.32 261.647 C 1386.92 318.333 1617.37 305.855 1807.23 276.605 C 1807.05 332.546 1802.01 399.692 1796.61 455.091 C 1788.6 539.398 1776.65 623.286 1760.82 706.481 C 1751.47 754.814 1740.88 802.901 1729.08 850.696 C 1675.66 1059.63 1589.36 1258.74 1473.41 1440.57 C 1449.5 1477.47 1423.8 1515.97 1396.82 1550.75 C 1324.37 1642.86 1242.53 1727.2 1152.64 1802.39 C 1113.01 1835.75 1066.52 1873.07 1023.57 1902.02 C 1012.38 1896.03 990.692 1879.32 979.63 1870.79 C 921.629 1826.07 862.028 1777.47 809.766 1726.18 C 736.14 1654.53 668.993 1576.51 609.11 1493.04 C 485.415 1319.37 387.535 1102.06 330.612 896.997 C 306.418 809.21 287.325 720.097 273.428 630.104 C 263.063 567.294 255.108 504.11 249.579 440.691 C 244.287 386.154 239.549 330.813 239.002 276.021 C 259.209 278.189 279.192 282.611 299.479 284.876 C 436.702 300.197 575.194 309.315 712.518 289.907 C 809.636 276.181 906.375 251.865 987.348 193.784 C 998.121 186.057 1013.72 174.596 1022.18 164.74 z" fill="rgb(255,255,255)" transform="translate(0,0)"></path>
<path d="M 1022.35 215.612 C 1026.69 216.737 1037.23 226.146 1041.68 229.154 C 1121.25 282.806 1215.56 308.572 1309.14 324.807 C 1439.53 347.426 1571.49 342.176 1702.52 328.639 C 1725.42 326.273 1748.16 322.908 1771.06 320.686 C 1766.52 361.902 1765.08 408.635 1761.12 450.883 C 1754.57 514.296 1745.94 577.477 1735.25 640.324 C 1724.98 700.931 1712.14 761.846 1698.03 821.706 C 1693.91 839.153 1687.12 859.144 1682.24 876.868 C 1625.76 1081.89 1536.5 1290.23 1413.15 1464.25 C 1356.46 1543.66 1292.81 1617.86 1222.96 1685.98 C 1161.77 1747.31 1095.75 1803.63 1025.54 1854.39 L 1023.55 1854.85 C 1018.67 1853.62 998.2 1837.22 993.181 1833.35 C 923.58 1780.38 857.875 1722.47 796.574 1660.07 C 465.771 1324.18 314.029 840.433 280.502 378.2 C 279.124 359.201 276.839 339.407 276.999 320.456 C 320.988 325.214 361.146 332.567 407.199 335.637 C 587.209 347.635 788.813 340.8 953.526 259.415 C 978.309 247.17 1001.55 233.371 1022.35 215.612 z" fill="rgb(11,29,64)" transform="translate(0,0)"></path>
<path d="M 1022.47 267.726 C 1024.75 268.155 1053.82 288.429 1059.26 291.149 C 1240.02 381.602 1450.6 394.199 1648.92 377.793 C 1673.07 375.795 1696.73 374.276 1720.9 370.699 C 1699.9 692.457 1621.84 1014.38 1465.3 1298.05 C 1449.41 1327.38 1432.5 1356.15 1414.6 1384.31 C 1308.81 1544.16 1177.19 1685.31 1025.12 1802 C 1011.31 1793.38 989.992 1776.21 977.182 1765.68 C 872.144 1679.43 777.523 1581.22 695.236 1473.05 C 530.587 1252.51 423.647 978.676 370.157 709.985 C 357.513 644.822 346.94 579.275 338.453 513.441 C 332.542 465.62 328.437 418.543 323.762 370.651 C 370.448 377.218 416.285 380.139 463.231 381.886 C 609.125 387.314 760.134 378.577 898.743 329.486 C 948.773 311.766 979.709 299.811 1022.47 267.726 z" fill="rgb(255,255,255)" transform="translate(0,0)"></path>
<path d="M 342.8 390.752 C 375.719 393.321 409.909 396.448 442.776 398.091 C 491.465 400.389 540.225 400.769 588.944 399.23 C 600.052 398.813 611.421 398.249 622.516 398.201 C 647.257 434.879 676.411 486.291 698.802 524.67 L 775.851 654.587 L 867.178 808.703 C 891.359 849.298 912.51 883.358 935.664 925.525 C 937.189 921.468 943.815 903.282 945.524 900.595 C 949.139 889.051 942.89 885.323 937.209 876.147 C 915.056 840.365 942.996 821.235 968.14 801.147 C 980.476 791.292 993.005 779.9 1005.51 769.924 C 1007.97 774.027 1007.82 775.02 1008.48 779.927 C 989.619 808.67 976.121 837.951 962.473 869.461 C 958.215 879.292 950.915 902.404 946.594 910.255 C 939.363 931.03 932.582 950.128 927.101 971.504 C 920.452 997.85 909.44 1037.25 908.558 1063.58 L 927.183 1065.52 C 906.752 1109.92 891.08 1141.32 864.164 1182.47 C 877.13 1189.17 889.141 1195.64 903.37 1199.46 C 886.869 1218.7 857.609 1223.38 836.834 1249.58 C 830.565 1257.61 823.413 1265.24 816.56 1272.81 C 811.204 1264.74 802.188 1247.62 796.753 1238.34 L 740.975 1142.01 L 551.326 814.202 C 504.783 735.67 458.675 656.882 413.003 577.841 C 400.969 557.109 388.766 536.111 377.471 514.981 C 367.11 495.598 350.119 476.839 348.438 454.644 C 347.17 437.896 345.366 421.051 343.753 404.297 C 342.906 401.841 342.911 393.83 342.8 390.752 z" fill="rgb(216,63,64)" transform="translate(0,0)"></path>
<path d="M 343.753 404.297 C 346.957 407.641 350.074 413.648 352.668 417.755 C 376.891 456.109 399.382 495.549 422.434 534.598 L 689.5 994.702 C 726.528 1058.62 765.3 1122.38 801.803 1186.63 C 810.569 1202.06 831.91 1235.6 836.834 1249.58 C 830.565 1257.61 823.413 1265.24 816.56 1272.81 C 811.204 1264.74 802.188 1247.62 796.753 1238.34 L 740.975 1142.01 L 551.326 814.202 C 504.783 735.67 458.675 656.882 413.003 577.841 C 400.969 557.109 388.766 536.111 377.471 514.981 C 367.11 495.598 350.119 476.839 348.438 454.644 C 347.17 437.896 345.366 421.051 343.753 404.297 z" fill="rgb(11,29,64)" transform="translate(0,0)"></path>
<path d="M 588.944 399.23 C 600.052 398.813 611.421 398.249 622.516 398.201 C 647.257 434.879 676.411 486.291 698.802 524.67 L 775.851 654.587 L 867.178 808.703 C 891.359 849.298 912.51 883.358 935.664 925.525 C 937.189 921.468 943.815 903.282 945.524 900.595 C 949.139 889.051 942.89 885.323 937.209 876.147 C 915.056 840.365 942.996 821.235 968.14 801.147 C 980.476 791.292 993.005 779.9 1005.51 769.924 C 1007.97 774.027 1007.82 775.02 1008.48 779.927 C 989.619 808.67 976.121 837.951 962.473 869.461 C 958.215 879.292 950.915 902.404 946.594 910.255 C 939.363 931.03 932.582 950.128 927.101 971.504 C 925.143 961.855 909.974 942.32 904.692 932.639 C 894.258 913.515 882.879 894.699 871.842 875.921 L 648.452 499.647 C 629.613 468.21 609.277 428.744 588.944 399.23 z" fill="rgb(11,29,64)" transform="translate(0,0)"></path>
<path d="M 1221.9 525.273 C 1257.51 521.744 1296.03 541.989 1309.29 575.669 C 1315.82 592.263 1317.72 603.908 1329.43 618.28 C 1322.08 620.03 1315.86 620.654 1308.08 622.75 L 1302.44 635.02 C 1310.6 648.27 1315.72 656.638 1297.7 662.842 C 1299.38 675.481 1299.79 673.193 1294.45 685.185 C 1296.18 691.082 1295.62 690.408 1291.37 693.731 C 1291.51 695.788 1291.67 696.177 1292.33 698.072 L 1292.97 699.866 C 1289.55 723.394 1262.5 713.855 1246.19 711.568 C 1231.99 726.932 1233.3 734.872 1229.13 753.505 C 1225.16 771.248 1219.25 783.079 1219.81 802.337 C 1220.42 823.176 1218.19 844.966 1218.33 865.977 C 1230.93 872.336 1244.77 874.692 1258.49 875.138 C 1276.57 875.726 1290.53 879.253 1303.53 864.683 C 1315.03 852.153 1326.86 840.521 1343.17 836.166 C 1364.25 830.533 1368.56 839.826 1374.68 857.294 C 1375.37 859.275 1381.71 860.11 1383.71 863.998 C 1382.86 865.504 1380.88 868.861 1381.28 869.524 C 1387.89 880.4 1387.02 880.452 1377.36 888.155 C 1375.78 889.413 1378.69 890.472 1378.96 894.16 C 1374.88 900.016 1343.97 912.433 1335.64 914.74 C 1333.33 915.379 1317.36 913.548 1313.46 913.122 C 1267.42 936.376 1216.06 947.076 1164.57 944.142 C 1161.54 961.213 1157.07 977.197 1154.07 993.939 C 1202.64 1026.64 1248.16 1063.1 1286.41 1107.72 C 1291.88 1114.11 1321.47 1144.11 1319.82 1152.49 C 1317.99 1161.87 1306.51 1180.39 1301.74 1190.06 L 1251.98 1292.32 C 1233.92 1329.38 1221.56 1349.26 1215.23 1390.77 C 1215.58 1390.77 1215.93 1390.78 1216.28 1390.78 L 1218.03 1390.84 C 1235.77 1391.25 1252.75 1400.92 1270.68 1404.67 C 1282.05 1407.05 1292.02 1406.01 1302.29 1408.66 C 1306.43 1409.73 1313.98 1418.7 1315.41 1422.98 C 1321.03 1439.87 1294.96 1442.15 1290.03 1452.68 C 1288.98 1454.92 1288.87 1456.15 1286.31 1457.34 C 1275.97 1462.12 1281.81 1456 1272.98 1453.56 C 1270.06 1454.27 1269.66 1454.02 1267.6 1456.06 C 1266.98 1463.1 1264.98 1470.16 1255.99 1466.5 C 1255.04 1464.01 1254.2 1461.33 1251 1460.99 C 1237.24 1459.51 1244.41 1468.28 1237.49 1473.37 C 1234.5 1472.97 1227.66 1465.67 1224.81 1463 C 1211.63 1464.65 1214.27 1465.22 1208.72 1475.75 L 1206.42 1476.05 C 1197.01 1468.14 1198.22 1468.48 1186.28 1469.34 C 1185.85 1474.35 1186.01 1480 1180.87 1482.15 C 1175.9 1480.25 1175.71 1475.79 1170.53 1472.82 C 1160.15 1475.15 1165.49 1478.54 1159.79 1482.54 C 1137.78 1480.43 1145.42 1438 1151.77 1425.47 C 1155 1419.07 1155.56 1412.54 1159.63 1405.33 L 1168.29 1399.96 C 1177.29 1335.95 1167.72 1267.92 1192.78 1207.29 C 1197.29 1196.38 1207.05 1182.44 1213.8 1172.42 C 1197.08 1163.84 1173.13 1154.62 1155.59 1146.63 C 1154.4 1146.08 1149.82 1146.85 1148.25 1147.13 C 1106.45 1146.91 1096.17 1133.04 1065.28 1111.17 C 1053.32 1134.43 1043.04 1160 1027.46 1181.22 C 1017.35 1194.98 1006.86 1203.98 997.16 1218.98 C 988.951 1231.66 973.786 1264.88 964.239 1273.68 C 938.901 1297.05 901.027 1310.23 871.43 1326.78 C 851.633 1338.48 830.284 1348.49 810.505 1360.02 C 795.936 1368.51 781.029 1378.22 766.488 1386.98 C 766.903 1389.87 768.186 1398.51 767.894 1400.99 C 765.375 1422.14 754.202 1444.3 758.813 1465.9 C 761.381 1479.3 789.551 1484.16 779.931 1500.4 C 773.703 1510.91 764.64 1506 757.333 1501.07 C 755.269 1504.21 753.054 1508.09 751.072 1511.36 C 747.321 1504.15 744.556 1495.67 735.652 1503.29 C 733.321 1505.28 728.56 1503.88 727.107 1500.83 C 728.002 1498.06 728.376 1497.54 728.278 1494.6 C 723.019 1488.83 719.992 1481.86 715.279 1477.38 C 712.996 1478.44 713.142 1478.49 711.363 1480.27 L 709.78 1479.24 C 708.115 1476.01 707.403 1475.23 707.497 1471.55 C 708.832 1468.64 709.317 1468.39 711.616 1466.28 L 712.299 1465.66 C 711.787 1456.35 703.845 1456.76 708.8 1445.74 L 709.413 1444.4 C 707.703 1431.88 702.508 1413.76 696.433 1402.71 C 692.753 1404.56 692.323 1405.53 688.817 1405.35 C 686.224 1402.68 685.667 1396.51 683.306 1391.01 L 682.734 1389.71 C 686.178 1387.1 686.802 1386.91 688.715 1383.21 C 689.012 1374.98 681.749 1378.35 676.403 1370.93 C 675.614 1367.48 675.815 1367.68 677.161 1364.33 C 686.84 1361.68 685.395 1356.26 693.521 1349.96 C 697.765 1346.66 703.104 1343.43 707.696 1340.58 C 724.696 1341.18 743.528 1344.46 757.998 1335 C 773.511 1324.87 788.012 1313.4 802.806 1302.34 C 841.632 1273.32 855.868 1236.38 907.958 1226.42 C 913.463 1219.15 922.31 1199.66 927.079 1190.32 C 914.405 1185.23 901.574 1180.55 888.606 1176.28 C 911.236 1141.34 932.947 1096.03 952.358 1058.32 C 943.809 1054.77 934.914 1052.06 926.101 1049.21 C 935.3 1003.15 947.192 957.675 961.716 913.009 C 969.304 889.53 981.863 859.517 992.344 837.007 C 1034.76 745.924 1073.28 696.337 1163.24 650.349 C 1164.16 644.478 1165.38 638.509 1166.5 632.661 C 1153.81 636.414 1117.35 643.929 1108.75 630.356 C 1108.63 619.849 1139.12 612.076 1148.1 610.146 C 1156.01 568.116 1177.36 533.237 1221.9 525.273 z" fill="rgb(11,29,64)" transform="translate(0,0)"></path>
<path d="M 1183.91 1104.57 C 1197.05 1088.54 1209.54 1076.89 1225.9 1064.16 C 1247.2 1080 1293.18 1128.4 1308.56 1150.84 C 1303.46 1162.29 1297.38 1173.22 1291.73 1184.4 C 1271.85 1223.74 1253.68 1264.3 1233.12 1303.26 C 1217.61 1298.38 1202.48 1294.77 1186.73 1290.9 C 1189.75 1252.78 1199.43 1201.35 1228.86 1173.83 C 1233.07 1169.89 1243.21 1165.14 1248.69 1162.61 L 1247.58 1161.68 C 1249.86 1160.26 1252.14 1159.35 1252.26 1156.65 C 1249.06 1155.8 1246.14 1157.26 1241.65 1156.32 C 1236.37 1157.49 1232.31 1159.07 1227.25 1160.88 C 1206.71 1154.47 1188.76 1141.9 1168.66 1133.63 C 1171.56 1126.1 1173.96 1120.34 1177.42 1113.07 C 1199.12 1128.59 1229.32 1147.39 1255.62 1152.15 C 1246.46 1142.86 1196.17 1111.55 1183.91 1104.57 z" fill="rgb(255,255,255)" transform="translate(0,0)"></path>
<path d="M 1241.65 1156.32 C 1255.83 1151.28 1261.22 1152.92 1275.15 1155.8 C 1264.66 1157.55 1258.82 1159 1248.69 1162.61 L 1247.58 1161.68 C 1249.86 1160.26 1252.14 1159.35 1252.26 1156.65 C 1249.06 1155.8 1246.14 1157.26 1241.65 1156.32 z" fill="rgb(2,4,16)" transform="translate(0,0)"></path>
<path d="M 1346.76 844.156 C 1352.57 843.634 1360.55 843.275 1363.75 849.242 L 1363.3 850.484 C 1360.75 850.415 1358.19 850.42 1355.63 850.497 L 1355.33 851.973 C 1358.87 856.953 1364.02 856.417 1368.03 861.069 C 1370.62 864.07 1365.39 864.936 1363.88 871.477 C 1367.17 873.942 1369.13 869.049 1374.51 872.148 C 1375.7 875.67 1375.62 873.924 1374.69 877.578 C 1366.08 885.807 1372.88 883.399 1369.18 890.038 C 1365.47 892.389 1364.79 893.14 1360.6 893.832 C 1357.13 892.336 1358.25 892.88 1356.12 888.516 C 1355.62 888.168 1355.12 887.821 1354.62 887.474 C 1344.03 890.17 1334.21 894.614 1323.66 897.628 C 1284.57 908.791 1242.38 906.941 1202.16 905.766 C 1195.73 905.578 1189.53 905.126 1183.2 905.805 C 1170.25 906.217 1162.67 905.287 1152.17 912.966 C 1148.39 905.342 1140.37 887.593 1140.71 879.382 C 1144.46 875.364 1152.72 876.41 1158.04 875.93 C 1202.65 871.873 1245.95 888.096 1290.49 884.262 C 1308.01 882.754 1320.08 858.392 1333.3 849.564 C 1336.74 847.267 1342.76 845.505 1346.76 844.156 z" fill="rgb(255,255,255)" transform="translate(0,0)"></path>
<path d="M 1173.9 737.329 C 1181.15 736.697 1185.75 736.785 1193.06 736.993 C 1219.36 768.181 1208.01 823.625 1205.82 863.195 C 1175.31 861.1 1153.43 858.476 1123.31 866.683 C 1117.86 869.062 1115.4 869.9 1112.34 864.411 C 1119.48 850.548 1173.66 850.721 1188.97 850.893 C 1169.78 835.463 1172.54 808.709 1168.62 786.33 C 1165.96 771.136 1162.89 755.208 1161.29 739.967 C 1165.39 738.855 1169.72 738.128 1173.9 737.329 z" fill="rgb(255,255,255)" transform="translate(0,0)"></path>
<path d="M 1232.18 537.298 C 1245.38 536.979 1258.4 540.338 1269.8 547.001 C 1292.44 560.445 1303.73 584.805 1310.12 609.374 C 1291.11 607.443 1281.9 611.047 1263.94 611.793 C 1235.43 612.976 1206.3 612.991 1177.75 613.016 C 1173.23 613.097 1167.78 613.749 1164.25 611.081 C 1171.8 606.255 1243.74 605.586 1258.21 605.476 C 1262.28 605.445 1273.71 606.709 1278.29 607.292 C 1258.88 574.242 1245.57 562.163 1213.74 543.29 C 1220.66 539.627 1224.75 538.586 1232.18 537.298 z" fill="rgb(255,255,255)" transform="translate(0,0)"></path>
<path d="M 1263.64 632.588 C 1270.48 631.907 1278.71 631.952 1285.7 631.818 C 1293.47 640.028 1297.13 643.978 1302.33 653.928 C 1296.72 654.064 1286.78 652.435 1283.02 654.134 C 1281.11 656.534 1281.06 656.316 1280.78 659.331 C 1285.46 662.988 1287.49 659.788 1291.55 662.92 C 1292.66 679.586 1286.26 668.64 1282.95 679.098 C 1285.02 683.266 1285.72 679.618 1289.27 683.482 C 1288.06 686.893 1284.7 689.061 1281.8 691.461 C 1286.8 704.824 1283.08 707.33 1269.89 706.981 C 1257.07 704.186 1248.52 699.511 1236.81 693.483 C 1233.47 684.899 1232.92 674.569 1231.97 665.319 C 1237.72 667.98 1251.82 673.731 1257.13 668.686 C 1255.32 651.753 1226.19 668.742 1244.92 634.014 C 1251.07 633.432 1257.46 633.045 1263.64 632.588 z" fill="rgb(255,255,255)" transform="translate(0,0)"></path>
<path d="M 1130.86 681.941 C 1132.93 684.455 1134.92 689.575 1137.36 692.162 C 1148.23 703.669 1163.73 716.317 1177.85 723.086 C 1174.79 723.536 1171.74 724.036 1168.69 724.585 C 1144.05 729.094 1115.55 736.564 1100.74 757.85 L 1101.04 756.487 C 1108 726 1115.16 714.108 1141.26 697.732 C 1133.34 699.719 1130.65 700.437 1123.29 703.79 C 1094.2 718.744 1066.65 743.906 1049.83 772.094 C 1060.14 732.186 1097.26 703.02 1130.86 681.941 z" fill="rgb(255,255,255)" transform="translate(0,0)"></path>
<path d="M 1186.53 1305.42 C 1200.4 1308.58 1214.35 1311.4 1228.36 1313.89 C 1216.84 1337.92 1208.28 1356.95 1205.1 1383.68 C 1205.23 1389.23 1207.46 1390.34 1206.57 1393.9 C 1197.19 1395.19 1190.07 1396.49 1180.8 1398.51 C 1183.06 1387.04 1182.99 1371.55 1183.54 1359.6 C 1184.36 1341.53 1185.36 1323.47 1186.53 1305.42 z" fill="rgb(255,255,255)" transform="translate(0,0)"></path>
<path d="M 940.166 1201.83 C 941.813 1210.88 928.608 1232.95 923.286 1240.19 C 863.604 1256.74 863.452 1272.57 819.256 1315.43 C 814.297 1320.23 802.205 1331.38 795.106 1331.18 C 792.839 1328.78 792.695 1328.83 791.266 1325.92 C 794.516 1319.4 818.84 1304.51 825.463 1297.93 C 853.72 1269.86 870.484 1239.98 914.261 1236.74 C 922.575 1227.19 934.243 1212.59 940.166 1201.83 z" fill="rgb(255,255,255)" transform="translate(0,0)"></path>
<path d="M 1156.8 671.726 C 1193.88 684.016 1209.26 709.927 1223.2 744.636 L 1218.94 753.929 L 1217.62 756.409 L 1216.49 756.004 C 1201.25 710.524 1165.32 715.022 1156.8 671.726 z" fill="rgb(255,255,255)" transform="translate(0,0)"></path>
<path d="M 783.938 1328.76 C 792.203 1333.78 793.482 1344.59 800.397 1355.05 L 784.52 1365.3 C 778.169 1358.17 771.581 1348.13 767.949 1339.24 C 772.949 1335.73 778.764 1332.12 783.938 1328.76 z" fill="rgb(255,255,255)" transform="translate(0,0)"></path>
<path d="M 1213.15 1418.18 L 1216.53 1421.39 C 1220.46 1422.51 1223 1420.82 1226.97 1419.2 C 1234.34 1421.38 1252.2 1423.82 1255.73 1431.29 C 1255.03 1434.44 1255.77 1433.08 1253.18 1435.36 C 1248.39 1436.58 1246.69 1436.13 1241.63 1435.72 C 1226.86 1433.23 1207.16 1427.3 1191 1424 C 1199.15 1422.36 1205.41 1421.18 1213.15 1418.18 z" fill="rgb(255,255,255)" transform="translate(0,0)"></path>
<path d="M 836.366 1332.17 L 837.147 1332.32 L 836.832 1333.28 C 830.196 1337.66 815.461 1344.41 807.854 1346.47 C 805.228 1344.08 805.306 1345.06 804.702 1342.5 C 813.715 1338.7 826.759 1335.11 836.366 1332.17 z" fill="rgb(255,255,255)" transform="translate(0,0)"></path>
<path d="M 1206.53 667.677 C 1207.22 675.093 1208.3 684.081 1208.33 691.382 L 1206.97 691.165 C 1204.17 686.94 1202.42 683.326 1200.12 678.844 C 1203.4 674.237 1204.49 672.88 1206.53 667.677 z" fill="rgb(255,255,255)" transform="translate(0,0)"></path>
<path d="M 1457.96 401.027 C 1486.57 400.825 1515.82 401.454 1544.37 400.808 C 1577.79 399.87 1611.18 397.989 1644.49 395.167 C 1651.11 394.635 1701.5 388.67 1703.39 389.496 L 1703 391.634 C 1700.78 415.779 1698.04 444.636 1695.02 468.342 C 1693.5 480.262 1668.84 519.31 1661.31 532.308 L 1599.22 640.731 L 1421.08 948.625 C 1388.49 1004.42 1355.68 1066.85 1320 1120.34 C 1313.56 1110.36 1309.16 1105.05 1301.53 1096.03 C 1260.06 1051.55 1222.33 1019.27 1171.38 985.549 C 1176.19 975.511 1177.22 969.861 1179.33 959.002 C 1234.43 960.257 1268.77 950.76 1318.46 927.938 C 1338.06 932.053 1351.44 924.88 1369.31 917.936 C 1376.71 915.064 1384.71 912.031 1391.42 907.878 C 1396.37 897.761 1402.03 880.484 1399.31 869.591 C 1389.01 828.326 1356.67 803.911 1316.89 832.394 C 1305.02 840.891 1296.37 852.507 1284.91 860.099 L 1283.7 860.893 C 1266.17 862.294 1251.19 859.793 1234.21 856.529 C 1235.49 845.348 1236.31 834.119 1236.66 822.871 C 1237.21 799.114 1237.78 783.356 1245.2 760.407 C 1245.96 758.057 1244.09 747.85 1244.82 746.177 C 1247.63 739.758 1251.04 735.434 1253.38 728.537 C 1263.38 729.771 1287.62 733.987 1295.3 727.453 C 1304.22 719.857 1304.58 704.875 1307.53 695.515 C 1311.48 682.979 1312.58 685.276 1313.87 671.337 C 1318.35 667.112 1319.42 665.648 1322.94 660.797 C 1323.56 649.243 1322.84 647.504 1318.75 636.668 C 1341.05 631.716 1351.38 626.147 1338.28 603.474 C 1332.61 595.468 1328.21 580.14 1322.77 569.852 C 1332.1 548.604 1356.46 510.733 1368.63 489.465 C 1385.68 459.661 1403.45 428.114 1421.11 398.792 C 1433.51 399.726 1445.51 400.677 1457.96 401.027 z" fill="rgb(216,63,64)" transform="translate(0,0)"></path>
<path d="M 1301.53 1096.03 C 1332.96 1043.76 1363.62 991.026 1393.5 937.854 L 1605.63 565.027 L 1675 443.054 C 1680.62 432.999 1686.18 422.949 1691.61 412.788 C 1695.44 405.611 1698.24 398.14 1703 391.634 C 1700.78 415.779 1698.04 444.636 1695.02 468.342 C 1693.5 480.262 1668.84 519.31 1661.31 532.308 L 1599.22 640.731 L 1421.08 948.625 C 1388.49 1004.42 1355.68 1066.85 1320 1120.34 C 1313.56 1110.36 1309.16 1105.05 1301.53 1096.03 z" fill="rgb(11,29,64)" transform="translate(0,0)"></path>
<path d="M 1421.11 398.792 C 1433.51 399.726 1445.51 400.677 1457.96 401.027 C 1454.75 403.934 1452.9 406.803 1450.74 410.493 C 1428.68 448.271 1406.94 486.318 1385.05 524.202 C 1371.49 547.661 1356.67 570.282 1342.76 593.501 C 1340.67 596.985 1338.86 599.544 1338.28 603.474 C 1332.61 595.468 1328.21 580.14 1322.77 569.852 C 1332.1 548.604 1356.46 510.733 1368.63 489.465 C 1385.68 459.661 1403.45 428.114 1421.11 398.792 z" fill="rgb(11,29,64)" transform="translate(0,0)"></path>
<path d="M 1070.22 1140.15 C 1094.67 1156.27 1117.29 1166.44 1147.26 1164.43 C 1149.7 1164.26 1188.12 1178.31 1191.97 1180.12 C 1154.96 1243.26 1161.16 1276.72 1154.97 1342.72 C 1155.65 1357.8 1149.88 1395.79 1143.85 1409.07 C 1111.29 1480.72 1063.9 1550.08 1023.22 1617.02 C 1004.37 1580.69 983.205 1549.37 962.804 1514.67 L 865.346 1347.67 L 893.039 1335.31 C 921.034 1320.39 956.146 1304.2 979.549 1283.82 C 989.593 1275.07 999.037 1245.88 1006.92 1233.71 C 1016.33 1219.21 1026.9 1208.21 1037.77 1195.13 C 1049.73 1180.73 1063.78 1157.94 1070.22 1140.15 z" fill="rgb(216,63,64)" transform="translate(0,0)"></path>
<path d="M 893.039 1335.31 C 901.053 1348.6 908.708 1362.9 916.356 1376.49 C 951.259 1438.49 989.744 1498.92 1024.31 1561.05 C 1031.09 1548.28 1041.01 1533.94 1048.61 1520.93 L 1126.42 1389.66 C 1133.47 1377.67 1149.82 1353.95 1154.97 1342.72 C 1155.65 1357.8 1149.88 1395.79 1143.85 1409.07 C 1111.29 1480.72 1063.9 1550.08 1023.22 1617.02 C 1004.37 1580.69 983.205 1549.37 962.804 1514.67 L 865.346 1347.67 L 893.039 1335.31 z" fill="rgb(11,29,64)" transform="translate(0,0)"></path>
<path d="M 1005.51 769.924 C 1012.63 764.492 1019.75 758.891 1027.19 753.925 C 1021.19 763.715 1015.93 771.106 1008.48 779.927 C 1007.82 775.02 1007.97 774.027 1005.51 769.924 z" fill="rgb(2,4,16)" transform="translate(0,0)"></path>
<metadata><recraft-signature>{"signed_by": "recraft", "signature_b64": "AFoHSxpeo+k4tRnEe/KgrYJ2tYnCJVV7bZu2lOnd4JF6Oy7yUO89JgQ5nKg1tB2rEQ5dPmudPbzkXfpj7sN+AQ==", "signing_algo": "Ed25519", "generation_timestamp": 1777414344, "identifier": "59891bc4-fd23-4321-8ff8-47782cbec3d8"}</recraft-signature></metadata></svg>