<svg xmlns="http://www.w3.org/2000/svg" height="1024" preserveAspectRatio="none" style="display: block;" version="1.1" viewBox="0 0 2048 2048" width="1024">
<defs>
	<linearGradient gradientUnits="userSpaceOnUse" id="Gradient1" x1="1818.2" x2="1811.78" y1="1570.27" y2="1582.51">
		<stop class="stop0" offset="0" stop-color="rgb(22,22,50)" stop-opacity="1"></stop>
		<stop class="stop1" offset="1" stop-color="rgb(1,3,64)" stop-opacity="1"></stop>
	</linearGradient>
	<linearGradient gradientUnits="userSpaceOnUse" id="Gradient2" x1="1588.42" x2="1565.81" y1="825.088" y2="824.505">
		<stop class="stop0" offset="0" stop-color="rgb(15,16,41)" stop-opacity="1"></stop>
		<stop class="stop1" offset="1" stop-color="rgb(0,5,66)" stop-opacity="1"></stop>
	</linearGradient>
</defs>
<path d="M 0 0 L 2048 0 L 2048 2048 L 0 2048 L 0 0 z" fill="rgb(255,255,255)" transform="translate(0,0)"></path>
<path d="M 1569.86 436.763 C 1553.96 419.47 1534.78 397.207 1520.24 378.911 C 1511.72 368.186 1523.76 342.693 1533.58 336.195 C 1545.42 326.193 1552.21 323.241 1567.25 324.106 C 1581.57 332.307 1600.55 351.584 1613.52 363.105 C 1697.19 437.388 1760.87 529.805 1835.3 612.617 C 1850.13 629.118 1864.28 646.483 1881.42 660.733 C 1894.49 657.024 1898.61 655.481 1911.55 661.772 C 1922.44 667.06 1929.73 677.118 1938.06 681.92 L 1940.99 692.699 C 1959.02 703.838 1945.34 705.695 1951.95 714.443 C 1954.52 715.433 1956.22 715.986 1958.67 715.892 C 1964.83 715.656 1978.43 729.821 1984.12 734.944 C 1985.29 737.743 1985.1 738.235 1985.19 741.229 C 1988.61 746.23 1996.09 748.204 2000.86 753.387 C 2004.95 757.832 2001.45 767.149 2003.16 768.813 C 2016.25 781.57 2013.88 795.22 1999.81 806.506 C 1993.05 811.929 1980.73 809.321 1972.82 811.084 C 1971.19 811.426 1964.66 823.503 1961.01 824.928 C 1951.2 828.746 1942.17 831.401 1932.69 836.17 C 1884.39 860.487 1834.29 891.132 1779.01 895.083 C 1772.7 913.641 1765.49 929.413 1748.21 939.943 C 1732.93 933.157 1720.41 927.149 1703.81 924.017 C 1705.69 957.443 1711.1 990.575 1719.97 1022.86 C 1733.03 1024.79 1737.58 1035.69 1735.12 1047.58 C 1730.91 1067.88 1719.75 1090.25 1699.96 1098.43 C 1705.7 1109.97 1706.24 1132.3 1715.28 1146.17 C 1727.98 1165.66 1741.38 1184.92 1753.83 1204.52 C 1780.55 1246.59 1804.23 1290.01 1826.65 1334.49 C 1834.66 1350.39 1846.07 1365.05 1850.5 1382.5 C 1864.61 1438.19 1863.5 1501.44 1871.28 1556.58 C 1887.94 1574.65 1886.4 1593.42 1867.95 1610.1 C 1871.47 1630.23 1873.22 1654.43 1877.68 1673.47 C 1897.62 1668.62 1904.24 1670.59 1912.61 1690.58 C 1925.02 1720.27 1946.15 1736.43 1975.03 1749.1 C 1990.15 1755.73 2016.09 1759.72 2020.42 1778.62 C 2023.37 1792.87 2014.75 1800.89 2003.26 1806.47 C 2000.13 1830.22 1984.33 1803.71 1974.7 1811.62 C 1970.31 1815.21 1965 1821.31 1957.41 1815.72 C 1956.38 1813.76 1955.55 1811.07 1953.95 1810.72 C 1949.02 1809.64 1942.59 1809.3 1937.68 1810.17 C 1935.87 1812.26 1935.71 1813.21 1934.69 1815.78 C 1932.15 1816.78 1921.91 1816.14 1921.24 1813.02 C 1919.75 1806.15 1907.44 1805.04 1901.57 1804.28 C 1886.17 1802.27 1878.42 1800.31 1868.53 1813.15 C 1859.59 1815.67 1857.36 1812.36 1854.15 1805.06 C 1828.75 1799.31 1834.68 1817.08 1818.36 1811.25 C 1815.35 1807.48 1819.2 1802.67 1813.08 1801.72 C 1805.29 1800.52 1798.98 1802.42 1793.28 1795.44 C 1787.86 1788.79 1787.49 1779.74 1788.65 1771.61 C 1790.31 1759.9 1794.51 1748.66 1796.54 1737.02 C 1805.59 1685.23 1795.64 1666.21 1775.87 1619.31 C 1739.68 1607.51 1759.78 1587.8 1748.73 1560.76 C 1740.42 1543.53 1732.48 1529.3 1726.37 1511.14 C 1722.43 1499.42 1723.18 1468.1 1719.35 1461.66 C 1696.89 1423.96 1654.65 1377.72 1628.38 1344.08 C 1620.81 1363.06 1612.27 1381.63 1602.8 1399.74 C 1598.14 1408.65 1588.15 1425.59 1584.48 1433.83 L 1556.05 1486.3 C 1550.02 1497.66 1540.79 1518.45 1532.73 1527.09 C 1511.6 1549.78 1479.77 1565.17 1452.5 1579.27 C 1407.04 1602.76 1360.56 1626.12 1311.97 1642.26 C 1299.58 1646.34 1291.61 1646.82 1279.93 1640.98 C 1269.89 1651.16 1259.76 1661.23 1249.53 1671.21 C 1252.52 1672.98 1255.59 1674.64 1256.18 1678.56 C 1257.9 1690.17 1252.51 1708.58 1246.68 1718.54 C 1245.27 1720.95 1237.88 1727.51 1235.64 1729.03 C 1222.93 1737.6 1223.58 1748.77 1219.44 1764.08 C 1237.94 1782.86 1251.48 1787.47 1233.77 1814.49 C 1226.44 1817.66 1220.07 1813.79 1212.28 1815.68 C 1209.66 1823.11 1205.96 1824.57 1198.05 1822.98 C 1196.77 1820.53 1196.83 1820.34 1196.22 1817.59 C 1192.98 1815.38 1178.12 1815.56 1174.33 1816.16 C 1166.82 1817.35 1167.78 1824.96 1157.31 1822.36 C 1152.73 1817.88 1152.65 1815.69 1146.07 1811.56 C 1129.16 1800.94 1117.62 1785.65 1122.74 1764.63 C 1127.45 1746.58 1134.01 1728.05 1134.26 1709.16 C 1134.68 1678.71 1116.25 1648.06 1133.23 1618.8 C 1145.26 1598.05 1153.59 1603.94 1172.95 1601.75 C 1185.96 1599.63 1206.79 1593.49 1218.11 1588.4 C 1224.02 1585.74 1245.43 1567.07 1246.51 1561.98 C 1250.96 1541.16 1268.2 1539.57 1282.71 1527.2 C 1290.8 1520.31 1299.74 1506.48 1307.95 1499 C 1333.58 1474.8 1364.94 1465.66 1396.15 1453.01 C 1408.74 1427.32 1415.21 1397.08 1425.46 1370.36 C 1434.47 1346.9 1435.76 1322.52 1438.42 1297.75 C 1439.92 1283.77 1436.32 1267.93 1436.09 1253.84 C 1434.44 1203.51 1432.93 1146.6 1470.89 1108.37 C 1471.24 1099.89 1474.1 1094.37 1477.91 1086.99 C 1455.2 1054.03 1457.31 1044.34 1481.15 1013.53 C 1478.25 1004.1 1476.6 1001.7 1484.32 994.175 C 1454.27 901.34 1444.1 831.985 1453.58 733.988 C 1456.98 698.855 1460.24 668.869 1476.6 636.527 C 1465.37 629.294 1460.7 608.332 1457.91 595.587 C 1450.86 563.364 1448.05 518.472 1466.72 489.332 C 1480.69 467.547 1503.69 455.841 1528.42 450.744 C 1559.52 444.332 1595.43 447.427 1622.4 465.292 C 1651.63 484.654 1648.37 514.213 1660.28 542.985 C 1671.3 548.214 1702.29 558.322 1706.47 566.696 C 1708.73 585.495 1658.89 600.97 1644.19 608.207 C 1649.05 613.527 1657.82 623.295 1664.55 625.078 C 1680.72 629.363 1697.38 630.464 1713.96 635.207 C 1735.84 641.608 1757.5 648.748 1778.9 656.614 C 1803.36 665.463 1823.72 674.193 1849.64 678.021 C 1836.86 657.523 1815.4 640.795 1797.1 625.013 C 1776.33 607.043 1755.26 589.408 1733.92 572.117 C 1714.57 556.445 1686.23 532.394 1666.63 518.836 C 1659.56 496.045 1649.53 463.221 1626.64 453.321 C 1594.52 439.429 1580.16 413.03 1555.91 388.955 C 1548.23 381.336 1536.9 366.842 1532.4 356.813 C 1530.99 364.362 1529.87 365.26 1534.32 371.477 C 1553.66 398.469 1576.97 418.888 1599.28 441.92 C 1589.78 439.78 1579.54 437.299 1569.86 436.763 z" fill="rgb(13,19,64)" transform="translate(0,0)"></path>
<path d="M 1558.14 335.839 C 1573.75 343.803 1591.14 361.063 1604.26 372.926 C 1632.73 398.665 1659.49 427.017 1685.55 455.194 C 1729.24 504.124 1768.33 557.1 1813.61 604.796 C 1831.21 623.341 1848.63 644.336 1867.5 661.409 C 1870.49 664.667 1870.13 663.01 1870.4 666.394 C 1856.97 664.115 1758.64 548.218 1741.03 531.563 C 1737.01 535.173 1732.79 538.856 1728.83 542.513 C 1705.82 520.11 1681.53 499.171 1658.55 476.696 C 1624.34 443.244 1591.08 408.912 1555.81 376.547 C 1548.39 369.742 1540.43 362.85 1532.4 356.813 C 1539.62 345.625 1546.87 341.78 1558.14 335.839 z" fill="rgb(255,255,255)" transform="translate(0,0)"></path>
<path d="M 1469.38 721.341 C 1491.8 734.638 1501.02 728.106 1525.01 726.06 C 1536.63 725.07 1550.11 723.726 1561.65 724.313 C 1577.58 725.123 1593.63 730.369 1609.41 733.331 L 1594.28 734.675 C 1645.98 742.521 1658.46 762.688 1704.2 784.519 C 1692.86 802.546 1683.51 810.433 1667.35 823.424 C 1684.7 815.415 1710.87 796.605 1722.43 780.9 C 1735.96 788.072 1744.03 792.578 1758.83 797.26 C 1760.41 818.58 1757.9 828.744 1754.2 849.694 C 1734.32 855.49 1708.64 858.455 1688.03 861.864 C 1659.58 866.572 1630.53 871.194 1602.35 877.39 C 1649.28 881.856 1708.04 871.065 1752.86 856.659 C 1747.16 876.312 1737.83 895.832 1727.14 913.274 C 1677.44 910.31 1612.13 885.691 1565.99 919.273 C 1558.98 924.379 1552.74 936.443 1544.98 942.506 C 1533.13 951.759 1520.55 959.383 1508.62 968.496 C 1539.74 954.998 1546.42 946.405 1571.22 926.682 C 1576.99 922.827 1585.17 917.918 1592.42 919.068 L 1592.94 920.753 C 1590.27 928.155 1563.52 954.328 1556.25 963.184 C 1576.66 948.929 1591.31 935.66 1613.37 921.406 C 1602.27 935.008 1591.68 950.413 1580.39 963.477 C 1567.14 978.804 1548.3 995.506 1532.56 1008.33 C 1549.91 1000.06 1566.9 987.507 1581.57 975.252 C 1594.91 964.111 1625.76 914.61 1638.21 912.703 L 1638.61 913.69 C 1636.36 917.873 1619.02 938.425 1614.18 944.617 C 1582.63 984.948 1561.07 1025.67 1509.43 1042.66 C 1502.64 1044.89 1481.34 1050.84 1475.28 1047.85 C 1474.98 1046.31 1474.67 1044.91 1475.85 1043.59 C 1485.6 1032.61 1488.66 1025.52 1493.72 1011.85 C 1505.19 1003.34 1516.37 997.697 1528.63 990.608 C 1541.35 983.193 1553.92 975.536 1566.34 967.641 C 1551.8 971.792 1513.98 988.375 1498.25 995.013 C 1472.25 924.623 1461.41 858.826 1464.27 783.652 C 1465.11 761.673 1465.51 743.34 1469.38 721.341 z" fill="rgb(255,255,255)" transform="translate(0,0)"></path>
<path d="M 1595.78 755.952 C 1596.81 758.106 1594.44 760.353 1592.81 762.254 C 1565.24 794.433 1570.77 832.441 1578.53 870.845 C 1579.61 876.219 1581.72 885.484 1581.84 891.257 L 1580.66 890.59 C 1573.45 873.206 1565.4 845.387 1564.91 826.931 C 1564.07 795.016 1575.36 778.01 1595.78 755.952 z" fill="url(#Gradient2)" transform="translate(0,0)"></path>
<path d="M 1605.45 791.869 C 1606.12 792.352 1605.76 791.99 1606.2 793.2 C 1597.63 804.65 1592 812.085 1584.47 824.286 L 1583.3 822.886 C 1581.1 810.47 1596.18 798.21 1605.45 791.869 z" fill="rgb(13,19,64)" transform="translate(0,0)"></path>
<path d="M 1547.96 1142.06 C 1556.21 1143.96 1565 1146.71 1575.33 1148.32 C 1588.43 1150.37 1661.16 1137.7 1669.27 1149.77 C 1676.25 1160.16 1678.99 1200.39 1675.86 1212.27 C 1656.84 1284.62 1607.01 1346.84 1562.38 1405.28 C 1535.45 1440.7 1518.29 1464.84 1483.2 1490.21 C 1522.52 1475.7 1556.87 1430.84 1587.49 1400.93 L 1550.8 1468.21 C 1540.99 1486.33 1530.75 1509.74 1517.09 1524.46 C 1489.27 1554.44 1431.7 1557.13 1392.89 1557.22 C 1415.51 1564.34 1443.86 1564.51 1467.02 1560.16 C 1454.89 1565.14 1443.18 1570.67 1430.7 1574.9 C 1415.3 1580.11 1399.65 1583.13 1383.76 1586.31 C 1356.2 1591.52 1336.42 1591.97 1308.69 1593.55 C 1336.6 1601.31 1357.16 1600.13 1385.41 1597.8 C 1368.36 1607.83 1313.66 1629.35 1294.93 1633.09 C 1277.87 1625.52 1271.53 1614.24 1265.17 1597.82 C 1322.35 1556.82 1366.42 1522.78 1438.31 1512.24 L 1442.83 1504.03 C 1448.55 1505.27 1456.89 1507.49 1462.4 1506.16 L 1462.54 1504.87 C 1458.87 1500.87 1452.98 1498.21 1448.07 1495.52 C 1467.05 1463.5 1472.55 1442.63 1482.51 1406.86 C 1491.28 1376 1499.32 1344.93 1506.62 1313.68 C 1510.45 1297.23 1514.66 1274.42 1519.77 1259.02 C 1528.52 1260.07 1534.06 1259.23 1542.72 1258.23 C 1532.69 1255.68 1528.32 1255.3 1520.11 1248.85 C 1527.87 1220.45 1530.23 1211.41 1530.51 1182.37 C 1558.63 1180.54 1608.58 1171.75 1630.73 1155.53 C 1599.21 1167.85 1566.95 1171.91 1533.36 1172.23 C 1539.41 1161.16 1542.99 1153.5 1547.96 1142.06 z" fill="rgb(255,255,255)" transform="translate(0,0)"></path>
<path d="M 1701.27 1151.72 C 1704.92 1154.99 1719.56 1176 1722.98 1180.97 C 1741.62 1207.69 1759.07 1235.22 1775.27 1263.48 C 1788.88 1287.65 1801.45 1314.5 1814.86 1339.02 C 1820.68 1352.46 1835.9 1371.48 1838.61 1385.49 C 1848.88 1438.51 1855.05 1497.91 1858.73 1551.73 C 1831.98 1528.67 1826.56 1516.19 1805.75 1489.74 C 1791.58 1471.72 1749.68 1438.77 1729.09 1426.79 C 1749.63 1448.06 1774.23 1467.88 1794.75 1489.42 C 1809.6 1505.01 1820.2 1523.95 1834.25 1540.37 C 1843.5 1551.75 1855.64 1560.18 1866.15 1570.28 C 1877.06 1580.77 1868.15 1590.94 1859.78 1598.56 C 1844.93 1601.46 1831.33 1599.15 1816.8 1600.37 C 1807.59 1601.14 1792.26 1605.3 1782.81 1607.48 C 1780.06 1606.72 1772.93 1604.41 1770.92 1602.59 C 1762.19 1594.63 1768.23 1575.78 1764.25 1563.9 C 1760.25 1552 1755.68 1543.58 1749.98 1532.98 C 1740.16 1514.74 1737.08 1499.99 1734.78 1479.81 C 1751.21 1491.14 1765.54 1504.88 1782.18 1516.28 C 1772.06 1504.09 1761.98 1489.11 1753.21 1475.95 C 1729.09 1439.62 1700.2 1408.22 1672.09 1375.08 C 1665.2 1366.96 1658.33 1359.22 1652.07 1350.57 C 1678.58 1369.99 1714.35 1403.58 1742.06 1418.72 C 1732.03 1408.93 1722.39 1396.8 1712.68 1386.32 C 1699.8 1372.41 1686.57 1359.83 1673.3 1346.39 C 1715.98 1367.52 1759.42 1387.08 1803.53 1405.04 C 1774.73 1384.61 1743.54 1366.29 1712.89 1348.78 C 1694.29 1338.16 1672.05 1326.68 1654.41 1315.17 C 1689.85 1313.62 1752.35 1326.04 1789.16 1330.53 C 1765.42 1321.48 1735.75 1312.84 1711.16 1306.52 C 1693.29 1301.94 1675.99 1298.76 1657.82 1293.66 C 1674.71 1276.07 1700.84 1272.46 1722.67 1264.69 C 1701.26 1266.41 1688.24 1268.14 1667.13 1272.13 C 1687.1 1220.27 1701.12 1210.47 1701.27 1151.72 z" fill="rgb(255,255,255)" transform="translate(0,0)"></path>
<path d="M 1776.85 1553.85 C 1794.59 1561.59 1812.44 1579.29 1832.55 1585 C 1837.03 1586.28 1853.15 1587.88 1854.76 1589.37 C 1816.57 1598.06 1800.04 1579.18 1776.85 1553.85 z" fill="url(#Gradient1)" transform="translate(0,0)"></path>
<path d="M 1481.59 1117.66 C 1484.72 1118.12 1501.96 1126.42 1507.16 1128.2 C 1516.72 1131.47 1526.26 1134.46 1535.97 1137.45 C 1532.87 1145.81 1529.73 1155.06 1525.57 1162.93 C 1523.61 1166.62 1515.95 1170.12 1515.78 1172.77 C 1515.34 1179.74 1517.82 1185.73 1517.67 1193.73 C 1517.33 1211.77 1513.03 1226.92 1508.27 1244.09 C 1500.51 1239.69 1497.03 1236.32 1490.46 1230.39 L 1492.32 1233.68 C 1497.6 1243.18 1501.4 1246.38 1509.61 1253.34 C 1505.62 1261.73 1501.74 1263.87 1498.05 1271.07 C 1498.83 1272.14 1501.61 1275.66 1501.35 1276.95 C 1489.77 1335.52 1473.28 1396.33 1455.31 1453.24 C 1451.53 1465.21 1443.44 1479.08 1437.84 1486.13 C 1432.11 1482.65 1423.06 1471.49 1419.23 1465.73 C 1416.21 1431.22 1420.29 1428.03 1431.56 1395.07 C 1435.1 1419.66 1437.15 1436.88 1450.18 1458.73 C 1450.38 1452.65 1447.32 1440.04 1446.05 1433.29 C 1444.21 1423.92 1443.17 1414.4 1442.95 1404.85 C 1442.12 1370.55 1449.34 1329.94 1451.46 1295.53 C 1452.2 1280.84 1449.63 1265.57 1449.28 1251.05 C 1448.34 1211.05 1444.91 1143.47 1481.59 1117.66 z" fill="rgb(255,255,255)" transform="translate(0,0)"></path>
<path d="M 1659.75 915.477 L 1673 917.802 C 1674.38 988.616 1651.93 1028.96 1627.15 1093 C 1646.46 1067.54 1660.03 1041.37 1671.92 1011.9 C 1674.03 1024.08 1677.43 1036.95 1685.56 1046.6 C 1692.46 1054.85 1700.8 1062.38 1694.78 1073.86 C 1687.78 1087.19 1676.87 1094.25 1663.23 1099.2 C 1589.42 1123.77 1579.79 1095.74 1511.45 1088.51 C 1528.45 1079.86 1546.03 1072.73 1561.25 1060.92 C 1596.7 1033.42 1640.1 957.466 1659.75 915.477 z" fill="rgb(255,255,255)" transform="translate(0,0)"></path>
<path d="M 1653.58 951.785 C 1655.76 970.206 1606.45 1048.66 1594.58 1065 C 1594.41 1060.11 1647.33 962.195 1653.58 951.785 z" fill="rgb(13,19,64)" transform="translate(0,0)"></path>
<path d="M 1512.75 635.673 C 1500.94 643.043 1481.39 630.569 1478.37 618.36 C 1470.66 587.096 1491.76 594.535 1509.98 603.612 C 1511.59 604.413 1520.27 600.23 1523.17 602.813 C 1566.08 621.962 1592 626.692 1636.69 613.334 C 1641.59 622.484 1646.14 637.65 1636.9 645.423 C 1625.48 652.385 1616.23 656.531 1603.8 661.56 C 1628.23 659.262 1621.72 658.205 1640.03 646.905 L 1629.38 681.755 C 1603.41 696.266 1556.48 683.419 1533.52 666.729 C 1519.69 656.675 1518.63 651.277 1512.75 635.673 z" fill="rgb(255,255,255)" transform="translate(0,0)"></path>
<path d="M 1482.82 607.729 C 1486.27 603.619 1484.47 604.741 1489.48 603 C 1497.46 604.678 1502.57 616.964 1499.49 623.158 L 1498.13 623.491 C 1492.66 619.179 1491.91 615.097 1486.32 610.517 L 1484.78 610.4 L 1482.82 607.729 z" fill="rgb(13,19,64)" transform="translate(0,0)"></path>
<path d="M 1609.77 636.043 C 1614.77 635.482 1619.07 635.408 1623.05 638.791 L 1622.84 640.561 C 1619.54 642.818 1615.87 642.114 1611.75 641.957 C 1606.2 641.738 1601.53 642.67 1596.05 643.485 C 1600.52 640.97 1605.24 638.492 1609.77 636.043 z" fill="rgb(13,19,64)" transform="translate(0,0)"></path>
<path d="M 1482.82 607.729 L 1484.78 610.4 L 1486.32 610.517 C 1486.11 614.536 1490.02 620.676 1488.1 623.725 C 1483.31 616.669 1483 616.26 1482.82 607.729 z" fill="rgb(26,33,68)" transform="translate(0,0)"></path>
<path d="M 1839.07 740.161 C 1848.89 738.191 1857.94 755.525 1883.35 744.35 C 1887.7 748.898 1904.92 766.505 1902.76 774.284 C 1902.26 776.077 1897.76 779.312 1895.69 780.035 C 1864.14 791.014 1827.87 789.187 1794.85 789.669 C 1786.89 789.72 1753.94 782.396 1747.75 780.337 C 1731.64 774.198 1722.4 760.528 1706.68 771.941 C 1696.68 768.036 1690.31 764.677 1680.97 759.419 C 1683.11 754.934 1686.61 749.358 1689.19 744.972 C 1699.21 744.858 1710.96 744.179 1720.68 745.777 C 1733.91 747.954 1747.31 752.826 1760.74 753.972 C 1786.08 756.135 1814.43 746.845 1839.07 740.161 z" fill="rgb(255,255,255)" transform="translate(0,0)"></path>
<path d="M 1409.05 1456.57 C 1416.37 1464.65 1420.06 1490.84 1421.96 1501.89 C 1360.13 1514.33 1313.66 1547.27 1263.71 1583.13 L 1262.71 1583.71 L 1261.01 1583.25 C 1258.57 1577 1259.14 1567.76 1259.3 1560.97 C 1270.24 1547.44 1279.06 1546.59 1291.96 1535.98 C 1297.41 1531.49 1303.14 1521.73 1308.37 1515.94 C 1314.17 1509.51 1320.68 1503.76 1327.78 1498.81 C 1340.92 1489.67 1384.41 1467.03 1399.87 1466.24 C 1403.95 1469.44 1399.95 1468.11 1403.1 1472.68 C 1405.64 1467.88 1405.95 1462.35 1409.05 1456.57 z" fill="rgb(255,255,255)" transform="translate(0,0)"></path>
<path d="M 1152.93 1613.61 L 1155.05 1613.98 C 1155.4 1614.35 1155.75 1614.73 1156.1 1615.1 C 1153.81 1622.12 1151.07 1632.24 1150.69 1639.26 C 1150.13 1649.58 1155.14 1654.98 1157.33 1665.18 C 1160.2 1678.54 1160.88 1689.15 1160.28 1702.71 C 1159.86 1712.08 1158.74 1721.41 1156.93 1730.62 C 1155.27 1739.21 1146.49 1767.4 1147.62 1772.18 C 1148.73 1772.66 1166.67 1771.21 1170.92 1771.13 C 1187.02 1770.84 1230.01 1773.04 1229.45 1796.87 C 1225.03 1800.08 1204.93 1799.17 1198.5 1799.21 C 1154.82 1800.46 1121.41 1800.85 1141.5 1744.39 C 1146.72 1729.73 1150.83 1687.56 1144.37 1673.39 C 1146.07 1668.04 1147 1666.29 1146.61 1660.64 L 1145.49 1660.27 C 1144.59 1663.1 1144.25 1664.17 1142.96 1666.93 L 1141.79 1667.33 C 1140.9 1665.65 1139.17 1657.81 1138.6 1655.48 C 1142.84 1653.54 1148.3 1652.81 1148.45 1647.53 C 1145.16 1646.06 1143.47 1646.6 1139.6 1646.64 C 1135.48 1636.9 1145.27 1619.83 1152.93 1613.61 z" fill="rgb(255,255,255)" transform="translate(0,0)"></path>
<path d="M 1625.56 949.971 C 1625.91 954.267 1580.03 1021.91 1573.74 1030.42 C 1568.99 1036.77 1563.87 1042.84 1558.4 1048.59 C 1544.25 1063.52 1501.95 1088.01 1483.86 1070.53 C 1480.4 1065.82 1478.81 1062.41 1476.21 1057.26 C 1547.88 1056.5 1579.52 996.369 1625.56 949.971 z" fill="rgb(255,255,255)" transform="translate(0,0)"></path>
<path d="M 1944.86 746.492 C 1951.34 743.361 1965.38 736.204 1971.89 737.762 C 1977.21 743.218 1970.16 749.387 1972.15 755.386 L 1973.22 755.21 L 1974.84 751.397 C 1985.2 747.301 1987.21 758.408 1988.53 765.581 L 1988.93 758.547 L 1990.37 758.472 C 1992.31 760.673 1993.05 761.128 1993.93 763.917 C 1992.12 767.911 1986.17 775.549 1982.17 777.224 L 1981.48 778.074 C 1981.42 779.041 1981.35 780.008 1981.28 780.975 C 1971.18 791.132 1965.42 810.375 1952.57 816.035 C 1954.08 813.258 1960.4 808.094 1963.14 805.524 C 1962.51 795.925 1962.01 790.403 1960.09 781.002 C 1959.31 789.92 1960.11 797.98 1954.57 804.751 C 1952.59 805.424 1950.72 806.212 1948.85 804.605 C 1939.31 796.373 1935.56 790.446 1924.35 783.961 L 1923.65 783.801 C 1923.67 779.878 1925.54 770.322 1926.27 766.072 C 1929.93 762.861 1932.84 760.746 1935.41 756.61 L 1937.13 758.023 C 1939.73 754.197 1942.31 750.353 1944.86 746.492 z" fill="rgb(255,255,255)" transform="translate(0,0)"></path>
<path d="M 1935.41 756.61 L 1937.13 758.023 L 1929.42 766.741 C 1932.57 765.127 1936.56 762.909 1939.82 761.748 C 1956.98 765.832 1962.99 768.992 1974.1 782.712 C 1964.93 776.938 1947.46 766.234 1936.07 767.59 C 1927.54 768.605 1926.15 776.911 1924.35 783.961 L 1923.65 783.801 C 1923.67 779.878 1925.54 770.322 1926.27 766.072 C 1929.93 762.861 1932.84 760.746 1935.41 756.61 z" fill="rgb(13,19,64)" transform="translate(0,0)"></path>
<path d="M 1981.48 778.074 C 1974.33 772.431 1970.78 768.639 1967.13 760.24 C 1968.95 761.321 1980 774.742 1982.17 777.224 L 1981.48 778.074 z" fill="rgb(26,33,68)" transform="translate(0,0)"></path>
<path d="M 1208.98 1604.16 L 1210.45 1604.27 C 1211.89 1608.83 1201.09 1626.54 1198.06 1631.67 C 1190.17 1645.03 1187.91 1653.12 1185.1 1668.42 C 1196.7 1687.01 1201.07 1690.92 1191.88 1711.68 C 1188.82 1707.1 1187.16 1702.68 1184.97 1697.64 C 1174.07 1673.63 1141.52 1641.62 1167.29 1614.96 C 1179.89 1611.08 1195.78 1607.69 1208.98 1604.16 z" fill="rgb(255,255,255)" transform="translate(0,0)"></path>
<path d="M 1652.12 629.032 C 1688.72 649.519 1697.77 679.279 1667.56 710.929 L 1658.69 719.817 C 1656.1 707.051 1647.92 687.054 1639.97 677.104 C 1648.26 659.359 1649.18 648.304 1652.12 629.032 z" fill="rgb(255,255,255)" transform="translate(0,0)"></path>
<path d="M 1201.43 1669.69 C 1210.86 1671.81 1235.54 1679.55 1244.85 1682.91 C 1236.55 1723.45 1236.7 1709.36 1209.41 1739.48 C 1210.93 1742.73 1210.99 1741.63 1210.84 1744.78 C 1208.43 1745.32 1207.03 1745.88 1204.71 1746.72 L 1204.43 1747.92 L 1208.31 1750.53 L 1208.15 1751.6 L 1203.54 1753.32 C 1202.93 1757.09 1205.37 1753.35 1205.02 1759.8 C 1202.52 1761.49 1197.81 1760.62 1194.48 1760.4 C 1192.18 1757.17 1190.11 1755.48 1189.82 1751.42 C 1191.33 1750.36 1192.91 1749.65 1194.62 1748.95 L 1195.33 1747.05 C 1193.89 1745.34 1193.05 1744.28 1191.78 1742.45 L 1192.23 1740.58 C 1194.41 1739.19 1196.16 1738.2 1198.41 1736.95 L 1198.51 1735.26 C 1195.99 1733.25 1194.97 1732.37 1192.72 1730.09 L 1192.94 1728.62 C 1196.79 1726.87 1199.75 1725.88 1203.78 1724.52 C 1200.56 1721.98 1199.31 1721.18 1196.8 1718.03 C 1212.18 1701.86 1207.92 1688.4 1201.43 1669.69 z" fill="rgb(255,255,255)" transform="translate(0,0)"></path>
<path d="M 1809.92 1736.28 C 1812.58 1738.05 1817.48 1742.41 1820.51 1744.66 C 1829.28 1751.12 1838.6 1756.78 1848.36 1761.59 C 1858.14 1766.42 1868.06 1770.96 1878.1 1775.22 C 1884.35 1777.84 1906.27 1786.05 1910.17 1789.17 C 1908.16 1790.41 1906.27 1789.56 1903.25 1789.2 C 1888.29 1787.87 1872.6 1785.86 1857.68 1785.23 C 1833.85 1784.24 1821.23 1787.99 1799.18 1776.26 L 1809.92 1736.28 z" fill="rgb(255,255,255)" transform="translate(0,0)"></path>
<path d="M 1862.84 1706.17 C 1854.8 1693.51 1886.64 1684.29 1895.1 1682.38 C 1908.85 1709.74 1919.39 1728.9 1945.56 1746.68 L 1931.18 1749.57 C 1917.34 1744.63 1880.95 1720.82 1869.46 1723.05 L 1868.19 1722.07 L 1868.78 1720.73 C 1871.43 1720.19 1872.93 1719.86 1875.65 1719.62 C 1871.62 1715.57 1873.82 1723.33 1869.99 1715.99 C 1868.1 1712.74 1865.27 1711.44 1862.05 1709.36 L 1862.84 1706.17 z" fill="rgb(255,255,255)" transform="translate(0,0)"></path>
<path d="M 1862.84 1706.17 C 1866.14 1708.23 1870.4 1710.34 1872.32 1713.54 L 1871.87 1715.19 L 1869.99 1715.99 C 1868.1 1712.74 1865.27 1711.44 1862.05 1709.36 L 1862.84 1706.17 z" fill="rgb(26,33,68)" transform="translate(0,0)"></path>
<path d="M 1928.56 1761.02 C 1945.84 1762.67 1954.67 1770.3 1974.34 1765 C 1982.05 1762.92 2007.32 1768.36 2007.42 1780.71 C 2003.6 1784.94 1988.58 1785.79 1981.5 1787.1 C 1945.76 1796.62 1938.83 1797.58 1904.48 1778.84 C 1914.25 1772.36 1918.84 1763.67 1928.56 1761.02 z" fill="rgb(255,255,255)" transform="translate(0,0)"></path>
<path d="M 1473.57 691.975 C 1502.98 696.293 1535.83 692.88 1562.57 706.695 C 1568.1 709.552 1571.72 710.322 1576.95 714.295 C 1574.68 715.454 1573.63 714.701 1570.5 714.253 C 1544.85 710.912 1511.82 719.189 1484.96 720.268 C 1478.37 716.225 1476.55 714.623 1470.8 709.419 L 1473.57 691.975 z" fill="rgb(255,255,255)" transform="translate(0,0)"></path>
<path d="M 1681.02 640.905 C 1714.97 646.887 1718.39 676.585 1703.67 703.691 C 1695.03 719.599 1683.67 735.369 1673.64 750.561 C 1671.26 752.86 1672.63 752.322 1669.48 752.417 C 1663.82 750.113 1662.21 745.454 1659.7 740.089 C 1673.07 726.717 1692.46 699.903 1694.53 680.443 C 1696.39 662.939 1690.58 653.882 1681.02 640.905 z" fill="rgb(255,255,255)" transform="translate(0,0)"></path>
<path d="M 1771.04 797.153 C 1777.34 799.047 1784.4 799.788 1783.94 808.299 C 1781.9 846.435 1773.91 895.015 1748.32 924.502 C 1744.65 925.536 1740.55 923.045 1736.96 921.424 C 1759.68 879.874 1771.45 845.495 1771.04 797.153 z" fill="rgb(255,255,255)" transform="translate(0,0)"></path>
<path d="M 1895.88 666.061 C 1899.01 665.638 1901.29 665.375 1903.66 667.443 C 1903.46 669.461 1890.92 688.623 1888.69 690.311 C 1881.7 692.423 1878.61 687.677 1871.72 685.139 L 1870.26 685.882 C 1871.66 688.13 1875.91 689.864 1878.64 691.351 C 1874.22 691.996 1863.52 687.406 1856.05 689.928 C 1854.97 692.61 1855.25 691.154 1856.53 694.761 C 1862.03 700.391 1867.03 697.07 1873.4 699.54 C 1870.27 704.557 1876.65 708.639 1876.54 714.814 C 1876.62 715.198 1876.71 715.582 1876.79 715.966 C 1877.91 722.832 1880.28 736.136 1870.86 738.092 C 1859.19 740.516 1849.05 731.362 1845.73 720.698 C 1841.97 708.598 1844.71 701.069 1850.32 690.536 C 1858.81 686.86 1864.6 683.898 1873.84 682.996 C 1882.08 673.624 1883.98 669.432 1895.88 666.061 z" fill="rgb(255,255,255)" transform="translate(0,0)"></path>
<path d="M 1868.54 725.959 L 1869.27 727.117 C 1866.97 729.534 1864.64 731.922 1862.28 734.28 L 1861.04 732.437 C 1862.35 729.762 1865.93 727.767 1868.54 725.959 z" fill="rgb(194,194,195)" transform="translate(0,0)"></path>
<path d="M 1643.42 547.023 C 1648.33 546.385 1655.24 550.553 1659.82 552.812 C 1622.65 562.638 1591.03 592.244 1552.91 593.204 C 1546.78 593.192 1542.09 593.505 1536.18 591.633 C 1538.19 590.255 1546.75 589.182 1551.89 586.842 C 1583.08 572.619 1610.53 557.467 1643.42 547.023 z" fill="rgb(255,255,255)" transform="translate(0,0)"></path>
<path d="M 1904.68 671.296 C 1924.81 674.38 1917.52 685.438 1912.69 699.051 C 1915.79 693.626 1919.17 688.367 1922.49 683.078 C 1927.14 686.145 1929.99 687.632 1931.52 693.604 C 1933.48 701.195 1928.53 719.74 1919.63 720.881 L 1917.01 718.493 C 1913.92 718.68 1914.4 719.312 1911.52 722.368 C 1907.4 723.368 1904.86 723.105 1901.59 720.277 C 1902.52 717.542 1906.19 716.006 1909.33 713.497 C 1910.44 706.342 1911 704.597 1913.51 697.83 C 1907.9 704.272 1896.93 716.565 1887.44 710.151 C 1884.58 703.182 1888.92 700.701 1894.36 697.574 C 1898.63 688.203 1898.5 680.77 1904.68 671.296 z" fill="rgb(255,255,255)" transform="translate(0,0)"></path>
<path d="M 1550.89 460.416 C 1576.4 458.974 1597.4 463.855 1618.68 477.9 C 1591.79 472.071 1568.72 471.43 1541.28 473.888 C 1520.89 474.955 1502.49 481.318 1483.69 488.631 C 1506.71 469.203 1520.01 463.064 1550.89 460.416 z" fill="rgb(255,255,255)" transform="translate(0,0)"></path>
<path d="M 1914.06 778.242 L 1914.34 777.243 L 1914.79 775.572 C 1918.88 760.81 1917.44 745.598 1924.32 731.986 C 1929.29 722.161 1953.56 722.679 1960.55 728.237 C 1962.9 733.511 1960.97 732.892 1956.67 735.35 C 1945.68 741.636 1940.48 742.759 1935.88 755.303 L 1935.41 756.61 C 1932.84 760.746 1929.93 762.861 1926.27 766.072 C 1925.54 770.322 1923.67 779.878 1923.65 783.801 C 1920.72 781.839 1917.18 779.98 1914.06 778.242 z" fill="rgb(255,255,255)" transform="translate(0,0)"></path>
<path d="M 1684.03 999.72 C 1708.74 1023.62 1723.14 1051.27 1703.92 1084.1 L 1702.62 1084.49 C 1701.52 1080.1 1709.48 1068.23 1705.2 1056.94 C 1698.7 1039.79 1682.88 1033.88 1681.01 1013.46 C 1680.45 1007.22 1680.23 1004.33 1684.03 999.72 z" fill="rgb(255,255,255)" transform="translate(0,0)"></path>
<path d="M 1633.58 688.551 L 1635.18 689.401 C 1643.85 703.624 1644.93 718.363 1644.48 734.484 C 1635.17 726.793 1616.54 717.965 1605.25 712.362 C 1597.56 708.795 1591.43 706.619 1583.39 703.792 C 1596.35 704.933 1603.69 704.962 1616.72 704.541 C 1619.3 706.945 1619.37 709.337 1620.53 713.106 C 1623.7 715.217 1622.97 715.429 1626.2 715.538 L 1626.96 713.689 C 1624.93 702.551 1625.87 696.985 1633.58 688.551 z" fill="rgb(255,255,255)" transform="translate(0,0)"></path>
<path d="M 1549.84 1106.64 C 1565.31 1111.98 1570.54 1114.52 1586.82 1115.06 C 1584.26 1122.34 1583.98 1130.51 1579.98 1136.27 C 1576.96 1137.8 1578.49 1137.66 1575.23 1136.68 C 1574.08 1133.56 1575.27 1129.66 1575.91 1126.22 C 1576.24 1123.23 1576.6 1122.85 1575.57 1120.12 C 1573.18 1123.43 1571.09 1131.07 1569.72 1135.26 C 1558.1 1133.95 1553.7 1132.03 1542.89 1127.51 C 1545.27 1121.29 1547.71 1113.1 1549.84 1106.64 z" fill="rgb(255,255,255)" transform="translate(0,0)"></path>
<path d="M 1247.12 1578.86 C 1248.86 1580.71 1251.19 1597.15 1251.85 1601.07 C 1245.45 1612.04 1235.53 1621.93 1226.8 1631.25 C 1226 1632.22 1226.55 1631.72 1224.92 1632.46 C 1224.19 1628.76 1226.68 1603.56 1227.12 1597.9 C 1232.28 1592.26 1241.32 1584.29 1247.12 1578.86 z" fill="rgb(255,255,255)" transform="translate(0,0)"></path>
<path d="M 1607.23 487.733 L 1608.28 488.065 C 1615.16 499.682 1610.71 499.186 1626.95 499.102 C 1622.72 504.287 1620.31 507.258 1616.72 512.945 C 1618.48 518.703 1620.84 523.881 1623.2 529.413 L 1610.22 534.012 C 1610.07 505.161 1598.34 524.474 1594.3 514.453 C 1595.66 509.22 1596.84 508.702 1600.47 504.443 C 1597.9 501.714 1596.05 500.168 1594.59 496.693 L 1595.83 495.011 C 1600.9 493.359 1602.11 492.157 1606.02 488.78 L 1607.23 487.733 z" fill="rgb(255,255,255)" transform="translate(0,0)"></path>
<path d="M 1819.36 1622.17 C 1825.57 1625.18 1829.65 1624.8 1836.55 1624.96 C 1840.76 1633.46 1841.98 1635.56 1847.8 1643 C 1844.12 1644.28 1840.55 1645.04 1836.77 1645.94 C 1832.52 1646.66 1829.18 1647.46 1824.99 1648.49 C 1818.23 1641.55 1815.64 1640.03 1806.95 1636.61 C 1808.28 1635.8 1809.6 1634.96 1810.91 1634.12 C 1817.44 1629.91 1817.68 1630.13 1819.36 1622.17 z" fill="rgb(255,255,255)" transform="translate(0,0)"></path>
<path d="M 1862.05 1709.36 C 1865.27 1711.44 1868.1 1712.74 1869.99 1715.99 C 1866.79 1716.84 1863.88 1719.42 1861.33 1721.58 C 1848.11 1732.8 1841.95 1734.14 1825.32 1735.06 C 1820.15 1730.01 1813.17 1725.85 1811.27 1718.94 L 1812.04 1718.26 C 1833.07 1729.19 1844.08 1722.08 1862.05 1709.36 z" fill="rgb(255,255,255)" transform="translate(0,0)"></path>
<path d="M 1480.14 663.684 C 1497.92 690.521 1539.95 685.688 1547.84 693.085 L 1546.65 693.473 C 1533.73 692.141 1485.23 689.404 1477.12 685.018 C 1474.82 680.621 1478.79 668.783 1480.14 663.684 z" fill="rgb(255,255,255)" transform="translate(0,0)"></path>
<path d="M 1809.03 1667.37 C 1817.81 1670.4 1833.24 1703.64 1836.96 1712.62 C 1825.76 1714.98 1822.01 1712.48 1814.23 1704.81 C 1813.56 1691.57 1811.62 1680.24 1809.03 1667.37 z" fill="rgb(255,255,255)" transform="translate(0,0)"></path>
<path d="M 1492.23 1092.91 C 1499.64 1095.83 1510.61 1098.24 1518.41 1099.75 C 1517.84 1105.04 1517.4 1115.12 1513.9 1118.85 C 1507.4 1116.49 1498.61 1113.89 1492.66 1110.68 C 1482.75 1105.35 1487.59 1098.97 1492.23 1092.91 z" fill="rgb(255,255,255)" transform="translate(0,0)"></path>
<path d="M 1903.39 790.538 C 1911.77 788.056 1928 818.242 1925.95 824.438 C 1923.09 823.904 1923.21 822.749 1920.85 819.578 L 1915.52 827.676 C 1912.88 819.078 1909.65 811.813 1904.78 804.159 C 1902.37 800.361 1894.65 794.26 1894 791.469 L 1903.39 790.538 z" fill="rgb(255,255,255)" transform="translate(0,0)"></path>
<path d="M 1910.99 788.148 L 1912.21 787.887 L 1914.13 789.974 C 1929.82 791.436 1943.86 805.571 1938.4 821.888 C 1935.91 822.705 1935.75 823.088 1933.33 822.381 C 1930.43 818.717 1928.11 813.816 1926.11 809.539 C 1922.56 801.94 1917.22 795.314 1910.56 790.225 C 1910.29 790.037 1910.03 789.848 1909.77 789.66 L 1910.99 788.148 z" fill="rgb(255,255,255)" transform="translate(0,0)"></path>
<path d="M 1677.67 1143.17 C 1681.29 1142.91 1682.13 1142.69 1685.73 1143.63 C 1690.23 1152.87 1688.03 1187.35 1684.5 1197.35 C 1684.06 1185.89 1683.7 1179.87 1681.02 1168.51 C 1679.83 1163.46 1675.44 1148.8 1675.25 1144.66 L 1677.67 1143.17 z" fill="rgb(255,255,255)" transform="translate(0,0)"></path>
<path d="M 1682.47 1106.78 C 1685.08 1110.88 1677.41 1121.51 1678.55 1127.58 L 1680.46 1127.8 C 1684.84 1125.2 1688.92 1118.6 1692.22 1114.2 L 1693.58 1114.15 C 1694.72 1117.93 1694.4 1119.52 1694.26 1123.56 C 1685.15 1129.63 1679.38 1130.65 1669.02 1133.73 C 1672.69 1121.37 1670.25 1113.85 1682.47 1106.78 z" fill="rgb(255,255,255)" transform="translate(0,0)"></path>
<path d="M 1684.25 944.74 C 1685.3 945.79 1690.09 957.22 1691.55 960.027 C 1690.93 971.766 1690.29 972.298 1684.2 982.546 C 1682.81 984.704 1683.63 984.384 1681.92 984.822 C 1680.99 979.954 1683.73 951.529 1684.25 944.74 z" fill="rgb(255,255,255)" transform="translate(0,0)"></path>
<path d="M 1879.44 1733.82 C 1879.28 1733.78 1924.95 1759.06 1923.82 1757.95 L 1922.8 1760.28 C 1921.67 1760.93 1918.59 1762.91 1917.72 1762.47 C 1909.61 1758.34 1885.36 1738.98 1879.44 1733.82 z" fill="rgb(255,255,255)" transform="translate(0,0)"></path>
<path d="M 1696.4 979.727 C 1698.16 982.881 1703.5 1006.3 1704.45 1011.11 L 1703.25 1011.58 C 1697.39 1006.12 1695.91 1003.79 1692.62 996.467 C 1693.36 989.808 1693.26 985.651 1696.4 979.727 z" fill="rgb(255,255,255)" transform="translate(0,0)"></path>
<path d="M 1715.6 1035.28 C 1728.48 1041.47 1722.78 1053.96 1718.47 1064.27 L 1716.33 1066.49 C 1716.06 1054.98 1716.41 1047.37 1715.6 1035.28 z" fill="rgb(255,255,255)" transform="translate(0,0)"></path>
<path d="M 1643.91 1112.61 C 1656.95 1112.02 1646.49 1126.7 1643.1 1133.63 L 1639.25 1133.44 L 1638.06 1131.92 C 1638.28 1125.57 1641.58 1118.84 1643.91 1112.61 z" fill="rgb(255,255,255)" transform="translate(0,0)"></path>
<path d="M 1683.37 921.169 L 1693.06 923.468 C 1692.97 932.576 1693.34 941.164 1693.72 950.245 C 1690.99 947.938 1684.17 925.82 1683.37 921.169 z" fill="rgb(255,255,255)" transform="translate(0,0)"></path>
<path d="M 1659.83 1110.51 L 1661.54 1111.68 C 1662.97 1116.96 1655.89 1129.79 1653.34 1135.7 C 1651.38 1134.47 1652.26 1135.25 1650.76 1133.28 C 1651.51 1126.97 1652.29 1121.17 1654.45 1115.13 C 1655.7 1111.61 1656.53 1111.97 1659.83 1110.51 z" fill="rgb(255,255,255)" transform="translate(0,0)"></path>
<path d="M 1935.67 699.703 C 1945.61 707.088 1940.3 712.772 1934.16 720.53 L 1932.5 720.539 L 1931.3 719.019 C 1931.46 712.741 1933.42 705.542 1935.67 699.703 z" fill="rgb(255,255,255)" transform="translate(0,0)"></path>
<path d="M 1938.11 1752.48 C 1945.85 1751.28 1958.87 1750.67 1964.48 1756.84 C 1956.07 1758.73 1945.78 1756.15 1938.11 1752.48 z" fill="rgb(255,255,255)" transform="translate(0,0)"></path>
<path d="M 1994.97 779.744 L 1998.08 780.263 L 1998.03 781.473 C 1994.87 783.29 1991.69 785.064 1988.49 786.795 L 1987.32 787.752 L 1986.44 786.869 C 1989.29 782.932 1990.72 782.423 1994.97 779.744 z" fill="rgb(255,255,255)" transform="translate(0,0)"></path>
<path d="M 1999.78 790.812 L 2000.7 792.086 C 1999.1 795.312 1996.31 796.943 1993.4 799.204 L 1992.44 797.626 C 1994.08 794.371 1996.75 792.986 1999.78 790.812 z" fill="rgb(255,255,255)" transform="translate(0,0)"></path>
<path d="M 414.446 626.756 L 938.405 626.856 C 938.772 687.914 938.627 748.975 937.971 810.031 L 832.939 810.141 L 832.979 744.912 C 757.951 744.022 680.95 744.895 605.736 744.866 L 605.927 934.522 L 861.169 934.511 L 861.07 1054.92 L 805.486 1054.54 L 605.477 1054.55 L 605.751 1254.72 L 670.75 1254.73 L 670.726 1372.88 C 586.873 1371.98 501.102 1372.86 417.176 1373 L 417.127 1254.49 C 438.431 1254.62 459.736 1254.63 481.04 1254.5 C 480.894 1085.26 482.862 913.913 481.037 744.935 L 414.936 744.932 C 415.089 705.539 414.925 666.146 414.446 626.756 z" fill="rgb(26,33,68)" transform="translate(0,0)"></path>
<path d="M 535.832 214.951 C 546.959 214.242 559.968 214.743 571.25 214.902 C 560.794 226.202 527.989 249.52 526.735 263.481 C 523.445 300.108 539.975 341.377 542.087 377.83 C 543.612 404.154 525.592 444.994 507.746 463.682 C 520.006 415.456 519.407 397.721 504.208 350.352 C 498.445 332.39 496.502 305.639 496.843 286.591 C 480.897 303.981 456.597 329.867 443.504 348.624 C 426.866 372.459 453.754 430.018 459.968 457.492 C 467.699 491.67 457.121 529.623 438.24 558.94 C 447.472 506.674 440.808 487.492 419.35 441.384 C 413.21 428.19 409.064 402.48 409.021 387.699 C 397.171 407.397 371.042 441.257 364.176 460.623 C 386.428 529.396 436.503 565.075 400.026 644.089 C 406.632 597.128 379.292 569.527 357.055 531.923 C 350.387 520.648 345.976 506.835 342.155 494.309 C 330.002 514.633 308.657 553.541 302.868 575.637 C 306.272 590.062 314.98 599.494 323.645 611.014 C 359.376 658.525 380.106 691.034 360.545 750.804 C 359.245 738.045 358.346 729.441 354.107 717.289 C 349.041 703.219 341.749 690.054 332.509 678.297 C 313.227 653.592 294.111 640.444 289.848 608.608 C 278.234 635.277 268.077 668.333 260.575 696.43 C 276.898 719.801 302.814 737.485 319.855 762.042 C 343.039 795.453 346.206 818.27 339.979 856.757 C 334.293 838.371 334.709 833.92 324.663 816.097 C 304.892 781.023 265.116 768.945 251.535 730.846 C 243.449 757.576 238.533 783.866 234.844 811.49 C 249.329 835.754 275.371 842.01 294.593 863.314 C 323.445 895.289 331.624 926.044 330.764 967.418 C 318.244 933.358 305.598 915.4 275.623 893.703 C 255.392 879.059 239.512 873.73 228.496 850.974 C 224.155 873.791 221.267 916.223 219.834 939.522 C 241.561 962.12 263.746 962.619 285.985 981.855 C 315.557 1007.43 326.117 1039.77 329.26 1077.29 C 315.981 1053.02 304.524 1035.59 280.597 1020.01 C 254.663 1003.12 235.726 1002.2 217.489 975.428 C 216.051 1005.96 216.696 1041.93 216.913 1072.73 C 233.14 1088.05 266.88 1093.72 287.378 1109.25 C 317.131 1131.8 327.219 1161.47 332.643 1196.9 C 319.249 1174.67 307.423 1157.93 283.813 1145.28 C 260.53 1132.81 236.024 1132.91 218.906 1110.91 C 222.372 1139.11 221.701 1165.59 226.55 1195.57 C 248.513 1208.54 272.5 1207.85 294.841 1222.09 C 322.819 1239.93 339.538 1269.17 347.098 1300.77 C 325.182 1271.72 302.305 1257.08 266.467 1251.01 C 250.233 1248.27 240.76 1244.37 230.283 1231.59 C 235.444 1255.49 238.517 1295.66 246.467 1317.27 C 268.8 1329.08 291.852 1328.32 313.439 1337.79 C 348.329 1353.1 362.965 1380.78 376.416 1413.73 C 363.022 1400.33 353.103 1390.98 335.606 1382.64 C 304.526 1367.83 279.33 1375.97 252.613 1352.36 C 256.854 1372.3 268.577 1422.81 275.628 1439.17 C 298.711 1446.41 325.363 1442.43 348.992 1453.06 C 383.746 1468.68 403.43 1495.16 417.561 1529.1 C 390.59 1501.22 369.341 1490.89 330.775 1488.03 C 312.352 1486.67 301.376 1484.25 285.089 1475.97 C 292.337 1497.41 303.138 1536.87 311.056 1555.55 C 334.021 1563.03 364.415 1554.45 391.904 1566.91 C 421.687 1580.41 445.167 1605.33 457.568 1635.25 C 423.065 1606.32 408.732 1601.55 363.728 1600.72 C 350.449 1600.48 337.232 1598.19 324.915 1593.12 C 331.008 1609.73 347.779 1657.01 356.344 1669.69 C 377.912 1673.2 400.496 1666.85 423.535 1672.71 C 460.072 1682 482.177 1703.76 501.298 1734.74 C 439.278 1694.16 426.081 1721.57 368.533 1704.09 C 377.31 1727.62 387.254 1750.69 398.327 1773.23 C 414.19 1773.49 429.186 1771.27 444.796 1770.97 C 482.914 1770.23 511.656 1785.23 539.602 1809.53 C 505.141 1808.17 469.26 1811.15 434.775 1809.08 C 429.391 1808.76 418.312 1805.17 413.769 1805.84 L 414.722 1808.46 C 412.089 1810.76 368.997 1809.71 362.099 1809.67 C 380.182 1768.49 366.683 1753.68 349.832 1715.67 C 344.628 1738.76 335.713 1760.07 320.559 1778.57 C 312.39 1788.54 303.418 1797.55 296.029 1808.18 L 295.019 1809.65 C 284.676 1809.99 271.653 1809.54 261.11 1809.43 C 272.053 1769.91 290.866 1755.11 315.505 1724.75 C 346.002 1687.17 323.579 1642.64 306.189 1603.3 C 304.947 1607.21 303.184 1611.41 301.665 1615.26 C 273.907 1683.43 233.099 1681.56 228.727 1762.09 C 214.202 1742.6 213.603 1727.42 215.477 1704.27 C 219.37 1656.21 257.434 1635.17 279.39 1597.16 C 299.399 1562.51 278.027 1520.73 266.942 1485.53 C 253.172 1518.71 240.098 1536.87 215.191 1562.09 C 191.476 1586.11 183.157 1616.47 179.648 1649.4 C 149.868 1598.51 175.807 1543 215.776 1506.57 C 267.706 1459.24 250.595 1424.54 234.683 1366.62 C 228.941 1378.56 212.66 1404.17 204.047 1412.93 C 166.679 1450.92 143.829 1467.69 137.328 1525.17 C 108.411 1468.57 144.787 1413.52 188.238 1377.74 C 236.111 1338.32 222.027 1293.64 210.603 1240.63 C 191.579 1274.78 175.694 1290.77 146.086 1315.83 C 123.645 1334.82 110.962 1370.82 105.193 1399.05 C 100.782 1389.47 97.0334 1379.09 96.8453 1368.46 C 94.7053 1334.68 115.357 1287.89 143.778 1267.57 C 211.369 1219.25 204.762 1191.72 200.487 1113.29 C 188.633 1128.51 176.068 1143.93 161.245 1156.19 C 141.265 1172.7 117.299 1186.06 102 1207.6 C 91.0949 1222.97 81.5482 1245.54 73.3342 1263.06 C 67.2011 1210.94 84.4428 1163.21 129.269 1133 C 142.515 1124.07 163.887 1112.08 174.605 1100.81 C 202.203 1071.78 198.633 1023.74 197.889 986.647 C 185.546 1001.09 171.228 1013.71 155.357 1024.15 C 136.909 1036.22 116.023 1046.22 100.524 1062.27 C 81.1825 1082.3 71.4164 1107.39 55.1445 1130.67 C 55.0436 1125.29 55.213 1119.9 55.652 1114.53 C 59.2161 1069.4 82.7003 1018.11 124.178 997.805 C 165.827 977.414 191.971 967.49 200.929 917.313 C 204.604 896.734 206.898 877.058 208.292 855.61 C 171.968 892.519 133.457 896.603 95.2506 925.375 C 80.6713 936.353 61.4321 973.616 47.7294 990.227 L 46.8107 991.331 C 48.591 980.384 49.6669 971.042 52.2354 960.095 C 61.0464 921.103 86.1945 874.48 126.863 861.653 C 163.957 849.953 194.699 845.023 210.453 804.628 C 219.541 781.324 224.417 760.412 229.972 735.814 C 214.588 747.287 203.843 753.884 185.246 759.746 C 154.482 769.444 124.138 769.939 99.1187 792.869 C 81.5748 808.949 69.6707 832.314 54.4658 849.753 L 53.9117 850.377 C 61.1127 806.619 84.4895 750.463 129.395 732.426 C 150.934 723.774 180.196 728.135 203.173 718.941 C 235.178 706.135 244.169 675.42 256.143 645.976 C 261.548 632.405 266.539 619.713 272.552 606.517 C 236.691 638.194 210.513 633.377 166.37 638.215 C 125.381 642.707 100.499 673.855 77.1146 705.049 C 82.825 686.043 91.2723 667.97 102.191 651.399 C 115.227 631.501 141.337 602.193 165.357 597.475 C 193.987 591.933 236.855 604.019 261.197 582.163 C 284.242 561.471 306.307 521.87 323.414 495.095 C 245.635 532.738 214.724 463.687 136.171 546.954 C 152.325 512.11 186.067 467.499 228.273 464.199 C 252.618 462.967 280.203 472.4 304.337 468.549 C 341.655 462.593 368.574 416.067 389.504 387.107 C 351.283 400.931 330.313 389.329 292.522 382.884 C 254.523 376.405 229.52 391.19 200.046 412.368 C 220.65 380.399 262.299 336.446 305.006 342.751 C 330.689 346.831 378.396 370.098 401.834 352.966 C 425.21 335.879 453.218 305.234 474.747 284.49 C 437.999 291.77 410.111 275.256 375.218 265.535 C 335.557 254.484 314.462 262.869 280.066 281.709 C 286.356 274.148 293.142 267.014 300.381 260.355 C 322.411 239.907 347.036 226.961 377.102 224.459 C 381.571 224.088 390.286 222.621 394.143 223.724 C 418.964 230.819 448.194 250 474.074 251.247 C 498.102 252.404 519.811 230.524 535.832 214.951 z" fill="rgb(198,10,46)" transform="translate(0,0)"></path>
<path d="M 1366.27 625.954 L 1452.37 625.834 C 1453.71 631.838 1455.27 638.137 1458.6 643.306 C 1445.55 677.914 1440.76 713.964 1439.04 750.751 C 1435.93 820.168 1436.13 874.63 1455.32 941.942 C 1448.04 961.938 1441.79 984.978 1435.42 1005.57 L 1401.22 1113.08 L 1343.06 1292.23 C 1334.3 1319.13 1324.48 1345.91 1316.34 1372.95 L 1200.68 1372.75 L 1062.68 967.012 L 1015.92 832.109 C 1006.16 803.856 996.538 774.883 985.646 747.052 C 983.294 741.041 981.962 739.451 977.124 735.048 C 977.452 722.421 977.204 630.141 978.994 626.879 L 983.425 626.499 L 1161.02 626.54 L 1160.97 743.447 L 1114.13 743.299 C 1144.37 828.922 1173.72 914.856 1202.18 1001.09 C 1221.26 1057.94 1241.35 1112.86 1259.16 1170.5 C 1262.83 1162.52 1272.8 1130.03 1276.27 1119.6 L 1307.11 1029.04 C 1339.74 934.481 1371.01 839.463 1400.92 744.01 L 1366.74 744.086 L 1366.27 625.954 z" fill="rgb(26,33,68)" transform="translate(0,0)"></path>
<path d="M 588.021 214.86 C 599.225 214.452 610.718 214.823 621.949 215.023 C 624.749 280.709 643.516 291.636 605.348 353.562 C 600.346 360.643 597.175 365.128 591.38 371.469 C 613.893 310.211 588.849 276.979 588.021 214.86 z" fill="rgb(198,10,46)" transform="translate(0,0)"></path>
<path d="M 694.984 214.655 L 727.579 214.804 C 724.271 242.761 710.49 263.379 692.297 284.024 C 686.59 290.027 679.792 295.866 673.585 301.43 C 694.08 263.027 696.666 257.603 694.984 214.655 z" fill="rgb(198,10,46)" transform="translate(0,0)"></path>
<path d="M 774.834 215.027 C 777.401 214.948 778.623 215.06 781.194 215.304 L 781.834 216.615 C 780.23 220.407 772.885 225.864 769.316 228.865 C 767.705 230.148 766.417 231.057 764.739 232.255 L 763.787 231.641 C 766.053 226.552 771.372 219.785 774.834 215.027 z" fill="rgb(198,10,46)" transform="translate(0,0)"></path>
<metadata><recraft-signature>{"signed_by": "recraft", "signature_b64": "DeNHP4zdt3itM6FQ5JurI5m7B6MR4aGyaPX8V1YtcoMepXPjeAL6Y76DUXfhWN8xa7qmiaWDvhe940gch8bkCQ==", "signing_algo": "Ed25519", "generation_timestamp": 1777330453, "identifier": "86ff82f1-eab3-4fdf-8d27-07f091470398"}</recraft-signature></metadata></svg>