<svg xmlns="http://www.w3.org/2000/svg" height="1024" preserveAspectRatio="none" style="display: block;" version="1.1" viewBox="0 0 2048 2048" width="1024">
<path d="M 0 0 L 1104.21 0 L 1165.89 0 L 2048 0 L 2048 2048 L 0 2048 L 0 0 z" fill="rgb(255,255,255)" transform="translate(0,0)"></path>
<path d="M 1104.21 0 L 1165.89 0 C 1175.65 1.81567 1196.62 2.92397 1207.44 4.13676 C 1230.08 6.88559 1252.6 10.5113 1274.95 15.0058 C 1396.01 39.095 1515.11 94.0754 1600.31 185.05 C 1627.28 213.85 1648.1 242.729 1669.99 275.423 C 1632.56 313.94 1589.34 353.68 1550.36 391.383 L 1277.16 655.293 C 1233.22 697.843 1188.21 739.376 1145.34 783.011 C 1167.88 783.297 1190.99 783.002 1213.58 782.938 L 1744.2 269.491 L 1758.69 284.872 C 1706.14 332.062 1655.17 387.458 1603.31 434.503 L 1843.96 668.886 L 1936.18 757.812 C 1960.49 781.466 1982.22 803.921 2007.44 827.219 L 41.8881 826.158 C 85.2106 786.146 131.461 739.457 174.16 697.796 L 217.195 655.51 C 223.846 648.952 239.473 634.881 243.82 627.566 C 258.638 602.629 271.705 574.243 286.326 549.208 C 318.566 493.995 354.679 441.136 394.395 391.03 C 521.055 229.958 717.706 87.1201 916.36 31.996 C 959.057 20.1747 1002.53 11.3535 1046.46 5.59697 C 1065.68 3.15693 1085.12 2.29846 1104.21 0 z" fill="rgb(176,16,41)" transform="translate(0,0)"></path>
<path d="M 1569.88 466.693 C 1575.81 470.603 1599.71 494.307 1606.05 500.425 C 1634.91 528.186 1663.6 556.124 1692.11 584.238 L 1811.9 701.022 C 1838.75 726.857 1869.23 754.534 1894.34 781.96 C 1860.16 783.424 1825.05 782.246 1790.63 782.365 L 1571.5 782.764 C 1463.74 783.15 1352.73 783.886 1245.02 782.535 C 1277.4 748.775 1317.6 711.773 1351.68 679.27 L 1493.45 541.878 C 1516.77 519.089 1548.91 489.864 1569.88 466.693 z" fill="rgb(255,255,255)" transform="translate(0,0)"></path>
<path d="M 1088.41 207.5 C 1131.37 203.613 1179.79 208.947 1222 217.447 C 1315.57 236.292 1394.8 273.441 1469.34 333.03 C 1455.6 346.406 1441.72 359.649 1427.73 372.756 C 1414.26 362.907 1399.65 352.077 1385.48 343.493 C 1296.81 289.759 1186.75 256.421 1082.41 265.602 C 902.884 281.398 737.353 394.108 622.776 527.034 C 606.59 547.849 585.837 569.133 570.286 590.875 C 529.645 647.697 481.434 722.036 452.165 785.303 C 432.789 785.342 412.395 784.304 392.8 784.01 C 438.038 678.492 499.483 580.69 574.912 494.14 C 704.554 342.668 885.715 223.306 1088.41 207.5 z" fill="rgb(255,255,255)" transform="translate(0,0)"></path>
<path d="M 1108.5 101.426 C 1129.98 99.9994 1153.94 101.813 1175.3 103.701 C 1310.44 116.053 1437.87 172.141 1538.26 263.459 C 1528.11 272.955 1517.89 282.369 1507.59 291.701 C 1479.6 268.94 1456.89 250.709 1425.57 232.074 C 1322.84 170.962 1192.21 139.826 1073.22 149.769 C 862.752 167.355 661.432 299.616 527.941 458.618 C 508.167 483.23 489.042 505.382 470.425 531.144 C 429.547 587.709 393.803 645.914 362.542 708.208 C 350.265 732.674 335.562 759.55 325.645 784.883 C 310.541 785.159 293.194 785.351 278.234 784.296 C 281.231 771.008 295.766 738.365 301.466 725.625 C 351.506 615.783 417.811 514.107 498.148 424.021 C 635.152 269.425 822.395 143.76 1028.75 109.48 C 1056.37 104.891 1080.56 103.111 1108.5 101.426 z" fill="rgb(255,255,255)" transform="translate(0,0)"></path>
<path d="M 1109.29 322.431 C 1201.59 318.868 1309.92 360.571 1384.64 412.791 C 1372.28 425.741 1354.66 441.377 1341.24 453.86 C 1270.73 405.262 1179.97 373.229 1093.38 379.789 C 974.775 388.773 865.769 454.154 778.547 531.684 C 750.859 556.295 722.861 587.234 698.685 614.967 C 656.742 662.987 612.998 728.404 583.528 784.785 C 562.348 784.859 540.223 784.218 518.877 784.069 C 627.567 563.367 848.892 333.521 1109.29 322.431 z" fill="rgb(255,255,255)" transform="translate(0,0)"></path>
<path d="M 1104.36 438.427 C 1172.97 434.171 1240.99 460.297 1298.25 496.16 C 1286.3 508.685 1268.95 524.564 1256.34 536.663 C 1212.5 510.629 1152.01 490.407 1100.91 494.66 C 1005.44 502.606 914.074 564.235 845.836 628.046 C 826.079 646.521 807.925 667.375 790.259 687.414 C 764.102 716.551 740.52 752.109 719.524 784.965 L 651.252 784.431 C 657.478 772.531 667.316 757.338 674.583 746.007 C 699.969 705.77 728.78 667.797 760.696 632.513 C 845.773 537.789 973.033 445.462 1104.36 438.427 z" fill="rgb(255,255,255)" transform="translate(0,0)"></path>
<path d="M 1116.17 553.406 C 1151.16 552.457 1181.93 565.198 1212.23 581.179 C 1199.22 595.108 1183.81 608.362 1170.18 623.012 C 1152.49 612.871 1133.57 606.081 1113.04 608.216 C 1022.77 617.606 935.811 693.908 879.634 758.587 C 872.383 767.31 865.003 775.924 857.495 784.427 L 789.849 783.932 C 805.014 760.743 821.763 738.629 839.977 717.748 C 910.285 637.174 1005.47 561.02 1116.17 553.406 z" fill="rgb(255,255,255)" transform="translate(0,0)"></path>
<path d="M 187.248 750.056 C 187.351 752.889 177.749 778.411 176.133 783.69 L 156.199 783.181 L 155.533 782.336 C 156.692 779.289 182.914 754.307 187.248 750.056 z" fill="rgb(255,255,255)" transform="translate(0,0)"></path>
<path d="M 1005.71 1292.29 C 1013.01 1292.14 1028.18 1293.79 1027 1304.39 C 1024.21 1329.47 1019.67 1354.55 1015.78 1379.53 L 987.32 1553.8 C 994.62 1559.45 995.052 1562.18 997.438 1570.8 C 991.304 1584.85 993.348 1596.13 983.669 1609.68 C 964.856 1636.01 950.614 1615.4 929.947 1611.47 C 916.546 1608.92 897.95 1607.8 883.994 1606.13 C 863.143 1603.61 842.419 1600.13 821.887 1595.71 C 793.997 1589.88 790.257 1588.04 766.836 1572.56 C 740.445 1598.73 735.452 1629.38 704.035 1656.9 C 715.406 1672.31 727.921 1678.17 743.828 1688.88 C 764.152 1702.48 784.187 1716.5 803.917 1730.95 C 814.637 1738.72 828.636 1748.34 837.753 1757.35 C 846.35 1765.77 853.418 1775.62 858.641 1786.46 C 856.191 1804.49 843.241 1836.54 835.438 1853.49 C 823.081 1848.87 819.001 1848.77 806.058 1847.46 C 798.002 1846.65 774.734 1849.77 770.758 1847.8 C 766.784 1839.7 776.83 1823.17 781.113 1816.12 C 772.707 1815.65 760.239 1808.78 751.46 1806.19 C 722.497 1797.64 699.661 1789.33 672.381 1776.49 C 652.451 1812.19 634.124 1848.29 610.316 1881.77 C 599.299 1897.26 589.773 1918.41 571.571 1926.23 C 555.869 1932.97 539.19 1938.65 522.195 1940.5 C 525.043 1929.54 524.227 1920.59 521.363 1908.83 C 518.647 1897.67 512.954 1874.57 500.403 1869.91 C 498.161 1869.08 498.111 1869.33 495.993 1868 C 498.283 1865.26 502.534 1863.7 505.889 1862.1 C 515.164 1873.13 526.577 1885.33 536.591 1895.79 C 535.92 1893.21 535.158 1890.66 534.306 1888.14 C 531.154 1878.65 526.818 1869.59 517.307 1864.99 C 514.738 1863.75 514.728 1863.91 512.401 1861.93 L 512.345 1859.19 C 517.902 1856.52 519.773 1856.42 525.983 1855.74 C 528.621 1851.77 530.771 1849.23 533.824 1845.62 C 546.761 1850.41 551.744 1850.74 565.426 1852.43 C 557.039 1847.8 548.913 1842.71 541.087 1837.19 C 542.988 1826.11 549.855 1815.48 551.963 1801.67 C 554.728 1783.57 551.962 1759.36 555.633 1742.12 C 556.34 1738.81 568.737 1734.03 572.46 1732.45 C 567.667 1732.13 563.109 1732.23 558.746 1730.4 C 544.463 1714.71 564.051 1663.04 572.588 1646.69 L 579.183 1653.75 C 593.828 1654.46 607.809 1657.17 622.755 1656.96 C 596.72 1646.98 557.178 1650.61 588.593 1619.72 C 590.62 1582.74 612.844 1538.99 625.014 1504.23 C 638.709 1465.12 641.269 1440.91 678.691 1418.96 L 678.413 1409.96 C 677.935 1394.02 662.399 1376.76 673.4 1354.64 C 682.948 1335.8 701.84 1327.38 720.893 1321.32 C 753.131 1311.06 768.304 1325.27 777.022 1354.37 C 786.729 1353.37 799.62 1350.8 808.074 1355.87 C 810.107 1359.03 809.76 1357.37 809.274 1361 C 803.139 1370.11 790.549 1372.54 780.259 1375.52 C 780.067 1385.29 781.35 1392.31 781.845 1401.77 C 782.515 1414.55 780.96 1427.35 765.782 1426.39 L 761.086 1439.68 C 790.297 1451.33 816.932 1475.08 844.302 1492.06 C 833.525 1513.48 823.45 1528.57 805.882 1544.7 L 806.56 1545.72 C 810.079 1546.28 816.075 1546.93 818.795 1544.5 C 832.126 1532.63 847.381 1514.16 851.308 1496.79 C 860.561 1499.06 878.866 1501.25 886.008 1505.53 C 914.336 1522.52 933.938 1549.49 970.648 1549.3 C 972.577 1515.69 977.089 1476.95 979.955 1442.64 L 987.383 1360.34 C 988.662 1345.42 989.918 1312.28 994.572 1296.9 C 995.376 1294.24 1002.63 1292.86 1005.71 1292.29 z" fill="rgb(4,33,70)" transform="translate(0,0)"></path>
<path d="M 835.447 1545.9 C 844.973 1547.29 857.594 1554.87 868.062 1556.23 C 895.212 1559.75 919.234 1561.16 945.789 1568.93 C 946.815 1573.14 947.761 1575.96 947.635 1580.35 L 945.808 1581.88 C 914.285 1592.37 896.543 1580.09 869.393 1565.15 C 857.937 1558.98 846.619 1552.56 835.447 1545.9 z" fill="rgb(255,255,255)" transform="translate(0,0)"></path>
<path d="M 704.473 1334.74 C 705.03 1340.04 703.193 1345.96 706.395 1351.29 C 711.883 1360.4 721.859 1352.62 728.006 1348.4 C 728.999 1358.65 728.607 1358.98 735.385 1366.63 C 742.987 1365.45 750.62 1364.49 758.275 1363.75 C 746.066 1369.28 733.404 1370.54 720.657 1376 C 708.198 1381.15 696.256 1390.21 686.655 1399.59 C 689.953 1393.81 694.555 1387.32 698.328 1381.72 C 696.644 1375.8 691.25 1361.36 694.389 1356.5 C 695.393 1356.58 697.368 1356.64 698.368 1356.69 C 702.131 1356.88 701.016 1345.66 701.808 1342.48 C 702.529 1339.59 703.099 1338.03 704.473 1334.74 z" fill="rgb(255,255,255)" transform="translate(0,0)"></path>
<path d="M 718.505 1363.99 C 721.849 1364.66 721.955 1364.11 724.073 1366.11 C 722.829 1368.95 717.692 1371.29 714.74 1373.02 C 714.173 1374.02 714.625 1373.42 712.94 1374.36 C 710.871 1370.69 711.294 1372.6 711.592 1368.42 C 714.184 1364.88 713.706 1365.91 718.505 1363.99 z" fill="rgb(4,33,70)" transform="translate(0,0)"></path>
<path d="M 523.52 1857.12 C 538.011 1860.14 548.018 1866.74 557.957 1877.61 L 557.176 1878.61 C 549.342 1873.69 522.954 1864.75 521.477 1859.16 L 523.52 1857.12 z" fill="rgb(255,255,255)" transform="translate(0,0)"></path>
<path d="M 1815.35 896.069 C 1820.33 900.122 1831.55 911.756 1836.53 916.626 L 1880.18 959.578 L 2002.44 1078.78 L 1322.96 1750.68 L 1146.42 1925.06 L 1087.61 1982.39 C 1065.87 2003.26 1043.27 2024.25 1022.85 2046.4 C 1009.17 2029.77 985.577 2009.86 969.223 1994.47 C 939.412 1966.42 908.782 1934.58 878.309 1907.59 L 865.176 1895.67 L 872.472 1871.17 C 922.39 1917.51 971.904 1969.5 1022.62 2014.9 C 1091.67 1948.33 1160.17 1881.18 1228.1 1813.47 L 1444.34 1600.21 C 1574.22 1473.47 1703.4 1346 1831.85 1217.82 C 1878.95 1171.75 1925.77 1125.39 1972.31 1078.77 C 1951.84 1056.9 1926.23 1032.82 1904.57 1011.86 L 1799.93 910.406 C 1805.95 905.385 1809.81 901.67 1815.35 896.069 z" fill="rgb(176,16,41)" transform="translate(0,0)"></path>
<path d="M 1864.68 1080.63 C 1868.35 1081.7 1876.68 1091.16 1879.84 1094.43 C 1858.31 1116.79 1833.17 1140.61 1810.91 1162.75 L 1663.29 1309.87 L 1021.15 1944.41 C 1009.88 1931.95 991.869 1915.75 979.408 1903.85 C 954.59 1880.3 929.999 1856.52 905.639 1832.5 C 901.346 1828.37 896.883 1824.26 892.534 1820.17 C 895.933 1812.7 897.952 1805.95 900.421 1798.17 C 912.622 1807.73 932.665 1828.17 944.216 1839.34 L 1021 1913.5 C 1031.52 1904.86 1044.87 1890.95 1054.93 1881.03 L 1112.69 1824.18 L 1325.4 1613.72 L 1864.68 1080.63 z" fill="rgb(176,16,41)" transform="translate(0,0)"></path>
<path d="M 893.028 880.209 L 940.477 879.981 C 934.34 922.357 929.063 964.853 924.651 1007.44 C 921.727 1033.22 917.04 1066.43 916.881 1091.83 C 897.104 1092.07 887.49 1094.98 876.671 1076.05 C 865.901 1086.13 855.591 1091.06 840.972 1093.17 C 835.492 1093.64 829.481 1093.71 824.024 1092.83 C 810.654 1090.66 798.781 1083.04 791.225 1071.8 C 763.348 1030.86 787.408 949.109 838.06 936.961 C 856.486 932.542 866.786 932.809 885.134 936.914 C 888.247 919.055 890.473 898.39 893.028 880.209 z" fill="rgb(4,33,70)" transform="translate(0,0)"></path>
<path d="M 863.928 969.156 C 869.668 968.879 874.86 968.206 879.963 970.811 C 881.795 975.446 873.658 1035.83 872.44 1045.87 C 862.789 1052.32 857.974 1055.34 846.498 1056.21 C 837.548 1054.25 830.552 1049.34 828.914 1039.81 C 823.864 1010.4 832.398 977.668 863.928 969.156 z" fill="rgb(255,255,255)" transform="translate(0,0)"></path>
<path d="M 231.839 894.598 C 234.056 895.781 244.106 906.645 246.566 909.202 C 222.934 935.855 185.073 969.658 159.054 995.05 C 132.252 1021.21 101.362 1053.42 73.8642 1077.79 C 96.2091 1101.13 124.899 1127.12 148.447 1149.86 L 301.217 1297.01 L 477.885 1467.2 C 506.581 1495.1 535.66 1522.6 565.114 1549.7 C 563.646 1553.72 559.106 1568.3 556.9 1570.43 L 554.974 1569.34 C 499.312 1516.99 444.084 1464.18 389.295 1410.92 L 43.9354 1078.43 C 61.1546 1061.08 80.343 1043.3 97.979 1026.13 L 231.839 894.598 z" fill="rgb(176,16,41)" transform="translate(0,0)"></path>
<path d="M 1491.82 935.323 C 1527.72 932.523 1562.78 939.696 1570.07 980.825 C 1579.25 1032.63 1560.25 1081.11 1505.93 1091.95 C 1468.63 1098.28 1430.65 1083.99 1424.94 1042.27 C 1418.12 992.505 1437.99 944.021 1491.82 935.323 z" fill="rgb(4,33,70)" transform="translate(0,0)"></path>
<path d="M 1498.38 971.226 C 1526.22 969.914 1526.01 994.625 1522.82 1015.33 C 1520.12 1032.83 1516.03 1049.73 1498.07 1056.66 C 1487.64 1057.52 1476.24 1053.59 1473.72 1042.62 C 1468.35 1019.26 1472.59 980.125 1498.38 971.226 z" fill="rgb(255,255,255)" transform="translate(0,0)"></path>
<path d="M 1080.54 880.486 C 1097.39 880.129 1114.26 880.077 1131.12 880.33 C 1127.79 890.74 1123.23 901.051 1119 911.154 C 1094.05 970.895 1069.75 1030.9 1046.1 1091.17 C 1027.82 1091.33 1006.66 1092.02 988.615 1091.23 C 986.316 1087.2 983.536 1081.36 983.126 1076.69 C 977.461 1012.16 965.704 944.753 961.844 880.265 C 978.523 880.115 995.204 880.283 1011.88 880.769 C 1013.24 934.241 1018.17 997.594 1021.76 1051.19 C 1029.59 1032.66 1039.12 1000.69 1045.74 980.993 L 1080.54 880.486 z" fill="rgb(4,33,70)" transform="translate(0,0)"></path>
<path d="M 336.164 880.49 L 458.432 880.954 C 456.888 894.678 455.25 908.391 453.518 922.092 C 428.697 920.966 403.195 921.114 378.313 921.133 C 376.609 935.191 374.7 949.224 372.586 963.227 C 391.965 963.747 412.004 963.384 431.436 963.273 C 430.432 975.746 428.405 989.4 426.614 1001.79 L 399.041 1001.34 C 388.816 1001.27 378.591 1001.26 368.366 1001.29 C 364.003 1028.48 359.072 1065.2 356.727 1092.47 L 307.766 1092.74 C 316.191 1023.47 324.17 950.289 333.561 881.478 L 336.164 880.49 z" fill="rgb(4,33,70)" transform="translate(0,0)"></path>
<path d="M 1686.32 935.352 C 1701.34 933.467 1723.15 936.997 1731.97 950.507 C 1745.58 971.339 1738 1003.12 1734.78 1026.49 L 1725.74 1090.93 L 1677.82 1090.86 C 1682.53 1062.21 1685.74 1032.98 1690.09 1004.31 C 1691.57 994.53 1696.22 973.025 1683.27 970.118 C 1671.58 967.495 1662.48 972.689 1654.76 980.869 C 1646.58 994.965 1638.8 1068.35 1635.59 1091.02 L 1587.59 1091.07 C 1588.85 1076.58 1592.36 1055.99 1594.45 1041.23 C 1599.29 1006.84 1604.33 972.479 1609.57 938.148 L 1642.45 937.832 C 1643.11 942.932 1644.18 948.359 1645.08 953.453 C 1659.78 940.681 1667.29 937.863 1686.32 935.352 z" fill="rgb(4,33,70)" transform="translate(0,0)"></path>
<path d="M 619.669 934.417 C 673.062 929.802 692.598 978.081 672.034 1020.84 C 648.972 1022.61 613.232 1021.56 589.228 1021.57 C 589.546 1058.97 610.062 1061.3 641.619 1054.51 C 646.541 1053.45 652.312 1051.31 657.175 1053.1 C 661.493 1057.93 662.179 1064.65 663.364 1071.01 L 664.862 1083.81 C 638.656 1096.58 589.428 1099.97 565.961 1079.48 C 533.913 1051.48 541.104 990.177 566.387 959.842 C 580.782 942.57 597.963 936.259 619.669 934.417 z" fill="rgb(4,33,70)" transform="translate(0,0)"></path>
<path d="M 617.716 967.119 C 619.097 967.114 620.478 967.151 621.856 967.228 C 639.228 968.349 638.929 980.624 637.798 994.24 L 614.822 994.35 L 593.259 994.284 C 597.845 979.545 602.438 971.369 617.716 967.119 z" fill="rgb(255,255,255)" transform="translate(0,0)"></path>
<path d="M 781.999 1855.41 C 801.731 1854.29 812.938 1855.63 831.805 1860.85 C 822.073 1892.97 802.984 1945.16 810.332 1977.88 C 816.051 2003.35 851.211 2005.27 869.716 2012.15 C 876.297 2014.6 878.982 2024.83 874.771 2030.8 C 870.543 2036.8 860.922 2037.65 854.08 2038.73 C 826.398 2042.06 798.762 2036.34 770.929 2038.8 C 764.677 2039.35 740.033 2035.88 737.643 2030.34 C 733.859 2021.55 739.727 1996.51 742.876 1987.29 C 746.426 1978.1 750.002 1975.47 758.173 1971.56 C 762.461 1956.5 765.812 1941.2 768.207 1925.72 C 769.91 1915.17 775.567 1861 778.131 1856.3 L 781.999 1855.41 z" fill="rgb(4,33,70)" transform="translate(0,0)"></path>
<path d="M 493.55 1870.86 C 493.619 1870.91 493.69 1870.95 493.757 1871 C 507.884 1881.47 514.401 1898.58 517.495 1915.32 C 518.612 1921.36 520.516 1931.18 515.995 1936.21 C 509.223 1943.76 446.77 1946.58 427.038 1976.95 C 422.483 1983.96 420.666 1993.58 422.464 2001.76 C 427.957 2026.76 451.188 2017.56 463.757 2027.26 C 465.741 2028.79 466.9 2030.54 466.858 2033.13 C 466.82 2035.45 465.408 2037.71 463.598 2039.02 C 455.12 2045.15 421.836 2043.72 411.027 2041.79 C 406.23 2040.81 400.911 2039.71 397.276 2036.19 C 387.956 2026.41 384.332 2016.46 375.724 2005.4 C 366.174 1993.14 339.975 1978.41 341.318 1961.07 C 341.886 1953.74 359.081 1943.43 366.066 1941.38 C 378.078 1937.84 393.512 1939.16 405.536 1934.13 C 423.404 1926.64 438.56 1914.47 453.153 1901.84 C 466.26 1890.5 478.958 1880.45 493.55 1870.86 z" fill="rgb(4,33,70)" transform="translate(0,0)"></path>
<path d="M 183.33 1082.1 C 190.145 1087.47 212.505 1110.08 220.047 1117.3 L 309.206 1203.26 L 519.425 1405.96 C 544.339 1430.19 570.242 1453.9 594.793 1478.44 C 592.534 1483.16 588.257 1494.74 585.511 1498.2 L 584.128 1497.37 C 571.875 1484.95 558.017 1472.48 545.373 1460.29 L 435.168 1354.56 L 168.387 1097.05 L 183.33 1082.1 z" fill="rgb(176,16,41)" transform="translate(0,0)"></path>
<path d="M 1270.72 935.371 C 1286.12 933.083 1307.08 935.73 1322.1 939.848 L 1317.48 975.879 C 1306.68 970.956 1295.56 968.559 1283.76 969.498 C 1266.33 970.739 1259.28 980.889 1276.5 991.48 C 1301.84 1007.08 1324.63 1024.05 1313.41 1057.96 C 1304.71 1084.27 1285.54 1089.37 1260.86 1092.92 C 1238.44 1093.71 1225.07 1093.42 1203.73 1087.04 C 1204.45 1075.27 1205.91 1063.95 1207.31 1052.26 C 1239.34 1061.93 1304 1059.17 1242.34 1021.38 C 1217.31 1006.04 1210.96 978.561 1228.04 954.61 C 1237.31 941.603 1255.87 937.227 1270.72 935.371 z" fill="rgb(4,33,70)" transform="translate(0,0)"></path>
<path d="M 720.539 880.831 C 736.225 880.607 752.522 880.908 768.255 880.987 C 764.358 902.523 761.586 934.015 758.962 956.32 L 742.765 1091.96 L 694.942 1092 L 720.539 880.831 z" fill="rgb(4,33,70)" transform="translate(0,0)"></path>
<path d="M 1358.95 938.107 L 1406.5 938.339 C 1405.05 953.599 1386.87 1088.39 1384.72 1090.9 L 1335.98 1090.89 C 1344.3 1040.22 1349.68 988.359 1358.95 938.107 z" fill="rgb(4,33,70)" transform="translate(0,0)"></path>
<path d="M 1143.82 937.9 L 1192.93 937.914 C 1189.4 955.233 1187.27 977.664 1184.81 995.59 C 1180.19 1027.21 1175.93 1058.89 1172.02 1090.6 C 1157.7 1091.45 1138.26 1090.86 1123.56 1090.83 C 1128.19 1041.9 1138.59 988.278 1143.82 937.9 z" fill="rgb(4,33,70)" transform="translate(0,0)"></path>
<path d="M 476.301 938.261 L 523.915 938.227 C 518.694 972.825 515.349 1008.82 510.818 1043.59 C 508.711 1059.76 507.616 1076.68 504.934 1092.72 L 456.635 1092.77 C 460.807 1061.93 464.803 1031.07 468.622 1000.19 C 471.026 980.395 473.207 957.692 476.301 938.261 z" fill="rgb(4,33,70)" transform="translate(0,0)"></path>
<path d="M 415.683 1164.04 C 434.051 1164.07 482.52 1156.07 478.563 1186.7 C 477.634 1193.9 469.654 1199.15 463.962 1202.65 C 478.692 1208.93 480.299 1219.95 472.551 1233.02 C 458.331 1246.49 425.016 1242.24 404.672 1241.98 C 406.434 1218.33 412.862 1188.25 415.683 1164.04 z" fill="rgb(4,33,70)" transform="translate(0,0)"></path>
<path d="M 425.327 1209.21 C 436.117 1208.98 477.186 1205.73 457.082 1227.57 C 445.554 1231.44 434.681 1230.34 422.585 1230.09 C 423.341 1223.11 424.255 1216.15 425.327 1209.21 z" fill="rgb(255,255,255)" transform="translate(0,0)"></path>
<path d="M 430.074 1175.74 C 442.253 1175.69 474.14 1172.77 458.2 1193.98 L 457.885 1194.11 C 448.013 1198.42 438.341 1197.3 427.55 1197.19 C 428.178 1190.24 429.232 1182.72 430.074 1175.74 z" fill="rgb(255,255,255)" transform="translate(0,0)"></path>
<path d="M 733.237 1163.97 C 746.186 1163.83 759.73 1163.21 772.609 1164.36 C 787.19 1165.66 796.494 1174.35 792.512 1189.43 C 790.664 1196.43 785.417 1198.98 779.7 1202.68 C 780.478 1203.06 781.249 1203.44 782.014 1203.84 C 795.546 1210.96 793.431 1222.73 786.622 1234.04 C 773.02 1246.03 741.881 1242.33 722.618 1242.12 C 724.52 1233.59 726.014 1219.21 727.208 1210.16 C 729.169 1195.28 732.078 1178.77 733.237 1163.97 z" fill="rgb(4,33,70)" transform="translate(0,0)"></path>
<path d="M 743.22 1208.27 C 754.833 1208.21 790.872 1206.73 771.65 1228.1 C 762.666 1231.57 750.504 1230.66 740.716 1230.52 C 741.182 1222.2 741.935 1216.54 743.22 1208.27 z" fill="rgb(255,255,255)" transform="translate(0,0)"></path>
<path d="M 747.323 1175.88 C 757.627 1175.99 791 1175.14 772.985 1194.23 C 764.557 1196.98 754.12 1196.28 745.098 1196.22 C 746.291 1188.89 746.78 1183.31 747.323 1175.88 z" fill="rgb(255,255,255)" transform="translate(0,0)"></path>
<path d="M 1144.4 1163.16 L 1157.63 1163.14 C 1168.8 1181.26 1182.55 1202.11 1192.04 1220.69 C 1194.23 1202.14 1196.54 1182.42 1199.38 1164.03 L 1213.97 1163.87 C 1211.28 1188.46 1206.05 1217.5 1204.7 1241.57 C 1201.14 1242.35 1193.2 1242.06 1189.22 1242.04 C 1180.41 1224.76 1166.8 1204.27 1156.31 1187.58 C 1153.07 1205.65 1150.46 1223.83 1148.47 1242.09 L 1134.53 1242.3 C 1136.07 1221.98 1141.08 1182.57 1144.4 1163.16 z" fill="rgb(4,33,70)" transform="translate(0,0)"></path>
<path d="M 524.585 1163.81 L 542.04 1163.89 C 549.735 1189.23 555.216 1216.3 562.811 1242.07 L 546.819 1242.44 C 545.754 1236.56 544.254 1230.94 542.784 1225.16 L 517.875 1225.21 L 506.718 1225.13 C 503.887 1231.22 501.043 1236.79 497.951 1242.74 L 479.964 1242.91 C 492.523 1225.39 514.202 1183.99 524.585 1163.81 z" fill="rgb(4,33,70)" transform="translate(0,0)"></path>
<path d="M 530.105 1180.57 C 533.028 1183.98 538.283 1207.69 539.869 1213.96 L 525.25 1214.04 C 521.194 1214.13 518.52 1214.43 514.605 1213.53 C 514.785 1207.61 526.738 1186.87 530.105 1180.57 z" fill="rgb(255,255,255)" transform="translate(0,0)"></path>
<path d="M 840.189 1163.64 L 857.432 1163.88 C 863.96 1187.6 872.967 1218.36 877.801 1242.12 L 862.528 1242.33 C 861.289 1235.62 860.588 1231.5 858.411 1225.03 L 837.085 1225.05 L 823.109 1224.99 C 821.182 1230.17 818.098 1236.79 815.837 1241.98 L 798.326 1242.09 C 812.924 1216.29 826.883 1190.13 840.189 1163.64 z" fill="rgb(4,33,70)" transform="translate(0,0)"></path>
<path d="M 846.013 1179.49 C 849.252 1184.43 854.026 1206.49 855.658 1213.29 L 839.275 1213.51 L 830.01 1213.38 C 835.354 1203.55 841.222 1189.93 846.013 1179.49 z" fill="rgb(255,255,255)" transform="translate(0,0)"></path>
<path d="M 1084.4 1163.94 L 1101.77 1164.02 C 1107.88 1187.74 1115.27 1220.02 1124.06 1242.01 L 1107.84 1242.21 C 1106.07 1234.77 1105.44 1232.04 1102.4 1225.08 L 1086.5 1225.08 L 1068.8 1225.07 L 1061.04 1242.03 L 1044.84 1242.07 C 1057.38 1216.1 1071.57 1190.16 1084.4 1163.94 z" fill="rgb(4,33,70)" transform="translate(0,0)"></path>
<path d="M 1090.43 1178.75 C 1092.32 1181.37 1098.56 1208.45 1099.89 1213.73 L 1083.93 1213.91 C 1080.02 1214.01 1078.55 1214.07 1074.72 1213.52 C 1074.45 1210.7 1088.13 1183.55 1090.43 1178.75 z" fill="rgb(255,255,255)" transform="translate(0,0)"></path>
<path d="M 1256.53 1164.1 C 1262.19 1164.14 1267.84 1164.23 1273.5 1164.38 C 1280.63 1190.15 1287.42 1216.01 1293.85 1241.97 L 1278.46 1242.12 C 1277.58 1236.36 1276.59 1230.63 1275.49 1224.92 L 1251.65 1224.69 L 1240.19 1224.39 L 1232.03 1242.12 L 1215.51 1241.93 C 1229.33 1218.87 1244.36 1188.36 1256.53 1164.1 z" fill="rgb(4,33,70)" transform="translate(0,0)"></path>
<path d="M 1262.67 1178.72 C 1264.94 1181.4 1271.08 1207.6 1272.48 1213.01 L 1259.25 1213.03 C 1256.24 1213.04 1249.09 1213.49 1247.27 1212 C 1251.76 1200.75 1257.36 1189.63 1262.67 1178.72 z" fill="rgb(255,255,255)" transform="translate(0,0)"></path>
<path d="M 662.278 1163.72 C 679.607 1164.2 698.178 1163.89 715.599 1163.92 L 714.339 1177.07 L 675.415 1177.01 L 671.976 1197.09 L 705.138 1196.96 C 705.072 1201.36 704.437 1204.74 703.767 1209.06 C 695.443 1209.16 678.921 1207.6 671.08 1210.04 C 669.862 1210.41 669.813 1212.47 669.357 1214.27 C 668.839 1219.44 667.805 1225.7 667.072 1230.93 L 707.266 1230.92 L 706.811 1242.37 C 687.877 1242.29 668.943 1242.32 650.01 1242.48 C 654.381 1216.27 657.553 1190.35 662.278 1163.72 z" fill="rgb(4,33,70)" transform="translate(0,0)"></path>
<path d="M 603.984 1163.11 C 617.909 1161.59 627.534 1163.85 639.874 1170 C 637.47 1174.89 635.13 1178.46 632.222 1183.02 C 623.627 1178.48 594.236 1166.95 596.491 1186.72 C 603.587 1198.03 635.184 1199.73 636.337 1217.29 C 637.605 1236.62 621.174 1242.08 606.237 1243.8 C 592.641 1244.9 583.639 1241.32 572.233 1235.09 L 578.929 1222.87 C 588.693 1229.31 608.064 1238.37 618.497 1225.82 C 620.188 1223.78 619.524 1222.08 619.03 1219.78 C 609.811 1208.19 586.029 1208.38 581.036 1192.59 C 575.435 1174.87 589.995 1166.99 603.984 1163.11 z" fill="rgb(4,33,70)" transform="translate(0,0)"></path>
<path d="M 1633.49 1163.2 C 1641.53 1162.57 1658.67 1161.81 1663.39 1169.17 C 1665.67 1172.71 1662.94 1178.43 1661.69 1182.09 C 1650.89 1176.84 1638.36 1172.9 1627.22 1179.83 C 1616.54 1196.43 1665.4 1197.23 1666.64 1214.85 C 1667.85 1231.95 1657.81 1239.71 1643.47 1243.04 C 1628.61 1243.3 1621.9 1242.33 1608.14 1236.93 C 1609.65 1232.75 1610.9 1227.87 1612.12 1223.54 C 1619.09 1227.18 1628.57 1231.58 1636.51 1230.78 C 1643.68 1230.06 1652.3 1227.18 1650.26 1218.11 C 1643.98 1207.98 1618.31 1207.67 1614.58 1193 C 1610.48 1176.87 1619.46 1167.83 1633.49 1163.2 z" fill="rgb(4,33,70)" transform="translate(0,0)"></path>
<path d="M 1567 1163.2 C 1576.98 1162.44 1592.56 1162.72 1599.39 1170.91 C 1600.53 1174.56 1599.17 1180.26 1598.56 1184.28 C 1596.59 1182.97 1594.57 1181.76 1592.48 1180.65 C 1538.89 1152.53 1527.97 1248.45 1585.83 1226.49 C 1589.34 1224.55 1589.34 1223.82 1592.78 1223.84 C 1595.14 1225.89 1595.69 1231.22 1596.42 1234.57 C 1582.01 1243.41 1564.67 1246.32 1549.28 1238.04 C 1540.88 1233.57 1534.73 1225.78 1532.33 1216.57 C 1525.52 1190.62 1542.4 1169.68 1567 1163.2 z" fill="rgb(4,33,70)" transform="translate(0,0)"></path>
<path d="M 501.758 878.135 C 523.199 877.113 537.988 887.046 528.693 911.948 C 526.035 919.068 517.565 923.025 510.405 924.964 C 471.927 926.297 471.547 885.758 501.758 878.135 z" fill="rgb(4,33,70)" transform="translate(0,0)"></path>
<path d="M 1380.15 877.212 C 1392.14 876.001 1404.4 876.743 1410.72 888.89 C 1413.43 894.183 1413.8 900.367 1411.74 905.945 C 1408.65 914.503 1402.01 919.337 1394.06 922.871 C 1374.7 924.419 1356.57 916.416 1363.03 891.694 C 1364.87 884.63 1373.58 879.851 1380.15 877.212 z" fill="rgb(4,33,70)" transform="translate(0,0)"></path>
<path d="M 1168.56 877.122 C 1180.64 876.169 1192.97 877.451 1198.39 890.268 C 1200.8 895.913 1200.79 902.302 1198.35 907.936 C 1194.79 916.211 1188.78 919.764 1180.83 922.723 C 1174.41 923.052 1169.54 923.707 1163.22 921.171 C 1151.14 916.321 1145.02 902.004 1150.94 890.127 C 1154.71 882.558 1160.65 879.584 1168.56 877.122 z" fill="rgb(4,33,70)" transform="translate(0,0)"></path>
<path d="M 1420.59 1163.33 L 1424.59 1163.38 C 1426.51 1166 1424.86 1168.92 1423.27 1171.51 C 1415.54 1184.18 1405.15 1195.56 1398.03 1208.57 C 1392.68 1218.33 1392.24 1231.44 1391.13 1242.5 L 1375.58 1242.36 C 1377.46 1232.59 1378.87 1221.26 1380.34 1211.31 C 1378.6 1208.7 1376.71 1205.41 1375.04 1202.68 C 1368.55 1189.9 1362.69 1176.73 1356.75 1163.69 C 1361.85 1163.58 1367.46 1163.79 1372.6 1163.88 C 1377.71 1176.34 1382.37 1186.35 1388.21 1198.5 C 1396.86 1189.47 1401.6 1178.82 1409.1 1169.04 C 1413.44 1163.37 1414.12 1164.12 1420.59 1163.33 z" fill="rgb(4,33,70)" transform="translate(0,0)"></path>
<path d="M 1431.67 1163.92 L 1493.35 1163.78 L 1490.92 1176.83 L 1467.54 1176.59 C 1466.36 1190.33 1463.61 1207.3 1461.73 1221.21 C 1460.86 1227.69 1460.31 1235.38 1459.66 1241.98 L 1444.07 1242.26 C 1447.32 1221.48 1449.8 1197.77 1452.49 1176.7 L 1428.94 1176.7 C 1429.96 1172.56 1430.8 1168.11 1431.67 1163.92 z" fill="rgb(4,33,70)" transform="translate(0,0)"></path>
<path d="M 965.736 1163.35 L 982.053 1163.49 C 978.348 1185.93 975.185 1208.46 972.568 1231.05 C 985.061 1231.11 998.632 1230.37 1011.22 1229.89 C 1011.08 1234.24 1010.56 1238.06 1010.04 1242.36 C 992.415 1241.75 972.728 1242.12 954.946 1242.08 C 959.427 1218.37 963.084 1187.37 965.736 1163.35 z" fill="rgb(4,33,70)" transform="translate(0,0)"></path>
<path d="M 903.344 1163.36 C 908.472 1163.38 913.876 1163.65 919.025 1163.81 C 914.312 1182.54 910.96 1210.91 908.719 1230.08 L 944.796 1229.97 L 943.31 1242.1 L 891.429 1242.37 L 903.344 1163.36 z" fill="rgb(4,33,70)" transform="translate(0,0)"></path>
<path d="M 1317.23 1163.09 L 1332.56 1163.26 C 1328.06 1185.53 1325.27 1207.82 1321.83 1230.27 C 1333.41 1230.34 1345.25 1230.15 1356.86 1230.08 L 1355.73 1242.29 L 1305.2 1242.02 C 1307.97 1233.05 1309.68 1216.66 1310.98 1206.98 L 1317.23 1163.09 z" fill="rgb(4,33,70)" transform="translate(0,0)"></path>
<path d="M 1139.18 1473.65 C 1150.23 1470.7 1161.57 1477.31 1164.45 1488.38 C 1167.33 1499.44 1160.64 1510.74 1149.56 1513.55 C 1138.57 1516.34 1127.39 1509.73 1124.54 1498.76 C 1121.69 1487.78 1128.22 1476.57 1139.18 1473.65 z" fill="rgb(4,33,70)" transform="translate(0,0)"></path>
<path d="M 1506.37 1163.34 L 1519.67 1163.49 C 1517.06 1189.38 1513.5 1216.25 1510.37 1242.12 L 1495.72 1242.07 C 1496.62 1226.73 1502.46 1177.5 1506.37 1163.34 z" fill="rgb(4,33,70)" transform="translate(0,0)"></path>
<metadata><recraft-signature>{"signed_by": "recraft", "signature_b64": "TbAKB06G7awQYj9xOX1NyIvOUtjgxmXHRh01+Wc1TWX0uY7uZdF64IQsy8UFumakc+l7ePJxzcwgitUToPz2AA==", "signing_algo": "Ed25519", "generation_timestamp": 1777331211, "identifier": "07c9ede8-d256-43c4-804c-90bd099c2288"}</recraft-signature></metadata></svg>