<svg xmlns="http://www.w3.org/2000/svg" height="1024" preserveAspectRatio="none" style="display: block;" version="1.1" viewBox="0 0 2048 2048" width="1024">
<path d="M 0 0 L 2048 0 L 2048 2048 L 0 2048 L 0 0 z" fill="rgb(255,255,255)" transform="translate(0,0)"></path>
<path d="M 1008.74 101.727 C 1019.17 101.563 1029.61 101.543 1040.04 101.667 C 1039.61 113.124 1039.88 125.517 1039.93 137.047 C 1177.8 143.399 1283.71 166.881 1408.55 225.937 C 1471.42 255.31 1530.63 291.944 1584.97 335.089 C 1575 346.776 1565.62 357.935 1554.14 368.243 C 1543.22 361.9 1530.96 351.955 1520.57 344.437 C 1383.82 245.544 1208.97 183.835 1040 183.177 L 1039.9 231.978 C 1222.62 239.319 1375.5 295.07 1521.08 405.365 C 1516.04 411.64 1507.27 421.9 1500.82 426.307 C 1381.49 337.181 1246.98 279.519 1098.15 264.067 C 1097.8 275.892 1096.28 289.618 1095.55 301.683 C 1086.36 455.916 1138.31 607.557 1240.15 723.75 C 1224.69 739.237 1203.75 764.719 1187.9 777.55 C 1132.82 711.052 1093.17 652.142 1062.11 570.474 C 1053.78 548.571 1047.85 525.262 1040.02 504.2 L 1039.94 823.7 C 1063.79 827.73 1082.24 831.295 1104.55 841.608 C 1173.7 873.585 1216.56 934.712 1226.61 1009.22 C 1295.48 1012.33 1366.93 1008.53 1436.03 1009.75 C 1473.61 1010.41 1512.75 1010.54 1550.32 1009.29 C 1520.93 999.954 1483.88 988.24 1455.75 975.588 C 1405.45 952.964 1352.94 921.601 1309.55 887.471 C 1292.56 874.108 1270.09 856.642 1254.99 841.381 C 1272.35 822.562 1287.1 806.116 1303.16 786.096 C 1315.41 795.664 1326.74 807.297 1338.97 817.054 C 1463.99 916.785 1624.27 966.362 1783.2 952.656 C 1782.3 919.901 1774.64 883.5 1767.46 851.596 C 1739.88 729.115 1679.08 618.015 1598.55 521.922 L 1619.45 502.913 C 1679.66 572.415 1734.75 663.31 1766.99 749.975 C 1777.19 777.415 1787.11 814.15 1795.11 842.769 C 1808.01 896.968 1815.43 952.324 1817.27 1008.01 L 1865.65 1008.01 C 1860.71 809.794 1787.47 619.366 1658.32 468.925 C 1669.26 459.346 1680.58 448.204 1691.19 438.115 C 1796.33 558.703 1867.13 705.328 1896.19 862.652 C 1904.65 907.758 1910.69 961.092 1910.98 1006.93 C 1922.31 1006.81 1933.63 1006.85 1944.96 1007.03 C 1943.71 1017.81 1943.92 1029.38 1943.84 1040.28 C 1933.82 1040.56 1921.66 1040.18 1911.49 1040.1 C 1910.57 1102.68 1901.8 1160.87 1888.76 1221.98 C 1855.53 1377.73 1776.1 1516.23 1668.19 1632.03 C 1543.6 1764.78 1381.17 1855.97 1202.97 1893.22 C 1145.14 1905.03 1098.74 1909.05 1040.04 1911.06 L 1039.86 1946.47 L 1008.44 1946.09 L 1008.57 1910 L 1003.66 1910.04 C 864.081 1910.93 699.473 1863.4 578.962 1792.9 C 512.902 1753.91 452.046 1706.72 397.846 1652.44 C 237.958 1494.35 138.033 1265.28 136.886 1039.98 L 102.807 1040.28 C 102.535 1029.3 102.562 1017.96 102.455 1006.95 L 136.912 1007.03 C 137.504 965.821 141.19 924.714 147.94 884.057 C 175.007 716.458 249.536 560.125 362.703 433.573 C 492.829 284.64 670.058 184.79 864.863 150.656 C 913.783 142.18 959.967 139.985 1009.09 137.021 C 1008.72 125.261 1008.6 113.493 1008.74 101.727 z" fill="rgb(14,32,63)" transform="translate(0,0)"></path>
<path d="M 259.815 1009.46 C 259.904 988.707 262.975 958.668 265.451 938.055 C 283.693 785.295 347.401 641.537 448.316 525.415 C 572.412 384.211 727.827 297.835 914.043 268.468 C 947.94 263.122 977.138 262.215 1010.98 260 L 1011.48 293.171 C 1011.81 309.863 1012.45 327.053 1011.89 343.685 C 1012.33 353.258 1012.39 361.475 1012.28 371.046 C 1012.94 380.526 1012.4 390.362 1012.1 399.888 C 1012.23 415.094 1012.18 430.301 1011.96 445.506 C 1011.87 454.294 1012.06 465.334 1011.41 473.93 C 1010.99 491.046 1010.82 508.167 1010.9 525.288 C 1011.22 528.398 1011.63 530.59 1011.13 533.701 L 1011.03 712.039 C 1011.07 746.959 1011.95 790.143 1010.17 824.526 C 971.792 826.514 931.514 840.403 901.383 864.54 C 857.396 899.775 823.35 953.353 822.806 1010.99 C 763.583 1011.61 704.354 1011.63 645.13 1011.06 L 588.127 1010.94 C 576.671 1010.92 561.272 1011.2 550.118 1009.9 C 542.918 1010.29 538.562 1010.32 531.371 1009.95 C 513.096 1010.24 494.817 1010.32 476.54 1010.2 L 447.335 1010.03 L 395.609 1010.8 C 385.918 1010.26 376.386 1011.1 367.004 1010.74 C 348.464 1010.04 330.125 1009.69 311.578 1009.36 C 299.683 1010.34 272.487 1009.56 259.815 1009.46 z" fill="rgb(255,255,255)" transform="translate(0,0)"></path>
<path d="M 957.871 511.949 C 970.658 520.145 989.787 535.986 1002.18 545.726 C 1005.05 541.716 1008.17 537.664 1011.13 533.701 L 1011.03 712.039 C 1011.07 746.959 1011.95 790.143 1010.17 824.526 C 971.792 826.514 931.514 840.403 901.383 864.54 C 857.396 899.775 823.35 953.353 822.806 1010.99 C 763.583 1011.61 704.354 1011.63 645.13 1011.06 L 588.127 1010.94 C 576.671 1010.92 561.272 1011.2 550.118 1009.9 C 554.022 1007.47 556.193 1005.88 559.799 1003.02 C 541.817 985.76 529.095 977.35 511.624 956.975 L 548.967 938.778 C 553.381 945.548 588.081 983.076 594.39 988.193 C 601.639 984.459 610.51 978.954 617.701 974.771 C 612.634 970.397 604.24 960.989 599.146 955.893 C 590.661 947.406 579.623 937.576 572.167 928.518 C 583.492 921.141 596.744 913.427 608.516 906.807 C 619.408 918.147 638.685 942.632 648.625 955.126 C 656.31 950.62 663.718 945.719 671.187 940.868 C 662.61 928.092 641.784 906.173 630.766 895.362 C 642.873 886.807 655.181 878.541 667.681 870.571 C 677.062 884.345 695.457 906.264 706.81 918.474 C 713.083 914.354 720.199 908.96 726.376 904.522 C 714.577 888.404 701.788 872.288 689.527 856.465 C 699.718 847.987 710.925 839.482 721.415 831.274 C 734.78 846.374 744.777 862.173 759.639 877.905 C 766.261 872.804 771.766 868.007 777.53 861.993 C 766.401 846.225 752.391 833.321 740.761 816.734 C 750.288 807.303 760.706 797.731 770.478 788.471 C 783.374 803.105 795.776 818.464 808.658 833.234 C 815.561 825.54 820.552 820.483 828.145 813.468 C 816.865 802.727 798.29 782.821 790.379 769.632 C 798.141 758.943 807.432 749.388 815.658 738.849 C 828.737 751.644 842.411 766.704 855.543 779.948 L 873.098 760.036 C 858.188 744.643 849.963 741.211 834.075 721.389 C 841.972 709.805 850.076 698.364 858.384 687.071 C 865.381 695.078 888.927 720.634 896.696 725.918 C 901.973 718.958 905.943 713.41 910.666 706.076 C 900.321 695.752 881.095 676.744 872.942 665.308 L 896.12 630.201 C 908.261 645.367 920.232 656.776 934.313 669.882 C 940.398 661.996 943.31 656.657 950.479 648.9 C 938.526 639.174 919.99 621.661 910.415 609.486 C 916.27 596.829 923.695 582.848 930.014 570.261 C 942.483 584.753 956.891 596.945 972.432 608.06 C 976.566 601.921 981.544 592.907 985.422 586.365 C 968.022 572.95 957.676 565.415 942.116 549.564 C 946 536.405 951.826 524.21 957.871 511.949 z" fill="rgb(255,255,255)" transform="translate(0,0)"></path>
<path d="M 1011.48 293.171 C 1011.81 309.863 1012.45 327.053 1011.89 343.685 C 1012.33 353.258 1012.39 361.475 1012.28 371.046 C 1012.94 380.526 1012.4 390.362 1012.1 399.888 C 1012.23 415.094 1012.18 430.301 1011.96 445.506 C 1011.87 454.294 1012.06 465.334 1011.41 473.93 C 1010.99 491.046 1010.82 508.167 1010.9 525.288 C 1011.22 528.398 1011.63 530.59 1011.13 533.701 C 1008.17 537.664 1005.05 541.716 1002.18 545.726 C 989.787 535.986 970.658 520.145 957.871 511.949 C 951.826 524.21 946 536.405 942.116 549.564 C 957.676 565.415 968.022 572.95 985.422 586.365 C 981.544 592.907 976.566 601.921 972.432 608.06 C 956.891 596.945 942.483 584.753 930.014 570.261 C 923.695 582.848 916.27 596.829 910.415 609.486 C 919.99 621.661 938.526 639.174 950.479 648.9 C 943.31 656.657 940.398 661.996 934.313 669.882 C 920.232 656.776 908.261 645.367 896.12 630.201 L 872.942 665.308 C 881.095 676.744 900.321 695.752 910.666 706.076 C 905.943 713.41 901.973 718.958 896.696 725.918 C 888.927 720.634 865.381 695.078 858.384 687.071 C 850.076 698.364 841.972 709.805 834.075 721.389 C 849.963 741.211 858.188 744.643 873.098 760.036 L 855.543 779.948 C 842.411 766.704 828.737 751.644 815.658 738.849 C 807.432 749.388 798.141 758.943 790.379 769.632 C 798.29 782.821 816.865 802.727 828.145 813.468 C 820.552 820.483 815.561 825.54 808.658 833.234 C 795.776 818.464 783.374 803.105 770.478 788.471 C 760.706 797.731 750.288 807.303 740.761 816.734 C 752.391 833.321 766.401 846.225 777.53 861.993 C 771.766 868.007 766.261 872.804 759.639 877.905 C 744.777 862.173 734.78 846.374 721.415 831.274 C 710.925 839.482 699.718 847.987 689.527 856.465 C 701.788 872.288 714.577 888.404 726.376 904.522 C 720.199 908.96 713.083 914.354 706.81 918.474 C 695.457 906.264 677.062 884.345 667.681 870.571 C 655.181 878.541 642.873 886.807 630.766 895.362 C 641.784 906.173 662.61 928.092 671.187 940.868 C 663.718 945.719 656.31 950.62 648.625 955.126 C 638.685 942.632 619.408 918.147 608.516 906.807 C 596.744 913.427 583.492 921.141 572.167 928.518 C 579.623 937.576 590.661 947.406 599.146 955.893 C 604.24 960.989 612.634 970.397 617.701 974.771 C 610.51 978.954 601.639 984.459 594.39 988.193 C 588.081 983.076 553.381 945.548 548.967 938.778 L 511.624 956.975 C 529.095 977.35 541.817 985.76 559.799 1003.02 C 556.193 1005.88 554.022 1007.47 550.118 1009.9 C 542.918 1010.29 538.562 1010.32 531.371 1009.95 C 513.096 1010.24 494.817 1010.32 476.54 1010.2 L 447.335 1010.03 L 395.609 1010.8 C 385.918 1010.26 376.386 1011.1 367.004 1010.74 C 348.464 1010.04 330.125 1009.69 311.578 1009.36 C 318.983 983.17 326.037 953.61 333.182 926.902 L 357.657 921.51 C 350.299 947.924 343.28 974.432 336.602 1001.03 C 346.703 998.53 356.784 995.949 366.842 993.282 C 372.63 969.86 378.671 936.362 385.563 914.71 C 393.141 912.716 400.962 910.144 408.476 907.801 C 406.175 928.704 396.343 965.335 391.134 986.741 C 401.913 982.911 412.825 979.468 423.849 976.417 C 429.8 950.934 435.09 923.412 440.507 897.686 C 447.452 895.868 454.621 893.38 461.474 891.131 C 459.113 916.317 453.747 941.741 448.142 966.337 C 460.426 961.764 472.674 957.1 484.888 952.345 C 485.299 931.647 489.13 900.066 491.257 878.878 C 499.009 876.597 506.741 874.249 514.452 871.834 C 511.093 895.813 507.513 920.651 505.778 944.755 C 518.455 938.413 531.229 932.263 544.094 926.309 C 544.262 905.899 545.183 876.475 543.375 856.953 C 550.455 852.433 558.41 849.285 566.141 846.081 C 566.241 869.439 566.131 892.798 565.812 916.155 C 577.925 908.786 590.86 901.707 603.251 894.775 C 597.773 877.556 596.403 851.398 591.443 831.331 C 598.969 826.446 603.201 824.038 611.251 820.166 C 616.591 842.345 617.755 858.332 621.286 880.296 C 633.687 875.286 648.482 866.103 659.462 858.662 C 652.74 839.897 643.962 819.175 636.384 800.628 C 642.874 795.999 648.44 791.831 655.539 788.101 C 659.754 800.539 673.33 831.082 679.145 843.133 C 690.914 835.355 702.012 827.761 713.032 818.941 C 700.809 802.623 691.702 786.209 680.293 769.39 C 686.727 763.698 690.034 760.984 697.133 756.242 C 708.716 772.402 719.763 787.414 731.157 803.871 C 741.624 794.912 751.982 785.827 762.228 776.617 C 748.384 762.229 730.191 749.962 717.854 735.979 C 722.204 730.473 727.811 724.77 732.668 719.596 C 746.726 729.856 765.172 746.332 778.815 757.909 L 806.82 729.487 C 797.256 723.119 763.443 706.344 752.315 700.802 C 756.937 694.401 761.645 688.062 766.437 681.788 C 785.208 691.368 803.903 701.222 823.387 709.256 C 832.06 699.801 839.521 689.269 846.405 678.47 C 827.997 671.892 803.224 664.088 784.316 659.376 C 787.835 652.659 793.253 644.668 797.42 638.145 C 808.557 641.244 849.788 654.884 859.912 659.33 C 868.622 648.323 876.482 636.668 883.423 624.468 C 859.168 620.822 842.021 617.794 818.068 612.315 C 821.487 605.005 823.979 600.114 828.058 593.176 C 850.996 597.906 874.292 600.691 897.698 601.501 C 904.529 591.22 910.331 579.139 915.815 568.035 C 893.944 566.061 868.96 566.657 845.869 564.924 C 848.856 557.661 851.418 552.183 854.958 545.159 C 881.979 545.689 900.235 546.055 927.989 545.17 C 932.25 534.034 939.599 519.07 944.702 507.905 C 921.589 512.245 891.876 514.619 868.603 516.174 C 871.296 509.122 873.87 502.497 876.86 495.569 C 907.317 493.92 925.574 487.612 954.106 483.59 C 958.59 472.082 962.872 460.496 966.951 448.837 C 941.56 455.065 914.823 460.327 889.142 465.713 C 891.727 458.241 894.367 450.788 897.063 443.355 C 925.895 436.039 947.738 430.771 976.285 421.644 C 979.757 411.314 983.043 400.922 986.14 390.473 C 963.557 396.689 929.486 406.862 907.263 409.642 L 912.253 389.512 C 937.657 383.621 967.629 371.572 993.683 364.214 C 996.099 354.808 998.194 345.322 999.966 335.774 C 980.634 344.807 940.863 354.626 919.277 360.474 C 920.554 352.397 922.587 343.832 924.336 335.795 C 938.245 332.393 953.147 327.769 967.181 324.093 C 981.096 320.448 997.967 316.67 1011.38 312.265 L 1011.48 293.171 z" fill="rgb(150,17,25)" transform="translate(0,0)"></path>
<path d="M 488.138 965.961 C 497.72 982.446 516.625 997.174 531.371 1009.95 C 513.096 1010.24 494.817 1010.32 476.54 1010.2 C 469.301 1000.02 459.871 990.575 452.434 980.468 C 464.011 975.299 476.011 969.498 488.138 965.961 z" fill="rgb(255,255,255)" transform="translate(0,0)"></path>
<path d="M 980.781 451.713 C 990.912 459.227 1000.99 466.832 1011.41 473.93 C 1010.99 491.046 1010.82 508.167 1010.9 525.288 C 996.674 513.287 983.079 501.327 968.611 489.35 C 972.226 474.281 974.506 465.99 980.781 451.713 z" fill="rgb(255,255,255)" transform="translate(0,0)"></path>
<path d="M 1001.31 390.08 C 1006.22 393.777 1007.97 395.583 1012.1 399.888 C 1012.23 415.094 1012.18 430.301 1011.96 445.506 C 1005.71 441.771 995.809 434.114 989.623 429.625 C 992.961 415.218 995.94 403.829 1001.31 390.08 z" fill="rgb(255,255,255)" transform="translate(0,0)"></path>
<path d="M 428.944 987.508 C 434.566 997.365 439.273 1001.98 447.335 1010.03 L 395.609 1010.8 C 395.07 1007.37 392.842 1003.82 391.158 1000.66 L 428.944 987.508 z" fill="rgb(255,255,255)" transform="translate(0,0)"></path>
<path d="M 1011.89 343.685 C 1012.33 353.258 1012.39 361.475 1012.28 371.046 C 1004.38 363.203 1008.1 353.088 1011.89 343.685 z" fill="rgb(255,255,255)" transform="translate(0,0)"></path>
<path d="M 1756.34 1037 C 1766.58 1035.21 1776.83 1033.49 1787.1 1031.87 C 1786.51 1193.65 1733.24 1350.84 1635.35 1479.65 C 1493.65 1667.99 1276.81 1783.63 1039.78 1786.75 C 1039.69 1775.2 1039.25 1761.1 1039.73 1749.75 C 1039.79 1734.9 1039.62 1720.05 1039.21 1705.21 C 1037.93 1695.01 1037.71 1687 1038.65 1676.79 C 1039.04 1668.76 1038.48 1657.47 1038.32 1649.2 C 1037.22 1640.72 1038.02 1613.04 1038.14 1602.95 L 1038.2 1574.26 C 1037.79 1557.11 1038.16 1539.22 1038.28 1522.01 L 1038.13 1510.3 C 1036.4 1484.57 1037.91 1450.3 1037.79 1423.48 C 1037.38 1357.84 1037.5 1292.19 1038.17 1226.55 C 1077.26 1222.67 1114.5 1207.95 1145.67 1184.05 C 1193.54 1147.45 1218.24 1096.64 1226.29 1037.98 C 1278.45 1037.65 1330.6 1037.66 1382.76 1038.01 C 1423.33 1037.97 1465.04 1036.89 1505.29 1037.17 C 1508.98 1037.17 1514.32 1037 1517.87 1037.23 C 1534.32 1037.07 1552.13 1036.62 1568.41 1037.78 C 1579 1037.27 1591.95 1037.48 1602.67 1037.4 C 1610.05 1037.37 1639.13 1036.86 1645.19 1038.45 C 1670.78 1039.21 1697.32 1038.13 1723.06 1038.87 C 1733.65 1039.18 1745.5 1037.18 1756.34 1037 z" fill="rgb(255,255,255)" transform="translate(0,0)"></path>
<path d="M 1226.29 1037.98 C 1278.45 1037.65 1330.6 1037.66 1382.76 1038.01 C 1423.33 1037.97 1465.04 1036.89 1505.29 1037.17 C 1501.49 1039.95 1496.66 1043.51 1493.28 1046.74 C 1502.7 1062.91 1519.35 1076 1531.61 1091.52 C 1520.9 1097.04 1510.05 1102.29 1499.09 1107.28 L 1497.94 1106.38 C 1488.53 1098.94 1457.46 1066.25 1452.31 1065.05 C 1444.53 1066.77 1439.27 1072.71 1433.25 1078.11 C 1438.75 1087.02 1464.79 1109.87 1474.27 1119.68 C 1463.1 1125.27 1450.18 1131.22 1440.27 1138.61 C 1433.92 1132.25 1400.12 1095.88 1394.74 1095.89 C 1387.52 1095.91 1379.33 1104.1 1374.63 1109 C 1385.54 1123.53 1405.07 1137.44 1417.73 1150.62 C 1406.27 1157.93 1394.98 1165.48 1383.85 1173.28 C 1376.61 1166.44 1345.76 1134.84 1340.65 1131.66 C 1333.35 1131.94 1324.65 1141.29 1321.01 1147.16 C 1332.21 1160.86 1350.33 1174.92 1363.61 1187.26 C 1352.28 1195.33 1340.9 1203.55 1329.49 1211.48 C 1315.63 1199.13 1300.07 1179.48 1289.6 1170.55 C 1280.66 1175.22 1274.31 1180.04 1268.41 1188.5 C 1280.49 1202.04 1296.85 1212.38 1310.24 1227.32 C 1299.55 1237.47 1287.86 1249.02 1276.83 1258.61 C 1267.8 1248.89 1251.24 1230.48 1242.05 1219.46 C 1241.41 1219.33 1240.76 1219.19 1240.12 1219.06 C 1232.93 1221.66 1225.03 1229.89 1220.65 1236.06 C 1231.77 1247.84 1250.17 1264.87 1259.28 1276.96 C 1248.56 1287.55 1239.49 1298.76 1229.98 1310.44 C 1221.44 1298.6 1207.06 1277.49 1197.51 1267.6 C 1192.75 1270.89 1180.58 1280.87 1179.93 1286.5 C 1192.61 1301.38 1201.77 1312.72 1213.69 1328.37 C 1204.83 1339.19 1197.47 1351.09 1188.9 1361.49 C 1172.36 1341.49 1154.13 1302.92 1137.84 1342.89 C 1152.67 1356.63 1163.9 1366.9 1175.23 1383.78 C 1169.1 1394.12 1159.26 1411.75 1152.29 1421.08 C 1146.08 1412.62 1125.29 1385.51 1117.4 1381.18 C 1112.07 1382.71 1106.46 1392.6 1103.68 1397.6 C 1103.28 1398.32 1102.9 1399.05 1102.52 1399.78 C 1109.72 1409.12 1132.24 1432.14 1141.17 1440.6 C 1133.98 1454.11 1126.24 1468.17 1119.59 1481.88 C 1113.37 1472.48 1107.13 1464.45 1099.98 1455.84 C 1082.56 1434.83 1076.92 1431.8 1063.95 1458.42 C 1069.94 1463.99 1075.67 1467.77 1081.32 1473.21 C 1091.16 1482.69 1099.94 1492.91 1109.96 1502.31 C 1104.04 1516.63 1097.95 1527.3 1091.85 1540.7 C 1083.54 1529.14 1073.16 1516.87 1063.06 1506.84 C 1050.82 1494.69 1045.46 1497.55 1038.13 1510.3 C 1036.4 1484.57 1037.91 1450.3 1037.79 1423.48 C 1037.38 1357.84 1037.5 1292.19 1038.17 1226.55 C 1077.26 1222.67 1114.5 1207.95 1145.67 1184.05 C 1193.54 1147.45 1218.24 1096.64 1226.29 1037.98 z" fill="rgb(255,255,255)" transform="translate(0,0)"></path>
<path d="M 1645.19 1038.45 C 1670.78 1039.21 1697.32 1038.13 1723.06 1038.87 C 1733.65 1039.18 1745.5 1037.18 1756.34 1037 C 1748.65 1039.45 1741.96 1041.51 1733.86 1042.24 C 1726.71 1067.28 1719.87 1092.93 1711.07 1117.39 C 1708.47 1124.61 1694.23 1117.75 1690.47 1115.57 C 1696.53 1086.31 1702.25 1073.04 1710.07 1045.98 C 1701.05 1048.58 1691.51 1051.11 1682.81 1054.52 C 1679.08 1067.74 1664.31 1130.2 1655.92 1134.94 C 1653.06 1136.55 1647.38 1135.64 1644.53 1134.37 C 1642.37 1133.41 1640.36 1131.22 1638.83 1129.48 C 1645 1106.78 1652.91 1083.01 1658.38 1060.47 L 1625.05 1072.04 C 1624.84 1083.75 1611.98 1141.49 1604.91 1150.19 C 1601.75 1152.17 1595.44 1151.44 1591.56 1151.17 C 1588.52 1149.06 1588.73 1149.23 1587.2 1145.85 C 1586.95 1129.37 1596.34 1100.24 1599.1 1080.97 C 1586.74 1084.91 1574.48 1089.13 1562.31 1093.62 C 1562.18 1120.97 1558.63 1141.66 1556.7 1168.03 C 1551.77 1172.77 1550.63 1173.55 1543.68 1173.25 C 1540.87 1173.13 1538.77 1172.51 1536.76 1170.4 C 1532.14 1165.54 1539.35 1114.4 1539.18 1104.01 C 1528.31 1108.43 1516.47 1114.77 1505.88 1120.11 C 1506.24 1132.74 1506.9 1193.7 1503.43 1196.35 C 1473.54 1219.18 1484.88 1166.12 1483.15 1151.53 C 1482.9 1149.38 1483.63 1131.73 1483.71 1129.83 C 1471.43 1135.92 1460.18 1142.72 1448.68 1150.15 C 1452.28 1172.77 1453.26 1197.26 1455.51 1220.27 C 1456.36 1229.06 1441.22 1231.76 1435.79 1226.74 C 1430.15 1216.74 1428.37 1168.61 1427.96 1160.44 C 1415.88 1167.98 1402.76 1177.1 1390.87 1184.12 C 1397.85 1203.19 1402.69 1231.55 1409.18 1252.93 C 1384.32 1284.2 1376.91 1213.84 1372.1 1197.87 C 1360.99 1205.74 1350.51 1213.2 1339.77 1221.56 C 1346.76 1239.93 1358.69 1268.61 1364.15 1286.7 C 1354.25 1294.98 1347.26 1298.17 1340.27 1284.43 C 1332.67 1269.48 1326.44 1253.92 1319.95 1238.46 C 1309.8 1247.89 1295.93 1259.59 1286.68 1269 C 1295.65 1278.67 1328.15 1309.46 1326.62 1321.4 C 1324.32 1322.91 1324.98 1322.54 1322.43 1323.48 C 1316.77 1331.95 1308.99 1327.24 1303.17 1321.53 C 1291.72 1310.3 1281.31 1297.68 1269.84 1286.46 C 1262.15 1295.78 1244.84 1312.91 1239.75 1321.34 C 1252.76 1326.51 1284.59 1337.36 1292.26 1350.21 C 1296.51 1357.34 1288.86 1366.04 1279.71 1366.4 C 1259.15 1355.73 1245.5 1348.78 1222.54 1342.55 C 1215.91 1350.71 1206.39 1362.43 1201.16 1371.35 C 1223.08 1375.61 1237.5 1380.84 1258.38 1388.15 L 1263.02 1396.06 C 1260.31 1400.73 1258.37 1404.95 1254.29 1408.39 C 1245.56 1410.08 1229.92 1402.45 1221.22 1399.7 C 1210.89 1396.43 1199.9 1393.8 1189.69 1390.47 C 1180.57 1402.83 1171.8 1414.98 1165.22 1428.97 C 1178.52 1429.05 1224.26 1427.08 1229.06 1441.47 C 1228.7 1446.58 1223.91 1452.76 1220.9 1457.24 C 1194.8 1451.19 1178.1 1450.98 1151.53 1449.8 C 1145.71 1462.75 1140.85 1471.06 1134.14 1483.45 C 1146.73 1482.22 1197.62 1471.58 1200.11 1489.52 C 1200.81 1494.54 1195.12 1501.51 1192.05 1505.63 C 1167.7 1500.37 1148.09 1504.2 1123.52 1507.25 C 1118.14 1517.77 1111.46 1530.4 1107.09 1541.16 C 1129.48 1535.51 1142.95 1532.59 1166.27 1530.78 C 1170.25 1534.37 1172.41 1536.2 1175.83 1540.41 C 1173.13 1546.96 1171.85 1549.57 1168.21 1555.64 C 1149.6 1553.77 1115.5 1560.71 1097.03 1566.17 C 1092.63 1578.12 1088.3 1590.11 1084.06 1602.12 C 1097.38 1596.46 1142.85 1575.64 1154.14 1590.06 C 1156.42 1592.97 1149.99 1603.74 1148.11 1607.27 C 1117.69 1610.15 1103.56 1618.49 1075.82 1624.81 C 1072.02 1636.75 1068.23 1649.67 1063.44 1661.17 L 1064.91 1660.67 C 1080.06 1655.36 1128.18 1626.31 1136.34 1644.48 C 1135.79 1650.14 1133.77 1655.69 1132.09 1661.17 C 1106.81 1665.55 1082.13 1672.88 1058.56 1682.99 C 1055.51 1696.46 1052.95 1706.86 1048.54 1720.12 C 1061.31 1712.58 1075.49 1703.79 1089.09 1699.37 C 1098.09 1696.45 1114.5 1688.83 1120.79 1697.26 C 1123.03 1700.26 1119.17 1710.26 1118.14 1713.5 C 1096.42 1721.9 1068.67 1728 1045.79 1736.02 C 1044.95 1742.46 1045.66 1746.13 1039.73 1749.75 C 1039.79 1734.9 1039.62 1720.05 1039.21 1705.21 C 1037.93 1695.01 1037.71 1687 1038.65 1676.79 C 1039.04 1668.76 1038.48 1657.47 1038.32 1649.2 C 1037.22 1640.72 1038.02 1613.04 1038.14 1602.95 L 1038.2 1574.26 C 1037.79 1557.11 1038.16 1539.22 1038.28 1522.01 L 1038.13 1510.3 C 1045.46 1497.55 1050.82 1494.69 1063.06 1506.84 C 1073.16 1516.87 1083.54 1529.14 1091.85 1540.7 C 1097.95 1527.3 1104.04 1516.63 1109.96 1502.31 C 1099.94 1492.91 1091.16 1482.69 1081.32 1473.21 C 1075.67 1467.77 1069.94 1463.99 1063.95 1458.42 C 1076.92 1431.8 1082.56 1434.83 1099.98 1455.84 C 1107.13 1464.45 1113.37 1472.48 1119.59 1481.88 C 1126.24 1468.17 1133.98 1454.11 1141.17 1440.6 C 1132.24 1432.14 1109.72 1409.12 1102.52 1399.78 C 1102.9 1399.05 1103.28 1398.32 1103.68 1397.6 C 1106.46 1392.6 1112.07 1382.71 1117.4 1381.18 C 1125.29 1385.51 1146.08 1412.62 1152.29 1421.08 C 1159.26 1411.75 1169.1 1394.12 1175.23 1383.78 C 1163.9 1366.9 1152.67 1356.63 1137.84 1342.89 C 1154.13 1302.92 1172.36 1341.49 1188.9 1361.49 C 1197.47 1351.09 1204.83 1339.19 1213.69 1328.37 C 1201.77 1312.72 1192.61 1301.38 1179.93 1286.5 C 1180.58 1280.87 1192.75 1270.89 1197.51 1267.6 C 1207.06 1277.49 1221.44 1298.6 1229.98 1310.44 C 1239.49 1298.76 1248.56 1287.55 1259.28 1276.96 C 1250.17 1264.87 1231.77 1247.84 1220.65 1236.06 C 1225.03 1229.89 1232.93 1221.66 1240.12 1219.06 C 1240.76 1219.19 1241.41 1219.33 1242.05 1219.46 C 1251.24 1230.48 1267.8 1248.89 1276.83 1258.61 C 1287.86 1249.02 1299.55 1237.47 1310.24 1227.32 C 1296.85 1212.38 1280.49 1202.04 1268.41 1188.5 C 1274.31 1180.04 1280.66 1175.22 1289.6 1170.55 C 1300.07 1179.48 1315.63 1199.13 1329.49 1211.48 C 1340.9 1203.55 1352.28 1195.33 1363.61 1187.26 C 1350.33 1174.92 1332.21 1160.86 1321.01 1147.16 C 1324.65 1141.29 1333.35 1131.94 1340.65 1131.66 C 1345.76 1134.84 1376.61 1166.44 1383.85 1173.28 C 1394.98 1165.48 1406.27 1157.93 1417.73 1150.62 C 1405.07 1137.44 1385.54 1123.53 1374.63 1109 C 1379.33 1104.1 1387.52 1095.91 1394.74 1095.89 C 1400.12 1095.88 1433.92 1132.25 1440.27 1138.61 C 1450.18 1131.22 1463.1 1125.27 1474.27 1119.68 C 1464.79 1109.87 1438.75 1087.02 1433.25 1078.11 C 1439.27 1072.71 1444.53 1066.77 1452.31 1065.05 C 1457.46 1066.25 1488.53 1098.94 1497.94 1106.38 L 1499.09 1107.28 C 1510.05 1102.29 1520.9 1097.04 1531.61 1091.52 C 1519.35 1076 1502.7 1062.91 1493.28 1046.74 C 1496.66 1043.51 1501.49 1039.95 1505.29 1037.17 C 1508.98 1037.17 1514.32 1037 1517.87 1037.23 C 1534.32 1037.07 1552.13 1036.62 1568.41 1037.78 C 1579 1037.27 1591.95 1037.48 1602.67 1037.4 C 1610.05 1037.37 1639.13 1036.86 1645.19 1038.45 z" fill="rgb(150,17,25)" transform="translate(0,0)"></path>
<path d="M 1038.28 1522.01 C 1046.48 1524.94 1074.13 1553.78 1082.52 1562.08 C 1078.24 1574.31 1074.1 1586.59 1070.1 1598.92 C 1061.94 1592 1046.91 1578.46 1038.2 1574.26 C 1037.79 1557.11 1038.16 1539.22 1038.28 1522.01 z" fill="rgb(255,255,255)" transform="translate(0,0)"></path>
<path d="M 1517.87 1037.23 C 1534.32 1037.07 1552.13 1036.62 1568.41 1037.78 C 1577.53 1047.05 1586.44 1059.05 1596.39 1069.28 C 1580.41 1073.04 1573.29 1074.68 1558.44 1081.8 C 1547.66 1071.38 1526.5 1049.3 1517.87 1037.23 z" fill="rgb(255,255,255)" transform="translate(0,0)"></path>
<path d="M 1038.14 1602.95 C 1046.08 1610 1053.68 1615.57 1061.63 1622.27 C 1059.22 1634.84 1054.29 1646.55 1052.23 1658.69 C 1046.09 1655.35 1043.8 1653.5 1038.32 1649.2 C 1037.22 1640.72 1038.02 1613.04 1038.14 1602.95 z" fill="rgb(255,255,255)" transform="translate(0,0)"></path>
<path d="M 1602.67 1037.4 C 1610.05 1037.37 1639.13 1036.86 1645.19 1038.45 L 1654.42 1049.32 C 1642.82 1052.47 1631.29 1055.87 1619.84 1059.52 C 1614.67 1052.48 1606.01 1045.12 1601.48 1038.34 L 1602.67 1037.4 z" fill="rgb(255,255,255)" transform="translate(0,0)"></path>
<path d="M 1038.65 1676.79 L 1044.15 1683.47 C 1043.11 1688.59 1040.91 1700.92 1039.21 1705.21 C 1037.93 1695.01 1037.71 1687 1038.65 1676.79 z" fill="rgb(255,255,255)" transform="translate(0,0)"></path>
<path d="M 277.819 1092.58 C 289.012 1091.7 303.325 1091.68 314.548 1091.83 C 488.189 1093.99 654.011 1164.37 776.206 1287.76 C 876.507 1391.88 938.477 1526.97 951.968 1670.91 C 955.935 1711.13 955.163 1744.75 954.61 1785.1 L 941.764 1783.65 C 793.36 1763.36 666.346 1713.02 548.007 1621.2 C 430.556 1528.25 343.629 1402.25 298.425 1259.45 C 281.413 1205.35 269.565 1149.77 263.04 1093.44 L 277.819 1092.58 z" fill="rgb(255,255,255)" transform="translate(0,0)"></path>
<path d="M 575.714 1307.22 C 645.627 1298.92 708.967 1349.03 716.985 1418.98 C 725.003 1488.92 674.644 1552.06 604.667 1559.8 C 535.083 1567.5 472.375 1517.48 464.402 1447.93 C 456.43 1378.38 506.194 1315.47 575.714 1307.22 z" fill="rgb(14,32,63)" transform="translate(0,0)"></path>
<path d="M 559.107 1324.78 C 590.073 1316.5 619.999 1320.61 647.875 1336.67 C 674.656 1352.31 694.067 1378.01 701.78 1408.05 C 704.046 1416.74 704.795 1422.42 705.479 1431.17 C 705.464 1435.83 705.319 1439.03 704.875 1443.66 C 699.429 1500.43 662.304 1533.93 608.441 1545.05 L 604.245 1545.65 C 561.646 1550.71 503.696 1520.03 486.285 1480.24 C 483.545 1476.66 481.348 1470.07 480.262 1465.67 C 476.916 1449.71 474.996 1433.57 477.322 1417.33 C 481.153 1388.78 496.353 1362.97 519.475 1345.78 L 523.435 1343.02 C 525.974 1340.85 528.852 1338.87 531.573 1336.91 C 534.718 1334.83 536.339 1334.25 539.859 1332.77 C 543.742 1330.82 544.662 1330.39 548.801 1329.21 C 551.973 1327.54 555.751 1326.13 559.107 1324.78 z" fill="rgb(255,255,255)" transform="translate(0,0)"></path>
<path d="M 697.223 1440.3 C 694.739 1435.41 684.939 1418.5 686.748 1414.23 C 694.071 1411.15 692.655 1415.13 696.149 1420.51 C 698.27 1423.77 701.282 1432.58 704.974 1433.94 L 705.479 1431.17 C 705.464 1435.83 705.319 1439.03 704.875 1443.66 L 697.223 1440.3 z" fill="rgb(150,17,25)" transform="translate(0,0)"></path>
<path d="M 523.435 1343.02 C 531.187 1345.07 544.589 1351.43 548.887 1358.74 L 548.824 1360.93 C 542.088 1364.35 524.136 1350.8 519.475 1345.78 L 523.435 1343.02 z" fill="rgb(150,17,25)" transform="translate(0,0)"></path>
<path d="M 604.245 1545.65 C 597.695 1542.86 581.845 1536.69 578.879 1530.75 L 579.649 1528.96 C 587.118 1526.26 604.315 1536.94 608.441 1545.05 L 604.245 1545.65 z" fill="rgb(150,17,25)" transform="translate(0,0)"></path>
<path d="M 480.262 1465.67 C 487.983 1469.32 501.129 1481.69 500.861 1490.55 C 494.492 1490.5 492.238 1484.18 486.285 1480.24 C 483.545 1476.66 481.348 1470.07 480.262 1465.67 z" fill="rgb(150,17,25)" transform="translate(0,0)"></path>
<path d="M 531.573 1336.91 C 534.718 1334.83 536.339 1334.25 539.859 1332.77 C 546.7 1336.92 550.633 1339.37 557.952 1342.43 L 554.004 1349.9 L 531.573 1336.91 z" fill="rgb(150,17,25)" transform="translate(0,0)"></path>
<path d="M 548.801 1329.21 C 551.973 1327.54 555.751 1326.13 559.107 1324.78 C 563.333 1326.76 563.153 1325.93 565.56 1329.22 C 564.688 1337.26 552.421 1331.17 548.801 1329.21 z" fill="rgb(150,17,25)" transform="translate(0,0)"></path>
<path d="M 600.401 1481.42 C 605.532 1485.01 619.512 1497.3 625.128 1501.95 C 625.634 1504.43 624.218 1505.54 622.575 1508.47 C 614.706 1502.08 605.427 1495.69 597.21 1489.2 C 596.878 1486.67 598.898 1484.24 600.401 1481.42 z" fill="rgb(150,17,25)" transform="translate(0,0)"></path>
<path d="M 647.018 1433.99 C 652.401 1440.47 659.678 1451.72 664.503 1458.97 C 663.385 1461.72 662.353 1461.8 659.644 1463.94 C 655.231 1458.73 644.333 1444.98 641.207 1439.52 C 642.506 1436.38 643.711 1436.38 647.018 1433.99 z" fill="rgb(150,17,25)" transform="translate(0,0)"></path>
<path d="M 609.051 1469.57 C 613.919 1470.78 629.399 1485.73 633.368 1490.03 C 633.516 1493.29 632.603 1493.44 630.549 1496.83 C 623.245 1489.99 614.343 1482.74 606.69 1475.98 C 606.154 1473.15 607.162 1472.86 609.051 1469.57 z" fill="rgb(150,17,25)" transform="translate(0,0)"></path>
<path d="M 659.149 1425.6 C 664.601 1428.01 675.752 1444.97 675.368 1451.36 C 675.276 1452.88 672.898 1454.71 671.787 1455.83 C 669.663 1453.33 654.795 1431.19 654.893 1429.16 L 659.149 1425.6 z" fill="rgb(150,17,25)" transform="translate(0,0)"></path>
<path d="M 674.369 1417.65 C 678.211 1421.67 687.843 1435.97 689.202 1442.08 C 689.844 1444.97 687.911 1446.17 685.981 1448.37 C 679.965 1440.45 673.204 1432.73 669.954 1423.42 C 670.6 1419.55 670.303 1420.84 674.369 1417.65 z" fill="rgb(150,17,25)" transform="translate(0,0)"></path>
<path d="M 485.485 1450.66 C 493.547 1457.48 500.782 1463.62 509.099 1470.25 C 509.105 1473.09 507.762 1474.36 506.182 1477.25 C 503.525 1475.39 500.928 1473.44 498.397 1471.4 C 494.801 1468.5 482.095 1458.77 481.675 1454.68 L 485.485 1450.66 z" fill="rgb(150,17,25)" transform="translate(0,0)"></path>
<path d="M 619.816 1457.35 C 623.464 1459.07 639.137 1474.19 642.491 1477.41 C 642.684 1480.96 641.886 1480.79 639.534 1484.54 C 636.379 1482.33 618.128 1465.43 616.608 1462.48 L 619.816 1457.35 z" fill="rgb(150,17,25)" transform="translate(0,0)"></path>
<path d="M 592.426 1495.5 C 599.185 1500.38 612.493 1509.1 616.948 1516 C 617.742 1517.23 616.375 1519.91 615.769 1521.75 C 613.199 1520.47 594.431 1506.62 590.981 1504.14 C 589.953 1501.34 591.424 1498.56 592.426 1495.5 z" fill="rgb(150,17,25)" transform="translate(0,0)"></path>
<path d="M 516.249 1373.28 C 519.597 1374.01 541.21 1387.2 543.471 1389.81 L 542.883 1395.84 C 536.525 1393.4 522.287 1386.84 517.843 1381.84 C 515.628 1379.35 516.043 1376.47 516.249 1373.28 z" fill="rgb(150,17,25)" transform="translate(0,0)"></path>
<path d="M 632.967 1445.73 C 636.381 1448.09 649.99 1463.75 652.841 1467.52 C 652.265 1470.17 651.122 1470.52 648.877 1472.84 C 646.055 1471.85 629.945 1453.6 629.366 1450.38 L 632.967 1445.73 z" fill="rgb(150,17,25)" transform="translate(0,0)"></path>
<path d="M 519.503 1357.22 C 528.36 1362.36 537.361 1368.14 546.183 1373.47 C 547.389 1376.47 546.68 1376.57 545.87 1380.39 C 540.823 1379.16 524.285 1369.76 520.365 1365.17 C 518.135 1362.55 519.114 1360.7 519.503 1357.22 z" fill="rgb(150,17,25)" transform="translate(0,0)"></path>
<path d="M 491.937 1437.83 L 492.622 1438.53 C 499.93 1446.09 509.548 1449.81 514.274 1458.25 C 515.581 1460.58 513.627 1463.53 512.533 1465.9 C 505.388 1455.89 496.532 1454.29 489.967 1444.46 C 489.474 1440.64 489.56 1441.92 491.937 1437.83 z" fill="rgb(150,17,25)" transform="translate(0,0)"></path>
<path d="M 509.824 1402.42 C 515.329 1404.89 529.92 1415 534.802 1418.69 C 535.939 1421.29 534.945 1421.7 533.534 1425.37 C 528.614 1425.18 514.013 1413.78 510.44 1409.69 C 508.369 1407.33 509.336 1405.48 509.824 1402.42 z" fill="rgb(150,17,25)" transform="translate(0,0)"></path>
<path d="M 513.85 1389.34 C 519.056 1391.49 535 1400.97 539.703 1404.18 C 540.117 1406.95 539.279 1407.62 538.129 1410.65 C 533.69 1410.37 518.248 1400.23 514.528 1396.51 C 512.394 1394.38 513.401 1392.33 513.85 1389.34 z" fill="rgb(150,17,25)" transform="translate(0,0)"></path>
<path d="M 504.763 1414.89 C 510.731 1418.6 524.211 1428.35 529.237 1432.84 C 529.51 1435.76 528.337 1436.41 526.501 1439.56 C 520.081 1434.03 507.297 1426.75 503.128 1420.07 C 502.568 1419.18 504.181 1416.26 504.763 1414.89 z" fill="rgb(150,17,25)" transform="translate(0,0)"></path>
<path d="M 586.434 1511.79 C 594.295 1516.04 606.27 1521.83 612.747 1528.19 C 614.601 1530.01 613.804 1531.01 613.43 1533.82 C 605.816 1530.69 592.54 1523.18 585.633 1518.96 C 584.45 1516 585.32 1515.68 586.434 1511.79 z" fill="rgb(150,17,25)" transform="translate(0,0)"></path>
<path d="M 498.203 1427.32 C 503.8 1430.21 517.971 1439.36 521.105 1445.03 C 522.636 1447.8 521.276 1449.35 520.113 1452.19 C 512.587 1444.93 502.698 1440.47 496.957 1432.88 C 496.198 1431.87 497.64 1428.96 498.203 1427.32 z" fill="rgb(150,17,25)" transform="translate(0,0)"></path>
<path d="M 1001.7 846.365 C 1003.16 846.072 1009.63 845.7 1011.48 845.55 C 1011.66 863.925 1011.67 882.301 1011.53 900.676 C 1021.95 900.13 1028.99 901.21 1039.17 903.026 L 1039.62 846.639 C 1041.37 846.749 1043.12 846.909 1044.86 847.118 C 1081.3 851.464 1129.38 871.602 1152.53 901.063 C 1152.47 902.443 1152.24 907.786 1152.75 908.507 C 1162.49 922.437 1175.19 925.503 1183.61 941.765 C 1196.45 966.577 1200.67 983.43 1204.13 1009.98 C 1189.54 1010.23 1174.38 1010.02 1159.75 1010.03 L 1160.03 1038.83 C 1174.45 1039.16 1190.09 1038.2 1204.95 1038.31 C 1202.53 1064.56 1194.22 1089.92 1180.63 1112.52 C 1153.31 1158 1111.42 1187.98 1060.24 1200.83 C 1053.16 1202.45 1045.37 1203.61 1038.16 1204.82 C 1037.81 1191.91 1038.02 1177.97 1037.98 1164.97 C 1027.95 1165.53 1020.17 1165.6 1010.17 1165.46 C 1010.28 1178.76 1010.3 1192.05 1010.22 1205.35 C 917.397 1194.55 856.225 1131.27 841.785 1039.99 L 885.919 1039.92 L 885.743 1011.57 C 871.39 1011.6 857.037 1011.53 842.685 1011.34 C 844.034 975.99 858.799 943.967 879.548 915.765 C 908.916 875.849 952.957 853.119 1001.7 846.365 z" fill="rgb(255,255,255)" transform="translate(0,0)"></path>
<path d="M 1011.06 953.957 C 1020.98 955.535 1028.23 956.122 1038.16 956.817 C 1038.22 964.175 1037.65 1007 1040.65 1010.27 C 1041.8 1009.61 1043.13 1008.85 1044.64 1007.98 C 1051.27 1010.11 1052.47 1010.29 1059.12 1009.45 C 1062.79 1009.47 1066.46 1009.51 1070.12 1009.58 C 1074.9 1009.97 1076.11 1009.94 1080.86 1009.32 L 1089.61 1008.7 C 1097.05 1009.52 1108.52 1008.99 1116.29 1008.86 C 1116.34 1015.87 1117.77 1033.51 1114.58 1038.57 C 1111.7 1039.65 1111.65 1039.4 1108.51 1039.14 C 1097.4 1040.15 1070.02 1038.91 1063.01 1040.07 C 1060.73 1046.48 1060.02 1048.4 1056.57 1054.4 L 1042.88 1040.34 L 1038.46 1037.78 C 1036.98 1055.9 1037.94 1085.84 1037.98 1105.24 C 1027.51 1104.51 1020.77 1104.32 1010.31 1104.78 C 1010.37 1095.46 1011.94 1045.43 1009.49 1040.61 C 1005.55 1039.2 1003.49 1039.55 999.203 1039.61 C 995.839 1039.36 990.5 1039.71 986.98 1039.84 L 976.791 1039.99 L 969.095 1039.98 C 955.09 1039.94 940.988 1039.72 927.016 1040.6 L 926.874 1011.53 C 949.806 1011.94 972.745 1011.89 995.675 1011.37 C 995.467 1005.06 994.139 994.301 999.261 990.077 C 1003.71 993.976 999.143 1006.94 1005.9 1012.32 C 1009.14 1011.97 1007.59 1012.47 1010.51 1010.28 C 1011.95 998.742 1011.08 966.96 1011.06 953.957 z" fill="rgb(14,32,63)" transform="translate(0,0)"></path>
<path d="M 1042.88 1040.34 C 1049.41 1040.23 1056.53 1039.97 1063.01 1040.07 C 1060.73 1046.48 1060.02 1048.4 1056.57 1054.4 L 1042.88 1040.34 z" fill="rgb(14,32,63)" transform="translate(0,0)"></path>
<path d="M 1038.46 1037.78 C 1060.37 1039.58 1089.4 1037.08 1108.51 1039.14 C 1097.4 1040.15 1070.02 1038.91 1063.01 1040.07 C 1056.53 1039.97 1049.41 1040.23 1042.88 1040.34 L 1038.46 1037.78 z" fill="rgb(54,58,89)" transform="translate(0,0)"></path>
<path d="M 1092.72 961.683 C 1098.04 965.956 1113.16 981.563 1116.31 987.141 C 1115.12 990.528 1114.22 990.421 1111.09 993.197 C 1106.09 989.051 1091.14 973.409 1087.79 968.059 C 1088.48 965.13 1090.24 964.24 1092.72 961.683 z" fill="rgb(150,17,25)" transform="translate(0,0)"></path>
<path d="M 1115.92 938.484 C 1120.99 941.066 1136.92 959.28 1141.43 964.145 L 1135.4 970.176 L 1134.6 970.437 C 1129.11 964.477 1114.67 949.85 1112.13 944.336 C 1112.45 940.82 1112.64 941.728 1115.92 938.484 z" fill="rgb(150,17,25)" transform="translate(0,0)"></path>
<path d="M 1141.17 915.703 C 1145.31 916.555 1161.37 936.531 1164.25 940.929 C 1163.63 944.133 1162.31 944.633 1159.77 947.51 L 1158.73 947.418 C 1151.51 938.401 1143.27 930.034 1135.87 920.878 C 1136.58 918.382 1138.56 917.693 1141.17 915.703 z" fill="rgb(150,17,25)" transform="translate(0,0)"></path>
<path d="M 1128.36 925.435 C 1136.05 933.626 1145.97 943.459 1152.73 952.122 C 1152.46 955.263 1150.76 956.297 1148.41 959.312 L 1147.62 959.551 C 1143.18 955.171 1127.31 937.698 1125.35 932.448 C 1125.69 928.304 1125.77 929.374 1128.36 925.435 z" fill="rgb(150,17,25)" transform="translate(0,0)"></path>
<path d="M 1103.97 949.796 C 1107.03 952.158 1125.6 971.983 1129.44 975.949 L 1123.89 982.798 L 1122.9 982.581 C 1116.04 973.72 1106.94 964.997 1099.01 956.946 C 1099.84 953.57 1101.42 952.653 1103.97 949.796 z" fill="rgb(150,17,25)" transform="translate(0,0)"></path>
<path d="M 949.178 1058.64 C 951.212 1059.5 969.427 1081.74 972.204 1085.01 C 971.755 1087.24 969.679 1088.38 967.582 1090.31 C 966.146 1090.98 966.995 1090.82 964.988 1090.35 C 958.94 1083.46 948.709 1072.03 944.143 1064.41 C 944.799 1062.02 947.012 1060.69 949.178 1058.64 z" fill="rgb(150,17,25)" transform="translate(0,0)"></path>
<path d="M 923.946 1079.77 C 926.21 1081.46 944.173 1104.26 946.451 1107.56 C 946.011 1110.37 943.701 1111.93 941.513 1114.04 C 936.733 1109.09 922.413 1091.55 918.555 1086.03 C 919.216 1083.17 921.576 1081.78 923.946 1079.77 z" fill="rgb(150,17,25)" transform="translate(0,0)"></path>
<path d="M 897.598 1101.64 C 899.723 1102.63 918.708 1125.65 921.548 1129.06 C 921.344 1132.24 920.263 1132.47 917.848 1135.54 C 912.579 1131.66 896.426 1113.63 893.222 1108.04 C 893.752 1104.82 894.94 1104.56 897.598 1101.64 z" fill="rgb(150,17,25)" transform="translate(0,0)"></path>
<path d="M 1079.82 973.556 C 1084.23 976.256 1100.02 992.647 1104 997.032 C 1103.12 1000.09 1101.36 1000.89 1098.69 1003.48 C 1095.3 1004.02 1076.04 980.89 1075.7 977.857 L 1079.82 973.556 z" fill="rgb(150,17,25)" transform="translate(0,0)"></path>
<path d="M 910.064 1091.62 C 914.298 1093.9 930.096 1113.42 933.554 1118.29 C 933.153 1121.34 932.115 1121.51 929.662 1124.32 C 925.401 1121.9 908.954 1101.62 905.613 1096.73 C 906.262 1093.85 907.158 1094.02 910.064 1091.62 z" fill="rgb(150,17,25)" transform="translate(0,0)"></path>
<path d="M 885.789 1112.8 C 893.313 1121.98 902.836 1131.87 909.4 1141.47 C 909.65 1144.62 909.122 1144.04 906.394 1147.36 C 904.94 1146.25 903.529 1145.09 902.164 1143.88 C 897.184 1139.44 882.25 1124.05 882.141 1116.86 C 882.119 1115.47 884.441 1113.99 885.789 1112.8 z" fill="rgb(150,17,25)" transform="translate(0,0)"></path>
<path d="M 960.443 1047.54 C 962.098 1048.38 981.882 1071.23 984.627 1074.3 C 984.434 1077.16 983.364 1077.26 980.84 1079.98 C 976.167 1079.91 957.419 1057.52 957.411 1051.78 C 957.409 1050.36 959.503 1048.59 960.443 1047.54 z" fill="rgb(150,17,25)" transform="translate(0,0)"></path>
<path d="M 936.511 1069.77 C 939.759 1071.99 955.764 1092.45 958.376 1096.55 C 957.905 1099.5 956.673 1099.65 953.872 1102.26 C 948.107 1095.48 936.039 1082.29 931.732 1075.42 C 932.315 1072.56 933.766 1072.22 936.511 1069.77 z" fill="rgb(150,17,25)" transform="translate(0,0)"></path>
<path d="M 969.095 1039.98 L 976.791 1039.99 C 980.96 1045.63 995.277 1059.69 995.702 1064.74 L 993.6 1066.51 C 984.335 1066.63 970.859 1048.18 969.095 1039.98 z" fill="rgb(150,17,25)" transform="translate(0,0)"></path>
<path d="M 1080.86 1009.32 C 1076.15 1004.63 1063.37 993.453 1065.64 986.618 C 1074.09 986.262 1084.85 1002.34 1089.61 1008.7 L 1080.86 1009.32 z" fill="rgb(150,17,25)" transform="translate(0,0)"></path>
<path d="M 986.98 1039.84 C 990.5 1039.71 995.839 1039.36 999.203 1039.61 C 1002.49 1043.53 1005.43 1047.49 1008.51 1051.57 C 1006.9 1054.09 1004.77 1056.27 1002.76 1058.52 C 997.604 1052.2 992.342 1045.98 986.98 1039.84 z" fill="rgb(150,17,25)" transform="translate(0,0)"></path>
<path d="M 1059.12 1009.45 C 1056.73 1006.04 1054.88 1004.11 1054 1000.16 L 1054.64 998.362 C 1060.15 998.177 1066.59 1005.59 1070.12 1009.58 C 1066.46 1009.51 1062.79 1009.47 1059.12 1009.45 z" fill="rgb(150,17,25)" transform="translate(0,0)"></path>
<path d="M 987.532 183.426 C 993.735 182.94 1002.11 183.123 1008.5 183.089 C 1009.01 199.267 1008.61 215.772 1008.4 231.983 C 975.669 231.889 935.752 236.832 903.505 241.875 C 749.959 265.01 606.745 333.232 492.033 437.887 C 377.197 543.531 295.025 679.859 255.24 830.74 C 239.89 891.001 233.238 946.3 230.161 1008 L 204.5 1007.96 L 181.017 1007.92 C 181.17 970.543 186.856 925.674 193.181 888.843 C 219.948 728.165 292.273 578.547 401.566 457.762 C 526.551 320.243 693.486 227.891 876.395 195.078 C 914.69 188.266 949.074 185.601 987.532 183.426 z" fill="rgb(255,255,255)" transform="translate(0,0)"></path>
<path d="M 181.29 1039.98 L 229.828 1039.96 C 240.157 1242.37 308.808 1417.68 446.51 1567.2 C 480.575 1603.6 518.27 1636.42 559.007 1665.16 C 695.38 1763.04 842.277 1809.12 1009.18 1815.96 C 1009.5 1832.37 1009.45 1848.8 1009.03 1865.21 C 970.036 1864.88 920.696 1859.16 882.673 1852.61 C 715.08 1824.8 559.901 1746.7 437.719 1628.66 C 278.873 1473.3 186.88 1262.11 181.29 1039.98 z" fill="rgb(255,255,255)" transform="translate(0,0)"></path>
<path d="M 1851.32 1039.53 L 1866.71 1039.19 C 1864.39 1080.74 1860.85 1123.51 1854.01 1164.57 C 1833.76 1287.4 1785.65 1403.95 1713.38 1505.31 C 1697.63 1527.31 1681.93 1549.34 1663.95 1569.58 C 1613.26 1627.79 1555.56 1679.51 1492.17 1723.55 C 1397.38 1788.23 1271.4 1836.8 1158.31 1855 C 1124.73 1860.41 1087.91 1862.67 1053.85 1864.71 L 1040.03 1864.83 L 1040 1816.68 C 1198.37 1809.82 1336.77 1767.84 1468.12 1678.41 C 1499.02 1657.8 1528.37 1634.96 1555.96 1610.09 C 1681.42 1497.02 1767.42 1346.77 1801.39 1181.32 C 1810.62 1134.68 1816.14 1087.38 1817.9 1039.87 L 1851.32 1039.53 z" fill="rgb(255,255,255)" transform="translate(0,0)"></path>
<path d="M 632.175 1040.5 C 695.091 1039.65 758.68 1040.52 821.795 1039.94 C 823.712 1079 840.923 1118.12 864.998 1148.51 C 903.086 1196.59 950.457 1219.52 1010.12 1226.75 C 1011.15 1258.17 1010.17 1293.45 1010.41 1325.38 C 1011.15 1397.89 1011.25 1470.41 1010.69 1542.93 C 998.365 1505.14 983.611 1468.19 966.521 1432.3 C 952.377 1401.2 925.683 1358.5 905.412 1330.22 C 823.56 1215.68 711.2 1126.43 581.118 1072.61 C 545.298 1058.03 514.832 1047.54 476.745 1041.28 L 632.175 1040.5 z" fill="rgb(255,255,255)" transform="translate(0,0)"></path>
<path d="M 1771.49 147.023 C 1778.05 146.7 1783.12 149.576 1788.4 153.072 C 1805.52 164.411 1871.12 221.977 1874.29 240.191 C 1875.19 245.391 1873.79 250.411 1870.53 254.54 C 1867.38 258.531 1862.1 262.218 1856.94 262.769 C 1850.86 263.42 1845.94 259.308 1841.4 255.89 C 1831.2 264.463 1819.06 276.819 1809.19 286.195 C 1793.97 300.553 1778.65 314.803 1763.22 328.944 C 1709.36 378.352 1655.18 427.42 1600.7 476.143 C 1511.78 555.782 1420.9 634.573 1335.82 718.182 C 1308.27 745.262 1281.21 767.477 1256.72 797.529 C 1244.85 811.808 1223.87 851.72 1202.52 835.173 C 1178.8 816.779 1216.74 788.399 1229.45 775.327 C 1272.07 731.505 1312.7 686.12 1353.7 640.813 L 1767.93 182.276 C 1751.1 170.679 1753.05 155.385 1771.49 147.023 z" fill="rgb(14,32,63)" transform="translate(0,0)"></path>
<metadata><recraft-signature>{"signed_by": "recraft", "signature_b64": "82e0Pg58oZIta9GlqwSMrRYVXzcv9AcS6k6j7lowoaTbRtSfRW7nI+E39jJdom8S1zgM/kqhBXq0Rv04vrtQAw==", "signing_algo": "Ed25519", "generation_timestamp": 1777414344, "identifier": "2333b323-be79-4863-8caa-db2f65b0f06d"}</recraft-signature></metadata></svg>