<svg xmlns="http://www.w3.org/2000/svg" height="1024" preserveAspectRatio="none" style="display: block;" version="1.1" viewBox="0 0 2048 2048" width="1024">
<path d="M 0 0 L 2048 0 L 2048 2048 L 0 2048 L 0 0 z" fill="rgb(255,255,255)" transform="translate(0,0)"></path>
<path d="M 943.691 895.2 C 948.504 894.827 953.567 893.907 957.662 896.285 C 958.776 898.755 958.961 899.949 957.978 902.57 C 953.738 913.875 946.382 925.254 941.293 936.423 C 928.499 964.5 886.475 1064.44 892.674 1089.74 C 893.408 1092.74 894.918 1095.76 897.835 1097.17 C 901.345 1098.87 905.375 1097.67 908.634 1096.01 C 922.385 1088.98 935.998 1071.62 941.489 1057.36 C 944.703 1049.01 945.743 1039.3 947.66 1030.56 C 950.328 1018.7 953.415 1006.93 956.915 995.29 C 960.826 982.624 966.01 966.743 973.207 955.629 C 981.029 943.549 999.391 940.244 1012.46 944.903 C 1014.96 947.594 1014.38 947.735 1012.31 952.738 C 996.111 993.128 970.96 1040.98 979.419 1085.43 C 981.495 1096.34 991.396 1104.62 1001.83 1098.24 C 1023.15 1085.2 1037.71 1055.08 1046.45 1032.72 C 1056.88 1005.53 1062.03 975.727 1054.95 947.047 C 1052.94 939.758 1043.52 929.057 1048.98 921.423 C 1064.51 899.704 1088.86 929.705 1091.47 945.279 C 1097.82 983.041 1081.24 1026 1062.35 1057.72 C 1045.92 1085.31 1021.71 1120.38 989.73 1129.54 C 979.668 1132 967.627 1131.01 958.994 1125.08 C 945.75 1115.98 943.554 1104.88 940.485 1090.69 C 926.012 1106.08 890.774 1144.98 864.154 1122.36 C 855.719 1115.19 855.136 1100.3 855.077 1089.55 C 838.502 1111.64 807.612 1140.91 776.055 1124.43 C 765.188 1118.76 761.007 1106.92 758.134 1095.58 C 741.381 1109.42 722.632 1127.06 699.911 1128.78 C 673.326 1130.79 669.628 1109.73 668.895 1088.91 C 659.419 1097.07 650.889 1104.46 640.514 1111.53 C 609.878 1132.39 557.105 1140.54 533.889 1104.83 C 531.263 1099.48 530.096 1094.85 528.405 1089.16 C 521.158 1096.61 513.931 1104.49 506.083 1111.29 C 495.255 1120.69 479.159 1129.68 464.406 1128.14 C 457.119 1127.38 449.687 1123.78 445.346 1117.76 C 437.666 1107.1 439.675 1091.6 441.607 1079.38 C 444.925 1058.4 463.289 988.522 478.122 978.588 C 487.937 972.014 502.516 974.068 513.494 976.038 C 506.6 993.157 472.686 1083.3 482.374 1095.54 C 496.086 1103.92 517.758 1077.8 527.375 1068.53 C 533.022 1047.84 536.351 1033.31 549.925 1015.83 C 566.263 995.03 588.053 977.607 614.949 973.945 C 635.406 971.159 660.409 976.921 662.565 1001.4 C 665.861 1040.54 622.984 1055.62 592.386 1062.82 C 586.194 1064.28 572.257 1063.79 568.839 1067.99 C 567.731 1073.93 569.355 1079.51 571.443 1085.07 C 574.135 1092.22 579.098 1098.11 586.214 1101.14 C 598.47 1106.38 614.673 1103.02 626.633 1098.21 C 644.505 1091.02 666.046 1074.28 675.07 1057.03 C 679.945 1047.71 681.429 1034.58 684.314 1024.38 C 691.185 1000.1 698.523 975.549 708.514 952.333 C 717.254 932.022 727.367 910.083 749.34 901.55 C 754.418 899.578 763.124 896.489 768.278 899.139 C 774.182 902.175 764.077 917.202 762.164 920.948 C 747.946 948.792 701.082 1067.7 709.986 1093.96 C 710.781 1096.3 712.601 1098.5 714.943 1099.4 C 717.155 1100.24 719.496 1099.94 721.674 1099.17 C 735.138 1094.41 755.203 1076.51 761.84 1063.92 C 766.523 1055.04 768.23 1044.47 772.774 1035.34 C 785.049 1010.67 807.39 985.74 834.12 976.839 C 851.033 971.207 866.608 971.848 882.611 979.823 C 888.956 960.22 898.85 933.597 910.021 916.38 C 918.708 902.993 928.722 897.998 943.691 895.2 z" fill="rgb(28,50,71)" transform="translate(0,0)"></path>
<path d="M 861.817 995.237 C 863.692 995.524 865.553 995.9 867.393 996.362 C 871.324 997.356 872.218 998.044 874.056 1001.07 C 873.222 1013.64 857.301 1051.48 852.008 1064.2 C 844.576 1082.07 834.256 1093.84 814.139 1095.74 C 783.739 1089.25 805.849 1047.63 815.778 1031.96 C 826.918 1014.38 840.79 999.738 861.817 995.237 z" fill="rgb(255,255,255)" transform="translate(0,0)"></path>
<path d="M 620.592 996.151 C 635.285 995.595 638.174 1007.58 631.713 1018.29 C 622.39 1033.75 603.423 1039.9 586.844 1044.48 L 573.76 1047.53 C 581.862 1023.22 595.303 1004.19 620.592 996.151 z" fill="rgb(255,255,255)" transform="translate(0,0)"></path>
<path d="M 1246.92 970.276 C 1252.59 969.754 1264.24 969.108 1268.07 973.818 C 1275.31 982.706 1262.95 992.118 1257.48 996.894 C 1263.08 1015.51 1276.12 1032.11 1282.2 1051.01 C 1286.54 1064.48 1287.42 1072.08 1287.15 1086.05 C 1300.32 1074.55 1318.44 1054.85 1326.55 1039.34 C 1335.97 1021.36 1342.29 990.092 1357.52 976.033 C 1365.57 975.837 1383.95 974.393 1390.6 978.553 C 1392.93 980.037 1390.56 985.693 1389.78 987.946 C 1378.26 1021.39 1356.39 1058.37 1355.91 1094.07 C 1355.82 1100.42 1368.09 1100.73 1372.59 1098.17 C 1394.06 1085.97 1406.34 1061.14 1414.17 1038.62 C 1418.58 1026.12 1425.2 1017.17 1432.87 1007.07 C 1450.97 983.223 1484.44 965.484 1514.46 976.995 C 1555.48 992.724 1548.52 1049.55 1532.53 1081.13 C 1530.88 1084.39 1527.94 1089.88 1529.23 1093.24 C 1538.49 1095.96 1553.53 1083.95 1560.14 1078.57 C 1584.86 1058.44 1587.54 1029.67 1600.37 1002.49 C 1604.42 993.911 1607.29 982.294 1618.59 982.222 C 1626.35 982.022 1633.28 982.454 1639.49 987.619 C 1642.46 994.046 1639.42 999.075 1636.93 1006.07 C 1653.06 990.309 1675.26 967.259 1700.03 971.858 C 1755.21 982.103 1680.53 1076.75 1697.88 1099.91 C 1715.99 1111.16 1742.83 1066.01 1750.45 1054.72 C 1754.42 1059.63 1755.47 1060.93 1758.42 1066.7 C 1743.86 1094.56 1723.54 1126.69 1688.5 1129.39 C 1641.26 1132.25 1653.92 1082.18 1663.87 1054.46 C 1667.54 1044.23 1681.14 1016.9 1671.56 1009.3 C 1665.97 1008.08 1661.41 1010.87 1656.47 1013.43 C 1619.46 1037.15 1611.83 1074.39 1603.88 1115.06 C 1599.78 1136.03 1574.9 1134.95 1563.09 1122.25 C 1558.82 1117.65 1565.38 1099.61 1567.51 1092.86 C 1547.99 1108.57 1534.88 1114.19 1509.43 1109.36 C 1489.67 1129.78 1453.95 1136.99 1428.59 1121.77 C 1416.11 1114.27 1410.98 1102.15 1408.15 1088.4 C 1391.83 1108.08 1366.27 1133.87 1337.99 1129.36 C 1311.45 1125.13 1315.69 1092.18 1319.16 1072.89 C 1317.94 1074.65 1316.67 1076.39 1315.38 1078.1 C 1300.46 1097.75 1264.37 1125.87 1238.52 1128.03 C 1197.76 1131.44 1175.01 1112.08 1206.44 1075.6 C 1211.34 1081.78 1218.81 1098.17 1226.32 1100.17 C 1278.27 1114 1233.3 1028.79 1226.96 1015.17 C 1208.32 1047.35 1150.18 1166.15 1098.69 1117.48 C 1079.2 1099.06 1117.81 994.452 1135.37 976.673 C 1138.59 973.409 1163.77 976.967 1170.06 978.633 C 1158.22 1011.04 1135.26 1055.59 1134.06 1091.92 C 1134.13 1093.58 1135.26 1096.02 1136.85 1096.82 C 1152.57 1104.81 1176.43 1069.98 1182.68 1060.51 C 1195.2 1041.54 1205.71 1023.03 1216.06 1003.29 C 1225.33 985.598 1222.66 974.702 1245.5 970.525 L 1246.92 970.276 z" fill="rgb(28,50,71)" transform="translate(0,0)"></path>
<path d="M 1485.22 1003.19 C 1491.37 1002.52 1496.89 1001.85 1502.33 1005.3 C 1521.36 1017.34 1511.52 1055.34 1500.76 1070.02 C 1498.47 1069.89 1493 1068.81 1491.61 1068.97 C 1480.38 1070.29 1481.36 1081.96 1483.43 1089.91 C 1484.09 1092.48 1479.82 1095.5 1478.25 1096.94 C 1442.92 1112.25 1446.76 1061.82 1454.04 1042.76 C 1460.89 1024.84 1466.42 1010.75 1485.22 1003.19 z" fill="rgb(255,255,255)" transform="translate(0,0)"></path>
<path d="M 1091.92 516.994 C 1088.74 505.129 1084.57 494.16 1087.01 481.822 C 1092.63 453.443 1133.76 442.266 1153.93 461.648 C 1157.23 464.82 1159.88 469.714 1162.2 473.689 C 1170.71 474.642 1177.88 474.099 1183.41 480.28 C 1185.25 490.666 1168.24 493.943 1160.79 496.224 C 1159.92 508.678 1162.95 529.42 1148.69 533.287 C 1142.63 534.931 1137.01 532.402 1132.14 535.056 C 1130.62 538.157 1131.42 541.82 1131.75 545.391 C 1129.96 547.602 1128.4 548.888 1128.35 551.632 C 1134.56 562.75 1127.57 557.99 1128.89 567.062 C 1130.09 575.315 1132.82 585.998 1134.85 594.235 C 1144.38 603.459 1151.38 611.966 1156.52 627.306 C 1158.98 634.68 1188.81 664.937 1195.02 671.876 C 1198.56 675.82 1207.02 681.655 1210.14 683.936 C 1213.99 692.717 1218.5 704.747 1207.43 711.443 C 1195.45 713.515 1182.19 688.97 1177.92 680.186 C 1160.46 671.499 1144.01 657.691 1127.5 647.061 C 1120.41 642.495 1113.56 634.316 1108.14 627.976 L 1107.22 628.377 C 1104.68 638.49 1100.86 647.716 1098.47 657.93 C 1103.03 665.175 1107.98 673.519 1112.81 679.274 C 1125.75 694.56 1159.25 738.278 1153.11 758.986 C 1145.57 784.397 1139.38 825.418 1151.41 849.826 C 1163.71 874.767 1212.46 868.831 1233.09 871.304 L 1238.6 872.053 C 1236.36 873.67 1225.15 872.809 1222.27 872.528 C 1185.69 879.621 1150.61 880.749 1113.47 880.753 C 1096.41 880.755 1078.48 877.653 1061.5 875.453 C 1082.36 870.266 1092.19 871.109 1113.58 871.393 C 1113.83 852.728 1111.9 843.039 1110.48 825.104 C 1109.22 809.374 1109.1 793.571 1110.14 777.824 C 1105.47 771.268 1104.44 767.448 1102.3 759.973 C 1077.55 744.632 1085.8 739.394 1065.95 720.619 C 1054.19 737.066 1042.78 754.367 1031.04 770.937 C 1027.14 776.447 1017.45 799.657 1013.47 802.511 C 997.079 814.272 914.254 823.658 909.105 843.674 C 910.295 850.331 919.201 854.296 924.199 859.695 C 951.981 863.055 966.106 854.667 992.899 876.261 C 976.748 874.126 959.794 875.949 944.144 874.11 C 900.857 869.027 858.071 869.308 814.561 868.397 C 806.34 868.225 797.38 868.35 789.233 867.301 C 791.922 865.226 870.038 861.898 880.916 860.987 C 879.514 852.666 879.471 851.436 880.082 843.275 C 877.283 838.814 872.045 831.953 872.852 826.44 C 873.696 820.677 881.321 815.163 887.072 815.694 C 890.019 817.158 890.374 818.505 891.97 821.409 L 892.537 822.463 L 893.64 822.496 L 891.2 815.814 C 896.99 812.167 907.017 806.974 911.929 802.694 C 926.318 790.157 958.018 763.812 977.399 763.15 C 979.907 729.482 992.637 705.618 1001.9 672.763 C 996.498 670.753 992.482 669.034 987.28 666.663 C 989.698 660.49 992.621 655.18 995.699 649.193 C 1014.69 612.259 1027.95 568.893 1057.8 538.915 C 1067.17 529.51 1081.43 525.93 1091.92 516.994 z" fill="rgb(28,50,71)" transform="translate(0,0)"></path>
<path d="M 1077.46 592.873 C 1070.86 603.795 1052.74 645.128 1047.37 650.971 C 1051.69 635.113 1068.43 602.692 1077.66 588.945 C 1083.24 594.407 1103.9 620.992 1108.14 627.976 L 1107.22 628.377 C 1097.24 617.49 1086.38 601.854 1077.46 592.873 z" fill="rgb(255,255,255)" transform="translate(0,0)"></path>
<path d="M 1233.09 871.304 L 1238.6 872.053 C 1236.36 873.67 1225.15 872.809 1222.27 872.528 C 1225.09 871.528 1229.9 871.489 1233.09 871.304 z" fill="rgb(108,111,125)" transform="translate(0,0)"></path>
<path d="M 1046.71 666.378 L 1059.13 670.564 L 1058.83 671.892 C 1053.83 694.784 1057.53 718.466 1043.35 739.322 C 1030.25 758.594 1019.04 780.054 1005.29 798.541 C 1002.34 802.416 980.534 807.346 974.329 806.636 C 969.699 803.244 958.307 783.437 958.798 777.967 C 961.938 778.294 963.067 779.741 965.18 782.382 L 966.377 783.901 C 966.219 781.412 966.122 781.197 966.583 778.781 L 968.898 779.719 L 969.324 779.213 L 967.109 776.381 C 969.818 771.598 976.269 771.386 982.224 768.367 C 983.797 765.448 982.501 757.003 983.771 750.767 L 985.445 750.29 C 989.654 731.104 994.52 717.22 1001.66 698.901 C 1004.61 691.317 1006.69 683.215 1010.07 675.659 L 1011.3 676.364 C 1020.73 681.869 1029.31 693.734 1036.16 693.544 C 1042.44 689.959 1045.01 673.304 1046.71 666.378 z" fill="rgb(255,255,255)" transform="translate(0,0)"></path>
<path d="M 985.445 750.29 C 984.444 758.918 984.386 760.89 985.284 769.511 L 979.742 771.01 L 979.345 772.49 C 982.713 776.908 984.842 778.358 988.211 782.102 C 981.916 781.204 975.574 780.369 969.324 779.213 L 967.109 776.381 C 969.818 771.598 976.269 771.386 982.224 768.367 C 983.797 765.448 982.501 757.003 983.771 750.767 L 985.445 750.29 z" fill="rgb(41,64,82)" transform="translate(0,0)"></path>
<path d="M 966.377 783.901 C 966.219 781.412 966.122 781.197 966.583 778.781 L 968.898 779.719 L 969.467 780.853 C 971.9 785.595 975.776 789.276 977.469 792.975 C 976.116 791.396 976.29 791.75 974.502 790.918 L 974.76 791.386 C 971.729 788.88 969.099 786.146 966.377 783.901 z" fill="rgb(41,64,82)" transform="translate(0,0)"></path>
<path d="M 992.744 745.244 C 995.302 735.174 1004.96 693.756 1010.69 687.773 C 1011.82 692.548 1005.4 705.048 1003.76 710.155 C 999.767 722.548 996.759 734.703 994.552 747.533 L 992.744 745.244 z" fill="rgb(162,168,175)" transform="translate(0,0)"></path>
<path d="M 992.744 745.244 L 994.552 747.533 C 992.314 754.305 990.905 762.676 987.641 768.524 C 989.146 758.619 989.847 754.88 992.744 745.244 z" fill="rgb(41,64,82)" transform="translate(0,0)"></path>
<path d="M 1096.84 674.544 C 1118.86 697.282 1144.42 723.811 1147.84 757.256 C 1149.5 773.52 1119.99 770.057 1112.07 766.798 L 1111.53 764.988 C 1116.83 761.984 1130.25 763.486 1135.29 760.947 C 1122.4 756.551 1110.8 761.725 1103.31 749.191 C 1110.64 749.043 1116.64 749.028 1123.92 748.009 C 1111.05 742.752 1101.16 741.715 1093.17 731.163 C 1092.45 729.717 1092.08 727.682 1091.68 726.044 C 1087.23 724.509 1086.71 725.125 1084.76 721.936 C 1084.26 718.714 1084.24 718.93 1082.41 716.185 L 1081.49 714.65 C 1079.75 713.296 1080.27 713.754 1078.97 711.919 C 1080.43 709.136 1079.36 710.286 1082.73 708.853 L 1083.59 707.708 C 1085.09 703.799 1084.82 701.526 1087.36 699.52 C 1092.31 690.738 1094.18 684.279 1096.84 674.544 z" fill="rgb(255,255,255)" transform="translate(0,0)"></path>
<path d="M 1084.76 721.936 C 1091.1 719.221 1096.51 723.797 1101.62 723.391 C 1105.26 726.147 1105.52 726.632 1108.32 730.35 L 1107.29 732.495 C 1103.09 733.943 1098.06 731.419 1093.17 731.163 C 1092.45 729.717 1092.08 727.682 1091.68 726.044 C 1087.23 724.509 1086.71 725.125 1084.76 721.936 z" fill="rgb(255,255,255)" transform="translate(0,0)"></path>
<path d="M 1091.68 726.044 L 1108.32 730.35 L 1107.29 732.495 C 1103.09 733.943 1098.06 731.419 1093.17 731.163 C 1092.45 729.717 1092.08 727.682 1091.68 726.044 z" fill="rgb(41,64,82)" transform="translate(0,0)"></path>
<path d="M 1082.73 708.853 C 1090.16 707.132 1099.9 705.273 1107.47 704.375 C 1096.74 711.399 1094.01 711.81 1081.49 714.65 C 1079.75 713.296 1080.27 713.754 1078.97 711.919 C 1080.43 709.136 1079.36 710.286 1082.73 708.853 z" fill="rgb(41,64,82)" transform="translate(0,0)"></path>
<path d="M 1082.41 716.185 C 1088.26 716.383 1096.69 715.841 1101.94 717.667 L 1103.18 719.518 L 1101.62 723.391 C 1096.51 723.797 1091.1 719.221 1084.76 721.936 C 1084.26 718.714 1084.24 718.93 1082.41 716.185 z" fill="rgb(41,64,82)" transform="translate(0,0)"></path>
<path d="M 1087.36 699.52 C 1093.08 697.553 1098.12 695.221 1103.93 693.604 C 1096.95 699.797 1091.09 702.659 1083.59 707.708 C 1085.09 703.799 1084.82 701.526 1087.36 699.52 z" fill="rgb(41,64,82)" transform="translate(0,0)"></path>
<path d="M 1125.12 498.919 C 1135.24 497.965 1131.83 499.976 1140.29 502.031 C 1141.32 502.28 1151.52 501.484 1153.77 501.403 L 1154.54 503.095 C 1154.09 506.3 1153.08 517.792 1151.35 519.258 L 1149.64 519.536 L 1149.08 520.712 C 1151.25 519.937 1150.29 519.821 1152.14 520.312 C 1152.51 523.285 1151.98 524.02 1151.05 526.882 C 1146.73 530.064 1144.44 528.719 1139.5 529.387 C 1133.59 530.186 1132.64 529.664 1129.07 525.079 L 1128.68 524.498 C 1128.18 527.697 1128.79 535.55 1128.97 539.133 C 1121.26 531.396 1104.27 520.675 1094.51 515.379 C 1104.89 514.297 1124.14 512.207 1125.12 498.919 z" fill="rgb(255,255,255)" transform="translate(0,0)"></path>
<path d="M 1126.48 457.177 C 1134.67 456.596 1155.5 463.357 1153.35 472.794 C 1148.62 478.521 1129.38 479.609 1121.24 480.608 C 1110.8 481.632 1104.32 482.097 1093.81 482.098 C 1101.01 464.131 1108.21 461.256 1126.48 457.177 z" fill="rgb(255,255,255)" transform="translate(0,0)"></path>
<path d="M 1153.31 633.311 C 1165.02 646.488 1176.59 660.016 1188.49 673.029 C 1194.24 679.322 1205.99 686.38 1208.96 693.945 L 1208.33 695.108 C 1199.74 690.829 1198.37 684.646 1188.11 684.796 L 1186.51 686.507 C 1186.27 684.001 1184.41 679.622 1182.33 678.124 C 1167.53 667.468 1152.95 656.933 1138.54 645.726 C 1144.77 641.374 1147.74 638.563 1153.31 633.311 z" fill="rgb(255,255,255)" transform="translate(0,0)"></path>
<path d="M 1066.94 673.057 C 1070.18 671.653 1077.59 673.113 1081.38 673.681 C 1076.71 682.682 1071.52 693.077 1065.3 701.008 C 1063.53 700.472 1063.59 700.128 1062 698.763 C 1060.28 706.904 1059.37 708.95 1055.37 715.917 C 1056.93 703.689 1058.6 684.109 1061.54 672.814 L 1062.86 672.954 L 1066.94 673.057 z" fill="rgb(255,255,255)" transform="translate(0,0)"></path>
<path d="M 1055.37 715.917 C 1056.93 703.689 1058.6 684.109 1061.54 672.814 L 1062.86 672.954 C 1065.26 682.829 1064.37 688.872 1062 698.763 C 1060.28 706.904 1059.37 708.95 1055.37 715.917 z" fill="rgb(255,255,255)" transform="translate(0,0)"></path>
<path d="M 1062.86 672.954 L 1066.94 673.057 C 1067.14 683.735 1065.4 691.739 1065.3 701.008 C 1063.53 700.472 1063.59 700.128 1062 698.763 C 1064.37 688.872 1065.26 682.829 1062.86 672.954 z" fill="rgb(41,64,82)" transform="translate(0,0)"></path>
<path d="M 1089.11 544.989 C 1093.98 545.132 1100.27 549.049 1105.08 551.377 C 1112.01 571.111 1129.38 593.929 1139.45 612.273 C 1124.8 603.431 1111.76 565.702 1099.8 552.447 C 1097.72 550.141 1091.92 546.713 1089.11 544.989 z" fill="rgb(255,255,255)" transform="translate(0,0)"></path>
<path d="M 949.626 779.361 C 955.01 782.467 966.615 801.548 970.182 807.54 L 968.728 809.495 C 966.607 809.696 965.153 809.65 963.018 809.616 C 959.543 805.066 957.525 798.644 954.765 793.279 C 952.576 789.026 947.236 785.182 947.088 781.664 L 949.626 779.361 z" fill="rgb(255,255,255)" transform="translate(0,0)"></path>
<path d="M 1159.12 486.363 L 1160 486.424 L 1159.91 487.206 C 1148.68 492.569 1106.6 494.81 1092.93 495.385 L 1091.65 494.572 L 1092.09 493.423 C 1098.27 491.918 1114.85 491.722 1122.61 491.135 C 1135.95 490.126 1145.92 488.728 1159.12 486.363 z" fill="rgb(162,168,175)" transform="translate(0,0)"></path>
<path d="M 1042.72 663.065 C 1042.14 668.531 1036.74 686.155 1031.36 688.721 C 1025.93 677.532 1035.34 671.705 1042.72 663.065 z" fill="rgb(255,255,255)" transform="translate(0,0)"></path>
<path d="M 1093.28 526.836 C 1105.18 528.945 1122.2 547.453 1126.37 558.21 C 1124.25 556.789 1116.86 547.802 1114.79 545.37 C 1106.92 536.143 1103.23 533.423 1093.28 526.836 z" fill="rgb(200,200,201)" transform="translate(0,0)"></path>
<path d="M 1115.62 826.017 C 1121.24 826.797 1134.28 826.293 1137.88 827.83 L 1136.77 829.278 C 1131.68 829.909 1121.62 832.401 1117.39 830.235 C 1116 829.521 1116.15 828.079 1115.62 826.017 z" fill="rgb(255,255,255)" transform="translate(0,0)"></path>
<path d="M 1186.51 686.507 L 1188.11 684.796 C 1191.77 694.052 1197.45 698.147 1204.73 705.009 C 1196.61 700.489 1189.94 695.683 1186.51 686.507 z" fill="rgb(200,200,201)" transform="translate(0,0)"></path>
<path d="M 1773.09 1418.5 C 1783.52 1418.14 1808.67 1414.44 1799.94 1433.38 C 1797.46 1438.77 1771.49 1436.7 1765.44 1436.76 C 1371.08 1441.41 977.147 1464.3 584.899 1505.34 C 480.437 1515.01 376.101 1525.99 271.916 1538.29 C 261.766 1539.65 247.952 1544.41 245.94 1530.87 C 248.468 1519.75 276.06 1520.46 286.104 1519.05 C 315.988 1514.97 345.912 1511.2 375.872 1507.73 C 839.81 1454.45 1306.15 1424.67 1773.09 1418.5 z" fill="rgb(190,74,71)" transform="translate(0,0)"></path>
<path d="M 509.63 894.96 C 544.065 898.338 536.554 933.576 513.929 948.683 C 485.381 967.746 456.253 948.281 428.196 943.266 L 426.821 943.03 C 416.554 957.45 406.78 990.09 406.465 1007.39 C 417.364 1006.99 430.75 1004.64 441.734 1003.03 C 434.288 1037.55 435.6 1034.23 400.396 1033.24 C 394.838 1083.89 358.737 1134.68 302.259 1132.25 C 254.765 1131.22 231.851 1084.57 269.73 1051.14 C 282.843 1039.57 292.519 1046.8 301.11 1059.45 C 291.207 1067.81 279.248 1076.87 282.764 1091.69 C 286.157 1105.99 303.663 1111.79 316.368 1106.35 C 332.676 1099.37 340.716 1083.51 347.591 1068.25 C 352.838 1056.08 355.486 1047.14 358.611 1034.28 C 347.298 1035.06 334.827 1035.35 323.413 1035.83 L 326.664 1013.81 C 337.061 1013.08 351.767 1013.39 362.506 1013.35 C 363.894 999.866 366.846 986.585 371.304 973.78 C 378.019 954.864 385.196 944.602 403.396 935.895 C 374.714 929.113 336.433 919.409 307.547 929.479 C 290.222 935.518 281.155 953.024 288.532 970.741 C 292.775 980.933 302.119 985.244 312.048 989.049 C 309.617 1000.68 306.72 1015.48 290.033 1008.95 C 240.889 989.428 240.287 925.884 288.099 904.555 C 355.551 874.466 418.612 926.137 485.273 918.977 C 501.486 917.235 499.729 899.649 509.63 894.96 z" fill="rgb(28,50,71)" transform="translate(0,0)"></path>
<path d="M 1271.31 1223.22 C 1300.42 1222.31 1333.46 1222.95 1362.89 1222.97 L 1520.88 1222.97 L 1716.73 1223.15 C 1740.18 1223.25 1763.63 1223.49 1787.07 1223.12 C 1798.4 1222.94 1809.58 1232.02 1795.8 1240.84 C 1703.62 1240.03 1611.44 1240.04 1519.27 1240.87 C 1441.7 1240.91 1363.94 1240.49 1286.36 1241.28 C 1281.15 1241.33 1276.38 1241.79 1271.51 1239.35 C 1262.52 1234.84 1264.21 1228.35 1271.31 1223.22 z" fill="rgb(190,74,71)" transform="translate(0,0)"></path>
<path d="M 728.745 1223.49 C 741.74 1223.23 755.279 1222.68 768.243 1223.28 C 773.738 1223.53 779.707 1225.36 779.67 1231.96 C 779.629 1239.35 771.281 1240.65 765.477 1240.96 C 751.304 1240.68 737.136 1240.34 722.928 1240.24 L 627.003 1240.14 L 302.354 1240.32 C 292.716 1240.16 282.595 1240.2 272.934 1240.43 C 265.182 1240.61 236.854 1242.46 248.988 1226.06 C 255.483 1221.88 283.822 1223.83 293.059 1223.85 L 385.164 1223.82 L 728.745 1223.49 z" fill="rgb(190,74,71)" transform="translate(0,0)"></path>
<path d="M 1079.94 1230.67 C 1099.8 1226.04 1119.65 1238.41 1124.23 1258.28 C 1128.82 1278.15 1116.4 1297.97 1096.51 1302.51 C 1076.7 1307.03 1056.96 1294.66 1052.39 1274.86 C 1047.82 1255.05 1060.14 1235.29 1079.94 1230.67 z" fill="rgb(28,50,71)" transform="translate(0,0)"></path>
<path d="M 1084.45 1243.71 C 1096.98 1241.47 1108.94 1249.82 1111.16 1262.35 C 1113.38 1274.88 1105.01 1286.83 1092.48 1289.03 C 1079.97 1291.22 1068.05 1282.88 1065.84 1270.37 C 1063.63 1257.87 1071.96 1245.94 1084.45 1243.71 z" fill="rgb(255,255,255)" transform="translate(0,0)"></path>
<path d="M 1145.08 1229.31 C 1152.46 1232.57 1180.46 1263.52 1188.04 1271.67 C 1188.22 1257.68 1187.85 1244.15 1188.38 1230.06 L 1202.59 1229.95 L 1202.67 1302.84 L 1201.83 1304.28 C 1197.4 1302.69 1165.62 1268.17 1159.98 1262.16 C 1159.26 1275.29 1159.33 1288.61 1159.24 1301.78 L 1145.02 1301.94 C 1145.36 1277.73 1145.38 1253.52 1145.08 1229.31 z" fill="rgb(28,50,71)" transform="translate(0,0)"></path>
<path d="M 970.664 1229.28 C 981.733 1229.23 987.523 1231.85 996.7 1237.29 L 988.655 1247.76 C 981.62 1243.59 972.686 1239.26 965.162 1244.31 C 963.316 1245.55 961.633 1247.79 961.637 1250.07 C 961.354 1256.03 971.379 1259.89 977.337 1261.15 C 995.363 1264.97 1006.2 1279.28 993.729 1295.49 C 988.385 1302.44 977.388 1303.15 968.02 1303.01 C 961.782 1301.71 945.515 1297.69 946.5 1290 C 949.349 1287 949.532 1286.41 951.503 1282.62 L 952.058 1281.54 C 959.777 1288.45 978.063 1294.39 985.58 1286.3 C 988.846 1270.19 929.238 1272.39 951.223 1239.34 C 956.139 1231.95 962.514 1230.67 970.664 1229.28 z" fill="rgb(28,50,71)" transform="translate(0,0)"></path>
<path d="M 827.514 1230.19 L 842.56 1230.62 C 846.502 1243.44 854.587 1260.27 860.251 1272.99 L 879.002 1230.73 L 893.509 1230.8 C 890.836 1237.62 887.026 1245.56 883.986 1252.33 C 876.784 1269.81 868.054 1287.35 859.853 1304.45 C 849.682 1285.46 835.958 1250.86 827.514 1230.19 z" fill="rgb(28,50,71)" transform="translate(0,0)"></path>
<path d="M 1382.7 911.156 C 1390.69 910.117 1398.62 913.45 1403.47 919.884 C 1408.32 926.317 1409.34 934.859 1406.14 942.253 C 1402.94 949.646 1396.01 954.751 1388 955.62 C 1375.8 956.944 1364.81 948.199 1363.35 936.012 C 1361.9 923.825 1370.53 912.739 1382.7 911.156 z" fill="rgb(28,50,71)" transform="translate(0,0)"></path>
<path d="M 1161.95 911.706 C 1173.93 910.73 1184.5 919.513 1185.73 931.475 C 1186.97 943.436 1178.41 954.189 1166.48 955.677 C 1158.53 956.667 1150.67 953.28 1145.92 946.824 C 1141.18 940.367 1140.31 931.85 1143.63 924.563 C 1146.96 917.275 1153.96 912.356 1161.95 911.706 z" fill="rgb(28,50,71)" transform="translate(0,0)"></path>
<path d="M 1417.92 1266.05 C 1437.76 1264.95 1440.73 1282.15 1435.54 1298.43 C 1433.65 1304.36 1429.41 1306.77 1423.84 1309.06 C 1400.38 1309.2 1398.85 1274.83 1417.92 1266.05 z" fill="rgb(28,50,71)" transform="translate(0,0)"></path>
<path d="M 1419.88 1273.53 C 1433.45 1277.38 1431.24 1293.48 1423.5 1301.82 C 1409.56 1299.3 1410.98 1281.47 1419.88 1273.53 z" fill="rgb(255,255,255)" transform="translate(0,0)"></path>
<path d="M 1340.08 1266.11 C 1346.08 1265.49 1351.59 1265.94 1356.14 1270.24 C 1357.97 1273.92 1358 1277.1 1356.34 1280.73 C 1353.33 1287.28 1357.02 1287.14 1359.74 1293.14 C 1363 1300.35 1355.24 1305.64 1349.96 1308.6 C 1328.07 1310.98 1324.34 1294.26 1333.3 1285.4 C 1337.76 1280.99 1321.93 1277.04 1340.08 1266.11 z" fill="rgb(28,50,71)" transform="translate(0,0)"></path>
<path d="M 1343.73 1287.89 C 1347.5 1287.37 1350.98 1290.02 1351.48 1293.79 C 1351.99 1297.57 1349.34 1301.04 1345.56 1301.54 C 1341.8 1302.04 1338.34 1299.39 1337.83 1295.63 C 1337.33 1291.86 1339.97 1288.4 1343.73 1287.89 z" fill="rgb(255,255,255)" transform="translate(0,0)"></path>
<path d="M 1342.68 1272.52 C 1346.95 1273.8 1347.15 1273.76 1349.46 1276.83 C 1349.43 1280.9 1349.81 1278.89 1347.51 1282.9 C 1343.06 1282.35 1341.91 1282.78 1339.2 1279.1 C 1339.58 1275.58 1340.34 1275.15 1342.68 1272.52 z" fill="rgb(255,255,255)" transform="translate(0,0)"></path>
<path d="M 911.082 1230.83 L 924.862 1230.79 L 924.523 1301.79 L 910.964 1301.98 L 911.082 1230.83 z" fill="rgb(28,50,71)" transform="translate(0,0)"></path>
<path d="M 1017.95 1230.96 L 1031.39 1230.91 L 1031.24 1301.85 L 1017.73 1302 L 1017.95 1230.96 z" fill="rgb(28,50,71)" transform="translate(0,0)"></path>
<path d="M 1492.99 1266 C 1498.86 1265.86 1518.64 1264.4 1522.33 1267.46 L 1522.43 1271.43 C 1518.72 1277.01 1510.81 1272.35 1502.44 1274.32 C 1501.13 1276.22 1500.8 1278.03 1501.53 1280.31 C 1503.88 1287.7 1514.72 1281.62 1519.82 1285.16 C 1520.64 1288.84 1520.59 1286.96 1519.37 1290.97 C 1514.9 1291.83 1507.93 1291.42 1503.19 1291.35 L 1501.42 1292.61 L 1501.26 1297.68 C 1506.46 1304.37 1515.38 1296.88 1522.27 1302.22 C 1522.77 1305.28 1522.65 1305.09 1521.35 1307.96 C 1513.29 1308.56 1501.28 1308.15 1492.93 1308.11 L 1492.99 1266 z" fill="rgb(28,50,71)" transform="translate(0,0)"></path>
<path d="M 1463.71 1265.1 C 1493.29 1267.81 1473.25 1290.21 1462.75 1300.53 C 1467.2 1300.47 1476.38 1299.85 1479.74 1301.99 C 1479.85 1304.94 1480.15 1305.03 1478.62 1307.46 C 1473.72 1308.78 1458.45 1308.1 1452.75 1308.05 L 1449.97 1307.79 C 1446.99 1300.94 1468.26 1287.72 1470.91 1279.41 C 1470.52 1275.44 1471.26 1277.14 1468.54 1274.16 C 1458.69 1271.2 1461.76 1277.98 1454.53 1279.13 C 1450.58 1277.17 1452.01 1278.55 1449.71 1275.28 L 1450.22 1273.06 C 1454.43 1268.09 1457.47 1266.73 1463.71 1265.1 z" fill="rgb(28,50,71)" transform="translate(0,0)"></path>
<path d="M 1302.39 1266.13 C 1312.42 1267.12 1312 1267.32 1319.89 1273.29 L 1320.05 1275.89 L 1320.36 1275.83 C 1311.09 1277.61 1283.65 1269.27 1295.06 1295.09 C 1298.92 1303.8 1309.3 1300.51 1316.01 1296.97 C 1318.38 1296.98 1318.25 1297.11 1320.35 1298.3 L 1320.07 1300.41 C 1309.22 1312.73 1290.33 1310.73 1285.5 1294.49 C 1283.58 1288.17 1284.45 1281.34 1287.89 1275.7 C 1291.54 1269.73 1295.96 1267.75 1302.39 1266.13 z" fill="rgb(28,50,71)" transform="translate(0,0)"></path>
<path d="M 1385.54 1266.95 C 1388.09 1266.89 1387.27 1266.75 1389.55 1267.53 C 1392.15 1273.35 1391.1 1299.29 1390.32 1306.4 C 1388.36 1309.01 1387.48 1308.48 1383.53 1309.63 C 1382.03 1303.15 1382.68 1292.25 1382.73 1285.36 C 1382.83 1273.09 1380.28 1281.66 1376.62 1275.56 C 1377.61 1271.85 1381.69 1269.98 1385.54 1266.95 z" fill="rgb(28,50,71)" transform="translate(0,0)"></path>
<path d="M 1305.11 1284.95 C 1309.94 1284.59 1317.76 1283.38 1321.69 1285.87 C 1323.38 1286.94 1323.28 1288.48 1323.97 1290.87 C 1319.25 1290.99 1310.9 1292.1 1307.02 1289.72 C 1305.7 1288.91 1305.59 1286.79 1305.11 1284.95 z" fill="rgb(28,50,71)" transform="translate(0,0)"></path>
<metadata><recraft-signature>{"signed_by": "recraft", "signature_b64": "UMiP7eL5eTAfAbkasGk2NYBXop1fXzu0ThORVamWEvRZMvxT3fs9czlhM5qiha3BjihTgqZzUUx/Vk32inunBA==", "signing_algo": "Ed25519", "generation_timestamp": 1777331682, "identifier": "9c5ec03a-7c67-486d-820f-043710921e58"}</recraft-signature></metadata></svg>