<svg xmlns="http://www.w3.org/2000/svg" height="1024" preserveAspectRatio="none" style="display: block;" version="1.1" viewBox="0 0 2048 2048" width="1024">
<path d="M 0 0 L 2048 0 L 2048 957.493 L 2048 959.907 L 2048 2048 L 0 2048 L 0 0 z" fill="rgb(255,255,255)" transform="translate(0,0)"></path>
<path d="M 1.90929 1006.48 C 6.98811 1000.61 24.5067 962.048 30.4547 951.92 C 44.0898 928.791 57.2565 904.419 71.7182 881.831 C 268.88 573.882 601.954 335.951 973.408 309.821 C 1194.72 294.253 1408.33 354.909 1596.13 471.772 C 1601.99 465.243 1606.94 462.1 1615.35 458.938 C 1630.11 453.23 1646.54 453.69 1660.95 460.214 C 1675.83 467.017 1687.31 479.577 1692.74 495.01 C 1697.91 509.372 1697.79 524.759 1691.24 538.665 C 1715.19 558.067 1731.66 571.828 1754.56 592.782 C 1785.48 564.42 1838.47 585.35 1849.91 623.208 C 1856.28 644.297 1852.6 658.496 1843.05 677.46 C 1858.78 694.379 1877.32 713.738 1892.17 731.168 C 1940.46 788.838 1984.24 850.138 2023.12 914.524 C 2030.06 925.769 2045.29 946.395 2048 957.493 L 2048 959.907 C 2045.86 973.818 2050.1 976.448 2036.64 984.768 C 2030.27 997.93 2021.36 1011.45 2013.49 1024.09 C 1951.76 1123.3 1875.71 1216.64 1792.39 1298.46 C 1754.94 1335.23 1712.87 1369.56 1672.06 1401.95 C 1682.32 1416.12 1688.13 1428.7 1686.87 1446.78 C 1685.76 1463.4 1677.92 1478.85 1665.15 1489.55 C 1652.2 1500.51 1635.4 1505.83 1618.51 1504.31 C 1595.95 1502.19 1582.02 1490.67 1568.51 1473.85 C 1523.2 1502.89 1475.68 1528.29 1426.37 1549.83 C 1286.05 1609.96 1164.23 1639.23 1011.67 1639.23 C 915.874 1639.67 820.567 1625.61 728.986 1597.52 C 676.852 1581.89 641.485 1565.52 592.727 1546.01 C 594.428 1554.1 595.124 1560.03 593.863 1568.37 C 591.863 1581.53 584.413 1593.25 573.338 1600.64 C 561.883 1608.53 547.714 1611.4 534.091 1608.62 C 520.907 1605.83 508.101 1597.46 500.835 1586.03 C 493.594 1574.46 491.451 1560.41 494.911 1547.21 C 499.127 1530.78 508.896 1521.08 522.833 1512.72 C 503.804 1503.12 484.704 1491.95 465.843 1481.73 C 463.442 1487.28 460.81 1491.72 456.896 1496.34 C 446.565 1508.68 431.685 1516.32 415.637 1517.53 C 398.857 1518.99 382.199 1513.59 369.473 1502.56 C 342.242 1478.97 341.665 1442.29 364.595 1415.53 C 335.029 1392.42 304.641 1370.65 276.242 1346 C 229.863 1305.75 184.925 1263.14 144.234 1217.09 C 106.53 1174.43 71.8436 1127.57 39.9086 1080.45 C 25.4769 1059.15 3.77988 1032.8 1.90929 1006.48 z" fill="rgb(24,43,80)" transform="translate(0,0)"></path>
<path d="M 1249.67 594.486 L 1250.77 594.399 C 1256.46 598.636 1277.77 641.416 1281.93 650.14 C 1392.98 885.92 1422.66 1151.88 1366.31 1406.34 C 1355.03 1457.14 1338.63 1508.6 1321.24 1557.65 C 1204.45 1598.54 1080.68 1615.74 957.166 1608.24 C 657.173 1589.99 364.954 1420.51 168.316 1198.05 C 139.432 1167.25 112.76 1129.91 87.5331 1096.02 C 70.53 1073.17 55.7018 1048.69 38.6898 1025.8 C 49.8727 1032.9 63.4857 1044.26 73.8371 1052.86 C 199.66 1157.41 378.067 1219.96 542.253 1206.9 C 561.641 1223.42 584.591 1244.19 605.282 1258.71 C 680.324 1311.36 771.771 1346.14 863.057 1355 C 943.586 1362.53 1032.62 1347.19 1100.11 1300.88 C 1122.49 1285.52 1143.12 1262.44 1165.16 1244.64 C 1209.19 1209.08 1237.82 1147.04 1242.61 1091.04 C 1251.5 987.235 1205.73 894.917 1140.2 817.244 C 1182.84 744.092 1213.71 677.126 1237.71 595.817 L 1249.67 594.486 z" fill="rgb(255,255,255)" transform="translate(0,0)"></path>
<path d="M 981.296 1371.49 L 982.383 1371.95 C 982.963 1376.26 966.65 1461.83 964.58 1471.74 L 949.703 1471.89 C 949.38 1468.94 949.436 1466.46 947.902 1463.99 C 938.858 1465.69 937.71 1480.16 917.181 1471.54 C 887.918 1447.98 922.024 1381.44 957.192 1406.62 C 959.795 1395.29 961.923 1383.86 963.567 1372.35 L 981.296 1371.49 z" fill="rgb(24,43,80)" transform="translate(0,0)"></path>
<path d="M 941.299 1414.91 C 956.921 1415.35 953.252 1430.56 950.324 1441.22 C 947.956 1449.85 944.932 1455.04 936.873 1459.24 C 914.392 1458.29 926.873 1423.76 941.299 1414.91 z" fill="rgb(255,255,255)" transform="translate(0,0)"></path>
<path d="M 1217.06 1401.12 C 1251.45 1398.49 1260.55 1420.31 1248.78 1450.97 C 1244.37 1462.45 1234.1 1469.05 1222.83 1473.14 C 1172.64 1480.47 1173.99 1411.95 1217.06 1401.12 z" fill="rgb(24,43,80)" transform="translate(0,0)"></path>
<path d="M 1221.47 1414.82 C 1240.48 1415.77 1237.05 1450.93 1217.94 1458.36 C 1201.52 1457.98 1203.98 1439.82 1207.99 1428.86 C 1210.88 1420.95 1213.94 1418.19 1221.47 1414.82 z" fill="rgb(255,255,255)" transform="translate(0,0)"></path>
<path d="M 987.001 1373.34 L 1005.73 1373.22 C 1006.07 1398.13 1009.12 1428.6 1010.39 1454.32 C 1019.65 1437.01 1036.82 1393.29 1044.07 1374.28 C 1050.51 1374.58 1058.11 1374.47 1064.64 1374.54 L 1059.19 1387.32 C 1047.94 1412.78 1032.2 1446.73 1019.16 1471.12 L 997.041 1471.18 C 992.359 1449.67 987.496 1395.87 987.001 1373.34 z" fill="rgb(24,43,80)" transform="translate(0,0)"></path>
<path d="M 834.879 1401.17 C 852.195 1399.98 869.288 1405.14 865.74 1426.15 C 862.047 1448.02 834.708 1437.26 823.319 1444.1 C 821.892 1446.7 821.628 1446.25 822.395 1449.72 C 823.206 1453.42 825.694 1456.54 829.125 1458.15 C 835.434 1461.13 848.192 1456.94 854.523 1454.94 L 856.3 1456.04 L 856.242 1459.59 C 856.193 1465.13 855.885 1470.15 849.058 1471.89 C 810.617 1481.7 790.118 1452.99 809.549 1418.64 C 814.972 1409.06 823.911 1403.75 834.879 1401.17 z" fill="rgb(24,43,80)" transform="translate(0,0)"></path>
<path d="M 836.158 1414.1 C 841.64 1413.72 844.952 1413.52 847.819 1418.69 C 847.928 1426.82 843.832 1427.56 836.984 1428.92 C 832.918 1429.18 830.823 1429.32 826.79 1429.05 C 823.549 1427.08 824.486 1428.44 823.631 1425 C 825.943 1419.8 831.255 1416.57 836.158 1414.1 z" fill="rgb(255,255,255)" transform="translate(0,0)"></path>
<path d="M 717.565 1376.97 L 771.585 1377 C 770.883 1382.07 769.451 1388.48 768.436 1393.63 L 734.582 1393.73 C 732.848 1401.61 731.592 1408.98 730.265 1416.94 C 740.699 1417.05 751.131 1417.27 761.561 1417.59 C 760.7 1422.63 759.515 1427.95 758.489 1432.99 L 745.374 1433.01 L 727.148 1432.88 C 724.16 1445.99 722.001 1458.54 719.694 1471.79 L 699.5 1472.01 C 704.521 1440.28 712.28 1408.62 717.565 1376.97 z" fill="rgb(24,43,80)" transform="translate(0,0)"></path>
<path d="M 1304.71 1401.15 C 1342.43 1398.32 1325.65 1448.4 1321.66 1471.57 L 1301.97 1471.5 C 1303.77 1457.69 1311.24 1427.27 1305.31 1417.3 C 1298.98 1413.1 1295.46 1416.94 1290.66 1421.37 C 1283.81 1431.72 1281.47 1457.4 1278.69 1471.11 L 1259.62 1471.27 C 1263.48 1451.8 1268.03 1422.94 1269.84 1403.56 C 1279.11 1396.7 1283.18 1404.61 1288.52 1408.91 C 1294.32 1405.43 1298.12 1402.72 1304.71 1401.15 z" fill="rgb(24,43,80)" transform="translate(0,0)"></path>
<path d="M 1116.81 1401.2 C 1129.68 1400.54 1134.9 1399.37 1146.27 1405.66 C 1144.52 1409.27 1140.29 1415.51 1138.01 1419.1 C 1130.32 1415.62 1122.98 1411.97 1116.45 1419.2 C 1113.72 1431.13 1139.34 1430.4 1141.15 1445.45 C 1143.09 1461.53 1129.34 1469.93 1115.84 1472.85 C 1102.5 1473.34 1100.75 1472.97 1087.97 1468.91 C 1089.25 1464.14 1091.26 1459.55 1093.1 1454.95 C 1101.34 1458.89 1112.16 1462.64 1120.11 1455.9 C 1126.05 1442.54 1098.72 1441.77 1097.13 1427.69 C 1095.49 1413.2 1103.94 1404.12 1116.81 1401.2 z" fill="rgb(24,43,80)" transform="translate(0,0)"></path>
<path d="M 888.462 1371.17 L 907.333 1371.05 C 903.033 1398.89 894.267 1443.49 888.143 1471.06 L 868.169 1471.12 C 876.142 1445.03 882.28 1399.95 888.462 1371.17 z" fill="rgb(24,43,80)" transform="translate(0,0)"></path>
<path d="M 778.451 1402.16 L 798.377 1402.64 C 793.12 1424.07 788.558 1449.9 784.067 1471.94 L 764.508 1471.99 C 768.877 1448.61 773.106 1425.35 778.451 1402.16 z" fill="rgb(24,43,80)" transform="translate(0,0)"></path>
<path d="M 1159.16 1402.94 L 1179.64 1403.29 C 1176.89 1423.3 1171.1 1450.21 1167.32 1470.58 C 1164.35 1471.57 1151.63 1471.23 1147.7 1471.22 C 1150.98 1449.3 1154.96 1424.63 1159.16 1402.94 z" fill="rgb(24,43,80)" transform="translate(0,0)"></path>
<path d="M 1068.42 1402.98 L 1087.51 1403.12 C 1086.18 1421.21 1078.11 1450.44 1075.34 1471.15 L 1056.49 1471.09 C 1058.33 1453.41 1064.86 1420.69 1068.42 1402.98 z" fill="rgb(24,43,80)" transform="translate(0,0)"></path>
<path d="M 1076.85 1372.07 C 1093 1370.25 1096.79 1384.53 1084.43 1393.03 C 1067.19 1393.62 1064.83 1382.07 1076.85 1372.07 z" fill="rgb(24,43,80)" transform="translate(0,0)"></path>
<path d="M 1170.02 1373.04 C 1186.1 1372.71 1188.04 1387.25 1174.1 1394 C 1172.2 1394.04 1169.99 1394.13 1168.12 1393.69 C 1165.62 1393.11 1163.47 1391.51 1162.19 1389.29 C 1158.22 1382.24 1164.63 1376.32 1170.02 1373.04 z" fill="rgb(24,43,80)" transform="translate(0,0)"></path>
<path d="M 789.138 1371.05 C 806.294 1370.36 804.715 1383.95 793.41 1391.88 C 777.401 1393.79 776.503 1378.99 789.138 1371.05 z" fill="rgb(24,43,80)" transform="translate(0,0)"></path>
<path d="M 1290.29 567.588 C 1294.86 568.528 1305.69 573.824 1310.21 576.065 C 1532.88 686.4 1715.48 881.149 1830.6 1099.72 C 1842.84 1122.96 1850.73 1151.05 1866.49 1172.79 C 1810.98 1243.25 1713.31 1334.23 1641.47 1387.18 C 1562.01 1444.5 1454.1 1511.92 1360.4 1543.19 C 1370.97 1514.93 1384.36 1466.2 1391.84 1435.86 C 1453.11 1187.11 1430.52 907.748 1326.99 673.374 C 1312.92 641.536 1298.39 608.706 1280.65 578.922 C 1284.33 575.247 1287.06 571.641 1290.29 567.588 z" fill="rgb(255,255,255)" transform="translate(0,0)"></path>
<path d="M 951.887 520.577 C 1015.03 516.675 1119.36 522.84 1180.3 534.374 C 1180.64 560.982 1186.15 571.407 1207.52 587.378 C 1186.03 659.795 1155.43 729.189 1116.45 793.892 C 1100.43 778.184 1083.26 760.738 1065.96 746.942 C 980.132 678.482 887.262 636.637 776.332 635.618 C 688.036 634.807 609.704 644.152 534.303 695.214 C 472.287 736.425 429.454 800.85 415.449 873.981 C 396.771 971.599 431.329 1058.4 484.985 1137.61 C 494.752 1150.88 504.948 1163.83 515.559 1176.43 C 487.951 1176.32 464.595 1176.27 437.148 1173.27 C 297.992 1156.95 167.49 1097.29 64.0944 1002.74 C 85.2871 979.483 105.378 955.336 126.544 932.055 C 285.6 757.096 494.871 614.321 725.036 554.059 C 799.28 535.027 875.31 523.806 951.887 520.577 z" fill="rgb(255,255,255)" transform="translate(0,0)"></path>
<path d="M 781.679 663.416 C 786.795 662.658 803.013 662.73 808.303 662.957 C 915.358 667.547 1032.14 737.874 1103.13 815.203 C 1082.02 847.184 1065.75 870.183 1041.8 900.398 C 1011.7 860.425 962.592 834.22 912.257 834.787 C 873.485 834.85 836.37 850.516 809.278 878.253 C 777.843 910.707 765.457 947.768 766.051 992.378 C 769.227 1033.99 782.068 1064.43 811.013 1095.1 C 768.545 1118.5 739.158 1131.3 693.592 1146.77 C 684.61 1136.53 676.612 1129.03 667.433 1117.66 C 619.748 1058.04 585.033 988.198 577.419 911.474 C 563.951 775.756 645.718 675.973 781.679 663.416 z" fill="rgb(255,255,255)" transform="translate(0,0)"></path>
<path d="M 972.944 340.504 C 978.439 340.569 996.073 349.427 1001.96 352.167 C 1072.19 384.859 1137.35 442.133 1185.88 501.949 C 1127.45 494.536 1074.36 488.473 1015.12 487.294 C 692.903 480.883 409.292 615.614 177.727 834.779 C 138.517 873.116 100.979 913.127 65.2162 954.699 C 70.2865 942.953 81.7605 924.936 88.6415 913.668 C 120.945 861.14 156.931 810.968 196.33 763.529 C 347.64 584.645 552.369 438.501 779.313 374.644 C 842.657 357.277 907.48 345.848 972.944 340.504 z" fill="rgb(255,255,255)" transform="translate(0,0)"></path>
<path d="M 1126.58 838.686 C 1155.48 868.218 1189.74 929.691 1202.26 968.989 C 1285.89 1231.58 1031.42 1348.28 819.5 1240.09 C 781.428 1222.04 751.307 1198.05 718.933 1171.87 C 743.555 1162.36 767.514 1154.07 791.209 1142.06 C 806.448 1134.34 821.158 1126.64 836.135 1118.42 C 878.789 1143.66 925.34 1149.87 972.535 1133 C 1009.33 1120.08 1039.32 1092.81 1055.67 1057.41 C 1075.23 1015.42 1072.83 975.273 1057.43 932.537 C 1060.71 927.974 1064.61 923.23 1068.25 918.921 C 1089.71 893.452 1108.06 866.317 1126.58 838.686 z" fill="rgb(255,255,255)" transform="translate(0,0)"></path>
<path d="M 1374.55 572.933 C 1379.25 573.051 1391.14 576.68 1396.34 578.165 C 1522.17 614.077 1636.2 667.247 1745.94 738.014 C 1849.16 804.574 1929.64 880.983 2008.49 974.607 C 1988.02 1009.68 1965.84 1043.72 1942.02 1076.61 C 1928.37 1096.63 1905.89 1127.59 1889.24 1145.13 C 1879.44 1129.23 1867.77 1102.98 1858.85 1085.41 C 1844.72 1058.2 1829.61 1031.5 1813.55 1005.39 C 1737.23 881.282 1640.62 770.861 1527.76 678.718 C 1512.59 666.291 1493.58 650.129 1477.84 638.89 C 1445.05 615.476 1409.33 593.15 1374.55 572.933 z" fill="rgb(255,255,255)" transform="translate(0,0)"></path>
<path d="M 1358.54 390.631 C 1568.23 463.162 1733.88 594.424 1875.78 762.107 C 1898.21 788.616 1918.93 813.743 1938.74 842.414 C 1946.6 853.792 1956.63 865.808 1963.07 877.945 C 1950.21 863.17 1936.83 850.616 1922.62 837.168 C 1780.34 700.195 1597.21 602.742 1407.95 548.101 C 1369.57 537.02 1336.11 531.768 1298.26 523.456 C 1295.53 509.657 1293.36 504.475 1284.38 493.352 C 1308.97 457.057 1331.45 425.173 1358.54 390.631 z" fill="rgb(255,255,255)" transform="translate(0,0)"></path>
<path d="M 905.624 858.392 C 912.28 857.411 925.099 858.259 931.732 859.369 C 972.144 866.133 1002.32 887.624 1026.17 920.005 C 983.242 971.589 934.779 1013.87 879.925 1052.16 C 863.737 1063.06 847.562 1072.42 830.614 1082.06 C 752.409 1001.13 790.184 870.732 905.624 858.392 z" fill="rgb(218,86,84)" transform="translate(0,0)"></path>
<path d="M 690.237 1181.04 C 695.835 1180.29 706.93 1193.18 711.611 1197.53 C 720.677 1206.1 730.312 1214.05 740.45 1221.32 C 792.224 1258.49 847.839 1285.44 910.663 1298.3 C 924.381 1301.11 940.718 1302.8 954.769 1304.49 C 945.198 1309.87 934.399 1313.58 924.857 1317.8 C 892.438 1332.15 878.512 1330.46 843.848 1325.73 C 742.104 1311.93 654.919 1270.76 577.508 1204.05 C 618.486 1200.57 651.437 1193.26 690.237 1181.04 z" fill="rgb(255,255,255)" transform="translate(0,0)"></path>
<path d="M 1045.12 339.098 C 1065.66 337.614 1093.44 339.164 1113.85 340.663 C 1185.89 345.621 1257.09 359.087 1325.97 380.779 C 1311.79 397.428 1295.27 421.626 1282.04 439.93 C 1273.9 452.074 1265.83 464.262 1257.82 476.493 C 1239.16 472.358 1227.31 472.249 1210.07 481.968 C 1204.14 474.165 1194.18 463.555 1187.44 456.12 C 1146.27 410.058 1098.27 370.591 1045.12 339.098 z" fill="rgb(255,255,255)" transform="translate(0,0)"></path>
<path d="M 573.529 1010.94 C 576.673 1011.67 585.112 1032.77 587.169 1037.13 C 608.26 1081.83 635.062 1118.45 667.6 1155.3 C 634.776 1165.25 601.786 1170.66 567.761 1174.25 C 563.094 1174.97 554.453 1175.26 549.414 1175.55 C 521.201 1148.36 489.703 1100.98 471.529 1066.45 C 501.209 1043.56 538.531 1024.14 573.529 1010.94 z" fill="rgb(255,255,255)" transform="translate(0,0)"></path>
<path d="M 548.483 887.044 L 549.676 887.435 C 550.848 890.151 551.729 911.351 552.29 916.545 C 554.942 941.084 560.815 963.553 567.594 987.212 C 545.428 995.712 522.629 1005.31 502.108 1017.2 C 493.209 1022.34 484.533 1027.85 476.103 1033.72 C 472.471 1036.26 465.643 1043.06 461.887 1043.15 L 460.273 1040.65 C 446.667 1007.36 437.615 976.819 434.711 940.722 C 476.309 913.809 500.91 901.936 548.483 887.044 z" fill="rgb(255,255,255)" transform="translate(0,0)"></path>
<path d="M 1038.68 955.886 C 1039.07 956.314 1039.33 956.547 1039.52 957.213 C 1069.88 1062.92 973.262 1145.88 872.32 1111.13 C 867.547 1109.23 862.575 1106.95 857.837 1104.89 C 865.202 1099.45 876.034 1093.01 883.963 1087.72 C 900.842 1076.41 917.405 1064.63 933.635 1052.41 C 958.07 1033.48 981.447 1013.22 1003.66 991.726 C 1015.56 980.083 1026.8 967.685 1038.68 955.886 z" fill="rgb(218,86,84)" transform="translate(0,0)"></path>
<path d="M 567.128 782.365 L 568.47 782.675 C 568.659 786.826 562.462 801.848 560.934 807.213 C 555.755 825.4 552.861 841.71 550.69 860.436 C 508.778 870.855 473.306 889.293 436.563 911.02 L 435.532 910.73 C 430.545 898.496 450.352 831.549 458.631 818.063 C 490.447 800.997 531.328 787.907 567.128 782.365 z" fill="rgb(255,255,255)" transform="translate(0,0)"></path>
<path d="M 614.48 707.405 C 616.715 706.915 616.424 707.122 618.814 707.318 C 618.322 709.08 603.295 724.363 600.484 727.926 C 593.271 737.069 588.745 743.637 583.004 753.812 C 548.504 759.375 519.203 764.812 486.696 779.098 L 483.921 779.583 L 483.781 778.642 L 484.64 777.498 C 494.58 764.418 505.838 752.394 518.236 741.615 C 551.717 712.431 570.343 713.437 614.48 707.405 z" fill="rgb(255,255,255)" transform="translate(0,0)"></path>
<path d="M 385.725 1428.73 C 397.397 1436.39 409.13 1443.96 420.923 1451.44 C 427.94 1455.91 438.447 1461.97 444.336 1467.39 C 439.452 1477.66 437.214 1481.45 427.777 1487.58 C 423.015 1489.99 417.837 1491.47 412.521 1491.94 C 402.771 1492.8 393.082 1489.72 385.625 1483.38 C 378.306 1476.96 373.943 1467.82 373.555 1458.09 C 372.984 1445.41 377.843 1437.6 385.725 1428.73 z" fill="rgb(255,255,255)" transform="translate(0,0)"></path>
<path d="M 1648.03 1419.68 C 1658.8 1423.55 1660.33 1443.22 1657.37 1452.78 C 1654.5 1461.98 1647.95 1469.58 1639.27 1473.78 C 1628.67 1478.92 1618.97 1477.96 1608.29 1474.29 C 1599.65 1469.52 1597.51 1466.03 1592.74 1457.9 C 1610.97 1444.87 1629.4 1432.13 1648.03 1419.68 z" fill="rgb(255,255,255)" transform="translate(0,0)"></path>
<path d="M 542.44 1532.78 C 556.311 1531.76 568.461 1541.99 569.828 1555.83 C 571.195 1569.67 561.28 1582.08 547.479 1583.8 C 538.234 1584.95 529.092 1580.99 523.599 1573.47 C 518.106 1565.94 517.127 1556.03 521.042 1547.58 C 524.956 1539.12 533.149 1533.46 542.44 1532.78 z" fill="rgb(255,255,255)" transform="translate(0,0)"></path>
<path d="M 1789.18 605.096 C 1813.99 608.334 1833.97 628.278 1825.91 654.856 C 1825.23 657.076 1824.64 657.009 1822.73 657.677 L 1820 655.331 C 1805.26 639.804 1788.42 625.659 1774.29 610.549 C 1780.32 607.745 1782.88 606.951 1789.18 605.096 z" fill="rgb(255,255,255)" transform="translate(0,0)"></path>
<path d="M 1629.89 481.184 C 1645.4 479.871 1658.58 485.715 1666.32 499.648 C 1669.13 504.708 1672.34 515.937 1670.56 521.439 C 1668.39 521.264 1665.1 518.336 1662.97 516.803 C 1648.07 505.465 1632.36 495.232 1615.96 486.185 C 1620.53 484.073 1625.11 482.736 1629.89 481.184 z" fill="rgb(255,255,255)" transform="translate(0,0)"></path>
<path d="M 1036.21 1300.51 L 1037.24 1300.5 C 1029.72 1309.19 976.453 1321.68 963.222 1323.69 L 961.661 1323.69 L 961.587 1322.75 C 970.357 1318.43 981.24 1310.49 985.864 1307.83 C 992.375 1304.07 1026 1301.84 1036.21 1300.51 z" fill="rgb(255,255,255)" transform="translate(0,0)"></path>
<path d="M 671.497 669.22 L 674.367 669.308 C 673.786 670.375 665.442 673.383 663.461 674.481 C 658.115 677.441 653.397 681.056 648.483 684.647 C 640.209 685.04 628.865 684.563 620.37 684.458 L 620.293 684.704 L 619.201 684.809 L 619.163 684.127 L 617.799 684.76 L 616.948 684.14 C 622.574 680.032 662.692 670.866 671.497 669.22 z" fill="rgb(255,255,255)" transform="translate(0,0)"></path>
<path d="M 290.498 301.557 C 324.042 296.982 355.018 320.265 359.947 353.759 C 364.876 387.254 341.922 418.473 308.481 423.756 C 286.533 427.223 264.414 418.633 250.559 401.261 C 236.704 383.889 233.249 360.413 241.512 339.786 C 249.775 319.159 268.481 304.56 290.498 301.557 z" fill="rgb(24,43,80)" transform="translate(0,0)"></path>
<path d="M 728.765 1605.9 C 756.748 1601.67 782.881 1620.87 787.212 1648.84 C 791.542 1676.81 772.439 1703.01 744.487 1707.44 C 716.39 1711.9 690.022 1692.68 685.669 1664.56 C 681.317 1636.45 700.637 1610.15 728.765 1605.9 z" fill="rgb(24,43,80)" transform="translate(0,0)"></path>
<path d="M 732.267 1630.88 C 746.414 1628.71 759.653 1638.38 761.895 1652.51 C 764.138 1666.65 754.541 1679.94 740.419 1682.26 C 726.187 1684.6 712.771 1674.91 710.511 1660.67 C 708.251 1646.42 718.011 1633.06 732.267 1630.88 z" fill="rgb(255,255,255)" transform="translate(0,0)"></path>
<path d="M 1799.3 1320.61 C 1827.29 1316.8 1853.1 1336.35 1857.01 1364.33 C 1860.91 1392.31 1841.45 1418.18 1813.48 1422.18 C 1785.37 1426.2 1759.36 1406.62 1755.43 1378.51 C 1751.51 1350.39 1771.17 1324.44 1799.3 1320.61 z" fill="rgb(24,43,80)" transform="translate(0,0)"></path>
<path d="M 1801.85 1346.85 C 1810.72 1345.14 1819.81 1348.34 1825.65 1355.23 C 1831.48 1362.12 1833.15 1371.62 1830 1380.08 C 1826.86 1388.54 1819.39 1394.64 1810.47 1396.05 C 1797.01 1398.17 1784.34 1389.11 1781.99 1375.69 C 1779.64 1362.26 1788.47 1349.44 1801.85 1346.85 z" fill="rgb(255,255,255)" transform="translate(0,0)"></path>
<path d="M 1729.87 239.738 C 1752.18 235.223 1773.94 249.639 1778.47 271.948 C 1783.01 294.258 1768.61 316.024 1746.31 320.581 C 1723.97 325.144 1702.17 310.725 1697.63 288.386 C 1693.09 266.047 1707.53 244.259 1729.87 239.738 z" fill="rgb(24,43,80)" transform="translate(0,0)"></path>
<path d="M 419.12 1613.71 C 432.686 1610.6 446.873 1615.03 456.265 1625.3 C 465.657 1635.57 468.804 1650.1 464.506 1663.33 C 460.208 1676.57 449.127 1686.47 435.493 1689.26 C 414.746 1693.51 394.442 1680.28 389.957 1659.58 C 385.471 1638.88 398.475 1618.43 419.12 1613.71 z" fill="rgb(24,43,80)" transform="translate(0,0)"></path>
<path d="M 1734.68 1598.18 C 1754.86 1597.13 1772.07 1612.63 1773.12 1632.8 C 1774.18 1652.98 1758.68 1670.19 1738.51 1671.25 C 1718.33 1672.3 1701.12 1656.8 1700.06 1636.63 C 1699 1616.45 1714.5 1599.24 1734.68 1598.18 z" fill="rgb(24,43,80)" transform="translate(0,0)"></path>
<path d="M 1583.42 1614.63 C 1595.72 1611 1608.64 1618.04 1612.26 1630.35 C 1615.88 1642.66 1608.83 1655.57 1596.53 1659.18 C 1584.23 1662.79 1571.33 1655.75 1567.71 1643.45 C 1564.1 1631.16 1571.13 1618.26 1583.42 1614.63 z" fill="rgb(24,43,80)" transform="translate(0,0)"></path>
<path d="M 1284.24 1643.64 C 1296.45 1641.14 1308.38 1648.98 1310.92 1661.18 C 1313.47 1673.38 1305.68 1685.34 1293.49 1687.94 C 1281.23 1690.55 1269.18 1682.7 1266.62 1670.43 C 1264.06 1658.16 1271.96 1646.15 1284.24 1643.64 z" fill="rgb(24,43,80)" transform="translate(0,0)"></path>
<path d="M 621.47 237.456 C 633.794 236.23 644.813 245.14 646.193 257.447 C 647.573 269.754 638.802 280.883 626.513 282.418 C 618.426 283.427 610.421 280.009 605.557 273.469 C 600.694 266.93 599.723 258.279 603.017 250.825 C 606.311 243.37 613.36 238.263 621.47 237.456 z" fill="rgb(24,43,80)" transform="translate(0,0)"></path>
<path d="M 98.2609 1212.2 C 110.523 1210.36 121.983 1218.73 123.957 1230.97 C 125.931 1243.21 117.683 1254.76 105.464 1256.87 C 97.4409 1258.25 89.294 1255.22 84.1305 1248.92 C 78.967 1242.63 77.583 1234.05 80.5066 1226.45 C 83.4301 1218.85 90.2103 1213.41 98.2609 1212.2 z" fill="rgb(24,43,80)" transform="translate(0,0)"></path>
<path d="M 1481.63 312.646 C 1493.78 310.945 1505.04 319.317 1506.91 331.439 C 1508.78 343.561 1500.56 354.937 1488.47 356.974 C 1480.49 358.318 1472.41 355.264 1467.32 348.982 C 1462.23 342.7 1460.91 334.163 1463.88 326.638 C 1466.84 319.114 1473.62 313.767 1481.63 312.646 z" fill="rgb(24,43,80)" transform="translate(0,0)"></path>
<path d="M 179.181 1476.68 C 190.914 1473.06 203.368 1479.6 207.049 1491.32 C 210.73 1503.03 204.255 1515.52 192.56 1519.26 C 180.779 1523.03 168.18 1516.5 164.472 1504.7 C 160.764 1492.9 167.362 1480.33 179.181 1476.68 z" fill="rgb(24,43,80)" transform="translate(0,0)"></path>
<path d="M 1944.76 1213.49 C 1956.58 1209.83 1969.11 1216.5 1972.67 1228.35 C 1976.22 1240.2 1969.43 1252.68 1957.55 1256.12 C 1945.82 1259.53 1933.54 1252.84 1930.03 1241.14 C 1926.52 1229.45 1933.1 1217.1 1944.76 1213.49 z" fill="rgb(24,43,80)" transform="translate(0,0)"></path>
<path d="M 128.098 601.437 C 134.671 599.524 141.76 600.759 147.299 604.783 C 152.838 608.807 156.205 615.166 156.418 622.009 C 156.731 632.096 150.186 641.119 140.5 643.951 C 128.757 647.385 116.454 640.644 113.028 628.899 C 109.602 617.154 116.35 604.856 128.098 601.437 z" fill="rgb(24,43,80)" transform="translate(0,0)"></path>
<path d="M 1913.83 698.606 C 1925.81 696.973 1936.87 705.259 1938.67 717.208 C 1940.47 729.157 1932.35 740.337 1920.42 742.307 C 1912.56 743.606 1904.61 740.571 1899.61 734.364 C 1894.61 728.156 1893.34 719.738 1896.29 712.333 C 1899.23 704.928 1905.94 699.683 1913.83 698.606 z" fill="rgb(24,43,80)" transform="translate(0,0)"></path>
<path d="M 878.545 1769.25 C 886.337 1767.71 894.356 1770.48 899.535 1776.5 C 904.714 1782.53 906.251 1790.87 903.559 1798.34 C 900.867 1805.82 894.362 1811.26 886.532 1812.6 C 874.645 1814.63 863.335 1806.73 861.15 1794.87 C 858.965 1783.01 866.716 1771.6 878.545 1769.25 z" fill="rgb(24,43,80)" transform="translate(0,0)"></path>
<path d="M 176.998 425.474 C 184.609 423.329 192.785 425.436 198.409 430.993 C 204.034 436.55 206.241 444.699 204.189 452.335 C 202.136 459.971 196.141 465.916 188.489 467.904 C 176.825 470.934 164.896 464.007 161.745 452.375 C 158.595 440.743 165.399 428.743 176.998 425.474 z" fill="rgb(24,43,80)" transform="translate(0,0)"></path>
<path d="M 1861.12 451.579 C 1872.94 449.226 1884.42 456.912 1886.75 468.733 C 1889.07 480.554 1881.36 492.019 1869.54 494.32 C 1857.75 496.614 1846.33 488.931 1844.01 477.147 C 1841.69 465.363 1849.34 453.925 1861.12 451.579 z" fill="rgb(24,43,80)" transform="translate(0,0)"></path>
<metadata><recraft-signature>{"signed_by": "recraft", "signature_b64": "p1izQn1jQLOpCIbK92GWqf4ZfFQc73bvzG4KVMFuTJWUnQcV0NhckRtazdpelLeqTDGUDVn6qtvwcu4LpHxYDw==", "signing_algo": "Ed25519", "generation_timestamp": 1777331786, "identifier": "de3ae042-29f7-4ac6-a3f2-ab7e751b3ff7"}</recraft-signature></metadata></svg>