<svg xmlns="http://www.w3.org/2000/svg" height="1024" preserveAspectRatio="none" style="display: block;" version="1.1" viewBox="0 0 2048 2048" width="1024">
<path d="M 0 0 L 2048 0 L 2048 2048 L 0 2048 L 0 0 z" fill="rgb(255,255,255)" transform="translate(0,0)"></path>
<path d="M 1319.52 95.4069 C 1344.54 92.5375 1390.01 95.8354 1411.2 110.066 C 1439.31 128.941 1463.73 167.135 1470.99 200.228 C 1474.59 216.602 1475 232.559 1479 248.715 L 1479.5 250.675 C 1486.79 250.723 1490.05 251.272 1496.55 255.309 C 1508.05 262.443 1528.71 274.024 1532.33 287.784 C 1534.54 296.217 1527.51 305.282 1523.21 311.909 C 1611.13 357.062 1669.48 424.692 1704.61 517.333 C 1710.81 533.658 1712.28 549.029 1716.59 565.569 L 1718.12 564.911 C 1747.87 552.15 1786.91 545.791 1817.74 558.474 C 1862.59 576.926 1910.64 676.622 1928.72 720.496 C 1938.53 744.27 1960.94 798.755 1950.12 822.806 C 1933.65 859.42 1792.18 916.508 1752.03 932.789 C 1758.74 973.506 1757.99 1018.06 1756.83 1059.12 C 1756.15 1093.4 1756.14 1127.52 1753.71 1161.75 C 1746.7 1260.92 1727.37 1359.08 1722.36 1458.32 C 1721.78 1469.94 1721.88 1482.4 1719.56 1493.74 C 1718.4 1499.44 1711.31 1502.72 1706.64 1505.23 C 1744.66 1562.82 1770.76 1647.52 1784.1 1714.64 C 1802.31 1717.26 1801.42 1727.33 1803.6 1744.01 C 1805.96 1762.05 1807.9 1776.13 1793.07 1789.07 C 1798.61 1804.58 1804.71 1817.59 1810.64 1832.7 C 1817.72 1833.24 1830.69 1833.94 1835.69 1838.66 C 1851.94 1853.99 1854.37 1900.58 1857.36 1921.73 C 1861.79 1926.69 1869.44 1933.43 1869.47 1940.55 C 1869.48 1944.07 1867.6 1947.15 1865.21 1949.59 C 1851.22 1963.86 1796.76 1961.1 1776.62 1961.03 C 1728.48 1960.87 1554.85 1962.16 1526.06 1931.39 C 1522.19 1927.25 1520.22 1922.04 1520.51 1916.37 C 1520.82 1910.16 1523.76 1904.57 1527.72 1899.91 C 1545.24 1879.31 1572.42 1881.37 1595.1 1871.22 C 1615.37 1862.15 1650.21 1840.8 1665.98 1825.38 C 1666.26 1825.1 1666.53 1824.82 1666.81 1824.55 C 1654.47 1814.94 1645.34 1800.6 1638.39 1786.78 C 1630.63 1771.34 1624.2 1763.93 1641.13 1754.16 C 1618.56 1717.67 1598.45 1681.94 1573.2 1646.73 C 1550.99 1615.75 1532.72 1582.27 1507.7 1552.95 C 1495.37 1538.5 1488.53 1531.96 1470.68 1524 C 1441.04 1507.7 1412.44 1497.9 1380.31 1488.29 C 1369.74 1544.21 1353.91 1599.01 1333.01 1651.94 C 1320.12 1684.28 1304.95 1715.63 1290.63 1747.34 C 1286.79 1755.84 1282.84 1764.17 1279.68 1772.95 C 1287.47 1776.48 1288.44 1777.42 1292.95 1784.72 C 1285.8 1805.88 1272.08 1821.18 1256.92 1837.33 C 1250.25 1837.24 1245.95 1836.91 1239.31 1836.16 C 1237.25 1850.02 1236.81 1859.06 1237.21 1873.06 C 1242.14 1877.53 1247.83 1882.84 1250.46 1889.05 C 1253.38 1895.91 1251.92 1902.54 1252.74 1909.64 C 1253.51 1916.27 1258.92 1952.5 1260.44 1954.92 C 1264.83 1961.88 1272.05 1971.12 1272.23 1979.67 C 1272.29 1982.58 1271.27 1985.05 1269.16 1987.05 C 1255.89 1999.6 1214.7 1999 1196.56 1999.01 C 1166.47 1999.02 1136.32 1997.19 1106.24 1996.29 C 1065.3 1995.07 942.28 1997.02 913.363 1966.36 C 908.888 1961.62 906.76 1955.55 906.954 1949.06 C 907.198 1940.89 910.795 1933.97 916.771 1928.47 C 933.471 1913.09 976.859 1910.16 999.294 1901.57 C 1027.25 1890.85 1067.41 1853.39 1095.82 1847.59 C 1099.62 1846.82 1103.69 1847.08 1107.54 1847.21 C 1111.63 1836.96 1114.51 1827.1 1117.43 1816.52 C 1108.85 1814.15 1094.7 1811.85 1090.92 1803.09 C 1090.68 1797.96 1094.87 1791.15 1096.31 1785.7 C 1098.63 1778.66 1098.89 1771.48 1100 1764.23 C 1102.04 1751 1099.82 1744.21 1115.07 1741.72 C 1132.43 1705.08 1148.1 1667.67 1162.04 1629.6 C 1182.44 1574.54 1201 1516.87 1222.98 1462.61 C 1163.42 1434.55 1101.89 1406.42 1034.69 1411.59 C 1023.61 1412.44 1015.43 1413.05 1004.7 1415.88 C 994.145 1418.66 990.78 1425.77 983.137 1428.85 C 979.495 1428.89 979.739 1428.98 976.705 1426.98 C 973.861 1419.84 981.162 1406.98 984.004 1400.1 C 1021.31 1309.74 1096.55 1245.09 1176.28 1192.48 C 1192.15 1182.01 1210.89 1168.43 1223.69 1154.63 C 1226.2 1138.06 1227.32 1118.8 1228.99 1101.89 C 1232.28 1068.37 1235.96 1035.28 1243.33 1002.36 C 1259.66 929.369 1290.92 858.968 1298.45 784.237 C 1290.15 786.455 1285.78 787.576 1277.33 788.592 C 1257.36 781 1238.02 766.504 1222.11 752.472 C 1200.42 733.34 1176.76 708.966 1166.79 681.271 C 1163.26 671.459 1161.55 658.215 1155.59 649.743 C 1143.42 632.427 1097.17 585.163 1096.6 566.472 C 1096.14 551.545 1112.77 515.003 1121.16 502.197 C 1125.48 495.605 1130.93 489.883 1136.27 484.122 C 1117.09 463.207 1097.34 446.525 1076.98 427.078 C 1072.08 422.395 1068.39 410.527 1063.13 404.918 C 1060.81 402.459 1058.47 400.021 1056.11 397.603 C 1051.5 396.998 1045.56 396.312 1041.28 394.853 C 987.352 376.451 996.356 260.656 1062.34 271.464 C 1071.83 273.02 1083.35 274.013 1092.82 274.177 L 1094.68 274.201 C 1080.88 263.151 1072.62 248.246 1078.67 230.497 C 1083.77 215.542 1110.07 213.236 1123.43 209.165 C 1144.84 202.64 1166.3 197.281 1187.08 188.813 C 1194.87 172.843 1210.6 147.442 1221.69 134.084 C 1246.05 104.754 1283.35 98.2583 1319.52 95.4069 z" fill="rgb(16,20,70)" transform="translate(0,0)"></path>
<path d="M 1493.06 696.376 C 1498.77 700.464 1519.07 719.947 1526.11 726.199 C 1518.09 756.51 1502.38 796.041 1494.94 825.358 C 1489.55 846.601 1455.01 971.76 1459.61 984.013 C 1462.3 985.446 1460.85 985.146 1464.19 984.48 C 1465.82 982.913 1467.09 980.99 1467.52 978.702 C 1478.31 921.39 1492.44 864.357 1509.12 808.441 C 1516.42 783.977 1524.92 759.539 1532.66 735.166 C 1556.81 756.575 1567.01 763.793 1594.16 780.934 C 1595.47 787.108 1597.02 793.229 1598.8 799.284 C 1605.35 821.469 1616.09 846.129 1624.86 867.595 C 1633.13 886.722 1640.19 906.657 1651.35 924.343 C 1671.98 957.012 1708.01 947.604 1738.13 937.987 C 1746.58 1012.59 1742.81 1096.27 1738.1 1171.5 C 1733.22 1249.46 1718.13 1327.85 1711.7 1405.9 C 1710.63 1418.95 1707.7 1482.93 1704.16 1489.22 C 1691.16 1495.93 1618.89 1484.73 1602.63 1481.41 C 1619.62 1427.58 1638.22 1373.93 1656.49 1320.51 C 1664.71 1296.46 1714.44 1164.2 1711.63 1149.46 C 1711.31 1147.8 1710.11 1147.56 1708.8 1146.69 L 1706.78 1147.16 C 1705.08 1148.93 1703.65 1151.18 1703.03 1153.56 C 1692.34 1195.04 1677.2 1235.2 1663.08 1275.69 L 1606.31 1439.73 C 1594.71 1473.57 1582.62 1507.31 1572.33 1541.56 C 1534.14 1547.6 1501.33 1523.48 1467.96 1506.21 C 1450.84 1497.29 1433.17 1489.44 1415.07 1482.72 C 1368.25 1466.84 1327.96 1461.3 1279.07 1459.87 C 1297.39 1420.24 1299.82 1399.01 1310.61 1358.17 C 1317.61 1331.64 1336.14 1290.11 1349.76 1266.52 C 1363.86 1241.87 1381.42 1219.36 1401.91 1199.69 C 1409.27 1192.61 1441.74 1165.86 1443.73 1160.57 C 1443.03 1157.64 1443.82 1158.82 1441.05 1157.1 C 1432.93 1158.88 1409.04 1180.62 1401.37 1187.2 C 1347.16 1233.74 1315.37 1298.43 1296.12 1366.21 C 1287.7 1395.25 1282.86 1429.33 1266.13 1454.92 C 1259.55 1464.97 1233.93 1451.72 1225.58 1447.64 C 1153.55 1412.42 1099.91 1392.62 1018.21 1399.22 C 1045.23 1372.51 1070.79 1356.52 1101.44 1335 C 1139.14 1308.53 1177.27 1283.32 1215.18 1257.24 C 1242.79 1238.25 1268.53 1214.55 1295.1 1193.99 C 1343.39 1157.33 1392.3 1121.48 1441.81 1086.48 C 1448.34 1081.92 1486.92 1057.14 1488.68 1051.99 C 1487.53 1048.74 1488.5 1050.06 1485.51 1048.02 C 1475.79 1048.23 1364.41 1130.24 1350.77 1141.33 C 1425.4 1024.73 1457.07 888.94 1481.93 754.653 C 1485.48 735.421 1488.39 715.309 1493.06 696.376 z" fill="rgb(255,255,255)" transform="translate(0,0)"></path>
<path d="M 1671.51 988.226 C 1676.17 988.949 1675.79 988.51 1678.31 991.321 C 1679.92 996.704 1678.37 1009.65 1677.46 1015.54 C 1667.12 1082.81 1587.5 1105.29 1546.4 1151.24 C 1529.83 1169.77 1526.01 1182.69 1515.99 1204.56 C 1513.73 1206.02 1514.92 1205.69 1512.26 1205.25 C 1511.17 1203.42 1510.9 1202.17 1511.27 1200 C 1526.36 1110.17 1647.83 1100.25 1668.44 1016.26 C 1670.46 1008.02 1670.28 997.1 1671.51 988.226 z" fill="rgb(16,20,70)" transform="translate(0,0)"></path>
<path d="M 1462.98 431.358 C 1497.2 426.819 1553.09 456.543 1582 475.556 C 1615.56 497.625 1654.04 527.198 1670.43 564.839 C 1674.92 575.154 1676.81 584.688 1679.14 595.552 C 1676.37 602.869 1675.22 607.169 1673.37 614.823 C 1651.05 629.908 1620.89 651.675 1601.78 670.064 C 1587.1 684.194 1588.17 702.752 1589.03 721.8 C 1568.05 709.711 1531.65 678.705 1514.52 661.085 C 1529.49 650.973 1544.67 641.174 1560.05 631.692 C 1565.51 628.369 1586.22 617.535 1588.28 612.437 L 1587.26 610.646 C 1583.01 608.658 1579.57 609.276 1575.49 611.728 C 1497.89 658.297 1423.34 709.957 1341.98 750.058 C 1323.38 759.227 1302.31 769.984 1282.05 774.441 C 1250.91 765.465 1197.73 713.114 1183.76 682.974 C 1177.88 670.294 1174.34 651.325 1166.76 640.422 C 1150.85 617.548 1123.67 590.089 1109.79 566.796 C 1111.59 559.107 1115.6 550.129 1118.51 542.704 C 1126.33 522.299 1132.09 507.045 1149.64 492.702 C 1161.41 483.079 1190.84 468.962 1205.44 479.587 C 1210.78 483.47 1220.51 498.582 1224.79 504.752 C 1234.56 518.779 1244.19 532.907 1253.67 547.134 C 1260.14 556.868 1267.67 569.15 1274.9 578.068 L 1275.92 579.308 C 1245.23 566.251 1204.3 566.992 1189.48 601.947 C 1186.56 608.829 1184.34 608.388 1187.82 615.685 C 1198.71 610.637 1200.2 582.949 1230.17 580.785 C 1249.07 579.42 1291.49 585.819 1293.41 608.482 C 1293.09 609.166 1292.76 609.851 1292.43 610.535 C 1277.37 609.196 1267.59 606.366 1252.92 612.948 C 1232.99 621.892 1216.43 638.741 1208.65 659.215 C 1207.21 662.988 1205.06 667.722 1206.71 671.453 L 1208.94 671.999 C 1221.53 667.539 1220.33 617.126 1285.37 616.751 C 1267.38 623.482 1256.98 630.013 1246.86 646.804 C 1241.44 655.792 1228.31 695.48 1238.5 701.091 L 1240.11 700.136 C 1242.59 695.305 1243.61 681.849 1245.41 675.158 C 1252.21 649.855 1259.83 638.5 1281.96 625.14 C 1270.08 643.791 1261.42 662.516 1256.36 684.153 C 1254.86 690.563 1245.39 732.265 1255.68 732.495 C 1259.59 729.381 1259.95 718.018 1260.38 713.044 C 1263.26 679.59 1275.06 650.517 1293.46 622.317 C 1289.25 639.474 1274.02 728.206 1285.78 737.621 C 1291.64 735.669 1290.64 707.006 1291.15 699.836 C 1293.3 669.733 1294.97 636.581 1306.72 608.547 C 1309.42 602.117 1318.7 600.678 1324.64 599.263 C 1326.16 608.736 1326.7 620.766 1331.43 629.008 L 1333.36 629.411 L 1331.72 629.423 C 1338.57 625.676 1331.5 601.004 1335.91 592.002 C 1340.42 580.782 1354.37 580.944 1365.15 580.37 C 1393.71 578.847 1423.09 572.646 1449.72 562.027 C 1452.34 560.983 1455.68 559.04 1456.69 556.205 L 1455.26 554.622 C 1448.44 552.326 1434.3 559.131 1426.19 561.335 C 1401.31 568.093 1380.85 570.028 1355.37 570.513 C 1357.43 561.039 1359.05 554.15 1362.72 545.182 C 1379.23 533.665 1402.74 527.462 1423.27 520.659 C 1440.63 514.904 1470.37 509.523 1488.4 503.885 C 1489.96 503.396 1490.43 500.977 1490.58 499.343 L 1488.9 498.062 C 1467.38 494.264 1389.34 521.982 1366.96 531.627 C 1378.03 479.75 1407.88 439.441 1462.98 431.358 z" fill="rgb(255,255,255)" transform="translate(0,0)"></path>
<path d="M 1316.03 625.732 L 1318.38 627.037 C 1322.6 632.989 1327.07 668.554 1328.65 678.113 C 1329.68 684.395 1331.85 696.541 1327.73 701.948 C 1327.31 701.656 1326.89 701.365 1326.46 701.074 C 1322.74 698.742 1320.9 686.953 1320.04 681.125 C 1317.71 665.297 1312.61 644.895 1313.79 628.966 C 1314.54 627.888 1315.28 626.81 1316.03 625.732 z" fill="rgb(16,20,70)" transform="translate(0,0)"></path>
<path d="M 1479.54 684.852 C 1483.05 685.745 1481.45 684.945 1484.26 687.802 C 1486.09 694.048 1482.4 703.2 1481.18 709.596 L 1474.7 745.253 C 1463.49 804.762 1451.08 868.994 1433.87 927.489 C 1413.5 996.696 1382.4 1078.15 1340.6 1137.87 C 1325.01 1160.81 1301.91 1173.71 1281.24 1191.12 C 1206.17 1254.35 1120.94 1303.7 1041.5 1361 C 1028.87 1370.11 1015.14 1382.71 1003.09 1392.91 L 1011.4 1377.42 C 1037.78 1327.97 1084.69 1277.11 1129.72 1243.81 C 1186.57 1201.78 1247.75 1166.16 1286.53 1104.3 C 1291.74 1096 1301.97 1062.11 1306.08 1050.59 C 1318.91 1068.44 1341.19 1051.74 1330.3 1034.83 C 1327.21 1030.03 1320.25 1029.84 1314.94 1029.09 C 1314.18 1024.93 1333.8 970.611 1336.78 962.208 C 1337.5 961.782 1338.2 961.344 1338.91 960.897 C 1377.69 936.085 1363.04 919.531 1370.16 884.628 C 1377.97 846.291 1390.35 808.182 1394.44 768.562 C 1395.58 757.554 1397.99 742.508 1400.42 731.63 C 1427.83 716.609 1452.91 701.081 1479.54 684.852 z" fill="rgb(255,255,255)" transform="translate(0,0)"></path>
<path d="M 1399.48 884.453 C 1410.42 881.777 1421.47 888.421 1424.23 899.336 C 1427 910.251 1420.45 921.356 1409.56 924.213 C 1398.54 927.104 1387.27 920.458 1384.47 909.414 C 1381.67 898.369 1388.41 887.16 1399.48 884.453 z" fill="rgb(16,20,70)" transform="translate(0,0)"></path>
<path d="M 1398.86 895.525 C 1410.11 898.393 1411.86 905.335 1403.46 913.037 C 1391.91 912.271 1392.43 902.54 1398.86 895.525 z" fill="rgb(255,255,255)" transform="translate(0,0)"></path>
<path d="M 1431.45 744.067 C 1440.89 743.945 1448.68 748.5 1451.47 757.9 C 1453.16 763.71 1452.31 769.964 1449.12 775.109 C 1445.36 781.207 1441.16 783.267 1434.57 784.991 C 1406.61 780.489 1406.61 752.525 1431.45 744.067 z" fill="rgb(16,20,70)" transform="translate(0,0)"></path>
<path d="M 1428.92 754.917 C 1440.07 758.602 1441.07 766.312 1431.24 773.027 C 1419.3 773.277 1421.72 761.088 1428.92 754.917 z" fill="rgb(255,255,255)" transform="translate(0,0)"></path>
<path d="M 1375.78 1005.06 C 1378.77 1005.76 1381.42 1006.34 1384.14 1007.82 C 1389.48 1010.73 1393.37 1015.72 1394.88 1021.61 C 1398.24 1034.91 1390.07 1043.71 1377.65 1046.6 C 1368.41 1044.8 1360.56 1040.8 1357.65 1031.1 C 1356.12 1025.99 1356.79 1020.47 1359.52 1015.87 C 1363.49 1009.08 1368.64 1006.98 1375.78 1005.06 z" fill="rgb(16,20,70)" transform="translate(0,0)"></path>
<path d="M 1371.17 1018.54 C 1381.15 1020.14 1380.85 1025.81 1377.46 1033.6 C 1366.35 1032.98 1366.08 1026.38 1371.17 1018.54 z" fill="rgb(255,255,255)" transform="translate(0,0)"></path>
<path d="M 1298.27 1135.14 C 1327.79 1133.18 1323.37 1164.17 1299.71 1173.23 C 1272.94 1175.98 1272.35 1146.42 1298.27 1135.14 z" fill="rgb(16,20,70)" transform="translate(0,0)"></path>
<path d="M 1298.86 1147.63 C 1302.84 1149 1303 1149.58 1302.5 1153.28 C 1299.55 1157.21 1298.9 1157.39 1294.64 1160.12 C 1292.02 1159.8 1293.27 1160.17 1291.03 1158.47 L 1291.05 1156 C 1293.69 1151.52 1294.72 1151.03 1298.86 1147.63 z" fill="rgb(255,255,255)" transform="translate(0,0)"></path>
<path d="M 1236.69 1468.15 C 1256.5 1476.73 1268.65 1475.14 1290.09 1475 C 1288.69 1483.19 1281.22 1506.59 1285.43 1512.61 C 1288.73 1513.2 1287.07 1513.3 1290.49 1511.75 C 1294.5 1505.55 1297.64 1483.66 1299.44 1475.04 C 1324.86 1477.64 1340.6 1479.18 1365.77 1484.27 C 1351.46 1556.24 1333.93 1615.55 1304.06 1682.77 C 1290.5 1713.29 1272.8 1747.38 1260.91 1777.92 C 1229.67 1776.48 1197.79 1769.85 1167.31 1763.26 C 1175.78 1751.94 1197.46 1729.59 1208.04 1717.67 C 1220.76 1703.54 1272.15 1647.45 1268.62 1630.02 C 1266.25 1627.36 1267.68 1628.39 1263.87 1627.3 C 1259.35 1628.51 1259.78 1631.52 1257.72 1636.2 C 1254.44 1643.22 1250.66 1652.49 1245.94 1658.62 C 1218.39 1694.34 1186.26 1727.15 1156.07 1760.63 L 1127.98 1751.96 C 1156.02 1693.13 1178.46 1629.7 1200.19 1568.33 C 1211.41 1536.63 1223.45 1498.59 1236.69 1468.15 z" fill="rgb(255,255,255)" transform="translate(0,0)"></path>
<path d="M 1277.84 1555.44 C 1282.32 1557.13 1281.7 1556.14 1284.08 1559.41 C 1285.34 1568.19 1279.94 1583.59 1275.6 1591.07 C 1271.63 1590.79 1271.46 1590.76 1269.42 1587.87 C 1268.37 1579.31 1274.05 1563.16 1277.84 1555.44 z" fill="rgb(16,20,70)" transform="translate(0,0)"></path>
<path d="M 1601.46 1494.98 C 1621.76 1500.6 1668.16 1504.14 1690.24 1505.94 C 1717.17 1542.06 1746.47 1623.63 1758.22 1667.08 C 1763.27 1685.75 1767.85 1710.7 1772.92 1730.47 C 1766.61 1734.35 1758.72 1738.27 1752.05 1741.77 C 1751.87 1726.96 1750.03 1669.93 1745.15 1660.41 C 1742.39 1658.34 1743.86 1658.7 1740.67 1659.02 C 1737.38 1663.02 1738.99 1670.62 1739.37 1675.9 C 1740.51 1691.87 1741.46 1707.83 1742.42 1723.81 C 1742.93 1730.6 1742.89 1739.49 1743.06 1746.45 C 1734.3 1750.25 1727.56 1752.81 1718.52 1755.89 C 1655.3 1698.21 1573.97 1617.88 1523.37 1550.05 L 1524.8 1550.57 C 1538.76 1555.64 1561.65 1560.12 1575.63 1553.78 C 1589.4 1547.53 1595.97 1511.48 1601.46 1494.98 z" fill="rgb(255,255,255)" transform="translate(0,0)"></path>
<path d="M 1767.21 592.408 C 1778.75 590.568 1806.11 591.781 1817.11 596.825 C 1827.92 602.741 1835.82 617.809 1842 628.312 C 1869.37 674.826 1896.68 725.576 1906.67 779.101 C 1908.65 789.713 1906.96 794.957 1910.87 805.641 C 1915.47 809.522 1919.1 812.748 1923.44 816.925 C 1907.45 822.361 1879.29 838.229 1862.28 846.253 C 1808.2 871.754 1760.61 895.081 1704.55 916.429 C 1701.76 906.23 1697.16 897.305 1692.59 887.769 C 1753.33 869.909 1808.44 845.044 1864.99 817.101 C 1877.9 810.724 1893.33 802.248 1906.65 797.33 C 1903.36 788.94 1897.88 778.218 1893.92 769.889 C 1885.75 753.148 1845.74 667.815 1834 660.886 C 1826.17 659.506 1810.09 668.232 1802.06 671.658 C 1786.35 678.314 1770.61 684.883 1754.84 691.363 C 1718.87 706.143 1682.26 719.294 1645.87 732.996 C 1649.27 782.183 1663.44 817.502 1675.46 863.171 C 1658.21 826.409 1610.17 734.535 1605.93 699.018 C 1604.85 689.961 1605.45 681.83 1611.37 674.551 C 1620.41 663.441 1634.05 654.688 1645.64 646.376 C 1684.49 618.493 1718.15 597.144 1767.21 592.408 z" fill="rgb(255,255,255)" transform="translate(0,0)"></path>
<path d="M 1829.51 670.116 C 1837.74 676.578 1886.85 779.011 1892.56 793.407 C 1871.52 804.638 1849.76 814.123 1828.28 824.348 C 1790.38 842.393 1754.04 858.407 1714.28 872.051 C 1706.29 874.672 1699.04 876.43 1690.91 878.418 C 1689.33 873.058 1687.09 867.118 1685.14 861.855 C 1670.34 821.878 1662.27 780.598 1654.84 738.712 C 1671.88 732.457 1688.33 727.354 1705.75 720.698 C 1747.25 704.451 1788.51 687.588 1829.51 670.116 z" fill="rgb(255,255,255)" transform="translate(0,0)"></path>
<path d="M 1328.69 109.438 C 1353.22 108.385 1389.69 110.629 1409.1 127.1 C 1438.55 152.102 1454.91 183.051 1459.3 220.78 C 1423.87 200.008 1393.36 199.256 1353.29 199.103 C 1310.84 198.815 1243.92 208.8 1202.66 192.884 C 1236.19 128.703 1255.33 114.142 1328.69 109.438 z" fill="rgb(255,255,255)" transform="translate(0,0)"></path>
<path d="M 1313.24 778.887 C 1330.69 771.686 1349.5 760.996 1366.27 751.876 C 1364.4 812.408 1354.15 872.39 1335.81 930.107 C 1332.06 941.946 1326.26 955.019 1322.09 967.295 C 1315 988.166 1307.84 1016.5 1298.87 1036.2 C 1296.6 1025.84 1293.59 1023.97 1284.39 1018.85 C 1274.25 1021.9 1264.74 1028.04 1269.12 1040.36 C 1270.48 1044.2 1273.33 1047.32 1277.03 1049.04 C 1283.1 1051.89 1287.75 1050.46 1293.44 1047.8 C 1293.16 1050.78 1288.69 1060.31 1287.41 1064.09 C 1277.01 1094.94 1263.52 1113.86 1240.95 1137.74 C 1243.44 1094.14 1249.95 1029.77 1261.36 987.629 C 1279.14 921.93 1309.04 847.317 1313.24 778.887 z" fill="rgb(255,255,255)" transform="translate(0,0)"></path>
<path d="M 1335.18 801.026 C 1357.07 803.722 1360.21 827.387 1339.89 834.273 C 1332.75 833.431 1327.07 831.034 1323.85 824.145 C 1321.91 820.037 1321.82 815.298 1323.6 811.12 C 1326.04 805.414 1329.65 803.018 1335.18 801.026 z" fill="rgb(16,20,70)" transform="translate(0,0)"></path>
<path d="M 1312.99 908.019 C 1315.57 908.009 1317.86 907.995 1320.35 908.74 C 1324.65 910.047 1328.18 913.124 1330.06 917.197 C 1331.83 921.095 1331.86 925.56 1330.14 929.48 C 1327.64 935.295 1323.6 937.009 1318.09 939.132 C 1294.81 939.503 1294.65 916.144 1312.99 908.019 z" fill="rgb(16,20,70)" transform="translate(0,0)"></path>
<path d="M 1260.88 243.911 C 1266.01 248.209 1275.5 258.426 1280.49 263.513 C 1290.14 273.444 1300.43 282.718 1311.31 291.273 C 1326.91 303.308 1348.63 312.397 1361.34 326.299 C 1366.44 331.87 1370.26 349.837 1372.28 358.128 C 1349.12 367.252 1333.63 381.779 1313.63 395.791 C 1309.18 398.916 1307.03 398.452 1302.24 397.253 C 1273.24 397.521 1276.16 396.298 1267.35 370.718 C 1263.96 367.982 1259.75 365.232 1256.12 362.713 C 1258.34 335.249 1244.26 345.544 1230.15 339.277 C 1222.75 335.995 1236.51 312.163 1237.31 305.788 C 1238.01 300.211 1237.92 297.687 1237.18 291.306 C 1243.66 290.869 1255.96 291.272 1254.18 281.725 C 1247.33 274.371 1238.9 277.698 1231.6 282.141 C 1229.27 274.523 1227.26 266.655 1225.2 258.945 C 1237.49 254.625 1249 249.239 1260.88 243.911 z" fill="rgb(255,255,255)" transform="translate(0,0)"></path>
<path d="M 1484.43 264.638 C 1496.24 271.231 1509.8 280.273 1518.73 290.491 C 1513.44 301.673 1498.15 318.382 1489.51 328.006 C 1467.94 352.033 1444.65 374.996 1423.2 399.178 C 1414.89 408.901 1405.02 418.45 1397.63 428.86 C 1387.87 442.604 1380.28 459.63 1372.77 474.796 C 1368.43 462.931 1365.12 457.433 1358.22 446.748 C 1352.75 439.538 1344.04 438.022 1336.33 433.455 C 1327.14 428.011 1324.74 416.159 1322.4 406.532 C 1326.95 402.112 1338.29 394.386 1344.18 389.763 C 1353.41 399.612 1347.98 397.976 1347.52 409.343 L 1349 410.361 C 1355.8 409.406 1366.27 392.4 1370.45 386.169 C 1403.15 337.439 1439.11 301.39 1484.43 264.638 z" fill="rgb(255,255,255)" transform="translate(0,0)"></path>
<path d="M 1103.16 1886.84 C 1108.21 1886.87 1132.3 1902.02 1139.22 1905.44 C 1158.91 1914.9 1183.14 1928.96 1205.48 1925.96 C 1213.7 1924.85 1232.36 1914.28 1238.23 1917.46 C 1242.27 1925.09 1241.97 1942.65 1243.27 1952.94 C 1192.89 1960.12 1112.8 1952.48 1057.75 1954.08 C 1035.4 1955.11 936.382 1961.95 926.322 1942.34 C 929.968 1931.86 982.678 1922.38 994.671 1919.9 C 1000.31 1925.7 1001.42 1930.35 1004.27 1937.9 C 1018.89 1930.84 1033.56 1924.6 1047.87 1916.78 C 1066.29 1906.72 1084.11 1895.68 1103.16 1886.84 z" fill="rgb(255,255,255)" transform="translate(0,0)"></path>
<path d="M 1698.5 1857.89 C 1711.94 1858.46 1742.52 1873.45 1755.03 1880.32 C 1785.97 1897.31 1791.05 1887.51 1819.12 1873.73 C 1823.25 1871.7 1830.58 1869.21 1835.36 1867.57 C 1838.12 1883.03 1840.46 1898.39 1841.35 1914.09 C 1801.45 1922.74 1734.07 1916.84 1690.82 1917.2 C 1639.26 1918.95 1586.77 1924.16 1536.72 1912.99 C 1555.86 1890.57 1575.98 1894.41 1600.32 1885.33 L 1601.67 1884.82 C 1611.66 1907.53 1629.84 1892.66 1645.92 1883.71 C 1664.13 1873.57 1678.7 1865.19 1698.5 1857.89 z" fill="rgb(255,255,255)" transform="translate(0,0)"></path>
<path d="M 1511.97 321.581 C 1512.32 321.713 1512.67 321.844 1513.02 321.976 C 1598.49 362.82 1662.05 441.414 1693.05 529.786 C 1679.08 509.763 1668.6 497.768 1651.75 480.498 C 1637.7 466.415 1623.34 453.576 1607.51 441.546 C 1554.28 401.079 1501.28 374.962 1434.49 401.637 C 1458.31 375.477 1487.01 346.928 1511.97 321.581 z" fill="rgb(255,255,255)" transform="translate(0,0)"></path>
<path d="M 1485.65 400.439 C 1527.79 397.836 1563.76 420.691 1595.87 445.124 C 1643.34 481.242 1681.42 519.42 1708 573.575 C 1700.19 578.544 1694.61 582.222 1688 588.659 C 1681.1 563.066 1673.45 546.118 1656.22 525.493 C 1624.1 485.226 1535.29 429.709 1484.44 423.267 C 1448.16 418.669 1423.04 431.389 1395.51 452.506 C 1413.61 414.55 1445.61 402.617 1485.65 400.439 z" fill="rgb(195,70,78)" transform="translate(0,0)"></path>
<path d="M 1113.76 326.893 C 1114.46 326.952 1115.16 327.022 1115.85 327.105 C 1119.68 327.576 1123.84 328.684 1126.16 331.897 C 1136.04 344.85 1142.43 362.045 1152.13 375.016 C 1175.5 406.287 1202.89 418.338 1196.74 462.493 C 1174.74 462.782 1168.66 464.691 1148.77 474.55 L 1138.58 464.934 C 1122.61 448.01 1105.9 434.195 1089.24 418.325 C 1085.09 414.365 1080.37 400.709 1075.3 394.017 L 1074.4 392.843 L 1083.11 392.1 C 1092.43 391.266 1129.04 406.207 1132.48 393.514 C 1137.26 375.87 1102.02 345.274 1113.76 326.893 z" fill="rgb(255,255,255)" transform="translate(0,0)"></path>
<path d="M 1132.83 1820.55 C 1168.36 1828.87 1188.04 1830.52 1223.72 1835.16 L 1220.85 1877.17 C 1209.84 1880.12 1203.66 1884.01 1194.83 1890.79 C 1187.15 1896.85 1179.59 1903.18 1170.88 1907.57 C 1154.85 1900.48 1134.57 1889.32 1120.19 1879.49 C 1116.34 1865.71 1118.55 1859.29 1123.77 1846.37 C 1127.15 1838.01 1130.13 1829.16 1132.83 1820.55 z" fill="rgb(255,255,255)" transform="translate(0,0)"></path>
<path d="M 1197.6 201.12 C 1237.56 212.809 1265.22 212.378 1306.03 210.706 C 1276.9 227.116 1242.81 243.433 1210.91 253.455 C 1164.3 263.46 1141.96 259.199 1104.96 229.88 C 1135.16 222.876 1168.98 213.057 1197.6 201.12 z" fill="rgb(255,255,255)" transform="translate(0,0)"></path>
<path d="M 1117.04 1757.13 C 1173 1777.91 1218.43 1784.2 1276.94 1787.75 C 1271.64 1796.36 1265.5 1804.16 1259.28 1812.09 C 1256.28 1815.9 1252.8 1819.53 1249.51 1823.11 C 1201.74 1821.3 1154.43 1810.9 1108.38 1798.93 C 1113.34 1782.11 1115.55 1774.9 1117.04 1757.13 z" fill="rgb(255,255,255)" transform="translate(0,0)"></path>
<path d="M 1785.13 1731.98 C 1788.71 1736.31 1789.97 1763.2 1790.01 1769.98 C 1773.81 1790.65 1702.99 1810.47 1677.2 1813.29 C 1671.89 1808.5 1668.63 1804.62 1663.96 1799.22 C 1657.28 1790.29 1652.38 1780.21 1647.4 1770.28 C 1648.04 1770.39 1648.69 1770.49 1649.34 1770.58 C 1697.69 1777.79 1746.5 1760.64 1785.13 1731.98 z" fill="rgb(255,255,255)" transform="translate(0,0)"></path>
<path d="M 922.801 1951.63 C 926.143 1952.48 931.186 1955.62 934.874 1957.09 C 944.18 1960.73 953.921 1963.14 963.851 1964.25 C 996.127 1967.92 1041.87 1961.87 1075.1 1962.15 C 1133.57 1962.64 1188.03 1967.55 1246.52 1962.04 C 1249.34 1967.42 1252.89 1972.78 1256.15 1977.95 C 1232.3 1989.44 1138.78 1982.66 1110.41 1981.85 C 1076.15 1980.23 1040.31 1980.96 1006.25 1977.14 C 984.884 1974.74 933.649 1970.48 922.801 1951.63 z" fill="rgb(255,255,255)" transform="translate(0,0)"></path>
<path d="M 1597.34 706.868 C 1599.73 709.489 1603.3 725.58 1605.08 730.397 C 1622.57 777.901 1646.19 823.705 1668.23 869.234 C 1676.27 885.837 1687.38 899.632 1694.8 916.822 L 1687.07 924.296 L 1681.41 931.662 C 1669.2 927.118 1661.74 918.984 1655.54 907.692 C 1647.58 893.187 1641.11 877.098 1634.57 861.851 C 1624.39 838.106 1613.27 814.118 1606.38 789.188 C 1604.08 780.576 1603.91 761.546 1602.64 751.566 C 1600.77 736.888 1598.46 721.538 1597.34 706.868 z" fill="rgb(255,255,255)" transform="translate(0,0)"></path>
<path d="M 1535.52 1919.85 C 1550.73 1923.77 1550.72 1926.14 1570.35 1927.64 C 1610.04 1930.69 1648.69 1926.28 1688.28 1925.92 C 1742.73 1925.42 1787.32 1931.53 1841.55 1922.45 C 1844.41 1930.67 1845.27 1932.78 1851.28 1939.04 C 1851.74 1939.81 1851.44 1939.2 1851.46 1941.04 C 1846.8 1944.3 1826.22 1945.2 1820.14 1945.31 C 1770.15 1946.2 1569.63 1950.82 1535.52 1919.85 z" fill="rgb(255,255,255)" transform="translate(0,0)"></path>
<path d="M 1773.75 566.444 C 1776.66 566.318 1779.58 566.267 1782.49 566.289 C 1804.17 566.625 1820.2 572.574 1834.82 589.246 C 1876.55 636.846 1908.29 700.198 1927.58 760.34 C 1934.08 780.628 1939.64 796.688 1938.95 817.741 C 1932.78 812.541 1923.52 804.88 1918.89 798.657 C 1919.7 777.786 1913.97 760.28 1907.53 740.744 C 1891.46 695.07 1874.77 659.617 1848.28 618.686 C 1843.1 610.685 1833.98 596.068 1827.74 589.411 L 1826.52 589.022 C 1779.65 574.28 1727.05 585.321 1684.39 607.796 C 1703.59 579.324 1741.23 568.599 1773.75 566.444 z" fill="rgb(255,255,255)" transform="translate(0,0)"></path>
<path d="M 1778.26 1796.89 C 1782.17 1797.79 1794.72 1834.19 1796.65 1840.06 C 1777.18 1844.57 1769.43 1850 1754.34 1863.14 C 1743.46 1860.8 1732.59 1857.88 1721.8 1855.1 L 1708.73 1851.16 C 1705.8 1839.06 1702.49 1835.31 1694.67 1826.23 C 1727.51 1817.12 1746.82 1810.77 1778.26 1796.89 z" fill="rgb(255,255,255)" transform="translate(0,0)"></path>
<path d="M 1240.5 447.99 C 1243.18 449.559 1253.22 473.111 1255.38 477.494 C 1265.16 497.386 1274.5 517.419 1285.81 536.53 C 1293.16 548.946 1305.26 550.82 1318.31 553.7 C 1314.84 566.941 1312.77 578.166 1310.38 591.619 C 1303.45 592.974 1302.18 594.667 1297.25 589.048 C 1266.85 542.992 1248.02 509.059 1213.38 465.638 C 1221.96 458.876 1231 453.336 1240.5 447.99 z" fill="rgb(255,255,255)" transform="translate(0,0)"></path>
<path d="M 1267.86 403.742 C 1271.5 407.27 1273.21 408.378 1277.47 411.206 C 1283.21 411.761 1290.11 411.736 1295.99 411.862 C 1295.71 429.542 1297.97 434.681 1309.61 447.719 C 1310.48 470.858 1303.07 502.532 1297.88 525.565 C 1296.86 525.714 1297.57 525.679 1295.79 525.081 C 1283.31 500.871 1266.8 467.327 1256.6 441.996 C 1267.23 423.678 1259.28 418.592 1267.86 403.742 z" fill="rgb(255,255,255)" transform="translate(0,0)"></path>
<path d="M 1060.74 293.059 C 1089.63 299.402 1093.86 370.411 1060.23 377.325 C 1026.4 367.135 1025.79 303.581 1060.74 293.059 z" fill="rgb(255,255,255)" transform="translate(0,0)"></path>
<path d="M 1505.79 666.251 C 1508.96 668.587 1514.02 673.768 1516.95 676.625 C 1539.75 698.859 1564.34 716.625 1590.65 734.485 C 1592.54 748.054 1593.17 757.279 1593.96 771.005 L 1582.97 762.946 C 1562.45 748.605 1545.68 734.101 1527.63 716.745 C 1514.23 703.852 1500.97 689.642 1486.2 678.463 C 1492.78 674.078 1499 670.306 1505.79 666.251 z" fill="rgb(195,70,78)" transform="translate(0,0)"></path>
<path d="M 1584.43 1636.75 C 1587.4 1638.53 1628.36 1680.88 1632.75 1685.9 C 1643.1 1697.74 1702.39 1750.52 1705.89 1758.44 L 1704.73 1759.42 C 1687.66 1762.58 1679 1763.08 1661.96 1763.21 C 1647.13 1726.77 1606.34 1671.54 1584.43 1636.75 z" fill="rgb(255,255,255)" transform="translate(0,0)"></path>
<path d="M 1237.81 348.284 C 1253.26 351.258 1235.86 364.686 1259.93 376.709 C 1257.08 384.77 1253.5 394.39 1251.68 402.62 C 1249.57 412.149 1249.6 420.502 1246.24 429.947 C 1233.12 435.663 1223.45 439.688 1211.28 447.468 C 1210.63 439.363 1208.44 430.968 1206.41 423.13 C 1202.43 412.259 1200.68 409.82 1192.26 402.423 C 1197.61 401.181 1215.76 397.166 1220.37 396.97 L 1220.54 398.109 C 1217.66 403.649 1208.07 405.463 1201.65 408.869 C 1204.29 413.002 1218.29 409.578 1222.26 406.935 C 1234.8 398.594 1231.53 379.967 1233.88 367.001 C 1235.07 360.434 1236.28 354.643 1237.81 348.284 z" fill="rgb(255,255,255)" transform="translate(0,0)"></path>
<path d="M 1927.4 824.924 L 1928.34 825.26 L 1928.43 826.813 C 1896.97 858.576 1740.55 927.635 1695.82 932.436 C 1694.08 931.749 1694.78 932.336 1693.81 930.557 C 1694.55 929.471 1695.53 927.921 1696.93 927.519 C 1712.51 923.039 1726.91 917.504 1741.87 911.279 C 1782.14 894.135 1821.95 875.921 1861.25 856.655 C 1882.08 846.542 1906.61 833.421 1927.4 824.924 z" fill="rgb(255,255,255)" transform="translate(0,0)"></path>
<path d="M 1364.71 487.948 C 1366.47 491.15 1346.05 560.86 1343.85 570.485 C 1322.76 579.421 1332.68 587.942 1322.14 592.254 L 1320.78 589.919 C 1319.96 567.229 1344.06 499.548 1364.71 487.948 z" fill="rgb(255,255,255)" transform="translate(0,0)"></path>
<path d="M 1324.61 447.571 C 1345.11 456.408 1346.78 455.74 1355.49 475.406 C 1338.31 484.956 1333.94 501.859 1324.67 519.616 C 1322.07 524.994 1322.07 529.672 1318.4 533.804 C 1314.5 535.143 1316.49 534.935 1312.18 534.081 C 1310.73 532.129 1313.76 523.475 1314.7 520.101 C 1321.85 494.43 1325.95 474.553 1324.61 447.571 z" fill="rgb(255,255,255)" transform="translate(0,0)"></path>
<path d="M 1813.16 1847.45 C 1825.38 1846.98 1827.44 1850.25 1832.65 1860.02 C 1812.74 1865.79 1804.67 1870.95 1786.19 1880.22 C 1777.88 1879.66 1771.13 1871.68 1765.71 1865.91 C 1778.95 1852.13 1795.06 1848.97 1813.16 1847.45 z" fill="rgb(255,255,255)" transform="translate(0,0)"></path>
<path d="M 1229.01 1885.1 C 1257.45 1906.75 1210.28 1919.26 1193.99 1916.76 L 1180.13 1913.5 C 1200.75 1897.47 1203.96 1892.66 1229.01 1885.1 z" fill="rgb(255,255,255)" transform="translate(0,0)"></path>
<path d="M 1106.84 1861.46 C 1108.9 1865.38 1110.8 1868.16 1111.26 1872.53 C 1109.99 1875.37 1102.76 1878.1 1099.14 1879.59 C 1077.52 1888.45 1058.5 1901 1038 1911.67 L 1032.24 1902.08 C 1037.05 1899.06 1042.01 1895.75 1047.06 1893.21 C 1050.13 1898.03 1049.05 1897.91 1053.44 1900.23 L 1055.97 1899.92 C 1058.08 1896.8 1057.48 1898.52 1057.45 1894.45 C 1056.1 1892 1055.67 1891.1 1053.93 1888.85 C 1058.04 1886.34 1063.35 1882.89 1067.52 1880.71 L 1074.43 1888.65 C 1076.97 1888.42 1076.91 1888.6 1078.79 1886.95 C 1079.25 1880.55 1074.88 1880.15 1075.66 1874.47 L 1080.92 1871.04 C 1082.3 1876.26 1083.49 1880.15 1089.85 1880.37 C 1092.43 1878.23 1091.66 1879.57 1092.09 1876.12 C 1090.7 1872 1088.22 1870.29 1085.04 1867.26 C 1094.04 1863.62 1096.91 1862.88 1106.84 1861.46 z" fill="rgb(255,255,255)" transform="translate(0,0)"></path>
<path d="M 1672.68 1839.83 C 1676.71 1841.99 1682.24 1848.5 1685.48 1852.07 C 1665.87 1862.4 1646.4 1872.66 1627.29 1883.91 C 1623.56 1886.11 1618.4 1887.74 1614.26 1889.11 C 1612.52 1885.36 1611.57 1884.03 1611.33 1880.01 C 1613.25 1876.17 1613.29 1877.06 1617.54 1874.35 L 1620.6 1873.14 L 1622.21 1873.97 C 1622.62 1876.37 1622.95 1878.01 1623.56 1880.36 L 1625.49 1881.26 C 1629.14 1880.45 1627.66 1881.3 1630.22 1878.9 C 1630.43 1871.78 1626.72 1870.77 1632.95 1865.76 C 1635.86 1866.47 1636.4 1869.47 1639.25 1873.13 C 1642.6 1873.24 1640.88 1873.58 1644.28 1870.46 C 1644.76 1867.3 1643.24 1863.72 1642.25 1860.4 C 1646.14 1857.39 1647.81 1856.15 1652.11 1853.82 L 1653.17 1854.48 C 1654.4 1859.16 1654.03 1861.93 1659.04 1862.3 C 1662.52 1860.19 1661.25 1861.59 1663.05 1858 C 1662.88 1853.98 1661.49 1852.02 1659.67 1848.29 C 1664.31 1845.72 1668.32 1842.84 1672.68 1839.83 z" fill="rgb(255,255,255)" transform="translate(0,0)"></path>
<path d="M 1128.69 278.405 L 1133.8 278.034 C 1143.14 277.414 1148.86 277.29 1156.48 284.021 C 1174.92 300.323 1175.73 348.741 1159.61 366.281 L 1157.76 366.341 C 1156.07 361.068 1161.93 351.883 1162.69 345.617 C 1164.46 331.028 1163.89 313.61 1158.09 300.105 C 1148.56 277.917 1130.8 284.45 1120.29 280.055 C 1122.53 278.299 1125.23 278.717 1128.69 278.405 z" fill="rgb(255,255,255)" transform="translate(0,0)"></path>
<path d="M 1084.69 284.531 C 1097.09 287.556 1099.24 299.551 1109.24 302.96 L 1110.22 301.734 C 1109.98 297.131 1107.23 293.173 1104.95 288.976 C 1114.62 289.636 1131.7 293.515 1132.56 305.374 C 1130.2 307.646 1130.48 306.856 1126 306.912 C 1120.7 306.119 1107.52 304.085 1102.75 306.087 L 1102.15 308.591 C 1104.15 314.097 1105.41 313.582 1110.05 318.045 C 1108.54 320.603 1106.35 322.984 1104.43 325.282 C 1099.96 306.273 1096.59 299.542 1084.69 284.531 z" fill="rgb(255,255,255)" transform="translate(0,0)"></path>
<path d="M 1383.07 742.996 C 1385.98 748.622 1371.55 823.028 1368.57 833.756 C 1367.67 828.611 1369.77 817.018 1370.44 811.415 C 1373.01 789.981 1373.99 769.613 1373.75 748.059 L 1383.07 742.996 z" fill="rgb(255,255,255)" transform="translate(0,0)"></path>
<path d="M 1192.08 347.395 C 1202.31 346.911 1212.57 347.03 1222.81 347.045 C 1223.52 354.4 1223.18 359.101 1222.79 366.477 C 1211.54 367.219 1199.74 367.607 1188.44 368.133 C 1188.89 366.29 1189.27 365.333 1189.91 363.548 C 1198.29 357.834 1217.79 365.359 1221.05 357.949 C 1218.92 345.605 1201.45 359.177 1192.01 351.99 L 1192.08 347.395 z" fill="rgb(255,255,255)" transform="translate(0,0)"></path>
<path d="M 1095.29 233.211 C 1097.38 234.09 1113.4 249.301 1120.07 253.527 L 1121.45 254.388 C 1120.69 255.61 1116.69 256.875 1114.93 257.615 C 1111.85 259.212 1107.99 260.671 1104.73 262.017 C 1094.16 254.278 1088.4 246.065 1095.29 233.211 z" fill="rgb(255,255,255)" transform="translate(0,0)"></path>
<path d="M 1133.54 291.262 C 1157.21 294.756 1155.79 332.069 1152.66 349.613 L 1151.87 350.444 C 1143.56 340.862 1158.48 315.437 1133.54 291.262 z" fill="rgb(255,255,255)" transform="translate(0,0)"></path>
<path d="M 1222.92 293.498 C 1226.03 295.145 1224.63 294.026 1226.64 297.695 L 1225.62 298.913 C 1218.77 299.942 1192.14 299.077 1183.75 298.984 L 1182.25 298.86 C 1179.31 296.729 1180.23 298.052 1178.92 295.126 C 1181.65 293.566 1216.44 293.767 1222.92 293.498 z" fill="rgb(255,255,255)" transform="translate(0,0)"></path>
<path d="M 1109.68 359.851 C 1116.89 368.254 1106.9 375.311 1101.34 382.157 C 1108.5 380.612 1109.24 378.779 1115.52 377.263 C 1119.33 378.168 1118.21 378.065 1121.19 382.298 L 1121.69 384.5 L 1120.53 385.774 C 1113.37 387.274 1105.47 385.078 1098.29 383.598 C 1105.24 374.094 1106.49 371.157 1109.68 359.851 z" fill="rgb(255,255,255)" transform="translate(0,0)"></path>
<path d="M 1047.01 286.636 L 1048.09 286.881 L 1048.55 287.808 C 1021.74 308.783 1019.6 345.736 1037.94 372.954 L 1036.58 372.947 C 1019.59 355.737 1021.16 314.136 1036.1 296.08 C 1039.72 291.711 1042.47 289.704 1047.01 286.636 z" fill="rgb(197,196,213)" transform="translate(0,0)"></path>
<path d="M 1210.73 263.205 L 1212.98 262.805 C 1215.98 264.324 1214.78 263.246 1216.53 266.34 C 1215.33 273.544 1204.55 272.474 1198.79 272.625 C 1194.23 272.642 1193.99 273.219 1191.62 269.737 L 1192.57 268.314 C 1199.62 264.934 1203.05 264.654 1210.73 263.205 z" fill="rgb(255,255,255)" transform="translate(0,0)"></path>
<path d="M 1210.54 318.571 C 1214.98 318.218 1219.28 316.981 1221.76 321.025 C 1217.36 325.774 1207.38 325.035 1201.5 324.866 C 1196.85 324.892 1195.13 325.708 1192.07 323.465 C 1191.87 319.657 1191.17 320.91 1193.02 318.852 C 1198.96 318.323 1204.59 318.498 1210.54 318.571 z" fill="rgb(255,255,255)" transform="translate(0,0)"></path>
<path d="M 1207.97 377.396 L 1213.08 377.119 C 1216.3 379.303 1215.4 377.886 1216.4 381.131 L 1215.47 382.461 C 1212.01 383.605 1197.85 383.969 1192.02 384.721 C 1188.78 385.232 1185.54 386.166 1183.05 384.575 L 1184.2 383.062 C 1194.64 378.533 1196.68 378.637 1207.97 377.396 z" fill="rgb(255,255,255)" transform="translate(0,0)"></path>
<path d="M 1191.46 332.857 C 1199.74 332.77 1207.36 331.592 1215.22 333.466 C 1217.81 335.665 1216.97 335.083 1217.53 339.604 C 1209.26 339.716 1201.66 341.136 1193.88 339.217 C 1191.26 336.876 1192.1 337.388 1191.46 332.857 z" fill="rgb(255,255,255)" transform="translate(0,0)"></path>
<path d="M 1025.94 1904.87 C 1036.72 1915.94 1022.46 1919.86 1014.33 1922.94 L 1012.68 1922.56 L 1015.82 1920.44 C 1017.13 1917.65 1015.58 1915.2 1014.47 1911.52 C 1018.17 1909.04 1022.03 1907.02 1025.94 1904.87 z" fill="rgb(255,255,255)" transform="translate(0,0)"></path>
<path d="M 1116.06 314.305 C 1122.63 312.881 1131.86 314.414 1138.58 315.331 C 1139.17 320.58 1139.38 325.941 1139.66 331.223 C 1133.71 322.338 1129.22 319.646 1118.8 316.87 L 1117.29 316.474 L 1116.06 314.305 z" fill="rgb(255,255,255)" transform="translate(0,0)"></path>
<path d="M 1167.44 283.175 C 1174.39 282.679 1210.37 283.665 1214.29 286.688 C 1204.49 288.961 1175.29 290.098 1167.44 283.175 z" fill="rgb(255,255,255)" transform="translate(0,0)"></path>
<path d="M 1684.67 1829.73 C 1688.91 1832.57 1696.56 1841.92 1694.39 1847.37 L 1692.35 1847.23 C 1688.16 1843.43 1679.62 1837.96 1680.58 1832.38 L 1684.67 1829.73 z" fill="rgb(255,255,255)" transform="translate(0,0)"></path>
<path d="M 1354.56 900.739 C 1356.46 915.617 1353.5 928.181 1344.46 940.217 C 1344.19 936.611 1352.89 906.991 1354.56 900.739 z" fill="rgb(255,255,255)" transform="translate(0,0)"></path>
<path d="M 1219.75 308.539 L 1222.58 308.245 L 1222.65 309.126 C 1214.71 310.88 1204.58 311.594 1196.34 312.412 C 1193.17 312.073 1194.1 312.73 1191.94 311.201 C 1195.22 309.301 1214.77 308.821 1219.75 308.539 z" fill="rgb(69,69,114)" transform="translate(0,0)"></path>
<path d="M 1101.49 351.726 C 1102.79 360.245 1094.36 372.486 1089.45 379.219 C 1089.38 375.937 1099.03 358.617 1101.49 351.726 z" fill="rgb(197,196,213)" transform="translate(0,0)"></path>
<path d="M 1309.01 412.734 C 1312.64 415.701 1315.35 426.463 1316.95 431.426 C 1311.37 428.736 1310.14 418.431 1309.01 412.734 z" fill="rgb(255,255,255)" transform="translate(0,0)"></path>
<path d="M 1362.55 370.971 L 1363.34 371.731 C 1361.72 375.648 1358.71 378.79 1355.98 382.123 C 1354.52 380.115 1354.94 380.852 1354.15 378.486 C 1355.6 374.962 1359.24 373.173 1362.55 370.971 z" fill="rgb(255,255,255)" transform="translate(0,0)"></path>
<path d="M 311.82 249.961 L 931.022 249.778 L 931.033 270.205 L 332.71 270.251 L 332.762 1585.97 L 533.5 1585.8 L 1109.89 1585.1 L 1109.89 1606.45 L 311.856 1606 L 311.301 843.003 C 310.922 646.192 309.479 446.557 311.82 249.961 z" fill="rgb(195,70,78)" transform="translate(0,0)"></path>
<path d="M 894.266 756.471 C 916.162 756.195 938.061 756.183 959.957 756.435 C 962.271 762.458 965.053 769.71 967.774 775.47 C 996.139 835.519 1017.3 901.82 1046.24 961.326 C 1055.83 941.257 1065.83 916.573 1074.49 895.932 L 1131.75 756.854 L 1199.4 756.996 C 1191.66 776.98 1181.7 798.697 1173.1 818.5 C 1161.22 848.842 1144.21 885.692 1130.9 915.763 L 1074.69 1043.05 L 1014.67 1043.39 C 978.314 956.573 938.558 870.895 902.453 783.918 C 900.055 778.142 891.177 762.247 891.847 757.31 L 894.266 756.471 z" fill="rgb(16,20,70)" transform="translate(0,0)"></path>
<path d="M 492.174 756.864 L 717.856 756.994 C 717.956 773.975 717.935 790.956 717.795 807.937 L 554.912 807.676 L 554.983 883.846 L 698.694 884.364 C 701.338 886.139 700.16 927.933 700.118 934.211 C 653.005 933.099 602.182 934.229 554.858 934.42 C 554.569 970.648 554.488 1006.88 554.616 1043.11 C 534.606 1043.62 512.422 1043.22 492.253 1043.23 C 493.595 949.13 492.367 851.161 492.174 756.864 z" fill="rgb(16,20,70)" transform="translate(0,0)"></path>
<path d="M 1124.8 1479.21 C 1131.34 1477.6 1138.24 1479.66 1142.85 1484.58 C 1147.45 1489.5 1149.04 1496.52 1147.01 1502.95 C 1144.98 1509.37 1139.64 1514.2 1133.04 1515.57 C 1123.08 1517.65 1113.29 1511.36 1111.04 1501.44 C 1108.79 1491.52 1114.92 1481.62 1124.8 1479.21 z" fill="rgb(194,7,7)" transform="translate(0,0)"></path>
<path d="M 1125.55 1484.56 C 1130.22 1483.2 1135.25 1484.47 1138.71 1487.89 C 1142.17 1491.31 1143.5 1496.33 1142.18 1501.01 C 1140.87 1505.69 1137.12 1509.29 1132.39 1510.41 C 1125.34 1512.08 1118.24 1507.83 1116.38 1500.82 C 1114.53 1493.81 1118.59 1486.6 1125.55 1484.56 z" fill="rgb(255,255,255)" transform="translate(0,0)"></path>
<path d="M 967.15 1478.98 C 976.283 1478.77 984.501 1478 992.7 1482.88 C 1004.19 1489.71 1002.23 1500.17 995.71 1509.84 C 986.627 1516.72 978.358 1515.28 967.086 1515.26 L 967.15 1478.98 z" fill="rgb(194,7,7)" transform="translate(0,0)"></path>
<path d="M 972.852 1483.62 C 988.259 1483.85 1000.34 1488.57 992.041 1506.23 C 984.653 1511.16 981.749 1510.35 972.802 1510.41 L 972.852 1483.62 z" fill="rgb(255,255,255)" transform="translate(0,0)"></path>
<path d="M 1157.28 1478.29 C 1157.83 1478.39 1161.36 1479.17 1161.64 1479.53 C 1168.48 1488.2 1174.55 1496.79 1181.82 1505.17 C 1181.9 1498.32 1180.28 1484.04 1183.9 1479.92 L 1185.91 1479.92 C 1188.31 1484.7 1187.09 1509.87 1186.96 1516.6 C 1178.43 1512.3 1168.43 1497.51 1162.25 1489.4 C 1162.45 1497.49 1163.2 1507.86 1160.36 1515.43 L 1159.35 1515.16 C 1155.63 1506.09 1156.93 1488.38 1157.28 1478.29 z" fill="rgb(194,7,7)" transform="translate(0,0)"></path>
<path d="M 900.551 1479.01 C 908.818 1478.83 917.634 1477.96 925.245 1481.25 L 924.624 1482.3 C 917.875 1484.38 913.338 1483.91 906.289 1483.77 C 906.104 1487.29 905.532 1490.85 906.878 1494 C 909.533 1496.04 912.097 1495.51 915.589 1495.5 C 918.651 1495.33 920.796 1494.82 923.397 1496.31 L 923.031 1497.72 C 916.676 1500.38 912.992 1499.95 906.031 1498.59 L 906.157 1510.75 C 911.221 1510.72 923.812 1509.49 926.969 1512.73 L 926.334 1514.2 C 921.105 1515.99 906.67 1515.17 900.563 1515.09 C 900.637 1503.06 900.633 1491.04 900.551 1479.01 z" fill="rgb(194,7,7)" transform="translate(0,0)"></path>
<path d="M 915.589 1495.5 C 918.651 1495.33 920.796 1494.82 923.397 1496.31 L 923.031 1497.72 C 916.676 1500.38 912.992 1499.95 906.031 1498.59 C 905.939 1497.99 905.957 1498.47 906.245 1496.67 C 909.83 1496.4 912.04 1496.11 915.589 1495.5 z" fill="rgb(194,7,7)" transform="translate(0,0)"></path>
<path d="M 1068.73 1479.08 C 1074.05 1478.77 1081.18 1478.13 1085.12 1482.03 L 1084.65 1484.66 C 1081.16 1485.72 1078.01 1483.77 1072.88 1483.27 C 1069 1485.01 1069.76 1484.03 1067.58 1487.11 C 1069.55 1495.7 1082.86 1495.58 1087.98 1505.91 C 1088.04 1513.07 1081.89 1514.61 1075.88 1516.02 C 1070.63 1515.76 1063 1515.08 1060.44 1509.76 C 1066.61 1507.15 1077.55 1514.21 1081.87 1507.57 C 1079.74 1498.87 1044.54 1493.09 1068.73 1479.08 z" fill="rgb(194,7,7)" transform="translate(0,0)"></path>
<path d="M 1004.37 1477.93 L 1008.02 1478.39 C 1012.82 1482.17 1019.29 1500.62 1022.37 1507.44 C 1025.13 1500.29 1029.96 1485.29 1033.36 1479.7 C 1035.76 1478.72 1035.63 1478.87 1038.19 1479.48 C 1038.58 1482.49 1036.99 1484.45 1035.54 1487.75 C 1032.84 1494.56 1027.24 1510.19 1023.07 1515.11 L 1021.26 1515.18 C 1017.09 1510.61 1004.82 1483.48 1004.37 1477.93 z" fill="rgb(194,7,7)" transform="translate(0,0)"></path>
<path d="M 847.776 1479.09 C 854.526 1479.05 866.393 1478.63 872.691 1479.45 L 874.259 1481.56 L 873.859 1483.35 C 871.215 1484.07 863.895 1482.75 860.185 1483.46 C 854.518 1484.56 851.761 1489.62 853.808 1494.55 C 858.162 1496.94 866.401 1496.26 871.797 1496.28 L 870.904 1498.98 C 867.819 1501.09 857.757 1500.17 853.547 1499.99 C 853.684 1504.53 854.466 1512.35 852.107 1515.95 L 850.138 1515.65 C 846.049 1510.57 847.653 1486.95 847.776 1479.09 z" fill="rgb(194,7,7)" transform="translate(0,0)"></path>
<path d="M 935.308 1478.27 C 937.515 1478.62 937.643 1478.68 939.723 1479.53 C 942.196 1484.28 941.016 1504.16 940.964 1510.68 C 946.278 1510.64 954.918 1509.97 959.388 1511.8 L 960.564 1514.83 C 953.91 1515.46 942.129 1515.14 935.099 1515.15 C 934.97 1502.86 935.04 1490.56 935.308 1478.27 z" fill="rgb(194,7,7)" transform="translate(0,0)"></path>
<path d="M 1096.33 1478.32 L 1100.37 1479.4 C 1103.24 1483.75 1101.9 1508.89 1101.78 1515.82 C 1100.33 1515.51 1097.69 1515.3 1097.35 1514.39 C 1094.57 1506.87 1096.07 1486.18 1096.33 1478.32 z" fill="rgb(194,7,7)" transform="translate(0,0)"></path>
<path d="M 882.459 1478.35 C 884.447 1478.74 884.788 1478.89 886.703 1479.54 C 889.383 1485.32 888.184 1509.22 887.427 1516.33 L 884.335 1515.72 C 880.456 1511.59 882.255 1485.62 882.459 1478.35 z" fill="rgb(194,7,7)" transform="translate(0,0)"></path>
<path d="M 1046.32 1478.27 C 1048.51 1478.65 1048.54 1478.66 1050.57 1479.57 C 1053.05 1485.3 1051.58 1509.16 1051.43 1516.32 C 1050.01 1516.02 1047.66 1515.89 1047.33 1514.98 C 1044.52 1507.39 1046.06 1486.14 1046.32 1478.27 z" fill="rgb(194,7,7)" transform="translate(0,0)"></path>
<metadata><recraft-signature>{"signed_by": "recraft", "signature_b64": "gpsU40W0ShoPivGy0CQNCeCj0nCi9L8D+4r57pzemPFBKLNKgn+nnr8PhZZdCzeXCHnUyd5u/djfvJB9hl08Cg==", "signing_algo": "Ed25519", "generation_timestamp": 1777331786, "identifier": "cde33e89-d758-4c29-b5a1-636c367bdfa7"}</recraft-signature></metadata></svg>