<svg xmlns="http://www.w3.org/2000/svg" height="1024" preserveAspectRatio="none" style="display: block;" version="1.1" viewBox="0 0 2048 2048" width="1024">
<path d="M 0 0 L 2048 0 L 2048 2048 L 0 2048 L 0 0 z" fill="rgb(255,255,255)" transform="translate(0,0)"></path>
<path d="M 1310.39 837.898 C 1316.5 850.697 1329.09 873.819 1337.16 885.072 C 1295.18 936.445 1242.62 992.769 1198.24 1042.64 C 1108.47 1145.44 1016.57 1246.35 922.593 1345.31 C 887.232 1382.27 851.696 1419.58 814.755 1454.94 C 799.49 1469.55 784.31 1483.85 769.601 1499.05 L 771.412 1499.46 C 828.015 1447.64 883.539 1394.66 937.946 1340.54 C 964.884 1313.45 993.248 1282.99 1019.59 1255.18 C 1092.29 1179.14 1163.44 1101.62 1233 1022.69 C 1270.94 980.173 1308.6 939.724 1346.41 896.573 C 1352.54 903.799 1359.23 910.949 1365.5 918.177 C 1330.59 952.809 1298.66 987.136 1264.78 1022.48 L 1181.97 1108.2 C 1160.58 1130.7 1139.5 1154.44 1117.98 1177.11 C 1058.68 1239.07 998.518 1300.21 937.524 1360.5 C 857.852 1438.2 774.855 1512.41 688.766 1582.92 C 667.803 1599.91 645.299 1614.28 624.845 1630.56 C 649.042 1626.88 837.476 1596.51 847.662 1587.08 C 905.099 1533.92 964.595 1469.11 1023.2 1415.58 C 1021.59 1408.63 1020.64 1401.89 1022.15 1394.83 C 1023.92 1386.3 1029.15 1378.88 1036.6 1374.36 C 1058.35 1361.17 1088.81 1375.73 1086.87 1402.44 C 1086.42 1408.64 1085.11 1412.06 1083.07 1417.81 C 1092.69 1428.42 1112.22 1446.8 1122.9 1456.55 L 1355.26 1242.27 C 1383.93 1215.74 1428.09 1178.21 1453.69 1150.95 C 1450.95 1138.44 1450.43 1126.89 1459.95 1116.63 C 1472.62 1102.99 1498.26 1100.9 1511.59 1114.81 C 1527.27 1131.19 1523.48 1148.94 1508.95 1163.86 C 1521.88 1201.61 1537.37 1253.36 1551.92 1289.2 C 1583.55 1300.29 1588.08 1320.27 1573.47 1348.42 C 1585.11 1393.19 1601.28 1437.84 1614.35 1482.19 C 1647.55 1594.82 1685.12 1707.95 1717.26 1820.78 C 1623.66 1821.69 1530.08 1823.23 1436.5 1825.4 L 1066.5 1831.7 L 448.609 1842.54 C 373.266 1843.98 295.711 1843.71 220.7 1845.93 C 282.684 1819.17 346.171 1794.57 408.074 1767.61 C 431.088 1757.58 463.129 1746.52 484.587 1735.93 C 488.65 1715.69 498.447 1701.12 522.336 1702.94 C 531.945 1703.68 539.941 1709.92 545.7 1717.49 C 569.371 1708.92 608.564 1698.41 633.215 1691.59 L 734.401 1663.08 C 746.354 1648.44 761.601 1647.18 778.991 1652.74 C 788.2 1644.74 800.965 1630.78 810.936 1621.43 C 725.098 1639.75 650.619 1651.08 562.579 1655.33 C 608.84 1617.1 653.737 1577.25 697.185 1535.86 C 750.496 1483.62 802.508 1430.06 853.173 1375.25 C 933.232 1290.37 1010.83 1203.21 1085.88 1113.86 L 1236.38 929.685 C 1261.3 898.761 1284.86 868.539 1310.39 837.898 z" fill="rgb(2,30,69)" transform="translate(0,0)"></path>
<path d="M 771.412 1499.46 C 764.039 1507.56 747.93 1521.45 739.185 1529.2 C 721.725 1544.68 703.228 1560.99 685.095 1575.56 C 697.937 1562.08 717.93 1546.36 731.843 1532.96 C 737.019 1527.98 765.367 1501.7 769.601 1499.05 L 771.412 1499.46 z" fill="rgb(110,134,161)" transform="translate(0,0)"></path>
<path d="M 1540.18 1360.06 C 1547 1359.76 1548.08 1359.29 1550.26 1366.2 C 1567.55 1420.94 1584.03 1475.87 1600.41 1530.89 L 1628.84 1623.48 L 1665.37 1743.85 C 1670.23 1760.03 1676.24 1776.7 1680.42 1792.91 L 738.758 1809.44 L 463.703 1813.07 C 430.754 1813.49 398.182 1815.21 365.136 1815 L 448.249 1780.49 C 463.359 1773.9 478.519 1767.42 493.728 1761.05 C 500.069 1765.91 504.229 1769.11 512.38 1770.92 C 520.873 1772.85 529.787 1771.21 537.034 1766.38 C 546.403 1760.16 549.777 1752.21 552.075 1741.87 C 560.002 1739.34 567.825 1737.18 575.834 1734.94 C 627.073 1720.63 678.472 1707.12 729.237 1691.2 C 733.527 1700.75 736.537 1708.18 746.008 1714.04 C 761.909 1723.88 783.557 1720.57 793.003 1703.53 C 800.067 1690.78 798.531 1681.92 794.717 1668.85 C 809.069 1654.7 839.594 1626.47 854.64 1613.51 C 860.269 1608.66 906.518 1600.32 917.718 1597.24 C 953.12 1587.49 989.404 1578.07 1025.05 1568.23 C 1025.93 1568.89 1026.81 1569.55 1027.7 1570.19 C 1036.4 1576.46 1046.02 1579.21 1056.54 1576.85 C 1081.25 1571.31 1086.65 1551.23 1081.94 1529.57 C 1095.85 1516.82 1109.34 1504 1123.53 1491.49 C 1141.86 1508.23 1164.18 1531.01 1182.43 1548.65 L 1283.33 1645.52 C 1282.43 1651.32 1281.46 1657.87 1282.52 1663.55 C 1290.05 1703.74 1352.64 1697.96 1350.53 1655.9 C 1350.25 1650.43 1349.03 1646.23 1347.68 1641.08 C 1376.79 1601.35 1406.34 1553.93 1434.43 1512.94 L 1500.3 1417.55 C 1514.24 1397.52 1526.64 1380.91 1540.18 1360.06 z" fill="rgb(255,255,255)" transform="translate(0,0)"></path>
<path d="M 1470.82 1170.84 C 1476.26 1172.26 1479.34 1172.54 1484.83 1173.13 C 1493.99 1208.31 1513.28 1259.7 1525.49 1294.97 C 1506.78 1312.76 1509.75 1325.97 1518.06 1347.62 C 1503.29 1366.43 1486.54 1392.81 1472.64 1413.05 L 1392.28 1530.02 C 1371.75 1560.48 1349.95 1594.69 1327.93 1623.81 C 1313.69 1621.01 1312.24 1621.15 1298.63 1626.36 C 1287.21 1613.85 1264.83 1594.08 1251.86 1581.38 L 1141.18 1474.75 L 1340.3 1290.81 L 1416.08 1221.39 C 1433.58 1205.54 1454.64 1187.6 1470.82 1170.84 z" fill="rgb(255,255,255)" transform="translate(0,0)"></path>
<path d="M 1039.73 1433.91 C 1050.93 1438.33 1054.67 1438.18 1066.32 1435.19 C 1079.09 1447 1092.28 1460.92 1105.07 1473.19 C 1093.13 1485.22 1077.21 1501.05 1064.53 1511.73 C 1060.31 1511.17 1056.08 1510.76 1051.83 1510.51 C 1028.78 1509.29 1017.21 1522.66 1016.81 1544.86 C 995.837 1550.47 974.663 1555.46 953.801 1561.4 C 934.32 1566.85 914.759 1572 895.124 1576.86 C 929.855 1538.37 968.846 1504.14 1005.08 1467.07 C 1015.75 1456.14 1028.25 1443.77 1039.73 1433.91 z" fill="rgb(255,255,255)" transform="translate(0,0)"></path>
<path d="M 1510.04 499.403 C 1557.57 492.869 1619.11 511.845 1657.88 539.994 C 1709.83 577.975 1744.66 634.949 1754.78 698.5 C 1764.49 759.39 1749.51 821.635 1713.17 871.443 C 1674.16 924.244 1619.29 954.999 1554.96 964.714 C 1553.81 964.847 1552.65 964.973 1551.49 965.093 C 1498.36 970.589 1441.18 955.932 1399.54 921.944 C 1346.78 879.525 1313.34 817.62 1306.81 750.233 C 1301.2 691.137 1316.13 627.85 1354.37 581.668 C 1393.07 534.408 1449.19 504.75 1510.04 499.403 z" fill="rgb(2,30,69)" transform="translate(0,0)"></path>
<path d="M 1356.53 596.676 C 1380.7 562.412 1416.66 537.201 1455.78 522.97 C 1514.65 501.557 1571.78 507.818 1627.81 533.546 L 1632.96 536.704 C 1686.24 568.085 1724.66 619.567 1739.58 679.568 C 1754.3 737.559 1745.46 799.021 1714.99 850.51 C 1714.32 851.657 1713.9 852.157 1713.08 853.191 C 1712.12 854.328 1710.09 856.567 1709.39 857.721 C 1657.34 943.311 1523.08 984.691 1434.95 931.518 C 1428.03 927.346 1421.17 922.549 1414.37 918.147 C 1412.59 916.935 1410.61 915.206 1408.91 913.813 C 1407.47 912.881 1406.05 911.906 1404.66 910.889 C 1313.05 845.003 1288.27 691.233 1354.68 599.817 L 1356.53 596.676 z" fill="rgb(255,255,255)" transform="translate(0,0)"></path>
<path d="M 1354.68 599.817 L 1356.53 596.676 C 1359.82 598.208 1363.13 599.783 1366.44 601.273 L 1366.54 600.158 C 1369.67 601.42 1370.03 601.8 1373.46 601.873 C 1376.04 603.944 1384.18 610.706 1386.82 610.713 C 1388.87 612.451 1391.03 614.536 1393.4 615.702 L 1394.16 618.444 C 1398.9 620.347 1403.26 624.303 1407.36 627.541 C 1417.31 620.463 1426.42 615.695 1439.11 617.696 L 1440.21 619.038 C 1436.94 624.311 1419.33 630.354 1412.64 633.85 L 1422.87 647.853 C 1440.08 644.535 1447.41 644.623 1464.93 648.174 C 1450.79 654.644 1443.67 653.356 1429.67 657.297 L 1438.72 675.164 C 1447.79 674.354 1472.97 673.548 1476.87 683.456 C 1473.55 686.2 1450.07 681.807 1444.41 685.827 L 1444.77 686.755 C 1447.49 693.422 1449.21 698.084 1451.32 704.957 C 1460.62 705.23 1483.13 708.453 1486.19 718.515 C 1481.43 722.369 1463.29 712.819 1455.56 716.09 C 1454.7 718.732 1457.93 731.835 1458.55 735.849 C 1470.26 739.205 1484 743.906 1490.64 754.666 L 1490.79 756.88 C 1485.32 758.408 1468.68 748.948 1460.93 746.445 C 1461.22 754.186 1461.8 763.402 1461.68 771.035 C 1472.37 776.341 1486 783.921 1491.01 795.248 L 1490.24 796.526 C 1482.85 795.646 1469.66 785.958 1461.73 782.097 C 1461.11 789.523 1460.62 797.239 1459.26 804.542 C 1473.65 813.111 1481.72 821.405 1488.36 836.738 C 1475.67 830.017 1469.01 823.67 1458.31 814.292 C 1456.35 821.237 1454.4 828.564 1452.22 835.41 C 1460.41 842.751 1473.38 855.585 1474.61 866.897 L 1473.58 868.314 C 1467.32 867.834 1453.72 851.917 1449.52 846.858 C 1447.17 853.039 1444.82 859.5 1442.37 865.615 C 1448.82 873.657 1462.87 891.423 1462.03 902.269 L 1460.66 903.234 C 1454.33 900.63 1441.92 881.241 1438.38 875.019 C 1435.08 880.887 1432.32 886.546 1427.64 891.371 L 1427.98 891.033 C 1432.69 899.134 1445.19 919.317 1444.18 927.794 L 1442.72 930.202 C 1433.88 928.934 1427.96 905.297 1419.53 902.51 C 1415.47 905.54 1414.4 913.276 1414.37 918.147 C 1412.59 916.935 1410.61 915.206 1408.91 913.813 C 1407.47 912.881 1406.05 911.906 1404.66 910.889 C 1313.05 845.003 1288.27 691.233 1354.68 599.817 z" fill="rgb(255,255,255)" transform="translate(0,0)"></path>
<path d="M 1366.54 600.158 C 1369.67 601.42 1370.03 601.8 1373.46 601.873 C 1376.04 603.944 1384.18 610.706 1386.82 610.713 C 1388.87 612.451 1391.03 614.536 1393.4 615.702 L 1394.16 618.444 C 1398.9 620.347 1403.26 624.303 1407.36 627.541 C 1417.31 620.463 1426.42 615.695 1439.11 617.696 L 1440.21 619.038 C 1436.94 624.311 1419.33 630.354 1412.64 633.85 L 1422.87 647.853 C 1440.08 644.535 1447.41 644.623 1464.93 648.174 C 1450.79 654.644 1443.67 653.356 1429.67 657.297 L 1438.72 675.164 C 1447.79 674.354 1472.97 673.548 1476.87 683.456 C 1473.55 686.2 1450.07 681.807 1444.41 685.827 L 1444.77 686.755 C 1447.49 693.422 1449.21 698.084 1451.32 704.957 C 1460.62 705.23 1483.13 708.453 1486.19 718.515 C 1481.43 722.369 1463.29 712.819 1455.56 716.09 C 1454.7 718.732 1457.93 731.835 1458.55 735.849 C 1470.26 739.205 1484 743.906 1490.64 754.666 L 1490.79 756.88 C 1485.32 758.408 1468.68 748.948 1460.93 746.445 C 1461.22 754.186 1461.8 763.402 1461.68 771.035 C 1472.37 776.341 1486 783.921 1491.01 795.248 L 1490.24 796.526 C 1482.85 795.646 1469.66 785.958 1461.73 782.097 C 1461.11 789.523 1460.62 797.239 1459.26 804.542 C 1473.65 813.111 1481.72 821.405 1488.36 836.738 C 1475.67 830.017 1469.01 823.67 1458.31 814.292 C 1456.35 821.237 1454.4 828.564 1452.22 835.41 C 1460.41 842.751 1473.38 855.585 1474.61 866.897 L 1473.58 868.314 C 1467.32 867.834 1453.72 851.917 1449.52 846.858 C 1447.17 853.039 1444.82 859.5 1442.37 865.615 C 1448.82 873.657 1462.87 891.423 1462.03 902.269 L 1460.66 903.234 C 1454.33 900.63 1441.92 881.241 1438.38 875.019 C 1435.08 880.887 1432.32 886.546 1427.64 891.371 L 1427.98 891.033 C 1432.69 899.134 1445.19 919.317 1444.18 927.794 L 1442.72 930.202 C 1433.88 928.934 1427.96 905.297 1419.53 902.51 C 1415.47 905.54 1414.4 913.276 1414.37 918.147 C 1412.59 916.935 1410.61 915.206 1408.91 913.813 C 1411.21 911.439 1414.89 902.722 1416.5 899.273 C 1404.4 895.435 1398.81 894.848 1386.03 893.96 L 1394.05 885.414 C 1404.33 885.874 1413.33 887.557 1423.38 889.352 C 1428.57 883.045 1430.25 880.275 1434.34 873.216 C 1420.02 876.17 1412.35 878.155 1397.85 877.934 C 1411.57 867.116 1422.33 865.843 1438.76 862.453 C 1441.44 857.438 1443.91 851.154 1446.16 845.852 C 1439.22 848.52 1432.25 851.117 1425.25 853.642 C 1421.27 855.039 1413.15 858.313 1409.52 856.565 C 1411.52 849.623 1441.36 836.654 1448.3 833.841 L 1454.23 813.261 C 1440.28 822.795 1431.42 827.823 1415.02 831.926 L 1415.47 831.436 C 1423.94 821.879 1444.59 807.904 1455.89 799.742 C 1456.1 794.675 1456.75 788.902 1457.19 783.794 C 1444.18 794.014 1435.28 797.977 1420.53 805.591 C 1430.38 789.42 1443.53 782.909 1457.02 769.843 C 1456.96 763.639 1456.75 757.286 1456.61 751.069 C 1443.92 764.472 1438.26 768.436 1422.16 777.694 C 1431.4 762.84 1443.7 750.342 1455.62 737.637 L 1451.67 719.347 C 1441.65 732.939 1435.07 738.613 1421.75 749.143 C 1427.82 733.148 1437.53 721.459 1446.72 706.847 C 1445.27 699.339 1444.2 696.037 1441.65 688.771 C 1437.18 696.355 1425.84 712.895 1418.45 717.365 L 1417.41 716.157 C 1418.93 706.284 1430.08 687.135 1435.25 677.328 C 1432.91 672.746 1429.8 667.473 1427.25 662.915 C 1423.98 668.452 1411.67 691.794 1405.3 691.313 C 1402.49 683.218 1416.3 660.911 1420.59 654.132 C 1417.95 649.736 1413.92 644.198 1410.92 639.853 C 1406.93 646.126 1397.05 662.646 1390.35 665.041 L 1389.17 663.797 C 1389.57 653.523 1398.56 641.016 1404.1 632.555 C 1400.32 629.096 1396.75 625.814 1393.12 622.185 L 1391 623.387 C 1389.35 621.511 1387.59 619.763 1385.84 617.968 C 1379.95 612.835 1378.88 612.147 1372.16 608.585 C 1368.81 605.972 1368.95 605.83 1364.96 604.817 L 1366.44 601.273 L 1366.54 600.158 z" fill="rgb(187,20,34)" transform="translate(0,0)"></path>
<path d="M 1391 623.387 C 1385.4 628.859 1371.02 642.16 1363.15 640.347 L 1362.83 638.277 C 1366.88 629.498 1377.83 623.011 1385.84 617.968 C 1387.59 619.763 1389.35 621.511 1391 623.387 z" fill="rgb(185,13,18)" transform="translate(0,0)"></path>
<path d="M 1364.26 605.095 L 1364.96 604.817 C 1368.95 605.83 1368.81 605.972 1372.16 608.585 C 1359.8 618.934 1355.73 623.37 1340.01 627.219 C 1347.89 617.52 1357.09 613.725 1364.26 605.095 z" fill="rgb(185,13,18)" transform="translate(0,0)"></path>
<path d="M 1354.68 599.817 L 1356.53 596.676 C 1359.82 598.208 1363.13 599.783 1366.44 601.273 L 1364.96 604.817 L 1364.26 605.095 C 1361.73 603.976 1357.26 601.266 1354.68 599.817 z" fill="rgb(101,31,40)" transform="translate(0,0)"></path>
<path d="M 1632.96 536.704 C 1686.24 568.085 1724.66 619.567 1739.58 679.568 C 1754.3 737.559 1745.46 799.021 1714.99 850.51 C 1714.32 851.657 1713.9 852.157 1713.08 853.191 C 1712.12 854.328 1710.09 856.567 1709.39 857.721 L 1705.2 856.831 C 1702.82 856.138 1698.84 852.958 1696.41 851.337 C 1691.32 848.073 1687.36 845.297 1682.51 841.688 L 1684.98 837.94 C 1683.85 832.534 1695.29 808.001 1690.32 801.148 L 1688.38 801.723 C 1683.16 808.349 1679.77 822.471 1677.23 831.053 C 1671.15 827.288 1667.71 824.574 1662.1 820.079 C 1665.21 814.445 1677.32 789.017 1672.51 784.251 C 1665.14 787.469 1660.6 808.935 1654.1 813.861 C 1649.88 809.412 1646.47 805.67 1642.53 800.962 C 1646.86 794.267 1658.43 774.191 1655.31 766.808 C 1650.77 768.464 1641.16 786.417 1637.34 792.099 C 1633.69 787.256 1630.1 781.853 1626.63 776.825 C 1638.03 761.855 1639.14 759.253 1643.21 740.823 C 1631.63 750.342 1628.85 756.425 1621.42 769.064 C 1618.58 763.229 1616.23 756.82 1613.85 750.762 C 1619.04 742.088 1628.45 732.594 1630.42 722.764 L 1629.46 721.536 C 1621.91 723.198 1614.1 733.44 1609.51 739.427 L 1604.15 720.806 C 1611.47 712.433 1622.75 700.649 1627.82 691.454 C 1615.79 695.303 1610.34 700.383 1601.57 708.886 C 1600.95 703.391 1599.47 697.156 1598.34 691.678 C 1605.62 687.4 1624.51 673.457 1625.34 665.043 L 1623.26 664.545 C 1614.68 666.852 1604.53 674.124 1596.88 679.141 L 1596.81 660.745 C 1602.52 656.622 1623.61 643.217 1623.34 636.28 C 1617.81 634.616 1600.83 645.816 1595.86 648.813 C 1596.66 642.277 1597.63 635.762 1598.75 629.272 C 1606.67 626.69 1631.01 616.194 1633.47 608.803 L 1632.08 607.502 C 1623.25 606.865 1608.36 614.271 1600.45 618.242 C 1602.35 611.236 1604.29 604.243 1606.27 597.261 C 1606.92 592.39 1606.77 590.98 1609.15 586.863 C 1611.47 580 1613.34 575.158 1616.23 568.511 C 1624.28 567.079 1650.48 563.24 1654.45 556.094 C 1649.05 552.63 1628.45 557.061 1622.12 558.23 C 1625.52 551.138 1629.4 543.764 1632.96 536.704 z" fill="rgb(255,255,255)" transform="translate(0,0)"></path>
<path d="M 1609.15 586.863 L 1610.77 586.522 C 1621.69 584.157 1635.96 577.153 1648.17 579.52 L 1648.65 580.827 C 1642.09 588.517 1615.69 596.073 1606.27 597.261 C 1606.92 592.39 1606.77 590.98 1609.15 586.863 z" fill="rgb(185,13,18)" transform="translate(0,0)"></path>
<path d="M 1698.15 844.228 C 1700.42 835.845 1705.37 814.599 1711.54 809.564 L 1712.91 810.219 C 1715.16 817.77 1711.58 838.731 1707.89 845.544 C 1707.29 846.67 1706.65 847.777 1705.98 848.863 C 1701.12 846.395 1701.17 848.315 1698.15 844.228 z" fill="rgb(185,13,18)" transform="translate(0,0)"></path>
<path d="M 1684.98 837.94 C 1687.95 839.973 1694.37 844.942 1697.47 845.39 L 1698.15 844.228 C 1701.17 848.315 1701.12 846.395 1705.98 848.863 C 1708.91 850.895 1709.94 851.58 1713.08 853.191 C 1712.12 854.328 1710.09 856.567 1709.39 857.721 L 1705.2 856.831 C 1702.82 856.138 1698.84 852.958 1696.41 851.337 C 1691.32 848.073 1687.36 845.297 1682.51 841.688 L 1684.98 837.94 z" fill="rgb(187,20,34)" transform="translate(0,0)"></path>
<path d="M 1627.81 533.546 L 1632.96 536.704 C 1629.4 543.764 1625.52 551.138 1622.12 558.23 C 1628.45 557.061 1649.05 552.63 1654.45 556.094 C 1650.48 563.24 1624.28 567.079 1616.23 568.511 C 1613.34 575.158 1611.47 580 1609.15 586.863 C 1606.77 590.98 1606.92 592.39 1606.27 597.261 C 1604.29 604.243 1602.35 611.236 1600.45 618.242 C 1608.36 614.271 1623.25 606.865 1632.08 607.502 L 1633.47 608.803 C 1631.01 616.194 1606.67 626.69 1598.75 629.272 C 1597.63 635.762 1596.66 642.277 1595.86 648.813 C 1600.83 645.816 1617.81 634.616 1623.34 636.28 C 1623.61 643.217 1602.52 656.622 1596.81 660.745 L 1596.88 679.141 C 1604.53 674.124 1614.68 666.852 1623.26 664.545 L 1625.34 665.043 C 1624.51 673.457 1605.62 687.4 1598.34 691.678 C 1599.47 697.156 1600.95 703.391 1601.57 708.886 C 1610.34 700.383 1615.79 695.303 1627.82 691.454 C 1622.75 700.649 1611.47 712.433 1604.15 720.806 L 1609.51 739.427 C 1614.1 733.44 1621.91 723.198 1629.46 721.536 L 1630.42 722.764 C 1628.45 732.594 1619.04 742.088 1613.85 750.762 C 1616.23 756.82 1618.58 763.229 1621.42 769.064 C 1628.85 756.425 1631.63 750.342 1643.21 740.823 C 1639.14 759.253 1638.03 761.855 1626.63 776.825 C 1630.1 781.853 1633.69 787.256 1637.34 792.099 C 1641.16 786.417 1650.77 768.464 1655.31 766.808 C 1658.43 774.191 1646.86 794.267 1642.53 800.962 C 1646.47 805.67 1649.88 809.412 1654.1 813.861 L 1652.75 816.721 L 1640 804.131 C 1631.42 806.093 1611.9 811.097 1604.57 807.562 L 1604.64 805.963 C 1611 800.648 1625.42 798.015 1633.86 795.977 C 1630.53 790.723 1625.25 783.851 1621.49 778.667 C 1610.4 781.368 1594.01 782.951 1583.22 778.862 L 1582.57 777.376 C 1588.27 772.301 1608.77 771.747 1617.19 771.117 L 1608.21 752.987 C 1598.39 752.444 1578.17 751.913 1571 745.389 L 1571.23 743.774 C 1579.56 739.587 1596.87 743.233 1606.27 744.785 C 1603.88 737.08 1602.02 731.52 1598.98 724.078 C 1582.37 719.877 1571.64 718.291 1556.76 710.025 C 1572.96 706.75 1581.37 709.141 1596.76 713.527 C 1595.56 708.112 1593.84 701.679 1593.59 696.242 C 1594.59 691.828 1594.63 685.194 1592.47 681.27 C 1591.11 673.829 1590.96 664.279 1589.7 655.864 C 1580.46 653.228 1558.91 643.65 1553.7 636.426 L 1554.89 635.312 C 1564.49 634.954 1582.19 641.205 1589.26 647.578 L 1590.47 646.727 C 1591.39 640.046 1592.37 633.373 1593.4 626.707 C 1580.63 615.117 1570.97 613.286 1560.26 596.911 C 1575.51 601.11 1584.25 606.741 1595.37 617.681 L 1600.62 595.161 C 1594.97 590.381 1574.41 571.394 1575.71 563.987 L 1577.97 563.983 C 1587.62 568.628 1596.3 579.273 1603.87 587.188 C 1605.69 581.185 1607.56 575.198 1609.47 569.227 C 1611.82 565.618 1612.28 563.253 1613.58 559.088 C 1616.6 550.459 1621.45 540.172 1627.81 533.546 z" fill="rgb(187,20,34)" transform="translate(0,0)"></path>
<path d="M 1654.1 813.861 C 1660.6 808.935 1665.14 787.469 1672.51 784.251 C 1677.32 789.017 1665.21 814.445 1662.1 820.079 C 1667.71 824.574 1671.15 827.288 1677.23 831.053 C 1679.77 822.471 1683.16 808.349 1688.38 801.723 L 1690.32 801.148 C 1695.29 808.001 1683.85 832.534 1684.98 837.94 L 1682.51 841.688 C 1670.7 852.359 1660.46 857.536 1644.38 858.888 C 1653.29 849.637 1664.1 843.495 1674.97 836.756 L 1659.63 823.564 C 1652.12 828.061 1629.77 837.608 1621.44 835.533 L 1620.87 834.099 C 1625.06 827.657 1645.26 822.061 1652.75 816.721 L 1654.1 813.861 z" fill="rgb(185,13,18)" transform="translate(0,0)"></path>
<path d="M 1593.59 696.242 C 1593.13 695.149 1592.54 693.763 1591.82 692.085 C 1584.74 686.463 1560.75 680.626 1555.85 673.358 L 1557.11 672.508 C 1572.44 672.425 1577.26 675.346 1590.49 682.008 L 1592.47 681.27 C 1594.63 685.194 1594.59 691.828 1593.59 696.242 z" fill="rgb(187,20,34)" transform="translate(0,0)"></path>
<path d="M 1609.47 569.227 C 1605.7 563.146 1588.72 539.781 1591.18 534.023 C 1600.11 534.22 1610.26 551.612 1613.58 559.088 C 1612.28 563.253 1611.82 565.618 1609.47 569.227 z" fill="rgb(185,13,18)" transform="translate(0,0)"></path>
<path d="M 1696.41 851.337 C 1698.84 852.958 1702.82 856.138 1705.2 856.831 C 1695.4 868.112 1683.2 875.859 1669.1 880.512 C 1674.69 871.989 1688.76 858.904 1696.41 851.337 z" fill="rgb(185,13,18)" transform="translate(0,0)"></path>
<path d="M 1366.54 600.158 C 1367.92 592.577 1384.59 576.61 1392.54 577.43 C 1395.22 583.133 1377.73 597.969 1373.46 601.873 C 1370.03 601.8 1369.67 601.42 1366.54 600.158 z" fill="rgb(185,13,18)" transform="translate(0,0)"></path>
<path d="M 1386.82 610.713 C 1394.89 602.642 1405.56 595.423 1417.38 595.339 L 1418.09 596.539 C 1413.94 602.937 1400.28 609.804 1393.4 615.702 C 1391.03 614.536 1388.87 612.451 1386.82 610.713 z" fill="rgb(185,13,18)" transform="translate(0,0)"></path>
<path d="M 1359.64 220.335 C 1433.13 214.052 1485.85 290.084 1448.43 353.814 C 1405.43 427.017 1304.91 411.883 1281.72 329.619 C 1248.07 325.488 1221.28 320.74 1186.81 318.602 C 978.33 303.845 770.486 355.048 592.714 464.961 C 388.379 590.119 242.061 790.842 171.586 1018.28 C 163.093 1045.69 156.403 1074.91 149.684 1102.87 C 138.861 1154.04 133.412 1198.02 127.587 1249.77 L 126.874 1250.59 L 127.02 1251.84 C 125.991 1247.46 126.548 1231.51 126.751 1225.96 C 128.938 1166.39 136.555 1106.67 147.223 1048.06 C 152.916 1016.78 160.022 990.454 168.737 960.096 C 230.667 745.299 364.77 558.427 548.435 430.988 C 729.825 305.156 947.446 242.215 1168 251.795 C 1206.67 253.483 1251.92 257.448 1290.33 264.387 C 1291.5 262.497 1292.74 260.66 1294.07 258.88 C 1311.16 235.884 1331.49 224.387 1359.64 220.335 z" fill="rgb(2,30,69)" transform="translate(0,0)"></path>
<path d="M 1922.15 201.03 L 1923.39 201.342 C 1924.21 211.292 1871.98 379.044 1865.54 401.333 C 1850.45 453.443 1836.09 505.759 1822.44 558.264 C 1809.15 511.949 1796.89 456.218 1781.83 411.583 C 1761.23 435.378 1741.03 459.505 1721.21 483.954 C 1709.1 498.819 1693.93 518.239 1680.97 531.628 C 1670.71 524.652 1661.01 518.054 1650.44 511.56 C 1672.36 482.188 1695.76 455.759 1719.23 427.915 C 1746.01 396.072 1772.41 363.917 1798.44 331.455 C 1812.95 313.528 1832.83 291.405 1845.22 272.703 C 1840.07 277.658 1834.62 283.659 1829.65 288.904 C 1812.77 307.599 1795.07 325.798 1778.13 344.438 L 1635.75 504.122 C 1616.11 493.583 1599.51 489.242 1578.36 483.263 C 1592.2 467.959 1607.56 452.897 1621.8 437.645 C 1646.58 411.123 1671.78 382.454 1697.62 356.99 C 1653.54 347.145 1613.64 336.713 1569.87 325.238 C 1687.01 283.011 1804.43 241.607 1922.15 201.03 z" fill="rgb(2,30,69)" transform="translate(0,0)"></path>
<path d="M 1055.79 512.904 C 1073.72 513.816 1095.63 514.307 1113.25 515.889 C 1126.3 516.503 1142.52 516.899 1155.18 518.548 C 1174.92 521.144 1292.37 542.3 1302.33 551.033 L 1302.95 552.896 C 1302.16 554.253 1302.24 554.866 1300.56 555.288 C 1295.65 556.529 1236.62 541.402 1225.1 539.135 C 1205.32 535.248 1185.6 532.834 1165.73 529.727 C 1156.65 527.298 1126.94 526.211 1116.81 526.047 C 1099.92 524.701 1079.98 524.042 1063.05 523.927 C 1049.3 524.001 1028.12 524.157 1014.6 525.977 C 997.288 527.823 980.017 530.031 962.799 532.599 C 951.458 534.354 923.194 538.924 913.012 542.201 C 898.005 545.651 879.409 550.099 864.841 554.763 C 853.712 557.738 829.562 565.582 819.241 571.135 C 803.073 576.644 786.876 583.564 771.287 590.556 C 759.343 594.382 737.153 606.059 726.728 613.423 C 714.638 618.919 690.969 633.241 680.118 641.254 C 666.188 649.554 655.443 657.197 642.634 667.295 C 634.691 671.215 608.429 692.931 600.813 699.275 C 586.566 709.668 577.993 721.023 565.96 730.873 C 559.184 736.725 537.609 760.798 530.813 768.718 C 518.794 780.318 510.245 792.664 500.583 806.183 C 489.848 818.296 477.729 835.932 468.245 849.143 C 457.625 862.131 452.202 873.468 444.601 888.279 C 439.754 895.396 422.831 927.56 418.649 936.685 C 410.505 951.654 406.063 962.271 399.401 977.623 C 392.202 995.129 385.113 1015.36 378.797 1033.36 C 373.372 1049.33 369.491 1063.9 365.517 1080.25 L 352.659 1141.41 C 349.743 1157.91 347.334 1174.51 345.433 1191.16 C 343.282 1210.06 342.099 1232.81 341.039 1251.88 C 340.585 1264.35 339.244 1287.93 340.64 1299.34 C 341.258 1317.67 342.372 1340.47 344.609 1358.62 C 346.473 1374.91 348.688 1391.17 351.254 1407.37 C 354.166 1424.27 359.164 1448.83 364.29 1465.37 C 368.538 1479.77 370.97 1493.98 375.832 1508.48 C 381.937 1523.96 389.802 1550.53 396.763 1564.14 C 402.509 1574.29 409.181 1593.48 415.122 1605.4 C 424.695 1625.94 434.314 1645.59 445.543 1665.26 C 448.028 1669.62 456.033 1682.82 456.981 1686.56 C 444.118 1672.36 431.046 1650.89 420.611 1634.78 C 418.203 1631.07 409.725 1616.72 407.488 1614.16 C 402.031 1602.37 388.25 1578.84 384.7 1567.17 C 377.992 1548.97 370.816 1531.47 364.621 1512.98 C 359.722 1497.28 355.024 1481.52 350.528 1465.71 C 347.829 1447.29 341.532 1425.19 338.162 1405.75 C 335.793 1390.77 333.954 1374.81 332.032 1359.72 C 330.12 1339.65 328.827 1320.13 327.305 1300.06 C 328.304 1291.53 327.689 1260.96 327.976 1249.69 C 329.571 1230.07 330.357 1210.82 332.392 1191.18 C 334.809 1175.03 336.595 1162.51 339.588 1146.1 L 351.06 1085.62 C 355.395 1074.34 360.965 1050.98 364.683 1038.12 C 371.752 1020.76 378.91 996.996 386.059 978.271 C 390.575 968.649 403.331 942.644 405.826 933.321 C 412.928 919.997 427.828 895.922 433.013 882.449 C 439.123 872.191 450.751 855.46 455.389 845.854 C 465.481 833.876 481.172 812.094 490.491 799.103 C 498.856 789.966 512.176 772.25 520.335 762.21 C 531.63 748.783 549.042 731.632 561.52 718.255 C 569.979 710.302 591.278 693.191 597.561 685.923 C 601.679 683.319 638.417 655.415 642.326 651.682 C 653.976 642.688 666.915 634.431 679.282 626.433 C 689.478 620.238 721.168 603.388 728.133 597.694 C 732.363 596.428 762.431 581.256 768.538 578.439 C 786.126 570.622 800.481 564.293 818.678 557.679 C 833.525 551.502 848.711 546.174 864.163 541.72 C 873.689 539.669 906.759 531.281 915.233 527.752 C 929.086 524.91 944.452 522.748 958.547 520.302 C 974.671 519.463 996.059 515.969 1013.37 514.439 C 1025.45 514.789 1041.88 512.82 1055.79 512.904 z" fill="rgb(2,30,69)" transform="translate(0,0)"></path>
<path d="M 341.039 1251.88 C 373.262 1221.39 392.465 1204.7 427.347 1177.68 C 424.425 1196.31 422.699 1206.15 422.86 1225.15 C 405.966 1239.78 389.279 1254.64 372.805 1269.74 C 363.187 1278.62 350.46 1291.31 340.64 1299.34 C 339.244 1287.93 340.585 1264.35 341.039 1251.88 z" fill="rgb(187,20,34)" transform="translate(0,0)"></path>
<path d="M 325.165 938.259 C 327.209 942.266 328.998 947.512 330.641 951.819 C 341.666 980.71 353.973 1009.11 364.683 1038.12 C 360.965 1050.98 355.395 1074.34 351.06 1085.62 C 337.743 1057.37 319.272 1023.9 304.465 996.225 C 310.093 978.277 318.769 956.679 325.165 938.259 z" fill="rgb(187,20,34)" transform="translate(0,0)"></path>
<path d="M 378.797 1033.36 C 410.256 1020.18 446.377 1005.6 478.919 994.783 C 471.736 1010.98 467.1 1023.48 461.139 1040.23 C 437.296 1047.35 389.005 1069.11 365.517 1080.25 C 369.491 1063.9 373.372 1049.33 378.797 1033.36 z" fill="rgb(187,20,34)" transform="translate(0,0)"></path>
<path d="M 352.659 1141.41 C 380.283 1123.26 416.735 1099.29 445.955 1083.79 C 444 1091.07 437.312 1123.28 434.871 1127.58 C 431.479 1133.55 387.672 1160.7 379.245 1167.34 C 370.41 1174.3 354.021 1185.89 345.433 1191.16 C 347.334 1174.51 349.743 1157.91 352.659 1141.41 z" fill="rgb(187,20,34)" transform="translate(0,0)"></path>
<path d="M 1116.81 526.047 C 1126.94 526.211 1156.65 527.298 1165.73 529.727 C 1191.58 560.256 1213.43 588.595 1237.82 620.228 C 1222.2 615.859 1199.19 612.085 1185.24 607.269 C 1160.52 577.129 1143.96 554.919 1116.81 526.047 z" fill="rgb(187,20,34)" transform="translate(0,0)"></path>
<path d="M 257.369 1283.84 C 268.159 1296.58 283.393 1311.04 295.487 1323.34 C 306.004 1334.03 321.082 1350.56 332.032 1359.72 C 333.954 1374.81 335.793 1390.77 338.162 1405.75 C 328.087 1401.12 317.925 1392.16 309.73 1384.63 C 292.945 1369.2 275.251 1355.06 258.02 1340.22 C 257.445 1321.15 256.804 1302.93 257.369 1283.84 z" fill="rgb(187,20,34)" transform="translate(0,0)"></path>
<path d="M 344.609 1358.62 C 370.053 1326.71 392.86 1302.6 421.153 1273.34 C 420.958 1288.94 421 1304.54 421.281 1320.14 C 402.23 1337.72 366.8 1386.06 351.254 1407.37 C 348.688 1391.17 346.473 1374.91 344.609 1358.62 z" fill="rgb(187,20,34)" transform="translate(0,0)"></path>
<path d="M 291.088 1518.4 C 311.372 1528.33 332.476 1540.72 352.743 1551 C 360.75 1555.07 376.797 1564.78 384.7 1567.17 C 388.25 1578.84 402.031 1602.37 407.488 1614.16 C 392.18 1607 376.554 1600.37 361.186 1593.19 C 343.268 1584.82 325.082 1575.58 306.83 1568.13 C 301.275 1557.4 294.07 1530.74 291.088 1518.4 z" fill="rgb(187,20,34)" transform="translate(0,0)"></path>
<path d="M 275.361 1111.03 C 277.645 1094.85 283.801 1070.75 287.579 1054.31 C 305.155 1085.48 322.644 1113.93 339.588 1146.1 C 336.595 1162.51 334.809 1175.03 332.392 1191.18 C 313.392 1169.08 291.459 1135.81 275.361 1111.03 z" fill="rgb(187,20,34)" transform="translate(0,0)"></path>
<path d="M 264.129 1401.12 C 278.78 1414.24 303.752 1429.57 319.817 1442.64 C 323.748 1445.84 347.211 1463.87 350.528 1465.71 C 355.024 1481.52 359.722 1497.28 364.621 1512.98 C 339.093 1499.13 298.43 1469.77 272.607 1453.07 C 270.074 1443.91 265.904 1412 264.129 1401.12 z" fill="rgb(187,20,34)" transform="translate(0,0)"></path>
<path d="M 500.583 806.183 C 510.245 792.664 518.794 780.318 530.813 768.718 C 564.75 769.786 601.067 773.147 635.303 775.256 C 624.55 785.826 613.851 796.451 603.208 807.132 C 568.114 805.861 534.364 807.275 500.583 806.183 z" fill="rgb(187,20,34)" transform="translate(0,0)"></path>
<path d="M 418.649 936.685 C 426.104 934.866 433.441 932.908 440.845 930.901 C 467.945 923.557 495.929 919.525 523.277 913.201 C 514.614 926.556 506.87 942.292 498.781 954.315 C 472.816 957.78 427.02 971.574 399.401 977.623 C 406.063 962.271 410.505 951.654 418.649 936.685 z" fill="rgb(187,20,34)" transform="translate(0,0)"></path>
<path d="M 1089.44 432.033 C 1103.38 433.649 1121.94 433.816 1137.35 435.284 C 1129.42 443.983 1114.27 456.749 1104.99 465.24 C 1088 480.507 1071.59 496.406 1055.79 512.904 C 1041.88 512.82 1025.45 514.789 1013.37 514.439 C 1032.59 489.739 1067.02 455.697 1089.44 432.033 z" fill="rgb(187,20,34)" transform="translate(0,0)"></path>
<path d="M 565.96 730.873 C 577.993 721.023 586.566 709.668 600.813 699.275 C 639.501 704.627 668.493 713.572 704.686 720.262 C 696.286 726.812 677.087 741.427 668.41 746.627 C 634.493 739.96 600.313 734.704 565.96 730.873 z" fill="rgb(187,20,34)" transform="translate(0,0)"></path>
<path d="M 468.245 849.143 C 503.345 847.264 537.888 842.05 573.712 840.88 C 565.236 851.69 554.271 864.957 546.598 876.037 C 513.306 879.148 476.46 886.04 444.601 888.279 C 452.202 873.468 457.625 862.131 468.245 849.143 z" fill="rgb(187,20,34)" transform="translate(0,0)"></path>
<path d="M 428.807 1368.86 C 429.495 1386.46 430.373 1398.13 435.01 1415.1 C 422.295 1432.06 410.604 1451.23 399.411 1469.29 C 391.462 1482.12 385.026 1496.24 375.832 1508.48 C 370.97 1493.98 368.538 1479.77 364.29 1465.37 C 375.015 1447.1 386.407 1427.79 398.338 1410.28 C 407.795 1396.4 419.569 1383.03 428.807 1368.86 z" fill="rgb(187,20,34)" transform="translate(0,0)"></path>
<path d="M 378.812 839.206 C 387.982 869.359 396.745 902.484 405.826 933.321 C 403.331 942.644 390.575 968.649 386.059 978.271 C 378.783 964.076 356.114 903.265 351.822 887.944 C 361.51 872.091 370.515 855.83 378.812 839.206 z" fill="rgb(187,20,34)" transform="translate(0,0)"></path>
<path d="M 1198.15 440.683 C 1212.97 441.755 1230.97 445.241 1245.93 447.434 C 1239.17 453.286 1231.02 458.056 1224.32 463.501 C 1203.81 480.171 1173.5 500.068 1155.18 518.548 C 1142.52 516.899 1126.3 516.503 1113.25 515.889 C 1124.48 505.973 1134.85 495.857 1145.94 485.924 C 1163.01 470.631 1181.16 456.082 1198.15 440.683 z" fill="rgb(187,20,34)" transform="translate(0,0)"></path>
<path d="M 864.841 554.763 C 894.446 573.265 923.137 593.763 952.232 611.919 C 936.404 614.966 923.085 619.606 908.408 622.745 C 884.149 608.643 843.198 582.019 819.241 571.135 C 829.562 565.582 853.712 557.738 864.841 554.763 z" fill="rgb(187,20,34)" transform="translate(0,0)"></path>
<path d="M 726.728 613.423 C 737.153 606.059 759.343 594.382 771.287 590.556 C 800.906 605.88 833.488 620.855 862.122 636.84 L 824.588 652.606 C 802.952 643.588 781.194 634.863 759.323 626.431 C 752.605 623.799 732.509 616.463 726.728 613.423 z" fill="rgb(187,20,34)" transform="translate(0,0)"></path>
<path d="M 978.532 439.699 C 992.206 437.325 1014.33 436.303 1029.47 434.597 C 1006.63 461.233 979.604 492.521 958.547 520.302 C 944.452 522.748 929.086 524.91 915.233 527.752 C 935.649 498.464 957.715 469.022 978.532 439.699 z" fill="rgb(187,20,34)" transform="translate(0,0)"></path>
<path d="M 962.799 532.599 C 991.498 554.22 1017.36 576.943 1044.14 600.862 C 1026.94 601.207 1017.07 601.976 999.793 604.978 C 983.965 592.316 929.369 549.798 913.012 542.201 C 923.194 538.924 951.458 534.354 962.799 532.599 z" fill="rgb(187,20,34)" transform="translate(0,0)"></path>
<path d="M 680.118 641.254 C 701.446 646.091 758.509 664.36 777.762 674.634 L 743.101 695.897 C 711.16 686.259 675.111 674.767 642.634 667.295 C 655.443 657.197 666.188 649.554 680.118 641.254 z" fill="rgb(187,20,34)" transform="translate(0,0)"></path>
<path d="M 873.509 461.846 C 889.329 458.343 905.127 454.736 920.9 451.027 C 907.697 473.096 890.333 494.631 877.599 517.415 C 873.561 524.639 866.997 534.125 864.163 541.72 C 848.711 546.174 833.525 551.502 818.678 557.679 C 829.636 534.35 859.229 483.065 873.509 461.846 z" fill="rgb(187,20,34)" transform="translate(0,0)"></path>
<path d="M 766.199 499.338 C 780.131 493.689 796.805 488.587 811.263 483.822 C 798.93 513.543 782.641 549.666 768.538 578.439 C 762.431 581.256 732.363 596.428 728.133 597.694 C 735.887 575.726 743.934 553.861 752.272 532.107 C 755.693 523.243 761.537 507.281 766.199 499.338 z" fill="rgb(187,20,34)" transform="translate(0,0)"></path>
<path d="M 1014.6 525.977 C 1028.12 524.157 1049.3 524.001 1063.05 523.927 C 1090.5 550.246 1111.36 574.307 1136.74 601.323 C 1123.83 600.609 1102.47 599.902 1089.96 597.838 C 1067.63 574.79 1038.97 547.083 1014.6 525.977 z" fill="rgb(187,20,34)" transform="translate(0,0)"></path>
<path d="M 265.881 1171.56 C 287.012 1196.76 304.842 1225.51 327.976 1249.69 C 327.689 1260.96 328.304 1291.53 327.305 1300.06 C 318.308 1288.1 306.763 1278.51 297.196 1267.49 C 284.958 1253.4 273.6 1239.93 260.954 1226.1 C 263.069 1208.86 264.343 1189 265.881 1171.56 z" fill="rgb(187,20,34)" transform="translate(0,0)"></path>
<path d="M 482.952 703.613 C 491.76 692.691 513.07 671.337 523.939 659.427 C 520.95 687.547 520.787 733.111 520.335 762.21 C 512.176 772.25 498.856 789.966 490.491 799.103 C 487.397 767.085 487.709 737.259 482.952 703.613 z" fill="rgb(187,20,34)" transform="translate(0,0)"></path>
<path d="M 442.547 746.19 C 444.718 776.958 453.44 812.895 455.389 845.854 C 450.751 855.46 439.123 872.191 433.013 882.449 C 423.416 852.389 417.119 820.05 409.212 789.369 C 420.492 776.841 432.489 759.856 442.547 746.19 z" fill="rgb(187,20,34)" transform="translate(0,0)"></path>
<path d="M 667.407 548.745 C 682.044 541.919 696.539 534.792 710.881 527.367 C 700.855 558.019 687.374 596.076 679.282 626.433 C 666.915 634.431 653.976 642.688 642.326 651.682 C 646.798 629.101 651.759 606.619 657.208 584.254 C 659.56 574.394 663.183 557.357 667.407 548.745 z" fill="rgb(187,20,34)" transform="translate(0,0)"></path>
<path d="M 448.197 1467.68 C 451.304 1478.98 456.337 1498.84 460.747 1509.43 C 448.574 1534.32 422.412 1578.59 415.122 1605.4 C 409.181 1593.48 402.509 1574.29 396.763 1564.14 C 403.518 1553.63 410.282 1533.28 417.237 1520.97 C 427.477 1502.86 438.922 1486.25 448.197 1467.68 z" fill="rgb(187,20,34)" transform="translate(0,0)"></path>
<path d="M 614.609 587.62 C 611.979 598.315 609.054 616.979 606.912 628.319 C 604.009 643.69 597.706 671.279 597.561 685.923 C 591.278 693.191 569.979 710.302 561.52 718.255 C 563.306 689.301 568.531 648.673 571.833 618.84 C 586.758 608.469 600.05 598.056 614.609 587.62 z" fill="rgb(187,20,34)" transform="translate(0,0)"></path>
<metadata><recraft-signature>{"signed_by": "recraft", "signature_b64": "fQAMHhuS3X3fzx+q25RgUobx5xTqFsTlgXRPvaDvG3gfLtmTCcVT8O0UcrtHoQZ71VF1GfZgpDYqt/T1b46LCQ==", "signing_algo": "Ed25519", "generation_timestamp": 1777330474, "identifier": "6885d165-ae73-4b18-b5fd-e48f8ce352f8"}</recraft-signature></metadata></svg>