<svg xmlns="http://www.w3.org/2000/svg" height="1024" preserveAspectRatio="none" style="display: block;" version="1.1" viewBox="0 0 2048 2048" width="1024">
<path d="M 0 0 L 2048 0 L 2048 2048 L 0 2048 L 0 0 z" fill="rgb(255,255,255)" transform="translate(0,0)"></path>
<path d="M 769.007 775.301 C 770.709 775.44 772.407 775.623 774.099 775.85 C 781.051 776.82 787.277 780.66 791.264 786.436 C 826.494 836.687 733.979 979.337 711.008 1028.61 C 699.395 1053.52 665.847 1102.11 685.084 1128.98 C 702.379 1153.13 743.165 1124 758.542 1111.37 C 758.646 1062.73 788.321 1005.18 837.157 989.939 C 851.114 985.582 862.376 984.029 876.687 987.605 C 879.645 974.077 880.989 959.957 883.468 946.287 C 891.666 901.087 903.811 854.465 927.794 814.838 C 936.902 799.789 949.983 783.025 968.069 779.008 C 977.406 776.934 987.666 778.26 995.726 783.605 C 1038.25 811.805 978.671 958.822 963.117 995.328 C 952.966 1019.15 934.118 1052.72 928.08 1076.25 C 925.55 1086.11 926.219 1098.77 928.318 1108.7 C 929.735 1115.4 932.498 1123.84 938.782 1127.54 C 942.264 1129.59 947.244 1129.6 951.14 1129.21 C 979.794 1126.38 995.198 1088.02 1010.71 1084.25 C 1012.55 1084.82 1014.61 1085.33 1015.22 1087.6 C 1027.29 1132.13 963.557 1181.94 922.18 1170.81 C 905.415 1166.3 896.156 1150.23 888.709 1136.1 C 861.3 1161.42 823.732 1186.59 784.684 1166.56 C 775.979 1162.09 770.361 1154.26 765.316 1146.14 C 745.728 1158.99 736.655 1163.96 714.413 1171.16 C 671.064 1180.66 652.217 1168.84 634.65 1129.19 C 599.174 1158.41 560.407 1181.08 512.516 1172.01 C 487.978 1167.37 473.281 1157.58 459.261 1137.16 C 430.768 1150.44 401.545 1177.39 367.671 1172.3 C 334.093 1167.26 343.363 1113.9 348.837 1091.52 C 356.028 1062.12 370.989 989.574 396.418 973.02 C 416.062 972.35 423.973 975.971 436.555 990.611 C 433.029 1003.62 424.128 1016.48 418.556 1028.89 C 411.06 1045.59 383.13 1118.84 390.02 1133.82 C 391.004 1135.96 392.531 1137.4 394.862 1137.89 C 407.619 1140.56 438.689 1117.64 448.278 1110.23 C 445.382 1086.28 449.119 1061.99 459.081 1040.03 C 478.818 996.727 522.974 963.738 572.74 984.17 C 599.359 996.705 605.173 1032.89 590.673 1055.98 C 570.528 1088.06 535.731 1105.01 500.791 1114.81 C 531.3 1164.36 598.851 1120.7 625.435 1089.95 C 627.62 1066.26 627.319 1050.26 631.57 1024.87 C 644.458 947.898 678.81 872.828 722.742 808.794 C 734.072 792.279 748.856 778.23 769.007 775.301 z" fill="rgb(41,57,80)" transform="translate(0,0)"></path>
<path d="M 871.386 1017.43 C 873.038 1017.43 872.157 1017.22 873.872 1018.53 C 874.291 1020.78 873.337 1040.56 873.078 1044.42 C 871.285 1068.2 878.6 1099.38 864.775 1120.34 C 855.492 1134.42 833.678 1145.69 817.958 1134.9 C 794.758 1108.08 818.784 1046.34 844.037 1027.11 C 854.158 1019.4 859.488 1018.34 871.386 1017.43 z" fill="rgb(255,255,255)" transform="translate(0,0)"></path>
<path d="M 754.958 818.666 C 771.162 818.288 755.338 865.587 752.701 873.681 C 734.475 929.615 703.04 980.65 678.977 1033.82 C 677.816 1036.18 678.322 1035.48 676.565 1037.27 C 676.286 1036.67 675.812 1035.78 675.879 1035.15 C 682.493 972.237 708.582 863.734 754.958 818.666 z" fill="rgb(255,255,255)" transform="translate(0,0)"></path>
<path d="M 971.151 818.408 C 971.674 818.588 972.238 818.677 972.721 818.947 C 974.286 819.82 975.403 821.966 976.1 823.563 C 991.361 858.509 942.63 981.318 926.831 1018.83 C 925.456 1022.11 926.54 1021.1 924.114 1022.97 C 922.905 1019 924.204 1010.51 924.584 1006.03 C 928.473 960.12 933.938 913.879 946.093 869.339 C 951.141 850.84 957.342 832.136 971.151 818.408 z" fill="rgb(255,255,255)" transform="translate(0,0)"></path>
<path d="M 537.353 1013.24 C 555.198 1011.34 570.915 1019.29 565.758 1040.32 C 561.108 1059.28 533.518 1073.1 516.875 1081.92 C 509.965 1085.14 503.516 1087.64 496.409 1090.41 C 494.056 1059.08 506.903 1026.01 537.353 1013.24 z" fill="rgb(255,255,255)" transform="translate(0,0)"></path>
<path d="M 1938.22 973.978 C 1941.76 973.912 1945.35 973.775 1948.69 975.139 C 1983.34 989.313 1922 1095.18 1940.72 1132.64 C 1942.42 1136.04 1945.11 1138.49 1948.78 1139.55 C 1961.83 1143.34 1978.16 1131.59 1989.1 1125.53 C 1986.15 1135.92 1982.93 1160.4 1975.56 1165.81 C 1966.01 1172.87 1944.55 1176.7 1932.89 1174.19 C 1885.35 1163.95 1906.83 1078.98 1913.1 1048.8 C 1891.17 1073.54 1854.25 1144.97 1843.71 1176.16 C 1796.41 1175.4 1801.53 1145.44 1808.91 1110.45 C 1811.04 1100.37 1811.74 1090.29 1814.88 1080.17 C 1803.51 1055.45 1795.53 1043.82 1774.31 1027.25 C 1797.16 1091.73 1746.47 1199.69 1666.23 1168.66 C 1657.15 1165.15 1647.51 1155.16 1641.06 1148.24 C 1618.16 1164.95 1586.08 1183.53 1556.89 1172.43 C 1546.5 1168.48 1542.61 1159.17 1539.28 1149.64 C 1512.41 1165.64 1487.22 1179.4 1454.92 1178.16 C 1427.74 1177.12 1416.04 1160.78 1398.94 1142.07 C 1391.09 1147.56 1383.79 1154.37 1375.77 1159.73 C 1364.48 1167.26 1353.23 1172.71 1339.54 1173.5 C 1294.83 1176.08 1294.05 1137.09 1298.54 1104.1 C 1302.52 1074.89 1309.77 1047.32 1319.26 1019.43 C 1322.37 1010.35 1327.15 994.284 1334.07 987.581 C 1344.27 977.691 1368.37 980.443 1377.55 990.832 C 1380.5 994.166 1379.43 997.81 1378.65 1001.72 C 1369.47 1023.32 1295.27 1191.06 1380.41 1127.89 C 1379.82 1123.31 1378.46 1114.15 1381.98 1110.38 C 1392.53 1099.04 1403.16 1088.24 1413.37 1076.56 C 1440.9 1045.23 1460.81 1011.54 1492.91 984.215 C 1514.43 965.89 1543.21 984.611 1528.5 998.133 C 1483.14 1039.86 1523.04 1078.04 1518.26 1125.58 C 1526.1 1121.39 1531.28 1118.51 1538.61 1113.55 C 1540.03 1102.32 1542.34 1091.1 1544.83 1080.05 C 1548.94 1061.81 1565.13 990.461 1580.3 981.573 C 1587.91 977.118 1598.31 978.623 1606.4 981.052 C 1611.19 982.491 1618.3 985.239 1620.23 990.401 C 1622.91 997.57 1607.21 1029.08 1603.83 1037.41 C 1596.93 1054.41 1569.19 1123.09 1577.49 1138.5 C 1578.91 1141.14 1580.75 1142.59 1583.63 1143.35 C 1597.03 1146.89 1618.05 1133.09 1629.62 1126.84 C 1624.89 1111 1623.21 1094.4 1624.67 1077.93 C 1629.98 1020.18 1666.95 975.525 1728.09 978.887 C 1747.99 979.982 1746.31 988.46 1758.95 995.797 C 1784.64 1010.71 1805.61 1024.05 1825.05 1047.57 C 1828.32 1030.28 1831.53 1016.07 1836.43 996.905 C 1841.5 977.051 1861.64 969.181 1878.32 982.68 C 1883.52 986.887 1875.6 1014.01 1874.08 1021.78 C 1870.74 1038.9 1866.46 1056.83 1864.17 1074.68 C 1878.19 1046.77 1910.35 986.837 1938.22 973.978 z" fill="rgb(188,74,73)" transform="translate(0,0)"></path>
<path d="M 1713.7 1017.21 C 1761.92 1013.58 1751.8 1081.46 1737.92 1108.17 C 1729.86 1123.67 1720.86 1133.5 1704.02 1139.02 C 1649.98 1146.47 1658.55 1033.15 1713.7 1017.21 z" fill="rgb(255,255,255)" transform="translate(0,0)"></path>
<path d="M 1461.45 1065.77 C 1464.49 1068.36 1468.53 1080.2 1469.74 1084.34 C 1474.2 1100.18 1480.39 1120.03 1472.03 1135.59 C 1464.55 1149.49 1450.71 1146.77 1439.3 1139.58 C 1427.46 1129.64 1424.36 1124.28 1418.35 1110.13 C 1427.93 1096.51 1448.76 1077.22 1461.45 1065.77 z" fill="rgb(255,255,255)" transform="translate(0,0)"></path>
<path d="M 238.512 781.414 C 304.453 777.768 370.457 787.34 432.645 809.567 C 454.065 817.017 484.119 823.729 475.997 852.473 C 473.836 860.118 470.938 862.492 462.783 861.656 C 438.295 858.838 415.004 848.892 391.038 842.934 C 339.299 830.07 282.997 819.779 229.43 819.797 C 227.212 828.742 223.87 854.737 222.295 864.996 C 218.056 892.604 210.965 923.574 207.827 950.886 C 232.517 949.649 333.339 943.98 351.815 951.255 C 354.421 952.281 355.936 954.001 357.084 956.512 C 360.142 963.197 358.036 970.538 355.434 977.018 C 353.513 981.799 350.684 987.722 345.586 989.757 C 337.413 993.02 309.636 989.035 299.172 988.313 C 286.522 987.439 211.392 982.061 203.789 986.662 C 201.226 988.213 200.89 992.091 200.264 994.836 C 198.1 1004.32 196.961 1014.21 195.258 1023.8 C 189.485 1056.31 183.738 1091.52 171.568 1122.26 C 159.445 1151.21 141.131 1181.03 105.621 1179.57 C 79.5047 1178.49 90.5787 1161.94 98.1059 1146.77 C 122.282 1098.04 139.907 1044.09 150.593 990.715 C 136.469 990.969 122.405 994.816 108.988 998.903 C 103.177 1000.67 94.7919 1004 89.1955 1004.49 C 84.2388 1000.63 91.54 984.314 94.2382 979.842 C 106.291 959.865 136.95 961.033 157.632 956.548 C 169.248 918.316 175.133 877.712 185.146 838.977 C 186.264 834.653 187.086 830.006 187.902 825.606 C 150.917 833.684 127.106 857.642 118.795 893.653 C 116.137 900.855 112.539 920.995 106.99 926.353 C 85.2735 947.321 67.9347 911.026 67.4577 893.976 C 66.8332 871.656 70.9 851.756 85.4208 836.076 C 124.184 794.22 184.557 785.178 238.512 781.414 z" fill="rgb(41,57,80)" transform="translate(0,0)"></path>
<path d="M 1396.57 778.295 C 1422.84 775.229 1442.38 782.42 1452.47 808.269 C 1347.57 825.615 1308.9 918.226 1266.74 1001.89 C 1238.71 1057.49 1211.88 1115.99 1174.48 1165.9 C 1169 1173.4 1161.86 1176.38 1152.79 1177.02 C 1102.18 1180.63 1100.86 1104.79 1097.52 1067.9 C 1094.03 1026.63 1091.55 985.277 1090.08 943.884 C 1089.68 931.219 1083.98 832.99 1095.91 821.777 C 1100.92 817.061 1144.69 827.726 1149.27 841.195 C 1155.93 862.163 1148.54 893.335 1149.17 914.319 C 1150.11 945.979 1143.68 1084.45 1157.24 1105.35 L 1158.92 1105.62 C 1173.16 1094.14 1251.21 926.014 1266.07 897.76 C 1275.32 880.401 1285.66 863.642 1297.02 847.584 C 1323.16 811.132 1351.58 785.793 1396.57 778.295 z" fill="rgb(188,74,73)" transform="translate(0,0)"></path>
<path d="M 1853.96 476.161 C 1882 474.652 1891.99 476.34 1903.01 504.157 C 1906.6 505.82 1913.65 509.337 1916.53 511.176 C 1923.99 515.948 1928.73 547.672 1930.46 557.292 C 1928.01 559.279 1924.85 559.954 1921.74 559.755 C 1899.26 558.312 1902.75 536.754 1903.76 521.577 C 1897.11 539.123 1896.58 541.574 1882.17 553.519 C 1889.15 559.491 1899.45 567.67 1902.52 576.306 C 1910.85 599.769 1903.8 626.136 1907.86 649.294 C 1910.2 662.605 1921.17 683.738 1926.69 696.985 C 1937.75 723.543 1949.21 750.221 1961.23 776.365 C 1951.19 781.079 1938.12 786.303 1927.77 789.955 C 1947.96 839.351 1955.69 872.25 1968.52 923.11 C 1943.88 923.975 1912.34 923.213 1887.42 922.652 C 1901.41 898.263 1929.4 902.281 1952.51 907.228 C 1934.8 873.263 1918.53 836.007 1903.08 800.895 C 1877.01 806.21 1857.4 802.089 1833.81 790.604 C 1831.2 799.071 1828.35 806.936 1825.34 815.247 C 1808.35 854.326 1788.08 891.894 1764.73 927.544 C 1759.45 921.793 1749.25 907.022 1744.29 900.232 C 1733.89 885.74 1722.87 871.705 1711.26 858.169 C 1741.77 855.998 1750.16 870.895 1763.38 894.464 C 1787.73 868.857 1804.73 786.22 1817.96 751.038 C 1829.5 720.345 1841.02 688.371 1853.49 657.651 C 1837.91 666.644 1789.03 693.856 1773.09 681.736 L 1773.45 680.16 C 1785.57 669.662 1829.31 649.558 1845.7 642.762 C 1848.68 611.253 1852.46 598.785 1866.19 569.976 L 1861.29 562.993 C 1839.84 572.686 1832.32 568.387 1830.28 544.479 L 1829.5 543.575 C 1828.65 542.568 1826.02 539.511 1826.04 538.419 C 1826.17 532.44 1827.16 524.179 1827.69 518.344 C 1820.24 516.361 1811.13 514.632 1803.39 512.819 C 1811.26 509.093 1816.86 507.936 1824.86 503.261 C 1832.91 488.925 1836.41 480.066 1853.96 476.161 z" fill="rgb(41,57,80)" transform="translate(0,0)"></path>
<path d="M 425.982 883.177 C 475.853 882.149 472.547 934.678 436.594 944.084 C 408.855 942.986 385.653 933.109 402.568 898.545 C 406.931 889.631 416.589 885.411 425.982 883.177 z" fill="rgb(41,57,80)" transform="translate(0,0)"></path>
<path d="M 1380.49 880.355 C 1422.78 880.148 1431.8 925.557 1386.6 942.938 C 1347.42 947.886 1334.25 889.11 1380.49 880.355 z" fill="rgb(188,74,73)" transform="translate(0,0)"></path>
<path d="M 1624.39 884.375 C 1661.91 886.711 1667.95 932.299 1622.07 945.458 C 1582.6 942.532 1575.72 889.321 1624.39 884.375 z" fill="rgb(188,74,73)" transform="translate(0,0)"></path>
<metadata><recraft-signature>{"signed_by": "recraft", "signature_b64": "aPzYDM1jalUkaTXNf3UVjc8zgFwhFRzKqydwgMwVSGt1S1qU+DI2jKKVeZPYXmCBdi8gneBWGVQoiHOjkbNdDg==", "signing_algo": "Ed25519", "generation_timestamp": 1777331682, "identifier": "a54e6dc6-24d6-4356-87d6-fc05a134851f"}</recraft-signature></metadata></svg>