<svg xmlns="http://www.w3.org/2000/svg" height="1024" preserveAspectRatio="none" style="display: block;" version="1.1" viewBox="0 0 2048 2048" width="1024">
<path d="M 0 0 L 2048 0 L 2048 2048 L 0 2048 L 0 0 z" fill="rgb(255,255,255)" transform="translate(0,0)"></path>
<path d="M 1559.42 385.206 C 1562.77 384.785 1566.14 384.595 1569.52 384.638 C 1600.82 385.244 1613.32 405.21 1631.88 426.128 C 1654.24 451.321 1675.08 479.827 1698.3 503.997 C 1701.92 500.947 1707.1 496.906 1711.43 494.861 C 1774.66 464.974 1882.96 477.236 1904.31 555.721 C 1908.25 570.223 1909.12 581.563 1909.82 596.108 C 1921.59 601.101 1976.72 627.925 1952.49 644.516 C 1944.08 650.273 1921.47 661.46 1911.11 666.453 C 1905.19 669.306 1893.07 667.527 1888.97 670.661 C 1882.63 682.708 1891.02 690.49 1892.06 706.954 C 1885.5 715.059 1885.71 715.818 1884.86 725.922 L 1881.72 729.823 C 1871.53 742.31 1875.34 751.099 1859.75 768.907 C 1877.11 778.098 1883.78 793.931 1898.39 807.39 C 1911.9 819.831 1928.47 824.708 1939.14 837.866 C 1951.67 853.316 1958.63 871.444 1966.01 889.592 C 1989.1 894.443 2004.5 909.78 2010.49 932.475 C 2013.68 944.538 2013.02 956.041 2012.92 968.364 C 2073.47 990.825 2024.16 1041.11 1987.66 1053.04 C 1969.66 1058.93 1961.08 1036.54 1957.82 1023.26 C 1953.35 1021.79 1950.97 1020.97 1946.76 1018.92 L 1945.81 1019.25 C 1925.06 1026.15 1899.2 1030.26 1877.16 1027.58 C 1862.72 1025.83 1850.09 1020.74 1834.89 1022.35 C 1828.69 1023.01 1815.43 1015.73 1809.76 1012.91 C 1802.55 1031.14 1791.97 1045.97 1787.53 1065.63 C 1781.39 1092.77 1794.48 1123.57 1775.73 1145.64 C 1769.07 1153.48 1763.07 1158.91 1755.84 1166.09 C 1755.68 1166.25 1753.56 1168.85 1753.57 1168.89 C 1754.96 1175.75 1756.4 1181.66 1756.88 1188.62 L 1756.96 1189.92 C 1764.8 1201.31 1791.5 1225.8 1802.57 1236.59 L 1887.58 1320.37 C 1918.95 1350.9 1956.07 1383.06 1980.93 1418.91 C 1989.36 1431.07 1989.36 1448.65 1990.45 1463.39 C 1991.14 1472.74 1995.3 1489.96 1994 1500.3 C 1977.03 1531.13 2002.4 1566.24 1965.54 1584.63 C 1942.86 1654.03 1926.44 1704.8 1911.72 1777.18 C 1926.53 1785.65 1932.71 1793.59 1933.16 1810.56 C 1946 1816.74 1958.71 1824.98 1967.53 1836.29 C 1982.77 1839.77 2002.64 1846.35 2013.93 1857.51 C 2023.93 1867.36 2029.37 1880.94 2028.96 1894.97 C 2028.84 1899.95 2027.36 1909.43 2023.16 1911.99 C 2003.95 1923.67 1973.56 1926.89 1952.43 1924.88 C 1940.51 1936.57 1938.44 1935.05 1926.71 1924.35 C 1911.57 1921.48 1869.73 1922.71 1852.45 1923.07 C 1834.33 1944.02 1830.66 1922.39 1825.5 1922.74 C 1773.96 1926.16 1785.5 1881.34 1781.36 1846.57 C 1779.64 1832.14 1795.27 1811.88 1804.85 1802.27 C 1802.59 1782.13 1803.35 1753.7 1802.81 1733.1 C 1801.39 1678.87 1803.44 1627.33 1808.75 1573.24 C 1809.37 1567.67 1803.52 1554.87 1804.71 1546.1 C 1806.85 1530.23 1812.54 1522.43 1814.78 1505.94 C 1801.76 1498.56 1796.48 1488 1786.76 1482.54 C 1776.25 1478.57 1765.68 1474.18 1755.16 1470.26 C 1731.11 1461.29 1704.06 1443.01 1680.56 1435.14 C 1670.06 1461.52 1659.22 1487.75 1648.04 1513.84 C 1644.58 1521.8 1636.63 1534.43 1635.05 1541.54 C 1633.65 1547.82 1635.09 1563.22 1634.82 1570.67 C 1634.35 1583.42 1628.39 1590.22 1621.32 1600.69 C 1609.06 1618.75 1599.01 1636.98 1580.31 1649.26 C 1570.6 1655.63 1559.75 1662.56 1550.83 1669.86 C 1535.37 1682.53 1521.61 1700.35 1503.14 1708.72 C 1492.01 1713.77 1476.68 1712.16 1464.92 1716.6 C 1411.35 1731 1319.26 1754.47 1277.77 1792.31 C 1273.65 1807.67 1268.32 1817.71 1253.84 1825.28 C 1249.92 1838.11 1246.31 1853.61 1243.06 1866.7 C 1247.69 1882.31 1256.41 1900.81 1239.96 1914.28 C 1237.2 1914.56 1234.79 1914.66 1232.7 1916.68 C 1220.84 1928.09 1210.69 1925.95 1196.51 1922.33 C 1186.93 1931.33 1169.15 1934.1 1159.3 1926.27 C 1144.29 1914.34 1149.37 1921.11 1132.32 1919.89 L 1128.74 1917.73 C 1118.92 1911.71 1106.97 1909.59 1098.02 1903.26 C 1090.41 1896.7 1095.44 1877.97 1090.38 1871.23 C 1082.94 1862.98 1092.12 1851.64 1095.75 1843.35 C 1111.21 1808.05 1135.59 1776.98 1157.62 1745.65 C 1173.7 1722.79 1175.19 1711.64 1206.81 1710.15 C 1218.8 1700.69 1233.06 1689.83 1243.97 1679.44 C 1259.21 1664.92 1271.98 1650.39 1288.28 1636.76 C 1323.82 1607.06 1359.33 1592.69 1401.39 1575.73 C 1409.59 1561.91 1436.85 1536.1 1451.66 1531.45 L 1451.51 1529.79 C 1449.56 1505.65 1452.35 1496.52 1467.76 1478.56 L 1473.51 1390.61 C 1474.52 1374.84 1476.03 1355.79 1476.33 1340.18 C 1476.56 1328.07 1467.16 1313.23 1466.2 1297.12 C 1463.55 1252.51 1480.96 1200.82 1497.66 1160.03 C 1495.51 1157.04 1493.42 1154 1491.41 1150.92 C 1463.92 1109.14 1505.64 1105.41 1517.72 1077.29 C 1520.51 1070.8 1520.07 1035.47 1521.58 1023.98 C 1527.2 981.109 1533.31 938.242 1541.81 895.781 C 1553.58 840.961 1587.3 775.777 1625.75 735.091 C 1638.16 721.962 1653.3 710.335 1668.24 700.511 C 1668.75 695.721 1669.45 691.433 1670.23 686.704 C 1660.12 673.05 1658.92 666.667 1657.63 649.924 C 1656.46 634.755 1656.06 619.666 1655.17 604.507 C 1629.45 577.978 1526 486.169 1516.26 459.294 C 1511.84 447.112 1511.93 433.885 1517.46 422.088 C 1525.34 405.306 1542.12 391.318 1559.42 385.206 z" fill="rgb(30,31,57)" transform="translate(0,0)"></path>
<path d="M 1780.17 490.424 C 1810.22 489.575 1850.19 498.643 1872.32 520.028 C 1896.91 543.8 1900.73 570.278 1901.53 602.342 C 1912.29 606.604 1946.93 624.049 1949.47 634.97 C 1943.89 641.539 1925.2 648.892 1917.47 653.935 C 1906.31 661.206 1894.21 660.841 1881.36 660.364 C 1881.03 667.142 1878.3 676.215 1878.8 681.518 C 1879.97 688.915 1885.07 695.844 1884.06 703.54 C 1883.53 707.598 1878.42 710.002 1875.09 712.303 C 1874.22 715.279 1875.04 716.472 1876.13 719.427 L 1876.54 720.529 C 1875.92 723.619 1874.2 725.169 1872.06 727.508 C 1863.83 736.544 1863.84 754.61 1852.67 761.887 C 1842.56 768.481 1818.12 763.346 1806.29 761.871 L 1807.24 763.226 C 1808.23 764.688 1811.28 769.444 1812.66 769.953 C 1828.43 775.224 1835.09 770.87 1851.14 779.855 C 1867.3 788.897 1879.83 811.05 1889.67 824.279 C 1889.92 824.625 1907.45 825.395 1911.32 832.402 C 1912.88 835.228 1922.34 838.44 1925.1 839.327 C 1941.13 861.659 1946.91 877.358 1955.75 902.789 C 1989.1 906.95 2000.75 924.945 2000.57 957.931 C 2000.53 965.668 1998.62 972.365 2000.44 980.143 C 2003.62 982.663 2014.38 983.288 2018.84 985.494 C 2053.81 1002.81 1997.94 1036.55 1981.1 1041.86 C 1976.38 1037.02 1974.98 1034.22 1972.09 1028.38 C 1972.82 1023.91 1972.81 1019.87 1972.94 1015.36 C 1954.11 1006.93 1958.54 1001.56 1935.52 1007.45 C 1914.84 1012.74 1888.99 1015.79 1867.96 1010.94 C 1860.55 1009.23 1859.58 1008.46 1854.35 1003.35 C 1848.77 1002.24 1845.39 1006.66 1841.63 1007.58 C 1832.18 1009.9 1807.61 993.091 1798.27 987.662 C 1792.91 1016.19 1779.29 1032.37 1772.14 1059.54 C 1767.09 1078.75 1771.07 1098.97 1769.81 1118.23 C 1768.61 1136.56 1748.83 1148.89 1734.82 1159.49 C 1734.98 1171.73 1738.83 1182.71 1739.15 1195.89 C 1746.86 1206.3 1763.66 1221.87 1773.33 1231.61 C 1811.65 1269.75 1850.34 1307.51 1889.41 1344.88 C 1911.14 1365.96 1932.86 1386.73 1952.92 1408.63 C 1976.95 1434.84 1973.28 1448.73 1977.06 1481.15 C 1977.37 1483.81 1979.21 1498.15 1977.89 1500.24 C 1959.94 1528.61 1987.74 1559.86 1950.88 1571.68 C 1948.02 1590.02 1935.78 1622.83 1929.93 1641.76 C 1915.13 1689.61 1900.74 1738.91 1896.36 1789.01 C 1913.47 1793.74 1916.46 1796.94 1917.24 1814.18 C 1922.78 1820.23 1956.54 1846.62 1964.5 1851.12 C 1978.28 1857.26 1993.77 1859.07 2004.51 1870.81 C 2009.46 1876.22 2019.37 1896.11 2009.56 1901.16 C 1989.13 1911.64 1969.39 1918.35 1946.4 1912.55 C 1944.99 1916.62 1943.88 1922.25 1939.01 1922.14 C 1930.95 1914.89 1925.09 1914.88 1917.71 1908.84 C 1894.3 1908.07 1870.13 1906.63 1847.19 1911.37 C 1846.06 1913.9 1844.68 1915.82 1843.17 1918.12 C 1836.07 1921.67 1834.81 1917.22 1832.16 1911.86 C 1825.47 1908.31 1807.63 1909.88 1804.94 1901.53 C 1802.34 1893.46 1802.52 1882.06 1801.59 1873.22 C 1799.54 1853.9 1794.96 1834.75 1812.53 1820.96 C 1811.88 1821.48 1820.34 1819.58 1821.05 1819.34 C 1822.34 1815.36 1820.02 1773.93 1820.13 1766.09 C 1821.01 1702.92 1814.57 1622.23 1829.04 1560.81 C 1818.06 1555.2 1817.67 1550.75 1821.75 1539.32 C 1825.1 1529.93 1838.41 1502.68 1830.38 1494.51 C 1806.2 1486.21 1800.26 1466.09 1779.57 1460.9 C 1765.76 1457.44 1761.8 1454.02 1748.88 1448.16 C 1722.95 1436.4 1697.22 1424.2 1671.71 1411.54 C 1663.43 1430.36 1656.53 1449.61 1647.71 1469.21 C 1637.81 1492.67 1625.64 1515.59 1617.24 1539.61 C 1614.72 1548.57 1621.74 1567.95 1616.31 1575.8 C 1604.85 1592.41 1591.56 1617.41 1576.59 1630.67 C 1566.18 1639.89 1551.52 1645.43 1540.5 1655.24 C 1525.77 1668.37 1512.62 1684.6 1495.19 1693.52 C 1486.59 1696.7 1464.98 1698.38 1452.45 1701.75 C 1397.06 1716.61 1298.71 1742.9 1258.05 1786.23 C 1259.65 1800.71 1258.26 1804.03 1242.87 1806.16 C 1236.53 1822.85 1225.15 1853.46 1226.53 1871.96 C 1227.24 1881.5 1237.32 1887.22 1230.68 1900.18 C 1226.96 1903.05 1226.9 1901.96 1221.61 1902.89 L 1221.27 1904.93 C 1223.74 1908 1225.52 1908.97 1224.38 1912.8 C 1216.29 1921.62 1204.98 1914.22 1196.38 1909.87 C 1193.04 1915.17 1189.12 1921.79 1181.61 1917.6 C 1180.21 1914.13 1180.6 1915.32 1181.6 1910.99 L 1180.6 1909.94 L 1177.47 1909.96 C 1173.75 1912.65 1179.28 1913 1176.51 1919.08 C 1171.84 1922.47 1167.06 1922.02 1162.94 1918.02 C 1161.56 1913.94 1161.93 1915.35 1162.96 1910.61 L 1162.01 1909.85 C 1159.22 1910.63 1157.5 1911.03 1154.65 1911.58 C 1151.12 1910.09 1152.01 1910.12 1149.42 1906.37 C 1145.08 1909.81 1142.65 1911.03 1136.68 1910.32 C 1133.92 1910 1131.44 1908.51 1129.87 1906.23 C 1125.62 1900.06 1127.37 1894.95 1128.58 1888.05 C 1125.18 1893.01 1116.95 1903.82 1110.17 1894.14 C 1105.47 1887.43 1109.32 1874.49 1111.04 1866.51 C 1110.06 1863.7 1110.06 1864.46 1106.76 1862.53 C 1106.38 1860.09 1110.51 1853.61 1111.91 1850.66 C 1127.91 1816.68 1151.84 1786.51 1173.39 1755.9 C 1176.37 1749.9 1183.83 1730.96 1192.83 1730.84 C 1214.83 1730.53 1216.97 1725.13 1235.05 1711.38 C 1256.13 1695.34 1273.99 1674.11 1293.89 1656.07 C 1328.72 1624.5 1371.71 1607.02 1415.32 1591.31 C 1423.55 1569.18 1424.65 1576.37 1442.59 1562.11 C 1444.44 1560.64 1448.91 1553.39 1452.03 1551.56 C 1464.98 1543.98 1463.59 1551.81 1471.11 1537.36 C 1467.71 1516.24 1466.06 1501.9 1485.78 1487.89 C 1488.76 1454.31 1491.07 1420.68 1492.7 1387.02 C 1493.61 1370.54 1494.69 1354.36 1495.03 1337.82 C 1495.34 1322.66 1484.77 1309.92 1484.16 1296.53 C 1482.14 1252.35 1502.94 1198.89 1518.24 1158.6 C 1512.67 1148.74 1506.03 1137.63 1501.45 1127.41 C 1510.65 1110.28 1523.41 1101.49 1538.3 1089.81 C 1539.99 1029.79 1546.87 969.691 1558.38 910.732 C 1571.96 841.157 1617.23 749.292 1682.49 716.763 C 1685.76 704.639 1687.8 693.055 1690.1 680.726 C 1679.59 669.134 1676.24 662.288 1675.19 646.091 C 1672.54 605.13 1672.56 552.263 1701.41 519.76 C 1721.87 496.717 1751.09 492.211 1780.17 490.424 z" fill="rgb(255,255,255)" transform="translate(0,0)"></path>
<path d="M 1526.52 1164.64 C 1531.42 1168.93 1556.39 1183.5 1562.08 1183.17 C 1560.04 1181.34 1559.69 1181.31 1558.51 1178.9 C 1558.6 1174.73 1557.99 1176.54 1560.19 1173.21 C 1567.1 1169.26 1575.14 1171.15 1583.27 1171.93 L 1580.34 1190.74 C 1635.92 1209.52 1669.91 1209.56 1727.24 1195.48 C 1736.52 1210.29 1769.02 1239.97 1782.98 1253.76 L 1893.07 1361.58 C 1909.15 1377.42 1926.38 1393.69 1941.88 1409.92 C 1957.48 1426.25 1966.25 1439.8 1965.28 1462.84 C 1942.95 1463.39 1907 1475.52 1888.05 1487.19 C 1881.06 1491.5 1868.73 1501.32 1861.86 1506.65 C 1895.13 1494.85 1930.04 1476.36 1963.8 1469.42 C 1966.49 1477.16 1969.42 1485.64 1969.42 1493.88 C 1969.41 1505.23 1962.35 1514.12 1960.49 1525.08 C 1916.88 1542.72 1888.04 1538.05 1844.5 1527.87 C 1871.98 1550.04 1932.24 1545.24 1963.1 1531.53 C 1963.17 1542.76 1961.98 1548.25 1958.83 1559.01 C 1924.23 1572.79 1861.45 1564.67 1828.08 1549.53 C 1834.46 1534.69 1843.06 1515.9 1841.31 1498.98 C 1840.4 1490.27 1835.98 1488.01 1829.47 1483.47 C 1856.58 1477.76 1895.74 1461.71 1922.2 1450.2 C 1881.77 1455.78 1855.75 1472.08 1819.43 1477.6 C 1809.34 1470.97 1800.98 1461.42 1789.69 1454.04 C 1809.16 1448.35 1845.92 1434.36 1862.54 1421.58 C 1846.59 1427.78 1830.44 1433.47 1814.12 1438.62 C 1803.61 1442.01 1787.82 1446.41 1778.43 1451.34 C 1749.26 1440.04 1707.11 1418.59 1677.39 1404.88 C 1718.76 1394.91 1785.33 1372.99 1821.08 1350.14 C 1774.12 1364.39 1723.13 1388.05 1675.65 1399.95 C 1687 1363.07 1707.9 1313.34 1715.89 1277.43 C 1710.04 1289.93 1705.36 1302.77 1700.14 1315.53 C 1689.89 1340 1679.88 1364.57 1670.11 1389.24 C 1649.14 1442.92 1630.86 1486.57 1606.03 1538.81 C 1607.67 1548.57 1608.99 1559.89 1609.19 1569.73 C 1599.96 1585.25 1585.69 1606.45 1574.38 1620.32 C 1566.38 1630.11 1548.13 1637.55 1537.51 1645.96 C 1522.1 1658.14 1509.29 1673.9 1492.95 1684.53 C 1488.22 1687.62 1481.92 1687.39 1476.16 1687.69 C 1445.08 1672.69 1422.79 1629.34 1423.79 1594.83 C 1424.3 1577.33 1437.77 1577.2 1448.89 1568.28 C 1459.02 1598.95 1477.72 1626.08 1502.76 1646.48 C 1491.76 1632.36 1479.43 1618.04 1470.99 1602.29 C 1466.93 1594.69 1448.67 1562.64 1459.16 1556.84 C 1467.42 1557.48 1468.89 1562.68 1474.77 1567.87 C 1496.18 1586.76 1523.3 1607.13 1553.42 1595.65 L 1554.45 1595.25 C 1517.72 1590.41 1501.43 1571.51 1473.9 1550.16 L 1480.08 1536.45 C 1532.51 1546.35 1541.36 1536.61 1587.9 1520.78 L 1588.02 1519.69 C 1551.81 1527.31 1517.71 1540.56 1479.58 1530.51 C 1476.54 1516.13 1476.65 1509.57 1486.82 1498.51 C 1501.04 1495.13 1511.03 1494.4 1526.78 1489.58 C 1550.74 1482.24 1599.99 1449.78 1616.13 1431.17 L 1613.5 1433.72 L 1614.36 1431.86 C 1577.44 1457.31 1538.66 1479.07 1494.64 1489.54 C 1495.76 1466.23 1498.84 1438.74 1500.44 1414.69 C 1542.38 1404.07 1590.87 1372.26 1623.65 1344.06 C 1610.34 1351.3 1596.91 1360.13 1583.29 1367.55 C 1555.67 1382.61 1530.38 1393.26 1500.83 1403.67 C 1501.11 1385.6 1503.32 1359.7 1504.86 1341.51 C 1516.01 1335.68 1529.23 1330.42 1540.71 1324.35 C 1571.53 1308.07 1612.37 1283.03 1635.89 1257.33 C 1588.65 1289.73 1557.33 1306.27 1502.84 1326.62 C 1497.73 1313.95 1491.74 1295.93 1493.32 1282.22 C 1497.32 1247.61 1510.29 1195.17 1526.52 1164.64 z" fill="rgb(30,31,57)" transform="translate(0,0)"></path>
<path d="M 1686.96 721.834 C 1702.87 725.255 1739.02 766.808 1747.68 781.342 C 1786.59 795.777 1822.28 822.446 1843.19 858.034 C 1850.04 869.704 1860.97 884.794 1870.41 894.879 C 1876.1 900.952 1898.5 909.705 1903.05 914.585 C 1906.71 918.502 1899.33 942.729 1896.51 948.821 C 1884.24 975.343 1864.65 989.004 1838.12 999.043 C 1790.45 975.571 1729.57 933.565 1675.42 929.28 C 1679.56 931.031 1684.69 932.502 1689.02 934.085 C 1724.65 947.116 1757.82 965.436 1791.06 983.658 C 1788.25 991.808 1786.92 999.237 1783.41 1007.91 C 1777.15 1023.35 1769.82 1038.4 1764.55 1054.17 C 1761.65 1065.46 1761.56 1068.35 1760.6 1079.86 C 1759.67 1091.01 1763 1115.29 1759.06 1123.83 C 1756.42 1130.2 1725.2 1160.37 1719.34 1161.85 C 1704.31 1165.65 1672.95 1178.25 1658.05 1182.86 C 1658.2 1186.87 1659.04 1194.86 1656.92 1198 C 1649.2 1201.07 1626.56 1199.22 1618.88 1196.24 C 1616.63 1192.54 1617.95 1191.98 1618.19 1186.45 C 1613.47 1181.84 1596.85 1172.07 1590.23 1167.94 C 1575.61 1167.67 1558.84 1166.94 1544.64 1163.22 C 1526.83 1158.55 1519.27 1143.17 1510.93 1128.05 C 1522.33 1112.22 1538.28 1103.78 1546.9 1091.7 C 1547.73 1069 1548.81 1044.68 1551.21 1022.15 C 1554.04 997.063 1557.46 972.041 1561.46 947.109 C 1564.12 929.894 1567.74 904.566 1572.7 887.891 C 1588.13 836.764 1613.87 787.23 1651.19 748.646 C 1661.71 737.769 1675.5 731.415 1686.96 721.834 z" fill="rgb(30,31,57)" transform="translate(0,0)"></path>
<path d="M 1752.02 982.142 L 1752.4 983.584 C 1714.44 1022.28 1649.99 1043.55 1599.23 1018.4 C 1597.03 1017.22 1596.1 1016.43 1594.12 1014.94 L 1594.62 1014.26 C 1597.06 1014.99 1599.51 1015.69 1601.97 1016.36 C 1659.43 1031.98 1704.12 1009.42 1752.02 982.142 z" fill="rgb(255,255,255)" transform="translate(0,0)"></path>
<path d="M 1745.74 1031.34 L 1746.97 1034.36 C 1716.88 1076.98 1662.47 1116.58 1608.74 1118.08 C 1602.43 1118.25 1596.07 1117.82 1589.77 1117.31 C 1656.74 1108.48 1700.19 1080.42 1745.74 1031.34 z" fill="rgb(255,255,255)" transform="translate(0,0)"></path>
<path d="M 1749.96 885.932 C 1759.97 887.226 1791.54 899.107 1801.67 903.038 C 1820.7 910.422 1837.49 915.703 1856.74 922.02 C 1826.99 921.029 1777.57 899.176 1749.96 885.932 z" fill="rgb(255,255,255)" transform="translate(0,0)"></path>
<path d="M 1745.74 1031.34 C 1750.31 1025.37 1753.93 1021.59 1759.15 1016.15 C 1754.85 1023.26 1751.97 1027.77 1746.97 1034.36 L 1745.74 1031.34 z" fill="rgb(255,255,255)" transform="translate(0,0)"></path>
<path d="M 1778.6 499.419 C 1809.57 496.699 1853.96 510.403 1873.7 535.524 C 1888.75 554.682 1894.68 584.212 1892.02 607.987 C 1905.64 612.406 1926.12 624.442 1936.99 633.669 C 1928.01 638.769 1917.22 644.832 1907.6 648.484 C 1878.83 659.404 1834.79 641.584 1809.23 627.55 C 1797.59 621.157 1781.27 608.158 1768.32 600.661 C 1752.53 591.51 1740.25 585.251 1723.58 577.254 C 1732.21 585.253 1741.89 592.577 1751.15 599.875 C 1759.14 605.578 1767.35 610.967 1775.75 616.031 C 1789.71 624.33 1816 636.593 1819.43 653.131 C 1825.04 680.177 1807.79 713.055 1781.92 721.562 C 1754.22 716.655 1721.89 693.931 1700.21 676.056 C 1690 667.633 1684.69 660.234 1684.15 646.709 C 1682.7 609.825 1681.64 556.211 1707.65 527.177 C 1727.73 504.768 1750.77 501.411 1778.6 499.419 z" fill="rgb(30,31,57)" transform="translate(0,0)"></path>
<path d="M 1730.39 632.269 C 1741.57 635.746 1758.4 645.927 1770.12 650.55 C 1786.88 657.16 1796.62 662.784 1788.36 682.081 C 1780.63 683.823 1759.85 671.713 1752.67 667.989 C 1738.04 660.409 1728.78 649.436 1730.39 632.269 z" fill="rgb(255,255,255)" transform="translate(0,0)"></path>
<path d="M 1740.68 646.595 C 1749.78 649.478 1769.28 660.438 1778.42 665.203 C 1783.07 667.625 1783.08 669.368 1784 673.447 C 1774.36 671.797 1745.11 656.678 1740.68 646.595 z" fill="rgb(30,31,57)" transform="translate(0,0)"></path>
<path d="M 1871.65 1573.92 C 1902.34 1576.62 1910.61 1576.76 1941.16 1573.62 C 1936.83 1593.31 1925.85 1624.56 1919.37 1644.99 C 1910.38 1673.49 1902.57 1702.36 1895.96 1731.5 C 1892.3 1747.7 1887.49 1773.45 1888.19 1789.71 C 1873.15 1795.13 1862.74 1802.59 1863.13 1819.77 C 1851.26 1825.93 1838.38 1836.45 1825.42 1838.86 C 1821.48 1839.58 1813.63 1836.81 1813.46 1832 C 1815.79 1829.54 1816.11 1829.76 1819.39 1829.05 C 1849.99 1837.56 1847.6 1816.11 1848.72 1793.72 C 1851.33 1741.48 1852.26 1688.86 1856.56 1636.75 C 1858.33 1615.25 1865.33 1594.4 1871.65 1573.92 z" fill="rgb(30,31,57)" transform="translate(0,0)"></path>
<path d="M 1420.89 1635.16 C 1424.93 1635.29 1424.42 1639.19 1426.48 1643.44 C 1435.57 1662.23 1443.87 1677.45 1460.84 1690.06 C 1450.46 1693.05 1438.9 1695.89 1429.09 1698.38 C 1366.4 1714.31 1305.34 1736.3 1253.49 1775.82 C 1251.49 1777.34 1247.75 1774.89 1245.45 1773.78 C 1233.5 1768.63 1223.32 1762.07 1211.33 1765.68 L 1209.85 1766.14 C 1206.98 1765.04 1207.26 1764.32 1205.12 1761.31 C 1206.06 1755.68 1224.64 1745.57 1229.48 1741 C 1273.23 1699.57 1326.06 1671.33 1381.89 1649.63 C 1394.51 1644.72 1407.46 1638.71 1420.89 1635.16 z" fill="rgb(30,31,57)" transform="translate(0,0)"></path>
<path d="M 1196.54 1737.82 L 1198.23 1738.61 C 1192.85 1757.68 1195.76 1765.54 1206.41 1782.28 C 1207.66 1781.43 1208.73 1780.73 1210 1779.93 C 1211.42 1780.83 1212.43 1781.41 1213.91 1782.2 C 1214.2 1777.98 1213.54 1778.75 1215.63 1775.76 C 1224.6 1772.44 1244.33 1782.26 1250.38 1788.97 C 1250.92 1792.36 1251.07 1790.66 1249.26 1794.15 C 1239.68 1798.17 1219.03 1782.25 1206.32 1791.57 L 1207.07 1792.72 C 1218.82 1793.7 1229.24 1797.39 1239.28 1803.37 L 1225.25 1807.64 C 1227.14 1811.79 1230.3 1816.39 1227.13 1820.23 C 1222.83 1820.44 1216.63 1817.13 1212.07 1815.4 C 1208.42 1817.37 1205.35 1819.39 1202.72 1822.66 L 1203.64 1822.63 C 1212.51 1822.44 1214.84 1824.28 1221.43 1830.59 C 1222.54 1834.32 1222.86 1832.86 1221.92 1835.81 L 1218.99 1834.2 C 1214.02 1831.47 1202.81 1827.1 1199.13 1833.89 C 1203.07 1839.38 1217.15 1839.93 1218.93 1847.96 C 1212.43 1849.38 1206.42 1841.73 1196.12 1844.78 L 1194.75 1847.63 C 1197.54 1851.54 1207.57 1853.17 1213.79 1859.02 C 1214.76 1860.25 1214.59 1860.26 1215.19 1861.77 C 1210.12 1860.26 1197.66 1855.81 1194.31 1860.84 C 1197.05 1863.66 1211.97 1869.71 1217.77 1874.31 C 1219.78 1879.04 1225.23 1888.58 1221.78 1892.5 C 1214.85 1894.12 1208.18 1896.69 1201.24 1897.92 C 1179.63 1901.75 1158.44 1899.79 1138.35 1891.27 C 1139.6 1885.7 1142.88 1876.04 1137.36 1872.2 C 1131.8 1874.8 1130.69 1880.49 1128.81 1885.9 C 1114.01 1869.98 1129.87 1873.26 1117.42 1858.4 C 1130.01 1833.37 1142.93 1811.79 1160.3 1789.65 C 1168.17 1778.77 1171.12 1772.17 1182.11 1765.27 C 1193.42 1758.17 1174.26 1751.86 1196.54 1737.82 z" fill="rgb(30,31,57)" transform="translate(0,0)"></path>
<path d="M 1825.2 644.874 C 1841.42 652.102 1856.19 656.816 1873.39 660.976 C 1869.33 680.064 1870.85 683.082 1876.39 701.416 C 1866.46 709.425 1866.37 709.214 1867.66 721.57 L 1859.45 728.701 C 1856.73 771.151 1814.2 754.995 1787.85 746.315 C 1783.7 759.05 1780.54 772.084 1778.39 785.302 C 1770.66 780.422 1766.95 778.054 1757.69 776.719 L 1738.11 753.823 C 1721.38 735.385 1713.77 727.637 1692.26 714.976 C 1694.75 706.451 1697.04 695.427 1699.12 686.627 C 1703.14 689.657 1709.47 694.528 1713.41 697.641 C 1764.4 737.925 1829.38 752.991 1830.07 665.381 C 1830.12 657.848 1827.86 651.93 1825.2 644.874 z" fill="rgb(30,31,57)" transform="translate(0,0)"></path>
<path d="M 1865.78 1826.98 C 1873.31 1830.3 1881.46 1831.23 1885.37 1833.17 C 1884.57 1835.86 1884.57 1834.83 1885.11 1837.54 C 1887.8 1838.43 1886.45 1838.39 1889.3 1837.44 L 1889.61 1834.02 L 1891 1834.26 L 1890.54 1837.42 L 1891.7 1838.45 C 1896.22 1836.35 1899.06 1832.73 1902.58 1829.07 C 1900.28 1836.04 1898.4 1839.45 1900.4 1846.51 L 1902.14 1847.11 C 1905.65 1845.26 1906.8 1841.89 1908.66 1838.29 C 1909.78 1843.74 1909.82 1853.01 1914.56 1856.21 C 1918.27 1854.29 1916.28 1851.06 1920.11 1848.48 L 1922.14 1850 C 1924.98 1855.62 1918.98 1858.2 1924.91 1863.01 C 1928.56 1860.84 1929.43 1857.53 1933.42 1856.63 C 1936.42 1859.88 1933.56 1861.69 1936.53 1865.8 C 1940.56 1866.44 1942.61 1864.91 1946.84 1863.34 C 1953.91 1870.24 1953.71 1881.23 1965.38 1882.54 C 1973.73 1883.48 1985.5 1883.15 1992.5 1877.86 C 1994.28 1876.51 1994.36 1876.16 1996.6 1875.63 C 2001.7 1880.17 2003.65 1887.41 2005.83 1893.82 C 1999.19 1896.44 1990.6 1898.49 1983.57 1900.38 C 1948.14 1908.43 1925.11 1897.86 1890.24 1898.17 C 1863.29 1898.41 1841.01 1899.96 1813.6 1898.55 C 1811.45 1883.31 1808.69 1859.8 1808.52 1844.15 C 1808.48 1840.34 1824.38 1848.03 1830.02 1846.69 C 1844.48 1843.24 1851.99 1833.18 1865.78 1826.98 z" fill="rgb(30,31,57)" transform="translate(0,0)"></path>
<path d="M 1911.89 927.389 C 1934.67 939.964 1965.25 954.558 1990.6 940.45 C 1995.05 977.72 1973.17 988.748 1941.76 997.505 C 1913.37 1004.14 1887.9 1006.91 1859.75 998.977 C 1890.13 982.346 1905.66 961.689 1911.89 927.389 z" fill="rgb(30,31,57)" transform="translate(0,0)"></path>
<path d="M 1886.48 843.087 L 1891.43 843.006 C 1913.67 856.849 1917.6 858.273 1936.12 877.904 C 1919.72 882.828 1913.36 888.841 1907.44 904.414 C 1876.17 890.644 1874.19 889.362 1856.01 860.114 C 1866.2 853.521 1875.43 848.08 1886.48 843.087 z" fill="rgb(30,31,57)" transform="translate(0,0)"></path>
<path d="M 1822.44 780.654 C 1830.35 781.566 1838.66 783.03 1845.29 787.782 C 1854.24 794.196 1878.63 819.867 1880.01 829.528 C 1878.32 831.601 1874.22 832.43 1871.24 833.456 C 1866.62 835.61 1858.69 840.57 1854.02 843.316 C 1852.31 820.547 1837.55 797.166 1822.44 780.654 z" fill="rgb(30,31,57)" transform="translate(0,0)"></path>
<path d="M 1987.96 990.735 C 1991.13 991.104 1994.5 993.97 1997.45 995.924 C 2009.72 994.365 2010.94 993.581 2022.22 997.847 C 2014.6 1009.64 2005.71 1018.29 1993.67 1025.38 C 1990.22 1027.32 1985.73 1030.34 1981.98 1030.69 C 1979.24 1025.02 1987.94 1020.47 1988.03 1015.84 C 1985.99 1016.29 1983.94 1016.68 1981.89 1017.03 L 1980.65 1015.63 C 1979.3 1006.1 1979.24 1008.56 1970.6 1006.56 L 1970.09 1004.99 C 1972.72 999.474 1982.66 994.054 1987.96 990.735 z" fill="rgb(30,31,57)" transform="translate(0,0)"></path>
<path d="M 1802.09 764.364 C 1807.08 781.435 1814.28 786.029 1823.12 801.007 C 1829.7 812.161 1835.81 824.857 1840.62 836.871 C 1823.89 818.07 1815.23 809.003 1794.32 794.08 L 1796.53 792.958 C 1799.75 787.691 1800.81 771.764 1802.09 764.364 z" fill="rgb(30,31,57)" transform="translate(0,0)"></path>
<path d="M 1723.56 1167.12 L 1725.46 1167.37 C 1726.82 1170.8 1727.89 1184.84 1728.42 1189.46 C 1720.54 1192.81 1713.78 1194.59 1705.5 1196.58 L 1703.74 1196.08 C 1702.38 1193.03 1701.37 1177.14 1700.91 1172.62 C 1708.51 1171.01 1716.06 1169.17 1723.56 1167.12 z" fill="rgb(30,31,57)" transform="translate(0,0)"></path>
<path d="M 1888 1798.75 C 1895.3 1800.65 1902.28 1813.44 1906.9 1820.24 C 1900.11 1820.88 1896.09 1821.39 1889.44 1822.77 C 1883.36 1823.28 1877.15 1824.25 1873.17 1818.96 C 1870.76 1809.13 1880.66 1802.71 1888 1798.75 z" fill="rgb(30,31,57)" transform="translate(0,0)"></path>
<path d="M 1954.59 914.164 C 1970.11 912.53 1980.97 917.68 1987.01 932.281 C 1980.77 930.421 1976.76 929.475 1970.37 928.248 C 1956.11 925.921 1945.96 923.828 1932.28 919.268 L 1954.59 914.164 z" fill="rgb(30,31,57)" transform="translate(0,0)"></path>
<path d="M 1963.51 1863.17 C 1969.85 1863.03 1988.49 1865.76 1991.49 1872.32 C 1989.99 1875.32 1989.29 1874.64 1984.9 1876.21 C 1976.73 1877.54 1961.49 1878.78 1956.32 1871.36 L 1956.8 1868.72 C 1959.24 1865.6 1960.06 1865.33 1963.51 1863.17 z" fill="rgb(30,31,57)" transform="translate(0,0)"></path>
<path d="M 1911.21 1822 C 1923.98 1834.42 1942.12 1846.34 1956.02 1858.98 C 1946.04 1860.74 1920.77 1841.1 1913.27 1833.24 C 1912.71 1829.5 1911.92 1825.72 1911.21 1822 z" fill="rgb(30,31,57)" transform="translate(0,0)"></path>
<path d="M 1786.78 790.129 C 1788.18 783.991 1791.3 769.865 1793.74 764.658 C 1795.3 772.213 1788.99 786.095 1796.53 792.958 L 1794.32 794.08 L 1786.78 790.129 z" fill="rgb(30,31,57)" transform="translate(0,0)"></path>
<path d="M 1564.22 404.088 C 1587.62 402.774 1598.54 415.654 1612.26 432.708 C 1636.69 463.082 1666.71 493.201 1689.16 524.569 L 1683.59 532.46 C 1683.45 532.206 1683.3 531.951 1683.16 531.696 L 1682.4 530.44 C 1675.87 519.399 1656.07 497.486 1647.16 486.844 C 1630.08 466.978 1613.47 446.542 1595.99 427.026 C 1589.58 419.872 1581.74 412.201 1571.54 412.373 C 1556.9 412.621 1541 426.564 1540.97 441.643 C 1540.95 453.225 1548.73 459.948 1556.15 467.519 C 1582.53 494.35 1609.13 520.96 1635.95 547.346 C 1643.64 554.909 1668.89 576.541 1671.53 584.825 C 1670.88 588.412 1671.72 586.925 1668.71 589.311 C 1654.56 579.614 1540.91 468.297 1534.78 455.05 C 1531.2 447.329 1531.16 437.852 1534.53 430.078 C 1539.95 417.57 1551.95 409.069 1564.22 404.088 z" fill="rgb(255,255,255)" transform="translate(0,0)"></path>
<path d="M 588.045 694.489 L 936.592 694.78 C 948.447 729.083 959.673 764.58 971.011 799.146 L 702.999 799.07 L 703.156 973.111 L 945.126 973.038 C 945.14 984.376 946.078 1072.96 943.922 1076.4 C 866.167 1074.76 781.162 1075.98 703.037 1076.17 L 702.927 1342.51 L 587.007 1342.78 L 587.079 851.648 C 587.078 833.418 585.96 699.853 588.045 694.489 z" fill="rgb(30,31,57)" transform="translate(0,0)"></path>
<path d="M 1337.28 877.039 C 1378.03 860.435 1416.74 851.014 1460.44 845.309 C 1421.51 970.484 1381.71 1095.38 1341.03 1220 C 1327.72 1261.12 1313.01 1302.38 1300.25 1343.57 C 1255.89 1342.59 1209.31 1343.14 1164.76 1343.06 C 1140.32 1260.75 1115.34 1178.59 1089.82 1096.61 C 1091.77 1080.66 1153.31 993.037 1166.49 982.89 L 1235.09 1220.39 C 1245.68 1189.72 1255.86 1150.88 1265.09 1119.28 L 1310.63 965.671 C 1318.39 939.208 1328.02 902.613 1337.28 877.039 z" fill="rgb(30,31,57)" transform="translate(0,0)"></path>
<path d="M 736.622 122.828 L 760.687 122.889 C 730.064 208.341 694.628 296.591 661.545 381.246 C 617.738 496.339 573.156 611.135 527.802 725.627 L 72.4843 1896.87 C 186.372 1898.2 303.837 1897.25 417.864 1897.07 L 1049.3 1897.6 L 1061.59 1920.66 L 1048.11 1920.55 L 38.585 1919.98 C 44.7328 1901.92 55.2121 1877.84 62.3015 1859.44 L 114.795 1722.94 L 289.671 1273.99 L 736.622 122.828 z" fill="rgb(153,31,44)" transform="translate(0,0)"></path>
<path d="M 969.153 694.829 C 1005.7 694.057 1044.53 694.709 1081.19 694.831 C 1084.7 710.911 1093.93 738.569 1098.89 755.166 C 1112.07 799.71 1125.76 844.102 1139.95 888.333 C 1120.13 905.17 1101.03 928.735 1087.28 950.658 C 1180.59 884.332 1282.6 831.763 1395.43 809.974 C 1420.9 805.056 1441.94 803.179 1466.53 799.218 C 1427.41 792.031 1398.9 791.901 1360.01 798.349 C 1369.75 764 1380.87 729.413 1390.89 695.003 L 1411.5 695.066 L 1508.03 695.041 C 1496.77 734.777 1481.67 780.298 1469.14 819.752 C 1459.57 821.899 1444.86 823.436 1434.6 825.183 C 1413.87 828.73 1393.33 833.338 1373.07 838.987 C 1265.69 868.673 1153.01 938.365 1071.05 1013.03 C 1040.3 907.453 1002.05 800.368 969.153 694.829 z" fill="rgb(153,31,44)" transform="translate(0,0)"></path>
<path d="M 956.352 1342.22 C 957.508 1331.27 961.705 1313.6 964.242 1302.76 C 979.99 1235.2 1008.63 1171.32 1048.59 1114.61 C 1077.66 1072.72 1110.83 1032.15 1147.55 996.843 C 1151.27 993.263 1160.98 981.857 1165.38 981.06 L 1166.49 982.89 C 1153.31 993.037 1091.77 1080.66 1089.82 1096.61 C 1082.93 1107.22 1075.21 1121.81 1068.65 1133.03 C 1029.22 1200.55 1004.86 1264.78 993.535 1342.39 C 981.285 1342.14 968.638 1342.26 956.352 1342.22 z" fill="rgb(153,31,44)" transform="translate(0,0)"></path>
<path d="M 881.901 1416.36 C 894.325 1416.61 904.185 1418.68 912.414 1429.08 C 917.835 1435.99 920.177 1444.82 918.89 1453.5 C 917.294 1464.06 912.195 1469.07 904.213 1474.78 C 924.362 1485.45 927.974 1508.55 913.556 1526.38 C 906.085 1535.62 895.02 1537.84 883.685 1538.61 C 879.84 1538.43 875.287 1538.27 871.558 1537.5 C 861.348 1535.32 852.497 1529.01 847.11 1520.06 C 835.891 1501.59 843.195 1485.37 860.243 1474.87 C 853.701 1468.06 849.018 1463.09 847.468 1452.94 C 846.241 1444.53 848.502 1435.99 853.726 1429.3 C 861.241 1419.71 870.653 1417.58 881.901 1416.36 z" fill="rgb(30,31,57)" transform="translate(0,0)"></path>
<path d="M 879.575 1484.52 C 885.78 1483.54 892.034 1485.98 895.938 1490.9 C 899.843 1495.82 900.792 1502.46 898.421 1508.28 C 896.051 1514.1 890.73 1518.19 884.497 1518.98 C 875.064 1520.18 866.413 1513.59 865.069 1504.18 C 863.724 1494.76 870.183 1486.01 879.575 1484.52 z" fill="rgb(255,255,255)" transform="translate(0,0)"></path>
<path d="M 880.308 1434.94 C 899.784 1435.06 903.667 1457.04 886.197 1466.5 C 867.198 1466.29 860.26 1443.49 880.308 1434.94 z" fill="rgb(255,255,255)" transform="translate(0,0)"></path>
<path d="M 1047.87 1416.13 C 1090 1411.5 1094.18 1442.19 1092.22 1475.04 C 1090.54 1503.22 1099.02 1527.07 1065.41 1537.39 C 1015.05 1544.08 1020.25 1499.34 1020.38 1464.63 C 1020.48 1439.92 1021.22 1423.8 1047.87 1416.13 z" fill="rgb(30,31,57)" transform="translate(0,0)"></path>
<path d="M 1051.82 1434.91 C 1072.68 1433.33 1070.48 1454.4 1069.9 1469.72 C 1069.35 1484.29 1074.08 1510.43 1060.68 1518.29 C 1042.55 1520.06 1041.23 1504.34 1042.46 1490.33 C 1043.96 1473.26 1036.88 1445.31 1051.82 1434.91 z" fill="rgb(255,255,255)" transform="translate(0,0)"></path>
<path d="M 1204.81 1417.18 L 1282.61 1417.11 L 1282.25 1437.99 C 1264.44 1438 1246.63 1438.11 1228.82 1438.34 L 1228.61 1464.37 C 1242.89 1465.16 1258.87 1465.19 1273.29 1465.52 C 1273.29 1472.1 1273.12 1478.83 1273.03 1485.43 C 1258.81 1486.26 1244.8 1484.46 1230.81 1485.65 C 1228.57 1487.74 1229.33 1487.53 1229.19 1491.75 L 1229.29 1516.27 L 1283.24 1516.09 L 1283.24 1537.32 L 1204.53 1537.27 C 1204.96 1497.52 1203.52 1456.86 1204.81 1417.18 z" fill="rgb(30,31,57)" transform="translate(0,0)"></path>
<path d="M 779.122 1416.17 C 809.861 1413.17 823.738 1426.69 828.333 1455.89 L 802.391 1455.43 C 802.008 1451.88 801.649 1447.1 800.172 1443.91 C 797.217 1436.84 784.688 1434.56 778.378 1438.6 C 762.722 1448.64 769.101 1479.65 768.315 1495.55 C 768.318 1504.18 773.425 1518.37 783.68 1518.94 C 796.837 1519.68 802.043 1513.13 803.633 1501.27 C 803.882 1500.27 803.643 1501 804.993 1499.43 C 810.939 1498.56 820.324 1499.22 826.624 1499.47 C 825.124 1518.14 819.424 1532.4 800.43 1536.88 C 753.127 1548.05 743.43 1513.83 745.454 1476.49 C 747.099 1446.14 743.982 1424.76 779.122 1416.17 z" fill="rgb(30,31,57)" transform="translate(0,0)"></path>
<path d="M 1139.58 1416.17 L 1140.93 1416.05 C 1153.28 1415.05 1168.28 1416.85 1176.02 1427.34 C 1201.85 1462.31 1154.39 1495.9 1135.25 1517.18 C 1151.36 1517.52 1168.59 1517.13 1184.77 1517.05 L 1184.52 1537.09 L 1136.78 1537.14 L 1109.16 1537.18 C 1108.87 1531.23 1109 1524.11 1108.96 1518.06 C 1125.83 1502.79 1145.67 1480.11 1156.64 1460.26 C 1169.34 1437.31 1139.49 1422.11 1132.57 1449.19 L 1132.22 1450.62 C 1123.13 1449.03 1117.11 1448.29 1107.96 1447.89 C 1113.24 1426.89 1118.55 1420.54 1139.58 1416.17 z" fill="rgb(30,31,57)" transform="translate(0,0)"></path>
<path d="M 972.391 1416.9 L 989.747 1417.01 C 988.24 1455.61 989.138 1498.24 989.267 1537.16 L 966.994 1537.09 C 966.949 1527.7 966.808 1518.3 966.571 1508.91 C 966.266 1487.16 966.268 1465.41 966.576 1443.66 C 956.995 1449.32 947.877 1454.89 937.819 1459.69 C 938.349 1451.7 938.996 1446.25 937.806 1438.37 C 951.03 1431.21 960.217 1425.31 972.391 1416.9 z" fill="rgb(30,31,57)" transform="translate(0,0)"></path>
<metadata><recraft-signature>{"signed_by": "recraft", "signature_b64": "O39/yBLUecJk/iAM2y4meX48Db0c5JETu1xFyw6TE6Vc9/6drYjrV0fZUE5TDIlpk9awPXUW7Ym9wtmQ+yHFAg==", "signing_algo": "Ed25519", "generation_timestamp": 1777331786, "identifier": "bbe247ad-1411-4a12-b4ec-92da11ef14e8"}</recraft-signature></metadata></svg>