<svg xmlns="http://www.w3.org/2000/svg" height="1024" preserveAspectRatio="none" style="display: block;" version="1.1" viewBox="0 0 2048 2048" width="1024">
<path d="M 0 0 L 2048 0 L 2048 2048 L 0 2048 L 0 0 z" fill="rgb(255,255,255)" transform="translate(0,0)"></path>
<path d="M 466.965 519.192 C 487.213 517.996 520.469 519.005 541.294 519.012 L 688.916 519.075 L 1140.84 519.915 C 1125.58 600.084 1116.47 682.749 1101.87 763.15 C 1098.11 783.821 1094.33 805.885 1091.65 826.637 C 1085.08 826.94 1077.83 826.936 1071.19 827.072 C 1084.43 888.606 1096.16 950.619 1108.78 1012.29 C 1112.99 1032.83 1117.39 1053.11 1121.11 1073.77 L 1138.43 1073.75 C 1165.95 1024.52 1198.86 972.927 1228.37 924.467 C 1238.11 908.591 1247.73 892.648 1257.25 876.642 C 1265.09 863.241 1272.25 849.895 1280.93 836.995 C 1270.66 822.423 1264.03 816.539 1248.98 807.511 C 1251.04 793.291 1254.53 773.256 1255.17 759.444 C 1370.86 760.944 1486.57 760.32 1602.23 757.571 C 1598.26 767.892 1598.57 768.248 1601.35 779.024 C 1593.37 786.889 1582.87 792.934 1573.72 799.194 C 1552.16 813.949 1520.99 830.865 1502.2 848.275 C 1480.76 868.154 1459.86 907.568 1444.46 933.864 C 1428.72 960.596 1413.18 987.443 1397.83 1014.4 C 1386.76 1033.8 1374.01 1053.79 1363.46 1073 L 1576.86 1073.06 L 1576.81 1120.5 L 1576.7 1328.95 L 1222.98 1329.1 L 1112.31 1514.71 C 1088.85 1554.06 1061.85 1601.89 1036.83 1639.76 L 961.82 1329.09 L 464.489 1329.05 L 464.792 1072.2 L 517.584 1072.08 L 577.282 795.376 L 593.607 715.734 C 597.12 699.166 602.874 675.627 605.014 659.237 C 605.744 653.403 605.3 647.482 603.709 641.822 C 591.067 596.899 505.625 541.876 466.965 519.192 z" fill="rgb(7,16,59)" transform="translate(0,0)"></path>
<path d="M 485.051 1089.29 L 1559.31 1089.05 C 1559.1 1163.02 1558.95 1237.03 1558.74 1310.99 C 1558.37 1311.52 1558.01 1312.05 1557.65 1312.58 C 1352.51 1311.59 1147.37 1311.63 942.233 1312.71 L 484.566 1312.09 L 485.051 1089.29 z" fill="rgb(255,255,255)" transform="translate(0,0)"></path>
<path d="M 1348.06 1127.2 C 1359.58 1126.45 1369.9 1126.19 1380.42 1132.25 C 1419.22 1154.62 1419.06 1217.92 1400.7 1253.2 C 1393.67 1266.71 1382.55 1273.2 1368.78 1277.08 C 1299.49 1287.8 1288.55 1195.48 1314.24 1151.19 C 1322.42 1137.1 1332.78 1131 1348.06 1127.2 z" fill="rgb(7,16,59)" transform="translate(0,0)"></path>
<path d="M 1355.18 1159.21 C 1369.35 1161.33 1377.82 1171.92 1379.44 1185.79 C 1381.61 1204.47 1383.96 1239.44 1359.68 1243.6 C 1345.82 1243.33 1338.79 1235.43 1335.76 1222.09 C 1331.24 1202.25 1330.8 1165.51 1355.18 1159.21 z" fill="rgb(255,255,255)" transform="translate(0,0)"></path>
<path d="M 865.763 1129.7 C 886.371 1129.57 927.904 1126.21 943.035 1138.08 C 973.114 1161.67 968.641 1232.11 949.366 1260.22 C 933.329 1277.74 917.104 1276.23 895.674 1275.97 C 885.584 1275.88 875.494 1275.85 865.403 1275.9 L 865.763 1129.7 z" fill="rgb(7,16,59)" transform="translate(0,0)"></path>
<path d="M 896.983 1162.83 C 903.963 1162.72 914.928 1162.14 920.634 1165.89 C 938.18 1177.41 935.148 1219.81 925.649 1234.73 C 916.252 1243.01 909.275 1241.81 896.904 1241.9 L 896.983 1162.83 z" fill="rgb(255,255,255)" transform="translate(0,0)"></path>
<path d="M 1500.77 1128.98 L 1528.69 1128.95 C 1528.74 1167.6 1528.4 1233.51 1527.79 1275.01 C 1527.41 1275.54 1527.04 1276.07 1526.66 1276.6 L 1497.96 1276.43 C 1492.87 1268.11 1485.51 1250.92 1481.25 1241.59 C 1473.19 1223.66 1464.81 1205.88 1456.13 1188.26 C 1455.37 1216.31 1455.94 1246.89 1455.91 1275.14 L 1429.8 1275.21 C 1428.8 1260.36 1429.43 1238.47 1429.4 1223.2 L 1429.34 1129.2 L 1459.47 1129.02 C 1473.18 1157.04 1486.67 1185.17 1499.93 1213.41 C 1500.51 1185.27 1500.79 1157.12 1500.77 1128.98 z" fill="rgb(7,16,59)" transform="translate(0,0)"></path>
<path d="M 666.287 1129.26 L 747.767 1129.13 L 747.437 1161.86 L 697.194 1161.82 C 697.155 1169.85 697.271 1177.87 697.544 1185.88 L 741.602 1185.89 L 741.626 1213.76 L 697.456 1213.6 L 697.409 1236.25 L 697.6 1238.53 C 702.151 1241.61 743.302 1240.26 751.044 1240.25 L 751.012 1276.01 L 666.165 1275.92 L 666.287 1129.26 z" fill="rgb(7,16,59)" transform="translate(0,0)"></path>
<path d="M 1185.38 1126.34 C 1216.91 1126.75 1226.61 1138.88 1232.4 1168.86 C 1222.96 1170.05 1212.93 1170.54 1203.41 1171.18 C 1200.56 1158.06 1193.67 1148.56 1177.68 1157.14 C 1175.6 1158.26 1173.16 1162.7 1173.54 1165.02 C 1175.67 1178.13 1196.01 1179.05 1205.62 1184.3 C 1212.29 1187.01 1217.72 1190.16 1223.45 1194.75 C 1242.62 1210.09 1238.8 1249.01 1224.09 1266.14 C 1215.74 1275.87 1201.81 1277.93 1189.24 1278.31 C 1157.32 1277.17 1144.87 1256.19 1142.37 1227.29 C 1152.52 1226.98 1162.68 1226.61 1172.84 1226.2 C 1174.75 1237.85 1179.32 1250.57 1193.96 1249.35 C 1197.61 1249.06 1200.97 1247.28 1203.26 1244.42 C 1205.52 1241.55 1207.73 1235.07 1206.87 1231.69 C 1200.91 1215.97 1178.03 1216.2 1164.42 1205.67 C 1141.54 1187.99 1141.41 1153.87 1161.92 1134.69 C 1167.92 1129.08 1177.14 1127.26 1185.38 1126.34 z" fill="rgb(7,16,59)" transform="translate(0,0)"></path>
<path d="M 1049.01 1128.79 L 1080.27 1128.83 L 1070.14 1166.57 C 1061.45 1202.33 1048.4 1238.7 1039.35 1275.97 L 1008.57 1275.73 C 998.1 1240.62 990.066 1204.28 979.793 1169.03 C 975.962 1155.89 971.861 1142.34 968.641 1129.07 L 1002.32 1129.3 C 1008.94 1162.13 1020.69 1200.68 1024.93 1233.19 C 1026.24 1227.88 1027.43 1222.19 1028.47 1216.82 C 1034.22 1187.27 1043.24 1158.3 1049.01 1128.79 z" fill="rgb(7,16,59)" transform="translate(0,0)"></path>
<path d="M 512.267 1129.15 L 594.041 1129.35 L 594.096 1161.71 L 543.983 1161.86 L 543.97 1186.15 L 583.908 1186.25 C 583.847 1195.68 585.753 1206.29 582.932 1214.37 C 580.075 1216.76 580.067 1215.91 575.25 1216.02 L 544.854 1215.99 L 544.681 1275.76 C 534.012 1275.74 523.343 1275.65 512.674 1275.51 L 512.267 1129.15 z" fill="rgb(7,16,59)" transform="translate(0,0)"></path>
<path d="M 768.16 1129.43 L 799.124 1129.42 L 799.435 1239.74 C 816.591 1239.94 834.045 1239.73 851.226 1239.69 L 850.999 1275.92 L 768.013 1275.76 L 768.16 1129.43 z" fill="rgb(7,16,59)" transform="translate(0,0)"></path>
<path d="M 610.839 1129.67 L 642.242 1129.61 L 642.483 1274.98 C 634.935 1275.62 619.221 1275.31 611.104 1275.37 L 610.839 1129.67 z" fill="rgb(7,16,59)" transform="translate(0,0)"></path>
<path d="M 1093.26 1128.93 L 1124.11 1128.96 L 1123.89 1275.82 L 1093.68 1275.86 C 1094.19 1227.5 1093.17 1177.55 1093.26 1128.93 z" fill="rgb(7,16,59)" transform="translate(0,0)"></path>
<path d="M 1254.69 1128.96 L 1284.98 1129 L 1284.96 1276.16 L 1254.9 1276.2 C 1254.5 1227.12 1254.43 1178.04 1254.69 1128.96 z" fill="rgb(7,16,59)" transform="translate(0,0)"></path>
<path d="M 531.44 538.587 C 597.805 537.576 667.149 538.656 733.692 538.706 L 1117.46 538.882 C 1111.8 582.555 1103.17 630.064 1096.49 673.703 C 1091.21 708.176 1085.3 754.391 1077.21 787.497 C 1023.71 699.719 984.86 693.957 887.306 693.82 L 801.465 693.89 C 793.712 728.083 785.173 765.584 779.348 800.135 L 798.399 800.045 C 799.636 793.1 801.23 785.899 802.662 778.963 L 1050.25 778.839 C 1056.15 789.408 1061.92 799.516 1067.13 810.459 L 1049.12 813.862 C 1067.76 899.398 1082.64 986.71 1102.06 1072.59 C 1057.31 1073.95 1003.17 1074.2 958.383 1073.13 L 938.477 1073.14 L 923.502 998.84 C 921.259 988.173 918.392 972.213 914.975 962.208 C 912.539 973.847 910.363 981.667 906.018 992.677 C 893.871 981.065 880.018 971.381 864.94 963.964 C 823.127 943.013 791.669 947.93 745.518 948.099 C 743.002 964.907 738.517 983.34 734.856 999.969 L 718.779 1072.78 L 699.265 1072.69 C 707.51 1028.8 719.454 971.82 729.677 928.686 C 745.221 927.516 762.848 928.631 777.73 928.243 C 830.99 926.854 848.061 932.264 894.995 956.889 C 907.842 916.045 918.223 862.897 929.947 820.213 C 871.896 820.257 813.015 820.978 755.064 820.284 C 764.897 772.576 774.461 720.96 785.393 673.798 C 814.202 673.191 843.829 674.153 872.588 673.915 C 955.114 673.233 1007.99 669.549 1065.56 736.377 C 1069.61 717.851 1072.79 692.393 1075.79 673.067 L 1093.61 558.302 L 592.033 558.515 C 655.509 623.441 652.133 632.048 634.019 717.152 C 628.966 742.02 623.759 766.858 618.399 791.662 L 558.001 1072.11 L 537.392 1072.1 L 593.127 812.394 L 611.171 725.714 C 615.05 707.438 627.564 656.976 624.414 641.274 C 616.711 602.883 562.995 559.724 531.44 538.587 z" fill="rgb(255,255,255)" transform="translate(0,0)"></path>
<path d="M 955.722 797.633 C 983.262 797.475 1010.8 797.602 1038.34 798.016 C 1035.43 801.783 1030.84 807.373 1028.38 811.224 C 1041.49 879.104 1055.04 946.899 1069.04 1014.6 C 1072.75 1033.18 1078.46 1054.49 1081.58 1072.39 C 1088.06 1072.42 1095.69 1072.26 1102.06 1072.59 C 1057.31 1073.95 1003.17 1074.2 958.383 1073.13 C 956.032 1050.35 946.405 1014.1 942.219 990.29 C 940.138 978.454 930.253 927.579 926.543 918.973 C 933.061 884.787 946.868 835.831 956.302 802.045 L 957.428 799.479 L 955.722 797.633 z" fill="rgb(157,12,40)" transform="translate(0,0)"></path>
<path d="M 921.487 801.433 C 909.644 801.11 831.363 802.168 826.856 799.594 C 838.377 796.245 905.033 797.771 920.833 798.005 L 925.855 799.396 L 921.487 801.433 z" fill="rgb(10,0,13)" transform="translate(0,0)"></path>
<path d="M 920.833 798.005 C 932.461 797.772 944.091 797.648 955.722 797.633 L 957.428 799.479 L 956.302 802.045 C 945.14 801.546 932.744 801.593 921.487 801.433 L 925.855 799.396 L 920.833 798.005 z" fill="rgb(73,9,26)" transform="translate(0,0)"></path>
<path d="M 981.226 1328.76 L 1002.64 1328.89 C 1059.93 1328.93 1119.2 1328.16 1176.31 1329.06 L 1199.6 1329.26 C 1193.3 1342.45 1176.29 1369.57 1168.29 1382.84 L 1117.37 1467.8 C 1102.34 1492.52 1087.57 1517.41 1073.08 1542.46 C 1064.35 1557.41 1053.99 1576.31 1044.41 1590.43 C 1038.32 1568.02 1032.68 1541.67 1027.11 1518.86 L 981.226 1328.76 z" fill="rgb(157,12,40)" transform="translate(0,0)"></path>
<path d="M 981.226 1328.76 L 1002.64 1328.89 C 1005.77 1347.9 1011.36 1369.88 1015.83 1388.74 L 1040.07 1491.45 C 1043.78 1507.39 1048.51 1525.19 1051.51 1541.02 C 1093.93 1470.86 1135.54 1400.2 1176.31 1329.06 L 1199.6 1329.26 C 1193.3 1342.45 1176.29 1369.57 1168.29 1382.84 L 1117.37 1467.8 C 1102.34 1492.52 1087.57 1517.41 1073.08 1542.46 C 1064.35 1557.41 1053.99 1576.31 1044.41 1590.43 C 1038.32 1568.02 1032.68 1541.67 1027.11 1518.86 L 981.226 1328.76 z" fill="rgb(255,255,255)" transform="translate(0,0)"></path>
<path d="M 1270.69 779.322 C 1369.04 777.768 1468.8 780.246 1567.33 779.242 C 1541.05 795.371 1506.46 815.475 1485.34 837.777 C 1456.68 868.022 1431.18 916.843 1409.55 953.688 C 1386.89 992.28 1361.17 1034.3 1339.83 1073.14 L 1316.92 1072.96 C 1325.18 1054 1350.44 1014.46 1362.22 994.142 C 1379.82 963.695 1397.57 933.339 1415.48 903.075 C 1426.96 883.591 1440.2 859.579 1453.75 842.05 C 1464.7 828.179 1484.05 811.387 1497.46 798.479 C 1435.09 797.113 1363.38 797.715 1300.83 798.614 C 1313.11 809.278 1319.82 824.227 1325.27 839.23 C 1288.57 903.693 1249.76 966.73 1211.24 1030.1 C 1202.63 1044.25 1193.75 1059.49 1184.37 1073.06 L 1162.38 1073.16 C 1207.49 993.815 1256.98 915.659 1303.36 836.619 C 1293.32 817.751 1285.08 810.271 1270.04 795.73 C 1269.99 789.699 1270.25 785.302 1270.69 779.322 z" fill="rgb(255,255,255)" transform="translate(0,0)"></path>
<path d="M 762.313 967.185 C 802.965 966.433 832.404 963.766 868.075 988.805 C 881.625 998.317 902.731 1020.45 911.303 1034.64 C 913.924 1038.98 918.461 1066.68 919.576 1072.96 L 896.5 1072.92 L 739.471 1072.81 C 745.005 1041.24 754.411 998.513 762.313 967.185 z" fill="rgb(255,255,255)" transform="translate(0,0)"></path>
<path d="M 816.905 712.331 C 823.294 712.2 830.894 711.956 837.402 712.263 C 895.135 714.988 962.285 701.57 1012.02 738.131 C 1017.85 742.419 1028 750.984 1031.56 756.748 L 1030.67 758.231 L 1026.2 758.675 C 953.634 758.907 881.07 758.762 808.507 758.24 C 809.949 745.403 814.165 725.234 816.905 712.331 z" fill="rgb(255,255,255)" transform="translate(0,0)"></path>
<path d="M 1063.35 69.3363 C 1073.07 64.554 1084.5 60.4362 1093.15 54.9236 L 1100.12 79.6687 C 1091.53 80.3193 1087.14 80.5168 1079.2 84.5102 C 1076.61 86.6784 1068.16 91.396 1064.95 93.4657 C 1053.32 100.98 1039.94 108.178 1029.06 116.705 C 1048.57 119.869 1065.52 122.64 1085.04 126.584 C 1092.67 122.203 1102.08 115.399 1109.96 110.523 C 1130.52 97.8106 1149.41 87.4541 1171.55 77.9006 C 1182.88 73.8195 1191.16 70.2985 1202.12 65.3601 C 1203.56 74.5498 1205.89 81.4715 1208.62 90.2973 C 1192.54 92.206 1184.73 96.0715 1170.13 103.492 C 1153.14 114.081 1132.84 125.018 1115.27 135 C 1138.84 141.37 1162.72 150.352 1184.33 156.158 C 1206.45 142.566 1249.97 115.287 1274.72 108.623 C 1290.19 102.658 1295.77 100.356 1310 91.2526 C 1312.35 101.951 1314.94 110.796 1318.05 121.255 C 1304.72 123.219 1298.87 123.7 1286.15 128.546 C 1257.6 141.621 1239.77 151.468 1212.66 167.006 C 1233.82 175.213 1252.9 185.631 1273.42 194.773 C 1288.65 189.658 1302.49 184.842 1317.31 179.141 C 1335.83 172.014 1373.86 156.185 1393.1 153.686 C 1406.28 150.038 1409.36 146.504 1420.5 138.462 C 1421.94 150.093 1424.36 160.394 1426.86 171.797 C 1413.72 172.772 1406.38 174.232 1393.58 177.349 C 1363.3 187.938 1333.36 199.484 1303.81 211.969 C 1315.39 218.718 1327.23 225.333 1338.93 231.882 C 1345.26 235.428 1354.53 241.368 1360.88 244.233 C 1402.89 240.359 1452.69 225.014 1494.99 219.586 C 1515.6 214.44 1513.22 212.47 1529.21 202.563 C 1530.84 216.015 1532.88 225.343 1535.8 238.592 C 1521.8 239.081 1513.37 240.718 1499.82 242.266 C 1492.25 244.646 1471.9 247.992 1463 249.8 C 1440.53 254.258 1418.42 260.396 1396.87 268.162 C 1410.46 279.574 1437.07 302.624 1451.24 312.328 C 1475.28 312.022 1497.45 310.32 1521.44 308.357 C 1553.8 305.184 1595.15 305.731 1622.26 288.079 C 1623.44 301.188 1625.1 311.44 1627.63 324.397 C 1614.86 324.693 1602.84 324.985 1590.11 325.917 C 1579.04 326.728 1566.54 328.748 1555.75 329.269 C 1541.42 332.847 1498.71 335.952 1481.54 338.627 C 1488.84 346.962 1500.01 356.55 1508.43 364.37 C 1518 373.409 1527.4 382.617 1536.64 391.99 C 1555.69 395.259 1574.9 397.44 1594.2 398.522 C 1606.09 399.294 1623.31 399.638 1634.56 401.033 C 1666.62 401.417 1676.2 405.651 1703.58 388.488 C 1704.69 400.767 1706.3 413.48 1707.27 425.636 C 1684.91 424.922 1662.48 425.468 1640.58 424.745 C 1616.83 424.64 1587.4 422.751 1563.76 420.775 C 1571.47 431.458 1581.14 442.401 1589.67 452.688 C 1596.88 461.375 1604.58 471.838 1611.86 480.111 C 1637.91 489.983 1685.9 495.557 1714.46 501.316 C 1720.11 502.456 1746.54 504.357 1749.73 505.75 C 1775.57 507.965 1772.94 507.01 1796.07 496.472 C 1795.95 506.634 1797.58 525.966 1796.76 534.01 C 1793.81 534.669 1791.62 533.728 1788.41 533.034 C 1767.27 529.766 1739.74 528.551 1717.8 526.442 C 1687.71 523.55 1664.71 519.517 1635.12 513.3 C 1639.91 520.925 1674.28 573.383 1679.99 577.706 C 1694.39 588.593 1757.16 602.202 1777.37 607.883 C 1783.77 609.68 1808.41 613.557 1812.98 615.605 C 1836.73 619.522 1838.4 619.357 1860.51 609.231 C 1860 622.937 1859.98 635.45 1860.12 649.176 C 1843.97 645.144 1827.67 642.315 1811.38 638.882 C 1773.34 630.968 1735.37 622.692 1697.49 614.057 C 1703.09 623.736 1708.86 633.313 1714.81 642.781 C 1721.35 652.449 1732.14 668.983 1736.17 680.056 C 1764.58 689.938 1793.06 699.62 1821.6 709.1 C 1829.92 711.852 1854.74 719.074 1860.55 721.725 C 1865.97 722.932 1871.37 724.172 1876.77 725.444 C 1884.14 722.236 1892.52 718.322 1900.09 715.944 C 1899.79 728.549 1899.35 741.15 1898.79 753.746 C 1888.99 751.964 1868.93 746.816 1858.88 743.871 C 1821.46 734.818 1787.81 721.373 1750.06 712.951 C 1755.59 723.921 1761.42 735.141 1766.08 746.488 C 1769.72 755.335 1772.48 764.871 1775.95 773.774 C 1799.36 788.887 1838.91 802.515 1865.7 812.06 C 1873.57 814.865 1895.23 820.396 1901.16 823.414 C 1919.63 826.429 1919.88 822.288 1936.42 819.797 C 1935.7 832.474 1935.29 845.895 1933.25 858.374 C 1929.58 856.637 1921.49 852.538 1918.03 851.243 C 1873.83 839.016 1828.82 826.825 1787.94 805.428 C 1794.99 824.421 1802.27 843.476 1808.38 862.78 C 1844.19 885.377 1890.17 902.604 1929.65 917.87 C 1942.03 920.417 1947.23 914.68 1959.93 911.271 C 1958.59 923.204 1957.22 940.052 1954.14 951.106 L 1940.95 944.556 C 1921.69 937.016 1902 931.886 1883.3 924.73 C 1863.85 917.291 1841.11 906.421 1821.86 897.778 C 1828.28 916.26 1835.88 942.824 1842.77 960.072 C 1868.78 974.03 1895.55 986.514 1922.96 997.463 C 1928.62 999.732 1954.27 1008.6 1957.3 1011.4 C 1964.03 1010.49 1975.64 1007.52 1982.42 1005.51 C 1981.54 1019.43 1979.92 1032.73 1978.3 1046.58 C 1963.38 1033.87 1961.43 1032.73 1942.79 1027.43 C 1913.73 1018.57 1878.9 1003.85 1851.59 990.126 C 1855.36 1003.42 1859.02 1016.75 1862.58 1030.11 C 1864.56 1037.68 1867.14 1049.43 1869.63 1056.38 C 1887.3 1071.34 1907.78 1081.19 1928.07 1091.98 C 1933.4 1094.82 1943.36 1099.45 1948.12 1102.45 C 1954.28 1105.15 1961.78 1108.69 1967.94 1111.03 C 1974.62 1109.73 1982.12 1108.52 1988.42 1106.22 C 1987.69 1118.66 1987.06 1130.22 1985.57 1142.6 C 1962.62 1123.51 1948.51 1122.08 1922.72 1108.29 C 1907.13 1100.58 1889.61 1089.54 1874.35 1082.84 C 1882.06 1105.55 1886.94 1134.42 1891.2 1158.28 C 1899 1200.94 1905.2 1243.88 1909.77 1287.01 C 1912.57 1315.5 1913.46 1344.15 1916.17 1372.08 L 1890.2 1372.11 C 1886.82 1283.06 1874.61 1194.57 1853.75 1107.94 C 1843.73 1122.54 1821.99 1153.77 1808.73 1164.33 C 1780.19 1188.26 1773.44 1173.41 1759.1 1147.85 C 1783.66 1155.26 1789.35 1152.62 1806.72 1134.46 C 1823.8 1112.69 1834.63 1100.01 1847.33 1074.94 C 1842.44 1049.26 1834.89 1025.62 1829.82 1000.29 C 1810.11 1030.15 1782.55 1077.23 1748.67 1089.75 C 1742.36 1089.18 1727.12 1068.11 1724.08 1062.2 C 1742.48 1065.83 1749.46 1066.86 1763.62 1053.08 C 1784.36 1026.76 1801.05 1000.52 1818.88 972.343 C 1812.77 953.09 1805.35 933.406 1799.72 914.262 C 1777.24 949.679 1753.25 990.52 1713.91 1007.13 C 1704.69 1006.52 1691.14 988.073 1686.43 980.58 C 1706.21 985.277 1716.13 981.972 1730.71 968.23 C 1752.2 942.832 1771.3 915.509 1787.78 886.607 C 1779.29 863.575 1769.76 842.408 1759.73 820.073 C 1741.51 851.83 1721.72 892.484 1691.2 915.285 C 1687.55 918.008 1679.82 921.12 1675.44 922.95 C 1667.59 922.95 1647.74 899.007 1643.21 892.257 C 1667.92 897.975 1679.04 898.298 1695.7 877.157 C 1718.17 845.085 1729.03 828.73 1745.69 792.112 C 1739.76 773.227 1722.34 741.804 1712.57 723.255 C 1699.39 745.12 1670.67 812.245 1649.99 826.226 C 1643.28 831.128 1634.2 834.984 1626.53 838.044 C 1621.59 833.096 1602.75 816.042 1603.52 810.198 C 1615.41 805.335 1625.63 818.335 1644.1 799.54 L 1645.08 798.527 C 1646.19 793.658 1664.62 762.879 1668.14 755.997 C 1678.16 736.403 1686.71 716.088 1693.72 695.223 C 1683.09 674.516 1662.83 643.897 1649.86 623.609 C 1636.78 656.655 1622.46 690.399 1604.87 721.317 C 1597.5 734.259 1588.44 744.042 1574.38 749.581 C 1567.9 746.932 1547.55 732.803 1546.78 726.027 C 1551.47 719.452 1572.71 721.74 1584.75 711.119 C 1585.46 707.525 1596.09 687.41 1598.39 681.94 C 1610.4 653.411 1622.64 627.243 1631.7 597.572 C 1618.64 576.79 1607.22 559.365 1592.73 539.626 C 1583.41 563.657 1572.76 586.227 1561.32 609.307 C 1553.68 624.713 1543.26 647.656 1532.79 661.285 C 1531.1 664.117 1528.48 666.825 1526.26 669.332 C 1510.48 664.66 1495.69 657.145 1482.62 647.156 C 1494.92 639.744 1502.75 636.659 1517.14 637.218 L 1530.63 612.96 C 1548.29 578.156 1561.82 548.539 1572.76 511.265 C 1556.82 490.712 1540.1 470.779 1522.64 451.511 C 1505.17 495.904 1485.97 539.595 1465.09 582.485 L 1463.44 586.227 C 1453.63 591.845 1425.67 574.745 1418.52 567.16 C 1425.97 562.361 1441.89 557.315 1450.78 554.26 C 1452.91 546.742 1464.06 527.757 1467.44 519.337 C 1479.55 489.137 1492.37 458.609 1500.27 427.048 C 1489.1 413.458 1456.79 383.574 1443.45 371.598 C 1429.21 396.923 1416.28 434.727 1406.57 461.99 C 1402.67 476.978 1399.31 489.118 1396.63 504.408 C 1379.3 499.22 1368.02 495.992 1352.6 486.12 C 1361.2 480.75 1369.29 476.203 1378.13 471.301 C 1381.49 463.771 1384.89 452.912 1387.64 444.902 C 1397.12 413.506 1410.49 382.417 1421.45 351.165 C 1406.37 338.841 1381.75 318.201 1365.63 308.226 C 1331.76 338.943 1322.39 374.878 1309.32 416.092 L 1305.95 434.293 C 1291.6 428.521 1275.45 423.006 1260.82 417.685 C 1269.94 408.983 1280.11 403.826 1289.87 395.245 C 1293.37 382.781 1300.95 361.565 1305.66 349.747 C 1312.26 328.856 1329.53 308.675 1341.87 291.113 C 1331.79 283.809 1321.05 276.381 1310.74 269.722 C 1288.38 255.278 1282.47 255.03 1262.5 271.814 C 1239.33 291.3 1224.79 308.95 1210.49 335.066 C 1206.08 347.07 1206.63 351.79 1207.09 364.494 C 1187.67 360.717 1176.06 359.796 1157.03 353.08 C 1163.78 347.094 1170.24 343.7 1178.28 339.907 C 1182.85 332.806 1187.38 324.427 1191.6 317.023 C 1207.19 283.551 1229.5 264.642 1256.08 241.723 C 1244.29 233.604 1228.77 224.381 1215.87 218.4 C 1197.37 209.824 1173.94 226.596 1159.59 237.582 C 1139.08 253.295 1120.39 273.041 1111.3 297.748 C 1105.89 298.15 1093.83 288.643 1091.02 284.066 C 1088.95 280.701 1089.99 279.786 1090.87 276.282 C 1091.92 273.953 1096.57 267.247 1098.22 264.935 C 1118.9 236.024 1139.68 219.999 1168.35 200.715 C 1159.21 195.827 1128.79 183.974 1118.86 184.992 C 1088.6 188.094 1057.68 220.725 1038.72 241.27 C 1027.41 256.068 1024.36 258.352 1025.36 277.349 C 1007.91 275.406 995.116 273.687 977.778 270.113 L 998.08 252.883 C 1000.45 250.339 1003.52 245.192 1005.51 242.046 C 1024.27 212.449 1052.44 191.144 1080.95 171.248 C 1069.76 168.442 1033.43 159.607 1024.11 163.319 C 996.355 174.371 957.452 209.722 943.578 235.168 C 941.527 241.873 941.675 245.717 941.673 252.519 C 926.408 251.028 908.192 250.954 893.951 248.864 C 899.324 244.565 903.361 240.951 908.41 236.255 C 918.712 225.438 930.212 207.304 941.174 195.1 C 955.589 179.051 969.129 168.318 985.006 154.176 C 973.775 152.6 940.734 147.564 931.409 149.523 C 904.254 155.229 865.997 196.211 850.41 217.271 C 846.335 228.826 846.589 230.962 847.976 243.206 C 832.035 242.168 816.059 241.761 800.086 241.987 C 806.427 236.328 809.488 233.364 813.688 225.6 C 834.894 193.362 850.693 174.146 880.638 149.34 C 870.567 149.267 839.583 148.858 831.613 151.163 C 805.685 158.663 767.635 200.697 753.316 223.019 C 753.29 230.748 753.725 234.279 754.833 241.985 C 739.443 242.086 719.224 242.26 703.978 244.197 C 709.559 239.127 712.286 236.394 717.184 230.681 C 727.918 211.804 740.969 194.341 756.032 178.699 C 760.59 173.705 768.932 164.845 773.884 160.887 L 774.083 159.186 C 766.82 160.168 734.753 167.469 729.245 169.96 C 707.276 179.9 681.172 206.631 666.763 225.636 L 665.602 227.175 L 660.056 236.686 C 660.906 239.838 661.778 243.517 662.869 246.549 C 645.166 247.884 627.824 251.646 610.424 253.526 C 615.13 249.345 623.038 242.728 627.189 238.415 C 645.2 219.855 655.291 200.445 677.459 179.372 C 617.593 202.703 566.861 226.387 518.278 269.966 C 510.674 276.786 504.244 284.72 497.045 291.932 C 489.895 283.751 483.431 274.867 476.966 266.135 C 499.322 244.83 585.713 189.003 614.963 179.29 C 620.971 175.276 635.319 169.313 642.2 166.066 C 667.841 153.966 694.717 144.86 720.775 134.394 C 743.594 125.228 762.862 114.988 786.922 107.117 C 779.19 111.898 772.342 115.513 764.675 120.755 C 762.882 122.299 761.264 123.938 759.578 125.595 C 768.506 125.545 798.953 118.299 809.256 116.414 C 843.782 99.7743 861.569 90.5428 898.569 77.3134 L 883.927 86.628 C 873.935 95.0748 864.253 103.883 854.903 113.035 C 896.001 112.841 896.726 109.409 931.71 88.7606 C 950.934 77.4142 984.109 66.4292 1005.8 60.3495 C 987.865 74.8803 963.228 94.8633 946.724 110.948 C 960.034 111.253 973.27 112.824 986.526 114.148 C 1015.58 96.9394 1030.94 84.5177 1063.35 69.3363 z" fill="rgb(157,12,40)" transform="translate(0,0)"></path>
<path d="M 1812.98 615.605 C 1836.73 619.522 1838.4 619.357 1860.51 609.231 C 1860 622.937 1859.98 635.45 1860.12 649.176 C 1843.97 645.144 1827.67 642.315 1811.38 638.882 C 1773.34 630.968 1735.37 622.692 1697.49 614.057 C 1703.09 623.736 1708.86 633.313 1714.81 642.781 C 1709.38 639.969 1698.21 618.426 1694.54 611.869 C 1699.14 613.49 1706.34 614.924 1711.21 615.931 C 1756.12 625.205 1801.31 636.327 1846.53 643.703 C 1832.24 610.363 1840.07 626.932 1812.98 615.605 z" fill="rgb(7,16,59)" transform="translate(0,0)"></path>
<path d="M 1521.44 308.357 C 1553.8 305.184 1595.15 305.731 1622.26 288.079 C 1623.44 301.188 1625.1 311.44 1627.63 324.397 C 1614.86 324.693 1602.84 324.985 1590.11 325.917 C 1579.04 326.728 1566.54 328.748 1555.75 329.269 C 1563.77 325.422 1602.5 322.931 1612.67 322.323 C 1607.47 315.203 1601.75 308.48 1595.54 302.21 C 1576.55 304.537 1557.51 306.484 1538.43 308.051 C 1534.98 308.34 1524.42 309.697 1521.96 309.615 L 1521.44 308.357 z" fill="rgb(7,16,59)" transform="translate(0,0)"></path>
<path d="M 1305.66 349.747 C 1305.63 355.849 1299.71 370.267 1297.58 376.651 C 1290.31 398.4 1284.61 406.568 1305.77 421.609 C 1307.58 420.168 1307.47 418.67 1308.3 415.938 L 1309.32 416.092 L 1305.95 434.293 C 1291.6 428.521 1275.45 423.006 1260.82 417.685 C 1269.94 408.983 1280.11 403.826 1289.87 395.245 C 1293.37 382.781 1300.95 361.565 1305.66 349.747 z" fill="rgb(7,16,59)" transform="translate(0,0)"></path>
<path d="M 1191.6 317.023 L 1192.19 318.555 C 1189.05 324.922 1185.32 332.077 1182.46 338.481 C 1189.91 342.156 1196.67 346.884 1203.59 351.48 C 1204.95 346.7 1206.71 337.723 1210.49 335.066 C 1206.08 347.07 1206.63 351.79 1207.09 364.494 C 1187.67 360.717 1176.06 359.796 1157.03 353.08 C 1163.78 347.094 1170.24 343.7 1178.28 339.907 C 1182.85 332.806 1187.38 324.427 1191.6 317.023 z" fill="rgb(7,16,59)" transform="translate(0,0)"></path>
<path d="M 1530.63 612.96 L 1531.17 614.534 C 1526.21 624.377 1521.27 634.489 1515.9 644.095 C 1518.21 649.104 1523.12 660.978 1528.22 662.996 C 1529.5 663.505 1531.22 662.113 1532.79 661.285 C 1531.1 664.117 1528.48 666.825 1526.26 669.332 C 1510.48 664.66 1495.69 657.145 1482.62 647.156 C 1494.92 639.744 1502.75 636.659 1517.14 637.218 L 1530.63 612.96 z" fill="rgb(7,16,59)" transform="translate(0,0)"></path>
<path d="M 1387.64 444.902 C 1387.77 451.616 1381.78 467.464 1378.8 473.954 C 1383.21 482.56 1389.5 487.574 1396.56 494.104 C 1399.28 483.226 1401.57 473.254 1405.37 462.67 L 1406.57 461.99 C 1402.67 476.978 1399.31 489.118 1396.63 504.408 C 1379.3 499.22 1368.02 495.992 1352.6 486.12 C 1361.2 480.75 1369.29 476.203 1378.13 471.301 C 1381.49 463.771 1384.89 452.912 1387.64 444.902 z" fill="rgb(7,16,59)" transform="translate(0,0)"></path>
<path d="M 1634.56 401.033 C 1666.62 401.417 1676.2 405.651 1703.58 388.488 C 1704.69 400.767 1706.3 413.48 1707.27 425.636 C 1684.91 424.922 1662.48 425.468 1640.58 424.745 L 1635.09 423.585 C 1653.59 422.529 1676.45 423.008 1695.35 422.808 C 1674.95 393.022 1666.09 405.535 1634.56 401.033 z" fill="rgb(7,16,59)" transform="translate(0,0)"></path>
<path d="M 1450.78 554.26 C 1446.89 566.188 1457.6 573.628 1465.09 582.485 L 1463.44 586.227 C 1453.63 591.845 1425.67 574.745 1418.52 567.16 C 1425.97 562.361 1441.89 557.315 1450.78 554.26 z" fill="rgb(7,16,59)" transform="translate(0,0)"></path>
<path d="M 1022.83 261.478 C 1025.53 256.444 1033.46 242.997 1038.72 241.27 C 1027.41 256.068 1024.36 258.352 1025.36 277.349 C 1007.91 275.406 995.116 273.687 977.778 270.113 L 998.08 252.883 C 1004.79 256.895 1015.07 259.275 1022.83 261.478 z" fill="rgb(7,16,59)" transform="translate(0,0)"></path>
<path d="M 1494.99 219.586 C 1515.6 214.44 1513.22 212.47 1529.21 202.563 C 1530.84 216.015 1532.88 225.343 1535.8 238.592 C 1521.8 239.081 1513.37 240.718 1499.82 242.266 C 1503.14 240.054 1515.2 238.112 1519.68 237.235 C 1510.59 228.59 1508.71 219.355 1494.99 219.586 z" fill="rgb(7,16,59)" transform="translate(0,0)"></path>
<path d="M 1274.72 108.623 C 1290.19 102.658 1295.77 100.356 1310 91.2526 C 1312.35 101.951 1314.94 110.796 1318.05 121.255 C 1304.72 123.219 1298.87 123.7 1286.15 128.546 C 1288.12 125.057 1295.09 123.311 1299.16 121.821 C 1290.22 113.216 1287.49 107.657 1274.72 108.623 z" fill="rgb(7,16,59)" transform="translate(0,0)"></path>
<path d="M 1645.08 798.527 C 1642.13 807.027 1628.59 824.902 1631.98 833.049 C 1637.84 833.158 1644.36 826.362 1649.99 826.226 C 1643.28 831.128 1634.2 834.984 1626.53 838.044 C 1621.59 833.096 1602.75 816.042 1603.52 810.198 C 1615.41 805.335 1625.63 818.335 1644.1 799.54 L 1645.08 798.527 z" fill="rgb(7,16,59)" transform="translate(0,0)"></path>
<path d="M 1695.7 877.157 C 1694.67 888.277 1672.27 904.17 1675.44 922.95 C 1667.59 922.95 1647.74 899.007 1643.21 892.257 C 1667.92 897.975 1679.04 898.298 1695.7 877.157 z" fill="rgb(7,16,59)" transform="translate(0,0)"></path>
<path d="M 1876.77 725.444 C 1884.14 722.236 1892.52 718.322 1900.09 715.944 C 1899.79 728.549 1899.35 741.15 1898.79 753.746 C 1888.99 751.964 1868.93 746.816 1858.88 743.871 L 1859 743.064 C 1861.89 742.99 1880.15 747.902 1884.2 748.92 C 1882.72 739.122 1881.77 735.992 1877.68 727.421 C 1873.31 726.351 1863.6 724.515 1860.55 721.725 C 1865.97 722.932 1871.37 724.172 1876.77 725.444 z" fill="rgb(7,16,59)" transform="translate(0,0)"></path>
<path d="M 1957.3 1011.4 C 1964.03 1010.49 1975.64 1007.52 1982.42 1005.51 C 1981.54 1019.43 1979.92 1032.73 1978.3 1046.58 C 1963.38 1033.87 1961.43 1032.73 1942.79 1027.43 C 1949.44 1026.8 1959.16 1032.76 1963.59 1025.24 C 1963.64 1020.15 1960.2 1015.35 1957.3 1011.4 z" fill="rgb(7,16,59)" transform="translate(0,0)"></path>
<path d="M 1393.1 153.686 C 1406.28 150.038 1409.36 146.504 1420.5 138.462 C 1421.94 150.093 1424.36 160.394 1426.86 171.797 C 1413.72 172.772 1406.38 174.232 1393.58 177.349 C 1396.49 174.166 1406.86 172.608 1411.51 171.57 C 1407.13 167.02 1397.77 156.338 1393.1 153.686 z" fill="rgb(7,16,59)" transform="translate(0,0)"></path>
<path d="M 1948.12 1102.45 C 1954.28 1105.15 1961.78 1108.69 1967.94 1111.03 C 1974.62 1109.73 1982.12 1108.52 1988.42 1106.22 C 1987.69 1118.66 1987.06 1130.22 1985.57 1142.6 C 1962.62 1123.51 1948.51 1122.08 1922.72 1108.29 C 1931.35 1108 1962.69 1129.49 1971.15 1125.07 C 1971.54 1122.52 1967.93 1115.46 1966.65 1112.43 C 1961.66 1109.93 1950.86 1106.68 1948.12 1102.45 z" fill="rgb(7,16,59)" transform="translate(0,0)"></path>
<path d="M 1730.71 968.23 C 1729.31 977.715 1716.44 992.035 1713.91 1007.13 C 1704.69 1006.52 1691.14 988.073 1686.43 980.58 C 1706.21 985.277 1716.13 981.972 1730.71 968.23 z" fill="rgb(7,16,59)" transform="translate(0,0)"></path>
<path d="M 1901.16 823.414 C 1919.63 826.429 1919.88 822.288 1936.42 819.797 C 1935.7 832.474 1935.29 845.895 1933.25 858.374 C 1929.58 856.637 1921.49 852.538 1918.03 851.243 C 1918 843.097 1918.29 835.554 1918.66 827.41 L 1917.85 827.35 L 1916.51 827.236 C 1911.65 826.857 1905.23 826.421 1901.16 823.414 z" fill="rgb(7,16,59)" transform="translate(0,0)"></path>
<path d="M 1171.55 77.9006 C 1182.88 73.8195 1191.16 70.2985 1202.12 65.3601 C 1203.56 74.5498 1205.89 81.4715 1208.62 90.2973 C 1192.54 92.206 1184.73 96.0715 1170.13 103.492 C 1172.81 99.3208 1184.18 94.4894 1189.34 91.9261 C 1184.82 87.6167 1177.03 78.9175 1171.55 77.9006 z" fill="rgb(7,16,59)" transform="translate(0,0)"></path>
<path d="M 1806.72 1134.46 C 1805.97 1140.45 1782.21 1161.44 1784.84 1171.8 C 1792.83 1177.22 1801.79 1164.81 1808.73 1164.33 C 1780.19 1188.26 1773.44 1173.41 1759.1 1147.85 C 1783.66 1155.26 1789.35 1152.62 1806.72 1134.46 z" fill="rgb(7,16,59)" transform="translate(0,0)"></path>
<path d="M 844.003 228.99 C 845.402 225.992 848.201 218.452 850.41 217.271 C 846.335 228.826 846.589 230.962 847.976 243.206 C 832.035 242.168 816.059 241.761 800.086 241.987 C 806.427 236.328 809.488 233.364 813.688 225.6 C 818.946 230.309 836.256 229.059 844.003 228.99 z" fill="rgb(7,16,59)" transform="translate(0,0)"></path>
<path d="M 1749.73 505.75 C 1775.57 507.965 1772.94 507.01 1796.07 496.472 C 1795.95 506.634 1797.58 525.966 1796.76 534.01 C 1793.81 534.669 1791.62 533.728 1788.41 533.034 C 1787.85 530.341 1775.64 513.266 1772.78 508.728 C 1765.15 507.717 1756.61 508.662 1749.73 505.75 z" fill="rgb(7,16,59)" transform="translate(0,0)"></path>
<path d="M 1584.75 711.119 C 1582.84 718.163 1573.92 730.322 1570.5 737.652 C 1571.62 741.394 1572.87 746.057 1574.38 749.581 C 1567.9 746.932 1547.55 732.803 1546.78 726.027 C 1551.47 719.452 1572.71 721.74 1584.75 711.119 z" fill="rgb(7,16,59)" transform="translate(0,0)"></path>
<path d="M 717.184 230.681 C 724.841 234.618 745.817 227.271 753.316 223.019 C 753.29 230.748 753.725 234.279 754.833 241.985 C 739.443 242.086 719.224 242.26 703.978 244.197 C 709.559 239.127 712.286 236.394 717.184 230.681 z" fill="rgb(7,16,59)" transform="translate(0,0)"></path>
<path d="M 1929.65 917.87 C 1942.03 920.417 1947.23 914.68 1959.93 911.271 C 1958.59 923.204 1957.22 940.052 1954.14 951.106 L 1940.95 944.556 C 1943.99 940.173 1941.93 929.611 1941.37 923.761 C 1938.18 922.227 1931.06 920.088 1929.65 917.87 z" fill="rgb(7,16,59)" transform="translate(0,0)"></path>
<path d="M 1763.62 1053.08 C 1759.82 1064.85 1752.94 1076.27 1748.67 1089.75 C 1742.36 1089.18 1727.12 1068.11 1724.08 1062.2 C 1742.48 1065.83 1749.46 1066.86 1763.62 1053.08 z" fill="rgb(7,16,59)" transform="translate(0,0)"></path>
<path d="M 936.933 244.28 C 938.62 241.376 940.817 236.537 943.578 235.168 C 941.527 241.873 941.675 245.717 941.673 252.519 C 926.408 251.028 908.192 250.954 893.951 248.864 C 899.324 244.565 903.361 240.951 908.41 236.255 C 922.425 237.167 924.416 237.828 936.933 244.28 z" fill="rgb(7,16,59)" transform="translate(0,0)"></path>
<path d="M 1063.35 69.3363 C 1073.07 64.554 1084.5 60.4362 1093.15 54.9236 L 1100.12 79.6687 C 1091.53 80.3193 1087.14 80.5168 1079.2 84.5102 C 1080.12 82.9646 1080.57 82.1266 1081.32 80.4908 C 1078.98 74.7036 1069.34 69.9296 1063.35 69.3363 z" fill="rgb(7,16,59)" transform="translate(0,0)"></path>
<path d="M 657.842 236.356 C 659.979 233.073 662.2 228.533 665.602 227.175 L 660.056 236.686 C 660.906 239.838 661.778 243.517 662.869 246.549 C 645.166 247.884 627.824 251.646 610.424 253.526 C 615.13 249.345 623.038 242.728 627.189 238.415 C 635.522 240.638 649.497 238.292 657.842 236.356 z" fill="rgb(7,16,59)" transform="translate(0,0)"></path>
<path d="M 614.963 179.29 C 620.971 175.276 635.319 169.313 642.2 166.066 C 667.841 153.966 694.717 144.86 720.775 134.394 C 743.594 125.228 762.862 114.988 786.922 107.117 C 779.19 111.898 772.342 115.513 764.675 120.755 L 763.01 118.625 C 756.1 119.677 731.325 131.928 723.79 135.077 C 711.282 140.306 698.552 144.716 685.947 149.594 C 667.006 156.957 648.33 164.982 629.953 173.656 C 625.428 175.804 619.928 178.774 614.963 179.29 z" fill="rgb(73,9,26)" transform="translate(0,0)"></path>
<path d="M 809.256 116.414 C 843.782 99.7743 861.569 90.5428 898.569 77.3134 L 883.927 86.628 C 869.211 85.1224 816.931 117.541 809.256 116.414 z" fill="rgb(73,9,26)" transform="translate(0,0)"></path>
<path d="M 756.032 178.699 C 760.59 173.705 768.932 164.845 773.884 160.887 C 772.872 166.762 761.153 178.163 756.032 178.699 z" fill="rgb(143,13,34)" transform="translate(0,0)"></path>
<path d="M 160.233 731.89 C 172.067 791.016 194.545 863.533 212.616 921.189 C 227.606 893.298 234.174 886.08 256.02 863.602 C 262.641 863.929 270.167 867.8 275.519 871.587 L 276.321 873.456 L 275.271 875.532 C 259.201 891.342 229.307 931.347 229.27 953.995 C 229.248 968.088 243.932 1001.82 249.846 1017.12 C 264.548 976.693 276.598 959.134 308.656 931.761 C 313.282 933.893 318.295 939.696 321.075 944.007 C 320.485 945.571 319.916 947.144 319.367 948.724 C 297.385 976.847 266.222 1019.79 269.449 1058.72 C 270.334 1069.4 289.068 1106.52 295.157 1117.99 C 312.383 1070.31 317.582 1056.66 353.97 1020.27 C 360.119 1021.88 369.604 1023.79 375.084 1025.94 C 375.902 1028.17 375.714 1027.1 375.801 1029.13 C 344.776 1060.72 318.521 1106.14 316.565 1152.26 C 315.901 1167.93 339.099 1202.72 347.744 1218.34 C 354.175 1181.97 361.574 1156.69 384.862 1126.33 C 386.699 1123.93 393.623 1115.13 395.363 1113.61 C 398.128 1112.43 399.099 1111.26 401.154 1109.18 C 406.749 1107.33 413.998 1113.06 417.742 1116.76 C 418.308 1119.02 418.236 1118.87 417.426 1121.08 C 392.516 1156.14 365.626 1208.22 370.154 1253.54 C 371.442 1266.43 393.563 1298.41 402.085 1310.55 C 409.888 1288.51 416.74 1270.75 431.938 1252.46 C 431.777 1257.78 431.04 1266.71 431.517 1271.74 C 433.798 1295.75 425.631 1314.74 421.088 1338.14 C 428.603 1351.93 440.584 1367.12 449.267 1380.79 C 453.111 1366.43 455.935 1354.49 459.046 1340.01 C 469.271 1339.74 479.498 1339.59 489.727 1339.56 C 478.571 1367.12 472.605 1380.54 471.936 1410.91 C 478.771 1422.83 500.701 1449.13 510.442 1460.99 C 520 1428.03 531.553 1407.27 555.291 1381.46 C 559.281 1377.13 569.613 1366.89 574.437 1363.59 C 577.097 1363.22 577.903 1362.56 580.17 1361.12 C 583.304 1361.94 592.309 1371.37 596.547 1374.67 C 560.624 1406.06 540.063 1437.83 531.81 1485.91 C 546.691 1506.27 575.769 1536.83 593.621 1556.63 C 605.809 1506.14 615.682 1484.08 653.835 1449.44 C 658.881 1456.29 663.543 1458.14 670.289 1463.25 C 670.354 1463.3 670.73 1465.44 670.668 1466.05 C 639.676 1490.78 623.333 1535.31 619.033 1573.5 C 618.726 1576.38 618.491 1579.26 618.328 1582.15 C 637.774 1600.42 662.238 1621.78 682.704 1639.3 C 688.619 1597.39 698.864 1557.26 735.493 1530.98 C 741.983 1535.34 748.581 1539.55 755.28 1543.59 C 721.519 1574.49 706.46 1616.77 709.831 1662.34 C 729.325 1677.84 752.884 1692.52 771.486 1707.5 C 774.791 1672.92 788.249 1635.93 811.631 1609.83 C 818.611 1614.83 829.046 1617 833.181 1621.29 C 812.349 1650.77 799.314 1691.92 798.884 1727.79 C 823.736 1743.87 849.128 1759.11 875.015 1773.47 C 873.236 1730.72 871.141 1705.64 897.576 1670.88 L 901.918 1678.91 C 906.525 1680.03 913.239 1680.89 916.16 1684.2 C 898.457 1710.48 898.778 1757.6 902.63 1788.22 C 924.409 1800.42 972.357 1821.77 997.275 1831.25 C 990.305 1810.34 981.291 1779.45 981.294 1757.49 C 980.744 1745.83 980.71 1738.2 982.445 1726.71 C 987.893 1719.88 997.313 1710.04 1003.58 1702.6 C 1015.15 1708.65 1028.01 1716.33 1039.5 1722.82 C 1029.9 1725.09 1013.77 1728.5 1007.97 1736.59 C 1001.67 1771.06 1015 1811.6 1031.04 1841.77 C 1057.38 1852.11 1097.43 1861.47 1125.24 1868.11 C 1103.61 1835.08 1095.62 1818.02 1085.98 1779.2 C 1092.65 1779.93 1093.95 1780.3 1100.23 1782.38 C 1104.9 1779.82 1108.3 1778.05 1113.25 1775.88 C 1115.56 1807.48 1136.06 1843.88 1159.1 1865.53 C 1175.21 1880.67 1210.02 1880.69 1232.55 1881.28 C 1208.37 1853.21 1199.64 1836.61 1185.36 1803.23 L 1181.57 1794.47 C 1186.21 1787.77 1192.42 1779.3 1196.49 1772.44 C 1207.9 1776.02 1219.37 1779.37 1230.91 1782.52 C 1211.37 1792.91 1209.91 1794.31 1217.92 1815.36 C 1230.07 1838.79 1247.35 1870.23 1274.48 1879.69 C 1285.61 1883.57 1317.81 1880.85 1330.3 1878.79 C 1315.17 1863.69 1308.86 1853.78 1298.65 1834.76 C 1296.42 1830.59 1290.9 1820.03 1288.43 1816.45 C 1298.89 1814.61 1297.05 1813.16 1306.08 1808.14 C 1308.63 1806.72 1309.72 1807.77 1312.47 1808.95 C 1316.03 1812.96 1319.7 1822.19 1322.45 1826.88 C 1335.17 1848.6 1355.35 1877.16 1384.57 1867.12 C 1396.52 1863.01 1407.97 1858.86 1419.78 1854.07 C 1409.11 1836.49 1399.07 1821.45 1388.49 1803.15 C 1386.15 1798.62 1385.97 1797.9 1387.91 1792.34 C 1389.9 1786.66 1394.09 1778.68 1397.08 1773.37 C 1409.07 1773.38 1419.51 1773.07 1431.49 1771.63 C 1425.84 1781.2 1418.68 1792.06 1415.81 1802.65 L 1426.65 1820.79 C 1432.63 1828.81 1438.38 1837.2 1445.76 1843.94 C 1495.76 1821.97 1535.9 1797.49 1582.27 1769.19 C 1587.37 1775.39 1592.37 1781.7 1598.01 1787.4 C 1539.33 1828.09 1475.4 1860.64 1407.97 1884.16 C 1388.3 1890.84 1367.98 1896.01 1347.94 1901.59 C 1339.32 1904 1326.4 1910.72 1319.09 1912.65 C 1304.01 1920.43 1288.84 1927.16 1274.47 1936.29 C 1271.18 1938.38 1254.82 1949.65 1253.04 1949.61 C 1258.32 1943.82 1272.82 1931.28 1279.1 1926.67 C 1286.92 1919.43 1296.58 1912.09 1305.27 1905.88 C 1297.95 1905.86 1267.98 1905.31 1263.07 1906.95 C 1240.6 1914.49 1203.93 1943.06 1187.98 1958.91 C 1184.88 1961.97 1181.85 1965.1 1178.89 1968.3 C 1173.83 1973.97 1167.71 1982.1 1162.85 1988.16 C 1156.59 1979.9 1148.68 1967.09 1143.6 1958.22 C 1149.48 1957.07 1153.42 1957.17 1159.36 1955.04 C 1169.44 1946.72 1178.26 1937.41 1188.26 1928.93 C 1197.68 1920.93 1208.28 1914.22 1217.81 1906.57 C 1197.98 1905.43 1180.07 1903.31 1160.52 1901.57 C 1125.63 1917.86 1088.94 1938.11 1063.55 1967.53 C 1058.56 1962.17 1053.43 1956.93 1048.19 1951.81 C 1076.41 1921.66 1085.36 1916.48 1120.78 1894.74 C 1110.27 1892.76 1072.84 1884.6 1065.18 1887.22 C 1029.1 1899.59 992.844 1921.88 962.603 1944.9 C 957.24 1942.4 947.689 1938.76 947.154 1932.31 C 972.303 1905.87 999.825 1892.3 1031.38 1875.18 L 971.131 1857.83 C 939.191 1866.79 892.425 1887.16 863.112 1902.39 C 833.619 1919.69 837.575 1917.37 814.5 1940.98 C 810.226 1927.77 806.446 1913.88 802.627 1900.49 C 810.366 1901.11 819.774 1902.67 827.831 1903.55 L 834.573 1897.11 C 855.424 1876.12 907.805 1854.86 935.476 1843.43 C 927.281 1839.91 883.227 1820.56 877.046 1820.64 C 837.742 1821.11 773.04 1845.13 737.989 1858.31 C 730.514 1858.75 723.412 1856.46 722.479 1848.01 C 723.8 1846.49 724.728 1845.15 725.72 1843.39 C 729.115 1840.64 739.006 1835.5 743.135 1833.27 C 776.154 1815.51 805.88 1806.43 841.865 1797.43 C 822.318 1788.09 784.325 1760.69 765.777 1755.9 C 744.035 1750.27 676.384 1772.45 653.939 1779.31 C 642.313 1782.87 629.806 1788.68 618.492 1792.14 L 617.516 1792.43 C 610.653 1788.18 609.073 1781.34 612.851 1774.45 C 638.997 1754.1 701.462 1737.21 734.411 1730.7 C 711.755 1714.21 684.874 1691.92 662.887 1677.23 C 616.553 1676.29 564.764 1689.44 520.512 1701.86 C 508.721 1705.35 496.075 1718.75 486.885 1727.32 C 484.912 1714.61 484.177 1696.2 483.469 1683.28 L 506.474 1687.49 C 514.979 1683.27 521.739 1679.92 530.614 1676.43 C 549.466 1665.57 611.323 1651.73 633.466 1649.66 C 614.423 1632.14 590.738 1606.46 571.534 1590.79 C 530.639 1584.24 481.388 1591.86 441.243 1599.89 C 406.909 1607.78 410.852 1609.27 384.481 1631.59 C 383.764 1616.25 382.936 1600.98 382.954 1585.61 C 390.285 1587.89 397.663 1590.01 405.083 1591.98 L 416.827 1586.37 C 416.955 1586.2 417.083 1586.03 417.211 1585.85 C 450.196 1567.14 507.845 1559.46 543.627 1558.78 L 503.973 1511.44 C 498.738 1505.22 488.683 1492.23 482.741 1487.74 C 433.887 1478.44 377.384 1481.99 329.335 1494.07 C 327.162 1493.33 328.095 1493.98 326.638 1491.97 C 327.025 1485.77 328.777 1481.08 331.7 1475.59 L 331.002 1473.87 C 359.36 1461.33 395.377 1456.56 426.429 1455.05 C 436.741 1454.55 447.738 1455.55 457.971 1454.69 L 458.539 1453.36 C 441.801 1435.62 422.396 1395.72 405.651 1379.33 C 387.08 1361.15 318.054 1360.56 292.414 1360.64 C 253.867 1362.28 257.29 1361.53 225.382 1382.77 L 225.958 1338.12 C 233.746 1339.77 243.978 1343.1 251.8 1345.41 C 273.554 1338.36 296.285 1334.78 319.154 1334.81 C 329.917 1332.18 366.675 1336.21 378.534 1338.03 C 371.147 1324.12 354.993 1298.22 346.765 1284.95 C 333.595 1263.72 280.965 1252.46 257.042 1247.74 C 249.969 1246.34 235.969 1245.45 227.401 1244.13 C 216.379 1243.42 205.34 1243.04 194.295 1242.98 C 186.08 1247.43 174.315 1255.91 166.29 1261.34 C 166.67 1246.96 166.942 1232.58 167.109 1218.19 C 190.988 1225.55 197.533 1222.97 221.643 1221.12 C 249.613 1218.96 280.363 1222.41 307.293 1229.89 C 312.268 1231.28 317.425 1233.57 322.26 1234.37 L 322.477 1232.47 C 310.655 1216.72 302.677 1193.9 292.618 1178.46 C 275.443 1152.11 212.866 1142.54 184.248 1135.35 C 152.511 1132.64 149.046 1126.54 121.772 1145.92 C 121.38 1138.67 119.898 1109.74 122.556 1104.61 C 126.335 1105.33 129.495 1108.12 132.705 1110.42 C 174.965 1103.75 229.8 1114.31 268.413 1132.41 C 260.583 1113.22 250.623 1088.29 241.524 1070.08 C 223.161 1055.77 177.274 1041.3 154.855 1033.78 C 137.082 1031.13 130.279 1027.01 110.114 1026.68 C 103.553 1032.38 97.6148 1037.22 90.5482 1042.24 C 90.7266 1028.52 90.7319 1014.57 91.5476 1000.89 C 109.246 1006.18 127.486 1004.29 147.262 1007.47 C 172.068 1010.3 202.589 1022.75 226.217 1031.9 C 218.762 1014.1 212.702 994.606 205.658 976.294 C 170.996 956.616 147.498 949.85 111.412 937.213 C 106.336 936.553 93.9651 933.141 88.4896 931.79 C 80.9587 941.439 79.5236 943.859 69.0396 950.04 L 69.4526 907.466 C 77.3603 909.416 80.3468 909.761 88.5064 910.336 C 122.15 911.804 162.843 927.83 193.218 941.461 C 183.017 913.517 173.075 878.77 164.495 850.184 C 154.713 817.595 143.803 781.013 135.543 748.098 L 160.233 731.89 z" fill="rgb(157,12,40)" transform="translate(0,0)"></path>
<path d="M 167.109 1218.19 C 190.988 1225.55 197.533 1222.97 221.643 1221.12 C 249.613 1218.96 280.363 1222.41 307.293 1229.89 C 312.268 1231.28 317.425 1233.57 322.26 1234.37 L 322.477 1232.47 C 324.929 1233.33 329.778 1240.52 332.187 1243.3 C 305.077 1222.12 242.244 1220.43 208.572 1223.43 C 199.846 1224.21 189.516 1227.35 190.845 1238.24 C 192.767 1240.73 192.586 1240.9 196.903 1241.28 C 205.915 1242.08 219.088 1241.04 227.401 1244.13 C 216.379 1243.42 205.34 1243.04 194.295 1242.98 C 186.08 1247.43 174.315 1255.91 166.29 1261.34 C 166.67 1246.96 166.942 1232.58 167.109 1218.19 z" fill="rgb(7,16,59)" transform="translate(0,0)"></path>
<path d="M 1003.58 1702.6 C 1015.15 1708.65 1028.01 1716.33 1039.5 1722.82 C 1029.9 1725.09 1013.77 1728.5 1007.97 1736.59 C 995.174 1734.34 996.68 1737.49 982.74 1731 C 982.71 1738.79 982.975 1749.48 982.298 1757.03 L 981.294 1757.49 C 980.744 1745.83 980.71 1738.2 982.445 1726.71 C 987.893 1719.88 997.313 1710.04 1003.58 1702.6 z" fill="rgb(7,16,59)" transform="translate(0,0)"></path>
<path d="M 251.8 1345.41 C 273.554 1338.36 296.285 1334.78 319.154 1334.81 L 318.024 1335.03 C 305.046 1337.51 291.063 1337.31 277.997 1340.2 C 267.249 1342.57 250.381 1343.45 252.607 1358.49 C 256.975 1364.94 290.832 1356.6 296.99 1359.67 L 292.414 1360.64 C 253.867 1362.28 257.29 1361.53 225.382 1382.77 L 225.958 1338.12 C 233.746 1339.77 243.978 1343.1 251.8 1345.41 z" fill="rgb(7,16,59)" transform="translate(0,0)"></path>
<path d="M 382.954 1585.61 C 390.285 1587.89 397.663 1590.01 405.083 1591.98 L 416.827 1586.37 C 413.791 1589.32 411.722 1591.12 408.402 1593.76 C 411.738 1597.13 415.138 1600.68 418.549 1603.96 C 426.035 1602.03 433.411 1599.95 441.066 1598.84 L 441.243 1599.89 C 406.909 1607.78 410.852 1609.27 384.481 1631.59 C 383.764 1616.25 382.936 1600.98 382.954 1585.61 z" fill="rgb(7,16,59)" transform="translate(0,0)"></path>
<path d="M 1397.08 1773.37 C 1409.07 1773.38 1419.51 1773.07 1431.49 1771.63 C 1425.84 1781.2 1418.68 1792.06 1415.81 1802.65 L 1426.65 1820.79 C 1421.61 1818.9 1414.49 1802.95 1412.52 1797.7 C 1404.89 1799.63 1395.18 1800.3 1388.49 1803.15 C 1386.15 1798.62 1385.97 1797.9 1387.91 1792.34 C 1389.9 1786.66 1394.09 1778.68 1397.08 1773.37 z" fill="rgb(7,16,59)" transform="translate(0,0)"></path>
<path d="M 834.573 1897.11 C 830.553 1905.49 834.084 1906.62 840.201 1913.5 L 861.48 1901.89 L 863.112 1902.39 C 833.619 1919.69 837.575 1917.37 814.5 1940.98 C 810.226 1927.77 806.446 1913.88 802.627 1900.49 C 810.366 1901.11 819.774 1902.67 827.831 1903.55 L 834.573 1897.11 z" fill="rgb(7,16,59)" transform="translate(0,0)"></path>
<path d="M 530.614 1676.43 C 526.568 1682.55 508.983 1682.91 506.953 1694.06 C 508.889 1698.24 516.027 1701.41 520.512 1701.86 C 508.721 1705.35 496.075 1718.75 486.885 1727.32 C 484.912 1714.61 484.177 1696.2 483.469 1683.28 L 506.474 1687.49 C 514.979 1683.27 521.739 1679.92 530.614 1676.43 z" fill="rgb(7,16,59)" transform="translate(0,0)"></path>
<path d="M 1196.49 1772.44 C 1207.9 1776.02 1219.37 1779.37 1230.91 1782.52 C 1211.37 1792.91 1209.91 1794.31 1217.92 1815.36 L 1217.02 1815.31 C 1213.36 1809.28 1211.46 1802.49 1210.5 1795.54 C 1200.93 1799.51 1195.39 1801.13 1185.36 1803.23 L 1181.57 1794.47 C 1186.21 1787.77 1192.42 1779.3 1196.49 1772.44 z" fill="rgb(7,16,59)" transform="translate(0,0)"></path>
<path d="M 91.5476 1000.89 C 109.246 1006.18 127.486 1004.29 147.262 1007.47 C 135.496 1008.11 121.435 1005.73 108.702 1005.82 C 108.438 1008.85 106.971 1020.63 108.959 1022.4 C 113.95 1026.86 152.781 1028.88 154.855 1033.78 C 137.082 1031.13 130.279 1027.01 110.114 1026.68 C 103.553 1032.38 97.6148 1037.22 90.5482 1042.24 C 90.7266 1028.52 90.7319 1014.57 91.5476 1000.89 z" fill="rgb(7,16,59)" transform="translate(0,0)"></path>
<path d="M 121.772 1145.92 C 121.38 1138.67 119.898 1109.74 122.556 1104.61 C 126.335 1105.33 129.495 1108.12 132.705 1110.42 C 133.237 1115.02 135.269 1118.67 137.645 1122.69 C 142.743 1125.6 147.112 1128.16 152.061 1131.36 C 159.421 1131.17 178.08 1131.95 184.248 1135.35 C 152.511 1132.64 149.046 1126.54 121.772 1145.92 z" fill="rgb(7,16,59)" transform="translate(0,0)"></path>
<path d="M 69.4526 907.466 C 77.3603 909.416 80.3468 909.761 88.5064 910.336 L 87.7393 911.688 L 83.8856 911.655 C 82.6843 915.093 88.1477 925.686 89.8743 929.483 C 94.4816 931.226 109.379 935.527 111.412 937.213 C 106.336 936.553 93.9651 933.141 88.4896 931.79 C 80.9587 941.439 79.5236 943.859 69.0396 950.04 L 69.4526 907.466 z" fill="rgb(7,16,59)" transform="translate(0,0)"></path>
<path d="M 1159.36 1955.04 L 1160.32 1955.99 C 1165.41 1961.12 1168.31 1966.7 1173.22 1970.17 C 1176.89 1970.2 1175.06 1970.43 1178.89 1968.3 C 1173.83 1973.97 1167.71 1982.1 1162.85 1988.16 C 1156.59 1979.9 1148.68 1967.09 1143.6 1958.22 C 1149.48 1957.07 1153.42 1957.17 1159.36 1955.04 z" fill="rgb(7,16,59)" transform="translate(0,0)"></path>
<path d="M 458.539 1453.36 L 459.758 1453.13 L 462.474 1455.76 L 462.31 1456.92 C 456.632 1457.8 447.66 1456.95 441.667 1456.92 C 404.345 1456.71 366.462 1461.67 331.7 1475.59 L 331.002 1473.87 C 359.36 1461.33 395.377 1456.56 426.429 1455.05 C 436.741 1454.55 447.738 1455.55 457.971 1454.69 L 458.539 1453.36 z" fill="rgb(73,9,26)" transform="translate(0,0)"></path>
<path d="M 1279.1 1926.67 C 1279.81 1927.71 1281.1 1929.13 1282.54 1928.64 C 1293.81 1924.81 1307.35 1914.12 1319.09 1912.65 C 1304.01 1920.43 1288.84 1927.16 1274.47 1936.29 C 1271.18 1938.38 1254.82 1949.65 1253.04 1949.61 C 1258.32 1943.82 1272.82 1931.28 1279.1 1926.67 z" fill="rgb(73,9,26)" transform="translate(0,0)"></path>
<path d="M 590.765 1338.02 L 612.562 1338.06 C 621.205 1349.16 632.411 1360.84 638.698 1372.85 C 626.703 1371.79 614.672 1371.19 602.632 1371.05 L 596.547 1374.67 C 592.309 1371.37 583.304 1361.94 580.17 1361.12 C 577.903 1362.56 577.097 1363.22 574.437 1363.59 C 584.83 1353.54 585.888 1351.61 590.765 1338.02 z" fill="rgb(7,16,59)" transform="translate(0,0)"></path>
<path d="M 671.866 1422.82 C 685.117 1433.3 704.034 1446.61 711.49 1461.82 C 699.203 1461.89 681.641 1461.12 670.668 1466.05 C 670.73 1465.44 670.354 1463.3 670.289 1463.25 C 663.543 1458.14 658.881 1456.29 653.835 1449.44 C 660.186 1440.76 666.038 1430.63 671.866 1422.82 z" fill="rgb(7,16,59)" transform="translate(0,0)"></path>
<path d="M 750.046 1502.45 C 763.848 1511.86 782.916 1524.08 792.144 1537.49 C 784.661 1538.15 761.797 1540.11 755.28 1543.59 C 748.581 1539.55 741.983 1535.34 735.493 1530.98 C 741.035 1523.56 747.023 1511.22 750.046 1502.45 z" fill="rgb(7,16,59)" transform="translate(0,0)"></path>
<path d="M 828.188 1580.18 C 843.769 1588.67 859.241 1598.29 869.766 1612.89 C 855.338 1613.24 843.307 1611.3 833.181 1621.29 C 829.046 1617 818.611 1614.83 811.631 1609.83 C 819.635 1598.86 822.736 1592.71 828.188 1580.18 z" fill="rgb(7,16,59)" transform="translate(0,0)"></path>
<path d="M 416.277 1078.27 C 424.75 1084.89 432.764 1092.5 440.563 1099.91 C 444.571 1103.71 452.42 1109.62 448.549 1115.08 C 438.026 1119.46 428.684 1113.62 417.426 1121.08 C 418.236 1118.87 418.308 1119.02 417.742 1116.76 C 413.998 1113.06 406.749 1107.33 401.154 1109.18 C 399.099 1111.26 398.128 1112.43 395.363 1113.61 C 408.486 1097.65 407.245 1092.95 416.277 1078.27 z" fill="rgb(7,16,59)" transform="translate(0,0)"></path>
<path d="M 910.016 1645.73 C 923.012 1651.89 943.846 1666.99 954.112 1676.61 C 943.976 1677.06 923.845 1677.02 916.16 1684.2 C 913.239 1680.89 906.525 1680.03 901.918 1678.91 L 897.576 1670.88 C 902.753 1662.39 905.985 1654.76 910.016 1645.73 z" fill="rgb(7,16,59)" transform="translate(0,0)"></path>
<path d="M 1103.06 1744.35 C 1116.04 1751.22 1127.81 1754.09 1140.61 1760.66 C 1133.27 1763.68 1117.39 1769.59 1113.25 1775.88 C 1108.3 1778.05 1104.9 1779.82 1100.23 1782.38 C 1093.95 1780.3 1092.65 1779.93 1085.98 1779.2 L 1083.75 1769.68 C 1091.4 1760.78 1096.72 1754.18 1103.06 1744.35 z" fill="rgb(7,16,59)" transform="translate(0,0)"></path>
<path d="M 373.009 991.629 C 384.444 1000.29 402.968 1015.29 410.084 1027.34 C 400.735 1027.41 382.132 1025.13 375.801 1029.13 C 375.714 1027.1 375.902 1028.17 375.084 1025.94 C 369.604 1023.79 360.119 1021.88 353.97 1020.27 C 361.975 1010.46 366.477 1002.37 373.009 991.629 z" fill="rgb(7,16,59)" transform="translate(0,0)"></path>
<path d="M 1295.04 1784.86 C 1308.53 1785.45 1322.02 1785.84 1335.53 1786.04 C 1328.74 1791.36 1316.8 1801.59 1312.47 1808.95 C 1309.72 1807.77 1308.63 1806.72 1306.08 1808.14 C 1297.05 1813.16 1298.89 1814.61 1288.43 1816.45 C 1286.04 1813.87 1283.95 1810.74 1281.88 1807.85 C 1285.57 1800.5 1290.82 1791.97 1295.04 1784.86 z" fill="rgb(7,16,59)" transform="translate(0,0)"></path>
<path d="M 327.164 907.786 C 335.999 916.565 350.57 931.306 358.143 940.719 C 342.744 942.454 329.375 939.171 319.367 948.724 C 319.916 947.144 320.485 945.571 321.075 944.007 C 318.295 939.696 313.282 933.893 308.656 931.761 C 316.893 924.028 320.399 915.822 327.164 907.786 z" fill="rgb(7,16,59)" transform="translate(0,0)"></path>
<path d="M 725.72 1843.39 C 724.728 1845.15 723.8 1846.49 722.479 1848.01 C 723.412 1856.46 730.514 1858.75 737.989 1858.31 C 719.494 1866.11 713.243 1874.08 699.176 1888.3 C 698.991 1874.88 696.321 1857.51 694.56 1844.02 C 702.796 1845.63 711.097 1846.87 719.442 1847.75 C 721.506 1846.12 723.533 1844.85 725.72 1843.39 z" fill="rgb(7,16,59)" transform="translate(0,0)"></path>
<path d="M 300.177 1469.53 C 309.773 1472.32 322.036 1477.43 331.002 1473.87 L 331.7 1475.59 C 328.777 1481.08 327.025 1485.77 326.638 1491.97 C 328.095 1493.98 327.162 1493.33 329.335 1494.07 C 322.414 1496.76 307.103 1508.17 300.227 1512.91 C 299.928 1498.64 300.145 1483.85 300.177 1469.53 z" fill="rgb(7,16,59)" transform="translate(0,0)"></path>
<path d="M 612.851 1774.45 C 609.073 1781.34 610.653 1788.18 617.516 1792.43 C 610.399 1795.7 594.777 1812.12 588.292 1818.67 C 585.988 1807.1 584.064 1786.44 582.564 1774.35 C 594.923 1777.04 602.449 1780.62 612.851 1774.45 z" fill="rgb(7,16,59)" transform="translate(0,0)"></path>
<path d="M 277.271 842.323 C 287.651 851.06 302.192 862.152 309.884 872.967 C 300.409 872.856 283.326 871.775 275.271 875.532 L 276.321 873.456 L 275.519 871.587 C 270.167 867.8 262.641 863.929 256.02 863.602 C 262.641 856.93 270.475 848.587 277.271 842.323 z" fill="rgb(7,16,59)" transform="translate(0,0)"></path>
<path d="M 1090.87 276.282 C 1089.99 279.786 1088.95 280.701 1091.02 284.066 C 1093.83 288.643 1105.89 298.15 1111.3 297.748 C 1111.1 302.263 1111.38 305.935 1109.46 309.947 C 1099.58 310.134 1068.58 304.126 1057.82 301.963 C 1066.41 294.281 1085.74 283.878 1090.87 276.282 z" fill="rgb(7,16,59)" transform="translate(0,0)"></path>
<path d="M 921.233 1932.6 C 924.97 1933.22 928.713 1933.8 932.462 1934.34 C 938.832 1935.21 942.264 1936.01 947.154 1932.31 C 947.689 1938.76 957.24 1942.4 962.603 1944.9 C 952.643 1954.43 946.11 1961.53 937.63 1972.35 C 931.954 1959.08 926.341 1946.11 921.233 1932.6 z" fill="rgb(7,16,59)" transform="translate(0,0)"></path>
<path d="M 1048.19 1951.81 C 1053.43 1956.93 1058.56 1962.17 1063.55 1967.53 C 1058.72 1973.32 1053.74 1980.34 1049.18 1986.47 C 1042.46 1977.15 1035.14 1965.08 1028.99 1955.3 C 1035.83 1954.38 1041.57 1953.81 1048.19 1951.81 z" fill="rgb(7,16,59)" transform="translate(0,0)"></path>
<metadata><recraft-signature>{"signed_by": "recraft", "signature_b64": "TOfjB4M6wyKvqFGxLIWelr3wwtltKd12uFR2XMlq7J7budanq78nKcHSXJ3x4WZxESR0UYfVzv92h539uR2xCA==", "signing_algo": "Ed25519", "generation_timestamp": 1777331180, "identifier": "1dbed6e9-2b2d-4080-9730-7ed3d0a97b81"}</recraft-signature></metadata></svg>