<svg xmlns="http://www.w3.org/2000/svg" height="1024" preserveAspectRatio="none" style="display: block;" version="1.1" viewBox="0 0 2048 2048" width="1024">
<path d="M 0 0 L 2048 0 L 2048 2048 L 0 2048 L 0 0 z" fill="rgb(255,255,255)" transform="translate(0,0)"></path>
<path d="M 1204.72 127.439 C 1222.83 126.026 1243.51 127.38 1261.68 128.181 C 1425.38 135.403 1594.62 196.228 1734.52 281.616 C 1782.02 310.756 1827.98 342.327 1872.22 376.204 C 1893.03 392.24 1912.71 409.538 1933.34 425.704 C 1892.3 528.39 1832.67 637.481 1777.77 733.783 C 1730.38 817.533 1680.32 899.747 1627.67 980.298 C 1576.97 1056.01 1522.78 1129.32 1465.27 1199.99 C 1434.01 1238.29 1393.81 1286.03 1359.19 1321.37 C 1326.28 1354.67 1291.76 1386.32 1255.74 1416.23 C 1182.5 1477.51 1122.78 1514.9 1036.61 1554.75 C 909.317 1613.63 779.211 1648.13 638.24 1647.56 C 579.643 1647.32 518.98 1643.72 462.349 1628.33 C 474.946 1627.89 489.339 1629.27 502.14 1629.75 C 621.863 1634.24 745.024 1619.93 860.042 1586.23 C 910.437 1571.46 959.804 1550.35 1007.24 1528.6 C 990.071 1524.5 973.703 1522.17 956.222 1517.25 C 877.799 1495.18 802.798 1459.89 741.54 1405.41 C 653.094 1326.76 607.446 1226.36 591.121 1110.44 C 588.563 1092.28 587.93 1071.13 586.952 1052.69 C 579.872 1062.34 564.937 1090.71 558.513 1102.09 C 544.1 1127.31 529.368 1152.34 514.319 1177.18 C 445.398 1291.85 372.382 1408.12 287.686 1511.78 C 272.306 1530.6 251.899 1556.6 235.079 1573.52 C 262.681 1593.98 293.907 1612.47 322.794 1631.27 C 410.102 1688.1 502.145 1739.05 597.934 1780.13 C 612.674 1786.45 628.135 1791.31 642.88 1796.93 C 795.343 1855.02 961.591 1872.19 1118.84 1822.61 C 1141.35 1815.51 1160.66 1809.74 1182.9 1800.72 C 1322.22 1744.22 1446.35 1635.25 1539.95 1519.27 C 1564.53 1488.37 1587.94 1456.56 1610.14 1423.91 C 1637.42 1384.63 1670.01 1335.05 1693.96 1293.26 C 1740.16 1210.9 1781.98 1126.16 1819.24 1039.38 C 1826.73 1022.36 1835.58 1005.09 1842.7 988.072 C 1865.48 933.084 1886.83 877.516 1906.73 821.422 C 1916.34 794.933 1925.67 765.27 1936.26 739.627 C 1928.67 784.921 1911.85 835.354 1898.73 879.418 C 1874.59 958.051 1847.08 1035.61 1816.27 1111.87 C 1746.61 1284.74 1668.46 1440.37 1552.33 1587.4 C 1423.49 1747.06 1280.12 1859.93 1076.05 1905.26 C 788.646 1969.12 537.817 1845.01 295.943 1704.5 L 161.413 1625.44 C 144.68 1615.47 125.647 1605.42 109.494 1594.97 C 120.673 1583.52 133.116 1572.84 144.415 1561.29 C 223.451 1480.51 294.726 1392.17 358.509 1298.73 C 393.212 1246.95 426.99 1194.56 459.828 1141.58 C 557.539 982.465 644.351 831.978 792.951 712.465 C 1038.69 514.83 1364.13 477.764 1662.95 555.715 C 1699.5 565.249 1734.2 577.216 1769.74 589.883 C 1792.74 545.59 1817.57 502.3 1841.5 458.587 C 1830.32 449.016 1815.45 439.681 1803.61 430.533 C 1781.8 413.674 1761.3 398.988 1738.03 384.149 C 1680.44 347.346 1620.02 315.172 1557.34 287.931 C 1395.31 216.804 1237.94 188.224 1062.99 226.99 C 818.896 281.076 642.459 403.919 488.835 598.606 C 408.527 701.808 340.219 813.811 285.229 932.454 C 244.596 1018 207.08 1106.59 166.239 1192.07 C 147.421 1231.46 128.951 1270.59 105.531 1307.42 C 108.37 1295.54 113.4 1279.88 116.769 1267.77 C 128.437 1225.05 141.331 1182.67 155.434 1140.69 C 290.378 733.456 525.499 312.199 958.025 171.162 C 1043.51 143.287 1115.12 132.516 1204.72 127.439 z" fill="rgb(8,26,64)" transform="translate(0,0)"></path>
<path d="M 712.116 891.07 C 714.453 883.578 725.215 865.347 729.613 858.461 C 787.689 767.538 870.765 701.034 977.613 678.363 C 995.739 674.517 1071.95 662.611 1085.91 671.6 C 1090.22 671.939 1095.18 672.2 1099.41 672.716 C 1111.47 673.76 1118.66 675.021 1130.19 678.584 C 1139.6 679.499 1152.47 683.176 1161.62 685.922 C 1191.32 695.858 1216.05 705.566 1243.01 722.222 C 1383.85 809.228 1458.09 967.308 1422.38 1131.24 C 1422.73 1137.04 1421.88 1150.17 1421.05 1156.03 C 1420.81 1162.98 1420.1 1168.98 1418.07 1175.7 C 1417.22 1179.94 1416.4 1184.32 1415.48 1188.53 L 1412.31 1199.93 C 1411.44 1201.89 1410.36 1204.59 1409.29 1206.35 C 1405.31 1215.32 1402.02 1218.98 1395.39 1226.17 C 1391.12 1230.3 1386.36 1234.52 1383.03 1239.38 C 1378.77 1247.97 1359.16 1268.84 1351.24 1277.47 C 1293.99 1339.88 1219.11 1409.07 1138.58 1439.49 C 1119.13 1446.84 1062.85 1444.73 1042.55 1441.73 C 1035.28 1442.35 1024.21 1440.66 1017.01 1439.29 L 1002.3 1437.21 C 998.221 1436.73 991.614 1435.17 987.394 1434.32 L 984.059 1432.73 C 973.553 1430.5 962.469 1426.76 952.146 1423.55 C 950.789 1423.33 949.44 1423.06 948.103 1422.74 C 937.92 1420.39 915.949 1411.29 905.916 1406.79 C 836.179 1375.53 772.83 1324.26 732.54 1258.89 C 684.946 1182.23 665.955 1091.23 678.917 1001.93 C 682.371 977.463 687.912 958.34 693.579 934.514 C 694.879 929.702 695.746 926.506 697.621 921.801 C 698.987 917.463 700.5 913.777 702.183 909.575 C 705.418 903.423 708.657 897.082 712.116 891.07 z" fill="rgb(255,255,255)" transform="translate(0,0)"></path>
<path d="M 1081.42 686.537 C 1071.64 690.181 1039.03 703.039 1031.24 695.49 C 1029.45 679.784 1073.56 677.47 1085.91 671.6 C 1090.22 671.939 1095.18 672.2 1099.41 672.716 C 1111.47 673.76 1118.66 675.021 1130.19 678.584 C 1139.6 679.499 1152.47 683.176 1161.62 685.922 C 1191.32 695.858 1216.05 705.566 1243.01 722.222 C 1383.85 809.228 1458.09 967.308 1422.38 1131.24 C 1422.73 1137.04 1421.88 1150.17 1421.05 1156.03 C 1420.81 1162.98 1420.1 1168.98 1418.07 1175.7 C 1417.22 1179.94 1416.4 1184.32 1415.48 1188.53 L 1412.31 1199.93 C 1411.44 1201.89 1410.36 1204.59 1409.29 1206.35 C 1405.31 1215.32 1402.02 1218.98 1395.39 1226.17 C 1391.12 1230.3 1386.36 1234.52 1383.03 1239.38 C 1379.62 1230.53 1374.77 1202.3 1371.68 1189.93 C 1363.14 1187.35 1355 1183.58 1346.81 1180.02 C 1351.75 1195.28 1355.1 1217.24 1355.32 1233.57 C 1355.36 1236.64 1354.01 1237.63 1352.15 1239.14 C 1335.47 1238.85 1338.41 1192.94 1335.33 1178.31 L 1335 1176.78 L 1312.8 1166.11 C 1313.37 1177.22 1319.32 1218.23 1309.38 1223.38 C 1295.44 1219.63 1300.2 1172.91 1300.34 1159.93 C 1291.43 1154.54 1285.4 1149.91 1277.37 1143.35 C 1277.36 1156.2 1279.11 1198.51 1265.52 1203.03 C 1245.52 1193.08 1279.54 1141.7 1258.46 1130.03 C 1256.36 1128.86 1246.79 1119.72 1244.2 1117.46 C 1243.42 1129.27 1238.74 1171.23 1226.81 1175.57 C 1209.94 1168.77 1232.09 1125.31 1234.98 1111.92 C 1230.99 1105.78 1217.47 1093.24 1211.24 1085.59 C 1209.21 1096.82 1201.1 1141.83 1188.36 1143.33 C 1179.08 1137.52 1184.11 1122.05 1187.57 1114.08 C 1192.82 1101.99 1197.39 1090.03 1200.82 1077.28 C 1191.85 1068.86 1187.72 1061.45 1181.24 1051.08 C 1176.62 1062.12 1162.66 1102.62 1151.38 1104.12 C 1136.14 1095.2 1165.23 1052.68 1171.13 1040.7 C 1165.06 1028.99 1156.73 1021.51 1149.01 1005.96 C 1146.72 1016.59 1133.82 1064.32 1118.75 1059.21 C 1115.88 1056.02 1115.77 1051.95 1114.97 1047.52 C 1121.4 1032 1132.47 1010.41 1141.38 996.426 C 1134.91 985.26 1129.61 973.924 1122.82 962.422 C 1118.32 970.093 1097.83 1020.48 1087.42 1013.88 C 1085.18 1009.52 1084.81 1006.03 1083.87 1001.23 C 1088.42 990.485 1109.3 958.339 1116.93 949.186 C 1109.96 936.703 1105.48 925.203 1100.21 912.003 C 1090.85 927.157 1079.04 950.842 1065.19 960.467 C 1062.08 953.677 1061.47 950.93 1059.66 943.623 C 1072.89 924.933 1080.9 913.055 1097.06 896.258 L 1087.32 869.563 C 1072.91 878.708 1062.69 892.659 1045.02 903.225 C 1043.06 897.573 1042.6 894.331 1041.63 888.532 C 1050.82 876.46 1071.73 862.997 1085.16 856.064 C 1083.04 845.023 1081.05 833.957 1079.2 822.867 C 1069.28 828.553 1041.54 849.82 1033.31 851.179 L 1031.41 849.378 C 1025.05 829.629 1063.4 815.979 1077.2 810.217 C 1076.79 800.659 1075.46 788.728 1074.76 778.974 C 1060.23 784.878 1046.27 794.223 1031.11 798.17 C 1029.08 798.7 1027.56 796.671 1026.31 795.438 C 1022.82 778.381 1062.8 767.096 1075.26 764.321 C 1075.68 753.796 1075.29 744.495 1074.9 734.01 C 1065.4 737.344 1038.31 748.987 1028.87 745.88 C 1027.54 745.442 1027.48 744.289 1026.85 742.729 C 1027.88 727.823 1063.83 720.912 1076.5 718.485 C 1077.89 707.798 1079.53 697.146 1081.42 686.537 z" fill="rgb(255,255,255)" transform="translate(0,0)"></path>
<path d="M 1081.42 686.537 C 1071.64 690.181 1039.03 703.039 1031.24 695.49 C 1029.45 679.784 1073.56 677.47 1085.91 671.6 C 1090.22 671.939 1095.18 672.2 1099.41 672.716 C 1105.7 689.664 1160.63 714.439 1154.09 732.212 C 1149.24 736.116 1145.96 734.804 1140.93 731.285 C 1124.58 719.847 1110.51 705.193 1094.62 693.002 C 1092.13 702.264 1090.74 710.681 1089.31 720.134 C 1102.62 726.279 1115.47 733.436 1127.66 741.569 C 1136.18 747.258 1154.54 756.505 1151.25 768.399 C 1150.01 769.804 1147.83 772.07 1146 771.688 C 1129.47 768.231 1103.48 744.08 1088.99 735.303 L 1088.99 766.174 C 1100.74 771.129 1158.49 793.101 1151.33 808.732 C 1148.59 811.245 1148.71 811.454 1144.95 812.296 C 1129.97 807.839 1103.39 789.865 1088.89 780.793 C 1089.05 791.977 1090.04 799.235 1091.37 810.305 C 1104.74 814.354 1158.04 831.469 1157.09 847.658 C 1152.51 853.516 1146.33 851.088 1140.27 848.677 C 1124.48 842.387 1109.58 832.626 1094.32 825.266 C 1095.67 835.221 1096.92 845.826 1098.61 855.679 C 1109.61 859.532 1163 874.307 1166.52 882.45 C 1167.54 884.811 1167.32 886.809 1166.67 889.194 C 1156.36 898.4 1116 876.449 1102.94 871.926 C 1106.36 882.078 1109.52 892.314 1112.43 902.626 C 1120.06 903.626 1206.97 918.609 1181.5 934.498 C 1175.08 938.507 1130.25 920.941 1117.3 916.431 C 1122.26 927.449 1128.24 941.637 1133.74 952.066 C 1146.28 951.931 1159.55 951.82 1172.03 952.666 C 1182.1 953.348 1206.53 952.337 1206.31 966.628 C 1199.29 977.917 1151.37 967.433 1139.4 963.887 C 1144.28 973.761 1148.39 981.71 1153.93 991.287 C 1174.23 990.998 1195.42 989.62 1215.7 990.234 C 1222.36 990.435 1227.91 991.525 1229.2 998.824 C 1227.1 1003.69 1223.29 1005.53 1218.07 1005.87 C 1200.05 1007.03 1180.31 1005.17 1162.3 1004.14 C 1168.6 1014.06 1176.33 1025.71 1184.06 1034.49 C 1201.29 1030.35 1237.04 1019.74 1254.5 1026.61 C 1257.3 1027.72 1258.7 1036.24 1253.32 1037.78 C 1233.89 1043.33 1212.01 1044.31 1191.87 1045.5 C 1199.17 1053.56 1206.8 1061.74 1213.7 1070.1 C 1226.41 1065.5 1277.88 1043.1 1285.78 1056.69 C 1285.95 1069.84 1235.76 1078.19 1224.07 1080.01 C 1229.37 1086.59 1239.27 1094.94 1245.88 1100.38 C 1257.03 1095.01 1311.41 1065.35 1318.9 1082.13 C 1315.86 1095.74 1269.23 1106.04 1256.3 1108.83 C 1263.48 1116.02 1273.25 1122.93 1281.46 1129.14 C 1296.85 1117.66 1314.87 1106.5 1332.38 1098.28 C 1338.22 1095.54 1344.5 1093.64 1349.1 1099.14 C 1349.51 1101.22 1350.32 1104.36 1348.72 1106.1 C 1337.91 1117.86 1307.54 1128.48 1293.74 1135 C 1302.2 1140.68 1308.72 1145.01 1316.53 1151.69 C 1325.22 1142.3 1365.3 1103.86 1378.8 1111.74 C 1380.36 1113.73 1381.29 1116.22 1380.87 1118.81 C 1379.75 1125.66 1337.43 1149.74 1329.21 1155.44 C 1339.19 1160.78 1344.19 1163.09 1354.47 1167.5 C 1360.27 1159.15 1406.06 1098.67 1414.7 1124.83 C 1407.33 1139.01 1379.3 1154.72 1367.49 1170.38 L 1388.43 1177.15 C 1399.55 1154.38 1405.27 1149.83 1422.38 1131.24 C 1422.73 1137.04 1421.88 1150.17 1421.05 1156.03 C 1420.81 1162.98 1420.1 1168.98 1418.07 1175.7 C 1417.22 1179.94 1416.4 1184.32 1415.48 1188.53 L 1412.31 1199.93 C 1411.44 1201.89 1410.36 1204.59 1409.29 1206.35 C 1405.31 1215.32 1402.02 1218.98 1395.39 1226.17 C 1391.12 1230.3 1386.36 1234.52 1383.03 1239.38 C 1379.62 1230.53 1374.77 1202.3 1371.68 1189.93 C 1363.14 1187.35 1355 1183.58 1346.81 1180.02 C 1351.75 1195.28 1355.1 1217.24 1355.32 1233.57 C 1355.36 1236.64 1354.01 1237.63 1352.15 1239.14 C 1335.47 1238.85 1338.41 1192.94 1335.33 1178.31 L 1335 1176.78 L 1312.8 1166.11 C 1313.37 1177.22 1319.32 1218.23 1309.38 1223.38 C 1295.44 1219.63 1300.2 1172.91 1300.34 1159.93 C 1291.43 1154.54 1285.4 1149.91 1277.37 1143.35 C 1277.36 1156.2 1279.11 1198.51 1265.52 1203.03 C 1245.52 1193.08 1279.54 1141.7 1258.46 1130.03 C 1256.36 1128.86 1246.79 1119.72 1244.2 1117.46 C 1243.42 1129.27 1238.74 1171.23 1226.81 1175.57 C 1209.94 1168.77 1232.09 1125.31 1234.98 1111.92 C 1230.99 1105.78 1217.47 1093.24 1211.24 1085.59 C 1209.21 1096.82 1201.1 1141.83 1188.36 1143.33 C 1179.08 1137.52 1184.11 1122.05 1187.57 1114.08 C 1192.82 1101.99 1197.39 1090.03 1200.82 1077.28 C 1191.85 1068.86 1187.72 1061.45 1181.24 1051.08 C 1176.62 1062.12 1162.66 1102.62 1151.38 1104.12 C 1136.14 1095.2 1165.23 1052.68 1171.13 1040.7 C 1165.06 1028.99 1156.73 1021.51 1149.01 1005.96 C 1146.72 1016.59 1133.82 1064.32 1118.75 1059.21 C 1115.88 1056.02 1115.77 1051.95 1114.97 1047.52 C 1121.4 1032 1132.47 1010.41 1141.38 996.426 C 1134.91 985.26 1129.61 973.924 1122.82 962.422 C 1118.32 970.093 1097.83 1020.48 1087.42 1013.88 C 1085.18 1009.52 1084.81 1006.03 1083.87 1001.23 C 1088.42 990.485 1109.3 958.339 1116.93 949.186 C 1109.96 936.703 1105.48 925.203 1100.21 912.003 C 1090.85 927.157 1079.04 950.842 1065.19 960.467 C 1062.08 953.677 1061.47 950.93 1059.66 943.623 C 1072.89 924.933 1080.9 913.055 1097.06 896.258 L 1087.32 869.563 C 1072.91 878.708 1062.69 892.659 1045.02 903.225 C 1043.06 897.573 1042.6 894.331 1041.63 888.532 C 1050.82 876.46 1071.73 862.997 1085.16 856.064 C 1083.04 845.023 1081.05 833.957 1079.2 822.867 C 1069.28 828.553 1041.54 849.82 1033.31 851.179 L 1031.41 849.378 C 1025.05 829.629 1063.4 815.979 1077.2 810.217 C 1076.79 800.659 1075.46 788.728 1074.76 778.974 C 1060.23 784.878 1046.27 794.223 1031.11 798.17 C 1029.08 798.7 1027.56 796.671 1026.31 795.438 C 1022.82 778.381 1062.8 767.096 1075.26 764.321 C 1075.68 753.796 1075.29 744.495 1074.9 734.01 C 1065.4 737.344 1038.31 748.987 1028.87 745.88 C 1027.54 745.442 1027.48 744.289 1026.85 742.729 C 1027.88 727.823 1063.83 720.912 1076.5 718.485 C 1077.89 707.798 1079.53 697.146 1081.42 686.537 z" fill="rgb(148,8,24)" transform="translate(0,0)"></path>
<path d="M 1381.76 1190.68 C 1393.68 1194.13 1400.3 1197.09 1409.29 1206.35 C 1405.31 1215.32 1402.02 1218.98 1395.39 1226.17 C 1392.09 1210.13 1390.25 1204.69 1381.76 1190.68 z" fill="rgb(255,255,255)" transform="translate(0,0)"></path>
<path d="M 1421.05 1156.03 C 1420.81 1162.98 1420.1 1168.98 1418.07 1175.7 L 1403.03 1175.86 C 1410.68 1168.92 1414.88 1164.17 1421.05 1156.03 z" fill="rgb(255,255,255)" transform="translate(0,0)"></path>
<path d="M 1400.01 1182.58 C 1405.79 1185.95 1408.88 1187.49 1415.48 1188.53 L 1412.31 1199.93 C 1408.89 1193.33 1404.77 1188.2 1400.01 1182.58 z" fill="rgb(205,26,59)" transform="translate(0,0)"></path>
<path d="M 1130.19 678.584 C 1139.6 679.499 1152.47 683.176 1161.62 685.922 C 1160.17 691.735 1160.81 693.522 1155.09 695.492 C 1147.03 694.689 1137.06 684.238 1130.19 678.584 z" fill="rgb(148,8,24)" transform="translate(0,0)"></path>
<path d="M 693.579 934.514 C 699.645 936.097 705.92 937.542 711.759 939.763 C 705.511 952.301 684.27 974.01 687.696 987.208 C 690.355 990.113 688.794 989.138 692.534 990.276 C 704.571 988.372 719.995 956.954 725.481 945.971 C 733.019 948.821 737.724 950.725 744.865 954.363 C 736.307 966.256 708.37 984.712 710.297 998.364 C 718.587 1006.22 731.384 991.937 737.367 986.071 C 745.452 978.144 754.202 970.002 761.599 961.503 C 766.706 964.632 771.765 967.839 776.773 971.123 C 769.879 975.975 762.528 980.852 755.837 985.921 C 748.711 991.318 729.728 1001.71 737.355 1011.75 C 749.067 1017.06 779.841 986 790.092 978.614 C 797.177 983.525 803.408 987.728 810.76 992.205 C 800.033 996.941 757.955 1011.58 760.875 1024.29 C 762.744 1026.21 765.792 1028.79 768.392 1028.22 C 783.311 1024.96 809.934 1007.66 822.625 1000.22 C 830.512 1007.9 835.267 1011.52 843.953 1018.15 C 837.764 1021.1 835.292 1022 829.128 1024.11 C 819.354 1027.44 796.489 1030.13 789.74 1036.6 C 788.648 1040.04 788.636 1039.78 789.567 1043.27 C 799.482 1055.83 846.279 1035.07 857.422 1028.99 C 863.998 1037 869.888 1041.8 877.483 1048.75 C 865.2 1055.23 855.769 1055.55 842.088 1056.61 C 832.853 1057.33 814.871 1057.13 816.777 1070.58 C 825.747 1082.52 876.368 1065.95 888.684 1060.11 C 896.699 1068.17 902.695 1075.4 909.971 1084.11 C 896.538 1086.01 883.863 1086.75 870.307 1087.07 C 861.42 1087.28 850.343 1086.78 847.247 1097.06 C 851.378 1111.95 908.047 1100 919.907 1097.06 C 926.702 1105.59 932.469 1114.08 938.661 1123.04 C 925.828 1123 884.837 1119.56 877.525 1125.25 C 875.75 1128.28 875.865 1128.05 875.928 1131.57 C 882.382 1145.06 933.389 1137.65 946.669 1136.59 C 952.256 1145.3 957.911 1153.83 962.405 1163.17 C 953.361 1162.76 905.716 1157.38 901.336 1160.27 C 899.292 1163.28 899.028 1163.23 898.79 1166.98 C 904.244 1181.76 956.683 1176.91 969.985 1177 C 973.407 1187.13 976.811 1197.67 980.374 1207.71 C 977.156 1206.91 905.259 1183.81 920.473 1206.05 C 926.284 1214.54 972.41 1221.23 985.694 1222.95 C 989.235 1232.83 992.641 1242.76 995.912 1252.73 C 985.453 1249.22 941.683 1232.78 933.67 1235.53 C 931.689 1238.26 931.955 1238.91 931.641 1242.28 C 935.795 1255.03 985.039 1266.28 998.578 1269.52 C 1000.16 1278.65 1001.06 1285.1 1001.8 1294.32 C 986.749 1289.14 972.072 1283.68 957.236 1277.93 C 951.522 1275.71 942.734 1272 939.33 1278.2 C 938.347 1294.49 989.691 1307.47 1002.59 1310.57 C 1003.34 1322.34 1003.83 1330.67 1003.5 1342.5 L 1002.07 1341.9 C 987.516 1335.72 956.166 1315.18 944.031 1316.46 C 926.897 1328.18 995.741 1355.55 1002.28 1358.07 L 997.489 1386.77 C 988.572 1380.33 947.897 1350.06 938.789 1354.21 C 928.657 1371.06 984.04 1395.9 994.973 1402.11 L 987.394 1434.32 L 984.059 1432.73 C 973.553 1430.5 962.469 1426.76 952.146 1423.55 C 950.789 1423.33 949.44 1423.06 948.103 1422.74 C 937.92 1420.39 915.949 1411.29 905.916 1406.79 C 836.179 1375.53 772.83 1324.26 732.54 1258.89 C 684.946 1182.23 665.955 1091.23 678.917 1001.93 C 682.371 977.463 687.912 958.34 693.579 934.514 z" fill="rgb(255,255,255)" transform="translate(0,0)"></path>
<path d="M 952.146 1423.55 L 951.391 1422.85 C 944.143 1416.27 925.481 1406.69 930.054 1395.58 C 942.191 1387.59 977.575 1423.9 984.059 1432.73 C 973.553 1430.5 962.469 1426.76 952.146 1423.55 z" fill="rgb(148,8,24)" transform="translate(0,0)"></path>
<path d="M 742.167 939.185 C 737.832 923.925 726.999 891.067 733.893 874.979 C 735.182 871.972 738.536 871.117 741.486 870.332 L 743.593 870.938 C 748.12 896.197 749.747 917.855 756.983 943.703 C 763.696 948.045 768.293 950.763 775.375 954.437 C 774.04 940.194 756.788 889.91 778.024 884.662 C 785.288 887.187 781.365 894.865 782.17 900.925 C 784.937 921.757 782.26 948.188 795.828 965.52 C 800.288 970.795 807.927 974.812 813.764 977.916 C 809.602 960.885 803.34 933.528 808.906 916.195 C 810.337 911.74 816.086 908.464 821.049 911.261 C 822.393 914.635 822.793 947.342 823.453 955.537 C 824.327 966.497 825.732 977.409 827.662 988.234 C 834.716 994.407 844.124 1001.32 850.275 1007.58 C 849.89 1000.24 839.021 927.215 861.354 941.412 C 863.727 945.504 861.806 962.12 861.909 967.97 C 862.198 984.372 863.271 1000.66 864.263 1017.02 C 870.563 1023.12 878.316 1030.3 884.116 1036.75 C 884.902 1027.51 886.615 954.809 906.609 976.421 C 907.91 977.828 907.623 979.647 907.53 981.425 C 902.468 1003.35 898.608 1025.42 894.755 1047.57 C 905.765 1056.77 910.711 1063.64 919.371 1075.22 C 920.486 1063.8 927.131 1008.63 941.766 1011.68 C 949.005 1017.65 948.255 1021.3 945.428 1029.85 C 939.232 1048.6 933.774 1067.6 929.01 1086.77 C 936.539 1095.79 944.185 1106.61 950.702 1116.45 C 953.141 1105.08 962.414 1060.02 975.247 1060.26 C 978.596 1064.43 980.658 1068.69 983.207 1073.38 C 968.951 1098.04 969.117 1106.74 959.724 1130.43 C 965.852 1140.23 970.753 1152.21 975.989 1160.4 C 985.253 1140.11 990.737 1119.77 1008.43 1106.75 C 1010.51 1111.36 1012.64 1115.94 1014.82 1120.5 C 1004.48 1137.34 992.898 1157.49 982.387 1173.72 C 987.957 1187.28 991.55 1197.99 996.374 1211.61 C 1006.33 1198.45 1025.61 1170.18 1036.74 1160.73 C 1040.1 1164.46 1043.18 1167.54 1045.79 1171.84 C 1035.63 1187.03 1014.8 1210.14 1002.26 1224.73 L 1009.85 1252.55 C 1025.17 1237.04 1039.09 1221.5 1058.13 1210.62 C 1060.54 1213.86 1063.31 1217.36 1065.35 1220.8 C 1055.1 1232.86 1026.2 1256.01 1012.98 1267.1 C 1014.72 1277.89 1015.84 1288.76 1016.32 1299.68 C 1023.56 1293.97 1078.84 1241.54 1078.05 1270.99 C 1077.99 1273.17 1025.46 1310.16 1018.09 1314.15 C 1018.29 1324.3 1018.17 1334.45 1017.72 1344.6 C 1033.54 1335.21 1047.94 1323.36 1064.44 1315.41 C 1069.86 1312.8 1073.33 1312.02 1078.17 1316.55 C 1080.83 1325.97 1063.27 1334.56 1056.17 1338.36 C 1043.97 1344.89 1029.59 1354.61 1016.6 1359.04 C 1015.08 1370.49 1013.52 1385.26 1011.43 1396.38 C 1018.87 1392.18 1079.38 1351.84 1078.26 1375.19 C 1077.95 1381.62 1020.1 1406.6 1010.22 1409.34 L 1008.39 1409.83 C 1007.09 1419.15 1004.62 1428.09 1002.3 1437.21 C 998.221 1436.73 991.614 1435.17 987.394 1434.32 L 994.973 1402.11 C 984.04 1395.9 928.657 1371.06 938.789 1354.21 C 947.897 1350.06 988.572 1380.33 997.489 1386.77 L 1002.28 1358.07 C 995.741 1355.55 926.897 1328.18 944.031 1316.46 C 956.166 1315.18 987.516 1335.72 1002.07 1341.9 L 1003.5 1342.5 C 1003.83 1330.67 1003.34 1322.34 1002.59 1310.57 C 989.691 1307.47 938.347 1294.49 939.33 1278.2 C 942.734 1272 951.522 1275.71 957.236 1277.93 C 972.072 1283.68 986.749 1289.14 1001.8 1294.32 C 1001.06 1285.1 1000.16 1278.65 998.578 1269.52 C 985.039 1266.28 935.795 1255.03 931.641 1242.28 C 931.955 1238.91 931.689 1238.26 933.67 1235.53 C 941.683 1232.78 985.453 1249.22 995.912 1252.73 C 992.641 1242.76 989.235 1232.83 985.694 1222.95 C 972.41 1221.23 926.284 1214.54 920.473 1206.05 C 905.259 1183.81 977.156 1206.91 980.374 1207.71 C 976.811 1197.67 973.407 1187.13 969.985 1177 C 956.683 1176.91 904.244 1181.76 898.79 1166.98 C 899.028 1163.23 899.292 1163.28 901.336 1160.27 C 905.716 1157.38 953.361 1162.76 962.405 1163.17 C 957.911 1153.83 952.256 1145.3 946.669 1136.59 C 933.389 1137.65 882.382 1145.06 875.928 1131.57 C 875.865 1128.05 875.75 1128.28 877.525 1125.25 C 884.837 1119.56 925.828 1123 938.661 1123.04 C 932.469 1114.08 926.702 1105.59 919.907 1097.06 C 908.047 1100 851.378 1111.95 847.247 1097.06 C 850.343 1086.78 861.42 1087.28 870.307 1087.07 C 883.863 1086.75 896.538 1086.01 909.971 1084.11 C 902.695 1075.4 896.699 1068.17 888.684 1060.11 C 876.368 1065.95 825.747 1082.52 816.777 1070.58 C 814.871 1057.13 832.853 1057.33 842.088 1056.61 C 855.769 1055.55 865.2 1055.23 877.483 1048.75 C 869.888 1041.8 863.998 1037 857.422 1028.99 C 846.279 1035.07 799.482 1055.83 789.567 1043.27 C 788.636 1039.78 788.648 1040.04 789.74 1036.6 C 796.489 1030.13 819.354 1027.44 829.128 1024.11 C 835.292 1022 837.764 1021.1 843.953 1018.15 C 835.267 1011.52 830.512 1007.9 822.625 1000.22 C 809.934 1007.66 783.311 1024.96 768.392 1028.22 C 765.792 1028.79 762.744 1026.21 760.875 1024.29 C 757.955 1011.58 800.033 996.941 810.76 992.205 C 803.408 987.728 797.177 983.525 790.092 978.614 C 779.841 986 749.067 1017.06 737.355 1011.75 C 729.728 1001.71 748.711 991.318 755.837 985.921 C 762.528 980.852 769.879 975.975 776.773 971.123 C 771.765 967.839 766.706 964.632 761.599 961.503 C 754.202 970.002 745.452 978.144 737.367 986.071 C 731.384 991.937 718.587 1006.22 710.297 998.364 C 708.37 984.712 736.307 966.256 744.865 954.363 C 737.724 950.725 733.019 948.821 725.481 945.971 C 719.995 956.954 704.571 988.372 692.534 990.276 C 688.794 989.138 690.355 990.113 687.696 987.208 C 684.27 974.01 705.511 952.301 711.759 939.763 C 705.92 937.542 699.645 936.097 693.579 934.514 C 694.879 929.702 695.746 926.506 697.621 921.801 C 698.987 917.463 700.5 913.777 702.183 909.575 C 705.418 903.423 708.657 897.082 712.116 891.07 C 715.738 906.288 717.39 915.063 724.149 929.253 C 730.804 933.911 734.755 935.677 742.167 939.185 z" fill="rgb(148,8,24)" transform="translate(0,0)"></path>
<path d="M 702.183 909.575 C 704.023 914.504 706.507 920.676 708.037 925.575 L 697.621 921.801 C 698.987 917.463 700.5 913.777 702.183 909.575 z" fill="rgb(255,255,255)" transform="translate(0,0)"></path>
<path d="M 1017.01 1439.29 C 1026.45 1432.23 1056.72 1413.29 1068.15 1416.69 C 1072.63 1423.97 1048.06 1437.86 1042.55 1441.73 C 1035.28 1442.35 1024.21 1440.66 1017.01 1439.29 z" fill="rgb(148,8,24)" transform="translate(0,0)"></path>
<path d="M 1302.61 583.434 C 1446.42 578.022 1623.27 613.072 1755.76 666.499 C 1742.47 696.764 1724.51 728.225 1708.47 757.358 C 1678.56 811.764 1647.23 865.375 1614.51 918.139 C 1600.06 941.298 1583.54 964.885 1568.62 988.428 C 1553.24 1012.24 1534.21 1036.17 1520.08 1059.33 C 1523.15 990.382 1509.92 921.684 1481.46 858.811 C 1433.76 753.972 1350.14 669.655 1245.69 621.098 C 1226.22 611.821 1200.24 602.819 1179.53 595.056 C 1217.79 588.803 1263.86 585.402 1302.61 583.434 z" fill="rgb(255,255,255)" transform="translate(0,0)"></path>
<path d="M 1211.11 297.459 C 1379.05 293.216 1538.62 353.619 1673.71 450.392 C 1648.23 440.31 1623.7 426.501 1597.5 416.255 C 1493.81 375.717 1386.67 348.528 1275.1 345.2 C 1095.26 339.293 918.451 392.567 771.812 496.845 C 744.155 516.282 712.77 539.724 688.232 562.902 C 608.568 634.596 540.704 720.407 483.871 810.957 C 468.355 835.678 454.728 860.268 439.644 884.74 C 446.467 864.784 455.4 844.543 463.954 825.258 C 505.94 728.907 563.91 640.345 635.413 563.314 C 790.032 399.158 984.304 304.492 1211.11 297.459 z" fill="rgb(8,26,64)" transform="translate(0,0)"></path>
<metadata><recraft-signature>{"signed_by": "recraft", "signature_b64": "TgoT4uFU0doPUzlaco52BR823BiIavGiKiESW5E9xu/DFKheQpVy+Zek5unZv63V0+ASTWxJBXGK4jY8mbPZAw==", "signing_algo": "Ed25519", "generation_timestamp": 1777331784, "identifier": "93c44fcd-29fe-4831-b30a-6187fea5e22f"}</recraft-signature></metadata></svg>