<svg version="1.1" xmlns="http://www.w3.org/2000/svg" style="display: block;" viewBox="0 0 2048 2048" width="944" height="944" preserveAspectRatio="none">
<path transform="translate(0,0)" fill="rgb(21,22,51)" d="M 187.178 808.18 C 204.518 783.333 231.102 756.231 250.811 732.304 C 303.014 668.932 356.284 605.983 412.56 546.189 C 433.685 524.575 453.156 500.858 476.942 482.059 C 512.026 454.332 541.559 457.692 567.678 493.358 C 598.599 484.99 637.177 484.16 667.353 496.648 C 699.716 510.043 710.145 547.156 721.883 577.783 C 728.771 579.679 737.149 582.18 743.798 584.308 C 773.389 593.774 818.723 603.395 769.822 634.028 C 751.085 645.765 733.807 650.177 712.432 655.727 C 715.991 660.271 719.4 664.928 722.656 669.693 C 719.915 684.461 715.141 696.311 713.187 712.285 C 720.048 718.692 737.501 726.87 746.51 731.913 C 759.571 739.343 772.533 746.946 785.391 754.721 C 834.5 784.743 847.354 801.931 854.383 859.723 C 855.737 870.863 858.925 891.154 862.91 901.187 C 870.582 920.506 883.017 940.003 892.052 958.822 C 905.281 986.375 916.713 1016.02 926.127 1045.11 C 933.426 1067.67 940.634 1092.65 944.938 1115.99 C 946.704 1125.57 946.173 1138.68 947.928 1148.59 C 949.201 1155.77 953.729 1163.69 954.865 1170.62 C 956.872 1182.86 956.619 1194.56 959.642 1206.71 L 960.037 1208.26 C 977.594 1227.01 1011.01 1247.65 1032.46 1263.61 C 1103.65 1316.56 1176.25 1368.26 1240.15 1430.15 C 1245.49 1435.31 1262.29 1451.21 1264.59 1457.15 C 1270.87 1473.38 1275.37 1494.12 1280.32 1511 L 1316.74 1630.95 C 1313.35 1643.17 1309.32 1655.2 1305.41 1667.26 C 1315.67 1699.07 1327.68 1732.6 1336.94 1764.52 C 1338.61 1770.75 1339.23 1772.95 1341.93 1778.91 C 1342.29 1780.87 1347.9 1797.12 1348.77 1799.75 C 1356.35 1822.89 1364.64 1845.79 1373.64 1868.41 C 1392.23 1880.2 1396.29 1887.75 1418.22 1896.43 C 1435.51 1903.27 1459.21 1933.94 1466.62 1951.87 C 1513.89 1980.52 1563.42 1958.46 1558.26 2035.78 C 1515.68 2036.46 1473.09 2036.46 1430.5 2035.76 C 1411.11 2035.58 1391.64 2035.51 1372.22 2035.36 C 1361.85 2035.28 1355.96 2025.79 1346.75 2025.87 C 1343.43 2025.9 1339.31 2033.1 1337.43 2035.91 C 1308.69 2035.27 1279.94 2034.91 1251.18 2034.85 C 1239.71 2002.72 1241.14 1928.82 1269.68 1907.29 C 1245.97 1859.99 1221.09 1813.29 1195.05 1767.22 C 1184.95 1748.98 1173.91 1726.94 1161.87 1710.23 C 1150.64 1694.66 1109.27 1676.25 1100.68 1660.61 C 1086.84 1635.43 1081.91 1601.58 1069.42 1574.1 C 1053.01 1564.29 1023.91 1552.4 1005.64 1543.98 C 954.122 1520.24 901.335 1499.3 850.541 1473.84 C 834.514 1506.71 822.023 1541.5 807.081 1574.91 C 794.161 1603.79 705.368 1788.94 688.343 1801.59 C 672.152 1813.62 529.833 1854 503.486 1859.1 C 485.363 1862.61 471.223 1853.6 453.804 1852.21 C 424.24 1849.87 383.942 1862.34 355.592 1871.51 C 331.522 1879.29 300.925 1889.72 279.878 1903.82 C 272.606 1908.69 269.238 1920.95 261.909 1923.8 C 257.561 1925.48 252.153 1922.62 248.117 1921.04 C 248.964 1931.67 250.837 1938.56 254.062 1948.71 C 255.115 1952.02 257.841 1962.36 259.539 1964.66 C 268.63 1976.99 287.681 1977.15 296.268 1991.84 C 300.89 1999.75 300.47 2008.12 298.33 2016.76 C 297.066 2021.86 295.055 2028 290.268 2030.46 C 287.732 2031.76 283.636 2032.89 280.888 2032.87 C 268.59 2032.79 256.068 2032.68 243.784 2032.72 C 220.978 2032.78 197.987 2033.5 175.241 2032.84 C 167.685 2032.62 158.534 2031.84 151.432 2029.88 C 121.145 2021.52 122.603 1994.5 112.853 1970.78 C 107.61 1958.8 98.8074 1948.24 92.318 1937.04 C 69.0653 1896.91 114.545 1860.93 143.067 1839.89 C 154.571 1831.4 173.832 1830.53 186.459 1822.91 C 219.214 1803.14 251.591 1782.53 284.599 1763.17 C 318.318 1744.29 351.72 1726.18 385.414 1707.02 C 384.943 1698.01 385.855 1691.61 387.49 1682.84 C 409.713 1659.46 465.901 1658.57 494.27 1644.45 C 501.306 1640.95 507.268 1634.46 512.801 1628.84 C 509.33 1594.34 518.195 1595.94 548.108 1588.09 C 546.309 1504.16 548.72 1420.19 555.332 1336.5 C 557.133 1314.47 559.698 1292.51 563.023 1270.66 C 567.371 1243.83 577.214 1213.03 573.691 1186.57 C 570.391 1183.54 566.514 1181.19 562.764 1178.7 C 559.454 1171.57 555.187 1158.97 552.319 1151.31 C 543.29 1127.18 535.631 1107.76 521.938 1085.78 C 515.394 1104.44 513.848 1118.2 510.502 1137.41 C 508.93 1146.43 501.659 1160.18 497.451 1168.71 C 476.835 1164.7 466.742 1164.18 445.394 1157.81 C 427.963 1177.99 376.386 1226.67 345.845 1210.4 C 300.058 1186.01 259.225 1141.15 233.355 1096.26 C 223.032 1078.34 214.713 1056.34 207.205 1037.06 C 195.048 1031.39 177.481 1025.64 164.489 1021 C 133.646 1027.55 116.378 1029.17 91.2322 1007.75 C 69.3679 1068.02 -8.332 983.286 14.43 947.679 C 25.7991 929.894 76.6685 894.371 95.7385 886.561 C 107.572 862.114 121.674 842.679 142.989 825.783 C 148.426 801.801 167.323 806.955 187.178 808.18 z M 604.243 1544.25 C 661.229 1487.81 720.395 1433.62 781.605 1381.78 L 786.743 1383.57 C 741.855 1433.64 698.187 1484.19 651.141 1532.3 C 608.991 1575.41 589.922 1599.4 529.478 1614.98 C 555.3 1641.08 581.618 1666.69 605.678 1694.45 C 609.036 1698.32 612.238 1702.34 615.697 1706.13 C 590.948 1699.68 545.848 1688.36 520.716 1686.26 C 530.213 1673.8 537.841 1664.26 549.146 1653.11 C 543.455 1648.55 538.891 1644.89 532.824 1640.88 C 516.944 1655.02 515.673 1656.17 498.09 1665.37 C 481.773 1673.91 411.653 1680.93 406.065 1690.54 C 411.723 1698.39 473.807 1722.85 487.242 1728.12 C 524.552 1742.75 566.881 1751.43 606.188 1758.87 L 605.961 1761.54 L 604.318 1762.36 C 556.698 1760.59 495.203 1747.88 451.666 1728.44 C 436.963 1721.87 418.563 1711.57 404.203 1703.83 C 401.895 1719.49 400.922 1736.76 401.08 1752.57 C 401.156 1760.15 401.723 1770.05 407.663 1775.51 C 425.141 1791.55 525.04 1784.42 550.45 1783.77 C 535.305 1788.88 515.527 1791.15 499.406 1793.41 L 438.914 1801.7 C 455.957 1831.16 464.342 1834.37 497.048 1841.79 C 535.215 1829.1 574.867 1819.49 613.359 1807.91 C 630.248 1802.82 659.593 1794.73 675.189 1787 C 685.299 1773.61 705.789 1732.93 714.149 1717.21 C 762.725 1625.88 805.444 1531.23 844.25 1435.37 C 849.34 1422.79 868.471 1379.17 869.766 1367.74 C 871.287 1338.36 864.02 1307.35 858.485 1278.61 C 855.833 1264.85 850.691 1254.22 850.782 1240.17 C 842.815 1240.39 834.251 1240.92 826.434 1239.73 L 819.768 1233.37 C 809.868 1235.68 776.795 1237.37 774.097 1245.6 L 775.577 1248 C 783.188 1250.79 800.01 1248.06 809.597 1247.92 C 812.999 1248.1 819.601 1247.84 821.925 1249.91 C 782.943 1258.13 717.811 1255.38 678.774 1249.16 L 678.209 1245.91 C 691.348 1246.81 704.494 1247.6 717.645 1248.3 L 716.242 1237.62 C 685.435 1235.83 655.582 1234.35 624.931 1230.63 C 605.581 1290.86 604.667 1359.52 601.97 1422.19 C 600.22 1462.87 604.098 1503.64 604.243 1544.25 z M 998.27 1258.27 C 974.426 1293.48 917.748 1353.31 885.764 1381.32 C 888.871 1385.4 891.845 1389.99 894.735 1394.26 C 929.56 1367.84 989.421 1333.41 1027.22 1311.71 C 1003.17 1334.36 978.052 1355.86 951.953 1376.12 C 933.372 1390.68 914.762 1403.61 896.476 1418.77 C 961.574 1405.51 1058.24 1391.51 1124.72 1404.33 L 1120.82 1407.96 C 1054.09 1410.99 989.527 1424.91 924.945 1441.38 C 919.832 1442.68 914.562 1443.84 909.514 1445.32 C 946.552 1454.42 983.577 1460.58 1020.47 1469.73 C 1049.95 1477.04 1079.78 1487.55 1108.6 1497.3 L 1110.13 1502.47 C 1070.96 1496.31 1031.99 1488.99 993.263 1480.51 C 1019.17 1493.96 1047.39 1511.31 1072.73 1526.23 C 1081.58 1531.44 1098.48 1541.72 1106.17 1547.98 C 1116.7 1575.18 1128.16 1617.4 1146.67 1638.64 C 1152.99 1645.89 1172.9 1660.36 1181.22 1666.57 C 1199.76 1645.64 1240.35 1616.56 1263.12 1599.43 C 1252.46 1613.86 1235.7 1629.98 1222.89 1642.61 C 1250.16 1639.16 1263.52 1641.34 1290.27 1648.01 L 1297.2 1632.57 C 1286.59 1594.61 1275.77 1558.47 1263.34 1520.99 C 1257.85 1504.46 1254.9 1482.84 1246.98 1467.55 C 1243.17 1460.21 1227.02 1445.2 1220.51 1439.01 C 1170.43 1391.46 1115.6 1348.73 1060.01 1307.85 C 1030.3 1286.01 1001.71 1264.94 970.814 1244.74 C 948.413 1284.26 939.82 1298.62 909.29 1332.79 C 919.28 1309.72 951.946 1263.25 966.649 1241.29 C 959.171 1234.36 946.407 1219.75 937.382 1217.2 C 934.231 1217.93 935.364 1217.09 933.647 1219.46 L 935 1222.92 L 934.475 1223.88 C 929.785 1224.29 919.93 1222.08 914.88 1221.13 L 911.404 1210.76 C 899.472 1214.59 892.93 1217.72 882.115 1224 C 888.286 1243.12 896.504 1260.67 901.734 1280.25 C 906.398 1297.71 907.158 1312.76 909.851 1330.4 C 908.681 1333.17 908.058 1333.6 908.271 1336.36 C 912.975 1335.23 988.422 1266.9 998.27 1258.27 z M 229.657 838.817 C 242.075 856.01 257.395 875.311 252.645 897.517 C 248.547 916.68 241.403 938.842 235.337 957.636 L 253.082 959.884 C 281.5 961.441 303.346 962.473 331.834 961.856 C 367.585 876.95 374.821 839.843 457.607 782.727 C 470.212 774.031 497.822 755.395 509.392 746.573 C 507.507 737.599 505.445 726.927 502.721 718.294 C 497.477 701.675 487.293 687.797 481.68 671.132 C 479.074 663.394 473.887 637.304 469.555 631.849 C 448.273 649.592 426.801 669.444 405.617 687.717 L 294.416 782.587 C 276.822 797.711 247.037 825.575 229.657 838.817 z M 905.022 1151.5 C 899.986 1140.48 894.721 1128.05 887.312 1118.47 C 865.498 1090.29 834.205 1070.77 803.324 1053.85 C 790.574 1046.87 776.76 1039.61 762.15 1037.95 L 763.118 1038.95 C 772.814 1048.78 784.271 1055.47 793.402 1064.13 C 819.632 1089 853.427 1130.78 858.869 1166.82 C 872.229 1163.6 880.468 1159.98 893.21 1154.48 L 905.022 1151.5 z M 222.481 1918.88 C 215.28 1913.66 202.27 1903.93 194.71 1900.05 C 189.375 1896.27 182.695 1895.93 179.027 1892.86 C 179.659 1887.76 182.979 1890.05 182.903 1885.81 C 179.361 1881.92 175.701 1878.13 171.927 1874.46 C 178.684 1875.12 185.971 1875.96 192.697 1876.36 C 189.051 1873.2 184.683 1869.2 180.914 1866.34 C 174.13 1871.15 171.584 1874.27 166.051 1880.5 C 169.046 1884.32 172.312 1888.24 174.886 1892.32 L 161.734 1889.72 L 151.462 1893.77 C 146.389 1888.68 144.503 1885.17 140.979 1878.97 L 151.997 1875.81 C 154.112 1872.03 156.22 1867.94 159.237 1864.81 C 162.583 1861.34 170.556 1856.57 172.896 1852.94 C 164.549 1844.54 141.813 1865.61 135.452 1871.37 C 126.482 1903.02 148.958 1938.05 160.697 1967.04 C 172.718 1996.74 203.902 1984.75 227.621 1984.17 C 240.08 1983.94 251.051 1983.53 263.753 1985.64 C 258.899 1982.29 238.915 1968.79 237.126 1965 L 237.694 1962.08 C 222.045 1953.18 201.661 1952.07 184.189 1953.97 C 183.263 1948.58 180.819 1940.09 182.117 1935.71 C 186.121 1931.84 188.125 1932.55 194.181 1932.39 C 190.352 1929.06 186.921 1926.78 184.887 1922.24 C 185.003 1916.22 189.686 1915.67 194.747 1914.74 C 192.15 1911.13 189.875 1908.72 188.998 1904.42 C 190.068 1901.03 190.995 1900.87 194.741 1900.76 C 204.741 1909.83 210.056 1913.99 222.481 1918.88 z M 190.317 1845.34 L 199.421 1848.67 C 203.992 1851.22 207.202 1853.05 211.552 1856.1 C 241.285 1834.98 267.136 1815.03 299.047 1796.99 C 315.257 1787.98 331.613 1779.25 348.109 1770.78 C 360.324 1764.45 377.289 1756.38 387.655 1748.26 C 387.954 1742.98 389.36 1732.95 386.638 1728.97 C 318.242 1766.85 255.067 1800.99 190.317 1845.34 z M 322.588 723.517 C 338.843 707.846 342.992 705.727 363.138 694.849 L 339.164 717.653 C 311.075 743.719 278.945 774.435 250.076 799.219 C 243.812 804.531 237.602 809.906 231.447 815.343 C 228.68 817.713 227.602 817.765 226.834 820.636 C 229.493 820.273 231.057 818.155 233.108 816.178 C 238.538 811.183 246.275 805.174 252.162 800.134 C 280.029 774.648 313.905 747.557 340.282 721.081 C 345.683 717.393 371.263 694.944 376.995 689.829 C 405.733 664.187 446.692 632.979 470.81 603.806 C 442.792 623.448 413.082 653.397 385.732 671.885 L 385.351 671.222 L 387.832 668.007 C 392.963 664.025 406.523 648.69 410.771 643.359 L 409.72 644.357 L 409.09 644.122 C 400.971 650.838 394.248 658.119 386.967 665.69 L 384.79 667.825 L 383.767 663.196 C 409.597 634.422 437.066 607.207 464.799 580.324 C 471.42 573.907 473.211 563.574 476.727 555.391 C 489.716 520.591 515.1 511.079 548.053 499.979 C 534.672 481.227 508.465 475.813 491.875 491.875 C 407.414 573.653 331.469 665.101 255.529 754.76 C 247.356 764.41 204.892 807.932 203.546 814.66 C 214.271 816.215 237.884 787.269 245.99 779.347 C 272.149 753.784 296.312 725.656 325.051 702.874 C 328.605 700.045 336.86 692.91 340.511 691.625 C 340.048 693.693 340.449 692.977 339.776 693.974 C 331.791 699.972 301.565 726.484 298.03 734.979 C 298.286 734.902 333.391 703.663 338.694 699.509 C 333.598 708.007 327.026 715.474 322.588 723.517 z M 772.347 611.573 C 758.715 606.816 731.334 596.504 717.955 597.121 C 663.483 615.34 636.923 634.571 577.292 641.929 C 599.485 653.573 611.115 651.441 634.579 653.906 C 693.836 650.136 720.747 642.199 772.347 611.573 z M 192.514 945.314 C 202.845 949.039 212.553 952.53 223.072 955.754 C 221.317 949.391 220.094 944.957 219.033 938.424 C 228.321 924.416 243.09 900.163 238.233 882.978 C 228.004 846.788 199.543 825.488 163.691 821.033 L 155.424 829.422 C 168.912 834.245 184.397 839.82 195.864 848.559 C 202.896 853.918 206.853 858.888 214.628 863.5 C 210.58 864.088 206.596 864.062 203.773 866.808 C 199.995 877.065 215.599 887.807 222.314 895.433 C 214.469 890.773 208.44 887.191 201.701 880.937 C 204.39 901.081 206.94 908.568 187.985 919.073 C 189.39 926.985 191.594 937.539 192.514 945.314 z M 911.46 1149.97 C 917.563 1146.87 922.402 1145.33 925.017 1139 C 925.561 1121.58 894.356 1082.6 882.337 1070.09 C 855.886 1042.58 828.137 1015.25 793.333 998.795 C 789.183 1004.22 783.868 1010.8 780.128 1016.34 C 828.608 1041.91 887.108 1077.12 904.748 1132.27 C 906.452 1137.69 907.72 1143.24 908.54 1148.87 C 910.546 1150.16 909.536 1149.9 911.46 1149.97 z M 580.714 1166.37 C 613.142 1176.98 639.231 1174.63 672.722 1172.61 C 684.189 1171.93 697.505 1171.74 708.773 1170.15 L 710.833 1169.3 C 709.618 1167.01 708.059 1166.69 705.512 1165.92 C 663.077 1153.09 616.54 1150.81 578.367 1126.33 C 573.022 1122.9 562.288 1115.6 556.884 1113.51 C 564.295 1131.36 571.678 1149.26 580.714 1166.37 z M 855.155 1239.23 C 865.587 1270.36 872.7 1302.51 876.377 1335.14 C 876.931 1339.74 878.681 1369.11 880.018 1370.99 C 882.197 1370.31 882.074 1370.42 883.648 1368.78 C 901.185 1351.34 899.379 1352 901.151 1326.84 C 902.204 1311.9 890.823 1232.57 871.673 1235.16 L 855.155 1239.23 z M 548.859 703.132 L 547.365 702.884 C 541.452 701.931 528.022 702.318 525.774 700.829 L 525.426 699.36 L 526.81 697.723 C 523.364 689.559 514.914 684.558 514.984 676.034 C 518.13 669.512 523.676 673.622 522.86 666.996 C 518.103 662.791 511.974 667.014 509.368 671.962 C 508.791 674.68 508.7 676.443 507.394 678.812 C 506.291 674.953 505.394 672.574 503.908 668.83 C 503.239 691.139 518.52 709.912 540.32 716.539 C 547.707 718.785 548.498 707.608 552.292 704.552 C 557.887 710.928 556.334 723.916 559.249 732.262 C 572.844 771.006 628.872 774.042 662.753 779.813 C 683.261 783.307 689.506 772.775 697.045 756.654 C 693.442 753.895 689.332 750.232 685.803 747.256 L 698.485 744.203 L 702.72 722.879 C 682.597 735.91 678.962 738.043 654.949 739.386 C 665.967 732.504 693.599 726.873 697.312 717.11 C 695.903 711.627 686.901 713.739 679.483 710.072 C 667.631 704.435 664.012 694.041 650.497 690.2 C 611.083 678.996 581.996 695.426 551.499 661.715 C 550.796 661.652 547.725 661.277 546.981 661.258 C 535.399 660.948 522.259 649.243 510.663 654.213 C 505.895 656.257 505.144 659.485 503.517 663.842 C 507.221 661.853 512.164 659.003 515.94 657.459 C 523.433 659.377 529.076 660.791 536.291 663.49 C 547.582 682.63 537.985 685.019 548.859 703.132 z M 801.602 990.805 C 840.464 1007.74 887.968 1046.3 914.212 1079.54 L 917.92 1083.63 L 918.676 1083.41 C 914.246 1067.46 898.728 1025.99 891.02 1010.94 C 869.983 996.387 838.807 980.519 813.626 976.605 C 809.484 981.82 806.187 985.952 801.602 990.805 z M 246.414 1882.31 C 251.377 1885.51 257.207 1889.07 261.975 1892.42 C 316.699 1862.07 374.411 1839.8 437.225 1833.61 C 435.087 1830.2 433.224 1826.43 429.956 1824.23 C 429.464 1824.22 427.088 1824.16 426.689 1824.24 C 387.952 1832.31 349.363 1841.09 310.942 1850.55 C 284.833 1856.72 252.399 1864.54 225.832 1868.62 C 232.553 1873.39 239.416 1877.95 246.414 1882.31 z M 816.825 956.563 C 844.987 968.541 859.023 975.962 884.959 992.613 C 874.23 963.485 854.535 932.486 845.147 903.652 C 839.727 887.006 842.438 862.63 836.273 841.918 C 822.318 795.038 792.952 778.26 753.207 755.522 C 724.486 764.276 717.635 774.803 696.95 796.471 L 687.868 805.131 C 671.828 818.468 655.628 831.613 639.274 844.563 C 631.726 850.563 620.221 859.134 613.324 865.402 C 607.82 868.846 602.937 872.211 597.616 875.931 C 590.196 881.003 584.552 884.753 576.232 888.337 C 536.878 851.584 526.307 828.483 513.715 776.97 C 514.572 820.747 535.371 858.854 566.462 888.972 C 568.825 891.249 571.222 893.489 573.654 895.693 C 582.56 891.013 591.019 885.527 598.925 879.304 C 604.168 874.963 609.54 870.779 615.033 866.759 C 636.358 847.625 666.065 825.72 689.047 806.054 L 700.255 797.83 C 731.747 777.466 749.344 773.464 786.19 780.393 C 772.79 781.277 750.125 784.45 737.855 790.358 C 699.971 808.6 666.35 839.016 634.062 865.527 C 615.858 880.474 595.794 895.329 578.603 910.68 C 651.604 919.363 744.858 903.431 812.167 874.475 C 749.661 920.946 681.65 929.756 606.085 922.628 C 661.674 951.399 691.991 989.402 725.504 1039.92 C 746.59 1009.5 772.095 980.677 794.633 951.05 C 812.197 927.964 823.352 909.669 837.677 884.75 C 834.885 893.668 833.276 905.423 830.837 914.859 C 826.979 929.783 822.335 942.276 816.825 956.563 z M 275.792 2012.28 C 279.366 2008.39 279.382 2003.72 280.258 1998.25 C 262.672 1996.88 243.73 1995.92 226.473 1995.72 C 205.612 1995.47 169.482 2008.56 153.701 1989.3 C 136.863 1968.75 127.571 1910.85 115.368 1890.67 C 94.9995 1920.2 110.66 1924.15 125.355 1950 C 131.942 1961.58 134.152 1978.14 141.288 1990.56 C 144.11 1995.41 148.065 1999.51 152.815 2002.5 C 175.961 2017.28 242.097 2007.83 275.792 2012.28 z M 590.376 836.392 C 564.464 802.721 556.432 771.039 545.314 730.887 C 536.5 728.523 530.226 726.449 521.64 723.312 C 525.458 759.494 530.426 795.927 546.885 829.782 C 555.439 847.379 582.373 867.158 599.546 846.369 C 604.421 840.468 610.957 822.224 614.3 814.223 L 614.636 812.216 C 611.961 810.798 586.441 805.959 579.93 803.99 C 583.366 815.77 586.016 824.949 590.376 836.392 z M 725.523 1246.89 L 768.572 1248.55 C 767.033 1228.47 760.009 1197.6 757.175 1175.98 C 743.039 1175.8 728.901 1175.87 714.766 1176.17 C 720.453 1199.37 724.052 1223.04 725.523 1246.89 z M 1325.72 2015.92 C 1329.3 2010.77 1332.65 2005.58 1336.97 2001.05 C 1345.49 2003.55 1362.48 2009.69 1370.11 2010.54 C 1422.22 2016.37 1481.03 2018.51 1532.77 2013.55 C 1535.94 2012.57 1537 2012.57 1538.97 2009.89 L 1538.53 2008.48 C 1530.47 2005.52 1441.37 2008.01 1423.41 2008.05 C 1385.74 2008.11 1368.59 1999.3 1333.86 1993.62 L 1329.53 2003.15 C 1310.99 1997.99 1285.26 1991.12 1266.07 1988.62 L 1265.97 2011.36 C 1285.12 2011.47 1306.86 2012.56 1325.72 2015.92 z M 64.9361 922.039 C 62.9029 926.083 60.5258 931.163 58.276 934.989 C 99.5925 953.071 84.1039 990.151 143.545 1006.86 C 122.111 976.263 154.576 967.42 178.847 961.668 C 174.578 959.301 153.036 950.116 154.296 951.02 C 132.687 961.497 127.662 959.486 106.37 950.243 C 121.344 951.932 135.939 953.81 150.166 947.42 C 137.681 946.13 117.634 944.036 108.047 935.468 L 108.219 934.237 C 116.071 932.45 145.691 938.545 154.769 940.46 C 138.092 931.143 122.747 924.984 106.583 914.49 C 126.733 917.485 140.686 919.545 160.313 925.045 C 139.086 911.983 131.202 906.442 106.507 901.7 C 89.569 907.404 80.4219 913.243 64.9361 922.039 z M 564.201 905.581 C 539.934 877.952 512.731 842.86 506.727 805.239 C 505.506 797.587 506.624 775.567 504.454 769.946 C 410.546 834.751 391.103 850.265 351.329 959.112 C 378.457 958.79 391.151 958.804 417.646 967.669 C 402.602 933.689 403.796 925.702 407.047 887.911 C 412.702 925.567 417.964 937.729 436.952 971.346 C 442.589 968.26 450.034 964.451 455.363 961.143 C 452.106 953.018 446.787 942.579 444.546 934.461 C 434.858 899.363 450.251 864.404 468.13 835.276 C 453.315 882.409 451.296 909.96 473.695 954.434 C 509.12 934.592 529.872 930.697 564.201 905.581 z M 830.104 1230.64 C 844.04 1227.87 858.251 1225.18 872.122 1222.22 C 871.069 1216.05 870.77 1214.31 870.959 1207.89 L 870.59 1207.27 C 864.239 1203.91 831.661 1242.36 841.101 1184.87 C 841.415 1192.37 840.251 1201.42 847.248 1205.8 C 854.876 1206.98 863.939 1200.2 870.686 1196.02 C 870.963 1188.84 871.033 1181.66 870.895 1174.48 C 854.508 1177.58 837.534 1177.56 820.84 1178.62 C 827.875 1197.67 829.872 1210.03 830.104 1230.64 z M 65.7424 1010.61 C 77.9203 1001.39 64.4614 978.865 56.9629 970.065 C 49.6077 961.433 42.4914 957.157 31.2659 955.258 C 14.6199 980.567 45.4446 1001.52 65.7424 1010.61 z M 122.871 873.963 C 137.073 878.655 150.655 885.053 163.318 893.015 C 172.631 898.893 181.269 910.58 187.834 910.727 C 193.489 902.461 181.554 893.866 174.943 890.983 C 171.178 889.308 169.125 889.272 167.513 886.425 C 181.981 878.688 201.38 905.939 190.974 869.214 C 183.755 874.41 178.477 874.42 170.015 876.995 C 162.921 874.392 157.081 870.056 151.4 867.913 C 146.52 866.072 134.009 864.157 128.298 862.992 L 122.871 873.963 z M 495.87 1142.26 C 495.195 1139.47 495.254 1136.87 492.333 1135.6 C 480.403 1130.39 466.956 1124.26 454.767 1119.89 C 433.505 1112.26 394.006 1089.39 372.464 1088.89 C 392.739 1101.54 474.793 1142.15 495.87 1142.26 z M 904.426 1159.85 C 917.947 1180.58 923.77 1189.27 923.056 1214.68 C 939.938 1223.13 938.696 1163.32 922.024 1155.12 C 916.09 1156.95 910.561 1158.82 904.426 1159.85 z M 197.162 1921.29 C 202.833 1928.24 212.408 1929.09 220.121 1934.27 C 223.574 1936.58 231.844 1943.4 234.714 1944.27 C 224.225 1931.44 214.252 1923.45 197.162 1921.29 z M 191.764 1868.72 C 200.13 1877.09 226.695 1899.34 237.162 1902.18 C 229.098 1895.86 198.951 1871.36 191.764 1868.72 z M 114.84 882.735 C 115.161 885.556 114.705 887.097 117.596 888.674 C 126.422 893.488 138.107 896.746 147.541 900.194 C 142.995 889.434 125.811 883.656 114.84 882.735 z M 1366.51 1892.92 C 1361.88 1892.62 1356.58 1892.09 1352.01 1892.35 C 1345.07 1894.1 1333.05 1899.36 1332.61 1907.71 C 1337.69 1915.85 1365.51 1912.73 1375.6 1913.06 C 1353.68 1934.08 1327.08 1948.91 1305.16 1970.41 C 1292.36 1957.01 1284.93 1951.98 1269.5 1941.47 C 1266.76 1953.84 1266.15 1962.36 1265.99 1975.04 C 1285.95 1978.07 1305.73 1981.62 1325.64 1984.71 C 1335.58 1986.25 1348.42 1985.45 1358.69 1986.61 C 1370.65 1987.96 1382 1990.38 1393.76 1992.8 C 1404.67 1994.72 1416.51 1997.08 1427.53 1996.79 C 1447.18 1996.27 1467.88 1991.21 1487.47 1991.14 C 1500.06 1991.09 1516.06 1994.59 1528.85 1996.28 C 1508.35 1986.19 1486.16 1980.32 1465.32 1971.05 C 1461.65 1969.42 1448.91 1966.57 1447.62 1964.55 C 1442.78 1956.91 1441.66 1959.57 1431.56 1964.31 C 1427.69 1948.4 1425.72 1955.71 1412.6 1950.74 C 1412.37 1950.65 1406.44 1943.3 1404.82 1942.71 C 1398.7 1941.98 1387.23 1943.4 1383.79 1935.78 C 1386.1 1934.85 1387.21 1934.84 1389.67 1934.5 L 1390.01 1933 C 1387.13 1929.54 1387.43 1930.26 1382.66 1929.95 C 1377.61 1921.54 1368.98 1902.48 1366.51 1892.92 z M 1411.76 1917.12 C 1418.32 1922.6 1432.43 1932.29 1440.98 1933.12 C 1432.76 1927.62 1421.16 1919.14 1411.76 1917.12 z M 743.664 748.966 C 733.909 741.961 726.214 736.467 715.686 730.474 C 712.245 745.328 711.796 746.566 713.141 761.093 C 718.42 757.2 723.49 753.299 729.799 751.167 C 734.448 750.377 738.984 749.588 743.664 748.966 z M 885.15 1173.93 C 888.559 1172.71 892.041 1171.9 894.383 1169.26 L 893.814 1167.5 L 889.823 1165.81 C 886.071 1167.83 883.286 1168.93 880.522 1172.18 L 880.955 1173.54 C 882.494 1173.73 883.6 1173.93 885.15 1173.93 z M 567.375 916.412 L 565.077 920.032 C 566.007 923.083 568.71 925.295 571.494 926.278 C 615.728 941.903 648.038 975.363 678.196 1009.91 C 689.702 1023.09 700.482 1040.62 711.09 1054.75 C 711.742 1054.63 712.395 1054.52 713.047 1054.4 C 715.766 1050.88 717.146 1050.43 717.299 1046.88 C 713.98 1039.91 707.143 1030.01 702.453 1023.39 C 672.834 981.567 630.443 938.505 582.079 920.184 C 578.075 918.667 571.454 916.599 567.375 916.412 z M 1309.35 1938.23 C 1295.97 1933.81 1282.94 1927.8 1269.92 1922.32 C 1273.46 1925.1 1277.23 1927.96 1280.69 1930.81 C 1289.37 1937.96 1298.23 1944.89 1307.26 1951.59 C 1313.87 1947.61 1355.49 1923.33 1357.47 1919.7 L 1356.77 1919.23 C 1337.88 1924.3 1326.51 1932.08 1309.35 1938.23 z M 693.693 1178.5 C 680.914 1179.56 663.232 1180.64 651.136 1183.78 C 655.898 1184.01 663.435 1184.18 667.924 1184.78 C 677.632 1185.16 698.631 1187.54 706.639 1184.46 L 708.34 1182.58 C 708.001 1179.47 708.583 1180.81 706.45 1178.43 C 701.447 1177.55 698.707 1178.06 693.693 1178.5 z M 178.752 863.269 L 182.384 863.585 L 183.636 862.509 C 182.257 851.16 158.122 843.309 147.855 842.499 C 145.195 845.643 142.224 849.34 139.428 852.291 C 152.294 856.767 165.428 860.434 178.752 863.269 z M 694.686 698.479 C 696.675 701.714 695.806 701.947 694.827 706.851 C 698.46 705.482 705.968 693.772 708.19 690.115 C 708.63 685.156 702.228 679.289 698.497 676.666 C 692.071 682.882 673.83 694.95 680.503 703.506 C 686.621 704.558 687.864 700.718 694.686 698.479 z M 78.9378 986.75 L 79.9207 987.329 C 80.5894 982.925 78.0436 977.797 77.4626 973.495 C 75.2485 957.101 60.1668 943.378 43.5055 939.632 C 40.7631 942.502 39.8256 942.444 39.3637 945.622 C 62.1696 957.052 69.8086 961.181 78.9378 986.75 z M 767.799 1191.16 C 782.729 1189.12 797.975 1188.94 812.764 1187.13 C 815.271 1183.58 814.68 1185.46 815.005 1181.43 C 809.991 1175.61 774.279 1176.21 764.802 1175.91 C 765.824 1180.88 767.023 1186.18 767.799 1191.16 z M 570.307 1040.55 C 586.864 1036.18 603.476 1032.02 620.139 1028.08 L 609.529 1019.79 C 546.873 1039.89 477.945 1050 412.428 1040.17 C 381.363 1035.51 341.386 1024.4 311.372 1014.77 C 297.092 1010.19 253.769 997.769 243.158 992.33 C 289.631 999.958 322.734 1011.11 366.892 1020.75 C 425.996 1033.22 486.832 1035.2 546.62 1026.59 C 567.763 1023.72 585.969 1019.73 606.503 1016.32 C 596.375 1005.12 534.66 944.598 522.596 946.862 C 494.89 960.066 467.259 973.429 439.705 986.95 C 445.004 994.157 445.996 995.976 449.544 1004.53 C 432.66 999.174 422.374 981.151 398.899 976.985 C 359.385 969.974 325.398 981.547 285.819 979.872 C 257.401 978.67 229.751 971.689 201.957 967.794 C 194.132 966.698 173.888 974.085 166.072 976.67 C 154.739 979.843 142.287 996.475 157.447 1002.03 L 159.112 1001.38 C 158.717 996.826 157.874 992.801 159.368 988.609 L 161.352 987.49 C 162.851 989.564 160.374 998.897 159.751 1001.96 C 243.639 1036.2 331.979 1074.46 423.777 1075.91 C 437.977 1076.14 457.448 1076.21 470.411 1070.28 C 502.165 1055.74 536.838 1050.82 570.307 1040.55 z M 858.717 1454.15 C 877.323 1464.53 904.135 1475.09 924.286 1484.11 C 962.333 1501.2 1000.27 1518.54 1038.09 1536.12 C 1070.3 1551.07 1090.64 1552.65 1098.28 1588.94 C 1107.38 1632.12 1115.97 1657.85 1156.41 1678.42 C 1159.58 1680.27 1162.09 1681.68 1165.81 1682.06 C 1168.12 1680.66 1167.48 1681.21 1169.36 1679.24 C 1171.21 1676.23 1172.48 1675.53 1172 1672.96 C 1160.82 1660.32 1145.69 1651.72 1134.68 1639.09 C 1127.67 1631.06 1103.31 1566.53 1097.8 1552.07 C 1082.02 1542.44 1064.17 1532.92 1048.21 1523.36 C 1000.04 1494.52 916.295 1446.79 858.717 1454.15 z M 1205.06 1662.9 C 1196.06 1671.34 1187.61 1678.7 1178.21 1686.69 C 1196.22 1727.24 1215.23 1755.96 1235.33 1794.14 L 1273.99 1869.03 C 1281.45 1883.6 1288.82 1899.08 1297.16 1913.05 C 1302.97 1917.73 1306.38 1916.8 1313.86 1916.46 C 1314.93 1910.39 1315.95 1903.78 1317.2 1897.79 C 1304.31 1870.22 1292.62 1842.56 1279.97 1815.02 C 1262.36 1777.16 1244.25 1739.53 1225.65 1702.14 C 1222.28 1695.31 1209.21 1666.89 1205.06 1662.9 z M 489.513 640.325 C 516.918 637.412 546.536 635.796 574.235 633.79 C 637.505 627.276 651.831 613.032 708.075 590.815 C 687.601 532.868 682.255 504.257 612.232 503.436 C 604.274 503.92 580.381 504.038 575.607 509.434 C 574.543 510.612 573.511 511.819 572.513 513.054 L 570.553 512.701 C 570.262 512.652 566.239 512.033 566.35 512.013 C 493.53 525.437 475.567 572.53 489.513 640.325 z M 596.106 1187.76 C 594.478 1200.17 595.113 1213.38 593.315 1224.84 C 591.624 1235.62 587.841 1249.54 585.472 1260.49 C 582.293 1275.88 579.767 1291.4 577.903 1307 C 571.216 1365.78 570.396 1432.17 567.76 1491.5 C 566.811 1512.87 565.514 1563.23 570.117 1582.79 C 576.234 1577.54 578.453 1575.09 583.717 1568.92 L 595.885 1553.95 C 592.108 1459.17 588.113 1360.36 605.42 1266.66 C 608.555 1249.69 613.253 1236.91 617.733 1220.92 C 621.058 1209.06 615.693 1204.61 622.19 1188.41 C 613.499 1188.06 604.803 1187.85 596.106 1187.76 z M 229.188 1045.19 C 247.939 1098.32 302.62 1169.66 353.483 1193.97 C 355.437 1194.9 357.415 1195.78 359.415 1196.6 C 389.744 1186.52 401.811 1176.43 424.311 1154.46 C 411.525 1146.39 396.254 1137.24 384.667 1127.77 C 363.153 1109.29 363.46 1102.58 348.422 1085.63 C 317.299 1077.43 294.011 1070.54 263.786 1059.04 C 272.697 1093.55 282.292 1109.7 295.039 1140.77 C 273.654 1109.89 264.634 1089.76 252.284 1054.69 C 244.375 1050.68 237.465 1048.24 229.188 1045.19 z M 751.316 1046.6 C 735.938 1059.66 721.29 1072.35 708.449 1088.02 C 682.487 1078.4 662.685 1064.26 639.732 1054.85 C 620.179 1057.54 603.603 1060.12 583.793 1060.42 C 619.427 1074.53 655.286 1088.05 691.355 1101 C 719.321 1110.92 748.585 1118.97 774.86 1132.41 C 794.882 1142.65 809.854 1156.92 827.571 1169.66 C 821.815 1167.61 814.412 1165.09 809.099 1162.22 C 765.825 1138.84 718.299 1125.76 672.607 1108.03 C 652.117 1100.72 631.877 1092.72 611.921 1084.05 C 597.142 1077.49 582.38 1069.13 567.173 1064.08 L 549.879 1068.86 C 583.923 1096.06 619.807 1112.33 658.923 1130.87 C 684.162 1142.83 702.803 1150.96 725.504 1167.6 C 746.526 1166.95 761.832 1169.96 782.442 1172.7 C 796.158 1174.52 813.012 1169.95 826.765 1168.63 C 833.825 1167.82 842.111 1168.12 849.015 1166.87 C 834.242 1126.8 810.914 1093.55 778.713 1065.38 C 772.923 1060.31 758.832 1048.21 751.316 1046.6 z"/>
<path transform="translate(0,0)" fill="rgb(15,16,42)" d="M 34.1518 967.879 C 38.4741 968.11 41.4304 968.1 45.3257 970.381 C 54.8293 975.946 70.6429 994.459 63.503 1006.11 C 49.9415 1001.41 49.0845 997.6 42.7771 986.246 C 40.8385 982.757 33.9061 981.221 31.858 975.104 C 31.825 971.094 32.0872 971.167 34.1518 967.879 z"/>
<path transform="translate(0,0)" fill="rgb(15,16,42)" d="M 515.94 657.459 C 523.433 659.377 529.076 660.791 536.291 663.49 C 547.582 682.63 537.985 685.019 548.859 703.132 L 547.365 702.884 C 541.452 701.931 528.022 702.318 525.774 700.829 L 525.426 699.36 L 526.81 697.723 C 523.364 689.559 514.914 684.558 514.984 676.034 C 518.13 669.512 523.676 673.622 522.86 666.996 C 518.103 662.791 511.974 667.014 509.368 671.962 C 508.791 674.68 508.7 676.443 507.394 678.812 C 506.291 674.953 505.394 672.574 503.908 668.83 L 503.517 663.842 C 507.221 661.853 512.164 659.003 515.94 657.459 z"/>
<path transform="translate(0,0)" fill="rgb(15,16,42)" d="M 870.959 1207.89 L 870.59 1207.27 C 864.239 1203.91 831.661 1242.36 841.101 1184.87 C 841.415 1192.37 840.251 1201.42 847.248 1205.8 C 854.876 1206.98 863.939 1200.2 870.686 1196.02 C 872.268 1200.4 871.919 1203.19 870.959 1207.89 z"/>
<path transform="translate(0,0)" fill="rgb(15,16,42)" fill-opacity="0.0705882" d="M 339.164 717.653 L 340.282 721.081 C 313.905 747.557 280.029 774.648 252.162 800.134 L 250.076 799.219 C 278.945 774.435 311.075 743.719 339.164 717.653 z"/>
<path transform="translate(0,0)" fill="rgb(15,16,42)" d="M 150.166 947.42 C 151.509 948.65 152.83 949.963 154.296 951.02 C 132.687 961.497 127.662 959.486 106.37 950.243 C 121.344 951.932 135.939 953.81 150.166 947.42 z"/>
<path transform="translate(0,0)" fill="rgb(21,22,51)" fill-opacity="0.494118" d="M 687.868 805.131 L 689.047 806.054 C 666.065 825.72 636.358 847.625 615.033 866.759 L 613.324 865.402 C 620.221 859.134 631.726 850.563 639.274 844.563 C 655.628 831.613 671.828 818.468 687.868 805.131 z"/>
<path transform="translate(0,0)" fill="rgb(15,16,42)" fill-opacity="0.12549" d="M 338.694 699.509 C 333.391 703.663 298.286 734.902 298.03 734.979 C 301.565 726.484 331.791 699.972 339.776 693.974 L 341.055 696.606 C 339.963 699.022 340.855 698.17 338.694 699.509 z"/>
<path transform="translate(0,0)" fill="rgb(15,16,42)" fill-opacity="0.101961" d="M 191.764 1868.72 C 198.951 1871.36 229.098 1895.86 237.162 1902.18 C 226.695 1899.34 200.13 1877.09 191.764 1868.72 z"/>
<path transform="translate(0,0)" fill="rgb(3,3,12)" fill-opacity="0.921569" d="M 383.767 663.196 L 384.79 667.825 C 376.281 675.974 368.58 682.514 359.571 690.079 C 362.867 684.035 378.233 668.877 383.767 663.196 z"/>
<path transform="translate(0,0)" fill="rgb(15,16,42)" fill-opacity="0.980392" d="M 809.597 1247.92 C 815.84 1246.91 837.692 1244.89 843.101 1247.14 C 838.574 1248.75 826.907 1250.02 821.925 1249.91 C 819.601 1247.84 812.999 1248.1 809.597 1247.92 z"/>
<path transform="translate(0,0)" fill="rgb(21,22,51)" fill-opacity="0.0784314" d="M 386.967 665.69 C 394.248 658.119 400.971 650.838 409.09 644.122 L 409.72 644.357 L 410.771 643.359 C 406.523 648.69 392.963 664.025 387.832 668.007 L 386.967 665.69 z"/>
<path transform="translate(0,0)" fill="rgb(3,3,12)" fill-opacity="0.984314" d="M 781.605 1381.78 C 788.376 1375.92 797.747 1367.4 805.01 1362.66 L 786.743 1383.57 L 781.605 1381.78 z"/>
<path transform="translate(0,0)" fill="rgb(15,16,42)" fill-opacity="0.0980392" d="M 1411.76 1917.12 C 1421.16 1919.14 1432.76 1927.62 1440.98 1933.12 C 1432.43 1932.29 1418.32 1922.6 1411.76 1917.12 z"/>
<path transform="translate(0,0)" fill="rgb(3,3,12)" fill-opacity="0.937255" d="M 606.188 1758.87 C 615.967 1760.02 623.269 1761.17 632.92 1763.11 C 628.531 1763.57 608.145 1763.48 604.318 1762.36 L 605.961 1761.54 L 606.188 1758.87 z"/>
<path transform="translate(0,0)" fill="rgb(85,6,43)" fill-opacity="0.984314" d="M 1124.72 1404.33 C 1133.51 1405.64 1141.97 1406.65 1150.49 1409.23 C 1142.2 1409.01 1128.63 1408.99 1120.82 1407.96 L 1124.72 1404.33 z"/>
<path transform="translate(0,0)" fill="rgb(15,16,42)" fill-opacity="0.0980392" d="M 194.71 1900.05 C 202.27 1903.93 215.28 1913.66 222.481 1918.88 C 210.056 1913.99 204.741 1909.83 194.741 1900.76 L 194.71 1900.05 z"/>
<path transform="translate(0,0)" fill="rgb(15,16,42)" fill-opacity="0.101961" d="M 613.324 865.402 L 615.033 866.759 C 609.54 870.779 604.168 874.963 598.925 879.304 L 597.616 875.931 C 602.937 872.211 607.82 868.846 613.324 865.402 z"/>
<path transform="translate(0,0)" fill="rgb(3,3,12)" fill-opacity="0.956863" d="M 1108.6 1497.3 C 1116.64 1500.18 1123.69 1502.71 1131.54 1506.17 C 1124.39 1505 1117.25 1503.77 1110.13 1502.47 L 1108.6 1497.3 z"/>
<path transform="translate(0,0)" fill="rgb(21,22,51)" fill-opacity="0.388235" d="M 231.447 815.343 C 237.602 809.906 243.812 804.531 250.076 799.219 L 252.162 800.134 C 246.275 805.174 238.538 811.183 233.108 816.178 L 231.447 815.343 z"/>
<path transform="translate(0,0)" fill="rgb(3,3,12)" fill-opacity="0.862745" d="M 678.774 1249.16 C 671.156 1247.82 664.049 1246.87 657.282 1242.95 C 664.229 1244.13 671.207 1245.12 678.209 1245.91 L 678.774 1249.16 z"/>
<path transform="translate(0,0)" fill="rgb(15,16,42)" fill-opacity="0.960784" d="M 507.394 678.812 C 508.7 676.443 508.791 674.68 509.368 671.962 C 510.595 681.728 512.71 686.205 516.73 695.203 C 512.85 690.044 509.093 685.205 507.394 678.812 z"/>
<path transform="translate(0,0)" fill="rgb(15,16,42)" fill-opacity="0.0705882" d="M 687.868 805.131 L 696.95 796.471 L 700.255 797.83 L 689.047 806.054 L 687.868 805.131 z"/>
<path transform="translate(0,0)" fill="rgb(21,22,51)" fill-opacity="0.686275" d="M 233.108 816.178 C 231.057 818.155 229.493 820.273 226.834 820.636 C 227.602 817.765 228.68 817.713 231.447 815.343 L 233.108 816.178 z"/>
<path transform="translate(0,0)" fill="rgb(21,22,51)" d="M 984.357 11.4863 L 1410.93 11.6692 C 1423.05 28.3736 1437.41 54.2239 1452.79 67.3146 C 1392.17 67.1221 1329.35 68.9101 1274.02 95.9562 C 1221.84 121.464 1235.69 122.905 1175.48 122.838 C 1146.33 122.701 1117.18 122.725 1088.04 122.909 L 1087.58 199.439 C 1087.32 231.345 1090.94 235.431 1073.93 264.234 C 1052.98 299.707 1037.47 344.609 1025.01 383.651 C 1045.56 351.649 1061.53 328.062 1086.95 299.419 C 1085.71 312.468 1086.26 335.224 1086.31 348.861 L 1087.01 436.86 L 1365.53 436.955 L 1374.57 454.673 C 1390.77 484.747 1407.23 514.889 1421.62 545.853 C 1410.16 545.026 1392.65 545.511 1380.72 545.508 L 1308.98 545.506 L 1086.99 545.861 L 1087 902.859 C 1056.96 901.481 1012.21 902.077 981.753 902.789 C 980.583 833.066 981.577 760.122 981.556 690.23 L 981.446 280.334 C 981.439 252.205 980.146 16.233 981.964 11.9583 L 984.357 11.4863 z"/>
<path transform="translate(0,0)" fill="rgb(21,22,51)" d="M 1333.98 225.447 C 1365.62 224.3 1403.53 226.021 1435.9 226.48 C 1450.56 250.302 1465.61 280.556 1478.26 305.822 C 1494.91 339.054 1511.37 372.383 1527.64 405.805 C 1569.35 490.204 1611.69 574.29 1654.66 658.056 C 1676.13 619.89 1697.83 572.864 1718.11 533.313 C 1770.39 432.219 1821.84 330.689 1872.42 228.735 L 1987.11 228.707 C 1981.7 242.133 1963.31 274.651 1955.98 288.688 C 1937.54 324.42 1919.37 360.291 1901.47 396.297 C 1818.87 564.015 1737.29 732.23 1656.72 900.933 C 1650.03 886.448 1640.7 869.237 1633.4 854.449 L 1577.87 741.889 L 1318.05 226.013 L 1333.98 225.447 z"/>
<path transform="translate(0,0)" fill="rgb(176,25,42)" d="M 1908.16 484.592 C 1914.13 499.52 1920.55 515.071 1925.73 530.224 C 1989.26 560.76 2017.09 605.967 2026.82 675.454 C 1999.95 637.492 1971.43 591.112 1933.82 563.684 C 1942.34 592.451 1948.02 620.274 1956.01 648.657 C 1993.88 671.008 2016.98 689.532 2028.62 734.667 C 2032.99 751.622 2037.01 774.538 2037.28 792.313 C 2026.71 778.794 2019.69 762.82 2011.82 747.52 C 1998.63 721.292 1980.24 698.019 1957.78 679.114 C 1961.81 695.476 1965.18 749.665 1965.12 767.471 C 2029.69 803.28 2038.3 850.003 2036.04 919.638 C 2027.11 904.855 2021.46 890.925 2015.25 874.927 C 2001.17 838.707 1991.29 822.939 1964.16 796.465 C 1963.37 823.917 1963.55 854.912 1961.56 881.73 C 1995.92 911.654 2019.22 939.279 2022.39 986.558 C 2023.12 997.482 2022.01 1034.99 2017.03 1043.82 C 2011.76 1042.47 2001.78 1002.34 1999.29 995.02 C 1989.37 965.876 1974.96 942.832 1957.4 918.079 C 1954.28 948.565 1949.13 978.808 1941.96 1008.6 C 1974.52 1043.85 1991.53 1069.45 1989.43 1119.96 C 1988.97 1131.08 1986.83 1153.26 1981.75 1163.06 L 1979.92 1164.1 C 1976.36 1159.85 1973.98 1146.69 1972.9 1140.99 C 1966.4 1106.98 1951.52 1075.2 1933.95 1045.58 C 1926.31 1073.61 1918.32 1101.54 1909.98 1129.38 C 1948.37 1174.86 1954.17 1226.72 1933.51 1280.22 C 1931.95 1284.27 1929.97 1289.99 1925.63 1291.47 C 1922.24 1286.97 1921.49 1262.38 1920.83 1255.81 C 1917.73 1224.67 1911.71 1195.98 1895.25 1168.86 C 1885.67 1195.74 1872.43 1224.99 1860.62 1251.08 C 1881.5 1282.48 1894.96 1314.68 1886.45 1352.7 C 1884.01 1363.6 1873.62 1399.41 1864.94 1404.25 C 1863.14 1402.55 1862.79 1400.55 1862.83 1398.03 C 1863.55 1359.27 1859.7 1324.57 1842.6 1288.95 C 1831.16 1309.44 1811.45 1346.66 1797.45 1364.62 C 1814.38 1398.57 1820.26 1431.55 1808.89 1468.42 C 1806.15 1477.33 1791.77 1509.56 1780.27 1507.32 C 1778.87 1502.72 1780.41 1492.43 1781.06 1487.47 C 1785.58 1453.13 1788.56 1434.05 1774.67 1401.97 C 1762.94 1421.49 1734.02 1461.07 1719.18 1478.04 C 1741.46 1518.15 1724.08 1580.58 1686.75 1606.38 C 1684.93 1607.64 1684.16 1607.4 1682.23 1607.25 C 1681.07 1604.63 1681.98 1602.53 1683.26 1599.49 C 1696.01 1569.12 1701.44 1544.11 1693.95 1511.3 C 1671.39 1538.06 1648.83 1560.47 1625.76 1586.09 C 1631.67 1626.35 1598.25 1694.69 1558.69 1705.73 C 1564.21 1691 1594.76 1633.08 1587.82 1622.31 C 1584.81 1622.69 1579.21 1627.73 1576.86 1629.8 C 1509.29 1689.2 1428.49 1749.86 1341.93 1778.91 C 1339.23 1772.95 1338.61 1770.75 1336.94 1764.52 C 1441.11 1719.57 1495.15 1687.22 1577.51 1607.68 C 1558.32 1603.95 1460.75 1589.04 1465.91 1564.7 C 1484.96 1538.9 1584.55 1567.92 1610.89 1578.66 C 1636.98 1551 1657.75 1528.63 1682.13 1499.67 C 1647.26 1491.8 1610.6 1490.98 1575.63 1483.87 C 1571.96 1483.13 1563.83 1479.39 1562.33 1476.21 C 1557.09 1465.09 1582.75 1458.62 1589.91 1457.65 C 1602.19 1455.98 1612.79 1456.09 1624.95 1457.03 C 1651.5 1459.62 1680.83 1461.1 1706.6 1468 L 1763.48 1389.54 C 1744.58 1389.25 1725.2 1387.41 1705.13 1386.23 C 1693.93 1385.57 1651.13 1385.55 1642.65 1377.65 C 1632.51 1368.2 1659.56 1354.64 1667.23 1354.79 C 1704.19 1348.14 1746.63 1350.91 1783.9 1355.27 C 1799.53 1329.61 1815.72 1300.85 1827.46 1273.15 C 1790.98 1272.95 1754.61 1274.68 1718.19 1273.8 C 1714.44 1273.71 1709.24 1272.61 1706.24 1270.27 C 1701.87 1258.48 1718.11 1249.07 1727.35 1246.78 C 1756.89 1239.44 1815.45 1233.95 1844.93 1242.43 C 1859.53 1212.15 1870.39 1184.47 1882.31 1152.96 C 1862.51 1154.56 1763.39 1166.12 1752.56 1158.59 C 1747.34 1148.2 1762.63 1138.28 1770.61 1135.59 C 1804.31 1124.23 1857.95 1114.67 1893.15 1119.16 C 1899.89 1089.66 1910.84 1059.16 1916.95 1029.6 C 1897.08 1033.57 1802.51 1057.12 1789.88 1050.06 C 1783.07 1039.49 1798.89 1026.79 1807.4 1022.69 C 1842.43 1005.79 1885.99 997.981 1924.62 999.083 C 1929.91 969.266 1934.58 939.346 1938.66 909.341 C 1906.05 917.127 1874.61 927.333 1842.43 936.583 C 1835.66 938.529 1820.87 942.91 1814.6 939.544 C 1806.54 926.743 1828.51 913.348 1838.01 908.61 C 1869.99 892.665 1906.11 879.175 1941.95 877.023 C 1942.78 845.732 1945.07 822.898 1944.79 790.564 C 1923.59 799.069 1846.78 832.249 1828.71 829.725 C 1821.26 824.127 1829.56 811.634 1834.53 807.499 C 1860.96 785.52 1910.33 765.25 1943.96 760.106 C 1943.05 753.469 1942.6 745.387 1942.59 738.629 C 1942.58 716.957 1937.93 693.598 1937.92 672.235 L 1936.38 672.901 C 1920.72 679.738 1833.31 739.179 1820.69 723.255 C 1819.87 718.433 1824.07 712.097 1826.81 708.335 C 1845.73 682.411 1903.47 653.247 1933.58 646.788 C 1927.08 618.405 1922.25 588.181 1913.3 560.462 C 1885.88 572.992 1857.55 601.619 1836.49 623.518 C 1853.76 580.338 1863.4 554.279 1904.64 533.348 C 1900.75 525.456 1898.26 516.255 1896.15 507.698 L 1908.16 484.592 z"/>
<path transform="translate(0,0)" fill="rgb(176,25,42)" d="M 1062.22 308.272 C 1107.71 197.574 1213.64 117.975 1329.22 88.349 C 1362.32 79.8646 1441.31 73.2577 1472.93 85.2618 C 1459.3 86.7324 1443.86 85.6137 1430.52 87.2996 C 1399.29 91.2453 1367.47 86.9584 1337.05 96.2792 C 1302.29 102.871 1247.93 127.234 1217.83 146.188 C 1205.97 153.589 1194.35 161.376 1183 169.535 C 1179.06 172.315 1173.61 176.325 1170.17 179.701 C 1177.37 176.595 1180.58 173.946 1186.89 169.31 C 1193.82 163.057 1210.94 152.599 1219.28 147.277 C 1235.26 138.576 1262.65 123.684 1279.49 118.813 C 1304.15 111.682 1315.45 109.356 1338.98 98.0843 L 1341.68 98.3695 L 1342.44 99.6163 L 1340.21 103.315 C 1355.85 111.433 1396.91 80.4729 1400.97 95.1264 C 1399.93 98.1232 1399.87 97.6243 1399.62 100.661 C 1408.78 101.25 1418.15 101.659 1427.2 103.113 C 1456.57 84.3493 1505.68 81.4208 1536.48 97.441 C 1521.91 99.6308 1506.87 98.6669 1492.09 99.114 C 1478.35 99.5294 1468.65 101.18 1455.46 103.804 C 1469.37 106.657 1483.16 110.017 1496.83 113.879 C 1512.13 101.393 1525.37 101.682 1543.93 102.778 C 1573.67 104.533 1593.96 110.324 1618.65 126.534 C 1582.72 119.787 1557.07 114.932 1520.12 120.017 C 1527.5 122.296 1562.32 134.502 1566.33 134.168 C 1630.25 128.844 1654.05 136.328 1709.21 173.484 C 1679.56 164.07 1648.63 154.867 1617.66 151.12 C 1608.67 150.032 1599.67 149.055 1590.68 147.979 C 1609.95 157.263 1624.11 165.054 1642.5 176.09 C 1646.5 175.968 1650.5 175.907 1654.51 175.905 C 1699.37 176.145 1755.55 201.486 1786.88 233.164 C 1770.95 229.584 1749.16 219.176 1733.07 213.66 C 1710.14 205.8 1689.02 201.318 1665.55 195.673 C 1679.52 204.043 1699.72 221.421 1712.37 232.28 C 1747.9 230.114 1780.06 241.989 1808.31 262.864 L 1801.88 277.697 C 1778.45 266.2 1762.13 260.997 1737.05 254.722 C 1751.52 268.279 1775.61 293.9 1789.98 304.295 C 1787.49 312.158 1785.02 321.804 1780.36 328.435 C 1766.18 327.026 1765.4 329.378 1756.79 341.39 C 1739.1 366.1 1730.57 392.261 1702.32 406.922 C 1694.91 363.779 1728.52 325.735 1761.13 302.454 C 1748.9 288.524 1727.7 270.901 1713.25 258.496 C 1707.48 262.104 1702.11 266.004 1697.16 270.936 C 1688.1 279.975 1666.86 342.519 1650.12 334.088 C 1645.99 327.872 1646.36 320.883 1647.9 313.795 C 1655.41 279.121 1667.64 261.075 1696.49 241.653 C 1677.97 227.834 1662.58 215.863 1643.3 202.344 C 1618.71 229.268 1629.3 249.706 1597.77 279.729 C 1584.46 244.995 1602.36 211.701 1625.23 185.86 C 1609.14 175.514 1592.1 166.725 1574.35 159.612 C 1559.74 180.159 1568.02 188.705 1558.88 210.09 C 1555.27 218.531 1549.21 225.195 1543.18 231.979 C 1529.21 201.53 1539.73 174.268 1557.8 148.308 C 1540.87 141.855 1524.87 137.562 1508.23 131.501 C 1505.99 142.217 1498.66 201.896 1484.17 198.508 C 1466.95 182.964 1481.18 142.623 1489.48 125.695 C 1417.4 107.929 1450.89 126.488 1433.71 180.104 C 1411.87 157.938 1416.78 141.87 1423.5 115.106 C 1411.77 113.611 1398.72 113.807 1386.81 113.656 C 1386.57 131.269 1385.45 149.716 1384.51 167.317 C 1359.5 149.075 1363.31 141.774 1368.06 113.777 C 1357.9 113.871 1346.63 114.923 1336.08 115.166 C 1334.68 129.671 1333.32 147.378 1337.4 161.476 C 1324.32 162.568 1307.83 162.318 1295.02 164.325 C 1222.95 175.617 1154.66 207.5 1102.7 259.149 C 1088.33 273.427 1074.37 292.401 1062.22 308.272 z M 1297.2 157.731 C 1304.51 157.355 1311.83 157.049 1319.15 156.814 C 1317.61 148.012 1317.53 123.656 1316.34 120.409 C 1315.04 120.121 1314.75 119.875 1313.55 120.061 L 1291.12 126.307 C 1291.43 132.655 1291.26 152.877 1294.56 157.074 L 1297.2 157.731 z M 1146.33 212.399 C 1153.84 207.221 1187.92 191.133 1185.32 183.724 C 1183.52 183.532 1181.13 183.177 1179.64 184.448 C 1168.06 194.35 1155.83 203.101 1143.35 211.746 C 1134.17 218.095 1125.48 225.121 1117.35 232.765 C 1119.06 233.273 1143.52 214.847 1146.33 212.399 z M 1211.24 163.831 C 1204.32 167.763 1193.61 173.715 1190.74 181.438 C 1191.31 184.861 1190.51 183.534 1193 185.672 C 1193.56 185.533 1195.84 184.999 1196.31 184.823 C 1204.52 181.651 1210.34 179.316 1218.17 175.386 C 1216.56 171.92 1214.48 166.483 1211.85 164.039 L 1211.24 163.831 z M 1230.22 171.997 L 1250.18 165.553 C 1248.68 162.437 1242.82 149.114 1240.45 148.175 C 1233.47 151.908 1228.51 154.752 1221.9 159.064 C 1222.71 163.33 1223.33 170.352 1226.5 172.855 C 1228.19 172.597 1228.75 172.699 1230.22 171.997 z M 1273.31 132.913 C 1268.84 134.799 1256.14 139.443 1253.85 143.124 C 1251.27 147.26 1255.21 159.442 1259.44 162.327 L 1262.27 162.435 L 1283.44 158.735 C 1278.91 150.325 1277.41 143.317 1275.55 133.693 C 1275.05 133.416 1274.55 133.139 1274.05 132.862 L 1273.31 132.913 z"/>
<path transform="translate(0,0)" fill="rgb(112,17,28)" fill-opacity="0.0509804" d="M 1143.35 211.746 C 1155.83 203.101 1168.06 194.35 1179.64 184.448 C 1181.13 183.177 1183.52 183.532 1185.32 183.724 C 1187.92 191.133 1153.84 207.221 1146.33 212.399 L 1143.35 211.746 z"/>
<path transform="translate(0,0)" fill="rgb(176,25,42)" fill-opacity="0.294118" d="M 1143.35 211.746 L 1146.33 212.399 C 1143.52 214.847 1119.06 233.273 1117.35 232.765 C 1125.48 225.121 1134.17 218.095 1143.35 211.746 z"/>
<path transform="translate(0,0)" fill="rgb(176,25,42)" d="M 1927.14 448.407 C 1945.15 456.074 1963.67 484.368 1973.5 500.771 C 1980 511.621 1998.34 545.36 1999.5 557.536 L 1998.83 557.987 C 1995.94 557.091 1994.64 555.018 1992.58 552.693 C 1965.17 522.544 1948.58 499.372 1914.21 474.366 C 1918.39 465.648 1922.7 456.994 1927.14 448.407 z"/>
<path transform="translate(0,0)" fill="rgb(112,17,28)" fill-opacity="0.027451" d="M 1337.05 96.2792 L 1338.98 98.0843 C 1315.45 109.356 1304.15 111.682 1279.49 118.813 C 1262.65 123.684 1235.26 138.576 1219.28 147.277 L 1217.83 146.188 C 1247.93 127.234 1302.29 102.871 1337.05 96.2792 z"/>
<path transform="translate(0,0)" fill="rgb(176,25,42)" d="M 1940.19 420.441 C 1945.48 424.376 1957.79 451.03 1958.5 457.489 L 1957.15 458.025 L 1935.91 431.419 L 1940.19 420.441 z"/>
<path transform="translate(0,0)" fill="rgb(191,49,75)" fill-opacity="0.32549" d="M 1217.83 146.188 L 1219.28 147.277 C 1210.94 152.599 1193.82 163.057 1186.89 169.31 L 1183 169.535 C 1194.35 161.376 1205.97 153.589 1217.83 146.188 z"/>
<path transform="translate(0,0)" fill="rgb(191,49,75)" fill-opacity="0.52549" d="M 1183 169.535 L 1186.89 169.31 C 1180.58 173.946 1177.37 176.595 1170.17 179.701 C 1173.61 176.325 1179.06 172.315 1183 169.535 z"/>
</svg>