<svg xmlns="http://www.w3.org/2000/svg" height="1024" preserveAspectRatio="none" style="display: block;" version="1.1" viewBox="0 0 2048 2048" width="1024">
<defs>
	<linearGradient gradientUnits="userSpaceOnUse" id="Gradient1" x1="534.565" x2="467.472" y1="737.152" y2="1202.53">
		<stop class="stop0" offset="0" stop-color="rgb(0,4,32)" stop-opacity="1"></stop>
		<stop class="stop1" offset="1" stop-color="rgb(22,37,68)" stop-opacity="1"></stop>
	</linearGradient>
</defs>
<path d="M 0 0 L 2048 0 L 2048 2048 L 0 2048 L 0 0 z" fill="rgb(255,255,255)" transform="translate(0,0)"></path>
<path d="M 371.718 115.416 C 397.413 110.818 453.548 118.605 478.468 126.1 C 551.205 147.395 612.497 196.727 648.845 263.233 C 662.157 271.181 679.516 285.123 692.763 294.488 L 805.951 375.38 L 1126.76 601.654 L 1378.45 779.05 C 1404.52 797.544 1431.06 815.364 1456.69 834.442 C 1472.92 846.519 1486.5 855.325 1500.08 870.496 C 1507.02 861.417 1509.39 853.838 1511.97 842.991 L 1506.64 832.595 C 1491.23 824.012 1476.19 825.381 1459.39 827.295 C 1455.57 824.487 1447.89 819.858 1447 815.94 C 1450.2 809.651 1461.92 806.839 1468.46 806.979 C 1489.24 807.425 1506.62 812.457 1521.85 827.074 L 1529.23 809.015 C 1505.22 798.02 1487.03 793.056 1460.44 795.184 C 1450.57 795.974 1438.18 797.799 1438.58 784.276 C 1442.69 777.129 1450.18 778.575 1457.45 777.745 C 1485.76 774.513 1511.77 783.047 1538.32 791.729 C 1539.15 788.685 1540.52 785.235 1541.64 782.22 C 1529.5 777.856 1510.02 770.681 1497.71 767.832 C 1459.24 758.933 1405.88 752.951 1366.92 757.519 L 1346.22 741.924 C 1390.59 737.789 1424.66 737.937 1468.7 744.849 C 1603.22 765.958 1725.22 838.113 1814.81 939.757 C 1828.4 955.172 1840.83 969.24 1852.88 985.992 C 1947.67 1116.77 1985.77 1280.21 1958.58 1439.42 C 1932.43 1597.13 1845.11 1738.15 1715.58 1831.84 C 1584.33 1924.25 1421.73 1960.71 1263.59 1933.19 C 945.708 1879.79 724.937 1574.67 777.374 1256.24 C 799.328 1122.92 867.245 998.503 964.305 904.945 C 983.896 886.06 1007.67 863.79 1029.74 848.191 C 1036.83 850.182 1044.76 852.984 1051.83 855.302 C 944.701 933.908 870.598 1027.77 824.122 1152.5 C 771.653 1293.9 777.461 1450.35 840.271 1587.48 C 905.946 1731.32 1020.68 1833.39 1168.04 1888.29 C 1312.82 1941.04 1472.53 1934.79 1612.74 1870.88 C 1751.17 1806.43 1858.48 1689.82 1911.22 1546.52 C 1966.09 1400.3 1960.69 1238.27 1896.2 1096.03 C 1829.39 952.173 1707.88 840.972 1558.68 787.156 C 1557.73 791.57 1557.22 795.587 1556.6 800.042 C 1597.03 815.007 1604.99 821.142 1637.33 848.32 L 1631.81 868.181 C 1600.52 838.491 1588.85 829.178 1548.06 815.364 C 1546.75 826.756 1546.18 832.863 1538.88 842.106 C 1575.99 845.992 1600.05 861.924 1627.77 885.791 C 1626.15 892.697 1624.77 900.12 1623.35 907.109 C 1604.51 888.085 1568.44 856.631 1537.6 860.379 C 1531.71 861.095 1519.1 877.725 1515.76 883.378 C 1564.17 894.427 1578.04 903.824 1615.19 935.148 L 1604.97 954.568 C 1599.83 949.125 1595.26 943.021 1589.74 937.795 C 1579.35 928.082 1558.63 913.71 1544.47 910.852 C 1521.56 906.228 1517.07 901.998 1497.85 889.565 C 1483.83 880.603 1469.92 871.472 1456.13 862.172 C 1447.45 856.281 1437.64 848.971 1428.44 844.511 C 1462.07 873.706 1510.21 907.22 1547.77 931.433 C 1557.12 937.449 1566.29 943.495 1576.06 948.839 C 1584.49 953.452 1595.37 957.531 1603.37 962.4 C 1623.08 974.385 1643.79 986.57 1662.94 999.291 C 1675.02 982.301 1685.77 956.394 1693.64 936.669 C 1694.19 938.354 1694.79 940.022 1695.44 941.671 C 1724.48 1013.66 1731.86 1005.78 1799.69 1033.94 C 1784.04 1040.13 1737.54 1056.1 1726.63 1066.9 C 1718.29 1075.14 1700.48 1113.99 1694.26 1126.96 C 1687.34 1109.29 1671.9 1078.92 1661.57 1063.68 C 1645.82 1056.81 1630.25 1049.59 1614.2 1043.42 C 1607.01 1040.66 1599.85 1037.83 1593.01 1034.27 C 1603.96 1028.46 1621.13 1021.75 1632.76 1017.52 C 1611.95 1010.41 1591.86 1003.18 1570.37 998.304 C 1566.77 1000.85 1562.73 1004.13 1559.19 1006.87 C 1549.56 992.7 1541.95 989.304 1526.78 983.688 C 1485.82 968.534 1468.58 977.208 1439.95 1007.05 C 1482.03 1008.68 1505.81 1021.78 1536.39 1048.57 C 1530.54 1055.03 1525.54 1060.08 1519.24 1066.13 C 1503.32 1036.79 1478.73 1027.99 1446.24 1024.82 C 1425.07 1022.76 1419.44 1026.59 1404.26 1040.17 C 1397.06 1046.69 1389.81 1053.15 1382.5 1059.54 C 1417.16 1065.02 1464.39 1081.27 1483.14 1113.35 C 1478.1 1117.81 1473.85 1121.35 1468.53 1125.48 C 1439.15 1087.64 1404.74 1075.85 1357.5 1077.39 C 1345.44 1087.94 1323.04 1103.38 1309.3 1111.53 C 1323.6 1112.67 1337.63 1116.02 1350.91 1121.45 C 1370.45 1129.65 1404.54 1152.68 1412.48 1172.22 C 1409.97 1177.4 1400.73 1180.49 1395.27 1182.93 C 1371.26 1138.73 1326.8 1127.01 1280.03 1126.29 C 1266.19 1134.61 1243.6 1146.46 1231.78 1155.91 C 1241.95 1155.78 1252.09 1156.98 1261.96 1159.45 C 1293.73 1167.37 1328.41 1188.57 1345.59 1217.21 C 1338.89 1220.79 1335.57 1222.55 1328.46 1225.07 C 1310.47 1197.99 1281.01 1182.12 1249.93 1175.23 C 1198.06 1163.73 1191.86 1173.2 1151.5 1198.1 C 1199.77 1212.11 1232.87 1212.42 1262.97 1259.16 L 1245.72 1268.67 C 1227.79 1237.06 1194.44 1224.72 1160.31 1218.67 C 1150.78 1216.98 1134.43 1216.64 1125.99 1213.51 C 1113.77 1221.47 1093.4 1236.89 1085.52 1248.57 C 1087.88 1248.6 1090.24 1248.71 1092.6 1248.89 C 1133.3 1251.95 1171.17 1266.6 1198.06 1297.99 C 1192.46 1303.35 1187.3 1306.6 1180.7 1310.46 C 1159.56 1283.67 1130.64 1272.67 1097.28 1267.81 C 1085.33 1266.06 1073.17 1267.01 1061.25 1264.35 C 1051.27 1273.09 1028.57 1296.13 1021.09 1306.59 C 1066.79 1309.97 1102.06 1312.21 1136.03 1345.7 C 1130.28 1350.62 1126.38 1353.68 1120.2 1358.03 C 1080.87 1322.69 1049.16 1326.51 1001.37 1324.96 C 989.52 1338.61 974.413 1359.7 965.845 1375.13 C 974.031 1374.19 982.247 1373.53 990.478 1373.15 C 1019.79 1372.03 1064.88 1378.06 1087.26 1398.93 L 1073.09 1413.78 C 1043.07 1392.74 1017.85 1388.69 981.087 1391.49 C 971.959 1392.18 962.869 1394.26 953.643 1394.91 L 952.529 1394.98 C 944.165 1410.6 936.817 1425.07 930.142 1441.53 C 968.503 1434.43 1012.73 1432.76 1046.69 1455.3 C 1042.74 1460.12 1039.26 1465.27 1035.68 1470.38 C 1034.15 1469.52 1032.61 1468.67 1031.06 1467.84 C 994.296 1448.05 960.381 1452.13 922.007 1463.58 L 910.223 1502.92 C 950.74 1493.3 977.73 1492.32 1015.89 1509.22 C 1013.32 1514.77 1011.41 1518.01 1008.28 1523.21 C 965.796 1511.33 948.214 1511.75 905.974 1522.98 C 903.968 1534.42 902.381 1547.27 900.701 1558.86 C 932.8 1549.35 960.351 1546.14 991.482 1559.94 C 989.549 1565.32 987.581 1569.87 985.304 1575.1 C 950.799 1564.96 932.817 1566.68 900.344 1580.2 C 897.52 1597.53 900.832 1602.25 895.177 1621.63 C 917.524 1603.51 947.211 1598.29 974.434 1607.1 C 973.287 1611.7 972.309 1616.64 971.299 1621.29 C 967.032 1620.9 962.76 1620.55 958.486 1620.25 C 935.491 1618.7 917.182 1626.35 899.535 1640.57 L 896.511 1639.74 C 892.289 1642.83 895.563 1646.76 891.047 1650.97 C 881.487 1651.76 881.225 1632.02 880.437 1624.77 C 865.064 1613.23 855.74 1597.65 850.336 1579.4 C 852.959 1576.17 856.427 1573.15 859.491 1570.28 C 866.736 1582.18 873.625 1591.76 881.785 1603.05 L 882.817 1569.65 C 859.892 1537.75 839.121 1498.29 835.556 1458.23 C 834.958 1451.52 842.915 1443.42 850.212 1444.84 C 852.668 1450.25 853.535 1464.12 855.457 1471 C 862.204 1495.15 872.946 1523.13 886.926 1543.99 C 888.322 1533.45 890.212 1519.08 893.309 1509.05 C 868.452 1469.46 857.073 1435.17 856.615 1387.74 C 860.731 1383.24 863.995 1377.86 870.392 1378.47 C 874.783 1382.35 873.884 1393.64 874.36 1399.62 C 875.146 1410.06 876.633 1420.44 878.812 1430.69 C 882.631 1448.14 889.96 1469.34 899.009 1484.76 C 900.807 1473.29 903.957 1463.97 908.354 1453.26 C 902.434 1439.4 897.255 1425.23 892.839 1410.83 C 884.351 1382.72 875.063 1338.07 887.307 1308.64 C 889.819 1302.61 899.264 1301.7 905.976 1300.12 C 896.608 1348.14 899.148 1379.66 916.837 1426.98 C 925.386 1410.61 934.734 1392.18 944.716 1376.8 C 936.004 1341.07 918.098 1265.9 940.962 1233.86 C 947.338 1231.66 950.931 1231.09 957.562 1229.89 C 943.198 1271.84 946.127 1314.69 957.624 1356.88 C 973.882 1332.66 978.972 1325.64 999.557 1304.96 C 990.56 1259.08 986.012 1214.46 1003.23 1169.48 C 1008.63 1165.39 1017.04 1159.54 1023.46 1163.57 C 1023 1167.8 1020.74 1172.58 1019.28 1176.7 C 1006.21 1213.43 1007.3 1250.42 1015.2 1287.81 C 1030.88 1270.97 1040.49 1260.21 1058.27 1245.62 C 1052.68 1201.78 1051.87 1158.67 1068.37 1116.88 C 1073.6 1112.84 1082.4 1107.96 1088.37 1112.67 C 1087.57 1119.3 1080.39 1137.16 1078.35 1145.5 C 1070.86 1176.2 1072.82 1201.94 1075.3 1232.67 C 1093.42 1215.76 1109.82 1204.61 1129.03 1189.41 C 1128.79 1157.11 1130.54 1106.3 1145.55 1077.73 C 1148.16 1072.75 1159 1066 1164.51 1071.02 C 1164.92 1075.97 1154.41 1104.4 1152.66 1114.09 C 1148.4 1137.64 1148.54 1157.78 1147.73 1181.47 C 1164.13 1170.21 1181.95 1159.39 1200.28 1151.63 C 1216.35 1113.12 1205.34 1074.97 1221.08 1038.57 C 1222.4 1035.52 1226.84 1030.88 1229.28 1028.3 C 1233.79 1028.04 1238.72 1028.09 1243.28 1028.04 C 1231.87 1051.25 1230.17 1084.11 1227.53 1109.52 C 1226.46 1119.87 1224.26 1130.57 1222.27 1140.81 C 1241.96 1130.96 1259.83 1117.66 1281.12 1108.18 C 1302.55 1068.8 1284.11 1035.49 1287.57 995.099 C 1288.05 989.53 1297.8 984.541 1303.98 986.731 C 1305.87 990.302 1304.89 1008.85 1305.26 1013.97 C 1307.23 1041.47 1311.28 1066.25 1306.94 1093.91 C 1329.59 1077.91 1340.81 1069.67 1361.2 1050.41 C 1371.61 1011.97 1360.47 979.573 1341.96 946.027 C 1348.21 939.328 1350.62 938.354 1358.79 934.99 C 1376.74 967.406 1386.02 999.602 1382.67 1036.51 C 1400.75 1022.53 1421.48 1000.65 1436 983.166 C 1433.18 967.628 1429.02 961.21 1421.69 947.448 C 1407.98 944.616 1382.4 935.888 1368.13 931.325 L 1269.22 899.266 C 1209.17 879.934 1147.89 863.497 1087.98 843.936 C 1017.87 821.047 947.574 801.95 876.737 781.822 L 736.189 740.64 C 667.465 721.104 599.043 700.525 530.946 678.908 C 493.137 696.728 468.015 705.776 425.964 710.253 C 348.501 717.939 271.139 694.711 210.722 645.626 C 148.93 595.175 111.148 513.767 104.321 435.053 C 90.1945 272.191 209.322 130.911 371.718 115.416 z" fill="rgb(8,18,50)" transform="translate(0,0)"></path>
<path d="M 430.102 405.597 C 459.609 370.702 505.476 349.509 550.575 346.393 C 596.427 343.224 628.991 353.798 667.859 376.03 L 665.875 419.602 C 866.528 530.275 1065.58 643.819 1262.98 760.199 C 1298.64 781.672 1342.79 809.125 1377.53 831.946 L 1439.68 872.685 C 1507.87 917.749 1578.53 957.484 1648.05 1000.32 C 1650.24 1001.67 1652.85 1003.98 1653.7 1006.45 C 1649.44 1009.47 1633.81 1002.21 1628.34 1000.22 C 1616.44 995.808 1604.44 991.651 1592.36 987.75 C 1518.11 963.653 1444.29 936.71 1370.01 913.16 C 1255.68 876.784 1141.14 841.094 1026.38 806.093 L 810.253 743.653 L 724.796 718.366 C 707.262 713.346 689.369 708.855 671.967 703.492 L 575.69 674.544 C 562.35 670.514 541.729 663.27 529.239 660.104 C 507.826 670.924 496.38 677.334 472.679 684.221 C 443.691 662.128 411.953 619.134 400.442 584.885 C 396.312 572.599 393.88 559.939 391.647 547.145 C 381.933 504.538 400.552 437.79 430.102 405.597 z" fill="rgb(255,255,255)" transform="translate(0,0)"></path>
<path d="M 430.102 405.597 C 450.869 416.676 473.762 427.088 495.001 437.759 C 550.683 466.037 606.515 494.021 662.494 521.708 C 791.954 588.039 922.084 653.052 1052.87 716.738 L 1277.55 823.769 C 1312.62 840.082 1347.73 855.163 1382.92 871.78 C 1409.99 884.259 1436.77 897.334 1463.26 910.995 C 1505.35 933.045 1551.44 959.063 1594.46 979.049 L 1592.7 980.327 C 1538.16 956.752 1487.36 937.642 1432.14 916.835 C 1355.04 886.959 1277.42 858.439 1199.32 831.286 C 1025.51 768.059 851.235 706.136 676.5 645.524 L 515.356 589.11 L 433.596 561.106 C 419.708 556.405 405.284 552.241 391.647 547.145 C 381.933 504.538 400.552 437.79 430.102 405.597 z" fill="rgb(190,26,41)" transform="translate(0,0)"></path>
<path d="M 1594.46 979.049 C 1598.23 980.629 1603.51 982.64 1607.06 984.389 L 1607.13 985.457 L 1609.02 985.873 L 1608.22 985.815 L 1608.35 985.172 C 1604.9 985.689 1596.34 981.772 1592.7 980.327 L 1594.46 979.049 z" fill="rgb(167,160,160)" transform="translate(0,0)"></path>
<path d="M 315.589 143.951 C 320.524 145.267 335.166 164.769 340.967 169.429 C 423.099 235.413 547.446 272.024 647.23 298.01 C 655.442 320.535 659.44 332.154 664.903 355.379 C 658.318 351.649 650.741 347.62 643.867 344.601 C 594.681 323.513 539.101 322.986 489.523 343.136 C 386.941 383.905 348.223 502.091 389.02 601.266 C 407.538 642.712 421.504 656.98 451.133 688.944 C 431.798 692.895 412.079 694.649 392.35 694.173 C 344.085 693.734 296.813 680.408 255.426 655.571 C 243.235 648.398 231.951 641.392 222.078 631.195 C 228.384 614.044 232.268 588.861 234.147 570.467 C 241.874 488.016 230.199 404.902 200.056 327.77 C 190.714 303.278 180.469 283.906 167.387 261.429 C 164.094 255.771 177.263 240.979 180.944 236.198 C 214.053 193.182 263.735 159.886 315.589 143.951 z" fill="rgb(255,255,255)" transform="translate(0,0)"></path>
<path d="M 154.212 276.615 C 157.539 280.737 161.18 286.432 163.724 291.08 C 214.431 383.708 234.606 517.212 207.281 619.064 C 203.448 615.347 199.397 610.98 195.652 607.099 C 167.911 576.023 147.18 539.343 134.867 499.548 C 110.767 423.688 117.683 347.257 154.212 276.615 z" fill="rgb(255,255,255)" transform="translate(0,0)"></path>
<path d="M 378.227 132.5 C 395.815 130.237 430.315 132.909 447.118 136.263 C 508.103 148.125 563.196 180.491 603.247 227.986 C 616.111 243.326 626.92 260.217 637.961 276.894 C 628.55 274.696 615.784 270.607 606.236 267.823 C 528.182 248.011 428.354 212.235 362.903 164.793 C 353.774 158.176 343.826 147.191 336.177 138.647 C 348.993 135.573 365.085 133.809 378.227 132.5 z" fill="rgb(255,255,255)" transform="translate(0,0)"></path>
<path d="M 1693.65 967.542 C 1696.61 969.809 1699.34 977.456 1700.87 981.163 C 1714.14 1013.5 1733.98 1020.53 1764.61 1032.67 C 1753.58 1040.14 1740.06 1045.22 1728.13 1051.29 C 1710.22 1060.42 1702.75 1082.36 1695.44 1100.04 C 1693.56 1097.85 1687.43 1083 1685.81 1079.25 C 1674.32 1052.55 1650.3 1044.49 1624.85 1033.54 C 1633.78 1030.07 1641.06 1025.26 1649.32 1021.35 C 1675.15 1009.12 1683.01 993.289 1693.65 967.542 z" fill="rgb(255,255,255)" transform="translate(0,0)"></path>
<path d="M 1694.25 981.906 C 1711.08 1013.48 1717.72 1018.44 1749.91 1032.9 C 1740.1 1039.47 1724.34 1044.84 1715.65 1052.51 C 1707.37 1059.81 1700.57 1075.33 1695.31 1085.33 C 1677.27 1052.11 1672.01 1049.46 1637.82 1032.64 C 1668.01 1015.7 1678.07 1016.68 1694.25 981.906 z" fill="rgb(8,18,50)" transform="translate(0,0)"></path>
<path d="M 1444.51 954.104 C 1449.56 955.669 1457.43 957.279 1460.13 961.411 L 1457.99 964.086 C 1455.08 966.727 1454.62 968.005 1450.94 967.461 C 1447.59 964.651 1446.11 958.551 1444.51 954.104 z" fill="rgb(255,255,255)" transform="translate(0,0)"></path>
<path d="M 1789.71 960.988 C 1816.19 973.587 1847.71 1037.17 1859.85 1065.16 C 1864.92 1076.87 1868.79 1095.94 1874.18 1106.01 C 1888.78 1133.27 1898.21 1156.7 1907.51 1186.17 C 1900.75 1187.7 1896.85 1187.99 1889.96 1188.59 C 1888.14 1181.43 1885.52 1174.18 1881.7 1167.84 C 1882.6 1172.49 1884.45 1192.03 1885.89 1194.26 C 1899.1 1214.69 1905.69 1230.38 1911.71 1254.27 C 1904.83 1255.66 1900.92 1257.37 1894.41 1259.95 C 1892.33 1244.47 1891.05 1239.55 1883.03 1226.24 C 1883.06 1240.15 1881.92 1254.05 1879.62 1267.77 C 1884.94 1275.95 1891.59 1282.78 1897.08 1291.99 C 1911.74 1316.65 1914.15 1349.98 1913.96 1377.95 C 1908.01 1378.99 1902.67 1380.31 1896.81 1381.73 C 1895.5 1344.86 1895.54 1324.96 1876.61 1292.23 C 1871.02 1311.26 1869.59 1326.2 1862.3 1348.09 C 1888.23 1381.45 1883.6 1429.63 1880.71 1470.03 L 1862.22 1472.08 C 1864.77 1444.09 1869.76 1395.2 1854.92 1370.38 C 1847.8 1389.03 1842.11 1401.06 1832.87 1418.82 C 1850.35 1455.1 1852.25 1503.97 1842.76 1542.4 C 1836.66 1542.07 1830.77 1542.41 1824.68 1542.63 C 1832.53 1512.47 1832.37 1467.11 1821.51 1437.72 C 1815.05 1446.06 1804.38 1465.02 1798.13 1474.96 C 1811.61 1512.15 1805.79 1562.55 1796.55 1600.16 C 1790.53 1601.11 1784.51 1601.74 1778.45 1602.42 C 1788.14 1564.67 1790.38 1525.39 1785.03 1486.78 C 1774.02 1499.95 1762.38 1512.42 1750.75 1525.03 C 1756.11 1565.06 1748.58 1614.44 1733.15 1651.53 C 1726.02 1652.73 1721.08 1652.96 1713.83 1653.31 C 1731.6 1604.48 1732.19 1592.57 1734.18 1541.03 C 1717.43 1554.78 1704.86 1563.79 1689.03 1579.2 C 1688.92 1607.36 1684.55 1668.93 1670.15 1691.07 C 1664.48 1691.11 1658.93 1690.81 1653.27 1690.56 C 1666.18 1650.26 1668.97 1633.62 1669 1590.69 C 1660.71 1596.26 1641.47 1608.22 1636.52 1615.23 C 1612.79 1648.83 1605.97 1683.89 1611.46 1723.65 C 1603.2 1727.34 1596.86 1728.9 1588.12 1730.84 C 1587.39 1691.51 1590.85 1661.73 1609.84 1626.17 C 1596.35 1633.76 1575.95 1642.7 1563.8 1651.07 C 1548.1 1684.32 1544.2 1707.58 1547.79 1744.76 C 1541.76 1747.18 1535.29 1749.49 1529.18 1751.79 C 1524.89 1717.18 1528.89 1696.95 1538.69 1664.08 C 1525.01 1670.35 1510.99 1677.47 1497.43 1684.12 C 1476.87 1717.02 1477.94 1739.98 1480.4 1776.92 C 1476.99 1781.25 1467.23 1781.89 1461.34 1782.94 C 1456.64 1749.96 1460.59 1726.79 1471.28 1696.23 C 1456.87 1700.74 1447.54 1704.37 1433.98 1710.97 C 1419.16 1743.63 1417.05 1761.18 1425.84 1794.94 L 1408 1803.04 C 1397.01 1771.64 1399.17 1749.87 1412.5 1719.98 C 1402.97 1724.39 1380.63 1731.91 1374.78 1739.32 C 1358.4 1760.08 1357.92 1793.89 1378.15 1812 L 1377.25 1812.51 C 1369.9 1816.78 1364.88 1818.62 1356.87 1821.79 C 1355.96 1820.1 1355.09 1818.38 1354.26 1816.65 C 1344.3 1795.87 1341.94 1768.95 1349.58 1746.98 C 1330.01 1759.8 1316.37 1756.11 1319.76 1786.24 C 1322.45 1810.08 1328.84 1822.83 1340.49 1843.35 L 1320.72 1848.88 C 1305.63 1815.47 1301.25 1813.41 1298.39 1776.16 C 1287.97 1783.27 1280.05 1791.27 1274.72 1802.79 C 1276.75 1830.55 1282.91 1840.17 1299.66 1862.15 C 1294.95 1865.04 1286 1869.17 1280.78 1871.77 C 1267.93 1855.23 1260.15 1832.63 1254.44 1812.66 C 1248.59 1820.38 1241.23 1828.93 1235.07 1836.62 C 1238.86 1849.19 1246.71 1864.11 1255.37 1873.94 C 1230.84 1881.92 1229.93 1877.95 1220.57 1854.29 C 1218.38 1861.56 1217.5 1869.45 1215.75 1877.14 C 1211.25 1879.89 1201.05 1878.21 1196.21 1876.52 C 1194.2 1873.75 1196.09 1873.21 1196.76 1867.72 C 1191.95 1865.87 1182.76 1866.46 1176.76 1864.69 C 1148.16 1856.25 1131.37 1845.67 1110.59 1825.29 L 1121.37 1811.62 C 1126.89 1815.35 1134.55 1822.7 1140.44 1827.24 C 1159.31 1841.79 1179.93 1850.49 1203.82 1851.36 C 1206.34 1846.9 1209.42 1842.2 1212.15 1837.82 C 1171.12 1830.52 1157.27 1820.34 1128.39 1791.84 C 1132.39 1787.68 1136.85 1783.61 1141.05 1779.63 C 1148.93 1787.4 1155.73 1793.12 1164.43 1799.87 C 1185.64 1815.05 1202.29 1820.18 1227.88 1820.67 C 1233.42 1814.62 1239.03 1808.64 1244.73 1802.75 C 1199.28 1793.79 1189.8 1785 1154.82 1759.54 C 1160.01 1753.21 1162.85 1749.85 1168.8 1744.33 C 1175.44 1749.84 1180.83 1755.6 1188.15 1761.03 C 1212.8 1779.29 1234.33 1784.2 1264.06 1785.41 C 1269.85 1779.6 1279.94 1772.99 1287.03 1766.86 C 1247.3 1756.78 1227.49 1749.6 1199 1717.21 C 1204.97 1712.28 1209.62 1708.46 1215.99 1704.13 C 1218.24 1707.59 1220.67 1710.93 1223.25 1714.15 C 1245.43 1741.81 1277.14 1747.14 1309.8 1750.62 C 1316.97 1746.2 1326.65 1741.52 1334.21 1737.73 C 1294.91 1728.76 1271.09 1715.02 1244.69 1684.57 C 1251.81 1680.43 1253.4 1677.54 1261.87 1673.79 C 1279.85 1695.83 1296.98 1708.58 1324.71 1716.88 C 1353.97 1725.65 1364.39 1724.59 1390.67 1710.39 C 1357.75 1698.83 1330.58 1679.6 1311.35 1650.03 C 1316.41 1648.14 1323.57 1644.34 1328.59 1641.85 C 1342.46 1660.11 1352.8 1673.04 1373.66 1683.75 C 1388.88 1691.56 1413.19 1700.11 1429.92 1694.6 C 1441.78 1690.7 1453.14 1685.7 1465.61 1681.73 C 1463.62 1681.24 1461.65 1680.72 1459.68 1680.17 C 1427.17 1671.16 1393.67 1651.34 1376.68 1621.36 L 1395.23 1611.5 C 1408.07 1640.57 1431.93 1653.03 1461 1661.91 C 1490.83 1671.01 1509.21 1661.34 1534.76 1646.77 C 1533.98 1646.69 1533.2 1646.58 1532.43 1646.47 C 1499.04 1641.49 1463.22 1619.56 1443.54 1592.83 C 1449.67 1589.54 1455.74 1586.14 1461.75 1582.65 C 1479.25 1605.74 1492.99 1618.76 1522.14 1626.25 C 1557.59 1635.36 1573.84 1628.58 1604.11 1610.63 C 1570.08 1597.46 1540.42 1588.7 1517.32 1559.52 C 1523.02 1556.01 1529.29 1551.6 1534.91 1547.84 C 1553.83 1576.3 1593.65 1589.04 1625.22 1598.76 C 1638.98 1591.51 1651.12 1581.39 1665.46 1573.53 C 1641.24 1560.5 1596.88 1542.43 1581.23 1522.39 C 1587.55 1518.56 1593.83 1514.68 1600.09 1510.76 C 1615.34 1530.9 1632.16 1535.62 1654.11 1546.84 C 1663.8 1551.8 1671.39 1556.22 1680.49 1561.99 C 1692.76 1552.9 1711.14 1537.13 1722.89 1527.05 C 1711.11 1518.62 1702.71 1512.81 1689.59 1506.11 C 1674.31 1498.31 1656.22 1493.83 1643.54 1482.53 C 1649.5 1478.3 1654.78 1473.48 1660.27 1468.66 C 1673.75 1481.08 1692.34 1488.17 1708.43 1497.12 C 1719.13 1503.07 1726.84 1507.97 1736.9 1514.78 C 1749.42 1502.16 1761.49 1489.1 1773.09 1475.63 C 1747.03 1449.84 1730.08 1443.11 1697.62 1429.04 C 1702.03 1423.8 1705.54 1417.6 1709.13 1411.73 C 1740.48 1428.25 1756.61 1437.69 1784.37 1459.8 C 1793.46 1446.28 1801.95 1433.68 1809.54 1419.22 C 1797.44 1405.43 1785.4 1389.98 1768.1 1382.62 C 1759.6 1379 1750.19 1376.66 1742.37 1371.73 C 1745.98 1367.07 1749.85 1360.96 1753.2 1355.96 C 1781.45 1365.79 1801.07 1382.02 1820.58 1403.71 C 1828.34 1387.05 1834.96 1367.06 1840.79 1349.64 C 1817.14 1321.5 1810.98 1318.24 1776.68 1305.24 C 1778.26 1299.52 1780.16 1293.8 1781.96 1288.14 C 1809.9 1295.73 1828.32 1308.51 1848.25 1329.06 C 1853.31 1314.06 1857.52 1291.54 1859.79 1275.75 C 1837.82 1249.06 1829.33 1246.13 1798.23 1235.02 L 1802.66 1217.1 C 1829.03 1224.41 1841.8 1234.07 1862.33 1250.56 C 1863.9 1234.58 1864.57 1223 1864.39 1207.17 C 1856.28 1195.69 1843.4 1179.93 1830.89 1173.03 C 1823.79 1169.11 1816.18 1166.83 1808.65 1162.08 C 1807.72 1160.22 1809.97 1146.44 1810.34 1142.62 C 1833.17 1150.57 1847.8 1162.71 1864.34 1179.46 C 1862.76 1169.86 1859.86 1147.54 1857.08 1139.78 C 1850.34 1133.34 1836.57 1121.52 1828.78 1117.3 C 1823.92 1114.67 1817.16 1113.84 1810.5 1109.8 C 1808.53 1107.52 1807.91 1092.84 1807.48 1088.65 C 1825.79 1094.28 1840.8 1103.1 1856.09 1114.36 C 1841.97 1091.01 1830.45 1082.78 1803.77 1075.57 C 1803.5 1068.89 1801.58 1060.63 1800.24 1053.93 C 1818.71 1059.11 1831 1064.93 1845.99 1076.52 C 1844.29 1073.2 1836.69 1057.03 1835.98 1054.44 C 1831.1 1036.5 1790.54 974.317 1789.71 960.988 z" fill="rgb(8,18,50)" transform="translate(0,0)"></path>
<path d="M 660.482 753.833 C 662.699 757.393 666.713 803.017 667.391 809.971 C 670.477 841.62 700.004 1155.97 694.514 1162 L 690.25 1162.02 C 678.048 1162.13 665.239 1162.82 652.987 1163.31 C 655.452 1128.02 654.614 1080.59 654.995 1044.73 L 658.327 847.925 C 659.01 816.312 658.713 785.427 660.482 753.833 z" fill="rgb(8,18,50)" transform="translate(0,0)"></path>
<path d="M 590.587 739.758 C 591.348 751.573 533.676 927.471 525.246 954.216 C 498.725 1036.91 473.1 1119.9 448.377 1203.15 L 423.753 1194.4 C 419.355 1192.71 415.882 1191.09 411.65 1189.1 C 425.497 1159.36 438.996 1120.95 451.641 1089.9 L 546.781 850.869 C 561.59 813.307 574.744 777.018 590.587 739.758 z" fill="url(#Gradient1)" transform="translate(0,0)"></path>
<path d="M 477.15 779.989 L 477.41 780.905 C 475.408 786.027 452.683 814.266 447.762 820.919 C 391.241 896.865 333.302 971.747 273.976 1045.52 C 268.317 1041.49 262.08 1036.47 256.5 1032.19 L 241.322 1021.57 C 249.074 1015.15 259.128 1003.85 266.693 996.506 C 288.449 975.389 309.054 953.163 330.016 931.271 L 477.15 779.989 z" fill="rgb(8,18,50)" transform="translate(0,0)"></path>
<path d="M 997.248 442.356 C 1051.89 435.799 1106.6 429.794 1161.36 424.341 C 1184.43 421.854 1224.99 415.685 1246.56 414.695 C 1246.76 423.9 1246.89 433.107 1246.95 442.314 C 1196.67 443.824 1146.28 442.63 1096.04 443.292 L 1038.2 444.267 C 1032.26 444.36 1014.55 444.869 1009.4 444.137 C 1004.66 443.531 1001.81 444.371 997.248 442.356 z" fill="rgb(8,18,50)" transform="translate(0,0)"></path>
<path d="M 1105.57 296.872 L 1106.4 296.88 C 1109.11 299.221 1114.72 322.503 1115.86 326.929 C 1039.78 341.639 959.906 364.228 885.797 386.921 C 881.286 388.408 878.097 388.891 873.468 389.731 C 886.028 384.163 900.679 378.895 913.662 373.431 C 977.247 346.669 1041.93 323.498 1105.57 296.872 z" fill="rgb(8,18,50)" transform="translate(0,0)"></path>
<path d="M 751.529 777.562 C 755.506 781.453 817.146 909.27 824.04 923.634 L 812.33 927.843 L 787.399 938.126 C 785.669 924.125 779.398 899.736 776.231 885.564 L 751.529 777.562 z" fill="rgb(8,18,50)" transform="translate(0,0)"></path>
<path d="M 870.507 125.53 C 878.738 130.375 886.076 135.752 893.691 141.484 C 853.016 182.193 813.067 223.621 773.865 265.749 L 760.817 279.833 C 772.872 258.268 798.278 226.043 813.011 204.966 C 830.963 179.284 850.955 149.621 870.507 125.53 z" fill="rgb(8,18,50)" transform="translate(0,0)"></path>
<path d="M 986.007 203.918 C 991.378 208.516 998.666 216.786 1003.69 222.161 C 978.629 237.927 952.245 252.482 926.558 267.342 L 819.5 329.212 C 815.061 331.97 813.548 333.11 808.566 334.786 C 810.308 332.715 820.047 326.345 822.959 324.169 C 842.883 309.279 863.563 295.408 883.797 280.956 C 918.611 256.279 952.695 230.589 986.007 203.918 z" fill="rgb(8,18,50)" transform="translate(0,0)"></path>
<path d="M 353.832 751.051 L 354.563 751.644 C 347.916 759.345 339.44 767.296 332.26 774.714 C 310.203 797.56 287.678 819.949 264.699 841.868 C 250.037 856.058 232.082 872.727 218.55 887.58 C 215.559 884.943 212.598 881.636 209.837 878.711 C 206.971 875.679 203.084 872.341 199.942 869.475 C 247.011 829.807 304.39 790.23 353.832 751.051 z" fill="rgb(8,18,50)" transform="translate(0,0)"></path>
<path d="M 255.87 718.072 L 256.195 718.274 L 256.186 719.196 L 101.687 806.511 C 99.4774 804.041 96.9657 800.363 94.9689 797.621 C 90.1042 791.464 88.3545 789.511 85.3386 782.255 C 98.1526 779.69 133.896 766.056 147.4 760.939 C 183.83 747.351 219.994 733.059 255.87 718.072 z" fill="rgb(8,18,50)" transform="translate(0,0)"></path>
<path d="M 722.681 135.228 C 728.264 137.52 732.892 139.226 738.02 142.449 C 729.152 163.277 720.081 186.328 710.76 206.74 C 710.094 205.683 705.79 202.403 704.547 201.389 C 710.317 180.141 717.699 156.135 722.681 135.228 z" fill="rgb(8,18,50)" transform="translate(0,0)"></path>
<path d="M 940.644 1649.29 C 949.765 1648.82 954.705 1649.25 963.898 1650.08 L 963.864 1666.07 C 951.058 1665.81 945.857 1665.57 933.641 1668.61 C 928.799 1670.57 923.685 1673.02 918.898 1675.2 C 916.455 1668.13 916.018 1664.76 914.878 1657.39 C 924.979 1652.49 929.55 1651.03 940.644 1649.29 z" fill="rgb(8,18,50)" transform="translate(0,0)"></path>
<path d="M 943.692 1693.12 C 953.675 1692.7 958.281 1692.83 967.987 1695.42 C 969.789 1700.08 971.474 1706.08 972.982 1710.94 C 966.942 1711.6 960.833 1711.61 954.751 1711.77 C 948.321 1711.98 943.455 1713.44 937.362 1715.15 C 934.23 1709.66 931.906 1705.02 929.15 1699.32 C 934.944 1696.34 937.563 1695.27 943.692 1693.12 z" fill="rgb(8,18,50)" transform="translate(0,0)"></path>
<path d="M 704.547 201.389 C 705.79 202.403 710.094 205.683 710.76 206.74 C 703.747 223.874 696.579 240.943 689.255 257.946 C 692.977 240.183 699.818 219.511 704.547 201.389 z" fill="rgb(9,8,10)" transform="translate(0,0)"></path>
<path d="M 978.806 444.741 C 985.025 443.709 990.989 443.061 997.248 442.356 C 1001.81 444.371 1004.66 443.531 1009.4 444.137 C 999.803 445.344 988.474 445.205 978.806 444.741 z" fill="rgb(9,8,10)" transform="translate(0,0)"></path>
<metadata><recraft-signature>{"signed_by": "recraft", "signature_b64": "Cx49IE+/vQ5i0aHXAHtNtesiiZR/pc8RHR5WBhZxP6MskxRwcg4+UBTPnVVA9SbEkZkNYpmrXSBl5Ctp/yZ6Aw==", "signing_algo": "Ed25519", "generation_timestamp": 1777331477, "identifier": "a19f68bf-db08-4690-afe5-f96915a9afb0"}</recraft-signature></metadata></svg>