<svg xmlns="http://www.w3.org/2000/svg" height="1024" preserveAspectRatio="none" style="display: block;" version="1.1" viewBox="0 0 2048 2048" width="1024">
<path d="M 0 0 L 2048 0 L 2048 2048 L 0 2048 L 0 0 z" fill="rgb(255,255,255)" transform="translate(0,0)"></path>
<path d="M 1023.35 30.5823 C 1026.19 31.5416 1115.06 119.437 1124.21 128.3 C 1189.02 89.6857 1190.74 186.241 1215.33 217.064 C 1231.54 237.364 1258.6 262.851 1277.33 282.058 C 1438.7 444.697 1600.9 606.515 1763.92 767.506 C 1851.6 852.656 1938.4 938.714 2024.3 1025.67 C 1977.84 1074.55 1926.27 1123.78 1878.26 1171.51 L 1578.38 1468.74 C 1578.06 1473.8 1577.98 1479.63 1577.81 1484.73 C 1611.82 1459.34 1628.89 1443.67 1673.72 1439.42 C 1712.58 1435.74 1749.91 1449.86 1779.73 1475.01 C 1770.09 1472.1 1752.82 1466.32 1743.24 1466.47 C 1721.13 1466.81 1690.71 1492.7 1691.87 1516.03 C 1692.31 1524.96 1696.23 1530.24 1702.46 1535.97 C 1801.42 1530.16 1895.05 1550.53 1957.34 1635.01 C 1872.35 1581.59 1799.28 1576.65 1710.31 1623.34 C 1739.81 1630.48 1764.41 1642.75 1787.5 1662.64 C 1819.09 1689.86 1835.43 1728.73 1802.93 1763.45 C 1803.45 1741.2 1795.83 1729.13 1777.45 1717.19 C 1734.33 1689.17 1683.16 1686.81 1634.8 1701.39 C 1607.79 1709.53 1580.29 1720.57 1552.53 1726.33 C 1497.01 1736.45 1447.14 1732.88 1399.48 1701.23 C 1424.08 1692.69 1442.72 1685.82 1468.2 1680.38 C 1439.66 1678.56 1397.36 1679.8 1367.15 1679.41 L 1077.67 1967.63 C 1060.65 1984.64 1041.57 2004.7 1023.82 2020.28 C 995.591 1994.98 961.035 1958.51 933.674 1931.23 L 776.919 1774.8 C 757.341 1755.16 737.66 1735.63 717.876 1716.19 C 706.157 1704.62 693.047 1690.75 680.653 1680.36 C 664.482 1679.77 648.542 1679.98 632.372 1680.1 L 631.999 1714.49 C 544.075 1761.11 454.094 1701.4 364.896 1697.45 C 331.257 1695.96 288.107 1702.61 261.087 1725.39 C 249.026 1735.57 246.427 1748.07 246.121 1762.86 C 239.709 1756.2 234.213 1747.31 231.753 1738.37 C 213.853 1673.27 286.796 1637.28 335.806 1622.25 C 325.004 1615.38 310.022 1608.67 297.833 1604.87 C 224.342 1581.92 167.457 1590.64 100.639 1624.04 C 139.347 1566.16 210.903 1540.53 277.808 1537.24 C 302.286 1536.04 326.594 1537.79 350.985 1539.52 C 382.695 1478.41 312.786 1466 268.845 1470.4 C 291.751 1455.53 327.076 1440.18 354.013 1436.66 C 399.926 1430.66 436.454 1453.92 471.039 1480.6 L 471.075 1469.47 C 446.163 1443.82 420.797 1420.09 395.582 1394.98 C 302.949 1304.56 211.074 1213.36 119.967 1121.39 C 89.2866 1090.31 53.7029 1057.75 24.834 1025.62 L 706.483 345.048 L 912.096 140.154 C 945.112 107.193 989.066 60.5172 1023.35 30.5823 z" fill="rgb(21,25,62)" transform="translate(0,0)"></path>
<path d="M 1023.74 54.7176 C 1035.88 64.9952 1107.55 136.003 1111.26 143.952 C 1113.17 148.026 1109.66 157.491 1111.15 162.858 C 1115.39 178.086 1123.16 193.262 1129.53 207.756 C 1124.18 202.918 1118.58 197.13 1113.56 191.923 C 1084.14 161.424 1052.63 132.623 1023.05 102.362 C 991.169 135.693 956.43 168.878 923.671 201.768 L 690.703 433.961 L 357.192 767.405 L 179.449 944.533 C 163.847 960.124 148.166 975.636 132.408 991.069 C 121.287 1002.01 108.229 1014.31 98.3314 1026.18 C 113.672 1040.41 128.951 1056.79 143.67 1071.81 C 162.322 1090.67 181.074 1109.43 199.924 1128.09 L 364.107 1290.83 C 415.816 1342.89 468.242 1394.24 521.372 1444.86 C 558.761 1445.41 596.805 1444.22 634.32 1445.45 C 640.828 1445.67 656.568 1444.12 661.191 1439.1 C 665.002 1434.97 663.342 1427.58 662.768 1422.13 C 655.2 1409.08 647.99 1409.42 639.452 1399.28 C 641.486 1389.43 641.902 1388.34 635.563 1379.86 C 632.374 1375.6 628.92 1370.84 625.691 1366.53 C 634.275 1359.22 643.829 1354.53 653.5 1349.05 C 693.312 1326.51 736.802 1315.73 780.583 1302.99 C 794.04 1309.5 810.713 1311.1 811.797 1291.77 C 830.356 1288 833.474 1288.92 846.918 1275.75 C 867.642 1273.49 882.738 1270.47 887.821 1247.08 C 889.416 1241.14 890.942 1234.51 894.451 1229.35 C 927.351 1180.97 954.149 1130.88 981.847 1079.56 C 1011.56 1092.71 1077.61 1137.7 1104.07 1158.28 C 1125.61 1157.5 1117.48 1165.58 1128.68 1180.08 L 1129.49 1181.1 C 1130.9 1196.81 1135.57 1199.37 1140.3 1213.51 C 1144.73 1226.78 1148.75 1227.38 1161.26 1229.97 C 1165.38 1243.64 1171.4 1256.34 1176.77 1269.58 C 1181.97 1282.74 1186.66 1296.09 1190.85 1309.61 C 1202.65 1348.38 1212.39 1385.15 1215.86 1425.27 C 1218.24 1452.7 1312.5 1448.54 1333.01 1445.13 C 1336.64 1444.53 1342.35 1440.53 1343.61 1437.02 C 1351.39 1415.51 1317.83 1405.82 1305.78 1394.64 C 1251.03 1350.88 1264.28 1274.26 1245.05 1212.24 C 1248.86 1207.39 1249.35 1205.89 1251.65 1200.31 C 1249.07 1188.94 1247.62 1185.11 1242.69 1174.47 C 1248.22 1164.06 1245.14 1162.59 1238.5 1154.21 C 1237.16 1130.39 1231.11 1117.66 1215.43 1099.38 C 1212.91 1096.45 1208.79 1091.62 1206.71 1088.43 C 1177.73 1044.14 1145.17 1000.66 1104.44 966.52 C 1102.48 964.881 1096.03 962.659 1093.39 961.722 C 1092.82 947.676 1084.35 939.363 1073.57 932.107 C 1073.75 931.645 1075.89 925.763 1075.75 925.991 C 1078.86 920.906 1077.48 906.67 1079.18 903.28 C 1085.15 891.375 1092.86 878.372 1097.74 865.944 C 1110.35 833.84 1120.61 800.188 1130.94 767.294 C 1150.78 774.352 1203.72 792.079 1223.7 789.294 C 1245.7 786.228 1297.65 748.307 1315.11 731.936 C 1323.06 724.479 1330.57 715.82 1337.57 707.477 C 1342.72 706.875 1349.97 705.35 1355.26 704.38 C 1355.1 712.604 1354.84 721.036 1355.01 729.127 C 1355.33 758.093 1384.66 760.179 1403.56 745.037 C 1429.11 724.574 1427.26 690.363 1402.23 670.652 C 1411.49 651.178 1393.27 642.472 1386.5 624.6 C 1384.03 618.085 1380.37 595.623 1376.44 591.724 C 1367.99 583.356 1357.95 573.074 1349.13 564.992 C 1341.06 539.294 1325.69 503.408 1315.63 476.892 L 1233.51 263.27 C 1247 275.468 1262.85 292.476 1276.16 305.767 L 1362.89 392.841 C 1435.05 465.629 1507.57 538.052 1580.46 610.109 L 1869.43 897.038 C 1910.92 938.488 1959.43 983.926 1998.81 1026.8 C 1890.61 1135.2 1781.79 1242.98 1672.36 1350.14 C 1650.89 1371.31 1629.61 1392.68 1608.51 1414.23 C 1597.06 1425.83 1576.91 1446.94 1564.07 1456.04 C 1555.48 1456.1 1547.83 1455.74 1539.25 1455.29 L 1521.75 1454.89 C 1540.93 1434.28 1565.9 1410.65 1586.05 1390.56 L 1718.12 1259.26 L 1866.1 1112.4 C 1894.59 1083.99 1923.32 1054.01 1952.47 1026.45 L 1302.46 381.332 C 1298.25 384.902 1293.63 388.44 1289.28 391.884 C 1294.91 398.693 1304.86 408.086 1311.29 414.568 C 1325.63 429.145 1340.1 443.599 1354.7 457.93 L 1451.85 555.141 L 1784.56 885.008 L 1873.94 974.397 C 1891.5 991.904 1909.23 1008.49 1926.01 1026.75 C 1913.64 1040.51 1896.19 1057.26 1882.84 1070.61 L 1786.75 1165.63 L 1479.11 1471.22 C 1505.08 1471.55 1534.09 1471.35 1559.77 1472.72 C 1560.87 1534.33 1559.66 1599.51 1559.93 1661.65 C 1536.88 1662.55 1513.66 1661.96 1490.57 1662.03 L 1357.98 1662.57 C 1349.25 1672.75 1336.71 1684.45 1327.02 1693.92 C 1312.9 1707.65 1298.9 1721.51 1285.03 1735.49 C 1234.06 1787.11 1182.68 1838.32 1130.89 1889.1 L 1067.82 1951.78 C 1054.37 1965.36 1038.23 1982.97 1023.64 1994.47 C 1006.14 1978.79 987.468 1959.31 970.734 1942.62 L 895.882 1868.3 L 689.602 1663.06 C 623.725 1661.43 555.429 1662.97 489.021 1662.12 L 489.611 1462.28 C 469.683 1441.35 447.229 1420.48 426.455 1400.1 L 334.901 1309.22 L 49.9535 1026.66 C 84.1678 990.415 125.44 951.206 161.087 915.573 C 239.345 836.119 318.324 757.379 398.014 679.361 C 605.523 470.082 814.101 261.864 1023.74 54.7176 z" fill="rgb(255,255,255)" transform="translate(0,0)"></path>
<path d="M 1501.69 834.41 C 1502.06 834.35 1502.43 834.289 1502.81 834.228 C 1556.79 830.733 1610.38 844.579 1651.76 879.733 C 1690.9 912.996 1717.65 964.187 1721.6 1014.67 C 1725.8 1063.55 1710.25 1112.07 1678.42 1149.39 C 1640.74 1193.31 1593.25 1213.92 1536.25 1218.22 C 1495.13 1222.08 1444.64 1207.14 1409.97 1185.55 C 1307.48 1121.74 1282.41 998.975 1361.37 905.454 C 1396.92 864.165 1447.37 838.624 1501.69 834.41 z" fill="rgb(21,25,62)" transform="translate(0,0)"></path>
<path d="M 1526.27 846.015 C 1531.6 847.514 1550.97 854.12 1555.3 850.813 C 1555.94 850.324 1556.87 848.922 1557.37 848.219 C 1567.96 844.836 1600.04 858.471 1609.73 863.416 C 1658.14 888.123 1691.32 930.185 1705.91 982.222 C 1707.56 988.122 1710.97 997.23 1709.95 1003.41 C 1707.4 995.852 1704.46 983.858 1698.58 979.079 C 1695.95 978.916 1696.99 978.459 1695.2 979.988 C 1695.58 988.219 1702.83 999.38 1700.09 1005.31 C 1697.52 1006.27 1698.76 1006.33 1696.31 1005.65 C 1692.81 997.571 1687.09 977.924 1676.69 979.522 C 1675.62 981.25 1674.88 982.833 1676.06 984.739 C 1682.11 994.45 1684.27 995.366 1685.95 1007.26 L 1670.25 1011.06 C 1666.5 1003.61 1659.53 989.072 1651.42 985.975 C 1648.45 986.477 1648.16 987.049 1645.78 988.891 C 1645.3 993.451 1656.53 1005.35 1660.5 1013.26 L 1640.71 1021.67 C 1636.73 1013.89 1633.64 1006.55 1624.75 1003.51 C 1621 1002.23 1616.35 1001.71 1614.29 1005.7 C 1616.08 1010.38 1626.91 1016.36 1632.28 1022.27 L 1633.47 1023.56 C 1633.7 1023.83 1633.93 1024.09 1634.16 1024.35 L 1616.98 1033.89 C 1612.36 1028.07 1606.9 1020.49 1598.99 1019.21 C 1594.83 1018.54 1589.87 1021.34 1588.88 1025.55 C 1595.32 1031.48 1600.19 1028.85 1609.63 1039.43 C 1604.62 1043.49 1600.68 1046.59 1595.38 1050.27 C 1587.81 1044.93 1570.94 1035.31 1564.56 1046.13 C 1565.19 1050.91 1579.8 1053.12 1586.23 1057.62 L 1572.22 1071.49 C 1564.94 1066.2 1552.33 1060.43 1544.2 1067.44 L 1543.8 1069.2 C 1548.13 1075.6 1557.29 1074.52 1565.83 1078.18 C 1562.07 1083.56 1558.85 1087.82 1554.74 1092.94 C 1546.97 1090.32 1530.61 1086.29 1524.43 1093.84 L 1525.08 1097.03 C 1532.35 1100.46 1539.61 1098.8 1548.13 1100.28 C 1545.64 1104.81 1540.86 1114.23 1537.66 1117.6 C 1536.44 1117.11 1534.87 1115.93 1534.46 1115.75 C 1529.7 1113.6 1519.23 1113.07 1514.17 1114.27 C 1511.01 1115.02 1509.94 1118.85 1511.55 1121.85 C 1516.01 1123.69 1527.4 1124.49 1532.96 1125.44 C 1531.01 1130.4 1529.27 1134.93 1526.94 1139.75 C 1518.05 1136.52 1508.82 1133.95 1499.34 1136.75 L 1497.6 1138.33 C 1497.67 1142.13 1497.21 1140.34 1499.41 1143.8 C 1503.11 1145.98 1516.07 1147 1522.04 1148.71 C 1520.95 1152.08 1519.64 1157.66 1517.02 1159.8 C 1511.51 1167.68 1514.03 1167.67 1503.48 1168.11 C 1508.19 1168.84 1509.57 1168.02 1512.35 1170.67 C 1513.31 1174.52 1510.25 1180.28 1508.63 1184.31 C 1499.38 1183.08 1490.28 1181.6 1481.64 1186.3 L 1481.14 1188.27 C 1484.41 1193.11 1500.39 1193.22 1506.12 1193.58 C 1505.08 1197.58 1505.17 1200.16 1502.51 1202.51 C 1447.92 1209.12 1382.46 1162.46 1353.6 1119.24 C 1341.07 1100.45 1332.17 1079.48 1327.36 1057.42 C 1326.58 1053.69 1324.23 1047.52 1328.19 1045.91 C 1333.45 1050.79 1333.27 1064.92 1340.35 1067.88 C 1342.51 1066.8 1341.85 1066.96 1343.45 1064.58 C 1343.5 1060.78 1338.36 1048.93 1336.71 1044.66 C 1339.86 1043.42 1345.48 1041.02 1348.19 1042.19 C 1350.36 1048.25 1353.67 1061.03 1360.86 1062.43 C 1367.25 1057.82 1360.21 1045.14 1356.94 1040.03 L 1356.51 1037.7 C 1360.35 1034.66 1365.44 1033.23 1370.2 1031.99 C 1372.99 1038.49 1376.82 1050.46 1382.91 1053.11 C 1386.47 1052.61 1384.93 1053.3 1387.68 1050.97 C 1388.82 1045.4 1380.33 1033.82 1377.68 1027.54 L 1391.03 1019.5 C 1394.17 1027.26 1399.02 1039.98 1408.78 1039.85 C 1411.57 1037.88 1410.77 1039.15 1411.51 1036.07 C 1408.35 1028.15 1403.38 1024.58 1398.98 1013.8 C 1403.16 1010.88 1407.78 1007.48 1412.04 1004.78 C 1419.04 1011.27 1425.91 1020.64 1433.95 1022.62 L 1436.23 1020.99 C 1435.88 1011.61 1426.5 1002.53 1418.7 998.263 C 1423.27 994.594 1427.53 990.953 1432.52 987.874 C 1439.84 991.888 1447.93 1001.34 1455.11 1000.81 C 1457.96 998.406 1457.18 999.861 1457.89 996.513 C 1455.74 989.298 1446.31 982.825 1440.03 978.959 L 1454.76 967.391 C 1462.04 970.33 1469.64 977.519 1474.99 979.063 C 1478.33 977.175 1477.17 978.511 1478.53 974.878 C 1477.86 966.718 1465.72 962.498 1459.04 960.206 L 1465.63 951.637 C 1474.71 952.439 1491.77 957.655 1496.04 955.943 C 1497.76 953.738 1497.46 954.973 1497.41 952.316 C 1492.97 943.258 1481.29 943.005 1472.56 942.738 L 1481.19 929.813 C 1487.7 930.214 1490.67 930.348 1496.94 932.548 C 1503.48 934.844 1505.67 937.778 1509.95 931.356 C 1509.68 922.985 1493.41 921.476 1487.09 920.824 C 1489.83 916.235 1492.68 911.572 1495.35 906.956 C 1502.02 908.457 1519.24 914.278 1523.86 911.97 C 1529.97 899.928 1505.68 900.122 1498.77 900.95 C 1501.65 895.826 1504.51 890.563 1507.61 885.575 C 1514.32 886.421 1533.34 890.871 1537.5 889.149 C 1539.59 878.979 1518.31 877.19 1511.07 878.858 L 1517.55 866.797 L 1519.02 866.851 C 1527.12 867.19 1540.52 871.829 1544.47 869.95 C 1547.36 866.37 1546.82 868.261 1547.15 864.422 C 1543.84 859.262 1533 857.841 1527.2 857.182 L 1519.48 863.324 L 1526.27 846.015 z" fill="rgb(255,255,255)" transform="translate(0,0)"></path>
<path d="M 1503.48 1168.11 C 1497.94 1168.25 1489.67 1169.72 1488.31 1163.02 C 1493.34 1154.02 1509.05 1158.11 1517.02 1159.8 C 1511.51 1167.68 1514.03 1167.67 1503.48 1168.11 z" fill="rgb(21,25,62)" transform="translate(0,0)"></path>
<path d="M 1693.4 1012.66 C 1695.51 1010.47 1694.27 1011.16 1697.27 1010.55 C 1706.68 1014.67 1702.59 1026.03 1708.05 1030.83 L 1711.62 1030.78 L 1713 1030.85 C 1713.17 1038.92 1712.62 1046.99 1711.36 1054.96 C 1703.86 1102.54 1677.69 1145.16 1638.66 1173.39 C 1613.72 1191.39 1582.79 1203.49 1552.47 1207.16 C 1545.47 1208.01 1538.69 1209.81 1531.65 1208.69 C 1532.6 1206.72 1532.2 1207.77 1532.82 1205.53 C 1528.33 1203.24 1514.54 1204.08 1508.92 1204.14 L 1511.82 1193.85 C 1518.58 1194.86 1525.32 1195.95 1532.06 1197.11 C 1535.42 1194.52 1537.1 1193.67 1539.11 1190.08 C 1539.09 1183.18 1520.89 1185.81 1514.86 1185.8 L 1520.44 1170.57 C 1528.31 1171.73 1539.23 1173.66 1545.9 1168.01 L 1545.94 1166.44 C 1541.36 1161.26 1531.8 1161.57 1524.8 1160.85 C 1528.19 1150.96 1532.67 1141.62 1537.39 1132.32 C 1537.94 1133.2 1538.49 1134.06 1539.05 1134.93 C 1541.71 1139.02 1547.82 1147.91 1553.58 1144.13 C 1555.88 1135.71 1546.98 1128.36 1541.73 1123 C 1545.04 1116.58 1548.23 1111.87 1552.23 1105.83 C 1556.81 1110.29 1562.17 1120.88 1567.65 1120.85 C 1570.91 1119.04 1569.8 1120.32 1571.19 1116.96 C 1570.3 1109.72 1563.2 1102.46 1558.51 1096.66 L 1571.17 1081.38 C 1576.92 1087.08 1581.79 1100.21 1589.56 1099.1 C 1594.59 1090.41 1583.89 1079.09 1577.12 1074.5 C 1581.74 1069.66 1586.31 1065.39 1591.19 1060.81 C 1600.45 1069.99 1597.88 1077.73 1604.64 1081.38 C 1610.78 1080.54 1609.09 1074 1608.65 1069.02 C 1608.03 1062.01 1605.16 1058.36 1599.66 1054.15 C 1604.6 1050.36 1610.12 1046.52 1615.21 1042.85 C 1619.01 1049.25 1623.16 1065.5 1628.52 1066.52 C 1636.4 1058.12 1628.84 1044.44 1622.34 1037.7 C 1627.68 1034.66 1633.64 1031.78 1639.16 1028.99 C 1641.76 1034.63 1644.41 1052.26 1648.71 1053.84 C 1657.25 1046.18 1652.4 1032.78 1646.38 1025.19 C 1651.63 1022.61 1657.15 1020.42 1662.56 1018.17 C 1665.14 1026.43 1665.46 1040.86 1670.07 1044.9 C 1673.4 1045.02 1672.05 1045.56 1674.37 1043.51 C 1677.3 1035.15 1674.21 1023.27 1671.6 1015 C 1675.92 1013.85 1680.55 1012.21 1684.88 1012.57 C 1689.09 1013.45 1689.29 1013.57 1693.4 1012.66 z" fill="rgb(255,255,255)" transform="translate(0,0)"></path>
<path d="M 1693.4 1012.66 C 1694.31 1018.79 1696.94 1036.39 1689.6 1038.84 C 1683.83 1034.22 1684.88 1019.6 1684.88 1012.57 C 1689.09 1013.45 1689.29 1013.57 1693.4 1012.66 z" fill="rgb(21,25,62)" transform="translate(0,0)"></path>
<path d="M 1495.47 845.31 C 1504.84 844.627 1510.44 844.711 1519.89 845.113 C 1518 851.745 1516.88 854.703 1514.09 861.028 C 1506.77 852.348 1503.04 848.924 1490.88 847.354 L 1490.18 849.999 L 1489.51 848.574 C 1492.25 855.613 1502.66 860.851 1508.97 867.352 L 1509.87 868.29 C 1508.5 871.667 1506.89 875.117 1505.41 878.46 C 1500.46 874.053 1492.16 864.622 1485.34 867.168 C 1483.54 870.031 1483.52 869.789 1483.71 873.135 C 1485.27 875.4 1495.18 880.392 1500.02 884.497 L 1501.17 885.484 L 1495.01 896.361 C 1494.37 895.652 1493.7 894.954 1493.03 894.268 C 1488.8 890.002 1482.98 887.701 1476.97 887.92 C 1474.28 888.026 1474.72 888.155 1473.13 889.852 C 1472.85 892.013 1473.24 892.191 1473.86 894.532 C 1475.71 896.839 1475.83 896.911 1478.75 897.71 L 1485.36 899.502 C 1490.88 904.864 1485.35 911.222 1482.02 916.689 C 1477.12 911.198 1469.52 904.476 1461.6 907.979 C 1459.51 910.96 1460.27 909.296 1459.88 913.416 C 1462.87 918.116 1475.38 918.926 1475.65 923.747 C 1475.89 928.004 1468.05 938.37 1465.43 942.256 C 1460.67 935.421 1455.92 929.733 1447.04 929.946 C 1443.89 931.615 1444.78 930.398 1443.43 933.059 C 1444.37 939.535 1452.43 942.119 1458.88 948.301 L 1459.78 949.185 C 1455.96 955.577 1450.85 961.338 1445.67 966.637 C 1442.92 962.715 1440.14 958.403 1437.25 954.651 C 1433.28 949.49 1425.89 950.883 1425.03 957.898 C 1426.44 960.56 1435.26 967.832 1438.35 970.794 C 1433.91 977.176 1427.82 982.747 1422.24 988.229 C 1420.27 982.09 1416.9 971.276 1409.19 971.039 L 1407.78 973.058 C 1406.96 982.238 1410.03 985.181 1414.82 993.545 L 1407.75 1000.12 L 1399.55 1006.36 C 1397.8 1000.26 1395.65 987.866 1388.15 986.807 C 1382.78 993.088 1388.49 1005.09 1391.06 1011.44 C 1386.23 1014.96 1381.75 1017.48 1376.59 1020.47 C 1375.23 1014.94 1373.53 1002.77 1367.87 1000.59 L 1366.26 1001.93 C 1363.57 1011.3 1365.54 1015.43 1367.71 1025.15 L 1356.63 1029.96 C 1355.32 1024.86 1354.59 1012.13 1350.43 1010.45 L 1348.15 1011.75 C 1345.93 1015.56 1347.84 1028.02 1348.3 1033.04 C 1345.87 1035.5 1342.06 1036.59 1338.72 1037.88 C 1338.01 1032.43 1337.63 1018.82 1331.96 1017.42 L 1330.08 1018.69 C 1327.78 1026.79 1335.07 1038.23 1326.66 1041.83 C 1324.96 1040.36 1325.34 1041.21 1325.05 1039.32 C 1319.13 1000.08 1337.66 953.154 1360.56 922.147 C 1394.38 876.368 1440.08 853.492 1495.47 845.31 z" fill="rgb(255,255,255)" transform="translate(0,0)"></path>
<path d="M 1711.62 1030.78 C 1711.36 1025 1710.58 1017.84 1711.77 1012.43 C 1713.42 1019.39 1713.53 1023.7 1713 1030.85 L 1711.62 1030.78 z" fill="rgb(154,154,181)" transform="translate(0,0)"></path>
<path d="M 1286.57 1662.39 C 1294.67 1662.13 1302.38 1662.47 1310.47 1662.75 C 1306.38 1667.32 1300.91 1672.55 1296.5 1676.98 L 1098.39 1873.07 C 1074.18 1896.92 1048.61 1923.53 1024.15 1946.71 C 958.904 1880.83 890.622 1814.89 824.628 1749.3 L 768.609 1693.93 C 760.015 1685.33 746.902 1672.8 739.483 1663.59 L 740.428 1662.49 C 748.616 1662.27 754.786 1662.42 762.982 1662.86 C 784.108 1681.84 810.609 1710.11 831.016 1730.57 C 873.081 1772.54 915.375 1814.28 957.897 1855.78 C 979.356 1876.88 1002.12 1901.08 1024.23 1921.07 C 1048.22 1898.41 1071.64 1874.16 1095.01 1850.74 C 1141.59 1803.66 1188.66 1757.07 1236.22 1710.98 C 1247.69 1699.99 1275.76 1669.4 1286.57 1662.39 z" fill="rgb(21,25,62)" transform="translate(0,0)"></path>
<path d="M 1253.32 1504.68 C 1278.36 1499.76 1302.61 1516.13 1307.43 1541.18 C 1312.24 1566.23 1295.77 1590.42 1270.7 1595.13 C 1245.78 1599.81 1221.76 1583.46 1216.97 1558.56 C 1212.19 1533.65 1228.44 1509.57 1253.32 1504.68 z" fill="rgb(21,25,62)" transform="translate(0,0)"></path>
<path d="M 1256.3 1519.26 C 1273.09 1515.9 1289.42 1526.77 1292.79 1543.55 C 1296.16 1560.33 1285.3 1576.67 1268.52 1580.05 C 1251.73 1583.44 1235.38 1572.56 1232 1555.77 C 1228.63 1538.98 1239.51 1522.63 1256.3 1519.26 z" fill="rgb(255,255,255)" transform="translate(0,0)"></path>
<path d="M 863.375 1504.8 C 895.681 1504.29 936.537 1502.19 939.862 1548.04 C 940.814 1561.15 935.557 1571.59 926.653 1580.96 C 907.654 1596.52 887.259 1593.41 863.723 1593.24 L 863.375 1504.8 z" fill="rgb(21,25,62)" transform="translate(0,0)"></path>
<path d="M 878.983 1517.94 C 890.158 1517.79 900.613 1517.19 910.476 1523.54 C 928.71 1535.26 926.953 1555.16 915.607 1570.98 C 902.739 1581.37 894.948 1580.81 879.077 1579.97 L 878.983 1517.94 z" fill="rgb(255,255,255)" transform="translate(0,0)"></path>
<path d="M 1397.57 1504.41 C 1401.25 1504.38 1404.44 1503.91 1407.59 1505.57 C 1408.5 1512.75 1408.09 1529.58 1408.1 1537.64 L 1408.52 1593.45 C 1404.25 1593.64 1399.42 1593.51 1395.09 1593.5 C 1379.69 1573.55 1364.65 1553.32 1349.98 1532.83 C 1349.76 1540.96 1350.83 1589.77 1348.73 1593.34 L 1345.24 1593.83 C 1341.72 1593.84 1337.54 1594.33 1335.04 1592.26 C 1334.1 1585.26 1334.59 1570.48 1334.61 1562.85 L 1334.67 1504.79 L 1346.85 1504.66 C 1361.5 1522.5 1380.73 1548.97 1393.74 1568.08 C 1393.78 1561.57 1392.88 1507.38 1393.96 1505.13 L 1397.57 1504.41 z" fill="rgb(21,25,62)" transform="translate(0,0)"></path>
<path d="M 716.753 1504.83 C 734.714 1504.63 752.874 1504.79 770.852 1504.81 L 770.803 1518.06 L 732.011 1518.06 L 731.963 1541.3 C 743.017 1541.6 754.78 1541.48 765.893 1541.54 L 765.805 1555.46 C 755.885 1556.28 742.352 1555.66 731.696 1556.11 L 731.746 1580.16 C 742.935 1581.03 758.545 1580.77 770.094 1580.88 L 770.037 1593.73 C 752.529 1593.94 734.487 1593.64 716.939 1593.56 L 716.753 1504.83 z" fill="rgb(21,25,62)" transform="translate(0,0)"></path>
<path d="M 1121.19 1504.22 C 1131.82 1503.57 1138.5 1506.15 1147.99 1509.87 L 1145.45 1525.69 C 1139.73 1521.48 1129.25 1516.57 1122.5 1518 C 1103.24 1522.1 1111.34 1534.89 1123.89 1540.64 C 1142.2 1549.02 1162.52 1564.43 1145.62 1585.11 C 1139.27 1592.88 1133.11 1594.29 1123.42 1595.39 C 1110.79 1595.23 1106.56 1593.25 1095.61 1587.98 C 1097.19 1582.45 1097.98 1577.26 1098.97 1571.61 C 1106.49 1576.92 1110.41 1580.58 1120.54 1581.33 C 1129.14 1581.96 1137.09 1578.21 1134.53 1567.95 C 1130.9 1558.83 1117.8 1555.34 1109.75 1550.58 C 1095.82 1542.33 1091.69 1528.79 1100.25 1514.76 C 1104.19 1508.29 1113.79 1505.52 1121.19 1504.22 z" fill="rgb(21,25,62)" transform="translate(0,0)"></path>
<path d="M 951.444 1504.38 C 956.91 1504.35 962.726 1504.61 968.219 1504.75 C 974.15 1523.43 986.273 1549.97 993.712 1569.51 C 1002.32 1552.21 1013.54 1522.91 1020.36 1504.69 C 1025.7 1504.32 1031.39 1504.54 1036.76 1504.61 L 1029.21 1523.3 C 1024.62 1533.85 1001.98 1588.37 997.049 1593.31 C 993.93 1593.68 992.233 1594.18 989.264 1593.14 C 981.087 1579.98 960.645 1523.29 951.181 1506.92 C 951.269 1506.07 951.356 1505.22 951.444 1504.38 z" fill="rgb(21,25,62)" transform="translate(0,0)"></path>
<path d="M 598.014 1504.33 L 650.709 1504.65 L 650.732 1517.95 L 612.495 1517.97 C 612.344 1527.02 612.308 1534.15 612.886 1543.14 C 623.65 1543.91 634.244 1543.57 645.027 1543.4 L 645.108 1555.73 C 642.32 1557.65 617.744 1556.97 612.637 1556.96 L 612.73 1593.81 L 597.849 1593.9 L 598.014 1504.33 z" fill="rgb(21,25,62)" transform="translate(0,0)"></path>
<path d="M 794.382 1504.97 L 810.001 1504.98 C 809.972 1530.04 810.564 1555.34 810.208 1580.34 L 843.191 1580.39 L 843.242 1593.29 C 827.098 1593.67 810.95 1593.77 794.803 1593.58 C 794.482 1564.04 794.342 1534.51 794.382 1504.97 z" fill="rgb(21,25,62)" transform="translate(0,0)"></path>
<path d="M 1176.23 1504.44 L 1191.19 1504.3 L 1190.98 1593.64 L 1175.98 1593.78 C 1175.91 1566.27 1174.87 1531.21 1176.23 1504.44 z" fill="rgb(21,25,62)" transform="translate(0,0)"></path>
<path d="M 1055.28 1504.84 L 1070.43 1504.9 C 1069.27 1533.03 1069.71 1565.6 1070.15 1593.87 L 1055.04 1593.96 L 1055.28 1504.84 z" fill="rgb(21,25,62)" transform="translate(0,0)"></path>
<path d="M 673.032 1504.9 L 687.741 1504.9 L 687.817 1593.04 C 683.004 1593.66 677.87 1593.65 672.994 1593.79 L 673.032 1504.9 z" fill="rgb(21,25,62)" transform="translate(0,0)"></path>
<path d="M 1022.3 129.813 C 1037.6 134.588 1116.9 223.867 1136.21 239.71 C 1149.66 250.751 1159.78 277.975 1167.33 295.124 C 1179.07 322.227 1191.27 349.133 1203.91 375.829 C 1237.84 446.471 1278.14 519.391 1315.69 588.545 C 1301.69 602.796 1301.88 623.573 1307.52 641.472 C 1297.98 651.804 1293.76 665.569 1278.82 669.004 C 1268.22 671.439 1247.46 665.537 1238.57 659.883 C 1238.2 658.747 1236.46 653.448 1235.5 652.955 C 1224.54 647.35 1211.98 645.913 1201.95 638.156 C 1195.57 633.223 1191.87 625.756 1186.46 619.828 C 1168.7 599.436 1151.73 583.354 1126.35 573.744 L 1129.95 571.822 C 1166.79 552.013 1159.39 543.859 1167.29 509.752 C 1184.78 434.266 1136.74 398.203 1064.95 394.732 C 1021.36 392.625 992.722 418.153 981.602 461.331 C 971.661 463.554 931.551 475.586 935.264 489.464 C 941.691 496.783 966.528 498.259 977.836 500.538 C 975.916 505.972 973.639 510.797 971.271 516.033 L 968.965 516.784 C 953.851 521.54 957.944 535.129 967.079 543.707 C 966.607 563.473 965.969 590.879 979.982 605.737 C 943.37 625.667 933.599 639.635 927.13 680.5 C 922.626 708.946 920.373 738.588 915.975 766.764 C 900.301 780.586 905.889 779.449 910.447 795.171 C 914.255 808.307 900.606 809.682 895.055 816.047 C 891.593 820.016 895.557 832.336 896.923 837.399 C 882.555 852.683 868.587 868.341 869.029 889.616 C 818.864 937.26 825.374 976.25 817.777 1039.74 C 812.583 1083.15 804.621 1126.96 801.443 1170.83 C 801.143 1174.98 796.444 1173.48 797.5 1185.06 C 794.41 1187.22 792.943 1187.14 789.222 1187.21 C 786.772 1190.48 784.977 1198.69 783.777 1203 C 766.635 1205.39 759.511 1203.19 747.191 1218.08 C 715.768 1226.73 702.955 1240.8 678.067 1260.74 C 670.412 1266.88 660.05 1273.66 651.675 1279.14 C 628.481 1293.18 604.933 1306.64 581.053 1319.48 C 571.393 1324.71 550.369 1333.44 544.797 1338.96 C 531.393 1352.26 509.969 1385.7 531.514 1400.04 C 538.852 1404.93 537.37 1419.45 536.885 1427.46 C 528.618 1423.95 520.624 1418.39 514.066 1412.28 C 460.485 1362.3 408.79 1309.55 356.938 1257.89 C 278.707 1181.31 201.17 1104.03 124.338 1026.05 C 164.337 983.537 208.488 941.5 249.793 900.148 L 561.833 589.406 L 837.354 313.877 C 881.288 269.206 925.548 224.856 970.129 180.832 C 988.095 163.182 1003.49 146.898 1022.3 129.813 z" fill="rgb(255,255,255)" transform="translate(0,0)"></path>
<path d="M 882.217 874.461 C 892.058 876.951 908.138 885.969 918.472 890.858 C 903.134 919.432 908.461 912.379 935.425 922.757 C 957.879 931.399 974.646 935.889 998.912 937.13 C 999.596 931.133 998.831 912.198 1002.49 909.552 C 1005.66 909.544 1005.96 909.178 1008.5 910.866 C 1005.32 931.918 988.911 937.873 1022.07 943.782 C 1020.27 1004.16 987.169 1050.84 959.755 1101.84 C 937.276 1143.65 913.628 1184.12 887.506 1223.74 C 880.74 1234 880.468 1247.99 873.841 1257.52 C 867.475 1266.67 851.967 1265.89 842.267 1266.08 C 839.032 1269.09 834.533 1274.83 831.564 1278.38 C 826.213 1280.15 821.033 1280.8 815.479 1281.72 C 809.193 1264.65 800.362 1250.68 794.071 1232.06 C 803.956 1228.16 814.086 1221.04 822.189 1214.26 C 831.798 1223.28 834.493 1228.56 842.093 1238.02 L 843.529 1237.9 C 847.409 1227.17 844.026 1206.9 832.748 1203.03 L 831.8 1204.37 C 832.414 1209.35 834.374 1213.26 836.295 1217.92 C 832.197 1213.71 827.981 1208.97 823.975 1204.62 C 829.48 1195.47 831.304 1191.29 834.414 1181.24 C 855.748 1110.55 864.823 1035.76 889.501 965.789 C 892.151 953.875 894.109 941.696 896.59 929.758 C 897.704 924.398 911.607 905.568 897.796 907.627 C 885.716 917.716 885.134 951.785 880.287 966.168 C 872.03 990.67 865.171 1014.47 859.213 1039.64 L 841.234 1118.49 C 834.791 1146.58 829.883 1171.38 817.279 1197.5 C 813.281 1193.61 809.685 1189.46 805.963 1185.3 C 809.372 1177.28 811.007 1171.37 811.526 1162.65 C 813.784 1116.82 824.776 1069.97 828.209 1024.69 C 832.762 964.635 833.884 936.824 877.444 893.085 L 877.333 886.438 C 877.184 879.717 877.033 879.107 882.217 874.461 z" fill="rgb(255,255,255)" transform="translate(0,0)"></path>
<path d="M 995.572 611.324 C 1011.42 619.785 1022.99 625.183 1038.29 635.987 C 1058.77 650.442 1077.56 665.161 1099.62 677.252 C 1077.43 688.148 1053.31 696.776 1030.5 706.274 C 1017.53 711.678 989.994 721.628 979.421 730.037 L 979.053 732.249 L 978.134 732.185 L 978.703 730.602 L 978.01 731.294 C 982.9 735.112 1011.22 723.093 1018.44 720.363 C 1049.32 708.917 1079.72 696.222 1109.56 682.308 C 1117.22 686.268 1121.92 688.688 1128.76 693.907 C 1118.45 717.623 1099.67 730.078 1082.92 748.724 C 1073.46 759.253 1064.83 773.46 1058.11 785.871 C 1048.01 778.912 987.592 735.333 979.164 736.826 C 977.557 737.111 978.049 737.118 976.995 738.709 C 977.878 743.265 985.665 748.842 989.577 751.341 C 1013.57 766.667 1036.57 781.305 1059.4 798.434 C 1068.48 791.084 1071.22 785.997 1077.63 776.128 L 1088.83 780.091 C 1095.45 772.814 1099.96 765.849 1105.09 757.454 C 1110.91 759.61 1116.77 761.645 1122.36 764.327 C 1114.8 788.367 1086.51 890.047 1065.36 901.935 C 1060.79 904.502 1054.81 905.568 1049.75 906.872 C 1063.95 889.248 1078.25 880.98 1076.47 853.138 C 1076.33 850.957 1074.8 847.849 1073.77 845.82 L 1072.81 845.724 C 1070.7 858.055 1058.06 889.147 1047.57 895.853 C 1031.42 906.174 992.428 900.861 974.346 897.047 C 1008.83 879.5 1038.81 859.698 1063.65 829.373 C 1067.03 825.254 1073.03 818.811 1073.74 813.555 C 1071.39 810.759 1072.83 811.86 1068.97 810.608 C 1065.82 811.197 1060.34 818.34 1058.19 820.95 C 1038.21 845.249 957.906 919.965 927.237 883.252 L 927.674 883.997 C 920.14 882.083 898.819 875.225 896.948 867.108 C 899.616 860.328 912.293 863.004 909.359 838.382 C 936.808 824.293 956.81 822.999 977.218 795.216 C 963.61 800.53 917.245 829.673 905.038 829.58 C 895.133 805.919 988.246 796.997 990.435 766.934 L 989.316 765.985 C 983.986 767.949 979.154 773.275 974.267 776.163 C 966.152 780.958 928.855 802.074 921.538 799.575 C 921.628 785.081 912.743 788.728 915.204 779.488 C 935.686 764.187 954.525 757.199 971.144 735.053 C 956.044 740.433 939.628 754.259 925.557 763.305 C 929.162 733.611 932.696 704.271 937.318 674.702 C 942.954 638.656 961.724 622.155 995.572 611.324 z" fill="rgb(255,255,255)" transform="translate(0,0)"></path>
<path d="M 1072.81 845.724 L 1071.18 844.067 C 1071.29 843.006 1094.69 794.62 1096.13 792.967 L 1097.52 792.351 C 1102.01 800.168 1086.18 836.099 1081.59 844.24 C 1081.21 844.906 1075.24 845.36 1073.77 845.82 L 1072.81 845.724 z" fill="rgb(21,25,62)" transform="translate(0,0)"></path>
<path d="M 1014.78 803.703 L 1016.99 805.628 C 1019.26 822.806 941.883 869.688 927.5 875.454 L 925.871 875.284 C 925.246 873.917 924.703 873.613 925.354 872.451 C 929.014 867.187 937.959 861.899 943.198 858.275 C 961.667 845.497 979.593 832.498 996.563 817.772 C 1002.25 812.834 1008.27 807.481 1014.78 803.703 z" fill="rgb(21,25,62)" transform="translate(0,0)"></path>
<path d="M 1060.01 668.422 C 1064.83 668.207 1072.29 667.273 1075.85 670.361 C 1070.1 675.15 1022.75 682.797 1012.5 684.549 C 1005.53 685.615 998.538 686.561 991.533 687.387 C 1011.54 675.311 1036.96 670.085 1060.01 668.422 z" fill="rgb(21,25,62)" transform="translate(0,0)"></path>
<path d="M 1067.9 912.388 C 1074.17 920.976 1059.78 930.05 1054.84 934.735 C 1054.77 943.722 1087.62 932.372 1083.22 968.591 C 1104.98 974.498 1107.47 979.74 1122.59 995.608 C 1142.63 1016.37 1161.16 1038.54 1178.03 1061.95 C 1185.07 1071.69 1191.52 1081.93 1198.34 1091.86 C 1208.47 1106.68 1228.69 1127.48 1228.91 1146.24 C 1229.1 1162.4 1232.17 1156.73 1235.47 1166.91 C 1235.23 1167.91 1234.98 1168.92 1234.74 1169.93 C 1226.24 1171.71 1223.37 1170.46 1213.87 1172.43 C 1192.67 1176.82 1171.65 1202.77 1151 1201.17 C 1144.82 1200.69 1139.42 1191.62 1137.03 1187.29 C 1149.75 1180.24 1153.57 1177.92 1162.06 1166.11 C 1146.5 1170.86 1128.97 1185.53 1131.23 1156.76 C 1133 1145.29 1140.28 1137.62 1140.22 1131.97 C 1137.61 1130.41 1139.06 1130.82 1135.62 1131.25 C 1127.92 1136.33 1124.71 1144.33 1122.29 1152.67 C 1116.39 1150.2 1112.03 1148.44 1105.61 1148.6 C 1078.28 1125.24 1018.31 1087.47 986.552 1071.34 C 992.207 1061.39 1002.29 1042.33 1009.52 1034.75 C 1025.9 1017.55 1055.28 1000.22 1065.45 978.181 C 1054.53 983.508 1022.98 1011.06 1013.34 1019.65 C 1023.3 992.996 1031.45 972.643 1029.21 943.642 C 1048.72 940.677 1050.07 931.573 1054.86 914.465 C 1059.13 913.291 1063.5 912.929 1067.9 912.388 z" fill="rgb(255,255,255)" transform="translate(0,0)"></path>
<path d="M 1725.84 1551.42 C 1775.11 1550.46 1813.29 1557.73 1858.75 1576.71 C 1815.72 1570.84 1777.51 1574.81 1737.46 1591.19 C 1713.95 1600.81 1679.8 1614.65 1669.02 1639.13 C 1707.08 1637.79 1734.9 1644.87 1765.96 1667.72 C 1784.85 1681.62 1795.1 1692.51 1802.37 1714.8 C 1773.53 1690.08 1743.18 1679.06 1705.44 1675.39 C 1696.01 1674 1675.43 1675.35 1666.01 1677.15 C 1586.99 1692.33 1527.27 1733.26 1442.84 1705.35 C 1485.67 1691.59 1532.85 1679.12 1577.62 1675.89 C 1577.32 1650 1577.21 1624.1 1577.31 1598.21 C 1624.84 1559.77 1668.02 1554.79 1725.84 1551.42 z" fill="rgb(255,255,255)" transform="translate(0,0)"></path>
<path d="M 274.11 1555.58 C 340.274 1550.73 412.69 1564.98 471.017 1596.84 L 471.222 1676.95 C 511.542 1679.87 562.258 1690.41 598.996 1707.47 C 546.824 1726.41 488.572 1703.61 437.359 1691.15 C 415.414 1685.81 397.947 1682.48 375.458 1680.4 C 366.692 1678.98 348.79 1678.93 340.17 1679.56 C 301.24 1682.37 277.577 1690.3 246.47 1712.56 C 266.893 1655.5 325.839 1641.41 379.483 1633.45 C 340.989 1589.89 263.454 1572.09 207.507 1575 C 199.432 1575.41 190.675 1576.41 182.566 1577.21 C 215.115 1564.28 239.452 1558.95 274.11 1555.58 z" fill="rgb(255,255,255)" transform="translate(0,0)"></path>
<path d="M 1373.57 638.483 C 1384.71 636.975 1390.49 651.033 1394.48 659.389 C 1393.87 663.66 1393.05 668.156 1392.35 672.437 C 1383.85 679.41 1363.83 689.733 1353.32 693.315 L 1351.48 693.932 C 1343.66 696.606 1339.1 696.445 1330.79 696.869 C 1312.19 729.484 1266.34 759.148 1233.16 776.16 C 1210.42 787.816 1138.04 759.457 1114.07 750.004 L 1101.81 745.039 C 1117.64 728.408 1128.22 720.877 1140.53 700.187 C 1155.12 705.754 1169.67 710.329 1184.45 715.26 C 1192.89 718.075 1200.56 721.462 1209.16 724.07 C 1241.68 703.584 1273.92 691.267 1303.77 669.299 C 1316.28 671.446 1318.41 674.973 1329.15 678.053 L 1330.04 676.677 C 1327.57 671.734 1325.49 670.109 1321.59 666.358 C 1341.82 644.507 1341.03 639.369 1373.57 638.483 z" fill="rgb(255,255,255)" transform="translate(0,0)"></path>
<path d="M 1139.24 132.771 L 1140.79 133.617 C 1146.87 142.595 1150.74 153.163 1155.6 162.683 C 1168.6 188.152 1178 214.792 1189.38 240.634 C 1224.33 319.758 1258.05 399.42 1290.53 479.589 C 1302.35 508.555 1315.2 537.491 1326.76 566.596 C 1327.52 568.512 1328.27 572.804 1327.65 574.793 C 1326.76 577.616 1326.44 577.419 1324.41 578.418 C 1320.86 577.254 1322.03 577.736 1319.54 573.657 C 1260.23 469.449 1206.89 361.955 1159.78 251.695 C 1148.91 226.622 1126.85 180.251 1120.52 155.352 L 1121.05 153.496 C 1124.57 141.572 1129.02 138.433 1139.24 132.771 z" fill="rgb(255,255,255)" transform="translate(0,0)"></path>
<path d="M 1048.52 405.175 C 1056.99 404.404 1065.52 404.413 1073.99 405.202 C 1105.7 408.129 1145.43 422.079 1157.07 454.972 C 1161.7 468.058 1160.98 478.548 1159.55 492.079 C 1141.8 496.677 1123.44 501.7 1105.6 505.695 C 1097.47 481.049 1015.57 464.792 990.923 461.454 C 1002.41 429.161 1014.26 413.035 1048.52 405.175 z" fill="rgb(255,255,255)" transform="translate(0,0)"></path>
<path d="M 365.355 1453.42 C 405.934 1453.34 442.596 1478.38 471.104 1505.28 L 471.012 1575.27 L 448.32 1566.02 C 426.953 1557.07 392.998 1546.92 370.085 1543.39 C 382.94 1503.95 377.141 1475.42 335.412 1458.9 C 347.502 1454.79 352.452 1454.32 365.355 1453.42 z" fill="rgb(255,255,255)" transform="translate(0,0)"></path>
<path d="M 1679.49 1456.42 C 1689.27 1455.75 1700.88 1457.17 1710.55 1458.52 C 1684.93 1479.49 1665.64 1501.75 1678.99 1536.81 C 1647.26 1543.17 1632.22 1546.7 1602.56 1560.83 C 1593.57 1565.52 1586.45 1569.88 1577.88 1575.19 C 1577.28 1554.04 1577.63 1530.94 1577.58 1509.63 C 1608.14 1480.22 1636.55 1459.5 1679.49 1456.42 z" fill="rgb(255,255,255)" transform="translate(0,0)"></path>
<path d="M 1047.94 561.386 C 1056.55 559.735 1059.45 574.107 1070.8 578.029 C 1080.33 581.323 1101.37 576.218 1106.92 580.166 C 1112.26 591.063 1095.03 646.059 1090.85 660.636 C 1075.09 653.083 1053.31 633.246 1033.61 622.089 C 1025.96 617.748 1019.49 614.173 1012.3 609.021 C 1029.2 608.85 1059.43 604.205 1068.89 588.442 L 1068.3 586.97 C 1062.69 586.07 1058.73 587.879 1053.7 590.227 C 1017.35 607.191 1007.9 599.279 999.3 562.279 C 1020.21 564.784 1027.25 564.397 1047.94 561.386 z" fill="rgb(255,255,255)" transform="translate(0,0)"></path>
<path d="M 1121.64 582.414 C 1154.81 595.544 1169.42 613.325 1190.81 641.216 C 1186.71 650.538 1159.69 695.076 1150.63 692.653 C 1147.95 688.247 1150.13 679.055 1151.05 673.988 C 1153.16 662.252 1153.14 653.758 1151.75 641.955 C 1151.13 637.033 1147.87 614.128 1143.6 612.733 C 1141.31 618.063 1143.21 649.935 1142.85 658.3 C 1142.5 668.755 1141.01 679.141 1138.42 689.275 C 1132.94 685.253 1124.91 680.514 1118.99 676.798 C 1114.87 665.323 1110.71 657.329 1105.25 646.456 C 1111.01 625.227 1115.73 603.36 1121.64 582.414 z" fill="rgb(255,255,255)" transform="translate(0,0)"></path>
<path d="M 1149.41 130.582 C 1171.25 131.991 1173.44 148.348 1181.03 165.985 C 1236.99 296.077 1286.63 428.207 1336.52 560.67 C 1337.77 564.013 1338.13 566.723 1337.81 570.279 C 1334.07 567.754 1313.86 515.178 1310.57 507.235 L 1241.7 339.998 C 1212.62 271.029 1181.69 197.838 1149.41 130.582 z" fill="rgb(255,255,255)" transform="translate(0,0)"></path>
<path d="M 544.486 1358.44 C 550.157 1362.31 564.098 1379.91 570.371 1385.49 C 576.756 1391.18 582.045 1404.59 590.132 1409.75 C 597.74 1414.6 605.391 1411.31 613.596 1410.21 C 637.053 1406.76 651.856 1404.57 658.345 1431.31 C 648.815 1432.21 638.723 1431.92 629.11 1431.87 C 606.984 1430.81 581.899 1433.92 562.808 1426.62 C 564.18 1421.95 565.319 1415.97 566.381 1411.13 C 564.782 1405.49 562.975 1402.01 560.516 1396.75 C 558.235 1403.51 556.264 1411.49 553.995 1418.62 C 546.41 1403.19 545.262 1400.66 533.646 1388.29 C 536.477 1375.99 538.514 1369.45 544.486 1358.44 z" fill="rgb(255,255,255)" transform="translate(0,0)"></path>
<path d="M 1254.85 1389.32 L 1255.34 1389.53 L 1254.18 1391.52 L 1254.92 1392.92 C 1259.29 1395.69 1260.09 1392.99 1264.57 1394.82 C 1264.21 1396.08 1263.83 1397.33 1263.43 1398.57 C 1268.79 1404.01 1274.85 1397.97 1278.33 1408.12 C 1290.1 1411.31 1305.81 1408.65 1318 1412.47 C 1325.07 1414.69 1337.82 1421.8 1333.91 1430.75 C 1328.24 1434.99 1315.35 1434.78 1307.75 1435.27 C 1292.86 1436.8 1262.74 1437.27 1248.78 1432.45 C 1242.16 1430.16 1235.28 1425.04 1229.92 1423.14 L 1224.7 1421.25 C 1222.96 1417.48 1222.7 1410.78 1222.27 1406.4 C 1233.55 1403.57 1244.96 1395.56 1254.85 1389.32 z" fill="rgb(255,255,255)" transform="translate(0,0)"></path>
<path d="M 1255.96 1405.83 C 1265.84 1406.17 1263.79 1413.53 1279.61 1411.02 L 1279.91 1412.39 L 1278.31 1412.8 L 1272.38 1414.52 L 1272.91 1416.33 L 1272.02 1417.45 C 1267.71 1415.86 1257.79 1410.11 1255.96 1405.83 z" fill="rgb(5,4,13)" transform="translate(0,0)"></path>
<path d="M 648.456 1306.2 C 649.553 1306.12 650.651 1306.05 651.75 1305.99 C 658.865 1305.57 665.852 1305 671.268 1309.81 C 679.473 1327.13 632.871 1348.2 620.285 1355.97 C 613.571 1353.55 608.838 1352 601.951 1350.19 C 585.61 1347.38 582.703 1353.07 569.187 1341.11 C 594.785 1328.97 620.986 1312.06 648.456 1306.2 z" fill="rgb(255,255,255)" transform="translate(0,0)"></path>
<path d="M 999.64 508.936 C 1018.7 509.225 1038.69 512.854 1057.61 515.864 C 1054.87 528.902 1053.58 539.453 1052.62 552.713 C 1032.62 558.551 1016.84 555.771 997.039 551.078 C 996.631 536.03 998.139 523.935 999.64 508.936 z" fill="rgb(255,255,255)" transform="translate(0,0)"></path>
<path d="M 1153.71 504.21 C 1154.44 504.092 1155.64 504.373 1156.46 504.499 C 1158.11 509.378 1153.77 527.097 1152.5 533.079 C 1140.13 537.218 1127.36 541.134 1114.9 545.097 C 1105.3 548.153 1088.46 556.226 1079.33 557.524 C 1076.47 554.882 1074.2 551.233 1073.52 547.445 C 1068.67 520.608 1134.93 508.361 1153.71 504.21 z" fill="rgb(255,255,255)" transform="translate(0,0)"></path>
<path d="M 1227.07 1178.37 C 1240.35 1179.46 1240.22 1191.13 1242.44 1202.2 C 1226.17 1217.75 1184.73 1222.74 1163.03 1221.94 C 1150.73 1219.62 1150.15 1218.42 1146.99 1206.54 C 1181.33 1209.25 1194.41 1182.34 1227.07 1178.37 z" fill="rgb(255,255,255)" transform="translate(0,0)"></path>
<path d="M 778.347 1212.32 C 779.37 1212.32 778.625 1212.26 780.423 1213.16 C 783.578 1225.45 785.066 1235.18 790.12 1247.54 C 794.654 1258.63 801.132 1270.26 804.619 1281.42 C 803.029 1288.29 803.936 1296.01 797.298 1299.25 C 792.776 1299.23 792.585 1299.07 788.341 1297.24 C 773.366 1282.54 761.377 1255.3 757.079 1234.87 C 753.054 1215.72 763.12 1215.05 778.347 1212.32 z" fill="rgb(255,255,255)" transform="translate(0,0)"></path>
<path d="M 1198.35 647.627 C 1208.53 652.34 1217.57 656.013 1227.99 660.124 C 1223.44 674.363 1211.34 698.034 1200.7 708.378 C 1197.29 709.039 1196.72 708.163 1192.87 706.921 C 1181.68 703.722 1170.14 700.234 1159.35 695.938 C 1179.42 677.897 1186.3 671.959 1198.35 647.627 z" fill="rgb(255,255,255)" transform="translate(0,0)"></path>
<path d="M 1233.54 1389.84 C 1228.34 1376.57 1215.29 1329.02 1244.35 1325.94 C 1260.79 1324.19 1263.14 1359.25 1272.77 1366.16 C 1273.07 1366.43 1273.36 1366.7 1273.66 1366.97 C 1265.42 1367.81 1261.25 1367.75 1253.79 1371.53 C 1246.4 1375 1243.16 1376.2 1243.32 1385.16 C 1240.85 1385.77 1236 1388.56 1233.54 1389.84 z" fill="rgb(255,255,255)" transform="translate(0,0)"></path>
<path d="M 985.345 471.271 C 1004.18 468.956 1075.83 492.049 1093.18 503.343 C 1085.47 506.569 1080.61 507.409 1072.54 508.296 C 1038.21 500.797 995.892 483.652 962.091 477.156 C 970.655 474.614 976.619 472.958 985.345 471.271 z" fill="rgb(255,255,255)" transform="translate(0,0)"></path>
<path d="M 744.346 1227.86 C 747.455 1228.55 747.784 1234.17 748.449 1238.06 C 752.338 1260.8 761.472 1276.08 773.799 1295.03 L 756.588 1300.85 C 744.161 1298.56 722.94 1248.71 729.353 1236.2 C 731.299 1232.4 740.602 1229.35 744.346 1227.86 z" fill="rgb(255,255,255)" transform="translate(0,0)"></path>
<path d="M 597.335 1401.18 C 583.528 1392.17 577.409 1378.6 565.134 1367.65 C 560.66 1363.66 549.886 1352.67 554.445 1346.8 C 562.942 1350 597.193 1360.6 600.522 1362.86 L 600.349 1364.25 C 594.689 1364.17 589.044 1363.52 584.185 1366.17 C 580.594 1372.33 584.548 1376.4 589.688 1379.64 C 598.147 1384.96 604.164 1377.07 613.69 1379.59 C 615.893 1379.91 619.704 1380.58 621.788 1380.73 L 623.384 1381.11 C 626.689 1384.33 635.818 1392.92 636.417 1397.04 C 629.621 1398.49 613.802 1383.49 604.542 1398.42 C 603.638 1399.88 599.351 1400.61 597.335 1401.18 z" fill="rgb(255,255,255)" transform="translate(0,0)"></path>
<path d="M 621.788 1380.73 C 621.894 1384.79 622.548 1383.16 620.419 1385.98 C 613.507 1388.87 599.386 1389.92 593.381 1384.96 L 593.829 1383.67 C 600.804 1381.48 605.356 1382.03 612.637 1379.91 L 613.69 1379.59 C 615.893 1379.91 619.704 1380.58 621.788 1380.73 z" fill="rgb(21,25,62)" transform="translate(0,0)"></path>
<path d="M 1236.3 1218.02 L 1237.19 1218.33 C 1239.03 1221.52 1239.56 1227.52 1240.15 1231.39 C 1218.69 1244.79 1200.47 1246.62 1176.06 1243.94 C 1173.52 1242.07 1172.08 1234.21 1171.19 1230.79 C 1195.47 1230.53 1213.82 1226.98 1236.3 1218.02 z" fill="rgb(255,255,255)" transform="translate(0,0)"></path>
<path d="M 968.104 526.328 C 973.986 528.847 981.131 533.194 988.068 536.263 C 989.117 563.581 989.091 576.618 1004.44 599.613 C 983.067 597.86 979.708 598.298 977.315 574.731 C 976.077 562.547 976.033 551.801 976.236 539.623 C 969.974 534.344 968.232 534.638 968.104 526.328 z" fill="rgb(255,255,255)" transform="translate(0,0)"></path>
<path d="M 1318.86 599.883 C 1323.01 603.054 1337.04 611.089 1343.04 615.188 C 1335.13 623.851 1337.44 625.154 1341.25 635.321 L 1339.82 636.907 L 1331.68 641.308 C 1325.9 641.091 1322.04 640.474 1316.4 639.595 C 1312.28 626.577 1312.32 612.08 1318.86 599.883 z" fill="rgb(255,255,255)" transform="translate(0,0)"></path>
<path d="M 1235.66 670.64 C 1245.89 672.295 1255.6 677.19 1270.02 679.381 C 1258.36 685.755 1244.63 692.115 1232.56 698.003 C 1223.39 702.71 1217.08 706.82 1208.71 712.732 C 1221.29 698.082 1226.67 687.472 1235.66 670.64 z" fill="rgb(255,255,255)" transform="translate(0,0)"></path>
<path d="M 1396.54 681.875 C 1407.56 682.263 1411.91 703.679 1411.13 712.274 L 1408.56 712.36 C 1404.19 709.443 1402.91 709.086 1397.75 708.043 C 1390.81 708.482 1385.79 708.974 1378.92 709.98 L 1379.01 692.227 L 1396.54 681.875 z" fill="rgb(255,255,255)" transform="translate(0,0)"></path>
<path d="M 971.575 904.627 C 978.148 905.176 985.729 906.992 992.281 908.37 C 991.292 919.5 989.629 924.066 983.615 933.021 C 958.955 934.492 965.373 919.057 971.575 904.627 z" fill="rgb(255,255,255)" transform="translate(0,0)"></path>
<path d="M 794.453 1192.33 C 804.305 1193.62 809.498 1200.36 816.63 1207.29 C 813.484 1210.15 808.934 1213.25 805.415 1215.8 L 792.205 1224.55 L 789.691 1211.28 C 793.802 1203.58 793.933 1200.73 794.453 1192.33 z" fill="rgb(255,255,255)" transform="translate(0,0)"></path>
<path d="M 1342.63 574.616 C 1346.85 575.989 1351.34 581.769 1354.33 585.196 C 1344.26 589.073 1341.58 591.215 1333.53 597.805 C 1332.53 599.029 1332.37 598.904 1330.97 599.795 C 1328.19 598.771 1326.13 594.888 1324.31 592.225 C 1329.47 586.403 1336.64 580.988 1342.63 574.616 z" fill="rgb(255,255,255)" transform="translate(0,0)"></path>
<path d="M 575.748 1679.98 C 587.843 1679.36 600.869 1679.8 613.039 1679.95 L 612.88 1694.14 C 600.554 1689.28 588.176 1684.57 575.748 1679.98 z" fill="rgb(255,255,255)" transform="translate(0,0)"></path>
<path d="M 1018.91 910.573 C 1023.89 910.632 1040.55 909.549 1042.49 914.017 C 1040.13 917.146 1040.79 917.251 1037.69 918.554 L 1034.58 914.721 C 1031.52 913.478 1025.59 914.107 1022.02 914.237 C 1020.28 918.721 1018.66 921.818 1018.54 926.609 C 1020.25 930.577 1018.85 929.059 1023.37 930.862 C 1024.56 930.804 1032.57 930.249 1033.41 929.845 C 1035.26 928.952 1033.64 927.834 1037.55 926.404 C 1037.17 929.474 1037.02 929.396 1035.55 932.185 C 1029.74 936.211 1020.22 933.865 1012.72 933.018 C 1014.62 924.354 1016.1 918.983 1018.91 910.573 z" fill="rgb(255,255,255)" transform="translate(0,0)"></path>
<path d="M 1367.85 609.015 C 1370.84 609.095 1369.48 608.676 1372.02 610.462 L 1372.1 612.62 C 1369.39 615.797 1356.32 625.36 1352.4 628.415 C 1348.03 627.12 1349.42 628.389 1347.28 625.438 C 1347.51 621.751 1350.36 618.576 1352.56 615.417 L 1367.85 609.015 z" fill="rgb(255,255,255)" transform="translate(0,0)"></path>
<path d="M 1386.16 720.031 C 1388.68 718.934 1390.45 717.871 1393.11 717.539 C 1390.65 720.38 1390.24 719.889 1389.85 723.014 C 1392.46 725.951 1390.9 725.234 1394.5 725.594 L 1397.53 724.146 L 1396.86 724.393 C 1396.76 726.642 1396.75 726.134 1395.74 727.934 L 1398.98 729.865 C 1396.24 730.966 1394.44 731.605 1391.87 733.156 C 1386.75 731.846 1379.76 730.325 1380.38 723.573 C 1382.73 720.76 1382.58 720.983 1386.16 720.031 z" fill="rgb(36,36,64)" transform="translate(0,0)"></path>
<path d="M 1386.16 720.031 C 1388.68 718.934 1390.45 717.871 1393.11 717.539 C 1390.65 720.38 1390.24 719.889 1389.85 723.014 C 1392.46 725.951 1390.9 725.234 1394.5 725.594 L 1397.53 724.146 L 1396.86 724.393 C 1396.76 726.642 1396.75 726.134 1395.74 727.934 C 1392.04 728.109 1391.78 728.429 1388.54 726.515 C 1386.23 723.695 1386.47 723.566 1386.16 720.031 z" fill="rgb(255,255,255)" transform="translate(0,0)"></path>
<path d="M 1314.02 649.163 L 1325.54 649.039 C 1322.08 653.204 1317.52 657.692 1313.72 661.65 C 1311.06 663.088 1310.76 662.77 1307.63 663.092 C 1306.13 661.446 1306.59 662.359 1306.08 660.433 C 1307.69 655.079 1310.19 653.114 1314.02 649.163 z" fill="rgb(255,255,255)" transform="translate(0,0)"></path>
<path d="M 1357.06 595.168 C 1361.72 594.713 1365.6 594.067 1369.57 596.721 C 1366.14 601.292 1357.05 600.92 1351.71 601.176 L 1337.35 603.418 C 1345.44 599.038 1348.38 597.597 1357.06 595.168 z" fill="rgb(255,255,255)" transform="translate(0,0)"></path>
<path d="M 1398.98 729.865 L 1399.52 730.756 C 1392.47 735.353 1382.34 741.57 1373.5 732.723 C 1372.65 731.877 1372.96 730.648 1372.93 729.331 C 1375.8 728.407 1377.65 729.631 1380.79 731.253 L 1382.05 731.914 C 1385.9 733.895 1387.5 734.123 1391.87 733.156 C 1394.44 731.605 1396.24 730.966 1398.98 729.865 z" fill="rgb(255,255,255)" transform="translate(0,0)"></path>
<path d="M 1103.79 555.694 C 1108.1 555.396 1109.43 555.054 1111.68 558.963 C 1111.39 563.106 1110.43 563.751 1107.79 567.256 C 1103.86 566.265 1102.33 565.466 1100.36 562.006 C 1101.06 557.785 1100.6 559.273 1103.79 555.694 z" fill="rgb(255,255,255)" transform="translate(0,0)"></path>
<path d="M 1368.76 696.862 L 1369.93 698.956 C 1370.43 708.52 1369.24 711.744 1366.02 720.444 C 1364.42 716.446 1363.98 708.101 1364.27 703.79 C 1364.58 699.367 1365.69 699.366 1368.76 696.862 z" fill="rgb(255,255,255)" transform="translate(0,0)"></path>
<path d="M 1365.76 736.583 C 1369.5 737.331 1371.89 739.629 1374.97 741.961 C 1380.63 742.469 1387.67 741.208 1391.81 742.243 C 1384.64 744.268 1381.77 744.017 1374.36 744.021 C 1370.25 741.299 1369.29 740.171 1365.76 736.583 z" fill="rgb(87,92,122)" transform="translate(0,0)"></path>
<path d="M 900.779 847.809 C 901.368 850.646 897.328 859.586 895.912 862.641 C 894.489 860.178 894.448 860.092 893.641 857.366 C 894.553 853.078 897.518 851.015 900.779 847.809 z" fill="rgb(255,255,255)" transform="translate(0,0)"></path>
<path d="M 584.38 1438.45 C 590.947 1437.73 596.455 1437.99 602.852 1439.67 C 596.071 1440.23 590.777 1440.77 584.38 1438.45 z" fill="rgb(87,92,122)" transform="translate(0,0)"></path>
<metadata><recraft-signature>{"signed_by": "recraft", "signature_b64": "p8S//dP95bLAEa/7k8oqdsUXr0OcBijlMxfAJk9hizGYVcgWaMGcAMr4OBS7VGLiLWSDvzlJA+NZ/NqLrXcTBA==", "signing_algo": "Ed25519", "generation_timestamp": 1777331560, "identifier": "9eb4603f-67f2-454d-a9a5-9f83b618bc39"}</recraft-signature></metadata></svg>