<svg xmlns="http://www.w3.org/2000/svg" height="1024" preserveAspectRatio="none" style="display: block;" version="1.1" viewBox="0 0 2048 2048" width="1024">
<path d="M 0 0 L 2048 0 L 2048 2048 L 0 2048 L 0 0 z" fill="rgb(254,254,254)" transform="translate(0,0)"></path>
<path d="M 1186.84 134.596 C 1179.43 131.354 1172.31 127.396 1169.19 119.366 C 1167.37 114.679 1167.76 108.866 1169.94 104.349 C 1175.98 91.8007 1241.6 52.0077 1255.9 47.9405 C 1260 46.7746 1263.85 47.8603 1267.43 49.9772 C 1272.63 53.0535 1276.87 58.5395 1278.21 64.468 C 1279.14 68.5635 1278.75 74.3672 1276.73 78.1205 C 1274.77 81.7663 1269.89 85.2362 1266.56 87.7556 C 1253.71 97.458 1239.41 105.513 1226.07 114.56 C 1217.55 120.34 1209.38 127.754 1200.57 132.927 C 1198.95 133.88 1197.42 134.243 1195.6 134.592 L 1194.02 134.904 C 1192.63 135.175 1191.24 135.409 1189.84 135.607 L 1189.83 135.649 C 1227.21 142.475 1260.46 151.666 1296.8 162.924 C 1290.41 156.754 1289.11 154.405 1286.36 145.924 C 1289.82 133.453 1295.6 126.159 1307.6 120.186 C 1329.07 109.506 1357.85 92.9417 1380.13 84.8764 C 1393.64 88.1463 1403.98 98.3874 1400.73 113.466 C 1397.75 127.259 1369.44 137.285 1357.14 143.293 C 1342.06 150.751 1327.06 158.373 1312.14 166.159 L 1306.45 165.52 L 1306.18 166.123 L 1307.63 165.506 L 1307.01 166.759 C 1318.61 171.641 1330.07 175.232 1341.73 179.938 C 1362.72 188.602 1383.54 197.681 1404.17 207.17 C 1408.22 210.102 1413.34 212.348 1418.11 213.795 C 1437.36 224.281 1456.5 234.978 1475.52 245.885 C 1481.45 249.305 1499.05 260.483 1504.21 262.194 C 1504.87 258.411 1500.25 252.135 1505.65 243.696 C 1510.57 236.011 1512.76 232.423 1522.71 230.172 C 1549.67 224.08 1577.94 218.126 1605.32 214.592 C 1622.13 212.424 1629.56 233.465 1623.62 246.232 C 1618.98 256.058 1590.1 260.359 1580.36 262.425 C 1561.44 266.315 1542.57 270.417 1523.75 274.73 C 1551.43 295.642 1573.23 310.664 1600.72 333.179 C 1600.98 320.676 1603.31 308.131 1618.64 305.49 C 1635.6 302.566 1653.29 301.501 1670.41 299.337 C 1684.86 298.693 1705.91 292.408 1717.17 304.382 C 1729.11 317.099 1717.41 338.265 1702.25 339.251 C 1682.22 340.553 1634.16 350.237 1616.26 346.338 C 1617.13 347.965 1651.09 379.715 1656.02 384.617 C 1667.47 395.958 1678.55 407.676 1689.23 419.751 C 1687.05 412.86 1685.29 406.08 1689.05 399.311 C 1691.51 394.873 1696.95 390.351 1701.92 389.211 C 1713.4 386.581 1793.39 388.194 1801 393.695 C 1806.06 397.356 1809.05 404.021 1809.82 410.086 C 1810.42 414.825 1809.08 419.604 1806.1 423.339 C 1801.66 428.822 1793.19 431.406 1786.45 431.496 C 1758.59 431.867 1728.72 432.658 1700.99 431.926 C 1722.23 458.096 1742.98 484.658 1763.23 511.598 C 1762.58 503.949 1761.65 496.235 1767.09 489.946 C 1772.04 484.22 1778.56 483.066 1785.75 482.849 C 1798.15 482.475 1871.66 492.701 1878.52 498.807 C 1882.4 502.261 1884.36 507.687 1884.51 512.779 C 1884.66 518.095 1882.94 524.602 1879.25 528.574 C 1875.25 532.866 1869.19 534.184 1863.54 534.137 C 1844.93 533.982 1789.27 528.066 1772.18 523.017 L 1770.85 522.633 C 1774.37 527.955 1826.97 612.44 1825.76 611.887 C 1826.03 604.717 1822.85 601.221 1828.44 594.176 C 1832.81 588.682 1839.86 585.835 1846.88 585.274 C 1859.45 585.482 1932.97 604.97 1938.83 610.48 C 1943.25 614.704 1945.71 620.58 1945.62 626.693 C 1945.52 637.744 1934.55 648.633 1924.57 646.6 C 1897.82 641.146 1858.38 634.699 1833.72 624.431 C 1840.52 639.773 1849.69 661.923 1857.52 676.256 C 1883.52 676.831 1909.53 677.084 1935.54 677.017 C 1935.7 687.109 1935.8 697.201 1935.85 707.294 C 1944.53 711.093 1953.7 714.936 1962.2 719.153 C 1970.71 723.745 1984.51 729.197 1988.71 738.508 C 1993.18 748.402 1986.36 762.898 1976.19 765.967 C 1963.9 769.675 1947.57 760.404 1936.14 755.996 C 1935.62 777.329 1935.51 798.671 1935.83 820.008 C 1938.89 819.512 1946.57 818.118 1949.31 819.232 C 1968.31 826.937 1985.94 840.673 2003.23 851.595 C 2008.16 854.713 2016.36 862.05 2016.15 867.49 C 2015.23 891.543 1998.83 896.253 1980.37 886.332 C 1964.78 877.958 1950.26 869.47 1936.07 862.941 L 1935.8 910.312 C 1935.77 916.104 1935.23 929.775 1936.22 934.602 L 1938.19 935.257 C 1947.92 928.781 1952.49 929.359 1962.68 937.122 C 1983.5 952.994 2006.01 968.857 2024.72 986.982 C 2036.14 998.736 2016.63 1025.56 1999.83 1016.23 C 1977.63 1004.9 1955.71 986.564 1935.53 971.237 C 1935.42 980.725 1936.05 1025.64 1933.92 1036.83 C 1933.81 1037.45 1930.98 1038.81 1930.11 1039.25 C 1928.63 1042.61 1928.12 1063.73 1927.65 1069.4 C 1929.89 1062.83 1932.8 1056.07 1939.26 1052.61 C 1943.13 1050.54 1948.53 1050.19 1952.67 1051.66 C 1962.79 1055.23 2012.82 1110.62 2017.07 1121 C 2018.7 1124.99 2018.3 1129.8 2016.59 1133.69 C 2013.99 1139.61 2008.17 1144.76 2002.02 1146.73 C 1996.81 1148.39 1992.05 1147.15 1987.39 1144.54 C 1973.81 1136.94 1937.69 1094.77 1926.51 1080.71 C 1923.43 1101.67 1920.17 1122.59 1916.71 1143.49 C 1914.83 1155.63 1913.34 1168.84 1910.72 1180.72 L 1911.91 1181.02 C 1910.87 1186.77 1909.74 1192.5 1908.55 1198.22 L 1906.89 1198.74 C 1904.71 1213.09 1887 1282.98 1881.54 1293.85 L 1882.76 1294.77 L 1877.58 1310.02 L 1876.58 1309.68 C 1868.16 1338.36 1850.15 1382.16 1837.13 1409.82 C 1843.11 1405.24 1848.58 1401.74 1856.5 1402.7 C 1861.76 1403.33 1867.67 1406.58 1870.7 1410.96 C 1877.43 1420.68 1903.46 1489.6 1901.8 1499.15 C 1900.9 1504.29 1896.76 1508.79 1892.51 1511.49 C 1887.54 1514.65 1881.48 1516.31 1875.64 1514.99 C 1870.37 1513.8 1866.18 1510.13 1863.47 1505.56 C 1854.36 1490.26 1835.56 1437.73 1831.97 1420.1 C 1819.82 1444.64 1806.32 1470.66 1792.95 1494.56 C 1788.4 1502.69 1777 1517.83 1771.24 1526.04 C 1754.81 1549.47 1737.22 1574.42 1719.27 1596.65 C 1711.8 1604.58 1706.66 1610.63 1699.89 1619.02 C 1681.69 1640.18 1654.08 1670.55 1632.5 1688.34 C 1627.8 1692.71 1623.42 1696.74 1618.98 1701.39 C 1607.39 1713.09 1588.04 1727.28 1574.74 1738.05 C 1566.55 1744.69 1553.59 1755.75 1545.52 1761.44 C 1543.45 1762.76 1537.92 1766.08 1536.45 1767.57 C 1531.84 1770.39 1526.17 1773.6 1522.01 1776.91 C 1503.2 1790.19 1469.08 1812.96 1448.56 1822.15 C 1444.95 1823.96 1432.1 1830.24 1429.64 1832.34 C 1404.26 1844.89 1372.95 1858.43 1346.23 1868.94 L 1346.14 1870.76 C 1340.83 1872.64 1329.2 1877.45 1324.78 1878.67 L 1323.35 1876.96 C 1296.86 1887.09 1256.14 1898.79 1228.53 1905.16 L 1228.31 1906.95 C 1224.19 1908.09 1215.82 1910.09 1211.56 1910.52 L 1211.12 1908.86 C 1185.44 1914.13 1134.4 1923.48 1108.53 1924.01 L 1106.95 1925.84 C 1101.19 1927.33 1096.31 1927.07 1090.37 1927.15 L 1084.36 1926.61 C 1062.35 1929.59 1013.45 1929.18 991.199 1928.79 C 1009.6 1945.91 1003.52 1957.25 987.499 1973.2 C 971.628 1989.01 941.527 2024.08 920.744 2030.53 C 914.186 2028.88 912.128 2028.55 906.929 2023.92 C 900.28 2019.19 897.037 2003.34 903.192 1997.16 C 925.089 1975.16 948.071 1949.57 970.307 1928.25 C 942.372 1925.48 893.547 1920.63 866.919 1914.96 C 885.379 1931.54 878.561 1944.83 861.716 1958.05 C 842.234 1973.23 823.195 1990.39 801.76 2002.73 C 779.742 2015.39 763.018 1983.94 778.233 1969.59 C 790.052 1958.45 805.077 1948.72 817.88 1938.41 C 828.664 1929.72 839.783 1919.26 851.095 1911.59 C 814.214 1905.68 788.663 1898.06 753.24 1887.09 C 765.779 1906.88 757.636 1916.76 739.529 1927.19 C 719.004 1939 696.23 1953.79 673.971 1962.01 C 662.515 1966.23 649.516 1950.83 649.672 1940.09 C 649.838 1928.61 660.052 1922.48 669.209 1917.76 C 691.111 1905.85 712.222 1892.96 734.181 1881.18 C 699.537 1867.49 669.234 1855.6 635.254 1839.9 C 641.113 1847.55 641.56 1851.61 643.448 1860.83 C 641.017 1869.38 637.627 1874.76 629.676 1879.12 C 616.737 1886.21 557.398 1910.35 545.204 1906.11 C 540.327 1904.42 536.669 1899.95 534.541 1895.41 C 532.094 1890.18 531.026 1883.95 533.155 1878.44 C 534.825 1874.12 537.975 1870.82 541.84 1868.37 C 550.705 1862.74 563.598 1859.62 573.534 1855.76 C 590.73 1849.07 607.775 1842 624.659 1834.56 C 597.686 1820.76 559.854 1800.43 535.113 1782.61 L 534.215 1783.33 C 530.58 1781.64 523.926 1776.77 520.365 1774.32 L 520.544 1772.75 C 501.241 1759.82 459.705 1728.52 442.351 1712.94 L 441.032 1713.33 C 447.66 1724.79 442.648 1742.15 430.642 1745.45 C 408.887 1751.42 380.733 1752.03 358.328 1754.68 C 342.406 1756.56 328.949 1753.01 326.865 1735.57 C 326 1728.33 330.706 1716.54 338.743 1714.57 C 350.744 1712.49 364.309 1710.3 376.471 1709.55 C 393.859 1708.48 413.355 1703.13 430.302 1702.56 C 412.647 1687.14 375.284 1650.02 360.518 1632.27 C 358.422 1628.87 351.669 1621.58 348.447 1619.05 C 341.911 1612.55 330.508 1597.39 324.616 1589.66 C 312.172 1573.33 298.437 1555.89 286.989 1539.01 L 286.027 1539.72 C 286.372 1544.86 285.308 1549.36 283.008 1553.96 C 280.182 1559.62 275.369 1564.98 269.131 1566.84 C 258.533 1570.01 184.764 1557.95 174.698 1552.28 C 170.497 1549.91 167.721 1545.82 166.551 1541.19 C 164.941 1534.81 166.224 1527.46 169.882 1521.99 C 172.2 1518.52 175.728 1515.34 179.854 1514.29 C 198.36 1509.56 248.749 1527.83 273.888 1522.87 C 274.302 1522.78 274.715 1522.69 275.128 1522.61 C 260.364 1499.05 237.09 1462.98 226.274 1437.91 L 224.816 1438.01 C 222.522 1435.21 219.054 1427.13 217.861 1423.61 C 216.144 1418.05 204.121 1392.72 200.494 1384.74 C 191.648 1365.26 185.485 1344.15 177.732 1325.53 L 177.075 1325.46 C 181.721 1342.16 176.18 1352.88 158.781 1357.85 L 157.551 1358.19 C 150.475 1356.64 140.109 1352.47 133.486 1349.12 C 112.707 1338.59 89.7661 1330.24 69.8597 1318.28 C 52.5028 1307.85 57.9416 1287.33 74.514 1279.62 C 83.5723 1275.41 96.1067 1284.82 104.574 1287.89 C 110.709 1290.39 117.267 1293.78 123.318 1296.56 C 139.41 1304.08 155.752 1311.05 172.317 1317.46 C 173.526 1319.27 173.81 1319.99 175.35 1321.48 C 174.03 1313.54 164.207 1285.28 161.159 1274.79 C 156.885 1260.07 152.199 1235.78 147.329 1222.78 L 146.579 1222.84 C 147.147 1236.37 133.38 1249.07 119.691 1244.63 C 115.609 1243.31 109.365 1239.74 105.723 1237.42 C 86.6125 1225.24 67.2167 1213.43 48.2137 1201.08 C 41.1054 1196.36 34.9133 1192.24 33.3494 1183.38 C 30.8175 1169.03 49.2192 1150.1 63.1236 1159.2 C 70.8906 1164.28 79.8893 1169.68 87.4479 1175.02 C 103.48 1186.34 130.316 1196.96 144.269 1209.72 C 141.453 1180.17 131.208 1149.23 130.069 1116.37 L 128.157 1110.14 L 126.527 1092.51 L 127.588 1091.22 C 125.807 1075.68 125.563 1054.21 125.036 1038.19 C 120.227 1037.98 115.274 1037.41 110.47 1036.95 C 110.172 1027.03 110.312 1016.1 110.26 1006.1 C 107.12 1005.96 100.285 1006.48 98.0382 1004.51 C 75.048 984.363 54.1166 960.735 33.5208 938.136 C 26.469 930.32 27.3312 921.312 33.7173 913.432 C 51.7491 891.183 68.3202 914.698 81.5041 927.818 C 90.8028 937.253 100.362 946.429 110.17 955.334 L 110.271 883.993 C 94.8504 878.625 62.9556 821.764 52.2247 806.076 C 46.7703 798.103 55.4528 784.793 62.4975 779.43 C 80.9016 765.419 99.299 802.539 109.062 815.76 C 111.757 791.215 111.389 749.181 108.383 724.26 C 106.408 707.891 65.961 672.66 97.9016 652.767 C 119.145 639.537 127.12 661.199 135.202 676.291 C 152.57 677.02 172.514 676.532 190.07 676.499 C 193.667 669.234 203.773 649.778 205.746 643.057 L 204.875 642.777 C 202.247 644.416 199.389 646.409 196.419 647.334 C 191.28 648.933 184.301 648.834 179.607 645.994 C 171.43 641.047 146.391 571.765 143.632 560.128 C 142.238 554.249 143.65 547.53 147.059 542.564 C 150.459 537.61 156.648 534.145 162.55 533.281 C 167.477 532.559 172.39 533.772 176.255 536.961 C 186.202 545.167 210.061 615.682 211.904 629.667 C 227.705 598.654 245.02 568.436 263.785 539.122 L 263.346 537.914 C 259.339 540.209 257.136 542.032 252.311 542.671 C 246.981 543.403 241.59 541.84 237.48 538.369 C 224.721 527.695 220.547 474.568 214.41 458.798 C 201.744 426.255 238.176 406.58 252.007 434.558 C 255.677 441.983 259.503 469.219 262.059 479.422 C 265.218 492.029 270.676 514.707 271.231 527.091 C 286.704 504.345 304.488 481.226 321.208 459.345 C 327.701 450.848 336.727 442.937 342.963 434.5 C 350.079 427.58 358.639 417.276 365.973 409.64 C 382.575 392.576 399.516 375.845 416.785 359.457 C 412.152 361.85 407.975 363.534 402.681 362.865 C 397.271 362.182 392.935 359.735 389.847 355.198 C 383.555 345.957 385.207 275.002 387.664 261.292 C 388.854 254.654 391.796 248.396 397.687 244.661 C 402.023 241.91 407.573 241.471 412.461 242.79 C 420.943 245.081 424.875 250.222 428.898 257.562 C 429.548 285.406 428.196 319.508 427.802 347.532 L 421.58 354.714 C 427.316 350.493 438.506 340.284 444.43 335.326 C 458.689 323.546 473.185 312.053 487.907 300.857 C 523.441 273.998 562.328 250.719 600.734 228.267 C 586.953 228.142 583.259 223.726 577.062 212.188 C 577.154 209.627 577.368 207.072 577.704 204.531 C 580.215 186.506 596.636 120.366 610.013 110.628 C 614.228 107.559 619.004 106.401 624.126 107.523 C 629.377 108.673 634.344 111.675 637.248 116.24 C 639.376 119.584 640.936 123.933 640.924 127.936 C 640.887 139.716 635.145 153.628 631.982 165.128 C 627.233 182.391 622.24 199.736 618.806 217.31 C 616.567 218.559 611.157 221.082 610.155 222.851 C 612.473 222.479 636.363 209.864 640.769 207.837 C 666.671 195.711 692.915 184.328 719.468 173.703 C 685.589 178.549 685.614 150.23 697.426 128.228 C 707.062 110.277 723.323 42.2455 753.555 62.6637 C 773.097 75.8619 753.134 105.636 746.797 122.266 C 740.962 137.578 734.886 158.629 725.402 171.86 C 822.333 135.746 954.59 115.766 1057.92 120.053 L 1057.54 118.835 C 1062.69 118.916 1069.27 118.823 1074.3 119.125 L 1078.09 121.037 C 1105.34 121.138 1158.83 130.62 1186.84 134.596 z" fill="rgb(16,37,94)" transform="translate(0,0)"></path>
<path d="M 1323.35 1876.96 C 1330.81 1874.17 1338.69 1871.56 1346.23 1868.94 L 1346.14 1870.76 C 1340.83 1872.64 1329.2 1877.45 1324.78 1878.67 L 1323.35 1876.96 z" fill="rgb(225,226,224)" transform="translate(0,0)"></path>
<path d="M 286.027 1539.72 C 282.723 1536.07 278.857 1530.88 277.12 1526.26 L 277.88 1525.48 C 281.984 1528.68 284.786 1534.31 286.989 1539.01 L 286.027 1539.72 z" fill="rgb(61,79,120)" transform="translate(0,0)"></path>
<path d="M 127.588 1091.22 C 129.121 1096.17 130.317 1111.06 130.069 1116.37 L 128.157 1110.14 L 126.527 1092.51 L 127.588 1091.22 z" fill="rgb(61,79,120)" transform="translate(0,0)"></path>
<path d="M 1084.36 1926.61 C 1092.59 1925.58 1100.27 1924.67 1108.53 1924.01 L 1106.95 1925.84 C 1101.19 1927.33 1096.31 1927.07 1090.37 1927.15 L 1084.36 1926.61 z" fill="rgb(178,185,192)" transform="translate(0,0)"></path>
<path d="M 520.544 1772.75 C 527.738 1775.75 529.511 1777.22 535.113 1782.61 L 534.215 1783.33 C 530.58 1781.64 523.926 1776.77 520.365 1774.32 L 520.544 1772.75 z" fill="rgb(61,79,120)" transform="translate(0,0)"></path>
<path d="M 1211.12 1908.86 C 1216.92 1907.38 1222.66 1906.32 1228.53 1905.16 L 1228.31 1906.95 C 1224.19 1908.09 1215.82 1910.09 1211.56 1910.52 L 1211.12 1908.86 z" fill="rgb(178,185,192)" transform="translate(0,0)"></path>
<path d="M 1910.72 1180.72 L 1911.91 1181.02 C 1910.87 1186.77 1909.74 1192.5 1908.55 1198.22 L 1906.89 1198.74 C 1907.2 1194.07 1908.99 1185.04 1910.72 1180.72 z" fill="rgb(112,122,149)" transform="translate(0,0)"></path>
<path d="M 1057.54 118.835 C 1062.69 118.916 1069.27 118.823 1074.3 119.125 L 1078.09 121.037 C 1070.29 121.046 1065.6 120.998 1057.92 120.053 L 1057.54 118.835 z" fill="rgb(112,122,149)" transform="translate(0,0)"></path>
<path d="M 217.861 1423.61 C 221.412 1426.9 224.54 1433.36 226.274 1437.91 L 224.816 1438.01 C 222.522 1435.21 219.054 1427.13 217.861 1423.61 z" fill="rgb(61,79,120)" transform="translate(0,0)"></path>
<path d="M 1876.58 1309.68 C 1877.77 1302.8 1878.93 1300.32 1881.54 1293.85 L 1882.76 1294.77 L 1877.58 1310.02 L 1876.58 1309.68 z" fill="rgb(61,79,120)" transform="translate(0,0)"></path>
<path d="M 441.032 1713.33 C 438.443 1711.33 435.898 1710 435.055 1707.02 C 438.378 1706.67 440.492 1710.42 442.351 1712.94 L 441.032 1713.33 z" fill="rgb(61,79,120)" transform="translate(0,0)"></path>
<path d="M 1286.75 685.497 L 1926.3 687.131 C 1927.3 724.502 1926.34 764.671 1926.32 802.304 L 1925.87 1027.67 L 763.5 1027.55 L 119.846 1026.97 L 119.846 686.893 L 1286.75 685.497 z" fill="rgb(254,254,254)" transform="translate(0,0)"></path>
<path d="M 1522.51 755.787 C 1579.01 754.743 1625.67 799.665 1626.77 856.161 C 1627.88 912.658 1583.01 959.37 1526.51 960.536 C 1469.93 961.705 1423.13 916.75 1422.03 860.166 C 1420.92 803.583 1465.92 756.832 1522.51 755.787 z" fill="rgb(164,42,45)" transform="translate(0,0)"></path>
<path d="M 1516.38 801.917 C 1547.4 797.859 1575.87 819.671 1580.02 850.687 C 1584.16 881.703 1562.44 910.229 1531.43 914.469 C 1500.3 918.726 1471.63 896.888 1467.46 865.743 C 1463.3 834.599 1485.22 805.993 1516.38 801.917 z" fill="rgb(254,254,254)" transform="translate(0,0)"></path>
<path d="M 766.44 756.874 C 810.389 756.679 868.335 749.978 902.234 782.537 C 941.585 820.332 939.664 892.422 903.115 931.58 C 867.212 968.272 813.263 957.125 767.033 956.905 L 766.44 756.874 z" fill="rgb(164,42,45)" transform="translate(0,0)"></path>
<path d="M 813.413 796.987 C 832.207 796.815 852.383 796.363 866.884 810.278 C 890.653 833.086 891.355 879.553 869.306 903.285 C 850.74 919.207 835.928 918.078 812.969 918.351 C 812.636 878.119 813.126 837.251 813.413 796.987 z" fill="rgb(254,254,254)" transform="translate(0,0)"></path>
<path d="M 1770.16 756.829 C 1784.02 756.67 1798.18 756.832 1812.06 756.839 L 1812.24 944.238 C 1812.22 949.625 1813.19 956.285 1809.76 959.682 C 1807.79 959.456 1804.61 959.132 1803.14 957.838 C 1792.23 948.235 1780.3 936.152 1770.03 926.118 L 1693.06 851.24 L 1693.03 957.911 L 1649.93 957.848 L 1649.69 825.035 C 1649.69 813.96 1648.46 761.77 1651.73 757.078 C 1653.38 756.995 1659.58 756.623 1660.68 757.593 C 1672.32 767.871 1683.3 779.061 1694.4 789.944 L 1769.93 863.5 L 1770.16 756.829 z" fill="rgb(164,42,45)" transform="translate(0,0)"></path>
<path d="M 462.172 757.064 L 588.77 756.977 L 588.754 798.41 L 507.803 798.358 L 507.89 836.028 L 565.091 835.84 L 565.014 874.942 L 507.905 874.831 L 507.896 900.75 L 507.932 916.105 L 590.886 916.11 L 590.609 957.13 L 462.533 957.077 L 462.172 757.064 z" fill="rgb(164,42,45)" transform="translate(0,0)"></path>
<path d="M 1254.46 755.319 C 1278.33 753.39 1296.06 757.747 1315.78 771.462 C 1310.94 783.266 1306.35 794.789 1300.77 806.268 C 1285.91 798.031 1260.7 784.487 1246.51 799.409 C 1229.91 816.848 1256.1 831.73 1270.62 836.796 C 1318.92 853.644 1345.91 889.925 1315.23 938.211 C 1303.45 956.755 1278.15 961.975 1256.89 961.851 C 1235.59 960.072 1216.51 954.675 1198.23 943.563 C 1201.31 931.326 1206.75 915.377 1210.43 902.701 C 1225.69 912.151 1242.36 921.018 1260.98 919.784 C 1269.93 919.192 1284.23 911.122 1281.54 900.886 C 1277.63 886.066 1252.51 877.391 1240.02 871.139 C 1233.49 867.91 1227.22 864.184 1221.26 859.995 C 1193.3 840.155 1184.48 810.484 1205.93 780.886 C 1218.36 763.734 1234.3 758.281 1254.46 755.319 z" fill="rgb(164,42,45)" transform="translate(0,0)"></path>
<path d="M 1059.14 756.636 L 1108.36 756.893 C 1097.73 778.14 1087.92 801.507 1077.55 823.25 C 1057.58 865.354 1031.34 921.907 1008.81 962.438 C 996.518 940.883 979.589 903.984 969.192 881.338 C 950.353 840.028 931.951 798.521 913.988 756.823 L 963.364 756.908 C 977.94 792.312 995.804 828.969 1009.4 863.593 C 1011.85 859.654 1014.1 855.306 1016.05 851.092 C 1030.48 819.811 1045.83 788.388 1059.14 756.636 z" fill="rgb(164,42,45)" transform="translate(0,0)"></path>
<path d="M 232.217 757.32 L 360.044 757.355 L 360.003 797.501 C 332.625 797.473 305.247 797.604 277.871 797.895 L 277.731 837.686 L 336.3 837.839 L 336.153 876.831 C 333.32 878.999 284.918 877.926 277.601 877.89 L 277.337 957.199 L 232.196 957.136 L 232.217 757.32 z" fill="rgb(164,42,45)" transform="translate(0,0)"></path>
<path d="M 619.047 756.948 L 665.905 756.936 L 665.944 916.2 L 746.591 916.166 L 746.634 956.926 C 706.479 958.038 660.112 956.932 619.497 956.917 L 619.047 756.948 z" fill="rgb(164,42,45)" transform="translate(0,0)"></path>
<path d="M 1117.05 756.723 L 1163.67 756.951 L 1163.85 957.922 L 1116.88 958.014 L 1117.05 756.723 z" fill="rgb(164,42,45)" transform="translate(0,0)"></path>
<path d="M 1350.84 756.826 L 1396.35 756.928 C 1396.87 823.845 1396.87 890.766 1396.36 957.684 L 1350.06 957.771 L 1350.84 756.826 z" fill="rgb(164,42,45)" transform="translate(0,0)"></path>
<path d="M 381.77 757.112 L 427.225 757.109 C 427.885 823.213 427.158 890.801 427.215 957.067 L 381.941 957.1 L 381.77 757.112 z" fill="rgb(164,42,45)" transform="translate(0,0)"></path>
<path d="M 1053.96 1037.47 L 1628.1 1038.06 C 1624.24 1040.27 1620.47 1042.6 1616.77 1045.06 C 1570.31 1075.64 1537.84 1123.37 1526.43 1177.81 C 1512.79 1244.43 1529.09 1296.22 1565.44 1351.63 C 1524.32 1374.35 1478.21 1403.69 1437.33 1428.15 L 1117.49 1620.06 C 1082.05 1640.9 1043.26 1665.5 1007.17 1684.75 C 992.608 1647.58 973.804 1618.2 943.409 1591.59 C 903.423 1556.58 842.831 1534.8 789.542 1538.97 C 792.245 1526.03 796.759 1515.82 799.811 1503.24 C 800.764 1499.31 799.895 1498.73 798.026 1495.88 C 790.803 1492.9 787.756 1504.8 786.013 1510.16 C 783.02 1519.37 780.089 1528.6 777.084 1537.81 C 775.494 1541.73 757.029 1542.94 751.182 1544.42 C 704.107 1556.3 678.811 1571.71 643.621 1602.94 L 578.052 1497.48 C 565.781 1477.79 550.505 1454.52 539.64 1434.31 C 551.297 1425.66 564.693 1420.36 576.518 1412.24 C 579.859 1409.94 580.306 1408.87 580.818 1405.54 C 575.079 1396.61 542.374 1419.41 534.221 1424.13 C 523.288 1406.22 513.874 1388.49 503.347 1370.54 C 480.153 1330.62 456.62 1290.9 432.75 1251.38 C 417.51 1225.65 402.247 1199.34 386.569 1173.9 C 357.368 1126.51 325.905 1082.77 292.921 1038.05 C 386.851 1038.24 485.694 1036.68 579.167 1039.02 C 571.409 1044.29 538.016 1058.71 543.331 1068.21 C 551.761 1071.45 586.643 1045.06 597.356 1040.94 C 604.021 1038.38 733.291 1039.93 748.349 1040.86 C 752.584 1067.18 758.002 1085.93 773.552 1108.36 C 797.437 1142.66 833.905 1166.15 875.019 1173.7 C 915.292 1180.55 956.645 1171.39 990.262 1148.18 C 1031.93 1119.15 1045.28 1084.55 1053.96 1037.47 z" fill="rgb(254,254,254)" transform="translate(0,0)"></path>
<path d="M 535.135 1266.9 C 552.521 1266.47 586.746 1261.92 587.101 1286.83 C 587.233 1296.09 585.178 1298.8 579.091 1305.26 C 591.407 1313.68 592.517 1322.8 587.681 1336.53 C 586.56 1338.4 585.231 1340.14 583.72 1341.71 C 574.808 1351.05 548.592 1348.26 535.027 1348.22 L 535.135 1266.9 z" fill="rgb(16,37,94)" transform="translate(0,0)"></path>
<path d="M 544.325 1309.96 C 560.484 1309.92 594.248 1308.55 577.233 1335.78 C 567.445 1340.65 555.528 1339.2 544.335 1339.05 L 544.325 1309.96 z" fill="rgb(254,254,254)" transform="translate(0,0)"></path>
<path d="M 544.176 1275.98 C 559.935 1275.75 588.243 1274.16 573.758 1299.24 C 565.426 1301.74 553.406 1301.15 544.098 1301.78 L 544.176 1275.98 z" fill="rgb(254,254,254)" transform="translate(0,0)"></path>
<path d="M 788.872 1267.7 C 806.169 1267.38 840.517 1262.48 838.212 1289.32 C 837.579 1296.7 833.095 1299.82 827.879 1304.26 C 842.364 1311.13 844.961 1320.73 840.168 1335.38 C 838.894 1337.49 837.374 1339.43 835.639 1341.18 C 826.216 1350.85 801.728 1348.19 788.056 1348.02 C 789.115 1322.13 788.767 1293.8 788.872 1267.7 z" fill="rgb(16,37,94)" transform="translate(0,0)"></path>
<path d="M 797.897 1310.03 C 814.69 1309.9 843.766 1308.17 828.967 1334.92 C 819.98 1340.55 808.53 1339.34 797.951 1339.33 L 797.897 1310.03 z" fill="rgb(254,254,254)" transform="translate(0,0)"></path>
<path d="M 798.049 1276.68 C 811.938 1276.44 837.437 1274.23 825.316 1296.52 C 816.487 1302 808.275 1300.86 798.036 1300.73 L 798.049 1276.68 z" fill="rgb(254,254,254)" transform="translate(0,0)"></path>
<path d="M 1078.21 1266.74 C 1083.51 1267.09 1082.74 1266.27 1086.55 1268.84 C 1090.54 1277.41 1111.88 1338.35 1113.46 1346.72 L 1112.17 1347.77 C 1108.86 1348.15 1108.17 1348.56 1105.12 1347.26 C 1101.04 1342.81 1099 1334.75 1096.82 1328.66 L 1085.25 1328.49 L 1067.86 1328.22 C 1066.61 1332.41 1063.41 1345.17 1060.83 1347.5 C 1056.67 1347.94 1056.29 1348.02 1052.23 1347.3 C 1052.04 1346.9 1051.85 1346.5 1051.66 1346.09 C 1059.59 1324.22 1071.44 1287.66 1078.21 1266.74 z" fill="rgb(16,37,94)" transform="translate(0,0)"></path>
<path d="M 1082.34 1284.64 C 1085.18 1287.54 1092.6 1313.77 1093.35 1318.96 C 1090.61 1320.45 1085.95 1320.02 1082.59 1320.01 L 1070.87 1319.86 C 1074.38 1308.02 1078.21 1296.28 1082.34 1284.64 z" fill="rgb(254,254,254)" transform="translate(0,0)"></path>
<path d="M 1218.44 1265.83 C 1220.08 1265.96 1224.16 1266.21 1224.49 1267.06 C 1229.15 1279.13 1250.23 1338.49 1251.78 1347.05 C 1249.19 1348.39 1248.65 1347.95 1245.47 1347.92 C 1240.39 1345.29 1237.65 1333.51 1235.67 1327.47 L 1223.67 1327.63 L 1205.75 1327.69 C 1203.93 1333.28 1201.11 1344.05 1196.98 1347.78 C 1193.79 1347.95 1192.74 1348.24 1189.76 1346.99 C 1190.46 1340.28 1215.11 1272.91 1218.44 1265.83 z" fill="rgb(16,37,94)" transform="translate(0,0)"></path>
<path d="M 1220.75 1284.66 C 1224.37 1287.86 1230.88 1312.5 1232.62 1318.5 L 1223.1 1318.81 L 1208.95 1318.77 L 1220.75 1284.66 z" fill="rgb(254,254,254)" transform="translate(0,0)"></path>
<path d="M 875.85 1266.91 C 878.671 1266.95 881.171 1266.6 883.457 1268.05 C 888.299 1278.17 894.074 1301.87 898.739 1314.07 C 900.721 1319.26 909.044 1343.14 909.855 1346.81 C 907.597 1349.07 908.45 1348.27 905.075 1349.41 C 898.895 1347.59 899.212 1341.62 896.765 1336.07 C 893.209 1328.01 894.476 1328.05 886.25 1327.82 L 865.765 1327.88 C 864.009 1334.74 862.934 1344.01 857.433 1347.79 C 853.291 1348.25 855.172 1348.58 851.532 1347.08 C 851.226 1343.27 873.571 1270.86 875.85 1266.91 z" fill="rgb(16,37,94)" transform="translate(0,0)"></path>
<path d="M 878.665 1285.69 C 882.239 1289.43 888.961 1311.99 889.848 1317.92 C 887.676 1319.46 886.453 1318.9 883.213 1319 L 868.614 1318.96 L 878.665 1285.69 z" fill="rgb(254,254,254)" transform="translate(0,0)"></path>
<path d="M 1168.75 1328.29 C 1168.82 1313.62 1168.57 1283.93 1169.72 1268.57 C 1169.79 1267.56 1171.6 1267.21 1172.92 1266.69 C 1176.64 1267.25 1175.18 1266.44 1177.68 1268.66 C 1179.17 1288.02 1177.74 1326.56 1177.9 1347.98 C 1174 1348.19 1173.67 1348.27 1169.88 1347.63 C 1166.56 1343.9 1158.16 1327.47 1155.17 1322.2 C 1148.52 1310.46 1141.5 1298.93 1134.11 1287.64 C 1133.56 1306.42 1133.86 1325.49 1133.94 1344.27 C 1133.96 1346.51 1133.07 1346.69 1131.55 1347.94 C 1127.6 1348.04 1127.6 1348.75 1125.18 1346.86 C 1123.6 1329.4 1124.38 1285.21 1125 1266.64 C 1126.59 1266.71 1128.39 1266.69 1129.93 1267.1 C 1136.77 1268.94 1162.73 1318.08 1168.75 1328.29 z" fill="rgb(16,37,94)" transform="translate(0,0)"></path>
<path d="M 625.71 1265.85 L 631.058 1266.78 C 635.264 1270.49 648.857 1322.57 653.928 1332.17 C 654.821 1333.87 658.342 1344.38 658.762 1346.67 L 657.246 1347.63 C 646.092 1347.92 646.362 1337.69 642.087 1327.92 L 633.25 1327.85 L 615.178 1327.87 C 612.104 1336.71 611.86 1352.05 598.745 1347.36 C 598.981 1344.35 623.212 1271.95 625.71 1265.85 z" fill="rgb(16,37,94)" transform="translate(0,0)"></path>
<path d="M 628.293 1285.53 C 631.617 1288.69 638.011 1312.48 639.035 1317.95 C 637.369 1319.3 634.979 1318.83 632.25 1318.93 L 617.981 1318.77 C 621.666 1308.29 625.036 1296.26 628.293 1285.53 z" fill="rgb(254,254,254)" transform="translate(0,0)"></path>
<path d="M 729.634 1267.34 C 736.306 1267.29 772.275 1265.79 775.183 1268.98 C 775.105 1272.75 775.656 1271.1 773.591 1274.14 C 767.13 1277.73 747.342 1276.17 738.267 1276.18 L 738.187 1300.2 C 743.577 1300.22 763.969 1299.34 766.787 1301.27 C 768.722 1305.01 768.155 1303.02 768.052 1307.6 C 764.203 1313.35 749.373 1308.01 739.286 1310.56 C 737.417 1313.75 738.132 1315.16 738.068 1319.5 L 738.093 1339.36 C 747.849 1339.57 766.356 1337.79 774.449 1340.74 C 776.659 1343.55 775.954 1341.87 775.596 1346.32 C 770.796 1349.5 736.963 1348.08 728.939 1348.03 C 729.031 1321.13 729.263 1294.23 729.634 1267.34 z" fill="rgb(16,37,94)" transform="translate(0,0)"></path>
<path d="M 1489.65 1265.21 C 1500.01 1264.77 1506.4 1267.58 1515.52 1271.52 C 1514.2 1274.67 1513.64 1275.89 1511.96 1278.84 C 1507.45 1279.87 1494.26 1272.89 1489.22 1274.41 C 1469.61 1280.52 1475.57 1299.28 1493.44 1304.84 C 1526.07 1314.98 1527.44 1347.05 1490.25 1351.83 C 1482.74 1351.48 1472 1350.37 1466.74 1344.51 C 1465.74 1341.34 1465.87 1341.51 1466.25 1338.16 C 1471.14 1334.5 1485.21 1347.61 1496.53 1342.1 C 1535.09 1323.35 1470.22 1313.45 1468.18 1293.68 C 1466.37 1276.14 1475.34 1268.76 1489.65 1265.21 z" fill="rgb(16,37,94)" transform="translate(0,0)"></path>
<path d="M 686.76 1266.24 C 693.876 1266.08 710.656 1269.22 712.874 1277.05 C 705.95 1281.23 698.674 1275.02 691.331 1275.34 C 674.856 1276.08 670.533 1291.48 686.406 1298.96 C 702.68 1306.63 725.103 1315.77 712.328 1337.81 C 707.992 1345.29 698.946 1347.68 691.185 1349.26 C 684.889 1348.94 664.14 1345.28 665.945 1336.39 C 674.654 1330.34 680.224 1341.79 691.408 1339.78 C 697.604 1340.36 708.943 1331.93 705.881 1324.82 C 699.985 1311.14 670.785 1309.73 667.381 1292.9 C 664.484 1278.58 673.56 1269.01 686.76 1266.24 z" fill="rgb(16,37,94)" transform="translate(0,0)"></path>
<path d="M 1431.28 1266.25 C 1438.65 1265.53 1456.29 1266.04 1459.73 1273.75 C 1456.97 1281.48 1448.21 1277.79 1442.37 1276.12 C 1421.12 1270.33 1417.64 1289.05 1417.88 1305.48 C 1418.19 1327.1 1417.73 1346.28 1446.26 1339.46 C 1450.08 1337.91 1451.6 1337.02 1455.62 1336.72 C 1458.48 1338.23 1457.56 1337.11 1458.52 1340.15 C 1454.28 1351.03 1435.3 1352.98 1425.14 1348.72 C 1403.68 1339.72 1406.58 1299.93 1412.08 1281.84 C 1414.55 1273.7 1423.31 1269.12 1431.28 1266.25 z" fill="rgb(16,37,94)" transform="translate(0,0)"></path>
<path d="M 1360.09 1266.09 C 1363.27 1266.08 1363.94 1266.15 1367.09 1266.67 L 1368.19 1268.26 C 1366.42 1276.85 1346.66 1300.45 1345.64 1315.2 C 1345.21 1321.49 1345.88 1345.87 1344.27 1348.04 C 1341.15 1348.71 1341.22 1348.95 1338.26 1347.99 C 1331.88 1340.31 1339.73 1315.2 1334.02 1306.43 C 1329.15 1298.36 1315.45 1276.23 1313.34 1268.05 C 1316.07 1266.33 1316.84 1267 1320.68 1267.01 C 1326.26 1270.83 1336.54 1292.33 1340.26 1299.36 C 1346.53 1288.39 1353 1276.46 1360.09 1266.09 z" fill="rgb(16,37,94)" transform="translate(0,0)"></path>
<path d="M 922.471 1267.13 C 925.903 1266.99 928.202 1266.53 931.278 1267.99 C 932.3 1273.1 931.849 1287.38 931.834 1293.14 L 931.852 1338.96 C 940.372 1338.94 957.224 1338.25 964.864 1339.42 C 966.357 1341.77 965.699 1344.96 965.536 1347.95 L 922.201 1348.03 L 922.471 1267.13 z" fill="rgb(16,37,94)" transform="translate(0,0)"></path>
<path d="M 976.251 1267.13 C 979.431 1267.08 981.724 1266.65 984.379 1268.26 C 985.457 1273.6 985.002 1287.32 985.003 1293.54 L 985.012 1339 C 991.896 1339.01 1011.92 1338.51 1017.75 1339.57 C 1019.19 1342.32 1018.52 1344.83 1018.23 1348.02 L 975.943 1348 L 976.251 1267.13 z" fill="rgb(16,37,94)" transform="translate(0,0)"></path>
<path d="M 1265.97 1266.95 C 1269.25 1266.91 1270.18 1266.71 1273.31 1267.9 C 1275.3 1272.81 1274.46 1330.81 1274.47 1339.87 C 1283.47 1339.91 1295.66 1337.59 1302.7 1340.96 C 1304.6 1344.55 1303.89 1344.05 1303.59 1348.84 L 1265.38 1348.74 C 1265.46 1322.04 1265.09 1293.49 1265.97 1266.95 z" fill="rgb(16,37,94)" transform="translate(0,0)"></path>
<path d="M 822.592 1395.48 C 825.525 1396.35 831.425 1397.72 830.094 1401.85 C 826.196 1413.94 813.687 1467.91 806.522 1475.07 C 802.471 1473.88 797.718 1471.27 799.826 1466.5 C 807.763 1448.56 813.56 1411.07 822.592 1395.48 z" fill="rgb(16,37,94)" transform="translate(0,0)"></path>
<path d="M 1382.19 1267.15 C 1386.06 1267.13 1387.75 1266.56 1390.87 1268.18 C 1391.81 1275.49 1391.51 1289.52 1391.54 1297.51 L 1391.65 1348.46 C 1388.15 1348.56 1386.35 1348.89 1383.05 1347.63 C 1381.52 1343.58 1382.19 1276.88 1382.19 1267.15 z" fill="rgb(16,37,94)" transform="translate(0,0)"></path>
<path d="M 518.242 1076.67 L 520.569 1077.6 C 522.733 1080.68 522.275 1079.03 522.155 1082.66 C 517.677 1090.04 477.768 1113.71 468.371 1118.5 L 464.625 1116.73 C 462.528 1113.77 462.933 1115.37 463.418 1111.74 C 466.801 1106.23 509.761 1081.75 518.242 1076.67 z" fill="rgb(16,37,94)" transform="translate(0,0)"></path>
<path d="M 437.881 1125.78 C 439.046 1125.9 440.1 1126.31 441.257 1126.66 C 443.239 1129.91 442.871 1128.19 442.331 1132.01 C 437.514 1138.86 403.16 1158.58 394.379 1162.74 L 391.018 1161.59 C 388.954 1158.5 389.342 1160.15 389.777 1156.48 C 394.717 1149.44 428.751 1130.63 437.881 1125.78 z" fill="rgb(16,37,94)" transform="translate(0,0)"></path>
<path d="M 1269.67 1140.27 C 1273.35 1141.16 1278.38 1143.57 1281.99 1145.14 C 1275.71 1163 1270.54 1171.9 1271.76 1191.5 C 1268.31 1188.67 1267.57 1188.5 1263.18 1187.59 C 1261.55 1184.3 1262.09 1185.31 1263.35 1180.66 C 1261.97 1177.23 1261.23 1177.77 1257.19 1175.34 C 1260.92 1163.9 1265.57 1151.66 1269.67 1140.27 z" fill="rgb(16,37,94)" transform="translate(0,0)"></path>
<path d="M 1254.91 1180.98 C 1257.76 1182.17 1257.75 1181.95 1259.66 1184.29 L 1259.06 1189.47 C 1261.69 1195.52 1259.96 1189.36 1264.58 1193.22 C 1264.23 1198.17 1256.35 1218.3 1254.1 1224.42 C 1249.98 1223.17 1245.86 1221.42 1241.85 1219.84 C 1246.66 1206.87 1249.52 1193.61 1254.91 1180.98 z" fill="rgb(16,37,94)" transform="translate(0,0)"></path>
<path d="M 1028.38 1482.52 C 1031.03 1484.18 1037.33 1486.89 1040.43 1488.34 C 1036.06 1498.33 1031.9 1508.4 1027.93 1518.55 C 1024.08 1516.89 1019.5 1515.25 1015.53 1513.72 C 1019.25 1503.8 1024.27 1492.41 1028.38 1482.52 z" fill="rgb(16,37,94)" transform="translate(0,0)"></path>
<path d="M 1048.66 1435.19 L 1062.13 1440.34 C 1057.3 1448.66 1053.08 1459.81 1047.85 1469.26 L 1036.26 1465.42 C 1040.17 1455.29 1043.94 1444.95 1048.66 1435.19 z" fill="rgb(16,37,94)" transform="translate(0,0)"></path>
<path d="M 998.97 1456.48 C 1006.53 1458.86 1019.73 1464.78 1028.71 1467.88 L 1024.29 1479.62 C 1013.71 1475.42 1004.06 1472.7 993.37 1467.8 L 998.97 1456.48 z" fill="rgb(16,37,94)" transform="translate(0,0)"></path>
<path d="M 1049.37 1475.98 L 1080.02 1487.48 C 1078.53 1491.11 1076.76 1495.79 1075.04 1499.22 C 1065.19 1495.41 1052.68 1490.16 1042.79 1487.1 C 1046.78 1482.82 1048.19 1481.58 1049.37 1475.98 z" fill="rgb(16,37,94)" transform="translate(0,0)"></path>
<path d="M 1222.11 1164.93 C 1230.68 1168.04 1248.08 1170.8 1252.11 1177.97 C 1252.22 1181.42 1251.91 1181.58 1250.64 1184.7 C 1240 1182.69 1228.6 1179.01 1218.15 1175.87 L 1222.11 1164.93 z" fill="rgb(16,37,94)" transform="translate(0,0)"></path>
<path d="M 1275.9 1181.77 C 1286.34 1185.21 1296.82 1188.56 1307.32 1191.82 L 1304.04 1201.82 C 1300.45 1202.45 1276.13 1193.33 1273.51 1190.77 L 1275.9 1181.77 z" fill="rgb(16,37,94)" transform="translate(0,0)"></path>
<path d="M 876.1 1220.75 C 892.844 1221.93 882.967 1236.36 879.165 1247.7 C 875.066 1248.81 873.59 1248.41 870.846 1245.6 C 869.222 1238.58 873.705 1228.01 876.1 1220.75 z" fill="rgb(16,37,94)" transform="translate(0,0)"></path>
<path d="M 1034.88 1468.45 C 1039.14 1471.2 1042.5 1473.11 1046.91 1475.51 L 1049.37 1475.98 C 1048.19 1481.58 1046.78 1482.82 1042.79 1487.1 L 1040.69 1487.07 C 1040.79 1484.75 1041.02 1485.58 1040.11 1483.58 C 1035.94 1483.44 1033.56 1484.2 1031.23 1480.67 C 1030.9 1476.32 1033.09 1472.61 1034.88 1468.45 z" fill="rgb(16,37,94)" transform="translate(0,0)"></path>
<path d="M 1046.91 1475.51 L 1049.37 1475.98 C 1048.19 1481.58 1046.78 1482.82 1042.79 1487.1 L 1040.69 1487.07 C 1041.96 1480.8 1042.66 1480.06 1046.91 1475.51 z" fill="rgb(225,226,224)" transform="translate(0,0)"></path>
<path d="M 1020.5 352.952 C 1021.57 354.116 1021.18 353.471 1021.75 354.969 C 1029.68 375.567 1036.45 392.51 1049.86 410.226 C 1084.78 456.882 1137.18 487.322 1195.01 494.542 C 1245.47 501.392 1296.78 491.324 1340.91 465.914 C 1354.17 458.132 1365.02 449.535 1377.14 440.199 C 1396.58 469.728 1415.2 499.791 1432.98 530.353 C 1440.52 543.369 1449.35 557.94 1455.99 571.194 C 1442.29 580.093 1428.5 588.858 1414.63 597.488 C 1407.91 601.707 1384.28 614.678 1383.5 621.98 C 1389.7 629.145 1409.15 613.338 1415.18 609.493 C 1430.79 599.693 1446.32 589.777 1461.77 579.744 C 1480.98 609.935 1502.57 644.732 1519.47 676.16 C 1452.3 675.443 1377.78 674.567 1310.96 675.926 C 1319.5 670.531 1358.8 647.901 1362.03 642.702 C 1363.72 639.969 1363.64 637.775 1362.92 634.772 L 1361.41 633.872 C 1352.27 635.798 1301.62 668.901 1290.57 675.957 L 1176.57 675.977 L 1181.1 661 C 1183.96 651.138 1197.35 619.066 1192.8 611.68 C 1183.77 609.478 1178.38 634.549 1176.2 641.209 C 1172.43 652.882 1168.42 664.48 1164.19 675.996 L 717.284 675.847 C 635.471 675.857 552.129 675.146 470.42 676.079 C 497.519 658.702 524.002 643.851 551.66 627.543 L 727.955 524.174 C 787.883 488.312 848.079 452.901 908.538 417.943 C 943.955 397.078 984.664 371.672 1020.5 352.952 z" fill="rgb(254,254,254)" transform="translate(0,0)"></path>
<path d="M 995.878 517.878 C 999.525 509.181 999.569 503.387 1001.59 494.34 C 1002.68 489.451 1008.76 486.451 1012.81 489.329 C 1021.42 495.438 1008.02 511.024 1003.65 516.408 L 1004.54 517.295 L 1006.15 517.754 L 1007.26 520.095 C 1008.6 524.82 1010.4 528.169 1012.51 532.57 C 1016.28 534.728 1019.69 537.02 1023.85 538.133 L 1025.31 538.599 C 1030.49 540.27 1034.28 541.124 1036.83 546.141 C 1036.63 550.647 1037.18 548.489 1034.54 552.682 C 1024.39 558.311 1016.66 543.391 1001.36 547.187 C 983.963 551.503 989.728 578.22 977.308 577.394 C 965.591 569.887 977.749 560.584 982.163 550.812 C 981.879 549.163 981.552 547.521 981.181 545.89 C 976.811 527.382 952.194 529.653 950.054 518.532 C 951.54 515.517 951.368 515.687 954.231 513.934 C 961.513 513.059 967.48 518.77 975.688 522.382 C 984.402 521.622 987.844 520.573 995.878 517.878 z" fill="rgb(16,37,94)" transform="translate(0,0)"></path>
<path d="M 1022.82 542.714 C 1014.68 542.109 1005.88 542.589 998.176 540.86 C 994.986 540.143 998.21 542.067 992.762 542.638 C 992.692 539.888 993.423 539.878 995.291 537.063 C 998.405 535.437 996.922 535.489 999.827 536.26 C 1000.37 531.996 1000.8 522.135 1004.81 520.319 L 1007.26 520.095 C 1008.6 524.82 1010.4 528.169 1012.51 532.57 C 1016.28 534.728 1019.69 537.02 1023.85 538.133 C 1022.55 541.234 1022.45 539.949 1022.82 542.714 z" fill="rgb(254,254,254)" transform="translate(0,0)"></path>
<path d="M 1004.81 520.319 L 1007.26 520.095 C 1008.6 524.82 1010.4 528.169 1012.51 532.57 C 1016.28 534.728 1019.69 537.02 1023.85 538.133 C 1022.55 541.234 1022.45 539.949 1022.82 542.714 C 1014.8 535.263 1005.32 533.335 1004.81 520.319 z" fill="rgb(16,37,94)" transform="translate(0,0)"></path>
<path d="M 990.329 525.307 L 991.766 525.156 C 992.892 528.075 985.696 544.804 983.076 546.049 C 982.883 534.607 986.166 535.855 976.746 527.526 C 981.203 526.942 985.875 526.061 990.329 525.307 z" fill="rgb(254,254,254)" transform="translate(0,0)"></path>
<path d="M 1216.81 520.561 C 1218.58 520.769 1222.54 521.186 1222.84 522.122 C 1225.86 531.657 1205.85 587.828 1201.23 593.135 C 1197.7 593.143 1197.24 593.316 1195.27 590.819 C 1194.12 582.668 1212.6 529.343 1216.81 520.561 z" fill="rgb(16,37,94)" transform="translate(0,0)"></path>
<path d="M 1801.9 1226.08 C 1803.74 1228.46 1797.17 1246.87 1795.97 1250.78 C 1778.51 1307.81 1755.7 1361.87 1726.47 1413.86 C 1722.39 1415.78 1717.05 1419.4 1713.16 1421.9 C 1670.5 1449.38 1626.27 1474.15 1583.07 1500.72 C 1432.95 1591.53 1281.97 1680.91 1130.16 1768.85 C 1106.2 1782.96 1082.17 1796.94 1058.06 1810.8 C 1020.71 1832.26 1025.02 1833.75 981.94 1832.32 C 930.953 1830.61 890.667 1822.89 841.499 1811.16 C 833.593 1809.45 824.845 1806.97 816.946 1804.91 C 829.83 1798.76 843.929 1793.3 856.458 1786.55 C 887.799 1769.68 918.55 1750.83 949.099 1732.56 L 1079.1 1655.68 L 1553.66 1371.69 C 1634.49 1323.34 1719.42 1271.29 1801.9 1226.08 z" fill="rgb(254,254,254)" transform="translate(0,0)"></path>
<path d="M 990.413 215.348 C 1066.23 213.01 1126.49 218.028 1201.01 234.795 C 1193.26 240.55 1179.6 248.104 1170.96 253.127 C 1155.13 262.363 1139.24 271.498 1123.3 280.53 L 997.885 352.804 L 484.614 654.3 C 471.949 661.356 459.355 668.539 446.834 675.848 C 399.58 676.622 340.46 676.965 293.85 675.407 C 306.734 652.14 325.626 614.055 342.339 594.366 C 345.803 590.284 380.622 569.847 388.045 565.46 C 420.747 546.111 453.58 526.985 486.544 508.085 L 812.015 318.776 L 923.26 254.778 C 944.88 242.395 970.116 229.058 990.413 215.348 z" fill="rgb(254,254,254)" transform="translate(0,0)"></path>
<path d="M 215.848 1037.85 C 232.109 1037.52 249.462 1037.86 265.806 1037.9 C 271.71 1044.83 277.76 1052.02 283.227 1059.29 C 324.59 1114.28 362.495 1172.79 398.36 1231.43 C 421.237 1268.54 443.782 1305.84 465.993 1343.35 C 492.073 1388.24 517.033 1436.46 544.899 1480.02 C 608.628 1579.62 667.608 1689.95 744.055 1780.3 C 728.239 1776.09 697.965 1762.18 682.918 1755.12 C 611.813 1721.75 548.426 1679.52 489.769 1627.22 C 362.802 1512.76 274.432 1361.76 236.824 1195 C 225.445 1143.3 218.428 1090.73 215.848 1037.85 z" fill="rgb(254,254,254)" transform="translate(0,0)"></path>
<path d="M 1278.15 256.774 C 1283.15 257.95 1288.92 260.459 1293.79 262.29 C 1445.17 319.234 1581.95 420.045 1675.85 552.282 C 1703.98 591.901 1730.95 631.573 1750.8 676.236 L 1543.15 676.243 C 1528 652.755 1514.65 628.333 1500 604.593 C 1450.26 523.953 1403.26 440.842 1351.38 361.633 C 1328.76 327.083 1304.23 288.416 1278.15 256.774 z" fill="rgb(254,254,254)" transform="translate(0,0)"></path>
<path d="M 179.376 1037.87 C 187.293 1037.64 196.176 1037.88 204.168 1037.92 C 206.197 1066.74 207.829 1095.02 211.917 1123.68 C 234.039 1286.33 302.783 1439.09 409.845 1563.52 C 519.488 1688.68 664.393 1777.78 825.56 1819.14 C 875.201 1832.17 909.103 1838.86 960.02 1842.52 C 1174.75 1859.86 1387.52 1790.74 1551.05 1650.49 C 1733.95 1491.71 1829.51 1278.22 1846.19 1038.55 C 1855.55 1038.31 1862.65 1038.38 1871.99 1038.89 C 1871.51 1047.2 1870.89 1055.5 1870.12 1063.79 C 1867.94 1101.31 1858.25 1155.33 1849.9 1191.67 C 1816.12 1345.59 1742.12 1487.8 1635.46 1603.8 C 1610.16 1631.18 1582.91 1656.69 1553.91 1680.11 C 1414.94 1794.92 1242.41 1861.44 1062.33 1869.63 C 903.745 1877.52 746.299 1838.98 609.279 1758.75 C 558.666 1730.43 511.374 1696.55 468.283 1657.73 C 287.199 1491.97 190.228 1283.62 179.376 1037.87 z" fill="rgb(254,254,254)" transform="translate(0,0)"></path>
<path d="M 1715.97 1434.08 L 1716.54 1435.59 C 1711.27 1445.69 1700.13 1461.91 1693.65 1471.46 C 1664.97 1513.9 1632.66 1553.78 1597.1 1590.66 C 1584.45 1604.01 1570.58 1616.56 1556.95 1628.9 C 1416.44 1755.58 1235.35 1827.98 1046.23 1833.1 L 1045.54 1832.63 C 1046.8 1829.85 1186.7 1749.48 1200.03 1741.67 C 1372.53 1640.02 1544.51 1537.48 1715.97 1434.08 z" fill="rgb(254,254,254)" transform="translate(0,0)"></path>
<path d="M 1005.36 177.437 C 1121.67 173.31 1252.33 201.302 1358.25 248.706 C 1513.83 317.812 1645.66 431.146 1737.33 574.604 C 1755.27 602.502 1780.58 645.094 1792.4 676.107 C 1783.77 676.044 1775.13 676.216 1766.5 676.623 C 1732.25 605.138 1673.43 519.538 1618.21 461.859 C 1466.22 303.115 1261.9 207.021 1040.87 203.089 C 965.713 202.826 889.548 209.934 816.923 230.074 C 631.406 282.215 468.873 395.351 355.558 551.22 C 328.564 588.573 302.445 635.535 279.835 675.588 C 272.99 675.041 259.561 675.75 252.246 675.919 C 262.869 656.587 271.768 636.762 282.901 617.249 C 316.57 558.756 356.342 503.994 401.551 453.882 C 512.71 331.865 678.225 235.622 838.998 198.915 C 896.085 185.88 947.103 180.127 1005.36 177.437 z" fill="rgb(254,254,254)" transform="translate(0,0)"></path>
<path d="M 963.933 217.502 C 962.089 220.807 910.46 249.224 902.41 253.785 L 778.848 324.953 L 359.627 569.221 C 358.471 562.147 401.575 511.861 409.012 503.057 C 549.294 338.674 748.631 236.098 963.933 217.502 z" fill="rgb(254,254,254)" transform="translate(0,0)"></path>
<path d="M 793.503 1549.42 C 822.642 1546.62 866.569 1557.59 892.505 1570.69 C 943.43 1596.42 978.694 1637.64 996.787 1691.35 C 969.02 1706.72 941.085 1724.76 913.013 1740.46 C 905.312 1712.79 894.385 1694.28 872.643 1675.29 C 824.877 1638.45 762.054 1639.26 715.757 1679.16 C 710.526 1683.66 705.865 1688.45 701.027 1693.38 C 682.27 1666.29 665.16 1641.48 649.573 1612.39 C 685.783 1571.66 740.654 1553.64 793.503 1549.42 z" fill="rgb(254,254,254)" transform="translate(0,0)"></path>
<path d="M 1109.03 300.744 C 1109.79 300.86 1111.05 300.989 1111.32 301.773 C 1128.28 350.766 1169.04 384.739 1221.27 388.36 C 1262.44 391.214 1290.86 377.372 1321.29 351.322 C 1338.38 376.362 1356.93 403.029 1371.29 429.636 C 1351.43 448.724 1339.31 456.247 1314.6 468.126 C 1305.25 472.232 1295.64 475.736 1285.84 478.619 C 1231.03 494.339 1172.24 487.782 1122.24 460.374 C 1075.48 434.528 1044.98 397.399 1030.27 346.261 L 1109.03 300.744 z" fill="rgb(254,254,254)" transform="translate(0,0)"></path>
<path d="M 1653.24 1038.1 C 1677.08 1037.65 1701.84 1037.98 1725.75 1038.02 C 1734.96 1054.53 1745.54 1070.44 1754.66 1087.38 C 1740.57 1092.47 1726.81 1098.44 1713.48 1105.26 C 1658.71 1133.63 1625.96 1178.47 1633.61 1242.71 C 1636.13 1263.93 1644.45 1279.26 1654.3 1297.76 L 1624.42 1316.44 C 1607.95 1326.26 1591.53 1336.18 1575.17 1346.19 C 1563.81 1330.01 1554.51 1315.53 1547.05 1297.06 C 1526.82 1247.29 1527.23 1191.51 1548.19 1142.04 C 1567.81 1094.68 1605.67 1057.21 1653.24 1038.1 z" fill="rgb(254,254,254)" transform="translate(0,0)"></path>
<path d="M 1759.04 1097.02 C 1765.48 1103.18 1805.66 1189.37 1809.85 1200.31 C 1808.63 1203.92 1807.16 1209.31 1804.08 1211.5 C 1791.55 1220.42 1775.79 1228.74 1762.39 1236.33 C 1736.09 1251.46 1709.7 1266.41 1683.21 1281.2 C 1676.89 1285 1670.52 1288.74 1664.12 1292.39 C 1659.53 1285.48 1655.38 1278.62 1652.06 1270.99 C 1639.85 1242.69 1639.51 1210.67 1651.13 1182.12 C 1671.3 1131.55 1713.78 1116.32 1759.04 1097.02 z" fill="rgb(254,254,254)" transform="translate(0,0)"></path>
<path d="M 903.556 1038.91 C 917.205 1030.21 930.054 1046.01 938.396 1042.28 C 935.774 1039.15 931.822 1038.46 927.874 1037.4 C 964.856 1035.99 1007.82 1037.23 1045.37 1037.36 C 1042.22 1075.15 1023.96 1110.08 994.742 1134.25 C 965.291 1158.87 927.26 1170.77 889.028 1167.33 C 880.316 1166.46 867.516 1164.03 859.343 1160.67 L 850.943 1156.76 L 842.332 1154.24 C 842.715 1149.19 843.515 1144.97 844.393 1140.02 L 846.272 1132.96 C 847.618 1127.42 848.614 1123.9 850.442 1118.46 L 852.533 1111.28 C 854.255 1106.71 856.098 1102.41 858.005 1097.92 L 861.366 1090.51 C 864.13 1085.79 865.985 1082.94 869.14 1078.47 L 873.505 1072.73 L 882.432 1061.59 L 887.75 1055.36 C 890.431 1051.84 894.818 1047.31 897.894 1043.93 C 900.915 1042.17 901.762 1041.97 903.556 1038.91 z" fill="rgb(254,254,254)" transform="translate(0,0)"></path>
<path d="M 887.75 1055.36 L 888.771 1056.23 C 894.23 1060.76 901.941 1064.67 905.56 1068.77 L 905.572 1070.33 C 897.919 1073.07 888.193 1066.32 882.432 1061.59 L 887.75 1055.36 z" fill="rgb(164,42,45)" transform="translate(0,0)"></path>
<path d="M 846.272 1132.96 L 847.501 1133.18 C 854.323 1134.32 865.792 1134.08 870.268 1135.83 L 870.506 1137.6 C 865.322 1143.5 851.831 1141.05 844.393 1140.02 L 846.272 1132.96 z" fill="rgb(200,21,42)" transform="translate(0,0)"></path>
<path d="M 873.505 1072.73 C 878.713 1076.15 889.927 1081.67 892.877 1084.7 L 892.692 1086.07 C 883.821 1089.31 876.231 1083.26 869.14 1078.47 L 873.505 1072.73 z" fill="rgb(164,42,45)" transform="translate(0,0)"></path>
<path d="M 861.366 1090.51 C 866.971 1093.57 878.515 1098.31 882.166 1101.19 L 882.203 1102.42 C 873.878 1104.75 865.405 1101.31 858.005 1097.92 L 861.366 1090.51 z" fill="rgb(164,42,45)" transform="translate(0,0)"></path>
<path d="M 897.894 1043.93 C 900.915 1042.17 901.762 1041.97 903.556 1038.91 C 907.235 1044.24 920.435 1053.59 921.192 1056.49 L 920.323 1057.31 C 909.584 1054.68 905.539 1051.5 897.894 1043.93 z" fill="rgb(164,42,45)" transform="translate(0,0)"></path>
<path d="M 852.533 1111.28 C 858.214 1113.12 872.819 1116.11 875.039 1119.92 C 869.212 1122.57 856.406 1120.05 850.442 1118.46 L 852.533 1111.28 z" fill="rgb(200,21,42)" transform="translate(0,0)"></path>
<path d="M 850.943 1156.76 C 859.93 1155.46 868.215 1155.52 877.275 1155.93 C 870.17 1158.85 864.944 1158.2 859.343 1160.67 L 850.943 1156.76 z" fill="rgb(200,21,42)" transform="translate(0,0)"></path>
<path d="M 786.982 1658.39 C 807.758 1655.36 835.109 1662.61 852.555 1673.76 C 881.642 1692.36 895.764 1713.61 903.809 1746.38 C 875.574 1764.3 848.164 1777.93 818.5 1793.03 C 813.449 1795.88 808.183 1798.28 802.946 1800.77 C 793.23 1798.03 782.41 1794.44 773.285 1790.19 C 753.404 1761.06 727.997 1732.68 707.274 1702.79 C 707.832 1702.02 708.4 1701.26 708.979 1700.5 C 728.602 1674.95 755.649 1662.34 786.982 1658.39 z" fill="rgb(254,254,254)" transform="translate(0,0)"></path>
<path d="M 1216.98 238.268 C 1226.62 240.602 1242.56 243.287 1249.19 250.739 C 1268.39 272.318 1284.18 297.795 1301.39 321.026 C 1306.12 327.404 1312.19 336.157 1315.78 343.021 C 1286.88 367.433 1262.39 380.648 1223.34 378.602 C 1189.66 375.914 1159.8 360.709 1139.32 333.62 C 1130.13 321.472 1125.52 308.618 1120.7 294.423 C 1147.78 279.709 1191.61 254.915 1216.98 238.268 z" fill="rgb(254,254,254)" transform="translate(0,0)"></path>
<path d="M 756.693 1037.12 L 865.437 1037.52 L 870.22 1037.58 C 878.139 1037.04 886.085 1037 894.01 1037.46 C 890.18 1041.34 884.909 1046.41 881.427 1050.39 L 877.532 1055.34 C 874.379 1059.55 870.999 1064.27 867.699 1068.29 L 863.35 1074.73 L 855.486 1087.61 L 852.565 1094.62 L 846.309 1109.13 L 843.646 1115.8 C 842.363 1120.44 840.368 1126.9 839.338 1131.45 C 838.858 1134.17 838.141 1137.67 837.791 1140.33 L 836.222 1152.1 C 788.134 1126.93 763.852 1089.96 756.693 1037.12 z" fill="rgb(254,254,254)" transform="translate(0,0)"></path>
<path d="M 837.791 1140.33 C 832.474 1134 833.385 1134.46 826 1132.02 C 824.922 1131.67 817.864 1121.8 817.4 1118.77 C 822.551 1118.58 834.31 1128.13 839.338 1131.45 C 838.858 1134.17 838.141 1137.67 837.791 1140.33 z" fill="rgb(200,21,42)" transform="translate(0,0)"></path>
<path d="M 843.646 1115.8 C 838.664 1112.46 825.367 1102.38 825.299 1096.56 C 830.656 1095.79 841.792 1105.61 846.309 1109.13 L 843.646 1115.8 z" fill="rgb(164,42,45)" transform="translate(0,0)"></path>
<path d="M 870.22 1037.58 C 878.139 1037.04 886.085 1037 894.01 1037.46 C 890.18 1041.34 884.909 1046.41 881.427 1050.39 C 877.611 1046.19 873.875 1041.92 870.22 1037.58 z" fill="rgb(254,254,254)" transform="translate(0,0)"></path>
<path d="M 835.962 1069.93 C 842.978 1075.26 849.145 1081.5 855.486 1087.61 L 852.565 1094.62 C 841.759 1084.66 839.711 1083.83 835.962 1069.93 z" fill="rgb(200,21,42)" transform="translate(0,0)"></path>
<path d="M 863.35 1074.73 C 858.925 1070.51 848.851 1058.75 848.715 1052.64 L 849.817 1052.53 C 856.027 1055.94 862.468 1063.14 867.699 1068.29 L 863.35 1074.73 z" fill="rgb(164,42,45)" transform="translate(0,0)"></path>
<path d="M 865.437 1037.52 L 870.22 1037.58 C 873.875 1041.92 877.611 1046.19 881.427 1050.39 L 877.532 1055.34 C 870.922 1049.17 868.535 1046.03 865.437 1037.52 z" fill="rgb(200,21,42)" transform="translate(0,0)"></path>
<path d="M 1747.02 1038.46 C 1774.87 1037.58 1805.37 1038.02 1833.33 1038.13 C 1832.31 1077.93 1827.18 1112.39 1820.28 1151.3 C 1819.35 1155.81 1818.3 1160.36 1817.31 1164.86 C 1795.5 1123.23 1771.64 1078.12 1747.02 1038.46 z" fill="rgb(254,254,254)" transform="translate(0,0)"></path>
<path d="M 1346.14 1870.76 C 1360.7 1874.97 1366.31 1888.51 1359.41 1901.68 C 1347.38 1924.19 1333.68 1997.61 1300.19 1991.32 C 1292.76 1989.92 1283.08 1976.25 1287.1 1968.03 C 1292.75 1956.5 1318.38 1882.33 1324.78 1878.67 C 1329.2 1877.45 1340.83 1872.64 1346.14 1870.76 z" fill="rgb(16,37,94)" transform="translate(0,0)"></path>
<path d="M 1045.09 90.0734 C 1053.13 77.7082 1074.71 61.0613 1086.61 51.1259 C 1103.22 37.2577 1137.44 1.3731 1149.65 40.0335 C 1153.91 53.5422 1122.15 77.552 1112.48 85.3083 C 1102.79 93.0837 1084 114.777 1074.3 119.125 C 1069.27 118.823 1062.69 118.916 1057.54 118.835 C 1044.33 109.666 1044.27 105.703 1045.09 90.0734 z" fill="rgb(16,37,94)" transform="translate(0,0)"></path>
<path d="M 128.157 1110.14 C 124.128 1122.75 109.932 1130.3 97.9941 1123.27 C 83.0417 1114.46 69.8566 1102.39 56.131 1091.8 C 46.4415 1084.33 36.6431 1076.4 27.8569 1067.91 C 10.1978 1051.8 34.4299 1022.76 52.8609 1034.7 C 64.1748 1042.03 74.8703 1052.19 85.9197 1060.1 C 98.3155 1069.93 116.692 1080.81 126.527 1092.51 L 128.157 1110.14 z" fill="rgb(16,37,94)" transform="translate(0,0)"></path>
<path d="M 224.816 1438.01 C 225.265 1439.86 225.78 1441.73 225.758 1443.65 C 225.69 1449.51 221.677 1455.75 217.461 1459.56 C 213.187 1463.42 207.213 1466.06 201.368 1465.42 C 188.246 1464 116.249 1443.29 109.364 1434.54 C 105.584 1429.74 104.152 1423.57 105.061 1417.56 C 105.913 1411.93 108.667 1406.94 113.29 1403.56 C 116.176 1401.44 120.282 1399.61 123.92 1399.61 C 134.601 1399.61 152.152 1406.81 162.745 1409.85 C 181.039 1415.11 199.113 1420.23 217.861 1423.61 C 219.054 1427.13 222.522 1435.21 224.816 1438.01 z" fill="rgb(16,37,94)" transform="translate(0,0)"></path>
<path d="M 1106.95 1925.84 C 1112.5 1926.82 1117.1 1929.2 1120.41 1933.9 C 1123.5 1938.26 1123.95 1944.21 1122.91 1949.31 C 1119.56 1965.9 1074.67 2022.69 1060.19 2031.9 C 1056.64 2034.16 1052.12 2034.2 1048.13 2033.18 C 1041.66 2031.51 1036.18 2027.21 1033.03 2021.31 C 1030.76 2016.96 1030.25 2011.41 1031.89 2006.75 C 1033.39 2002.46 1084.91 1932.65 1090.37 1927.15 C 1096.31 1927.07 1101.19 1927.33 1106.95 1925.84 z" fill="rgb(16,37,94)" transform="translate(0,0)"></path>
<path d="M 1228.31 1906.95 C 1240.4 1908.07 1242.78 1916.29 1245.72 1926.48 C 1238.19 1950.06 1209.2 2001.67 1190.15 2017.31 C 1176.7 2028.36 1154.49 2008.32 1161.83 1991.67 C 1167.85 1978.01 1177.73 1965.86 1184.96 1952.78 C 1190.14 1944.33 1203.91 1913.85 1211.56 1910.52 C 1215.82 1910.09 1224.19 1908.09 1228.31 1906.95 z" fill="rgb(16,37,94)" transform="translate(0,0)"></path>
<path d="M 1719.27 1596.65 L 1721.17 1597.98 C 1725.3 1598.33 1736.5 1600.55 1738.39 1604.8 C 1751.15 1633.62 1751.94 1671.99 1754.24 1703.34 C 1755.41 1719.35 1723.43 1728.88 1716.17 1714.2 C 1703.98 1689.53 1710.34 1645.97 1701.18 1620.99 L 1699.89 1619.02 C 1706.66 1610.63 1711.8 1604.58 1719.27 1596.65 z" fill="rgb(16,37,94)" transform="translate(0,0)"></path>
<path d="M 1719.27 1596.65 L 1721.17 1597.98 C 1716.89 1602.53 1704.46 1615.94 1701.18 1620.99 L 1699.89 1619.02 C 1706.66 1610.63 1711.8 1604.58 1719.27 1596.65 z" fill="rgb(225,226,224)" transform="translate(0,0)"></path>
<path d="M 995.304 14.1416 C 1005.22 15.1027 1015.9 21.1617 1017.54 31.583 C 1019.96 47.0198 995.669 67.9247 987.357 80.5643 C 979.057 93.1862 967.996 105.081 958.6 116.778 C 956.708 119.133 952.508 120.108 949.747 120.669 C 914.973 117.8 922.517 88.9623 940.093 70.3211 C 953.37 56.2389 976.456 19.2629 995.304 14.1416 z" fill="rgb(16,37,94)" transform="translate(0,0)"></path>
<path d="M 1882.76 1294.77 C 1886.85 1290 1890.87 1287.22 1897.34 1286.84 C 1903.36 1286.49 1909.38 1288.89 1913.78 1292.97 C 1921.1 1299.77 1957.6 1371.99 1957.64 1380.04 C 1957.67 1385.72 1954.27 1391.43 1950.2 1395.18 C 1946 1399.04 1939.86 1402.12 1934.02 1401.68 C 1928.57 1401.27 1924.34 1397.95 1921.09 1393.77 C 1912.08 1382.15 1879.72 1322.43 1877.58 1310.02 L 1882.76 1294.77 z" fill="rgb(16,37,94)" transform="translate(0,0)"></path>
<path d="M 863.069 29.0555 C 880.669 27.4376 885.404 34.379 889.58 50.1083 C 888.373 55.0238 886.82 59.292 884.096 63.6136 C 869.5 86.7721 857.83 112.387 841.957 134.585 C 840.59 136.497 833.505 139.19 831.11 140.153 C 799.696 140.636 803.161 111.795 816.765 92.4741 C 829.565 74.2938 843.014 39.8067 863.069 29.0555 z" fill="rgb(16,37,94)" transform="translate(0,0)"></path>
<path d="M 1536.45 1767.57 C 1537.92 1766.08 1543.45 1762.76 1545.52 1761.44 L 1550.19 1761.98 C 1559.15 1762.78 1566.2 1767.54 1567.15 1777.06 C 1568.22 1787.63 1566.91 1803 1565.02 1813.83 C 1562.46 1828.55 1561.35 1861.63 1554.69 1874.44 C 1547.85 1887.6 1527.91 1888.23 1518.49 1873.85 C 1518 1873.1 1517.52 1872.34 1517.06 1871.57 C 1515.75 1850.98 1528.64 1791.4 1523.91 1778.44 L 1522.01 1776.91 C 1526.17 1773.6 1531.84 1770.39 1536.45 1767.57 z" fill="rgb(16,37,94)" transform="translate(0,0)"></path>
<path d="M 1536.45 1767.57 L 1537.1 1769.14 C 1532.74 1772.29 1528.34 1775.39 1523.91 1778.44 L 1522.01 1776.91 C 1526.17 1773.6 1531.84 1770.39 1536.45 1767.57 z" fill="rgb(225,226,224)" transform="translate(0,0)"></path>
<path d="M 1536.45 1767.57 C 1537.92 1766.08 1543.45 1762.76 1545.52 1761.44 L 1550.19 1761.98 C 1544.4 1763.5 1541.98 1765.72 1537.1 1769.14 L 1536.45 1767.57 z" fill="rgb(178,185,192)" transform="translate(0,0)"></path>
<path d="M 359.896 1634.14 C 360.863 1641.34 358.989 1648.64 354.67 1654.48 C 347.405 1664.12 334.869 1663.37 323.913 1662.95 C 301.34 1662.1 279.047 1662.06 256.579 1659.61 C 233.748 1659.75 236.336 1618.64 253.556 1618.68 C 284.108 1618.75 316.811 1619.52 347.495 1620.03 L 348.447 1619.05 C 351.669 1621.58 358.422 1628.87 360.518 1632.27 L 359.896 1634.14 z" fill="rgb(16,37,94)" transform="translate(0,0)"></path>
<path d="M 348.447 1619.05 C 351.669 1621.58 358.422 1628.87 360.518 1632.27 L 359.896 1634.14 L 347.495 1620.03 L 348.447 1619.05 z" fill="rgb(61,79,120)" transform="translate(0,0)"></path>
<path d="M 1429.64 1832.34 C 1432.1 1830.24 1444.95 1823.96 1448.56 1822.15 L 1453.85 1823.07 C 1459.92 1826.01 1465.21 1828.83 1467.56 1835.57 C 1472.23 1849.01 1452.33 1915.45 1444.97 1929.18 C 1441.71 1935.26 1436.78 1941.04 1429.95 1943.07 C 1425.52 1944.39 1421.2 1943.64 1417.25 1941.32 C 1412.16 1938.33 1407.72 1933.46 1406.56 1927.55 C 1404.47 1916.88 1424.48 1851.55 1427.93 1836.48 L 1430.13 1834.17 L 1429.64 1832.34 z" fill="rgb(16,37,94)" transform="translate(0,0)"></path>
<path d="M 1429.64 1832.34 C 1432.1 1830.24 1444.95 1823.96 1448.56 1822.15 L 1453.85 1823.07 C 1443.19 1825.33 1438.9 1830.51 1430.13 1834.17 L 1429.64 1832.34 z" fill="rgb(178,185,192)" transform="translate(0,0)"></path>
<path d="M 1404.26 205.548 C 1381.31 180.03 1424.3 166.143 1442.1 160.965 C 1459.92 155.778 1479.05 147.082 1497.24 143.93 C 1511.53 150.398 1525.04 167.04 1507.23 181.378 C 1499.83 187.331 1482.96 190.393 1474.48 194.929 C 1462.45 198.566 1429.21 214.67 1418.68 213.154 L 1418.11 213.795 C 1413.34 212.348 1408.22 210.102 1404.17 207.17 L 1404.26 205.548 z" fill="rgb(16,37,94)" transform="translate(0,0)"></path>
<path d="M 1404.26 205.548 C 1409.14 208.041 1413.9 210.455 1418.68 213.154 L 1418.11 213.795 C 1413.34 212.348 1408.22 210.102 1404.17 207.17 L 1404.26 205.548 z" fill="rgb(61,79,120)" transform="translate(0,0)"></path>
<path d="M 1633.27 1690.06 C 1637.82 1686.46 1640.02 1685.34 1645.92 1686.14 C 1663.32 1688.48 1663.09 1713.08 1662.22 1726.68 C 1660.81 1748.73 1662.19 1775.51 1658.06 1797.04 C 1653.48 1802.86 1649.02 1807.54 1641.13 1808.48 C 1635.53 1809.15 1628.43 1806.75 1624.13 1803.11 C 1618.97 1798.73 1618.72 1792.18 1618.71 1785.67 C 1618.68 1766.34 1620 1746.9 1620.06 1727.53 C 1620.07 1724.98 1619.55 1703.35 1619.55 1703.35 L 1618.98 1701.39 C 1623.42 1696.74 1627.8 1692.71 1632.5 1688.34 L 1633.27 1690.06 z" fill="rgb(16,37,94)" transform="translate(0,0)"></path>
<path d="M 1632.5 1688.34 L 1633.27 1690.06 C 1629.85 1693.44 1622.99 1700.59 1619.55 1703.35 L 1618.98 1701.39 C 1623.42 1696.74 1627.8 1692.71 1632.5 1688.34 z" fill="rgb(178,185,192)" transform="translate(0,0)"></path>
<path d="M 504.163 169.056 C 517.113 167.959 531.046 175.91 529.336 188.852 C 526.177 212.755 525.305 254.074 518.372 276.198 C 512.811 281.896 509.88 283.819 503.319 287.784 C 498.813 288.476 494.919 288.895 490.484 287.448 C 485.926 285.961 482.386 282.793 480.364 278.447 C 474.026 264.829 485.048 196.105 490.48 181.528 C 492.995 174.776 497.898 172.017 504.163 169.056 z" fill="rgb(16,37,94)" transform="translate(0,0)"></path>
<path d="M 1786.18 1508.37 C 1788.88 1508.17 1791.8 1507.96 1794.49 1508.28 C 1801.47 1509.13 1809.69 1513.43 1813.63 1519.38 C 1818.52 1526.76 1836.61 1603.55 1834.39 1610.91 C 1832.21 1618.12 1826.38 1621.73 1820 1624.85 C 1809.98 1626.03 1798.85 1625.02 1795.14 1613.94 C 1788.28 1593.51 1784.54 1572.07 1779.12 1551.19 C 1777.65 1545.5 1773.34 1533.41 1772.81 1528.41 C 1775.44 1521.51 1781.42 1514.02 1786.18 1508.37 z" fill="rgb(16,37,94)" transform="translate(0,0)"></path>
<path d="M 438.59 1837.63 C 427.553 1832.19 420.522 1822.89 424.612 1809.88 C 429.098 1795.59 448.018 1794.58 460.426 1791.56 C 480.601 1786.66 501.477 1783.67 520.365 1774.32 C 523.926 1776.77 530.58 1781.64 534.215 1783.33 C 550.014 1809.45 524.781 1822.82 502.342 1826.18 C 481.855 1829.25 459.516 1837.41 438.59 1837.63 z" fill="rgb(16,37,94)" transform="translate(0,0)"></path>
<path d="M 1911.91 1181.02 C 1919.06 1171.55 1932.58 1167.44 1941.23 1176.26 C 1958.44 1193.8 1972.44 1216.69 1987.71 1236.04 C 2010.94 1263.17 1975.64 1287.51 1960.67 1269.73 C 1943.73 1249.6 1921.58 1221.12 1908.55 1198.22 C 1909.74 1192.5 1910.87 1186.77 1911.91 1181.02 z" fill="rgb(16,37,94)" transform="translate(0,0)"></path>
<path d="M 297.416 338.734 C 301.475 332.674 305.155 328.138 312.823 326.832 C 318.556 325.799 324.46 327.227 329.088 330.766 C 335.912 335.971 336.699 343.518 337.348 351.556 C 338.484 365.616 340.162 380.01 341.218 394.016 C 342.067 405.273 346.383 424.603 342.963 434.5 L 341.633 435.494 C 334.437 440.935 330.198 447.943 319.787 446.309 C 314.559 445.505 309.884 442.606 306.839 438.281 C 300.198 429.025 294.066 349.879 297.416 338.734 z" fill="rgb(16,37,94)" transform="translate(0,0)"></path>
<metadata><recraft-signature>{"signed_by": "recraft", "signature_b64": "/96xVm2uOdN8U9QwoXtW5dkEeLQG6gNSMcebIZZxiAfkRfYo77cxz5idlbdfwRZcnwVm7gbXvWbAl/KYxqJ/Bw==", "signing_algo": "Ed25519", "generation_timestamp": 1777330464, "identifier": "894087ff-b2e0-4f8d-8ed6-4eeeed1d2d6f"}</recraft-signature></metadata></svg>