<svg xmlns="http://www.w3.org/2000/svg" height="1024" preserveAspectRatio="none" style="display: block;" version="1.1" viewBox="0 0 2048 2048" width="1024">
<defs>
	<linearGradient gradientUnits="userSpaceOnUse" id="Gradient1" x1="1903.28" x2="1921.1" y1="1157.76" y2="1167.55">
		<stop class="stop0" offset="0" stop-color="rgb(242,234,247)" stop-opacity="1"></stop>
		<stop class="stop1" offset="1" stop-color="rgb(255,255,255)" stop-opacity="1"></stop>
	</linearGradient>
</defs>
<path d="M 0 0 L 2048 0 L 2048 2048 L 0 2048 L 0 0 z" fill="rgb(255,255,255)" transform="translate(0,0)"></path>
<path d="M 1723.24 845.294 C 1717.64 847.258 1701.35 847.967 1697.01 843.855 C 1698.25 836.976 1715.22 834.543 1717.74 830.312 C 1724.03 819.315 1721.75 809.516 1733.52 801.213 C 1750.98 788.896 1777.55 787.752 1790.74 806.533 C 1796.78 813.247 1804.11 835.476 1801.47 843.972 C 1797.64 844.708 1797.87 845.033 1797.09 848.435 C 1799.75 852.271 1815.24 854.745 1822.15 857.972 C 1829.28 861.348 1836.05 865.441 1842.35 870.187 C 1865.06 887.461 1887.85 926.711 1902.36 951.629 C 1906.96 959.547 1908.75 974.569 1912.96 982.928 C 1934.54 1025.76 1919.61 1060.96 1915.43 1106.18 C 1919.14 1111.36 1920.78 1114.77 1922.53 1120.82 C 1925.88 1132.43 1931.49 1142.16 1937.61 1152.45 C 1939.56 1155.73 1936.24 1161.61 1934.55 1164.69 C 1937.37 1191.24 1946.22 1212.4 1955.91 1236.65 C 1957.43 1240.45 1957.14 1247.26 1955.8 1251.27 C 1952 1254 1883.73 1254.23 1880.19 1251.18 C 1877.62 1240.39 1892.93 1232.43 1900.52 1227.12 C 1905.91 1223.35 1907.97 1221.47 1912.52 1216.68 C 1911.61 1205.63 1904.96 1188.45 1895.71 1182.16 C 1879.43 1171.1 1882.23 1169.13 1877.58 1153.61 C 1874.9 1144.65 1862.02 1145.64 1865.13 1127.81 C 1865.57 1125.33 1848.09 1097.73 1844.75 1092.78 C 1833.64 1103.81 1822.07 1115.27 1811.84 1127.15 C 1810.22 1139.02 1806.76 1168.98 1797.94 1176.99 C 1796.25 1178.53 1792.44 1180.04 1790.25 1180.87 C 1786.83 1190.49 1779.09 1208.87 1779.92 1218.34 C 1780.77 1228.01 1782.58 1235.53 1782.2 1245.85 C 1788.54 1245.81 1796.66 1244.75 1801.39 1249.54 L 1800.91 1250.91 C 1797.99 1252.24 1794.46 1253.04 1791.1 1253.04 C 1732.13 1253.06 1672.7 1253.59 1613.91 1252.24 C 1613.13 1252.22 1612.22 1250.49 1611.79 1249.85 C 1615.09 1244.5 1637.25 1245.95 1644.06 1245.95 C 1640.89 1239.51 1640.2 1237.59 1638.32 1230.66 C 1668.61 1192.39 1703.59 1155.29 1733.64 1116.45 C 1743.4 1103.82 1754.55 1091.76 1763.39 1078.55 C 1760.38 1060.78 1759.81 1041.09 1754.96 1024.12 L 1762.01 1017.9 C 1761.52 1007.84 1761.21 996.212 1758.42 986.365 C 1752.74 966.25 1736.69 942.444 1738.84 921.172 C 1739.54 914.193 1746.17 899.493 1749.11 892.503 C 1737.13 882.128 1729.94 875.86 1726.41 859.127 C 1725.34 854.057 1725.03 850.198 1723.24 845.294 z" fill="rgb(1,6,41)" transform="translate(0,0)"></path>
<path d="M 1723.24 845.294 C 1717.64 847.258 1701.35 847.967 1697.01 843.855 C 1698.25 836.976 1715.22 834.543 1717.74 830.312 C 1724.03 819.315 1721.75 809.516 1733.52 801.213 C 1750.98 788.896 1777.55 787.752 1790.74 806.533 C 1785.56 805.158 1783.82 802.34 1780 802.643 C 1780.18 802.91 1780.37 803.178 1780.55 803.445 C 1787.02 808.721 1797.69 833.463 1792.04 841.138 C 1782.09 846.578 1788.42 847.969 1782.5 848.77 C 1781.41 847.217 1781.26 846.861 1779.74 845.709 L 1777.86 847.958 L 1776.99 848.245 C 1772.46 847.27 1771.95 847.027 1767.76 848.634 L 1764.42 848.657 C 1762.76 847.717 1762.94 847.593 1761.87 846.01 C 1754.21 845.019 1743.87 845.89 1735.82 846.052 C 1731.45 843.78 1727.95 844.005 1723.24 845.294 z" fill="rgb(215,59,64)" transform="translate(0,0)"></path>
<path d="M 1723.24 845.294 C 1717.64 847.258 1701.35 847.967 1697.01 843.855 C 1698.25 836.976 1715.22 834.543 1717.74 830.312 C 1724.03 819.315 1721.75 809.516 1733.52 801.213 C 1750.98 788.896 1777.55 787.752 1790.74 806.533 C 1785.56 805.158 1783.82 802.34 1780 802.643 C 1771.83 798.613 1756.23 796.467 1747.82 799.923 C 1723.28 810.015 1732.95 828.846 1709.21 839.81 C 1722.73 840.207 1736.44 840.689 1749.96 840.684 C 1757.35 840.681 1765.19 839.438 1772.53 839.147 L 1778.62 843.422 L 1778.77 842.635 C 1776.13 839.883 1774.71 838.568 1771.77 836.133 C 1780.55 836.687 1785.03 836.021 1792.04 841.138 C 1782.09 846.578 1788.42 847.969 1782.5 848.77 C 1781.41 847.217 1781.26 846.861 1779.74 845.709 L 1777.86 847.958 L 1776.99 848.245 C 1772.46 847.27 1771.95 847.027 1767.76 848.634 L 1764.42 848.657 C 1762.76 847.717 1762.94 847.593 1761.87 846.01 C 1754.21 845.019 1743.87 845.89 1735.82 846.052 C 1731.45 843.78 1727.95 844.005 1723.24 845.294 z" fill="rgb(2,4,19)" transform="translate(0,0)"></path>
<path d="M 1767.76 848.634 C 1771.95 847.027 1772.46 847.27 1776.99 848.245 L 1777.86 847.958 C 1781.28 850.843 1780.7 854.158 1782.96 857.897 C 1786.06 863.044 1784.51 868.23 1781.24 872.908 L 1780.42 872.191 L 1778.13 871.916 C 1776.21 880.524 1773.43 882.939 1767.67 889.361 C 1762.68 883.007 1761.88 881.877 1754.29 879.526 C 1755.83 881.978 1755.44 880.69 1755.59 883.503 C 1752.29 883.255 1752.96 882.958 1749.8 880.475 C 1749.72 879.232 1749.51 878.186 1749.2 876.99 C 1753.66 867.576 1766.94 864.835 1769.53 856.463 C 1767.93 853.212 1767.91 852.276 1767.76 848.634 z" fill="rgb(255,255,255)" transform="translate(0,0)"></path>
<path d="M 1767.76 848.634 C 1771.95 847.027 1772.46 847.27 1776.99 848.245 C 1776.01 850.247 1775.11 852.55 1775.09 854.857 C 1774.98 864.705 1756.31 870.69 1752.34 877.563 C 1753.03 878.345 1753.47 879.041 1754.29 879.526 C 1755.83 881.978 1755.44 880.69 1755.59 883.503 C 1752.29 883.255 1752.96 882.958 1749.8 880.475 C 1749.72 879.232 1749.51 878.186 1749.2 876.99 C 1753.66 867.576 1766.94 864.835 1769.53 856.463 C 1767.93 853.212 1767.91 852.276 1767.76 848.634 z" fill="rgb(15,23,54)" transform="translate(0,0)"></path>
<path d="M 1778.13 871.916 C 1778.09 868.616 1777.59 863.029 1778.69 860.303 C 1780.07 865.23 1780.06 866.983 1780.42 872.191 L 1778.13 871.916 z" fill="rgb(92,91,110)" transform="translate(0,0)"></path>
<path d="M 1735.82 846.052 C 1743.87 845.89 1754.21 845.019 1761.87 846.01 C 1762.94 847.593 1762.76 847.717 1764.42 848.657 L 1767.76 848.634 C 1767.91 852.276 1767.93 853.212 1769.53 856.463 C 1766.94 864.835 1753.66 867.576 1749.2 876.99 C 1745.3 878.685 1745.8 878.686 1741.47 877.756 L 1740.64 876.409 C 1741.03 873.503 1741.64 873.665 1743.83 870.995 C 1742.9 866.295 1734.09 867.208 1735.03 860.76 C 1737.96 857.273 1741.49 857.765 1742.77 854.975 L 1741.06 854.073 C 1738.49 854.722 1736.79 855.51 1734.37 854.601 C 1734.66 851.774 1735.03 852.296 1737.55 849.718 L 1735.59 847.791 L 1735.82 846.052 z" fill="rgb(255,255,255)" transform="translate(0,0)"></path>
<path d="M 1859.57 972.698 C 1861.31 976.441 1861.28 985.82 1864.42 986.526 C 1875.91 989.115 1888.44 981.222 1900.98 979.743 C 1927.66 1025.47 1911.54 1049.67 1908.72 1098.47 C 1907.97 1111.43 1914.08 1118.51 1913.74 1124.64 L 1911.27 1124.79 C 1912.46 1130.12 1916.73 1129.34 1917.84 1134.96 L 1917.13 1135.66 L 1913.5 1134.2 C 1918.51 1141.71 1922.19 1138.8 1924.38 1147.86 L 1926.56 1150.47 C 1929.76 1153.38 1929.77 1152.46 1930.45 1155.87 C 1928.01 1162.1 1921.83 1163.54 1916.17 1165.86 C 1909.54 1168.57 1908.03 1166.23 1906.17 1173.36 C 1903.57 1173.79 1895.98 1171.91 1892.45 1171.52 C 1886.78 1167.33 1886.36 1152.33 1877.51 1141.12 L 1875.93 1137.87 C 1874.7 1137.38 1874.55 1137.11 1873.45 1136.31 C 1872.21 1125.36 1857.13 1093.52 1848.82 1086.89 C 1865.52 1066.24 1884.73 1048.45 1893.94 1023.25 C 1887.04 1029.97 1879.92 1041.27 1873.57 1048.67 C 1855.19 1070.09 1828.83 1105 1803.73 1116.78 L 1805.33 1117.92 L 1809.15 1117.4 L 1809.65 1118.53 C 1805.96 1122.46 1803.14 1123.78 1797.95 1124.7 L 1797.58 1125.66 C 1792.51 1124.01 1774.91 1121.06 1766.52 1118.73 L 1766.52 1117.51 C 1767.13 1116.02 1767.79 1114.54 1768.48 1113.08 C 1771.95 1105.8 1779.33 1090.93 1785.96 1085.33 C 1787.92 1083.52 1793.74 1084.15 1795.6 1082.95 C 1807.19 1075.39 1806.99 1057.61 1812.13 1046.64 C 1812.32 1044.44 1812.25 1045.38 1813.88 1043.16 C 1809.4 1039.05 1816.94 1030.86 1815.67 1025.16 L 1812.05 1023.18 L 1811.24 1017.45 L 1814.85 1014.42 C 1816.13 1016.44 1817.33 1018.34 1818.72 1020.3 C 1820.96 1019.88 1820.86 1019.91 1822.85 1018.8 C 1824.9 1017.16 1827.79 1010.98 1830.56 1007.71 C 1833.84 1003.83 1836.26 1001.2 1839.86 997.546 C 1841.72 999.526 1843.55 1001.52 1845.37 1003.54 C 1850.22 1008.97 1849.09 1008.89 1848.68 1016.27 C 1850.94 1015.23 1852.02 1010.73 1852.41 1010.8 C 1863.49 1012.81 1876.39 1012.94 1880.59 999.535 C 1876.9 1001.2 1866.97 1009.65 1864.65 1007.23 C 1858.69 1000.98 1857.71 988.106 1856.07 979.974 C 1855.42 976.729 1857.75 974.93 1859.57 972.698 z" fill="rgb(255,255,255)" transform="translate(0,0)"></path>
<path d="M 1926.56 1150.47 C 1929.76 1153.38 1929.77 1152.46 1930.45 1155.87 C 1928.01 1162.1 1921.83 1163.54 1916.17 1165.86 C 1909.54 1168.57 1908.03 1166.23 1906.17 1173.36 C 1903.57 1173.79 1895.98 1171.91 1892.45 1171.52 C 1906.83 1167.06 1914.76 1159.56 1926.56 1150.47 z" fill="url(#Gradient1)" transform="translate(0,0)"></path>
<path d="M 1924.38 1147.86 L 1926.56 1150.47 C 1914.76 1159.56 1906.83 1167.06 1892.45 1171.52 C 1891.3 1168.55 1891.36 1169.72 1891.79 1166.71 C 1905.79 1164.34 1913.56 1157.34 1924.38 1147.86 z" fill="rgb(8,14,34)" transform="translate(0,0)"></path>
<path d="M 1766.52 1117.51 C 1775.58 1118.97 1784.62 1121.07 1793.62 1122.32 C 1797.58 1119.8 1799.42 1118.46 1803.73 1116.78 L 1805.33 1117.92 L 1809.15 1117.4 L 1809.65 1118.53 C 1805.96 1122.46 1803.14 1123.78 1797.95 1124.7 L 1797.58 1125.66 C 1792.51 1124.01 1774.91 1121.06 1766.52 1118.73 L 1766.52 1117.51 z" fill="rgb(8,14,34)" transform="translate(0,0)"></path>
<path d="M 1805.33 1117.92 L 1809.15 1117.4 L 1809.65 1118.53 C 1805.96 1122.46 1803.14 1123.78 1797.95 1124.7 L 1798.61 1121.7 C 1801.38 1119.82 1802.39 1119.36 1805.33 1117.92 z" fill="rgb(255,255,255)" transform="translate(0,0)"></path>
<path d="M 1896.32 1123.66 C 1900.79 1123.53 1905.26 1123.43 1909.72 1123.36 C 1905.59 1125.31 1903.84 1125.9 1899.74 1127.46 C 1890.55 1130.95 1887.3 1136.18 1877.51 1141.12 L 1875.93 1137.87 C 1884.61 1133.76 1889.2 1130.16 1896.32 1123.66 z" fill="rgb(15,23,54)" transform="translate(0,0)"></path>
<path d="M 1813.88 1043.16 C 1822.24 1046.78 1828.19 1048.96 1835.59 1054.23 C 1826.26 1052.28 1820.84 1050.94 1812.13 1046.64 C 1812.32 1044.44 1812.25 1045.38 1813.88 1043.16 z" fill="rgb(15,23,54)" transform="translate(0,0)"></path>
<path d="M 1891.71 1075.09 L 1891.54 1076.64 C 1881.1 1088.9 1870.29 1092.58 1854.82 1089.3 L 1854.39 1087.44 C 1858.25 1085.88 1861.81 1087.8 1865.94 1087.65 C 1873.8 1087.36 1884.89 1079.34 1891.71 1075.09 z" fill="rgb(2,4,19)" transform="translate(0,0)"></path>
<path d="M 1901.42 1113.82 L 1903.48 1113.97 L 1903.98 1114.95 C 1897.77 1120.32 1891.61 1122.5 1883.81 1124.4 C 1881.77 1123.87 1882.75 1124.21 1880.86 1123.39 C 1891.97 1121.33 1892.26 1120.45 1901.42 1113.82 z" fill="rgb(2,4,19)" transform="translate(0,0)"></path>
<path d="M 1783.25 883.17 C 1784.49 878.888 1791.79 858.869 1794.93 857.438 L 1796.28 858.97 L 1798.63 863.838 C 1799.46 859.512 1798.34 860.692 1800.93 858.864 C 1816.15 861.079 1839.53 875.544 1849.14 887.278 C 1864.92 906.539 1882.7 930.439 1894.15 952.437 C 1892.56 954.526 1892.96 954.832 1891.2 955.387 C 1895.49 956.55 1894.31 955.319 1896.03 958.149 C 1893.14 960.347 1865.07 966.959 1858.01 969.557 C 1858.66 971.576 1858.27 971.413 1859.57 972.698 C 1857.75 974.93 1855.42 976.729 1856.07 979.974 C 1857.71 988.106 1858.69 1000.98 1864.65 1007.23 C 1866.97 1009.65 1876.9 1001.2 1880.59 999.535 C 1876.39 1012.94 1863.49 1012.81 1852.41 1010.8 C 1852.02 1010.73 1850.94 1015.23 1848.68 1016.27 C 1849.09 1008.89 1850.22 1008.97 1845.37 1003.54 C 1843.55 1001.52 1841.72 999.526 1839.86 997.546 C 1836.26 1001.2 1833.84 1003.83 1830.56 1007.71 C 1827.79 1010.98 1824.9 1017.16 1822.85 1018.8 C 1820.86 1019.91 1820.96 1019.88 1818.72 1020.3 C 1817.33 1018.34 1816.13 1016.44 1814.85 1014.42 L 1811.24 1017.45 C 1807.43 1012.76 1805.14 1010.44 1801.6 1005.25 C 1802.1 1003.76 1803.18 1000.33 1803.93 999.198 C 1811.26 988.152 1805.65 971.755 1817.22 963.402 C 1824.08 958.444 1839.97 957.104 1847.94 958.339 L 1845.6 956.842 L 1845.84 955.561 L 1850.04 953.525 C 1839.64 954.296 1829.68 954.356 1818.72 955.275 C 1822.35 953.787 1827.86 952.285 1831.73 951.101 L 1830.39 950.709 C 1835.19 949.463 1844.26 949.111 1850.01 948.303 L 1849.8 947.462 C 1843.44 946.243 1833.41 947.883 1828.92 945.389 C 1818.64 946.394 1812.71 947.438 1802.77 950.039 C 1801.15 943.39 1799.67 937.81 1797.65 931.276 C 1796.39 932.853 1796.76 933.05 1795.47 933.273 C 1792.3 938.99 1792.19 939.758 1792.32 946.312 C 1794.16 948.549 1795.35 951.511 1794.32 954.256 L 1793.17 954.004 C 1791.31 949.202 1790.41 946.712 1787.18 942.593 L 1786.05 942.768 C 1779.66 927.934 1777.19 899.124 1781.4 882.533 L 1783.25 883.17 z" fill="rgb(255,255,255)" transform="translate(0,0)"></path>
<path d="M 1801.6 1005.25 C 1802.1 1003.76 1803.18 1000.33 1803.93 999.198 C 1811.26 988.152 1805.65 971.755 1817.22 963.402 C 1824.08 958.444 1839.97 957.104 1847.94 958.339 C 1847.36 962.43 1846.27 963.371 1845.14 967.178 L 1846.27 969.025 C 1848.38 963.49 1848.95 965.108 1853.32 961.968 C 1853.42 970.037 1855.17 975.802 1851.11 982.57 C 1848.51 987.495 1847.6 989.63 1843.69 993.781 C 1841.87 995.383 1841.35 995.671 1839.86 997.546 C 1836.26 1001.2 1833.84 1003.83 1830.56 1007.71 C 1827.79 1010.98 1824.9 1017.16 1822.85 1018.8 C 1820.86 1019.91 1820.96 1019.88 1818.72 1020.3 C 1817.33 1018.34 1816.13 1016.44 1814.85 1014.42 L 1811.24 1017.45 C 1807.43 1012.76 1805.14 1010.44 1801.6 1005.25 z" fill="rgb(215,59,64)" transform="translate(0,0)"></path>
<path d="M 1845.14 967.178 L 1846.27 969.025 C 1848.38 963.49 1848.95 965.108 1853.32 961.968 C 1853.42 970.037 1855.17 975.802 1851.11 982.57 C 1848.51 987.495 1847.6 989.63 1843.69 993.781 C 1841.87 995.383 1841.35 995.671 1839.86 997.546 C 1836.26 1001.2 1833.84 1003.83 1830.56 1007.71 C 1827.79 1010.98 1824.9 1017.16 1822.85 1018.8 C 1822.79 1015.16 1823.22 1014.28 1821.78 1011.17 C 1827.22 995.064 1844.08 997.696 1845.14 967.178 z" fill="rgb(8,14,34)" transform="translate(0,0)"></path>
<path d="M 1808.57 1007.78 C 1807.44 1007.95 1806.64 1007.71 1805.43 1007.54 C 1805.76 1005.85 1805.96 1005.88 1807.01 1004.52 C 1806.3 1001.65 1805.41 999.795 1806.57 997.177 C 1808.32 997.491 1808.31 997.574 1809.72 998.556 L 1816.43 994.252 C 1819.06 996.097 1818.01 994.924 1819.38 998.124 C 1817.57 1000.8 1816.1 1002.69 1814.08 1005.21 C 1811.17 1006.11 1810.94 1005.98 1808.57 1007.78 z" fill="rgb(8,14,34)" transform="translate(0,0)"></path>
<path d="M 1808.57 1007.78 C 1810.94 1005.98 1811.17 1006.11 1814.08 1005.21 C 1816.55 1008.01 1818.23 1010.88 1821.78 1011.17 C 1823.22 1014.28 1822.79 1015.16 1822.85 1018.8 C 1820.86 1019.91 1820.96 1019.88 1818.72 1020.3 C 1817.33 1018.34 1816.13 1016.44 1814.85 1014.42 L 1808.57 1007.78 z" fill="rgb(2,4,19)" transform="translate(0,0)"></path>
<path d="M 1824.4 874.606 C 1837.75 886.476 1841.12 913.947 1847.54 929.743 C 1847.82 922.573 1844.05 916.528 1847.74 912.984 C 1855.23 920.587 1838.41 941.217 1860.88 946.656 C 1859.1 949.612 1856.34 947.091 1854.19 951.517 C 1855.8 953.96 1855.14 953.185 1857.43 955.016 C 1856.88 956.778 1856.76 957.061 1856.76 958.949 C 1862.7 960.06 1881.95 952.701 1894.15 952.437 C 1892.56 954.526 1892.96 954.832 1891.2 955.387 C 1895.49 956.55 1894.31 955.319 1896.03 958.149 C 1893.14 960.347 1865.07 966.959 1858.01 969.557 C 1858.66 971.576 1858.27 971.413 1859.57 972.698 C 1857.75 974.93 1855.42 976.729 1856.07 979.974 C 1857.71 988.106 1858.69 1000.98 1864.65 1007.23 C 1866.97 1009.65 1876.9 1001.2 1880.59 999.535 C 1876.39 1012.94 1863.49 1012.81 1852.41 1010.8 C 1852.02 1010.73 1850.94 1015.23 1848.68 1016.27 C 1849.09 1008.89 1850.22 1008.97 1845.37 1003.54 C 1843.55 1001.52 1841.72 999.526 1839.86 997.546 C 1841.35 995.671 1841.87 995.383 1843.69 993.781 C 1847.6 989.63 1848.51 987.495 1851.11 982.57 C 1855.17 975.802 1853.42 970.037 1853.32 961.968 C 1848.95 965.108 1848.38 963.49 1846.27 969.025 L 1845.14 967.178 C 1846.27 963.371 1847.36 962.43 1847.94 958.339 L 1845.6 956.842 L 1845.84 955.561 L 1850.04 953.525 C 1839.64 954.296 1829.68 954.356 1818.72 955.275 C 1822.35 953.787 1827.86 952.285 1831.73 951.101 L 1830.39 950.709 C 1835.19 949.463 1844.26 949.111 1850.01 948.303 L 1849.8 947.462 C 1843.44 946.243 1833.41 947.883 1828.92 945.389 C 1835.52 945.083 1840.14 945.052 1846.75 945.326 C 1839.27 918.926 1837.59 898.354 1824.4 874.606 z" fill="rgb(15,23,54)" transform="translate(0,0)"></path>
<path d="M 1891.2 955.387 C 1895.49 956.55 1894.31 955.319 1896.03 958.149 C 1893.14 960.347 1865.07 966.959 1858.01 969.557 C 1857.37 966.512 1857.22 967.95 1858.48 965.096 C 1867.54 958.181 1880.16 956.664 1891.2 955.387 z" fill="rgb(255,255,255)" transform="translate(0,0)"></path>
<path d="M 1851.11 982.57 C 1853.25 988.582 1859 1001.9 1857.2 1007.16 C 1852.56 1006.77 1846.54 997.498 1843.69 993.781 C 1847.6 989.63 1848.51 987.495 1851.11 982.57 z" fill="rgb(255,255,255)" transform="translate(0,0)"></path>
<path d="M 1831.73 951.101 C 1836.23 950.857 1844.49 949.836 1848.26 950.784 L 1850.04 953.525 C 1839.64 954.296 1829.68 954.356 1818.72 955.275 C 1822.35 953.787 1827.86 952.285 1831.73 951.101 z" fill="rgb(255,255,255)" transform="translate(0,0)"></path>
<path d="M 1783.25 883.17 C 1784.49 878.888 1791.79 858.869 1794.93 857.438 L 1796.28 858.97 L 1798.63 863.838 C 1792.1 880.671 1782.83 895.591 1790.95 913.865 C 1791.36 914.775 1791.78 915.68 1792.21 916.578 L 1794.26 912.386 C 1795.96 915.972 1794.44 922.602 1797.65 931.276 C 1796.39 932.853 1796.76 933.05 1795.47 933.273 C 1792.3 938.99 1792.19 939.758 1792.32 946.312 C 1794.16 948.549 1795.35 951.511 1794.32 954.256 L 1793.17 954.004 C 1791.31 949.202 1790.41 946.712 1787.18 942.593 L 1786.05 942.768 C 1779.66 927.934 1777.19 899.124 1781.4 882.533 L 1783.25 883.17 z" fill="rgb(2,4,19)" transform="translate(0,0)"></path>
<path d="M 1783.25 883.17 C 1784.49 878.888 1791.79 858.869 1794.93 857.438 L 1796.28 858.97 L 1795.98 860.315 C 1794.02 868.893 1789.61 878.15 1786.41 886.563 C 1779.69 904.272 1788.76 918.979 1792.17 936.528 C 1784.63 919.593 1780.74 906.415 1782.82 887.46 L 1783.25 883.17 z" fill="rgb(255,255,255)" transform="translate(0,0)"></path>
<path d="M 1784.21 926.2 C 1786.84 932.338 1789.8 940.814 1792.32 946.312 C 1794.16 948.549 1795.35 951.511 1794.32 954.256 L 1793.17 954.004 C 1791.31 949.202 1790.41 946.712 1787.18 942.593 C 1786.13 937.18 1784.95 931.653 1784.21 926.2 z" fill="rgb(255,255,255)" transform="translate(0,0)"></path>
<path d="M 1754.78 1127.79 C 1754.95 1135.7 1749.21 1148.64 1749.54 1154.72 C 1750.73 1176.96 1751.55 1192.02 1746.5 1214.34 C 1736.21 1222.59 1720.49 1233.81 1716.33 1245.95 C 1703.87 1246.11 1691.42 1246.15 1678.96 1246.06 L 1677.72 1245.55 C 1677.17 1240.37 1681.8 1234.78 1684.77 1230.64 C 1708.66 1197.34 1729.84 1160.1 1754.78 1127.79 z" fill="rgb(255,255,255)" transform="translate(0,0)"></path>
<path d="M 1777.05 1074.66 C 1779.4 1076.12 1779.67 1076.05 1781.29 1078.22 C 1779.77 1081.71 1771.19 1091.61 1768.33 1095.28 C 1730.96 1143.21 1700.26 1195.52 1665.66 1245.43 C 1661.48 1245.71 1657.55 1245.49 1653.37 1245.36 C 1650.24 1240.22 1649.32 1238.51 1647 1232.88 C 1654.01 1222.7 1673.12 1202.26 1681.98 1191.37 C 1712.76 1153.5 1749.02 1114.44 1777.05 1074.66 z" fill="rgb(255,255,255)" transform="translate(0,0)"></path>
<path d="M 1762.52 901.726 C 1768.31 898.464 1777.16 887.825 1781.4 882.533 C 1777.19 899.124 1779.66 927.934 1786.05 942.768 C 1788 947.535 1789.26 949.774 1789.62 954.953 L 1788.8 956.845 L 1786.39 957.493 C 1784.77 956.291 1784.19 955.684 1782.31 954.985 L 1782.27 957.813 C 1789.07 963.106 1788.36 955.775 1794.44 964.373 L 1795.25 960.214 L 1796.52 960.282 C 1798.25 964.191 1798.18 962.32 1797.38 966.024 C 1794.11 969.34 1790.42 969.949 1785.8 970.225 L 1782.83 968.718 C 1781.33 969.523 1780.24 970.308 1778.67 970.673 L 1778.64 970.819 C 1776.11 973.609 1765.9 974.832 1761.77 975.502 C 1757.64 965.418 1750.47 949.117 1748.57 938.869 C 1746.27 925.843 1749.12 912.433 1756.53 901.474 L 1758.76 903.17 L 1762.52 901.726 z" fill="rgb(255,255,255)" transform="translate(0,0)"></path>
<path d="M 1778.67 970.673 C 1766.86 960.904 1754.32 943.471 1749.46 928.889 C 1765.11 943.975 1761.91 952.302 1782.83 968.718 C 1781.33 969.523 1780.24 970.308 1778.67 970.673 z" fill="rgb(8,14,34)" transform="translate(0,0)"></path>
<path d="M 1758.76 903.17 L 1762.52 901.726 C 1764.51 905.297 1772.71 918.664 1772.59 921.387 C 1766.7 914.854 1763.39 910.527 1758.76 903.17 z" fill="rgb(15,23,54)" transform="translate(0,0)"></path>
<path d="M 1759.02 924.943 C 1759.2 925.145 1759.37 925.347 1759.55 925.548 L 1760.45 926.542 C 1766.55 933.4 1770.36 935.591 1777.79 941.017 C 1768.43 939.823 1761 934.392 1759.02 924.943 z" fill="rgb(2,4,19)" transform="translate(0,0)"></path>
<path d="M 1766.52 1118.73 C 1774.91 1121.06 1792.51 1124.01 1797.58 1125.66 C 1793.5 1126.95 1791.46 1127.25 1787.17 1127.64 C 1790.7 1130.68 1799.34 1129.97 1804.14 1129.94 C 1803.6 1134.34 1798.72 1158.11 1796.08 1160.45 C 1788.28 1167.37 1768.53 1163.48 1759.4 1159.67 L 1756 1156.72 C 1757.9 1145.06 1761.42 1129.3 1766.52 1118.73 z" fill="rgb(255,255,255)" transform="translate(0,0)"></path>
<path d="M 1927.66 1168.01 C 1930.24 1170.96 1929.96 1183.53 1931.18 1188.54 C 1933.64 1198.67 1937.91 1207.92 1940.45 1217.92 C 1941.44 1221.81 1941.33 1223.21 1939.54 1226.16 C 1934.55 1228 1932.23 1225.52 1928.23 1222.73 C 1919.21 1214.62 1910.93 1187.67 1907.22 1175.46 C 1916.17 1173.14 1919.54 1172.09 1927.66 1168.01 z" fill="rgb(215,59,64)" transform="translate(0,0)"></path>
<path d="M 1758.5 1174.21 C 1766.75 1178.06 1772.39 1179.2 1781.19 1180.66 C 1776.78 1191.89 1772.04 1207.03 1771.04 1219.05 L 1771.27 1220.46 C 1770.63 1222.61 1770.23 1225.59 1767.85 1226.6 C 1762.48 1228.86 1748.11 1229.51 1743.2 1226.55 C 1745.62 1225.25 1745.47 1225.31 1748.19 1224.92 C 1749.54 1221.49 1748.38 1222.54 1751.08 1220.99 C 1756.53 1205.32 1757.52 1190.54 1758.5 1174.21 z" fill="rgb(215,59,64)" transform="translate(0,0)"></path>
<path d="M 1771.04 1219.05 L 1771.27 1220.46 C 1770.63 1222.61 1770.23 1225.59 1767.85 1226.6 C 1762.48 1228.86 1748.11 1229.51 1743.2 1226.55 C 1745.62 1225.25 1745.47 1225.31 1748.19 1224.92 C 1749.54 1221.49 1748.38 1222.54 1751.08 1220.99 C 1757.64 1223.38 1764.74 1221.01 1771.04 1219.05 z" fill="rgb(187,30,38)" transform="translate(0,0)"></path>
<path d="M 1771.04 1219.05 L 1771.27 1220.46 C 1762.98 1226.93 1759.39 1224.73 1748.19 1224.92 C 1749.54 1221.49 1748.38 1222.54 1751.08 1220.99 C 1757.64 1223.38 1764.74 1221.01 1771.04 1219.05 z" fill="rgb(8,14,34)" transform="translate(0,0)"></path>
<path d="M 1778.32 988.651 C 1781.62 990.415 1780.76 990.584 1782.5 995.136 L 1783.94 995.976 C 1784.08 997.624 1784.65 1004.27 1785.26 1005.38 C 1791.07 1016 1796.06 1013.52 1793.5 1026.66 L 1793.22 1027.97 C 1790.84 1031.24 1791.3 1032.64 1791.31 1036.95 L 1791.07 1037.82 C 1787.19 1038.29 1785.83 1037.53 1783.55 1034.43 C 1784.67 1030.64 1784.73 1030.31 1785.06 1026.37 C 1783.3 1022.56 1784.67 1024.02 1780.4 1022.21 L 1780.2 1020.73 L 1773.8 1020.36 L 1770.16 1020.59 C 1770.05 1020.47 1768.42 991.903 1768.59 991.244 C 1772.38 989.172 1773.91 989.262 1778.32 988.651 z" fill="rgb(215,59,64)" transform="translate(0,0)"></path>
<path d="M 1782.5 995.136 L 1783.94 995.976 C 1784.08 997.624 1784.65 1004.27 1785.26 1005.38 C 1791.07 1016 1796.06 1013.52 1793.5 1026.66 L 1793.22 1027.97 C 1790.84 1031.24 1791.3 1032.64 1791.31 1036.95 L 1791.07 1037.82 C 1787.19 1038.29 1785.83 1037.53 1783.55 1034.43 C 1784.67 1030.64 1784.73 1030.31 1785.06 1026.37 C 1783.3 1022.56 1784.67 1024.02 1780.4 1022.21 L 1780.2 1020.73 L 1782.54 1020.7 C 1785.12 1017.11 1782.83 1000.97 1782.5 995.136 z" fill="rgb(2,4,19)" transform="translate(0,0)"></path>
<path d="M 1773.8 1020.36 L 1770.16 1020.59 C 1770.05 1020.47 1768.42 991.903 1768.59 991.244 C 1772.38 989.172 1773.91 989.262 1778.32 988.651 C 1761.04 998.682 1779.19 1001.48 1773.8 1020.36 z" fill="rgb(187,30,38)" transform="translate(0,0)"></path>
<path d="M 1732.63 1235.03 C 1743.71 1222.82 1746.57 1234.13 1758.54 1234.86 C 1766.58 1235.6 1769.03 1232.72 1773.31 1233.66 C 1775.07 1236.47 1774.18 1241.21 1773.94 1244.77 C 1757.62 1245.02 1740.78 1244.82 1724.42 1244.83 C 1727.23 1240.9 1728.87 1238.13 1732.63 1235.03 z" fill="rgb(255,255,255)" transform="translate(0,0)"></path>
<path d="M 1732.63 1235.03 C 1743.71 1222.82 1746.57 1234.13 1758.54 1234.86 C 1750.26 1235.16 1740.99 1234.99 1732.63 1235.03 z" fill="rgb(35,46,75)" transform="translate(0,0)"></path>
<path d="M 1768.56 1051.72 L 1768.58 1050.81 C 1772.61 1048.65 1771.46 1053.31 1777.4 1050.6 C 1785.25 1053.18 1789.26 1056.98 1794.33 1058.69 C 1797.27 1060.67 1798.75 1061.22 1800.13 1064.48 L 1800.14 1068.12 L 1798.66 1070.2 C 1796.65 1072.69 1795.9 1074.2 1792.86 1075.08 C 1789.48 1074.24 1786.76 1072.35 1783.8 1072.15 L 1783.34 1074.55 L 1782.08 1075 C 1776.38 1071.22 1769.3 1064.91 1768.88 1056.93 C 1768.79 1055.28 1769.18 1055.62 1768.84 1053.47 L 1768.56 1051.72 z" fill="rgb(255,255,255)" transform="translate(0,0)"></path>
<path d="M 1768.56 1051.72 C 1771.39 1052.41 1772.32 1051.97 1773.2 1053.69 C 1776.34 1059.73 1776.57 1062.04 1780.66 1067.72 L 1783.8 1072.15 L 1783.34 1074.55 L 1782.08 1075 C 1776.38 1071.22 1769.3 1064.91 1768.88 1056.93 C 1768.79 1055.28 1769.18 1055.62 1768.84 1053.47 L 1768.56 1051.72 z" fill="rgb(15,23,54)" transform="translate(0,0)"></path>
<path d="M 1798.66 1070.2 C 1792.08 1066.71 1788.47 1064.89 1783.5 1059.04 L 1784.54 1058.59 C 1790.12 1060.31 1793.78 1065.34 1800.14 1068.12 L 1798.66 1070.2 z" fill="rgb(15,23,54)" transform="translate(0,0)"></path>
<path d="M 1944.68 1232.53 L 1945.58 1232.61 L 1950.45 1243.42 C 1932.06 1244.76 1906.65 1244.17 1887.7 1244.16 C 1904.31 1230.09 1910.63 1237.19 1930.39 1236.45 C 1933.03 1236.35 1941.68 1233.5 1944.68 1232.53 z" fill="rgb(255,255,255)" transform="translate(0,0)"></path>
<path d="M 1783.55 1034.43 C 1785.83 1037.53 1787.19 1038.29 1791.07 1037.82 L 1791.77 1038.04 L 1791.38 1040.35 C 1797.56 1045.34 1799.91 1042.01 1804.07 1046.09 C 1804.43 1049.92 1804.49 1056.63 1801.8 1059.55 C 1800.79 1059.36 1799.75 1059.24 1798.8 1058.9 L 1794.91 1058.01 L 1794.33 1058.69 C 1789.26 1056.98 1785.25 1053.18 1777.4 1050.6 C 1782.1 1049.09 1780.94 1050.15 1783.91 1046.82 L 1783.59 1044.89 C 1780.72 1043.25 1779.76 1043.6 1776.47 1043.82 C 1779.59 1041.57 1781.57 1037.75 1783.55 1034.43 z" fill="rgb(15,23,54)" transform="translate(0,0)"></path>
<path d="M 1794.91 1058.01 C 1791.73 1055.44 1786.52 1052.16 1785.87 1048.53 C 1791.67 1048.85 1795.72 1054.68 1798.8 1058.9 L 1794.91 1058.01 z" fill="rgb(255,255,255)" transform="translate(0,0)"></path>
<path d="M 1800.51 969.838 C 1801.34 970.015 1801.99 970.545 1802.79 971.032 C 1804.85 980.113 1796.91 996.448 1792.36 1004.25 C 1788.57 994.45 1787.49 987.242 1786.42 976.822 C 1790.6 974.546 1796.15 971.987 1800.51 969.838 z" fill="rgb(215,59,64)" transform="translate(0,0)"></path>
<path d="M 1780.4 1022.21 C 1784.67 1024.02 1783.3 1022.56 1785.06 1026.37 C 1784.73 1030.31 1784.67 1030.64 1783.55 1034.43 C 1781.57 1037.75 1779.59 1041.57 1776.47 1043.82 C 1773.46 1043.98 1768.05 1043.39 1765.46 1041.72 C 1767.29 1039.79 1767.88 1039.62 1768.57 1037.14 C 1766.41 1033.28 1764.58 1030.82 1766.28 1026.51 C 1769.97 1023.76 1775.67 1023.17 1780.4 1022.21 z" fill="rgb(255,255,255)" transform="translate(0,0)"></path>
<path d="M 1756 1156.72 L 1759.4 1159.67 C 1763.63 1174.48 1793.95 1165.4 1796.32 1167.74 C 1790.91 1171.39 1784.58 1172.79 1778.1 1171.93 C 1772.93 1176 1765.93 1176.53 1760.57 1172.73 C 1756.14 1169.59 1756.32 1165.95 1755.43 1160.94 C 1755 1158.68 1755.25 1159.26 1756 1156.72 z" fill="rgb(255,255,255)" transform="translate(0,0)"></path>
<path d="M 1755.43 1160.94 C 1763.1 1168.77 1767.18 1169.67 1778.1 1171.93 C 1772.93 1176 1765.93 1176.53 1760.57 1172.73 C 1756.14 1169.59 1756.32 1165.95 1755.43 1160.94 z" fill="rgb(35,46,75)" transform="translate(0,0)"></path>
<path d="M 1793.22 1027.97 C 1801.72 1026.13 1797.03 1024.92 1802.33 1024.29 C 1803.13 1027.45 1802.71 1028.18 1801.74 1031.38 L 1806.28 1033.12 C 1807.38 1036.63 1807.19 1034.77 1805.96 1038.9 L 1804.88 1040.35 C 1799.2 1040.49 1797.08 1039.62 1791.77 1038.04 L 1791.07 1037.82 L 1791.31 1036.95 C 1791.3 1032.64 1790.84 1031.24 1793.22 1027.97 z" fill="rgb(15,23,54)" transform="translate(0,0)"></path>
<path d="M 1791.31 1036.95 C 1793.19 1036.86 1804.33 1038.35 1805.96 1038.9 L 1804.88 1040.35 C 1799.2 1040.49 1797.08 1039.62 1791.77 1038.04 L 1791.07 1037.82 L 1791.31 1036.95 z" fill="rgb(92,91,110)" transform="translate(0,0)"></path>
<path d="M 1917.82 1223.81 C 1927.08 1228.42 1933.29 1231.24 1943.95 1230.51 C 1945.42 1231.93 1944.95 1231.17 1945.58 1232.61 L 1944.68 1232.53 C 1936.6 1230.59 1930.34 1233.89 1921.96 1233.78 C 1916.73 1233.7 1912.71 1232.79 1907.68 1231.61 C 1912.13 1228.67 1913.95 1227.62 1917.82 1223.81 z" fill="rgb(187,30,38)" transform="translate(0,0)"></path>
<path d="M 1889.56 963.943 C 1891.13 965.56 1893.44 970.766 1893.27 973.181 C 1893.01 976.897 1891.74 976.883 1888.76 979.257 C 1887.58 973.962 1885.89 973.55 1884.54 968.049 C 1885.84 965.037 1885.76 965.88 1889.56 963.943 z" fill="rgb(255,255,255)" transform="translate(0,0)"></path>
<path d="M 1876.59 970.027 C 1877.77 970.271 1878.98 970.98 1880.15 971.533 L 1880.59 973.424 C 1878.4 976.56 1876.77 976.943 1873.33 978.587 C 1871.35 977.285 1869.53 975.588 1868.94 973.272 C 1871.58 970.491 1872.1 971.159 1876.59 970.027 z" fill="rgb(255,255,255)" transform="translate(0,0)"></path>
<path d="M 1818.96 953.337 L 1819.6 954.416 C 1814.49 957.149 1811.35 958.926 1806.49 962.183 C 1804.96 958.318 1804.89 960.088 1805.75 956.724 C 1809.28 954.102 1814.37 953.98 1818.96 953.337 z" fill="rgb(255,255,255)" transform="translate(0,0)"></path>
<path d="M 1780.86 977.225 L 1782.68 977.446 L 1782.5 978.742 C 1777.91 981.035 1772.2 982.195 1767.16 983.494 L 1765.61 982.657 L 1765.67 981.165 C 1769.58 979.097 1776.3 978.141 1780.86 977.225 z" fill="rgb(255,255,255)" transform="translate(0,0)"></path>
<path d="M 1895.46 962.857 C 1900.88 964.522 1901.53 970.311 1901.93 975.106 C 1898.3 972.673 1896.35 966.979 1895.46 962.857 z" fill="rgb(255,255,255)" transform="translate(0,0)"></path>
<path d="M 163.391 876.584 C 230.662 869.083 291.367 917.304 299.279 984.528 C 307.191 1051.75 259.34 1112.75 192.166 1121.07 C 124.41 1129.47 62.7677 1081.11 54.7872 1013.3 C 46.8068 945.497 95.5379 884.151 163.391 876.584 z" fill="rgb(15,23,54)" transform="translate(0,0)"></path>
<path d="M 127.015 898.546 C 172.273 876.124 226.94 886.771 260.475 924.541 C 261.946 926.197 263.368 927.898 264.738 929.639 C 284.48 954.725 292.578 987.043 286.997 1018.47 C 281.417 1049.9 262.689 1077.46 235.518 1094.22 C 233.27 1095.6 230.974 1096.91 228.634 1098.13 C 191.807 1117.4 147.342 1114.68 113.133 1091.08 C 108.218 1087.69 103.582 1083.91 99.2688 1079.78 C 74.1574 1055.73 61.6414 1021.38 65.3942 986.81 C 69.147 952.242 88.7429 921.379 118.43 903.278 C 121.221 901.576 124.085 899.997 127.015 898.546 z" fill="rgb(255,255,255)" transform="translate(0,0)"></path>
<path d="M 118.43 903.278 C 121.221 901.576 124.085 899.997 127.015 898.546 C 130.247 902.384 131.848 903.875 133.878 908.58 C 135.079 910.191 136.024 911.593 137.42 913.045 L 139.039 920.661 C 141.433 922.605 143.86 924.246 145.516 926.802 C 142.183 931.838 143.483 932.131 146.254 937.57 L 148.989 945.032 C 149.652 948.523 150.292 952.363 151.05 955.799 L 152.385 963.831 C 152.709 966.949 152.607 971.384 154.252 973.425 C 157.328 973.49 161.922 973.209 164.406 974.569 L 164.485 975.985 C 161.077 979.683 157.402 981.35 153.015 983.859 L 152.365 997.518 C 152.464 1001.24 152.75 1001.62 151.172 1005.06 L 147.843 1019.36 L 145.465 1026.82 C 143.24 1031.31 140.97 1036.35 138.176 1040.46 C 134.885 1043.01 135.158 1043.71 135.323 1048.12 C 132.336 1052.38 130.184 1055.87 127.55 1060.28 C 124.377 1063.27 123.584 1064.36 122.127 1068.61 C 119.746 1072 117.897 1074.73 115.153 1077.85 C 119.75 1079.21 121.617 1079.41 125.344 1082.22 L 125.158 1083.4 L 126.231 1082.49 L 125.762 1082.95 C 121.551 1082.19 113.137 1079.98 109.899 1080.76 C 108.877 1085.02 110.765 1087.09 113.133 1091.08 C 108.218 1087.69 103.582 1083.91 99.2688 1079.78 C 74.1574 1055.73 61.6414 1021.38 65.3942 986.81 C 69.147 952.242 88.7429 921.379 118.43 903.278 z" fill="rgb(255,255,255)" transform="translate(0,0)"></path>
<path d="M 118.43 903.278 C 121.221 901.576 124.085 899.997 127.015 898.546 C 130.247 902.384 131.848 903.875 133.878 908.58 C 135.079 910.191 136.024 911.593 137.42 913.045 L 139.039 920.661 C 141.433 922.605 143.86 924.246 145.516 926.802 C 142.183 931.838 143.483 932.131 146.254 937.57 L 148.989 945.032 C 149.652 948.523 150.292 952.363 151.05 955.799 L 152.385 963.831 C 152.709 966.949 152.607 971.384 154.252 973.425 C 157.328 973.49 161.922 973.209 164.406 974.569 L 164.485 975.985 C 161.077 979.683 157.402 981.35 153.015 983.859 L 152.365 997.518 C 152.464 1001.24 152.75 1001.62 151.172 1005.06 L 147.843 1019.36 L 145.465 1026.82 C 143.24 1031.31 140.97 1036.35 138.176 1040.46 C 134.885 1043.01 135.158 1043.71 135.323 1048.12 C 132.336 1052.38 130.184 1055.87 127.55 1060.28 C 124.377 1063.27 123.584 1064.36 122.127 1068.61 C 119.746 1072 117.897 1074.73 115.153 1077.85 C 119.75 1079.21 121.617 1079.41 125.344 1082.22 L 125.158 1083.4 L 126.231 1082.49 L 125.762 1082.95 C 121.551 1082.19 113.137 1079.98 109.899 1080.76 C 108.877 1085.02 110.765 1087.09 113.133 1091.08 C 108.218 1087.69 103.582 1083.91 99.2688 1079.78 C 101.32 1080.07 100.334 1080 102.701 1078.85 C 103.075 1078.19 103.448 1077.52 103.822 1076.86 C 101.652 1068.65 99.6941 1064.16 98.2991 1055.7 C 102.825 1060.64 106.639 1068.69 114.376 1067.76 C 117.006 1063.07 114.307 1053.26 113.424 1047.22 L 114.341 1046.12 C 117.708 1047.49 119.934 1051.29 122.227 1054.33 L 126.971 1044.62 L 125.43 1041.72 C 123.114 1037.41 121.748 1035.96 121.537 1031.22 L 122.694 1029.98 C 125.975 1030.29 129.01 1033.55 131.712 1035.85 C 134.69 1030.2 138.217 1026.5 134.875 1020.67 C 136.507 1018.11 136.941 1017.06 139.434 1015.23 C 140.855 1012.42 141.688 1008 142.445 1004.8 L 143.857 996.303 C 144.889 990.049 144.945 988.134 144.889 981.987 C 144.631 979.226 144.775 976.855 144.861 974.101 C 144.898 959.381 141.589 964.567 133.196 958.929 L 133.227 957.309 C 136.588 956.959 138.932 956.987 141.968 955.487 C 142.679 952.071 141.169 949.428 139.985 945.686 C 135.416 945.165 134.27 944.988 129.943 943.49 L 129.447 942.272 C 132.591 940.295 135.216 939.104 137.187 936.017 C 136.228 924.911 126.617 934.217 122.6 928.432 L 123.002 926.76 C 125.913 925.942 126.664 925.951 129.143 924.185 L 129.461 921.726 C 128.068 918.301 128.542 917.669 126.021 916.198 C 120.901 917.677 118.863 919.573 116.203 914.864 C 118.134 910.989 120.454 914.024 123.655 909.36 C 122.647 906.343 120.891 905.342 118.43 903.278 z" fill="rgb(187,30,38)" transform="translate(0,0)"></path>
<path d="M 134.875 1020.67 C 131.548 1018.41 129.026 1014.55 129.012 1010.47 L 130.25 1009.44 C 133.89 1009.74 136.529 1012.73 139.434 1015.23 C 136.941 1017.06 136.507 1018.11 134.875 1020.67 z" fill="rgb(215,59,64)" transform="translate(0,0)"></path>
<path d="M 144.889 981.987 C 141.114 980.244 136.871 978.223 134.726 974.771 L 135.166 973.135 C 138.614 971.779 141.15 973.061 144.861 974.101 C 144.775 976.855 144.631 979.226 144.889 981.987 z" fill="rgb(215,59,64)" transform="translate(0,0)"></path>
<path d="M 142.445 1004.8 C 137.082 998.911 135.328 996.553 132.478 989.136 C 136.326 991.247 140.166 993.889 143.857 996.303 L 142.445 1004.8 z" fill="rgb(215,59,64)" transform="translate(0,0)"></path>
<path d="M 208.861 1033.22 L 209.604 1026.66 C 206.872 1021.07 206.172 1023.89 201.572 1018.38 C 200.684 1014.64 200.147 1015.77 201.466 1013.6 C 204.502 1014.39 206.377 1015.2 209.449 1014.59 C 212.445 1008.89 207.896 1004.68 204.171 1001.2 L 203.129 1000.24 C 202.718 997.216 202.764 997.427 203.789 994.522 C 208.615 993.867 208.086 998.144 212.969 997.434 C 218.552 986.571 205.592 987.69 208.925 977.436 C 213.378 977.68 212.377 979.915 217.438 982.033 C 219.84 979.942 221.703 975.226 220.805 972.092 C 217.238 968.014 214.693 966.761 216.667 961.508 C 221.282 960.917 220.826 964.841 225.779 964.377 C 232.327 957.703 222.881 953.315 226.47 944.438 L 227.817 944.079 C 230.101 947.085 230.877 949.346 234.527 949.437 C 241.335 942.697 233.112 938.353 238.299 932.056 C 242.914 934.99 240.018 936.367 244.473 937.237 C 249.524 934.062 249.107 932.228 249.657 926.546 L 249.785 925.105 L 250.926 924.2 L 254.239 927.362 C 257.416 927.351 257.297 926.644 260.475 924.541 C 261.946 926.197 263.368 927.898 264.738 929.639 C 284.48 954.725 292.578 987.043 286.997 1018.47 C 281.417 1049.9 262.689 1077.46 235.518 1094.22 C 233.27 1095.6 230.974 1096.91 228.634 1098.13 C 222.772 1085.23 218.775 1094.06 211.84 1087.07 L 211.883 1085.81 C 215.422 1084.85 216.547 1084.53 219.848 1083 L 220.543 1081 C 215.735 1069.88 206.252 1078.07 205.393 1071 C 210.243 1069.15 213.624 1069.15 214.278 1063.93 C 212.792 1060.48 212.609 1059.69 210.094 1056.75 C 209.012 1053.29 209.362 1055.04 210.256 1050.76 C 211.533 1046.69 210.527 1044.5 208.997 1040.74 C 208.624 1037.78 208.786 1036.18 208.861 1033.22 z" fill="rgb(255,255,255)" transform="translate(0,0)"></path>
<path d="M 208.861 1033.22 L 209.604 1026.66 C 206.872 1021.07 206.172 1023.89 201.572 1018.38 C 200.684 1014.64 200.147 1015.77 201.466 1013.6 C 204.502 1014.39 206.377 1015.2 209.449 1014.59 C 212.445 1008.89 207.896 1004.68 204.171 1001.2 L 203.129 1000.24 C 202.718 997.216 202.764 997.427 203.789 994.522 C 208.615 993.867 208.086 998.144 212.969 997.434 C 218.552 986.571 205.592 987.69 208.925 977.436 C 213.378 977.68 212.377 979.915 217.438 982.033 C 219.84 979.942 221.703 975.226 220.805 972.092 C 217.238 968.014 214.693 966.761 216.667 961.508 C 221.282 960.917 220.826 964.841 225.779 964.377 C 232.327 957.703 222.881 953.315 226.47 944.438 L 227.817 944.079 C 230.101 947.085 230.877 949.346 234.527 949.437 C 241.335 942.697 233.112 938.353 238.299 932.056 C 242.914 934.99 240.018 936.367 244.473 937.237 C 249.524 934.062 249.107 932.228 249.657 926.546 L 249.785 925.105 L 250.926 924.2 L 254.239 927.362 C 257.416 927.351 257.297 926.644 260.475 924.541 C 261.946 926.197 263.368 927.898 264.738 929.639 C 261.546 932.214 258.652 934.164 256.358 937.545 L 256.802 938.688 L 261.69 940.204 L 260.683 941.368 C 257.582 941.452 256.5 941.339 253.497 941.025 C 250.215 943.323 251.009 941.868 250.166 944.984 L 252.818 949.092 L 251.526 950.285 L 246.542 949.143 C 243.253 951.769 242.348 953.087 239.645 956.407 C 243.337 957.783 245.908 958.187 248.001 961.405 L 247.131 962.547 C 235.333 962.275 237.41 958.549 231.081 970.605 C 234.77 971.62 237.787 972.01 240.588 974.512 C 235.953 977.896 230.017 974.705 225.401 981.639 L 225.027 984.809 C 228.468 987.797 230.936 985.728 234.544 988.999 L 234.426 990.543 C 228.204 994.589 223.52 986.883 221.042 995.443 C 220.184 998.407 221.191 999.274 222.465 1001.12 C 227.721 1003.47 230.334 1002.8 236.184 1005.84 C 227.108 1007.79 219.05 1003.62 217.293 1013.88 C 219.747 1017.45 224.306 1016.89 228.596 1017.27 C 222.951 1020.27 213.929 1022.72 217.6 1030.62 C 223.221 1030.45 222.141 1028.1 226.389 1029.42 L 226.838 1031.95 C 223.72 1035.95 213.014 1034.2 217.987 1045.2 C 221.682 1047.34 223.168 1046.46 228.142 1046.55 C 228.515 1050.15 222.917 1053.57 220.078 1055.83 C 221.059 1060.54 220.398 1061.34 223.152 1064.26 C 226.392 1064.63 226.725 1064.31 229.815 1063.45 C 231.887 1065.29 231.193 1064.14 231.396 1067.27 C 229.835 1069.07 228.522 1070.5 226.857 1072.22 C 226.634 1077.01 226.012 1074.97 228.132 1078.72 C 231.492 1080.41 232.405 1080.28 236.068 1080.58 C 237.003 1087.52 229.919 1083.89 235.518 1094.22 C 233.27 1095.6 230.974 1096.91 228.634 1098.13 C 222.772 1085.23 218.775 1094.06 211.84 1087.07 L 211.883 1085.81 C 215.422 1084.85 216.547 1084.53 219.848 1083 L 220.543 1081 C 215.735 1069.88 206.252 1078.07 205.393 1071 C 210.243 1069.15 213.624 1069.15 214.278 1063.93 C 212.792 1060.48 212.609 1059.69 210.094 1056.75 C 209.012 1053.29 209.362 1055.04 210.256 1050.76 C 211.533 1046.69 210.527 1044.5 208.997 1040.74 C 208.624 1037.78 208.786 1036.18 208.861 1033.22 z" fill="rgb(187,30,38)" transform="translate(0,0)"></path>
<path d="M 135.323 1048.12 C 135.158 1043.71 134.885 1043.01 138.176 1040.46 C 143.047 1040.77 146.692 1040.42 150.651 1043.05 L 152.322 1045.6 C 149.705 1052.67 140.484 1049.82 135.323 1048.12 z" fill="rgb(215,59,64)" transform="translate(0,0)"></path>
<path d="M 122.127 1068.61 C 123.584 1064.36 124.377 1063.27 127.55 1060.28 C 131.265 1062.61 134.183 1063.87 136.311 1067.61 L 135.795 1069.22 C 131.665 1070.78 126.88 1069.29 122.127 1068.61 z" fill="rgb(215,59,64)" transform="translate(0,0)"></path>
<path d="M 152.365 997.518 C 156.113 996.537 159.333 995.191 162.93 996.39 L 164.244 998.284 C 162.87 1004.48 156.29 1005.01 151.172 1005.06 C 152.75 1001.62 152.464 1001.24 152.365 997.518 z" fill="rgb(215,59,64)" transform="translate(0,0)"></path>
<path d="M 147.843 1019.36 C 151.923 1019.65 155.578 1019.33 158.556 1021.96 L 159.013 1024.05 C 155.05 1028.43 150.824 1027.3 145.465 1026.82 L 147.843 1019.36 z" fill="rgb(215,59,64)" transform="translate(0,0)"></path>
<path d="M 151.05 955.799 C 154.481 954.431 157.688 952.647 161.202 953.296 L 162.532 954.64 C 161.585 960.934 157.339 961.4 152.385 963.831 L 151.05 955.799 z" fill="rgb(215,59,64)" transform="translate(0,0)"></path>
<path d="M 146.254 937.57 C 149.518 936.198 152.71 934.37 156.082 934.879 L 157.222 936.435 C 156.056 940.575 152.532 942.828 148.989 945.032 L 146.254 937.57 z" fill="rgb(215,59,64)" transform="translate(0,0)"></path>
<path d="M 208.997 1040.74 C 205.014 1039.73 201.349 1038.84 198.931 1035.38 L 199.511 1033.68 C 202.637 1032.09 205.269 1032.84 208.861 1033.22 C 208.786 1036.18 208.624 1037.78 208.997 1040.74 z" fill="rgb(215,59,64)" transform="translate(0,0)"></path>
<path d="M 210.094 1056.75 C 205.26 1057.79 203.907 1058.63 200.323 1054.97 L 200.954 1052.65 C 204.619 1050.09 204.873 1050.98 210.256 1050.76 C 209.362 1055.04 209.012 1053.29 210.094 1056.75 z" fill="rgb(215,59,64)" transform="translate(0,0)"></path>
<path d="M 139.039 920.661 C 143.132 919.348 144.509 918.52 148.603 919.127 L 150.505 920.443 C 149.865 923.545 148.509 924.647 145.516 926.802 C 143.86 924.246 141.433 922.605 139.039 920.661 z" fill="rgb(215,59,64)" transform="translate(0,0)"></path>
<path d="M 133.878 908.58 C 137.247 906.591 139.051 905.004 142.915 905.154 L 144.051 906.329 C 142.707 909.794 140.829 910.63 137.42 913.045 C 136.024 911.593 135.079 910.191 133.878 908.58 z" fill="rgb(215,59,64)" transform="translate(0,0)"></path>
<path d="M 1435.41 883.328 C 1452 881.613 1470.69 886.418 1484.57 895.592 C 1559.82 945.307 1549.45 1086.25 1454.03 1105.96 C 1445.4 1106.8 1435.48 1106.62 1427.01 1104.64 C 1323.76 1080.54 1329.88 897.396 1435.41 883.328 z" fill="rgb(35,46,75)" transform="translate(0,0)"></path>
<path d="M 1439.15 939.327 C 1499.37 938.685 1506.35 1037.49 1449.47 1051.06 C 1384.42 1052.91 1379.63 949.048 1439.15 939.327 z" fill="rgb(255,255,255)" transform="translate(0,0)"></path>
<path d="M 768.071 885.387 C 803.021 886.015 854.181 879.725 881.117 903.784 C 926.144 944.003 925.267 1033.95 888.798 1078.58 C 887.719 1079.73 886.617 1080.85 885.494 1081.96 C 863.261 1103.93 839.115 1103.35 810.635 1103.24 L 768.906 1103.02 L 768.071 885.387 z" fill="rgb(35,46,75)" transform="translate(0,0)"></path>
<path d="M 809.974 940.873 C 824.894 940.782 842.638 939.47 855.165 948.983 C 871.518 961.402 874.45 985.88 872.59 1005.02 C 871.461 1016.65 867.903 1026.35 860.893 1035.7 C 845.903 1050.28 829.177 1049.06 809.944 1048.95 L 809.974 940.873 z" fill="rgb(255,255,255)" transform="translate(0,0)"></path>
<path d="M 1650.15 884.016 L 1693.03 883.972 L 1693.04 1108.8 C 1689.55 1109.29 1680.3 1109.03 1676.31 1109.01 C 1649.3 1072.75 1619.6 1036.87 1593.69 1000.02 C 1592.04 1029.47 1593.17 1072.41 1593.02 1103.08 L 1550.9 1103.02 C 1550.88 1083.77 1548.74 891.16 1551.07 884.479 C 1558.36 884.265 1566.05 884.399 1573.38 884.413 C 1597.11 919.068 1624.93 956.171 1650.52 989.774 C 1650.15 954.523 1650.02 919.269 1650.15 884.016 z" fill="rgb(35,46,75)" transform="translate(0,0)"></path>
<path d="M 524.838 885.16 L 630.006 885.204 L 629.946 936.998 L 565.648 937.083 L 565.721 969.068 L 621.21 969.223 C 621.974 983.874 621.502 1002.66 621.206 1017.45 L 565.35 1017.52 L 565.347 1047.83 L 565.483 1048.41 C 565.969 1048.85 566.456 1049.29 566.942 1049.73 C 579.083 1050.33 619.687 1050.05 629.703 1050.03 C 630.109 1067.2 629.728 1085.76 629.703 1103.04 L 525 1102.89 L 524.838 885.16 z" fill="rgb(35,46,75)" transform="translate(0,0)"></path>
<path d="M 1208.61 881.289 C 1232.01 879.608 1246.5 887.141 1265.89 898.612 C 1261.25 915.536 1255.98 932.279 1250.08 948.807 C 1240.44 941.835 1218.77 925.155 1206.63 935.26 C 1201.03 939.92 1200.05 951.751 1205.71 956.986 C 1211.48 962.327 1219.54 965.257 1226.34 969.17 C 1255.57 984.307 1270.9 1001.75 1271.62 1035.8 C 1272.24 1064.9 1262.11 1092.56 1232.12 1103.81 C 1223.82 1106.92 1217.92 1107.06 1209.26 1107.14 C 1188.48 1107.33 1168.96 1097.18 1154.28 1083 C 1159.61 1067.96 1167.08 1050.8 1173.43 1036.12 C 1212.63 1078.34 1257.59 1036.44 1200.6 1013.87 C 1194.19 1011.33 1181.18 1002.81 1176.26 997.733 C 1140.77 961.094 1153.18 889.275 1208.61 881.289 z" fill="rgb(35,46,75)" transform="translate(0,0)"></path>
<path d="M 1034.54 884.954 L 1079.98 885.012 C 1071.08 909.573 1063.2 935.261 1055.24 960.2 C 1053.29 965.244 1051.85 970.971 1050.1 976.138 C 1035.88 1018.16 1024.19 1061.08 1010.4 1103.19 L 980.454 1103.08 L 935.845 958.231 C 930.688 941.871 915.761 900.124 913.171 885.462 C 927.006 884.995 943.231 885.449 957.247 885.494 C 969.535 925.812 982.052 966.06 994.797 1006.24 C 1001.23 990.419 1006.41 972.363 1011.61 956.059 L 1034.54 884.954 z" fill="rgb(35,46,75)" transform="translate(0,0)"></path>
<path d="M 327.211 885.157 L 433.952 885.305 L 433.637 937.824 L 368.939 937.806 L 368.935 977.06 L 423.028 977.11 C 423.071 989.353 423.876 1016.81 422.584 1027.83 C 420.102 1029.56 418.903 1028.93 415.25 1029.04 L 368.915 1029.02 L 368.909 1102.97 L 327.88 1102.76 L 327.211 885.157 z" fill="rgb(35,46,75)" transform="translate(0,0)"></path>
<path d="M 654.056 885.266 C 667.566 885.043 681.422 885.153 694.964 885.101 L 695.265 1048.86 L 749.929 1049.01 L 749.965 1103 L 654.433 1102.95 L 654.056 885.266 z" fill="rgb(35,46,75)" transform="translate(0,0)"></path>
<path d="M 1291.98 885.498 L 1333.44 885.416 C 1334.91 928.814 1333.45 979.604 1333.41 1023.52 L 1333.38 1074.38 C 1333.38 1082.07 1333.75 1096.1 1332.82 1102.99 L 1289.71 1102.91 C 1290.66 1052.46 1289.45 1001.63 1289.88 951.231 C 1289.99 938.202 1288.8 897.728 1290.19 886.6 L 1291.98 885.498 z" fill="rgb(35,46,75)" transform="translate(0,0)"></path>
<path d="M 453.614 885.232 L 496.364 885.216 L 495.938 1102.96 L 453.921 1102.98 L 453.614 885.232 z" fill="rgb(35,46,75)" transform="translate(0,0)"></path>
<path d="M 1091.9 885.135 L 1134.04 885.169 L 1133.75 1102.73 C 1120.69 1103.18 1105.77 1102.86 1092.56 1102.88 L 1091.9 885.135 z" fill="rgb(35,46,75)" transform="translate(0,0)"></path>
<metadata><recraft-signature>{"signed_by": "recraft", "signature_b64": "GtOXsDnpfPy7EzJ9aukEaBzEihTk+m6cZag79MtA/PdiNqIrvoByPwRFs/0M8QEm30ZjIysdlOEbj2S8rB/wAg==", "signing_algo": "Ed25519", "generation_timestamp": 1777330485, "identifier": "526c9934-421f-4452-97ca-93b20cd55720"}</recraft-signature></metadata></svg>