<svg xmlns="http://www.w3.org/2000/svg" height="1024" preserveAspectRatio="none" style="display: block;" version="1.1" viewBox="0 0 2048 2048" width="1024">
<path d="M 0 0 L 2048 0 L 2048 2048 L 0 2048 L 0 0 z" fill="rgb(255,255,255)" transform="translate(0,0)"></path>
<path d="M 1256.63 653.428 C 1284.63 651.839 1320.88 652.926 1348.72 654.622 C 1501.35 663.919 1655.06 701.351 1800.24 748.195 C 1829.47 757.624 1857.59 767.267 1886.13 778.62 C 1903.06 785.357 1923.84 792.505 1939.42 801.665 C 1872.32 795.942 1813.34 780.809 1748.26 769.357 C 1634.94 749.417 1519.02 731.506 1404.25 724.11 C 1359.18 721.206 1308.01 722.352 1262.75 724.404 C 1297.46 739.282 1329.09 758.857 1360 781.156 C 1408.21 815.941 1455.45 860.724 1510.66 883.731 C 1522.61 888.708 1542.43 891.679 1555.21 892.681 C 1636.03 899.022 1702.33 852.618 1760.65 802.266 C 1732.31 854.569 1700 895.151 1644.54 921.413 C 1630.64 927.994 1616.89 932.027 1602.28 936.667 C 1576.86 994.473 1546.52 1039.58 1509.28 1089.91 C 1521.69 1090.07 1534.07 1091.22 1546.31 1093.33 C 1663.5 1112.93 1769.02 1158 1863.24 1229.86 C 1877.64 1240.85 1909.18 1264.08 1919.19 1278.08 C 1906.82 1273.33 1893.76 1266.48 1881.53 1261.04 C 1858.77 1250.9 1835.55 1239.86 1812.48 1230.63 C 1785.88 1220.16 1758.97 1210.48 1731.79 1201.63 C 1675.86 1183.84 1611.4 1168.09 1553.22 1160.18 C 1519.43 1155.59 1491.23 1184.1 1476.19 1211.75 C 1510.28 1202.45 1542.08 1199.56 1576.77 1207.57 C 1583.46 1209.29 1591.4 1210.17 1595.29 1216.6 C 1597.06 1219.52 1595.51 1227.42 1592.32 1227.33 C 1578.74 1226.92 1565.66 1222.65 1551.74 1221.52 C 1518.27 1218.81 1487.03 1225.87 1457.65 1242.19 C 1451.97 1252.88 1443.65 1265.96 1437.38 1276.82 C 1463.32 1269.51 1487.59 1263.51 1514.84 1266.17 C 1524.29 1267.09 1542.21 1265.98 1541.03 1279.43 C 1536.74 1286.62 1528.41 1284.7 1519.51 1283.99 C 1478.25 1280.68 1458.43 1290.93 1422.08 1304.04 C 1413.15 1317.26 1404.52 1334.14 1397.36 1348.46 C 1424.08 1336.65 1453.5 1329.95 1482.8 1332.43 C 1489.08 1332.96 1493.08 1338.37 1491.54 1344.66 C 1490.71 1345.57 1489.87 1346.48 1489.04 1347.39 C 1474.37 1350.58 1455.86 1349.46 1440.97 1353.04 C 1418.36 1358.48 1401.6 1366.47 1381.08 1375.62 C 1374.79 1385.03 1361.15 1412.05 1355.98 1422.53 C 1378.1 1414.15 1398.27 1407.97 1422.35 1407.96 C 1431.98 1408.61 1447.88 1406.46 1455.44 1413.64 C 1458.08 1416.15 1456.57 1423.64 1451.91 1424.6 C 1446.51 1425.67 1439.38 1425.6 1433.86 1425.2 C 1396.01 1422.45 1369.14 1439.2 1336.76 1454.45 C 1329.13 1467.86 1315.85 1490.06 1310.29 1504.01 C 1340.37 1493.51 1365.57 1486.6 1397.97 1490.87 C 1404.52 1491.74 1419.35 1492.01 1421.75 1499.7 C 1423.09 1503.84 1420.3 1509.36 1415.49 1509.27 C 1397.23 1508.94 1381.11 1506.79 1362.56 1509.85 C 1340.65 1513.47 1300.68 1522.83 1285.09 1539.86 C 1277.03 1548.66 1266.66 1565.95 1258.8 1576.22 C 1290.29 1569.97 1318.54 1565.19 1350.69 1571.69 C 1358.68 1573.3 1371.59 1573.45 1374.31 1582.51 C 1374.03 1586.64 1373.96 1586.42 1371.4 1589.81 C 1366.59 1593.08 1347.65 1588.02 1340.99 1587.62 C 1330.33 1586.96 1320.12 1586.72 1309.45 1587.27 C 1294.92 1587.98 1280.5 1590.19 1266.43 1593.85 C 1260.96 1595.25 1244.03 1599.95 1240.1 1603.09 C 1226.08 1614.32 1208.41 1636.21 1195.94 1650.08 C 1197.11 1649.82 1198.28 1649.59 1199.46 1649.37 C 1230.49 1643.56 1261.05 1644.51 1291.13 1654.61 C 1300.66 1657.81 1316.87 1662.51 1305.43 1675.06 C 1301.21 1677 1278.97 1668.95 1271.06 1667.59 C 1245.75 1663.26 1194.64 1662.69 1172.97 1677.96 C 1163.5 1684.63 1139.66 1710.9 1131.17 1720.19 C 1152.83 1718.55 1226.64 1718.52 1232.78 1745.83 C 1228.73 1758.02 1205.9 1745.01 1197.79 1743.01 C 1171.79 1736.6 1129.42 1733.98 1105.32 1747.16 C 1094.67 1752.98 1077.37 1773.06 1065.16 1780.2 C 1062.18 1781.94 1053.37 1789.5 1050.97 1791.81 C 1065.4 1792.17 1138.84 1799.31 1137.53 1820.63 C 1136.8 1821.83 1132.91 1825.92 1131.81 1825.68 C 1106.48 1820.15 1082.8 1812.41 1056.43 1811.98 C 1044.87 1811.8 1031.79 1812.23 1020.38 1814.88 C 1007.18 1817.95 995.349 1827.75 983.355 1833.8 C 971.57 1840.08 959.71 1845.78 947.684 1851.42 C 964.198 1854.57 1044.83 1870.17 1041.69 1890.47 C 1034.54 1899.11 1021.99 1891.28 1013.38 1887.89 C 981.204 1875.21 942.003 1868.94 907.403 1868.57 C 901.214 1868.5 862.855 1880.26 855.817 1882.74 C 871.587 1886.44 933.89 1909.43 936.941 1926.98 C 935.909 1930.39 931.595 1934.02 928.522 1932.96 C 911.879 1927.23 896.571 1917.71 880.156 1911.07 C 865.374 1905.1 851.003 1899.57 835.593 1895.37 C 805.227 1885.57 802.726 1892.12 773.576 1892.98 C 739.186 1893.99 705.096 1890.56 671.88 1881.38 C 704.511 1873.11 741.38 1869.07 774.166 1861.03 C 795.551 1855.78 822.993 1819.01 834.274 1800.7 C 836.887 1796.46 843.031 1778.75 846.49 1773.48 C 867.341 1765.81 858.092 1790.11 855.692 1796.2 C 846.335 1819.93 832.823 1836.53 815.735 1854.17 C 843.425 1849.24 866.103 1845.95 892.733 1836.07 C 913.385 1807.79 924.612 1779.71 930.025 1744.98 C 931.404 1736.11 930.686 1728.17 932.009 1719.19 C 933.439 1709.47 945.816 1707.55 948.744 1716.28 C 950.551 1721.66 949.169 1729.93 948.792 1735.74 C 946.704 1767.95 936 1795.55 923.704 1824.84 C 939.13 1819.3 962.821 1805.91 978.03 1797.76 C 996.748 1766.25 1005.25 1725.05 1001.07 1688.83 C 1000.85 1685.45 998.934 1674.93 1002.6 1672.98 C 1018.72 1664.42 1017.9 1682.45 1018.97 1690.01 C 1023.27 1720.34 1018.13 1746.9 1010.83 1775.78 C 1018.24 1771.21 1052.74 1747.31 1055.9 1740.7 C 1070 1711.14 1070.67 1669.37 1064.39 1637.52 C 1063.37 1632.31 1060.71 1622.37 1062.89 1617.48 C 1073.52 1607.18 1078.56 1620.15 1080.83 1628.63 C 1088.26 1656.51 1089.44 1689.26 1086.03 1717.96 C 1091.16 1713.13 1114.4 1692.13 1116.65 1687.82 C 1137.6 1647.62 1136.4 1596.21 1125.22 1553.21 C 1125.08 1551.15 1124.58 1548.04 1126.34 1546.58 C 1142.52 1533.09 1145.8 1569.12 1147.57 1576.14 C 1154.55 1603.79 1153.65 1628.97 1149.29 1656.66 C 1157.83 1645.17 1183.99 1619.11 1188.12 1608.47 C 1200 1577.88 1194.86 1538.23 1184.39 1508.75 C 1182.16 1502.3 1175.92 1494.48 1178.21 1488.01 C 1181.16 1484.62 1188.43 1482.88 1191.64 1486.49 C 1198.2 1493.86 1201.24 1504.05 1204.68 1513.11 C 1213.1 1535.34 1215.05 1555.71 1214.99 1579.1 C 1227.14 1564.05 1240.82 1543.36 1252.21 1527.2 C 1251.85 1498.69 1249.37 1473.3 1237.17 1447.04 C 1234.02 1440.24 1226.94 1431.76 1228.48 1424.74 C 1247.62 1400.72 1269.43 1490.72 1271.65 1500.82 C 1280.65 1484.44 1296.76 1464.67 1301.75 1447.24 C 1309.93 1418.71 1276.02 1376.02 1277.61 1366.54 C 1277.92 1364.68 1280.26 1362.01 1281.9 1361.18 C 1284.05 1360.1 1286.26 1360.6 1288.34 1361.53 C 1300.37 1366.87 1315.24 1410.37 1320.2 1423.38 C 1325.53 1407.57 1335.1 1394.96 1341.4 1380.14 C 1336.65 1354.58 1326.47 1331.17 1308.83 1311.75 C 1286.14 1332.33 1262.03 1355.01 1238.74 1374.6 C 1198.89 1407.7 1157.24 1438.57 1113.98 1467.08 C 1105.38 1472.74 1095.61 1480.4 1087.27 1485.45 C 979.767 1550.57 836.817 1605.5 714.525 1634.52 C 672.106 1644.15 629.314 1652.04 586.254 1658.17 C 551.75 1663.15 513.197 1667.95 478.296 1669.02 C 489.003 1665.41 505.747 1662.14 517.253 1659.03 C 548.482 1650.61 581.211 1643.62 612.312 1634.95 C 709.884 1608.31 805.58 1575.22 898.766 1535.9 C 935.831 1520.53 981.105 1502.11 1015.87 1482.3 C 1136.82 1413.4 1245.8 1318.55 1338.75 1215.18 C 1410.74 1135.1 1480.61 1037.66 1510.22 932.588 C 1455.61 909.724 1423.2 879.724 1374.35 847.645 C 1318.73 810.982 1259.74 779.701 1198.18 754.229 C 1238.28 855.131 1203.07 953.496 1113.96 1012.97 C 1122.02 1022.57 1131.74 1031.07 1140.15 1040.95 C 1234.15 1151.32 1203.64 1327.86 1082.71 1409.53 C 1026.63 1448.19 957.408 1462.8 890.487 1450.1 C 826.995 1437.03 771.413 1399.01 736.214 1344.57 C 698.098 1286.23 684.845 1215.09 699.395 1146.94 C 711.365 1089.46 746.51 1029.41 796.229 996.872 C 763.004 975.511 738.568 951.477 720.967 915.868 C 703.031 932.728 678.304 961.495 661.665 980.415 C 584.81 1068.67 514.581 1162.49 451.553 1261.09 C 442.336 1275.7 430.209 1293.89 422.628 1309.36 C 419.27 1318.54 418.815 1330.3 418.262 1339.73 C 414.165 1409.6 428.275 1468.26 481.934 1515.56 C 529.6 1557.58 572.447 1561.56 627.823 1582.38 C 602.851 1580.01 575.471 1579.09 551.034 1577.23 C 507.775 1573.93 462.485 1572.69 420.327 1571.96 C 290.775 1569.69 279.265 1589.44 193.974 1673.51 C 198.835 1653.39 209.595 1628.19 217.792 1609.03 C 231.641 1577.01 246.243 1545.32 261.586 1513.99 C 354.74 1323.65 460.6 1136.54 601.602 977.001 C 767.607 785.523 1003.68 668.905 1256.63 653.428 z" fill="rgb(7,14,46)" transform="translate(0,0)"></path>
<path d="M 818.957 1003.92 C 824.25 1006.08 839.412 1011.86 843.674 1014.33 L 851.54 1018.28 C 855.367 1019.94 859.693 1021.67 863.275 1023.73 L 878.815 1030.57 L 884.491 1032.5 C 894.045 1036.38 911.288 1040.1 921.62 1041.97 C 976.007 1051.82 1022.4 1045.74 1074.46 1029.71 C 1079.4 1028.43 1080.96 1027.67 1085.59 1025.42 C 1089.44 1023.06 1090.5 1021.5 1094.48 1021.58 C 1096.42 1023.48 1096.57 1023.59 1098.03 1025.86 C 1104.53 1031.19 1108.93 1035.68 1114.16 1042.35 C 1159.25 1099.09 1181.36 1147.81 1172.28 1223.02 C 1165.61 1278.3 1148.03 1309.8 1116.21 1353.14 C 1111.76 1359.99 1108.21 1363.82 1101.78 1368.97 L 1097.04 1371.27 L 1086.74 1379.78 C 1015.96 1443.43 883.744 1454.24 809.45 1391.4 L 808.823 1390.88 C 699.134 1312.71 681.471 1148.44 770.436 1047.74 C 783.419 1033.05 795.455 1023.16 810.648 1011.16 C 813.467 1008.55 815.868 1006.22 818.957 1003.92 z" fill="rgb(255,255,255)" transform="translate(0,0)"></path>
<path d="M 828.36 1369.61 C 828.642 1369.16 830 1366.6 829.637 1366.09 C 817.15 1348.54 814.436 1334.53 828.552 1316.85 C 831.881 1327.34 835.504 1346.79 838.9 1354.88 L 841.997 1355.89 C 846.499 1361.24 868.077 1359.25 875.722 1358.94 C 866.545 1367.51 862.443 1371.64 849.804 1374.17 C 842.336 1372.52 839.28 1369.42 833.332 1367.91 C 830.916 1369.13 831.081 1369.13 829.322 1371.24 L 820.825 1380.99 C 824.098 1381.78 849.348 1385.64 850.19 1386.81 C 838.266 1408.66 819.072 1389.82 809.45 1391.4 L 808.823 1390.88 L 810.06 1387.47 L 808.952 1385.76 C 812.184 1383.9 812.47 1384.02 814.572 1380.82 L 815.734 1381.27 C 820.578 1378.24 824.357 1373.77 828.36 1369.61 z" fill="rgb(138,1,7)" transform="translate(0,0)"></path>
<path d="M 889.852 1249.9 C 890.281 1248.33 890.24 1249.2 889.711 1247.32 C 886.736 1246.17 883.389 1244.94 880.514 1243.6 C 870.211 1238.8 861.375 1218.95 866.288 1208.6 L 867.584 1208.23 C 876.546 1216.65 887.212 1227.77 892.607 1238.98 L 893.921 1237.42 L 894.878 1237.07 C 902.3 1235.03 913.64 1230.18 919.775 1229.61 L 920.993 1230.74 C 920.829 1244.68 906.345 1258.76 891.19 1253.84 C 890.972 1252.88 890.207 1250.91 889.852 1249.9 z" fill="rgb(138,1,7)" transform="translate(0,0)"></path>
<path d="M 888.682 1097.35 C 891.492 1095.69 898.202 1084.61 904.99 1080.36 L 907.023 1080.2 C 909.088 1082.81 908.185 1087.67 908.233 1090.71 C 908.457 1104.63 887.094 1114.1 894.898 1125.49 C 901.672 1126.97 907.626 1116.7 915.104 1114.86 C 916.674 1115.78 916.993 1115.49 917.266 1117.16 C 919.749 1132.41 909.992 1143.16 897.069 1148.45 L 894.739 1149.65 C 892.151 1136.98 894.961 1133.44 889.931 1116.84 C 889.867 1111.73 887.641 1112.84 887.498 1109.05 L 885.715 1096.96 L 888.682 1097.35 z" fill="rgb(138,1,7)" transform="translate(0,0)"></path>
<path d="M 850.602 1338.18 C 845.302 1334.98 843.739 1331.74 840.943 1326.38 C 833.984 1313.03 836.766 1302.7 843.799 1290.52 C 847.987 1302.22 853.847 1317.64 855.712 1329.6 C 858.464 1329.98 857.403 1329.3 859.152 1331.35 L 860.097 1331.11 C 869.247 1330.58 876.264 1332.59 884.453 1331.87 L 888.2 1331.56 C 890.669 1338.49 868.515 1356.09 851.734 1341.55 L 850.602 1338.18 z" fill="rgb(138,1,7)" transform="translate(0,0)"></path>
<path d="M 865.791 1314.84 C 867.048 1312.84 867.055 1313 867.359 1310.67 C 858.21 1301.72 851.194 1294.98 851.433 1281.92 C 851.528 1276.77 850.556 1272.29 854.151 1268.32 L 856.144 1268.72 C 864.115 1275.8 868.442 1291.21 872.06 1301.59 C 875.823 1294.74 876.896 1291.66 879.463 1284.23 L 880.16 1284.66 C 879.095 1290.77 876.97 1296.3 874.945 1302.16 C 883.128 1300.78 895.268 1300.91 903.783 1300.96 C 882.382 1331.21 875.091 1311.07 866.832 1315.29 L 865.791 1314.84 z" fill="rgb(138,1,7)" transform="translate(0,0)"></path>
<path d="M 1084.35 1339.82 C 1089.34 1327.63 1094.24 1315.4 1099.04 1303.13 C 1105.32 1317.73 1109.92 1333.51 1095.65 1345.07 C 1089.81 1349.8 1087.65 1349.19 1090.05 1356.05 L 1089.2 1356.79 C 1079.53 1345.88 1063.94 1361.89 1052.45 1330.4 C 1062.48 1334.7 1070.99 1337.23 1081.36 1340.44 C 1080.31 1337.49 1079.27 1335.55 1079.62 1332.47 C 1082 1333.88 1083.05 1337.13 1084.35 1339.82 z" fill="rgb(138,1,7)" transform="translate(0,0)"></path>
<path d="M 863.275 1023.73 L 878.815 1030.57 L 884.491 1032.5 C 884.174 1055.17 877.099 1048.27 873.679 1063.28 L 870.242 1058.58 C 864.54 1057.77 857.925 1060.05 852.123 1059.36 C 845.701 1058.58 835.916 1054.12 834.312 1047.26 C 839.203 1038.61 862.234 1049.3 868.482 1054.43 C 866.663 1049.5 865.083 1044.81 862.699 1040.11 L 863.026 1038.87 C 862.379 1036.33 863.938 1028.65 863.275 1023.73 z" fill="rgb(138,1,7)" transform="translate(0,0)"></path>
<path d="M 863.275 1023.73 L 878.815 1030.57 C 871.76 1035.38 870.929 1038.69 867.605 1046.39 L 863.026 1038.87 C 862.379 1036.33 863.938 1028.65 863.275 1023.73 z" fill="rgb(255,255,255)" transform="translate(0,0)"></path>
<path d="M 889.931 1116.84 C 874.177 1116.51 853.984 1112.15 853.392 1092.18 C 859.282 1087.36 882.883 1103.52 887.498 1109.05 C 887.641 1112.84 889.867 1111.73 889.931 1116.84 z" fill="rgb(138,1,7)" transform="translate(0,0)"></path>
<path d="M 895.697 1182.39 C 881.699 1178.45 871.011 1172.05 865.63 1157.46 C 864.573 1154.59 864.818 1153.7 866.035 1151.19 L 868.672 1150.51 C 876.987 1152.48 888.836 1164.04 895.492 1170.12 C 894.865 1175.67 894.961 1176.83 895.697 1182.39 z" fill="rgb(138,1,7)" transform="translate(0,0)"></path>
<path d="M 893.215 1214.11 C 879.294 1210.21 867.978 1200.13 865.42 1184.98 C 864.903 1181.92 866.837 1180.29 868.742 1178.4 L 870.349 1178.51 C 877.055 1183.85 892.233 1200.12 895.324 1207.94 L 893.215 1214.11 z" fill="rgb(138,1,7)" transform="translate(0,0)"></path>
<path d="M 880.874 1277.07 L 878.461 1277.48 C 861.744 1272.42 853.783 1245.08 863.042 1238.77 C 867.703 1240.29 879.141 1263.93 882.411 1269.99 L 880.874 1277.07 z" fill="rgb(138,1,7)" transform="translate(0,0)"></path>
<path d="M 898.269 1202.92 C 907.226 1199.02 915.488 1195.47 924.186 1190.96 C 920.793 1208.3 917.215 1219.2 897.394 1220.71 L 895.611 1216.73 L 895.966 1214.58 C 897.917 1209.86 896.021 1205.42 898.269 1202.92 z" fill="rgb(138,1,7)" transform="translate(0,0)"></path>
<path d="M 885.201 1272.08 C 894.19 1269.79 906.911 1266.91 916.215 1266.69 C 908.747 1280.74 899.432 1291.82 881.839 1284.29 L 880.16 1284.66 L 879.463 1284.23 L 880.874 1277.07 L 882.411 1269.99 L 883.563 1269.76 L 885.201 1272.08 z" fill="rgb(138,1,7)" transform="translate(0,0)"></path>
<path d="M 808.952 1385.76 C 807.211 1384.46 804.566 1382.53 803.259 1380.86 C 796.658 1372.47 798.399 1353.3 806.842 1346.92 C 815.489 1346.39 814.907 1374.55 814.572 1380.82 C 812.47 1384.02 812.184 1383.9 808.952 1385.76 z" fill="rgb(138,1,7)" transform="translate(0,0)"></path>
<path d="M 877.772 1068.61 C 882.039 1062.92 890.251 1048.7 895.724 1047.3 C 903.518 1054.76 894.174 1077.97 884.204 1084.62 L 882.671 1085.23 L 879.314 1080.27 L 879.189 1079.23 C 878.747 1075.95 878.061 1071.82 877.772 1068.61 z" fill="rgb(138,1,7)" transform="translate(0,0)"></path>
<path d="M 897.774 1167.86 C 902.34 1163.88 918.065 1151.19 922.844 1158.13 C 923.692 1171.38 910.825 1182.41 897.871 1183.65 C 896.508 1180.17 896.339 1171.44 897.774 1167.86 z" fill="rgb(138,1,7)" transform="translate(0,0)"></path>
<path d="M 879.314 1080.27 C 872.532 1096.2 842.218 1079.99 844.406 1067.53 C 850.488 1062.14 874.485 1074.34 879.189 1079.23 L 879.314 1080.27 z" fill="rgb(138,1,7)" transform="translate(0,0)"></path>
<path d="M 1086.74 1379.78 C 1079.89 1377.71 1064.5 1369.82 1066.01 1361.41 L 1067.93 1360.26 C 1076.89 1359.78 1089.49 1366.71 1097.04 1371.27 L 1086.74 1379.78 z" fill="rgb(138,1,7)" transform="translate(0,0)"></path>
<path d="M 818.957 1003.92 C 824.25 1006.08 839.412 1011.86 843.674 1014.33 L 843.021 1018.49 C 834.839 1026.33 817.984 1016.4 810.648 1011.16 C 813.467 1008.55 815.868 1006.22 818.957 1003.92 z" fill="rgb(138,1,7)" transform="translate(0,0)"></path>
<path d="M 1098.03 1025.86 C 1104.53 1031.19 1108.93 1035.68 1114.16 1042.35 C 1108.17 1045.61 1094.93 1051.6 1088.75 1048.53 C 1088.42 1041.64 1095.2 1037.43 1098.09 1031.48 C 1098.07 1029.22 1098.05 1027.35 1098.03 1025.86 z" fill="rgb(138,1,7)" transform="translate(0,0)"></path>
<path d="M 1114.13 1328.21 C 1115.23 1337.31 1115.9 1344.01 1116.21 1353.14 C 1111.76 1359.99 1108.21 1363.82 1101.78 1368.97 C 1100.23 1365.44 1100.27 1365.54 1097.7 1362.64 C 1104.43 1347.85 1107.71 1347.88 1114.13 1328.21 z" fill="rgb(138,1,7)" transform="translate(0,0)"></path>
<path d="M 1085.59 1025.42 C 1086.74 1031.3 1090.4 1042.68 1082.92 1045.26 C 1076.9 1042.23 1075.74 1035.84 1074.46 1029.71 C 1079.4 1028.43 1080.96 1027.67 1085.59 1025.42 z" fill="rgb(138,1,7)" transform="translate(0,0)"></path>
<path d="M 851.54 1018.28 C 855.367 1019.94 859.693 1021.67 863.275 1023.73 C 863.938 1028.65 862.379 1036.33 863.026 1038.87 L 862.699 1040.11 L 855.873 1035.99 C 853.004 1028.63 852.516 1025.82 851.54 1018.28 z" fill="rgb(138,1,7)" transform="translate(0,0)"></path>
<path d="M 894.739 1149.65 L 897.069 1148.45 C 897.228 1152.72 898.177 1164.53 897.774 1167.86 C 896.339 1171.44 896.508 1180.17 897.871 1183.65 C 898.397 1190.83 898.422 1195.71 898.269 1202.92 C 896.021 1205.42 897.917 1209.86 895.966 1214.58 L 893.215 1214.11 L 895.324 1207.94 C 897.14 1204.06 896.189 1187.22 895.697 1182.39 C 894.961 1176.83 894.865 1175.67 895.492 1170.12 C 896.408 1164.01 895.313 1156 894.739 1149.65 z" fill="rgb(149,75,77)" transform="translate(0,0)"></path>
<path d="M 1090.05 1356.05 C 1093.29 1359.97 1094.14 1359.63 1097.7 1362.64 C 1100.27 1365.54 1100.23 1365.44 1101.78 1368.97 L 1097.04 1371.27 C 1095.69 1368.06 1091.08 1360.19 1089.2 1356.79 L 1090.05 1356.05 z" fill="rgb(138,1,7)" transform="translate(0,0)"></path>
<path d="M 838.9 1354.88 C 842.732 1349.04 847.613 1344.55 850.602 1338.18 L 851.734 1341.55 C 849.31 1345.19 844.53 1352.77 841.997 1355.89 L 838.9 1354.88 z" fill="rgb(161,35,34)" transform="translate(0,0)"></path>
<path d="M 865.791 1314.84 L 866.832 1315.29 C 865.796 1317.94 860.334 1329.95 860.097 1331.11 L 859.152 1331.35 C 857.403 1329.3 858.464 1329.98 855.712 1329.6 L 865.791 1314.84 z" fill="rgb(161,35,34)" transform="translate(0,0)"></path>
<path d="M 883.563 1269.76 C 885.224 1263.67 887.9 1256.04 889.852 1249.9 C 890.207 1250.91 890.972 1252.88 891.19 1253.84 C 888.963 1257.66 886.53 1267.42 885.201 1272.08 L 883.563 1269.76 z" fill="rgb(161,35,34)" transform="translate(0,0)"></path>
<path d="M 895.611 1216.73 L 897.394 1220.71 C 897.196 1226.67 896.059 1231.26 894.878 1237.07 L 893.921 1237.42 C 893.635 1232.21 895.001 1222.32 895.611 1216.73 z" fill="rgb(161,35,34)" transform="translate(0,0)"></path>
<path d="M 882.671 1085.23 L 884.204 1084.62 C 885.893 1088.84 887.261 1093.9 888.682 1097.35 L 885.715 1096.96 C 884.989 1092.7 883.895 1089.34 882.671 1085.23 z" fill="rgb(149,75,77)" transform="translate(0,0)"></path>
<path d="M 1064.27 1120.74 C 1072.28 1112.48 1074.3 1112.23 1085.31 1108.36 C 1084.25 1111.5 1078.34 1126.79 1078.02 1128.13 L 1078.56 1133.73 C 1074.59 1175.68 1061.27 1156.41 1054.49 1176.41 L 1054.03 1177.8 C 1054.46 1174.59 1054.62 1170.78 1054.84 1167.49 C 1035.92 1154.11 1033.81 1151.74 1035.66 1128.37 C 1046.25 1138.26 1051.22 1144.02 1056.67 1157.53 C 1057.15 1149.2 1059.12 1137.06 1060.16 1128.44 L 1061.66 1122.32 L 1064.27 1120.74 z" fill="rgb(138,1,7)" transform="translate(0,0)"></path>
<path d="M 1078.02 1128.13 L 1078.56 1133.73 C 1075.74 1137.84 1062.82 1148.7 1058.31 1152.85 C 1059.3 1147.01 1060.19 1142.61 1061.62 1136.85 C 1069.06 1134.58 1072.03 1132.62 1078.02 1128.13 z" fill="rgb(255,255,255)" transform="translate(0,0)"></path>
<path d="M 1066.39 1032.52 C 1073.07 1045.31 1076.67 1052.44 1078.56 1066.81 L 1082.91 1059.74 L 1082.79 1059.84 C 1090.57 1057.36 1099.53 1054.16 1107.22 1051.96 C 1103.84 1061.25 1102.07 1068.46 1092.41 1073.23 C 1085.94 1076.43 1080.63 1075.09 1076.2 1079.46 L 1074.47 1085.49 L 1074.03 1083.71 C 1074.76 1080.31 1075.28 1077.74 1076.35 1074.45 C 1058.43 1063.06 1057.33 1051.83 1066.39 1032.52 z" fill="rgb(138,1,7)" transform="translate(0,0)"></path>
<path d="M 1067.62 1100.37 L 1066.82 1101.49 C 1052.57 1107.63 1042.94 1071.3 1055.02 1065.12 C 1060.39 1067.79 1068.18 1092.33 1068.17 1098.66 C 1070.02 1095.24 1072.57 1087.66 1074.03 1083.71 L 1074.47 1085.49 L 1075.61 1086.66 C 1081.94 1084.11 1086.95 1081.84 1093.1 1078.87 C 1088.6 1092.9 1086.22 1105.93 1068.67 1105.71 L 1067.02 1103.88 L 1067.62 1100.37 z" fill="rgb(138,1,7)" transform="translate(0,0)"></path>
<path d="M 1089 1277.75 C 1096.78 1297.67 1094.01 1311.91 1076.55 1325.45 C 1075.67 1323.8 1073.77 1316.3 1072.87 1313.61 C 1068.54 1307.27 1068.04 1303.72 1066.9 1296.35 C 1068.55 1300.78 1070.51 1305.7 1071.97 1310.14 C 1077.7 1300.08 1084.94 1288.31 1089 1277.75 z" fill="rgb(138,1,7)" transform="translate(0,0)"></path>
<path d="M 860.398 1118.36 C 868.465 1119.34 883.116 1129.65 888.84 1135.79 C 893.253 1140.52 892.949 1142.31 892.93 1148.44 C 876.36 1145.64 859.152 1138.2 860.398 1118.36 z" fill="rgb(138,1,7)" transform="translate(0,0)"></path>
<path d="M 1063.34 1275.02 C 1069.41 1270.49 1077.53 1254.98 1081.68 1255.43 C 1088.67 1269.02 1078.63 1287.51 1066.89 1295.48 C 1064.28 1292.15 1064.47 1291.3 1063.86 1286.91 C 1064.14 1283.93 1063.25 1281.34 1062.55 1278.4 L 1063.34 1275.02 z" fill="rgb(138,1,7)" transform="translate(0,0)"></path>
<path d="M 1041.59 1300.05 C 1049.62 1303.88 1067.43 1309.82 1072.87 1313.61 C 1073.77 1316.3 1075.67 1323.8 1076.55 1325.45 C 1054.92 1328.12 1047.92 1319.5 1041.59 1300.05 z" fill="rgb(138,1,7)" transform="translate(0,0)"></path>
<path d="M 1057.46 1246.56 C 1066.19 1236.51 1070.03 1233.48 1076.34 1221.32 C 1079.32 1241.05 1079.63 1253.2 1059.92 1263.69 C 1058.27 1259.66 1057.77 1251.07 1057.46 1246.56 z" fill="rgb(138,1,7)" transform="translate(0,0)"></path>
<path d="M 1035.59 1265.68 C 1043.64 1273.32 1058.18 1279.8 1063.86 1286.91 C 1064.47 1291.3 1064.28 1292.15 1066.89 1295.48 L 1066.9 1296.35 C 1043.54 1298.58 1038.86 1285.25 1035.59 1265.68 z" fill="rgb(138,1,7)" transform="translate(0,0)"></path>
<path d="M 1053.17 1229.94 C 1045.56 1228.65 1039.07 1226.48 1034.9 1219.3 C 1031.71 1213.81 1028.84 1204.63 1030.36 1198.28 L 1031.68 1197.67 C 1037.77 1200.93 1046.72 1210.7 1051.65 1215.93 C 1053.69 1218.64 1054.21 1226.56 1053.17 1229.94 z" fill="rgb(138,1,7)" transform="translate(0,0)"></path>
<path d="M 1031.45 1229.9 C 1038.18 1237.51 1047.75 1243.69 1055.86 1250.81 C 1055.96 1255.57 1056.76 1260.29 1058.24 1264.82 C 1036.04 1258.07 1032.57 1252.88 1031.45 1229.9 z" fill="rgb(138,1,7)" transform="translate(0,0)"></path>
<path d="M 1042.11 1100.12 L 1043.76 1096.48 C 1050.82 1097.95 1060.43 1120.72 1060.16 1128.44 C 1057.62 1132.09 1059.25 1131.04 1055.44 1132.19 C 1044.07 1129.38 1039.39 1110.55 1042.11 1100.12 z" fill="rgb(138,1,7)" transform="translate(0,0)"></path>
<path d="M 1054.76 1220.21 C 1056.73 1208.2 1065.88 1202.26 1075.21 1193.26 C 1075.56 1213.58 1076.24 1220.04 1056.78 1229.61 C 1055.22 1226.96 1055.15 1223.39 1054.76 1220.21 z" fill="rgb(138,1,7)" transform="translate(0,0)"></path>
<path d="M 1052.9 1197.93 C 1036.79 1192.49 1028.21 1179.77 1032.19 1162.75 L 1033.14 1162.68 C 1038.15 1166.81 1050.62 1180.25 1053.17 1185.8 C 1053.11 1188.16 1053.2 1196.29 1052.9 1197.93 z" fill="rgb(138,1,7)" transform="translate(0,0)"></path>
<path d="M 1054.73 1184.43 C 1056.56 1179.74 1070.87 1168.99 1075.8 1163.83 C 1075.21 1172.73 1075.11 1178.78 1072.22 1187.3 C 1066.4 1192.62 1062.7 1194.94 1055.32 1197.9 C 1055.08 1193.41 1054.89 1188.92 1054.73 1184.43 z" fill="rgb(138,1,7)" transform="translate(0,0)"></path>
<path d="M 823.635 1026.86 C 829.459 1027.11 854.95 1027.44 853.441 1036.45 L 850.794 1038.27 C 842.108 1039.94 827.859 1041.35 821.766 1033.61 C 821.371 1029.83 821.597 1030.87 823.635 1026.86 z" fill="rgb(138,1,7)" transform="translate(0,0)"></path>
<path d="M 1054.73 1184.43 C 1054.89 1188.92 1055.08 1193.41 1055.32 1197.9 C 1052.88 1200.21 1054.29 1216.19 1054.76 1220.21 C 1055.15 1223.39 1055.22 1226.96 1056.78 1229.61 L 1055.26 1230.58 C 1055.25 1236.45 1057.08 1240.61 1057.46 1246.56 C 1057.77 1251.07 1058.27 1259.66 1059.92 1263.69 C 1061.01 1268.37 1061.57 1270.57 1063.34 1275.02 L 1062.55 1278.4 C 1061.19 1272.64 1060.33 1270.22 1058.24 1264.82 C 1056.76 1260.29 1055.96 1255.57 1055.86 1250.81 L 1056.43 1249.88 C 1054.61 1245.31 1053.54 1234.95 1053.17 1229.94 C 1054.21 1226.56 1053.69 1218.64 1051.65 1215.93 C 1051.8 1209.99 1051.73 1203.72 1052.9 1197.93 C 1053.2 1196.29 1053.11 1188.16 1053.17 1185.8 L 1054.73 1184.43 z" fill="rgb(179,129,132)" transform="translate(0,0)"></path>
<path d="M 1067.02 1103.88 L 1068.67 1105.71 C 1065.84 1108.18 1064.2 1116.95 1064.27 1120.74 L 1061.66 1122.32 C 1062.37 1115.78 1063.95 1109.73 1067.02 1103.88 z" fill="rgb(149,75,77)" transform="translate(0,0)"></path>
<path d="M 932.036 780.925 C 937.635 784.854 952.636 824.756 955.213 833.44 C 934.737 844.644 907.664 863.357 887.065 876.162 C 867.6 888.261 834.801 907.918 817.469 921.561 C 835.922 936.371 856.322 950.774 873.982 965.565 C 857.439 970.707 842.064 977.948 826.2 984.878 C 822.4 980.536 808.192 968.781 802.671 964.531 C 774.872 943.131 758.566 922.179 746.717 888.535 C 762.64 874.209 780.904 863.81 798.539 852 C 840.376 823.983 885.734 800.868 932.036 780.925 z" fill="rgb(255,255,255)" transform="translate(0,0)"></path>
<path d="M 1127.58 731.438 C 1134.61 731.061 1142.5 731.67 1149.59 732.046 C 1150.6 733.519 1151.59 734.998 1152.58 736.481 C 1178.4 775.277 1190.05 817.29 1180.48 863.633 C 1168.19 923.106 1139.11 960.053 1089.27 992.624 C 1083.91 988.751 1080.29 986.868 1074.48 983.74 C 1068.08 981.008 1047.82 974.214 1044.95 969.078 C 1045.6 967.796 1074.6 948.689 1078.64 945.398 C 1110.44 919.944 1130.77 882.849 1135.11 842.345 C 1139.41 798.067 1126.44 766.268 1098.87 733.018 L 1127.58 731.438 z" fill="rgb(255,255,255)" transform="translate(0,0)"></path>
<path d="M 926.572 966.398 C 951.738 962.33 1017.35 973.933 1042.37 983.521 C 1055.27 988.469 1067.64 995.557 1078.84 1003.58 C 1048.23 1015.85 1025.04 1021.89 992.239 1025.53 C 954.586 1034.51 876.121 1010.84 841.052 992.194 C 868.29 978.944 896.331 969.452 926.572 966.398 z" fill="rgb(255,255,255)" transform="translate(0,0)"></path>
<path d="M 400.924 1336.01 L 401.497 1337.05 L 401.075 1338.15 C 382.915 1385.74 376.399 1439.7 388.65 1489.91 C 391.761 1502.67 399.848 1519.54 405.334 1531.78 C 394.71 1532.04 383.842 1531.63 373.2 1531.38 L 358.993 1531.09 C 340.137 1443.35 344.832 1406.36 400.924 1336.01 z" fill="rgb(255,255,255)" transform="translate(0,0)"></path>
<path d="M 1361.08 1258.87 C 1375.13 1268.86 1379.93 1284.68 1387.15 1297.74 L 1387.57 1298.49 C 1375.69 1315.88 1365.58 1337.56 1355.67 1356.48 L 1354.27 1356.37 L 1353 1352.89 C 1344.95 1331.03 1335.63 1317.59 1319.86 1300.79 L 1361.08 1258.87 z" fill="rgb(255,255,255)" transform="translate(0,0)"></path>
<path d="M 1495.8 1107.91 C 1494.28 1116.64 1440.21 1213.75 1432.32 1224.84 L 1424.5 1214.09 C 1421.22 1210.5 1417.33 1206.76 1413.87 1203.28 C 1442.43 1170.28 1468.06 1142.43 1495.8 1107.91 z" fill="rgb(255,255,255)" transform="translate(0,0)"></path>
<path d="M 1402.07 1214.56 C 1408.27 1217.06 1418.61 1234.31 1421.97 1240.34 C 1420.15 1245.35 1402.06 1278.73 1399.19 1281.18 L 1397.19 1279.53 C 1387.89 1266.28 1382.99 1258.99 1371.3 1247.6 C 1381.78 1234.47 1390.13 1225.96 1402.07 1214.56 z" fill="rgb(255,255,255)" transform="translate(0,0)"></path>
<path d="M 956.561 853.5 C 966.629 850.102 977.535 855.571 980.834 865.671 C 984.134 875.771 978.56 886.623 968.428 889.824 C 958.435 892.981 947.763 887.5 944.509 877.538 C 941.254 867.576 946.631 856.852 956.561 853.5 z" fill="rgb(255,255,255)" transform="translate(0,0)"></path>
<path d="M 1168.53 120.141 C 1186.47 118.193 1219.29 123.838 1237.24 128.217 C 1273.83 137.522 1309.26 150.869 1342.9 168.012 C 1468.06 232.403 1613.65 368.731 1687.06 489.712 C 1670.02 476.816 1650.61 464.743 1632.98 451.966 C 1513.99 365.693 1387.68 282.616 1241.17 253.369 C 1234.27 251.993 1212.55 248.454 1206.36 250.003 C 1181.7 256.168 1139.53 273.536 1117.59 282.295 C 1040.72 313.232 966.017 349.274 893.965 390.18 C 788.862 451.23 676.723 533.806 577.444 604.64 C 487.979 669.676 396.277 731.577 302.505 790.232 C 251.013 822.487 200.617 854.698 146.464 882.506 C 134.242 888.783 121.688 894.371 109.795 901.228 C 127.567 880.918 152.949 859.613 172.684 840.65 C 299.244 719.037 421.778 590.976 554.168 475.779 C 689.633 357.906 836.731 259.255 1000.16 184.758 C 1037.88 167.384 1076.31 151.557 1115.33 137.316 C 1132.84 130.978 1150.41 124.438 1168.53 120.141 z" fill="rgb(7,14,46)" transform="translate(0,0)"></path>
<path d="M 1271.55 556.446 C 1486.91 550.322 1736.1 609.705 1923.71 716.803 C 1900.68 711.639 1877.06 703.244 1854.37 696.426 C 1812.89 683.966 1770.83 669.596 1729.18 657.992 C 1567.03 612.527 1398.91 592.008 1230.58 597.138 C 1054.75 604.125 861.081 676.714 718.206 778.309 C 657.88 821.205 604.627 870.6 554.559 924.898 C 521.556 958.209 487.052 1001.33 457.641 1038.02 C 403.585 1104.98 352.276 1174.12 303.84 1245.25 C 287.7 1269.03 271.816 1292.99 256.193 1317.11 C 246.002 1333.02 233.223 1354.48 222.376 1369.26 C 237.82 1332.37 264.533 1283.23 283.916 1247.93 C 357.175 1114.52 441.729 974.421 546.678 863.487 C 629.4 777.829 735.754 705.57 845.106 658.021 C 975.942 601.129 1129.28 561.258 1271.55 556.446 z" fill="rgb(7,14,46)" transform="translate(0,0)"></path>
<path d="M 1591.07 1313.5 C 1594.5 1319.2 1594.36 1346.16 1594.44 1353.81 C 1595.57 1424.01 1580.62 1493.54 1550.71 1557.07 C 1491.95 1684.58 1357.77 1789.81 1234.03 1850.28 C 1205.26 1864.34 1174.52 1875.79 1144.49 1886.86 L 1143.75 1886.74 C 1143.99 1886.24 1200.13 1847.5 1206.08 1843.56 C 1359.11 1742.29 1490.03 1609.07 1558.5 1436.22 C 1562.38 1426.42 1564.85 1414.93 1568.62 1405.72 C 1580.15 1377.55 1582.09 1340.85 1591.07 1313.5 z" fill="rgb(7,14,46)" transform="translate(0,0)"></path>
<metadata><recraft-signature>{"signed_by": "recraft", "signature_b64": "chrPr9MINRjMRArnk6BQ36QvGVCHh5nAXMgrs+aNutBsBgK5LwzTwRnedQUoeZ/g/XazQxptU78JqU3M4vsQCA==", "signing_algo": "Ed25519", "generation_timestamp": 1777331478, "identifier": "6093e4c9-4d49-43fc-ab5a-e891074036d8"}</recraft-signature></metadata></svg>