<svg xmlns="http://www.w3.org/2000/svg" height="1024" preserveAspectRatio="none" style="display: block;" version="1.1" viewBox="0 0 2048 2048" width="1024">
<path d="M 0 0 L 2048 0 L 2048 2048 L 0 2048 L 0 0 z" fill="rgb(255,255,255)" transform="translate(0,0)"></path>
<path d="M 266.542 827.036 C 281.894 805.607 306.511 780.212 323.843 759.073 C 377.271 693.844 431.996 629.849 490.281 568.888 C 524.526 533.071 572.584 474.557 617.204 536.844 C 644.317 529.12 682.286 528.672 708.691 539.66 C 740.236 552.788 747.809 586.3 759.175 614.724 C 776.017 618.794 794.179 626.039 810.647 631.124 C 822.77 635.517 827.988 645.658 817.8 655.462 C 799.303 673.263 774.637 680.639 750.378 686.308 C 753.5 690.656 756.724 694.929 760.047 699.125 C 758.263 711.126 751.115 728.371 751.599 737.689 C 751.865 742.806 771.553 750.298 777.209 753.812 C 801.546 768.933 844.432 790.226 861.357 812.368 C 883.35 841.141 879.024 879.712 887.994 909.529 C 891.628 921.606 911.477 955.673 918.226 970.168 C 938.021 1012.76 953.464 1058.93 963.998 1104.72 C 967.946 1121.88 963.797 1139.25 973.582 1158.15 C 976.122 1163.06 974.928 1192.64 980.515 1197.91 C 1002.92 1219.03 1029.79 1234.39 1054.08 1253.29 C 1123.75 1304.84 1199.03 1358.89 1258.59 1422.39 C 1261.46 1425.45 1271.54 1466.45 1273.16 1471.93 L 1307.71 1585.46 C 1304.92 1596.21 1300.68 1608.3 1297.2 1618.96 C 1307.3 1648.78 1316.56 1679.19 1326.66 1708.7 L 1330.71 1721.57 C 1339.44 1748.04 1349.67 1778.98 1360.19 1804.77 C 1368.81 1810.63 1376.55 1813.63 1381.88 1822.53 C 1406.5 1829.33 1418.55 1842.44 1435 1861.39 C 1439.25 1862.71 1445.71 1881.58 1445.49 1881.46 C 1489.7 1906.8 1537.9 1890.73 1530.24 1958.36 C 1473.03 1960.73 1414.92 1957.76 1357.65 1958.14 C 1347.44 1958.21 1343.74 1948.13 1334.18 1949.26 C 1330.69 1951.57 1329.41 1954.8 1327.3 1958.54 C 1300.79 1958.34 1274.28 1958.01 1247.77 1957.54 C 1235.43 1927.6 1241.07 1886.6 1251.98 1856.66 C 1254.77 1849.01 1257.6 1844.67 1264.75 1840.58 C 1242.95 1796.75 1220.6 1754.49 1196.23 1712.02 C 1186.94 1695.84 1175.7 1672.34 1164.87 1657.79 C 1155.81 1645.64 1114.45 1624.93 1107.81 1611.88 C 1096.74 1590.11 1090.99 1557.56 1080.7 1534.17 L 1080.18 1533.04 C 1067.55 1525.71 1042.71 1515.32 1028.61 1508.74 C 979.517 1485.82 926.242 1464.83 877.962 1440.66 C 872.726 1450.46 868.235 1462.55 863.732 1472.94 C 854.682 1493.83 846.258 1515.21 836.964 1535.97 C 810.43 1594.28 781.606 1651.51 750.559 1707.55 C 745.584 1716.47 736.196 1737.26 728.938 1742.95 C 719.178 1750.59 568.728 1795.5 550.796 1796.91 C 538.451 1797.89 525.173 1790.01 512.572 1789.18 C 474.324 1786.68 372.468 1819.1 343.643 1843.15 L 343.035 1845.02 C 339.576 1855.92 336.561 1859.03 325.641 1853.88 L 323.873 1853.03 L 322.797 1854.27 C 322.795 1861.03 325.624 1870.61 327.247 1877.44 L 326.273 1876.56 C 333.507 1882.78 330.115 1881.98 330.602 1888.49 C 331.713 1900.9 358.189 1905.18 364.05 1913.75 C 372.471 1926.07 372.319 1945.21 360.996 1955.26 C 344.706 1956.08 321.476 1955.88 304.884 1955.75 C 285.197 1955.58 250.683 1957.65 232.844 1953.29 C 204.03 1945.04 206.548 1913.98 195.804 1893.52 C 184.507 1872.01 166.391 1860.74 175.839 1832.92 C 183.207 1811.23 204.745 1795.12 221.79 1781.21 C 234.401 1769.98 252.121 1770.89 265.496 1762.91 C 310.471 1736.08 353.451 1707.18 400.334 1683.53 C 416.758 1675.25 432.67 1664.47 449.394 1655.94 C 449.497 1650.62 449.189 1635.6 452.444 1631.9 C 467.816 1617.68 501.394 1612.42 521.494 1606.95 C 546.803 1600.06 547.28 1604.14 566.816 1583.81 C 563.165 1550.52 570.68 1554.59 599.276 1546.24 C 598.238 1457.43 599.804 1368.51 609.468 1280.13 C 610.855 1267.41 612.714 1254.75 615.04 1242.18 C 618.192 1224.45 626.843 1196.08 623.343 1177.21 C 622.648 1173.46 616.257 1170.62 612.687 1168.7 C 603.888 1144.36 589.266 1102.46 575.107 1082.61 C 573.27 1087.55 567.777 1103.8 567.602 1108.4 C 566.754 1130.71 562.584 1139.36 552.5 1158.97 C 531.923 1155.83 525.006 1155.75 504.549 1149.21 C 489.1 1168.49 440.137 1212.33 413.02 1197.9 C 371.735 1175.95 332.832 1133.91 309.637 1093.48 C 300.365 1077.32 291.75 1055.3 285.08 1037.67 C 273.878 1032.9 258.001 1027.96 245.453 1022.9 C 219.514 1029.66 197.568 1030.39 177.393 1009.9 C 175.057 1030.41 154.498 1034.18 138.532 1025.01 C 115.841 1011.97 94.0841 977.1 109.543 951.907 C 115.754 941.787 136.398 932.346 144.994 921.948 C 147.343 919.179 159.158 912.747 162.975 910.028 C 168.37 906.186 176.088 901.074 182.473 899.739 C 188.27 883.343 211.535 852.002 226.898 842.99 C 225.747 821.689 251.988 826.695 266.542 827.036 z" fill="rgb(20,21,50)" transform="translate(0,0)"></path>
<path d="M 670.087 1216.37 C 697.488 1219.9 726.614 1221.23 754.251 1222.72 C 754.834 1225.44 755.336 1230.03 755.751 1232.93 C 736.941 1232.02 718.159 1230.62 699.422 1228.73 C 727.982 1238.09 782.494 1240.38 812.999 1238.35 C 832.647 1237.04 852.642 1233.75 873.467 1232.58 L 873.422 1231.56 C 866.78 1228.22 821.072 1235.14 810.402 1233.71 C 808.915 1233.51 809.055 1232.93 807.834 1231.18 C 807.516 1226.89 806.939 1228.67 808.812 1225.48 C 823.018 1223.95 838.762 1220.22 850.394 1219.1 C 858.205 1230.35 865.784 1222.79 878.637 1225.85 C 876.81 1234.5 881.976 1243.98 884.014 1252.77 C 888.094 1270.93 891.375 1289.26 893.845 1307.71 C 895.044 1316.5 898.215 1339.08 895.762 1346.4 C 888.448 1368.21 877.452 1392.32 868.876 1413.6 C 833.253 1501.99 793.841 1587.98 748.84 1671.99 C 742.189 1684.4 723.77 1720.25 716.353 1730.01 C 711.088 1732.24 705.719 1734.17 700.305 1736.01 C 651.205 1752.66 600.591 1764.29 551.253 1780.17 C 541.663 1777.86 527.914 1772.93 518.184 1769.75 C 510.452 1761.03 504.355 1752.63 498.128 1742.81 C 519.395 1740.06 540.638 1737.14 561.855 1734.04 C 572.593 1732.5 590.93 1730.34 600.649 1727.08 C 568.433 1726.05 535.568 1729.95 502.775 1727.33 C 467.073 1724.48 461.907 1722.31 463.989 1684.7 C 464.562 1674.33 465.173 1663.17 466.235 1652.6 C 478.005 1657.86 491.767 1666.79 504.271 1672.61 C 529.94 1684.56 556.088 1692.66 583.787 1697.98 C 610.425 1703.32 649.741 1708.56 676.56 1707.22 C 669.219 1705.33 658.87 1704.38 651.225 1703.16 C 601.11 1695.2 551.634 1680.92 505.5 1659.68 C 494.132 1654.45 476.705 1648.21 466.933 1640.5 C 467.813 1637.35 476.269 1635.86 479.476 1634.81 C 504.232 1626.69 535.092 1625.75 558.012 1615.24 C 565.067 1612 578.998 1599.91 585.309 1594.65 C 591.92 1598.84 594.484 1600.76 600.406 1605.88 C 590.677 1615.49 582.555 1625.38 574.366 1636.28 C 598.074 1638.89 637.879 1648.52 660.755 1654.44 C 639.567 1627.72 606.126 1594.95 581.666 1570.93 C 630.996 1558.52 645.271 1543.66 680.236 1508.57 C 712.27 1476.43 742.816 1443.59 772.597 1409.25 C 793.078 1385.63 815.363 1362.89 835.225 1338.81 C 828.906 1343.47 822.774 1348.85 816.794 1353.96 C 795.243 1372.37 773.216 1390.38 752.65 1409.9 C 718.843 1442 684.07 1472.63 651.131 1505.64 C 650.52 1469.71 647.362 1434.44 648.59 1398.35 C 650.22 1350.47 651.299 1301.93 660.613 1254.76 C 662.832 1243.52 665.754 1226.65 670.087 1216.37 z" fill="rgb(255,255,255)" transform="translate(0,0)"></path>
<path d="M 988.95 1229.3 C 1016.46 1246.75 1037.1 1262.69 1069.77 1286.48 C 1125.21 1326.85 1194.08 1380.85 1242.12 1431.22 C 1248.22 1437.61 1258.4 1488.01 1263.64 1499 C 1272.64 1528.58 1282.98 1557.64 1289.99 1587.26 C 1287.94 1591.77 1285.75 1596.85 1283.61 1601.27 C 1259.54 1595.89 1245.94 1592.23 1220.93 1596.68 C 1232.31 1585.19 1248.74 1569.34 1258.21 1557 C 1233.33 1575.24 1204.18 1596.64 1182.7 1618.44 C 1171.45 1609.47 1157.44 1600.34 1147.82 1589.74 C 1137.73 1578.61 1119.62 1526.08 1113.82 1509.11 C 1106 1502.78 1094.9 1496.89 1086.32 1491.34 C 1061.66 1475.37 1035.87 1462.26 1010.72 1447.15 C 1040.56 1453.01 1069.81 1459.62 1100 1464.1 C 1111.64 1465.82 1124.32 1468.71 1135.93 1469.96 C 1124.63 1464.93 1110.53 1460.67 1098.69 1456.56 C 1071.24 1447.02 1044.24 1438.79 1015.86 1432.46 C 988.653 1426.39 958.305 1421.62 931.571 1414.2 C 988.831 1399.76 1058.22 1382.95 1116.22 1380.52 C 1118.46 1379.36 1125.34 1380.25 1131.19 1378.26 L 1130.34 1376.33 C 1056.38 1366.53 993.045 1375.66 920.379 1389.88 C 934.554 1377.06 950.143 1367.23 965.078 1355.54 C 990.48 1335.65 1016.5 1314.74 1039.58 1292.24 C 1003.88 1311.91 951.344 1344.4 918.485 1367.4 C 915.872 1362.52 913.635 1359.8 910.3 1355.48 C 934.571 1334.97 997.862 1267.97 1013.3 1242.86 C 991.472 1262.87 969.01 1282.1 946.909 1301.8 C 942.141 1306.05 936.651 1311.91 931.265 1315 L 930.569 1313.94 L 932.269 1310.06 C 957.276 1284.76 971.823 1259.94 988.95 1229.3 z" fill="rgb(255,255,255)" transform="translate(0,0)"></path>
<path d="M 1130.34 1376.33 C 1138.4 1377.57 1146.43 1378.98 1154.43 1380.57 C 1141.7 1381.01 1128.95 1380.99 1116.22 1380.52 C 1118.46 1379.36 1125.34 1380.25 1131.19 1378.26 L 1130.34 1376.33 z" fill="rgb(84,13,46)" transform="translate(0,0)"></path>
<path d="M 526.961 663.838 C 530.605 667.481 537.871 703.428 541.878 710.604 C 553.97 732.262 560.079 745.723 563.463 770.706 C 552.465 779.095 538.705 787.241 527.348 795.426 C 482.949 827.423 450.537 851.246 427.271 903.032 C 417.323 925.174 409.563 947.245 400.205 968.645 C 374.682 970.189 352.129 968.558 326.754 966.834 C 321.443 966.53 315.991 965.688 310.7 964.987 C 316.312 947.524 323.445 924.975 327.245 907.095 C 331.14 888.769 316.159 869.674 305.505 855.509 C 314.439 848.294 324.147 838.985 332.939 831.203 C 347.408 818.556 361.963 806.007 376.602 793.557 C 426.132 751.298 478.787 707.464 526.961 663.838 z" fill="rgb(255,255,255)" transform="translate(0,0)"></path>
<path d="M 788.714 778.433 C 826.355 800.38 853.032 815.121 865.684 859.897 C 870.618 877.361 868.586 902.276 873.283 915.576 C 882.851 942.666 899.744 969.784 910.09 997.403 C 888.475 982.97 871.204 973.582 846.859 963.995 C 855.627 940.925 861.556 924.567 864.954 899.452 C 836.82 953.978 798.364 990.943 762.587 1040.82 C 735.305 997.218 700.152 956.142 653.343 932.895 C 673.975 933.592 694.089 936.597 714.761 934.138 C 761.016 928.636 804.727 919.067 841.256 888.897 C 787.553 913.081 685.746 931.627 627.058 921.33 C 642.917 907.688 660.06 894.981 676.57 881.343 C 706.488 856.629 738.365 827.924 773.398 810.611 C 783.437 805.649 804.923 802.696 816.428 800.87 C 780.404 793.686 757.926 803.042 729.286 825.138 L 727.926 824.282 C 751.452 803.504 757.819 785.583 788.714 778.433 z" fill="rgb(255,255,255)" transform="translate(0,0)"></path>
<path d="M 577.675 954.005 C 596.63 963.797 639.122 1002.24 653.368 1018.75 C 584.247 1034.08 509.45 1039.15 439.479 1024.71 C 397.767 1016.1 360.857 1002.34 316.847 996.787 C 332.864 1003 354.805 1008.94 371.615 1014.4 C 402.705 1024.51 443.813 1036.5 476.004 1041.15 C 533.826 1049.51 601.044 1040.32 656.27 1022.08 L 665.722 1029.99 C 627.893 1038.02 589.929 1050.52 552.056 1059.17 C 542.912 1061.26 523.049 1072.1 515.447 1072.82 C 449.166 1079.09 379.818 1060.85 318.887 1036.23 C 307.628 1031.68 243.808 1008.09 240.657 1004.92 L 240.371 1005.01 L 238.681 1006.59 C 232.843 1003.98 231.072 995.475 234.288 991.005 C 242.534 979.547 267.144 976.918 279.636 973.132 C 309.75 980.012 347.28 986.804 377.889 985.164 C 415.356 983.157 453.383 970.712 487.525 993.935 C 491.987 996.97 501.608 1005.98 505.986 1006.99 C 507.947 1002.36 501.85 995.297 498.852 991.85 C 525.201 979.686 551.385 965.581 577.675 954.005 z" fill="rgb(255,255,255)" transform="translate(0,0)"></path>
<path d="M 240.371 1005.01 C 239.4 1000.04 238.99 997.071 241.606 992.551 L 243.067 992.332 C 244.24 995.819 241.916 1001.31 240.657 1004.92 L 240.371 1005.01 z" fill="rgb(26,27,34)" transform="translate(0,0)"></path>
<path d="M 649.476 546.411 C 671.01 544.164 705.713 548.479 720.346 566.562 C 733.544 582.87 739.406 607.143 746.937 626.669 C 703.511 643.669 678.006 661.45 630.826 665.596 C 603.11 668.669 574.262 669.175 545.199 672.348 C 534.089 624.381 541.712 577.662 592.086 560.913 C 599.472 558.457 609.659 554.24 617.175 553.127 C 620.199 554.67 619.987 555.054 623.082 554.873 C 622.943 552.457 622.831 553.311 623.532 550.943 C 630.121 547.25 641.598 547.068 649.476 546.411 z" fill="rgb(255,255,255)" transform="translate(0,0)"></path>
<path d="M 559.932 790.953 C 560.366 800.808 560.061 814.748 561.263 824.031 C 565.386 855.869 592.833 893.602 614.218 916.696 C 604.568 924.024 595.671 930.972 584.572 935.979 C 566.268 944.237 548.244 952.472 530.472 961.853 C 509.784 922.661 512.096 894.813 524.531 854.374 C 507.834 877.981 495.756 914.618 503.828 943.277 C 505.734 950.048 511.041 959.951 513.739 967.041 L 512.553 969.251 L 496.738 977.413 C 480.775 950.483 472.621 932.202 469.703 901.32 C 467.563 937.057 462.889 938.504 479.29 974.283 C 454.277 966.102 443.334 965.507 417.775 966.309 C 421.933 953.17 428.496 938.786 433.687 926.097 C 453.759 877.032 470.526 856.672 511.689 825.619 C 527.396 813.552 543.485 801.991 559.932 790.953 z" fill="rgb(255,255,255)" transform="translate(0,0)"></path>
<path d="M 392.031 731.388 C 375.357 744.255 366.817 754.208 352.158 769.076 C 339.019 782.411 325.808 795.673 312.524 808.863 C 305.95 815.461 290.453 835.782 281.09 833.143 L 280.71 832.255 C 289.71 819.485 317.142 792.348 329.234 777.897 C 382.564 714.165 436.922 650.027 493.975 589.612 C 511.822 572.031 528.277 550.72 547.631 534.947 C 565.167 520.656 586.931 525.34 599.719 542.856 C 555.736 557.036 539.214 568.901 526.474 614.123 C 512.904 626.044 490.979 647.332 479.072 660.682 C 481.487 659.167 482.465 658.463 485.117 657.35 L 485.871 658.443 C 484.085 661.372 480.59 665.334 479.359 667.554 C 478.011 671.291 462.037 687.274 458.206 691.278 C 454.084 695.381 450.276 699.09 446.506 703.532 L 447.794 702.725 C 461.842 693.797 518.953 643.033 526.234 640.376 C 523.622 649.369 438.632 720.716 426.727 730.725 C 395.907 756.638 364.901 786.594 334.499 812.87 L 332.968 810.886 C 363.439 783.573 397.517 752.4 427.145 724.146 C 412.924 730.939 405.438 734.568 394.783 746.015 L 393.71 744.609 C 397.7 739.378 402.934 733.005 405.793 727.254 C 407.797 725.735 407.272 724.571 407.814 721.164 C 403.306 724.95 398.9 728.711 394.231 732.303 L 392.031 731.388 z" fill="rgb(255,255,255)" transform="translate(0,0)"></path>
<path d="M 479.072 660.682 C 481.487 659.167 482.465 658.463 485.117 657.35 L 485.871 658.443 C 484.085 661.372 480.59 665.334 479.359 667.554 C 478.011 671.291 462.037 687.274 458.206 691.278 L 456.642 689.468 C 451.463 695.211 432.289 713.627 425.977 716.661 C 425.996 716.587 474.311 664.83 479.072 660.682 z" fill="rgb(14,13,40)" transform="translate(0,0)"></path>
<path d="M 479.359 667.554 C 478.011 671.291 462.037 687.274 458.206 691.278 L 456.642 689.468 C 461.583 682.677 472.695 673.35 479.359 667.554 z" fill="rgb(194,194,204)" transform="translate(0,0)"></path>
<path d="M 392.031 731.388 C 397.271 727.067 402.031 723.185 407.501 719.16 L 408.601 719.379 L 407.814 721.164 C 403.306 724.95 398.9 728.711 394.231 732.303 L 392.031 731.388 z" fill="rgb(26,27,34)" transform="translate(0,0)"></path>
<path d="M 558.509 693.451 C 560.499 682.657 566.153 684.343 575.493 683.487 C 588.597 690.11 588.737 691.248 602.867 691.91 C 614.895 707.484 620.46 708.593 640.226 711.862 C 658.35 714.86 683.876 712.894 700.134 720.281 C 705.092 722.533 713.343 733.768 719.92 736.966 C 726.72 740.272 732.512 737.106 736.954 740.755 C 741.026 751.673 707.817 755.845 702.086 761.486 C 702.067 761.504 698.999 763.339 698.89 763.406 C 723.851 762.185 722.34 760.187 741.924 748.272 C 740.764 755.228 739.712 761.058 738.085 767.907 L 726.501 771.015 C 729.768 773.766 733.349 776.653 736.469 779.525 C 725.491 811.31 707.8 800.474 680.558 797.09 C 651.176 793.439 607.628 781.371 606.995 744.943 C 606.888 740.656 606.395 733.881 603.027 731.001 C 598.514 737.547 599.1 747.237 587.422 741.345 C 570.11 732.61 556.894 718.609 558.043 697.924 C 557.422 695.095 557.542 696.53 558.509 693.451 z" fill="rgb(255,255,255)" transform="translate(0,0)"></path>
<path d="M 558.509 693.451 C 565.316 691.969 564.983 687.083 573.496 689.074 C 578.676 690.285 583.353 692.342 588.31 693.728 C 594.726 705.336 594.794 704.741 593.797 717.87 C 593.713 718.971 598.597 728.113 599.607 730.017 C 598.44 729.857 585.031 727.894 584.535 728.07 C 579.642 729.81 583.754 731.543 577.548 727.816 L 577.765 727.016 L 581.205 725.778 C 576.728 718.496 568.213 713.875 569.251 704.078 C 569.447 702.23 575.185 700.802 576.831 700.302 L 577.302 699.137 C 573.733 694.691 570.14 694.074 565.469 697.317 C 561.226 704.334 566.461 713.812 569.34 720.848 C 560.207 711.146 562.011 703.326 558.043 697.924 C 557.422 695.095 557.542 696.53 558.509 693.451 z" fill="rgb(14,13,40)" transform="translate(0,0)"></path>
<path d="M 305.019 1045.24 C 310.818 1047.07 320.741 1051.48 326.672 1053.89 C 337.509 1086.48 346.323 1104.59 365.444 1132.74 C 363.512 1127.08 357.486 1114.25 354.761 1108.26 C 346.677 1090.51 341.567 1077.21 336.954 1058.19 C 366.049 1069.35 385.757 1075.39 415.717 1082.78 C 429.517 1101.45 432.257 1108.21 450.724 1123.24 C 461.891 1131.83 473.472 1138.93 485.511 1146.15 C 468.063 1164.45 449.775 1178.49 425.158 1185.24 C 378.197 1166.86 320.057 1093.04 305.019 1045.24 z" fill="rgb(255,255,255)" transform="translate(0,0)"></path>
<path d="M 786.275 1046.73 C 787.792 1046.73 789.2 1047.02 790.476 1047.85 C 827.744 1072.02 863.677 1116.24 876.776 1157.87 C 868.692 1159.09 863.079 1159.03 854.852 1159.1 C 812.256 1124.32 801.019 1120.13 748.144 1103.08 C 707.173 1088.97 672.023 1075.21 631.751 1059.6 C 652.015 1059.01 663.676 1057.21 683.583 1054.11 C 706.383 1064.41 719.766 1074.59 746.627 1084.82 C 759.483 1069.6 771.286 1059.87 786.275 1046.73 z" fill="rgb(255,255,255)" transform="translate(0,0)"></path>
<path d="M 643.394 1176.72 C 650.816 1176.56 660.624 1177.22 668.206 1177.51 C 662.588 1187.05 663.97 1196.46 664.968 1207.08 C 655.707 1221.74 647.586 1274.39 645.582 1293.34 C 639.284 1352.91 639.531 1414.9 642.006 1474.73 C 642.566 1488.27 643.18 1501.37 643.31 1514.91 L 633.117 1527.42 C 629.938 1531.32 624.498 1538.9 619.871 1540.04 L 618.819 1539.07 C 611.855 1517.04 622.482 1317.01 626.76 1284.44 C 628.131 1274.01 631.917 1250.44 634.42 1239.05 C 636.061 1231.58 640.218 1217.05 641.156 1209.66 C 642.605 1198.22 641.174 1188.8 643.394 1176.72 z" fill="rgb(255,255,255)" transform="translate(0,0)"></path>
<path d="M 1360.82 1843.29 L 1363.23 1844.57 L 1363.73 1847.11 C 1364.67 1852.03 1365.87 1855.41 1367.4 1860.16 C 1371.99 1864.08 1367.92 1859.63 1374.28 1861.49 C 1375.63 1863.94 1375.71 1863.77 1375.69 1866.53 C 1372.77 1865.67 1372.25 1865.19 1369.33 1866.01 L 1369.85 1867.4 C 1373.63 1869.9 1383.44 1876.22 1387.42 1872.97 L 1388 1871.11 C 1390.28 1872.42 1396.05 1879.92 1398.44 1882.55 L 1398.73 1879.43 C 1401.86 1879.08 1400.69 1880.25 1403.33 1882.42 C 1406.04 1882.51 1408.29 1882.6 1410.08 1882.66 C 1414.48 1885.88 1410.1 1886.73 1414.12 1891.8 C 1417.55 1892.1 1420.63 1888.94 1425.36 1887.55 C 1428.01 1893.37 1426.11 1892.41 1430.41 1895.01 C 1437.24 1893.74 1451.27 1901.92 1458.65 1904.87 C 1473.18 1910.67 1489.4 1914.41 1502.82 1922.26 C 1489.78 1921.41 1477.43 1917.27 1463.5 1917.61 C 1443.34 1918.1 1423.39 1923.52 1403.46 1923.09 C 1385.07 1920.94 1369.31 1917.22 1351.22 1913.82 C 1339.5 1911.79 1325.66 1913.72 1314.12 1911.77 C 1296.14 1908.73 1279.17 1905.13 1261.01 1902.85 C 1260.71 1890.33 1261.5 1883.92 1264.04 1871.64 C 1278.42 1881.19 1285.29 1885.28 1297.33 1898.07 L 1298.02 1897.37 L 1299.19 1896.22 C 1314.42 1881.1 1343.79 1863 1360.16 1847.44 C 1360.41 1845.81 1360.63 1844.43 1360.82 1843.29 z" fill="rgb(255,255,255)" transform="translate(0,0)"></path>
<path d="M 1205.23 1614.66 C 1208.14 1616.75 1217.98 1639.04 1220.6 1644.35 C 1238.76 1680.39 1256.34 1716.71 1273.34 1753.31 C 1285.21 1779.09 1295.98 1806.03 1308.53 1831.4 C 1307.27 1837.48 1306.32 1842.45 1305.48 1848.6 C 1298.65 1848.93 1294.45 1850.46 1289.41 1845.5 C 1282.37 1833.81 1275.99 1819.96 1269.67 1807.64 C 1258.2 1785.27 1246.65 1762.97 1235.08 1740.67 C 1217.69 1707.13 1194.16 1671.75 1180.05 1636.89 C 1188.57 1629.63 1196.97 1622.22 1205.23 1614.66 z" fill="rgb(255,255,255)" transform="translate(0,0)"></path>
<path d="M 615.084 1063.15 C 620.22 1061.65 645.973 1076.1 652.937 1079.16 C 702.49 1100.91 754.09 1117.35 804.68 1136.44 C 820.044 1142.24 841.226 1155.84 854.519 1159.16 L 839.102 1162.19 C 817.921 1164.83 806.078 1162.74 785.616 1158.61 C 781.198 1157.71 767.672 1158.4 762.541 1158.5 C 746.106 1144.58 719.081 1133.29 699.624 1123.89 C 664.041 1106.7 631.28 1092.28 600.301 1067.3 L 615.084 1063.15 z" fill="rgb(255,255,255)" transform="translate(0,0)"></path>
<path d="M 884.864 1422.19 C 958.392 1416.27 1044.35 1479.36 1106.38 1512.7 C 1115.26 1539.22 1129.34 1566.15 1137.33 1590.61 C 1141.01 1593.46 1145.13 1598.12 1148.9 1601.34 C 1157.74 1608.91 1166.5 1616.29 1175.12 1624.14 C 1175.06 1627.16 1174.06 1627.31 1171.74 1630.31 C 1170.36 1632.21 1170.3 1632.1 1168.3 1633.39 C 1163.41 1633.04 1129.6 1609.49 1126.17 1604.19 C 1111.13 1580.93 1109.53 1543.97 1095.91 1520.23 C 1087.45 1514.89 1062.26 1503.67 1052.19 1498.86 C 1013.17 1480.67 974.001 1462.77 934.703 1445.18 C 922.477 1439.74 895.434 1428.85 884.864 1422.19 z" fill="rgb(255,255,255)" transform="translate(0,0)"></path>
<path d="M 218.62 1806.9 C 222.188 1803.58 242.899 1788.19 246.583 1786.97 C 250.483 1787.43 251.201 1788.1 254.536 1790.02 C 254.463 1792.83 245.742 1795.1 241.767 1799.85 C 237.551 1804.88 238.042 1803.9 235.237 1809.99 L 234.632 1811.33 C 231.427 1812.34 227.58 1813.26 224.282 1814.14 C 230.698 1825.77 232.19 1830.64 243.012 1823.48 C 242.478 1823.83 251.523 1825.85 252.552 1826.01 L 253.431 1825.12 C 252.937 1820.74 249.569 1820.31 246.989 1815.5 C 249.651 1812.47 257.36 1803.07 260.808 1802.77 C 265.556 1805.29 267.908 1808.31 271.63 1812.2 C 265.614 1811.87 258.646 1810.68 252.578 1809.81 L 264.065 1821.81 C 261.647 1823.26 259.646 1824.04 258.446 1826.5 C 260.718 1829.42 268.695 1829.16 274.875 1834.05 L 274.18 1834.52 C 269.79 1834.38 271.602 1833.73 268.37 1835.91 C 267.976 1841.28 271.013 1843.55 274.612 1847.21 C 270.329 1847.93 267.424 1847.84 264.518 1850.75 C 262.993 1855.46 265.539 1856.48 268.923 1859.46 L 272.529 1862.67 L 271.931 1863.54 C 268.014 1863.72 265.136 1863.49 261.613 1865.15 C 259.768 1869.14 263.704 1873.18 263.44 1882.03 C 266.492 1883.87 275.503 1881.93 279.757 1881.35 C 283.916 1882.04 288.114 1882.64 292.203 1883.64 C 299.299 1886.06 306.939 1888.27 314.149 1890.37 L 314.56 1891.59 L 311.116 1891.52 C 313.316 1896.2 331.131 1907.99 336.786 1912.48 C 309.697 1908.39 290.125 1913.59 264.998 1913.99 C 244.468 1914.32 233.954 1877.15 227.571 1861.29 C 219.76 1841.88 211.693 1829.12 218.62 1806.9 z" fill="rgb(255,255,255)" transform="translate(0,0)"></path>
<path d="M 153.299 931.786 C 162.372 927.777 169.843 922.427 178.756 918.098 C 183.371 915.856 186.509 915.576 191.391 913.116 C 212.495 916.005 223.816 923.176 241.341 934.61 C 224.085 930.267 211.634 927.406 193.914 925.462 C 207.255 936.374 221.477 938.94 235.776 948.723 C 227.936 947.636 195.609 940.801 191.272 942.898 C 197.869 951.093 223.979 954.881 233.985 955.559 L 234.862 959.18 C 241.901 958.986 252.674 965.157 259.386 968.466 C 238.72 972.792 203.953 984.188 226.965 1010.57 C 172.071 996.867 183.184 956.759 147.324 943.866 C 150.969 939.028 151.241 937.476 153.299 931.786 z" fill="rgb(255,255,255)" transform="translate(0,0)"></path>
<path d="M 193.127 957.937 C 212.45 960.366 215.487 960.987 233.985 955.559 L 234.862 959.18 C 216.288 968.502 211.489 967.19 193.127 957.937 z" fill="rgb(14,13,40)" transform="translate(0,0)"></path>
<path d="M 756.592 631.923 C 764.206 631.007 797.473 642.641 806.668 645.699 C 763.507 671.666 730.531 683.494 678.994 684.802 C 660.548 683.629 641.551 683.64 625.934 673.677 C 680.376 668.01 706.728 648.417 756.592 631.923 z" fill="rgb(255,255,255)" transform="translate(0,0)"></path>
<path d="M 934.402 1197.89 L 937.547 1207.59 C 941.628 1208.33 953.566 1210.93 956.801 1210.25 L 954.2 1206.84 C 955.502 1204 954.593 1205.26 957.601 1203.49 C 964.849 1204.01 976.663 1219.27 985.264 1226.22 C 974.663 1242.42 937.683 1296.02 932.269 1310.06 C 930.21 1287.13 928.962 1271.81 921.43 1249.5 C 917.553 1238.01 909.752 1221.02 907.135 1210.17 C 917.136 1203.94 923.175 1201.61 934.402 1197.89 z" fill="rgb(255,255,255)" transform="translate(0,0)"></path>
<path d="M 574.703 748.621 C 581.754 751.404 589.324 754.178 596.772 755.495 C 605.249 786.943 616.075 826.323 637.305 851.494 C 633.897 841.529 631.168 833.108 628.334 822.91 C 635 824.952 641.215 826.899 648.048 828.43 C 652.56 829.44 658.928 828.255 661.388 830.401 L 660.038 833.726 C 655.467 844.261 650.439 857.218 644.187 866.388 C 638.391 874.89 615.332 868.295 609.142 862.328 C 585.669 839.698 577.565 778.906 574.703 748.621 z" fill="rgb(255,255,255)" transform="translate(0,0)"></path>
<path d="M 796.251 1039.03 C 805.781 1037.94 823.845 1047.7 832.469 1052.34 C 860.965 1067.66 890.511 1085.82 910.947 1111.28 C 918.781 1121.04 923.374 1132.44 928.464 1143.73 L 918.408 1145.98 C 907.058 1150.86 897.506 1155.41 885.335 1157.94 C 883.214 1127.73 846.377 1082.02 824.516 1062.25 C 815.791 1054.36 804.418 1047.7 796.251 1039.03 z" fill="rgb(255,255,255)" transform="translate(0,0)"></path>
<path d="M 449.914 1675.81 C 450.971 1676.09 450.279 1675.84 451.769 1677.02 C 452.546 1682.88 451.815 1688.18 451.342 1694.08 C 444.42 1699.81 431.059 1706.2 422.784 1710.48 C 389.186 1727.88 356.108 1744.71 325.444 1767.11 C 313.553 1775.79 301.334 1785.19 288.96 1793.09 L 278.623 1786.63 C 275.961 1785.36 271.762 1784.14 268.819 1783.19 C 281.904 1774.35 295.03 1766.09 308.219 1757.48 C 353.955 1727.63 402.634 1703.03 449.914 1675.81 z" fill="rgb(255,255,255)" transform="translate(0,0)"></path>
<path d="M 244.479 838.957 C 277.118 840.248 306.003 864.492 314.807 899.49 C 317.391 909.759 303.892 937.966 296.027 946.73 C 296.903 953.445 297.981 956.763 299.911 963.244 C 288.917 960.083 281.966 957.631 271.405 953.53 L 267.156 928.894 C 285.332 921.267 282.208 910.181 279.575 893.898 C 286.766 900.365 289.208 902.16 297.553 906.105 C 291.886 899.025 278.572 889.892 280.32 880.653 C 285.219 876.757 284.247 880.697 290.377 878.306 L 290.307 876.955 C 279.821 870.959 283.982 872.766 277.961 866.164 C 272.891 860.605 243.942 848.747 237.169 846.586 C 239.441 844.009 242.068 841.43 244.479 838.957 z" fill="rgb(255,255,255)" transform="translate(0,0)"></path>
<path d="M 825.534 1002.75 C 855.537 1015.19 892.201 1051.3 914.429 1075.84 C 923.086 1085.4 948.133 1119.13 947.079 1132.45 C 944.498 1138 939.937 1139.45 934.515 1141.99 C 932 1142.1 933.011 1142.54 931.255 1141.06 C 931.104 1138.43 931.046 1138.02 930.47 1135.43 C 920.105 1088.76 880.092 1058 841.301 1034.46 C 832.542 1029.14 823.051 1024.79 814.155 1019.33 L 813.068 1018.66 C 817.672 1011.99 820.11 1008.71 825.534 1002.75 z" fill="rgb(255,255,255)" transform="translate(0,0)"></path>
<path d="M 606.732 1107.55 C 609.621 1108.94 617.591 1114.4 620.985 1116.55 C 634.002 1124.78 643.558 1129.89 658.035 1134.95 C 665.897 1137.71 673.886 1140.1 681.974 1142.09 C 692.837 1144.73 745.56 1154.76 750.472 1159.57 L 748.909 1160.78 C 739.11 1162.26 726.24 1162.23 716.124 1162.87 C 685.957 1164.79 658.019 1167.82 628.83 1157.26 C 620.814 1140.98 613.442 1124.4 606.732 1107.55 z" fill="rgb(255,255,255)" transform="translate(0,0)"></path>
<path d="M 898.701 1220.14 C 900.481 1220.07 901.878 1219.59 902.592 1220.58 C 918.113 1241.98 925.416 1281.14 925.038 1306.58 C 924.684 1330.4 921.645 1331.09 907.63 1344.88 C 905.489 1346.78 906.61 1346.55 904.384 1346.45 C 903.272 1337.17 903.744 1327.14 902.444 1317.04 C 898.391 1285.53 892.74 1254.26 882.216 1224.26 L 898.701 1220.14 z" fill="rgb(255,255,255)" transform="translate(0,0)"></path>
<path d="M 844.225 982.113 C 867.553 985.345 895.87 1001.32 915.755 1013.56 C 926.051 1037.73 934.341 1058.36 941.968 1083.36 C 940.067 1081.51 938.476 1079.52 936.751 1077.5 C 913.012 1046.62 868.721 1011.28 832.917 995.417 C 836.717 990.673 840.172 986.647 844.225 982.113 z" fill="rgb(255,255,255)" transform="translate(0,0)"></path>
<path d="M 488.648 1763.27 L 490.474 1763.16 C 493.068 1764.88 495.57 1769.8 497.308 1772.66 C 485.23 1773.05 470.659 1776.18 458.68 1778.78 C 412.767 1788.73 376.243 1803.62 335.547 1826.66 C 331.053 1823.96 325.98 1820.52 321.52 1817.64 L 301.534 1804.76 C 308.712 1803.17 315.834 1801.88 323.043 1800.47 C 378.643 1789.63 432.971 1773.87 488.648 1763.27 z" fill="rgb(255,255,255)" transform="translate(0,0)"></path>
<path d="M 200.332 1824.64 C 205.987 1829.98 224.414 1903.96 235.061 1915.39 C 253.953 1935.67 281.819 1919.76 307.368 1921.64 C 321.528 1922.68 336.729 1922.46 352.043 1924.04 C 351.661 1928.53 352.259 1934.97 348.034 1936.92 C 327.113 1934.81 305.617 1936.03 284.625 1935.77 C 268.034 1935.57 247.331 1937.63 233.371 1927.4 C 229.295 1924.46 225.935 1920.64 223.541 1916.22 C 217.265 1904.66 215.377 1889.9 208.983 1878.97 C 195.268 1855.54 180.896 1851.61 200.332 1824.64 z" fill="rgb(255,255,255)" transform="translate(0,0)"></path>
<path d="M 752.943 1166.09 C 766.326 1165.83 778.591 1165.65 791.96 1166.08 C 795.744 1188.66 798.984 1210.28 803.099 1233.13 C 790.11 1232.88 775.848 1231.99 762.759 1231.47 C 760.922 1207.62 758.532 1189.57 752.943 1166.09 z" fill="rgb(255,255,255)" transform="translate(0,0)"></path>
<path d="M 1261.03 1914.98 C 1283.74 1919.05 1297.49 1922.17 1319.72 1928.5 L 1323.5 1919.83 C 1347.02 1922.72 1366.21 1932.03 1390.65 1932.74 C 1430.81 1933.9 1471.04 1932.38 1511.14 1932.28 C 1512.73 1932.28 1512.72 1933.12 1513.48 1934.39 C 1511.37 1937.75 1512.79 1936.46 1508.79 1938.05 C 1471.4 1943.34 1398.14 1939.98 1358.97 1936.27 C 1356.01 1935.99 1332.59 1928.19 1326.67 1926.73 C 1322.49 1930.87 1319.59 1935.59 1316.26 1940.45 C 1296.07 1937.82 1281.4 1935.81 1260.87 1936.45 L 1261.03 1914.98 z" fill="rgb(255,255,255)" transform="translate(0,0)"></path>
<path d="M 618.385 926.719 C 620.281 926.835 620.119 926.717 621.867 927.222 C 675.802 942.81 729.509 1000.76 756.248 1048.29 C 754.488 1050.6 751.824 1053.51 749.881 1055.76 C 749.579 1055.65 728.012 1023.33 723.358 1017.95 C 702.133 993.454 680.181 969.117 652.639 951.533 C 647.451 948.221 642.088 945.192 636.572 942.46 C 631.139 939.811 614.091 935.68 614.418 929.713 L 618.385 926.719 z" fill="rgb(255,255,255)" transform="translate(0,0)"></path>
<path d="M 850.494 1168.48 C 868.728 1166.42 877.035 1168.62 896.929 1164.63 C 897.065 1170.52 897.572 1179.27 896.562 1184.78 L 896.261 1192.65 C 896.573 1198.22 897.249 1203.46 897.925 1208.98 C 885.011 1211.61 872.071 1214.12 859.109 1216.51 C 858.804 1198.06 857.4 1185.49 850.494 1168.48 z" fill="rgb(255,255,255)" transform="translate(0,0)"></path>
<path d="M 868.849 1175.43 C 871.037 1191.49 868.374 1200.18 887.536 1190.46 L 887.555 1199.04 C 862.061 1212 867.194 1191.99 868.849 1175.43 z" fill="rgb(20,21,50)" transform="translate(0,0)"></path>
<path d="M 887.536 1190.46 C 890.568 1187.79 892.982 1186.72 896.562 1184.78 L 896.261 1192.65 C 892.661 1196.02 891.855 1196.62 887.555 1199.04 L 887.536 1190.46 z" fill="rgb(14,13,40)" transform="translate(0,0)"></path>
<path d="M 122.743 962.802 C 137.088 963.175 147.727 974.573 153.589 986.7 C 157.706 995.216 163.279 1006.85 154.847 1013.87 C 137.06 1007.92 105.349 981.792 122.743 962.802 z" fill="rgb(255,255,255)" transform="translate(0,0)"></path>
<path d="M 135.012 991.05 C 129.238 988.041 119.625 982.903 124.668 975.518 C 135.373 970.857 145.153 983.8 149.892 991.769 L 150.66 993.591 C 152.563 998.129 155.378 1003.09 153.509 1007.67 L 151.423 1008.51 C 144.967 1006.96 139.53 1001 135.128 996 C 133.623 994.291 134.472 993.017 135.012 991.05 z" fill="rgb(14,13,40)" transform="translate(0,0)"></path>
<path d="M 149.892 991.769 L 150.66 993.591 C 152.563 998.129 155.378 1003.09 153.509 1007.67 L 151.423 1008.51 C 144.967 1006.96 139.53 1001 135.128 996 C 133.623 994.291 134.472 993.017 135.012 991.05 C 138.583 992.783 141.508 994.72 145.403 994.375 C 147.791 993.206 147.755 993.312 149.892 991.769 z" fill="rgb(20,21,50)" transform="translate(0,0)"></path>
<path d="M 212.211 877.678 C 220.362 878.433 228.378 880.261 236.05 883.116 C 241.696 885.2 249.596 891.203 252.458 890.688 L 253.105 887.803 L 254.358 887.161 C 262.263 889.771 263.083 887.418 269.962 883.176 C 271.52 887.734 275.294 897.944 271.974 901.585 C 263.995 902.164 255.079 894.224 248.606 899.322 L 248.936 900.801 L 252.026 901.935 C 258.468 904.465 264.723 907.349 268.008 913.735 C 269.34 916.325 269.233 921.518 265.579 922.483 C 260.376 919.77 252.617 910.077 246.068 906.234 C 231.961 897.957 222.899 892.882 207.209 887.612 L 212.211 877.678 z" fill="rgb(255,255,255)" transform="translate(0,0)"></path>
<path d="M 436.434 1085.08 C 461.517 1088.84 492.212 1106.06 516.275 1115.75 C 526.631 1119.92 539.845 1124.72 549.66 1129.33 C 551.426 1131.82 550.811 1131.18 550.156 1135.24 C 539.813 1137.47 447.644 1095.01 436.434 1085.08 z" fill="rgb(255,255,255)" transform="translate(0,0)"></path>
<path d="M 942.654 1147.09 L 944.986 1147 C 957.154 1156.3 963.884 1205.6 944.607 1202.57 C 946.653 1180.33 939.411 1168.67 927.488 1151.23 C 934.267 1150.02 936.182 1149.54 942.654 1147.09 z" fill="rgb(255,255,255)" transform="translate(0,0)"></path>
<path d="M 622.84 907.835 C 593.012 882.291 564.972 837.156 567.667 796.576 C 574.73 837.042 591.51 871.696 624.439 899.881 C 627.789 902.748 656.311 881.509 660.396 878.657 L 661.384 880.442 C 648.772 890.364 637.302 901.034 622.84 907.835 z" fill="rgb(255,255,255)" transform="translate(0,0)"></path>
<path d="M 1344.79 1851.21 L 1347.05 1851.28 C 1345.24 1854.12 1304.4 1877.97 1299.05 1881.14 C 1292.35 1876.52 1284.72 1870.27 1278.2 1865.2 C 1273.6 1861.54 1269.33 1857.78 1264.91 1853.92 C 1276.65 1859.28 1288.65 1864.7 1300.9 1868.69 C 1317.69 1862.86 1324.86 1856.09 1344.79 1851.21 z" fill="rgb(255,255,255)" transform="translate(0,0)"></path>
<path d="M 1339.35 1826.22 C 1343.76 1826 1349.52 1826.53 1354.03 1826.8 C 1355.32 1833.45 1357.61 1839.55 1359.8 1845.96 C 1355.1 1845.39 1350.97 1845.33 1346.25 1845.18 C 1338.56 1845.3 1326.51 1846.99 1321.63 1842.33 C 1321.65 1834.36 1332.45 1828.15 1339.35 1826.22 z" fill="rgb(255,255,255)" transform="translate(0,0)"></path>
<path d="M 798.898 1165.79 C 807.71 1166.81 842.178 1166.9 845.444 1168.97 C 846.411 1171.86 845.317 1173.55 844.213 1176.48 C 830.115 1177.82 815.998 1178.96 801.866 1179.89 L 798.898 1165.79 z" fill="rgb(255,255,255)" transform="translate(0,0)"></path>
<path d="M 737.774 705.651 C 742.212 708.446 747.753 713.589 747.227 719.117 C 744.691 722.074 743.703 722.866 740.656 725.368 C 739.43 729.921 739.619 732.74 734.987 734.187 L 733.58 733.38 C 734.895 731.038 735.993 729.766 735.694 727.142 L 734.131 726.444 C 726.596 727.875 725.956 731.493 722.279 731.998 C 719.761 730.345 719.159 726.839 718.105 723.734 C 725.684 717.341 730.831 712.896 737.774 705.651 z" fill="rgb(255,255,255)" transform="translate(0,0)"></path>
<path d="M 230.177 858.544 C 238.235 858.377 267.7 867.7 262.536 879.353 L 260.836 878.278 C 247.786 875.75 234.935 872.29 222.381 867.923 C 224.89 864.706 227.536 861.652 230.177 858.544 z" fill="rgb(255,255,255)" transform="translate(0,0)"></path>
<path d="M 753.791 755.401 C 763.78 760.733 771.078 765.898 780.09 772.639 C 775.48 772.967 770.661 773.905 766.078 774.671 C 758.663 778.214 757.732 778.896 751.245 783.822 C 749.328 770.396 750.332 768.474 753.791 755.401 z" fill="rgb(255,255,255)" transform="translate(0,0)"></path>
<path d="M 134.541 947.921 C 147.39 953.695 158.969 957.459 163.499 972.574 C 165.541 979.386 168.362 988.416 168.652 995.431 L 167.813 994.719 C 166.748 991.582 165.577 988.483 164.303 985.425 C 156.593 967.16 146.703 960.908 129.33 953.852 C 130.404 950.777 131.79 950.303 134.541 947.921 z" fill="rgb(255,255,255)" transform="translate(0,0)"></path>
<path d="M 729.983 1168.5 C 734.433 1168.11 743.37 1166.77 746.75 1168.95 C 746.962 1172.76 747.503 1172.26 746.005 1175.18 C 739.427 1176.15 724.049 1174.93 716.752 1174.55 L 692.877 1173.11 C 704.93 1170.69 717.719 1169.47 729.983 1168.5 z" fill="rgb(255,255,255)" transform="translate(0,0)"></path>
<path d="M 200.799 895.65 C 209.244 896.136 228.883 903.59 230.179 912.085 C 224.839 910.072 202.24 902.394 199.553 900.112 L 200.799 895.65 z" fill="rgb(255,255,255)" transform="translate(0,0)"></path>
<path d="M 727.926 824.282 L 729.286 825.138 C 706.951 843.936 684.314 862.373 661.384 880.442 L 660.396 878.657 C 682.599 860.707 706.55 842.91 727.926 824.282 z" fill="rgb(194,194,204)" transform="translate(0,0)"></path>
<path d="M 407.814 721.164 C 407.272 724.571 407.797 725.735 405.793 727.254 C 399.166 732.4 393.045 737.586 386.921 743.019 C 383.168 746.349 368.019 762.107 364.589 763.938 C 373.648 752.684 383.304 741.766 394.231 732.303 C 398.9 728.711 403.306 724.95 407.814 721.164 z" fill="rgb(238,228,231)" transform="translate(0,0)"></path>
<path d="M 275.113 1853.1 C 290.936 1853.65 302.052 1863.87 311.298 1875.41 C 306.211 1873.88 300.217 1866.26 295.333 1863.49 C 286.956 1858.75 281.806 1861.62 275.113 1853.1 z" fill="rgb(255,255,255)" transform="translate(0,0)"></path>
<path d="M 269.208 1802.72 C 272.68 1804.02 317.22 1838.85 320.905 1842.25 C 319.242 1841.58 319.526 1841.84 318.352 1840.94 C 301.509 1828.11 282.621 1819.53 269.208 1802.72 z" fill="rgb(238,228,231)" transform="translate(0,0)"></path>
<path d="M 332.968 810.886 L 334.499 812.87 C 330.644 816.86 303.682 838.984 299.66 841.145 C 300.249 839.423 329.096 814.323 332.968 810.886 z" fill="rgb(194,194,204)" transform="translate(0,0)"></path>
<path d="M 1394.07 1848.86 C 1402.12 1849.62 1417.07 1860.25 1423.87 1865.1 C 1414.73 1864 1402.18 1854.3 1394.07 1848.86 z" fill="rgb(238,228,231)" transform="translate(0,0)"></path>
<path d="M 914.194 1156.78 C 915.64 1156.98 917.472 1157.9 918.898 1158.49 L 919.459 1159.92 C 916.848 1162.57 913.895 1162.93 910.233 1163.98 C 907.682 1164.65 907.856 1164.63 905.237 1164.26 L 905.066 1162.76 C 908.24 1159.14 909.666 1158.87 914.194 1156.78 z" fill="rgb(255,255,255)" transform="translate(0,0)"></path>
<path d="M 274.875 1834.05 C 283.302 1839.76 291.594 1845.24 299.635 1851.51 C 288.104 1846.53 283.143 1843.75 274.18 1834.52 L 274.875 1834.05 z" fill="rgb(255,255,255)" transform="translate(0,0)"></path>
<path d="M 318.384 1856.76 C 320.46 1859.68 321.534 1867.69 320.986 1871.06 L 319.797 1871.15 C 318.366 1867.66 314.729 1861.78 315.319 1858.72 L 318.384 1856.76 z" fill="rgb(255,255,255)" transform="translate(0,0)"></path>
<path d="M 645.493 881.217 L 645.363 882.711 C 641.485 886.834 638.14 888.734 633.458 891.781 C 632.142 884.973 640.354 883.193 645.493 881.217 z" fill="rgb(255,255,255)" transform="translate(0,0)"></path>
<path d="M 394.783 746.015 C 392.409 748.655 390.581 751.253 387.408 752.675 C 387.853 749.943 391.558 746.818 393.71 744.609 L 394.783 746.015 z" fill="rgb(91,90,116)" transform="translate(0,0)"></path>
<path d="M 998.939 92.6106 L 1394.78 92.8522 C 1404.63 108.166 1419.86 132.021 1432.58 144.132 C 1419.1 144.278 1405.86 143.097 1392.08 143.566 C 1327.84 145.756 1276.43 161.42 1222.28 194.98 L 1096.88 194.981 L 1096 303.797 C 1071.11 345.019 1051.94 389.434 1039.01 435.822 C 1056.77 407.16 1073 384.425 1095.28 358.847 C 1095.17 400.82 1095.37 442.793 1095.86 484.763 C 1180.88 486.005 1267.44 484.333 1352.79 484.999 L 1357.3 494.356 C 1371.93 522.232 1391.6 556.993 1404.27 584.783 L 1095.84 584.872 L 1095.86 913.857 L 999.074 913.879 L 998.939 92.6106 z" fill="rgb(20,21,50)" transform="translate(0,0)"></path>
<path d="M 1309.16 290.289 C 1342.49 289.081 1384.1 290.444 1417.84 290.979 C 1439.71 328.758 1463.96 378.751 1483.71 418.528 C 1519.34 491.974 1555.89 564.967 1593.36 637.488 C 1602.15 654.512 1610.31 672.263 1619.35 688.999 C 1623.79 681.305 1627.96 673.338 1631.88 665.366 C 1649.88 628.756 1668.45 592.422 1687.05 556.114 C 1732.28 468.832 1776.66 381.111 1820.19 292.963 L 1925.88 293.003 C 1922.52 300.319 1918.33 307.558 1914.51 314.668 C 1891.97 356.604 1870.99 399.311 1849.37 441.74 L 1696.4 755.052 L 1653.41 845.236 C 1642.95 866.975 1631.15 890.191 1621.49 912.097 C 1609.64 890.78 1595.86 860.737 1584.52 838.287 L 1480.64 628.079 L 1365.02 397.677 C 1346.93 362.289 1326.5 325.63 1309.16 290.289 z" fill="rgb(20,21,50)" transform="translate(0,0)"></path>
<path d="M 1852.92 529.194 C 1858.25 542.839 1864.63 557.847 1869.29 571.543 C 1923.41 591.651 1955.67 647.742 1961.98 703.242 C 1954.56 694.514 1949.02 684.556 1942.35 675.278 C 1922.86 648.174 1903.96 620.73 1876.47 601.163 C 1884.72 628.374 1889.36 654.356 1896.97 680.466 C 1926.21 695.237 1951.27 717.856 1960.95 749.692 C 1966.87 769.161 1971.34 791.829 1971.74 812.136 C 1961.34 798.26 1956.4 784.36 1948.38 769.451 C 1937.32 748.906 1918.1 722.243 1899.12 708.362 C 1902.28 727.147 1904.68 769.628 1905.47 789.636 C 1962.3 819.84 1974.06 867.269 1970.67 928.14 C 1963.92 919.634 1960.06 908.432 1956.07 898.269 C 1942.74 864.218 1932.68 840.203 1904.4 815.706 C 1903.3 841.725 1903.66 869.319 1902.17 894.689 C 1933.73 923.231 1955.05 946.991 1958.2 992.543 C 1959.06 1004.95 1957.6 1032.64 1953.4 1044.16 L 1952.04 1044.64 C 1948.18 1038.42 1942.58 1014.84 1939.79 1006.39 C 1929.35 974.803 1918.13 954.212 1898.38 928.21 C 1894.09 965.05 1891.32 976.895 1884.04 1011.69 C 1913.74 1043.71 1929.41 1068.43 1927.88 1114.45 C 1927.62 1122.22 1924.71 1150.53 1919.77 1155.49 C 1915.94 1152.31 1912.29 1128.67 1910.69 1122.56 C 1903.62 1095.41 1891.39 1069.33 1876.77 1045.41 C 1869.97 1071.65 1861.01 1098.06 1854.62 1123.12 C 1882.05 1156.29 1894.88 1199.44 1882.35 1241.47 C 1880.56 1247.47 1875.36 1270.2 1869.53 1272.82 C 1866.05 1269.44 1866.28 1250.49 1865.7 1244.46 C 1862.8 1214.17 1857.84 1185.57 1841.25 1159.09 C 1831.33 1184.71 1820.59 1210.02 1809.05 1234.96 C 1829.49 1268.1 1840.73 1291.79 1831.89 1332.84 C 1829.36 1344.56 1820.95 1367.16 1814.36 1376.9 L 1813.13 1377.15 C 1811.02 1372.93 1811.78 1367.76 1811.79 1363.14 C 1811.82 1330.88 1807.78 1298.72 1792.57 1269.83 C 1779.58 1292.83 1765.99 1318.51 1750.88 1339.93 C 1767 1372.14 1771.39 1401.78 1760.86 1437.27 C 1757.78 1447.63 1747.98 1465.86 1738.39 1471.11 L 1735.71 1471.19 C 1733.55 1468.38 1734.47 1466.42 1734.97 1462.09 C 1739.24 1425.76 1745.79 1408.2 1730.25 1374.31 C 1712.14 1400.95 1698.68 1419.43 1678.72 1444.68 C 1700.09 1477.53 1681.7 1541.33 1649.48 1562.57 C 1648.02 1563.53 1647.12 1563.71 1645.44 1563.85 L 1644.09 1562.94 C 1644.5 1558.23 1648.43 1552.02 1650.2 1546.62 C 1659.39 1518.42 1662.4 1503.57 1655.85 1474.76 C 1644.69 1487.87 1633.2 1500.7 1621.39 1513.24 C 1612.48 1522.69 1600.35 1534.72 1592.3 1544.38 C 1596.97 1570.62 1584.79 1599.63 1569.92 1620.73 C 1564.36 1628.6 1543 1655.34 1532.53 1652.94 C 1530.46 1647.3 1565.22 1593.14 1558.14 1576.21 C 1555.99 1576.07 1517.4 1610.16 1512.39 1614.3 C 1469.35 1650.52 1421.84 1681.06 1371.02 1705.18 C 1360.35 1710.28 1341.76 1718.93 1330.71 1721.57 L 1326.66 1708.7 C 1415.35 1672.67 1480.07 1632.67 1548.48 1564.01 C 1538.07 1561.38 1408.67 1541.54 1455.08 1517.56 C 1475.74 1506.88 1553.51 1527.55 1579.14 1537.27 C 1598.42 1517.58 1628.76 1486.33 1644.74 1464.29 C 1618.95 1458.56 1591.53 1456.7 1565.36 1452.86 C 1557.37 1451.69 1530.7 1450.42 1533.47 1438.44 C 1548.05 1420.54 1584.63 1424.62 1605.04 1426.55 C 1625.11 1428.46 1647.6 1430.54 1667.23 1435.32 C 1688.43 1408.87 1700.74 1391.09 1719.69 1363.13 C 1698.01 1361.49 1676.32 1360.15 1654.61 1359.09 C 1642.39 1358.41 1629.8 1358.1 1617.73 1356.15 C 1612.03 1355.22 1607.53 1354.06 1606.35 1347.96 C 1615.88 1316.64 1711.91 1330.39 1738.57 1331.14 C 1750.88 1313.26 1771 1276.06 1778.98 1255.54 C 1745.16 1254.64 1711.52 1256.96 1677.74 1256.47 C 1673.74 1256.41 1670.18 1255.43 1666.93 1253.09 C 1662.73 1244.5 1674.98 1235.49 1681.72 1233.12 C 1710.74 1222.93 1765.22 1221.52 1795.1 1227.13 C 1808.35 1201.45 1819.25 1171.96 1829.62 1144.91 C 1806.62 1145.06 1723.78 1157.01 1710.1 1150.78 C 1702.89 1142.15 1720.85 1130.83 1727.46 1128.44 C 1757.96 1117.46 1806.84 1111.37 1839.1 1113.57 C 1847.06 1085.4 1854.87 1059.62 1861.71 1030.88 C 1843.06 1033.58 1753.82 1056.75 1744.4 1050.55 C 1743.15 1049.73 1742.64 1048.46 1742.42 1046.99 C 1741.77 1042.56 1744.17 1038.1 1747.08 1034.97 C 1766.26 1014.35 1827.57 1003.25 1854.87 1002.95 C 1859.39 1002.94 1863.91 1003.05 1868.43 1003.27 C 1874.13 971.657 1877.45 952.522 1881.33 920.202 C 1845.79 927.051 1810.05 941.937 1774.5 949.393 C 1771.63 949.994 1769.99 949.73 1767.35 948.612 C 1760.42 940.447 1773.37 928.424 1780 924.634 C 1806.41 909.532 1853.6 890.841 1884.08 890.975 C 1886.26 865.635 1888.23 835.777 1887.15 810.33 C 1868.84 817.379 1795.5 849.324 1779.62 847.18 C 1772.36 840.279 1783.04 827.765 1788.63 823.527 C 1810.45 806.956 1859.45 786.339 1886.11 782.92 C 1885.36 751.506 1883.17 731.778 1880.66 701.575 C 1866.13 706.735 1855.34 716.151 1842.64 723.598 C 1831.26 730.272 1787.87 753.34 1775.69 751.615 C 1763.13 741.124 1800.74 713.035 1809.48 708.457 C 1832.12 696.593 1851.01 683.31 1876.63 678.484 C 1872.01 653.563 1865.44 622.786 1858.39 598.39 C 1837.19 605.17 1803.81 639.111 1787.99 655.541 C 1792.28 643.164 1797.64 631.184 1804.01 619.736 C 1817.34 595.311 1824.87 586.138 1849.56 574.105 C 1846.69 565.615 1844.42 558.703 1842.24 550.043 C 1846.32 542.941 1849.37 536.6 1852.92 529.194 z" fill="rgb(174,24,42)" transform="translate(0,0)"></path>
<path d="M 1382.73 155.428 C 1394.38 154.77 1443.19 152.934 1448.65 160.394 C 1444.97 161.761 1437.11 161.375 1432.74 161.502 C 1419.37 161.894 1394.47 162.137 1382.75 166.734 C 1385.56 168.944 1384.74 167.601 1385.82 170.523 L 1382.9 174.15 L 1383.43 175.187 C 1391.81 175.035 1402.08 176.242 1410.57 177.005 C 1424.89 165.64 1446.23 163.009 1464.02 162.71 C 1474.72 162.531 1498.65 164.531 1507.4 170.425 L 1507.5 171.992 C 1502.07 174.097 1471.69 172.486 1463.38 173.241 C 1452.16 174.261 1447.69 174.911 1436.35 177.947 C 1449.18 180.801 1461.44 183.457 1474.09 187.043 C 1482.37 179.672 1490.46 176.772 1501.61 176.681 C 1526.28 176.48 1564.76 180.625 1583.55 197.824 C 1555.52 192.817 1523.24 187.202 1495.33 192.544 C 1509.57 197.549 1524.7 202.288 1539.08 207.043 C 1541.66 206.023 1543.42 205.582 1546.23 205.32 C 1595.75 200.687 1629.26 212.238 1667.46 241.075 C 1624.51 228.371 1605.71 221.542 1561.45 218.975 C 1577.59 226.834 1593.34 235.454 1608.65 244.806 C 1613.18 244.319 1617.73 244.109 1622.28 244.178 C 1660.36 244.642 1714.96 270.07 1741.17 296.873 C 1732.16 295.519 1707.21 284.293 1696.57 280.497 C 1673.18 272.151 1655 267.779 1630.76 262.904 C 1645.35 273.36 1659.07 284.972 1672.81 296.523 C 1674.07 296.403 1675.33 296.307 1676.58 296.235 C 1703.96 294.664 1740.86 306.931 1760.55 324.661 C 1758.88 328.894 1756.72 333.413 1754.83 337.592 C 1734.72 328.153 1717.37 321.076 1695.46 317.15 C 1701.29 323.148 1708.11 328.954 1714.11 334.989 C 1724.45 345.393 1731.88 354.428 1743.98 362.907 C 1742.02 367.749 1736.81 384.901 1733.82 386.823 C 1732.02 384.575 1731.5 383.517 1728.99 382.134 C 1707.83 389.778 1694.37 443.157 1664.72 456.123 L 1663.31 455.004 C 1658.01 434.854 1669.71 414.722 1679.83 398.097 C 1689.54 382.158 1703.27 371.623 1717.87 360.579 C 1703.88 345.493 1689.26 333.606 1673.65 320.364 C 1648.43 332.495 1649.04 355.296 1631.23 379.987 C 1627.56 384.791 1624.85 389.14 1619.26 391.303 C 1609.17 390.505 1612.89 373.798 1614.39 366.775 C 1620.23 339.447 1634.77 319.981 1658.05 304.803 C 1639.72 289.433 1628.76 282.006 1609.49 268.68 C 1598.18 277.856 1597.33 282.374 1592.79 296.089 C 1587.4 312.389 1580.21 327.779 1567.18 339.355 C 1554.14 309.28 1572.64 275.482 1592.45 253.228 C 1578.44 244.666 1561.26 234.197 1545.71 229.446 C 1530.76 243.882 1539.85 257.182 1530.98 275.642 C 1526.59 284.774 1523.33 287.919 1516.67 295.082 C 1503.41 270.35 1514.63 239.602 1530.4 218.685 C 1516.63 213.157 1498.57 207.611 1484.31 203.341 C 1479.83 216.14 1477.41 262.465 1463.35 265.163 C 1459.87 263.319 1459.07 260.772 1457.73 257.124 C 1450.63 237.708 1458.46 215.427 1467.51 197.786 C 1458.02 195.833 1432.03 189.026 1424.51 191.865 C 1423.25 193.326 1421.8 194.567 1421.85 196.655 C 1422.32 216.107 1421.57 228.708 1415.64 247.52 C 1395.38 228.955 1400.76 210.86 1406.67 187.825 C 1396.01 186.586 1383.19 186.719 1372.36 186.686 C 1370.84 203.105 1371.6 219.137 1369.93 235.119 C 1346.69 221.631 1351.39 210.799 1355.63 186.46 C 1345.59 186.867 1335.56 187.463 1325.54 188.249 C 1323.43 202.211 1323.73 212.73 1324.73 226.954 C 1326.45 228.675 1325.99 227.982 1327.11 230.142 C 1322.94 231.575 1295.7 232.129 1288.29 233.074 C 1271.78 235.181 1261.73 238.337 1246.18 242.619 C 1196.05 256.416 1151.5 281.74 1113.63 317.24 C 1098.78 331.159 1087.01 348.441 1074.31 364.41 C 1114.84 264.313 1210.71 194.737 1312.02 165.414 C 1334.05 159.038 1359.86 156.979 1382.73 155.428 z" fill="rgb(174,24,42)" transform="translate(0,0)"></path>
<path d="M 1306.55 192.13 L 1307.93 192.145 C 1309.42 194.427 1308.68 202.315 1308.56 205.631 C 1308.26 213.303 1309.04 219.153 1310.44 226.611 C 1303.22 226.797 1296 227.088 1288.79 227.486 L 1287.05 226.968 C 1283.9 222.373 1284.14 204.932 1283.92 198.432 C 1291.1 196.069 1299.18 194.09 1306.55 192.13 z" fill="rgb(255,255,255)" transform="translate(0,0)"></path>
<path d="M 1363.52 164.387 C 1371.72 163.435 1376.93 163.653 1385.24 163.879 C 1373.16 168.661 1367.76 165.28 1356.15 175.363 C 1352.02 175.896 1330.16 179.163 1328.51 177.928 C 1330.16 176.012 1331.29 175.127 1331.9 172.719 C 1325.96 171.37 1314.02 180.969 1305.79 182.975 C 1296.16 185.577 1285.03 188.955 1275.27 190.22 C 1275.62 189.946 1275.96 189.672 1276.31 189.398 L 1277.94 188.163 C 1295.67 174.509 1340.61 166.813 1363.52 164.387 z" fill="rgb(255,255,255)" transform="translate(0,0)"></path>
<path d="M 1268.6 203.993 C 1269.72 204.193 1269.02 203.982 1270.54 205.067 C 1271.65 214.695 1272.6 220.13 1277.38 228.478 C 1270.9 229.381 1263.74 230.74 1257.22 231.829 C 1256.02 232.039 1255.41 231.838 1254.14 231.701 C 1250.7 227.295 1247.5 218.777 1249.43 213.279 C 1253.83 209.818 1263.07 206.34 1268.6 203.993 z" fill="rgb(255,255,255)" transform="translate(0,0)"></path>
<path d="M 1238.26 217.959 C 1239.66 218.829 1244.75 231.381 1246.36 234.616 C 1240.01 236.883 1233.63 239.039 1227.21 241.082 C 1225.33 241.703 1225.92 241.496 1223.81 241.38 C 1221.5 238.085 1221.03 232.589 1220.31 228.425 C 1226.89 223.862 1231.09 221.662 1238.26 217.959 z" fill="rgb(255,255,255)" transform="translate(0,0)"></path>
<path d="M 1210.61 232.83 L 1211.9 233.384 C 1214.38 236.43 1215.54 240.199 1217 243.884 C 1209.49 247.81 1205.25 249.489 1197.24 252.398 C 1193.88 253.372 1195.43 253.477 1192.42 252.565 C 1187.72 245 1205.18 236.063 1210.61 232.83 z" fill="rgb(255,255,255)" transform="translate(0,0)"></path>
<path d="M 1216.89 216.283 C 1233.02 206.933 1265.54 188.245 1283.24 185.275 L 1284.25 185.099 C 1272.31 193.426 1260.36 197.06 1247.18 203.034 C 1237.6 207.375 1228.52 212.117 1219.33 217.231 L 1216.89 216.283 z" fill="rgb(238,228,231)" transform="translate(0,0)"></path>
<path d="M 1170.98 261.839 L 1173.97 263.797 C 1157.04 272.585 1146.47 280.934 1131.21 292.399 L 1129.49 291.463 C 1136.71 285.18 1162.7 265.232 1170.98 261.839 z" fill="rgb(238,228,231)" transform="translate(0,0)"></path>
<path d="M 1219.33 217.231 C 1196.06 231.132 1184.98 241.196 1164.47 254.952 C 1169.57 246.703 1207.18 222.317 1216.89 216.283 L 1219.33 217.231 z" fill="rgb(222,149,165)" transform="translate(0,0)"></path>
<path d="M 1170.98 261.839 C 1174.64 256.604 1179.7 249.981 1186.71 250.727 L 1187.86 252.309 C 1186.43 259.018 1179.71 261.146 1173.97 263.797 L 1170.98 261.839 z" fill="rgb(255,255,255)" transform="translate(0,0)"></path>
<path d="M 1129.49 291.463 L 1131.21 292.399 C 1127.32 296.249 1120.65 300.458 1115.99 303.513 C 1120.39 299.179 1124.38 294.939 1129.49 291.463 z" fill="rgb(222,149,165)" transform="translate(0,0)"></path>
<path d="M 1870.83 495.407 C 1890.17 504.544 1910.32 538.805 1920.75 557.265 C 1924.16 563.284 1937.73 591.265 1937.13 596.802 C 1934.22 596.097 1934.2 595.049 1931.75 592.266 C 1910.91 567.613 1885.13 537.702 1858.95 519.121 C 1862.76 511.141 1866.72 503.234 1870.83 495.407 z" fill="rgb(174,24,42)" transform="translate(0,0)"></path>
<path d="M 1883.01 469.507 C 1886.63 472.979 1898.95 499.191 1899.76 504.524 L 1898.65 504.455 L 1879.03 479.933 C 1880.12 476.578 1881.7 472.826 1883.01 469.507 z" fill="rgb(174,24,42)" transform="translate(0,0)"></path>
<metadata><recraft-signature>{"signed_by": "recraft", "signature_b64": "rCCNAXP3Y/HBrx1T17kPLBO//XDBYLboIdM0rC+soHxWc8jzNOqQridvpOXUGWs0++f63lg3dFp0lzb8dg5eCA==", "signing_algo": "Ed25519", "generation_timestamp": 1777414322, "identifier": "db530479-f4aa-4e0a-ae9b-cda8e9f1196f"}</recraft-signature></metadata></svg>