<svg xmlns="http://www.w3.org/2000/svg" height="1024" preserveAspectRatio="none" style="display: block;" version="1.1" viewBox="0 0 2048 2048" width="1024">
<path d="M 0 0 L 1555.55 0 L 1585.67 0 L 2048 0 L 2048 2048 L 567.088 2048 L 538.254 2048 L 0 2048 L 0 0 z" fill="rgb(254,255,254)" transform="translate(0,0)"></path>
<path d="M 1555.55 0 L 1585.67 0 L 2048 0 L 2048 2048 L 567.088 2048 L 538.254 2048 C 566.079 1988.04 599.215 1924.41 628.902 1865 L 790.024 1541.69 L 1315.86 480.946 L 1493.69 124.659 C 1514.72 83.3117 1535.34 41.7566 1555.55 0 z" fill="rgb(254,255,254)" transform="translate(0,0)"></path>
<path d="M 1555.55 0 L 1585.67 0 L 831.444 1518.41 C 742.153 1694.35 654.032 1870.89 567.088 2048 L 538.254 2048 C 566.079 1988.04 599.215 1924.41 628.902 1865 L 790.024 1541.69 L 1315.86 480.946 L 1493.69 124.659 C 1514.72 83.3117 1535.34 41.7566 1555.55 0 z" fill="rgb(199,45,47)" transform="translate(0,0)"></path>
<path d="M 1797.04 544.306 C 1838.67 540.171 1869.86 564.438 1876.48 605.95 C 1878.29 617.288 1877.71 629.912 1880.3 641.015 C 1882.37 649.832 1887.33 660.203 1890.7 668.874 C 1913.2 670.107 1899.86 679.153 1909.95 691.89 C 1917.97 702.011 1925.74 711.429 1932.99 722.199 C 1960.05 761.47 1968.46 814.333 1962.56 861.133 C 1955.92 913.682 1968.64 938.565 1996.71 980.894 C 1979.52 999.516 1956.09 1014.77 1930.41 1017.3 C 1931.35 1040.21 1928.83 1072.03 1919.27 1093.24 C 1901.54 1132.62 1892.94 1177.93 1890.49 1221.15 C 1910.99 1227.95 1908.27 1236.58 1899.46 1253.21 C 1910.22 1262.87 1910.63 1264.65 1908.72 1278.48 C 1934.49 1313.75 1943.74 1338.36 1955.54 1380.14 C 1958.69 1391.3 1964.37 1411.53 1968.74 1421.88 C 1973.38 1424 1977.39 1425.14 1979.86 1430.92 C 1987.37 1448.46 1993.9 1483.16 1990.86 1501.95 C 1990.59 1503.6 1988.89 1505.11 1987.43 1505.23 C 1970.86 1506.56 1923.82 1507.79 1910.67 1502.11 C 1906.67 1494.82 1914.04 1469.15 1914.94 1458.71 C 1915.9 1448.76 1915.58 1438.73 1914.01 1428.86 C 1909.03 1398.38 1877.68 1362.93 1854.75 1341.96 C 1846.77 1337.1 1838.71 1336.53 1830.94 1330.61 C 1812.86 1316.83 1800.26 1291.14 1790.34 1271.3 C 1786.06 1262.74 1783.24 1240.03 1780.99 1230.3 C 1776.13 1209.33 1771.36 1187.16 1768.32 1165.91 C 1755.76 1174.99 1744.34 1182.93 1731.14 1191 C 1725.55 1219.31 1712.73 1216.43 1701.28 1230.27 C 1673.54 1263.8 1663.81 1333.52 1666.45 1375.76 C 1679.33 1390.27 1681.63 1403.38 1685.74 1422.07 C 1687.24 1430.72 1688.88 1439.4 1690.04 1448.1 C 1690.44 1451.11 1691.8 1458.17 1689.68 1460.42 C 1676.93 1473.93 1580.71 1474.12 1559.54 1473.74 C 1546.19 1473.51 1500.65 1474.11 1492.32 1464.67 C 1489.31 1461.27 1488.2 1456.77 1488.59 1452.31 C 1489.06 1447.06 1491.56 1442.48 1495.25 1438.79 C 1509.57 1424.43 1550.95 1410.45 1569.22 1394.91 C 1580.28 1385.5 1586.32 1371.64 1597.61 1362.03 C 1601.32 1361.3 1605.67 1360.78 1609.46 1360.23 C 1604.23 1318.26 1601.31 1267.63 1600.59 1225.46 C 1587.76 1210.01 1596.09 1197.79 1603.55 1182.32 C 1587.85 1148.53 1608.27 1152.92 1618.99 1135.17 C 1641.63 1097.71 1664.2 1062.31 1692.53 1028.75 C 1711.75 1005.98 1735.82 991.869 1753.32 967.907 C 1741.51 950.838 1749.47 928.031 1753.96 909.505 C 1741.01 904.088 1728.17 900.954 1714.97 896.441 C 1710.63 894.958 1705.48 891.726 1702.81 887.925 C 1698.33 881.576 1698.7 872.838 1695.76 865.791 C 1692.64 859.275 1686.09 852.613 1683.14 845.591 C 1670.15 814.736 1657.63 783.593 1644.64 752.737 C 1638.15 749.733 1631.94 746.384 1628.06 739.437 C 1617.11 719.841 1598.04 690.308 1601.62 667.521 C 1604.32 655.701 1618.67 646.547 1627.8 640.629 C 1663.04 617.777 1688.26 633.282 1706.3 667.041 C 1717.62 688.226 1720.85 706.488 1714.21 729.992 C 1722.95 753.142 1726.6 760.136 1749 772.788 C 1759.89 758.385 1774.02 745.396 1787.35 733.363 C 1763.06 730.495 1764.73 725.186 1757.56 702.692 C 1755.43 696.032 1752.73 688.474 1750.43 681.816 C 1748.96 680.99 1744.73 678.669 1743.86 677.482 C 1739.38 671.345 1744.37 653.635 1739.96 646.869 C 1730.6 633.982 1710.33 641.148 1696.7 637.466 C 1689.87 635.621 1685.48 625.917 1688.68 621.805 C 1696.5 611.724 1721.67 604.102 1733.49 600.504 C 1742.78 569.91 1765.51 549.497 1797.04 544.306 z" fill="rgb(25,28,69)" transform="translate(0,0)"></path>
<path d="M 1761.04 955.696 C 1796.58 942.93 1856.45 964.795 1890.12 979.735 C 1894.96 981.881 1902.99 986.059 1907.31 989.281 C 1914.85 1005.26 1915.32 1033.3 1913.35 1050.55 C 1910.5 1075.64 1898.85 1106.03 1880.61 1123.89 C 1883.21 1124.89 1885.66 1125.16 1886.79 1128.03 C 1887.82 1130.62 1878.89 1221.47 1876.29 1227.52 L 1874.92 1231.07 C 1879.23 1232.97 1886.1 1234.9 1891.47 1237.15 C 1887.06 1241.61 1884.23 1242.47 1879.99 1246.51 C 1881.28 1247.21 1885.01 1245.75 1886.99 1245.22 C 1885.04 1248.42 1863.82 1253.92 1857.65 1256.57 L 1856.13 1257.23 C 1866.52 1256.45 1875.33 1255.02 1886.41 1254.39 C 1888.53 1257.11 1890.66 1260.39 1892.62 1263.26 C 1870.12 1280.67 1843.78 1330.52 1819.45 1286.32 C 1827.31 1284.91 1833.85 1283.39 1841.61 1281.46 C 1827.47 1276.76 1817.28 1274.44 1806.66 1263.2 C 1805.49 1255.28 1804.58 1246.79 1803.7 1239.01 C 1799.39 1201 1786.94 1178.09 1819.45 1148.22 C 1834.69 1134.22 1853.17 1127.09 1867.11 1114.93 L 1868.25 1113.93 C 1857.61 1116.35 1846.13 1119.74 1835.46 1122.49 C 1859.18 1107.66 1878.66 1093.25 1897.05 1071.75 C 1883.21 1080.11 1863.44 1092.48 1849 1099.13 C 1878.54 1073.19 1890.38 1053.42 1906.41 1018.24 C 1895.5 1032.26 1885.06 1047.23 1872.45 1059.76 C 1846.68 1085.38 1816.97 1105.58 1787.65 1126.74 C 1766.92 1141.71 1747.37 1155.15 1725.9 1169.03 C 1703.03 1183.82 1673.46 1181.3 1647.73 1174.96 C 1672.28 1190.49 1692.31 1190.09 1711.48 1201.04 C 1684.98 1215.85 1680.54 1207.78 1652.26 1205.94 C 1639.73 1205.12 1621.41 1207.45 1608.43 1208.47 C 1610.15 1202.14 1612.66 1195.06 1614.74 1188.76 C 1620.34 1189.36 1625.96 1189.85 1631.58 1190.22 C 1626.94 1184 1612.04 1171.11 1613.89 1162.34 C 1614.95 1157.28 1625.45 1152.69 1629.25 1148.16 C 1635.63 1140.58 1643.01 1132.88 1649.93 1125.7 C 1681.88 1094.18 1715 1063.41 1750.22 1035.57 C 1768.81 1020.87 1788.23 1005.54 1808.38 993.139 L 1807.04 991.256 C 1755.64 1024.83 1701.08 1064.34 1656.39 1106.15 C 1682.9 1065.14 1709.44 1030.69 1746.75 998.991 C 1770.48 978.822 1769.33 982.526 1797.42 972.898 C 1792.93 972.931 1776.75 973.643 1773.66 971.75 C 1774.64 966.19 1785.74 963.199 1788.86 957.959 C 1782.99 954.404 1769.8 957.401 1761.04 955.696 z" fill="rgb(254,255,254)" transform="translate(0,0)"></path>
<path d="M 1817.17 984.048 C 1844.3 994.213 1862.33 1005.15 1891.57 1011.79 L 1891.06 1013.14 C 1859.86 1008.07 1847.1 1004.44 1817.59 994.184 C 1813.27 1010.41 1808.69 1026.56 1803.85 1042.64 C 1818.58 1060.3 1830.61 1064.42 1852.52 1067.22 C 1822.97 1070.46 1815.59 1070.02 1794.49 1048.07 C 1796.02 1034.04 1804.12 1006.65 1808.38 993.139 L 1807.04 991.256 L 1817.17 984.048 z" fill="rgb(25,28,69)" transform="translate(0,0)"></path>
<path d="M 1874.92 1231.07 C 1866.96 1227.03 1862 1224.69 1854.9 1219.42 C 1862.77 1222.81 1868.13 1225.15 1876.29 1227.52 L 1874.92 1231.07 z" fill="rgb(56,59,83)" transform="translate(0,0)"></path>
<path d="M 1891.57 1011.79 C 1895.44 1011.94 1901.29 1011.7 1904.06 1014.16 C 1900.7 1015.24 1894.33 1014.14 1891.06 1013.14 L 1891.57 1011.79 z" fill="rgb(187,186,198)" transform="translate(0,0)"></path>
<path d="M 1824.69 719.931 C 1845.42 697.026 1861.49 686.17 1892.1 683.013 C 1905.85 717.029 1930.5 742.753 1938.36 781.722 C 1941.48 797.54 1947.23 819.671 1946.4 835.456 C 1943.65 887.677 1941.39 923.125 1969.83 969.718 C 1936.28 971.322 1904.52 968.638 1877.89 946.464 C 1885.73 949.045 1892.33 950.809 1900.36 952.835 C 1880.02 938.764 1863.43 926.597 1841.54 914.86 C 1853.88 928.33 1857.13 932.295 1864.67 948.828 C 1845.26 940.826 1830.32 927.23 1812.79 915.413 C 1804.45 909.792 1790.4 900.449 1788.75 890.418 C 1795.02 877.053 1852.47 909.22 1864.36 912.645 C 1862.34 908.729 1839.37 889.76 1833.72 884.205 C 1847.28 886.727 1860.82 889.348 1874.34 892.066 C 1844.42 878.394 1839.06 877.781 1815.18 855.156 C 1822.25 856.282 1826.6 856.828 1833.72 857.202 C 1830.76 852.282 1828.13 847.42 1825.38 842.383 C 1834.77 837.006 1835.99 836.375 1839.37 826.334 C 1863.98 838.184 1883.53 841.168 1909.44 833.061 C 1887.35 835.031 1873.01 830.03 1852.96 821.089 C 1870.76 811.105 1878.92 803.366 1887.82 785.078 C 1877.12 795.65 1873.2 797.888 1859.92 805.618 C 1872.48 785.844 1874.39 774.657 1871.97 751.465 C 1866.42 796.192 1821.62 826.579 1783.3 842.687 C 1793.97 831.354 1804.57 819.955 1815.1 808.49 C 1819.62 803.595 1829.52 793.463 1833.1 788.373 C 1799.92 814.331 1767.03 850.128 1725.86 861.463 C 1722.05 860.472 1717.39 859.109 1714.06 857.065 C 1697.76 847.064 1683.74 803.131 1679.13 784.959 C 1682.47 778.291 1685.12 775.441 1690.11 770.341 C 1687.91 777.318 1686.24 780.478 1682.94 786.985 C 1688.92 782.028 1694.24 777.838 1699.51 772.134 C 1703.62 768.456 1707.14 767.098 1712.06 764.769 C 1713.66 768.242 1714.63 770.377 1716.61 773.619 L 1716.37 774.787 C 1710.05 779.767 1700.28 789.122 1701.9 798.197 C 1707.29 792.745 1719.62 779.806 1727.21 778.97 C 1729.76 780.071 1729.67 779.894 1731.18 782.194 C 1726.94 791.166 1720.07 794.803 1718.04 802.043 C 1716.46 807.674 1716.08 820.136 1719.19 825.596 L 1720.19 825.08 C 1720.76 822.723 1721.37 820.379 1722.03 818.047 C 1726.59 802.364 1746.29 793.98 1758.32 782.88 C 1777.26 765.401 1793.77 743.816 1816.17 730.821 C 1833.03 721.04 1846.88 724.901 1864.18 730.122 C 1848.6 721.43 1842.58 717.301 1824.69 719.931 z" fill="rgb(254,255,254)" transform="translate(0,0)"></path>
<path d="M 1699.51 772.134 C 1703.62 768.456 1707.14 767.098 1712.06 764.769 C 1713.66 768.242 1714.63 770.377 1716.61 773.619 C 1708.34 774.504 1705.76 780.736 1699.54 783.251 L 1697.98 777.276 C 1699.38 774.828 1699.26 774.972 1699.51 772.134 z" fill="rgb(33,40,92)" transform="translate(0,0)"></path>
<path d="M 1699.54 783.251 C 1696.61 785.216 1696.66 786.246 1693.07 787.921 L 1691.88 787.107 C 1693.13 783.126 1695.45 780.628 1697.98 777.276 L 1699.54 783.251 z" fill="rgb(56,59,83)" transform="translate(0,0)"></path>
<path d="M 1625.88 1236.97 C 1632.74 1237 1663.98 1238 1665.95 1247.4 C 1667.72 1255.88 1661.22 1272.21 1659.61 1281.44 C 1656.37 1300.07 1654.38 1318.79 1653.36 1337.69 C 1652.81 1345.82 1653.92 1379.4 1652.28 1383.79 C 1648.71 1387.94 1646.37 1389.51 1642.08 1392.74 C 1635.53 1388.64 1629.01 1383.5 1626.9 1375.97 C 1618.27 1345.16 1613.01 1263.5 1625.88 1236.97 z" fill="rgb(254,255,254)" transform="translate(0,0)"></path>
<path d="M 1655.88 645.054 C 1660.13 644.916 1662.61 644.976 1666.52 646.998 C 1683.06 655.548 1709.6 696.165 1699.15 714.28 C 1697.44 713.681 1698.01 713.914 1696.59 713.301 L 1695.65 712.892 C 1679.81 713.951 1670.33 720.32 1658.46 729.82 C 1655.51 732.104 1652.09 734.398 1649.01 736.568 C 1633.25 721.382 1618.96 694.157 1615.87 672.178 C 1626.34 658.768 1640.05 650.594 1655.88 645.054 z" fill="rgb(254,255,254)" transform="translate(0,0)"></path>
<path d="M 1604.43 1371.66 C 1625.23 1378.52 1623.31 1426.43 1664.54 1389.12 C 1670.43 1402.07 1674.41 1416.45 1677.69 1430.27 C 1662.65 1429.68 1638.98 1432.93 1625.81 1430.34 C 1605.51 1426.36 1609.2 1419.05 1586.51 1431.06 C 1577.35 1435.91 1520.47 1442.34 1505.22 1444.62 C 1527.52 1426.42 1565.94 1418.16 1586.12 1394.38 C 1592.43 1386.95 1598.31 1379.22 1604.43 1371.66 z" fill="rgb(254,255,254)" transform="translate(0,0)"></path>
<path d="M 1792.05 630.012 C 1800.78 631.112 1807.99 634.849 1815.86 638.572 C 1820.52 650.302 1820.66 653.447 1821.58 666.038 C 1823.32 659.267 1830.91 631.42 1840.94 634.426 C 1844.4 644.274 1833.1 663.189 1830.06 673.859 C 1826.53 686.267 1813.55 702.959 1804.73 712.076 C 1796.86 718.65 1784.9 723.18 1777.77 711.866 C 1776.07 709.176 1769.54 697.559 1770.08 695.147 C 1772.32 694.8 1774.55 694.415 1776.77 693.992 L 1776.31 692.197 C 1773.1 688.161 1770.31 688.41 1766.17 685.419 C 1764.78 681.754 1764.89 683.56 1765.69 679.816 C 1768.26 676.991 1769.04 676.932 1769.77 673.563 L 1767.96 671.592 C 1762.92 670.576 1761.42 669.713 1756.75 667.443 C 1757.4 662.998 1758.27 653.691 1760.67 650.669 L 1763.37 651.939 L 1763.69 650.726 C 1760.82 647.208 1760.41 647.334 1761.43 643.243 L 1763.28 642.302 C 1769.68 644.201 1773.72 650.386 1777.53 655.547 C 1780.58 648.584 1786.03 638.318 1788.19 631.469 L 1792.05 630.012 z" fill="rgb(254,255,254)" transform="translate(0,0)"></path>
<path d="M 1834.41 641.572 C 1836.74 647.203 1834.91 651.948 1832.14 656.925 C 1830.67 651.71 1832.61 646.455 1834.41 641.572 z" fill="rgb(56,59,83)" transform="translate(0,0)"></path>
<path d="M 1804.74 556.387 C 1814.78 556.342 1824.67 558.863 1833.46 563.713 C 1848.62 572.226 1855.65 584.695 1859.92 600.676 C 1838.95 605.533 1828.97 608.429 1807.01 609.705 C 1785.12 609.396 1770.02 607.531 1749.18 599.672 C 1759.5 572.441 1775.35 559.091 1804.74 556.387 z" fill="rgb(254,255,254)" transform="translate(0,0)"></path>
<path d="M 1898.63 1303.85 L 1901.41 1304 C 1925.72 1324.96 1947.3 1391.9 1954.37 1423.76 C 1947.49 1424.77 1940.32 1425.6 1933.4 1426.5 C 1924.97 1408.89 1916.57 1395.61 1905.14 1378.48 C 1897.19 1366.58 1874.1 1338.42 1877.58 1323.33 C 1879.19 1316.35 1891.74 1307.21 1898.63 1303.85 z" fill="rgb(254,255,254)" transform="translate(0,0)"></path>
<path d="M 1954.71 1440.36 C 1960.6 1439.71 1963.57 1440.12 1969.36 1440.65 C 1972.65 1449.67 1980.24 1470.21 1974.58 1478.78 C 1966.37 1483.05 1954.84 1472.46 1949.22 1466.68 C 1942.64 1470.23 1934.52 1479.06 1926.63 1479.81 L 1925.4 1478.49 C 1924.89 1474.68 1928.52 1452.33 1929.31 1446.61 C 1937.52 1443.6 1946.04 1441.5 1954.71 1440.36 z" fill="rgb(254,255,254)" transform="translate(0,0)"></path>
<path d="M 1744.62 606.803 C 1747.2 607.04 1760.33 610.554 1763.96 611.421 C 1778.18 614.815 1787.16 615.697 1801.62 616.18 C 1790.3 621.396 1785.37 623.938 1773.25 625.906 C 1754.53 627.194 1732.69 624.516 1713.54 623.36 C 1724.4 617.049 1734.17 614.089 1744.62 606.803 z" fill="rgb(254,255,254)" transform="translate(0,0)"></path>
<path d="M 1769.31 911.419 C 1776.22 916.875 1771.62 921.133 1782.92 919.771 C 1798.04 917.949 1819.21 929.979 1831.25 938.069 L 1830.94 939.024 L 1827.77 938.248 C 1805.27 932.699 1786.09 929.854 1764.22 938.008 C 1765.14 929.105 1767.36 920.176 1769.31 911.419 z" fill="rgb(254,255,254)" transform="translate(0,0)"></path>
<path d="M 1695.18 732.939 C 1696.54 733.877 1701.82 748.145 1703.53 751.812 C 1688.34 756.099 1685.65 757.857 1674.09 768.227 C 1672.62 766.892 1669.51 759.83 1665.92 756.171 C 1675.91 745.921 1683.06 740.155 1695.18 732.939 z" fill="rgb(254,255,254)" transform="translate(0,0)"></path>
<path d="M 1840.8 668.705 C 1844.45 671.717 1850.86 679.992 1854.17 684.024 C 1844.42 691.645 1832.79 698.814 1822.32 705.534 C 1819.16 708.142 1814.75 711.124 1811.35 713.579 C 1823.12 698.653 1832.48 678.453 1840.8 668.705 z" fill="rgb(254,255,254)" transform="translate(0,0)"></path>
<path d="M 1753.1 877.435 L 1755.09 877.69 C 1755.89 880.544 1754.11 886.592 1753.4 889.82 C 1742.84 886.841 1735.94 885.21 1725.21 883.148 C 1721.89 882.329 1719.55 882.062 1717.87 879.674 C 1719.88 878.811 1746.7 878.301 1753.1 877.435 z" fill="rgb(254,255,254)" transform="translate(0,0)"></path>
<path d="M 1898.14 1295.78 L 1899.43 1296.11 C 1899.17 1297.78 1896.44 1298.96 1894.5 1300 C 1885.97 1304.59 1880.15 1310.42 1873.47 1317.31 L 1872.69 1317.62 L 1872.31 1316.71 C 1879.83 1306.22 1886.94 1301.62 1898.14 1295.78 z" fill="rgb(187,186,198)" transform="translate(0,0)"></path>
<path d="M 1692.35 723.959 L 1693.26 724.257 C 1691.44 726.624 1674.46 736.08 1670.44 738.508 L 1669.7 738.639 L 1669.74 737.282 C 1675.76 731.549 1684.69 727.097 1692.35 723.959 z" fill="rgb(254,255,254)" transform="translate(0,0)"></path>
<path d="M 1221.19 804.983 L 1316.22 804.859 C 1323.45 829.361 1336.92 862.114 1346.08 886.977 L 1384.98 993.996 C 1395.92 1023.31 1407.34 1051.1 1417.72 1080.75 C 1423.66 1063.88 1431.5 1044.73 1437.93 1027.72 L 1480.93 914.127 L 1505.97 848.887 C 1511.41 834.788 1517.28 818.418 1523.9 805.045 C 1553.88 805.211 1583.86 805.174 1613.83 804.935 C 1603.24 834.484 1592.3 863.908 1581.03 893.203 C 1572.05 920.304 1557.66 955.19 1547.34 983.019 L 1466.09 1200.93 L 1367.49 1200.91 C 1319.54 1068.63 1270.78 936.656 1221.19 804.983 z" fill="rgb(25,28,69)" transform="translate(0,0)"></path>
<path d="M 327.308 598.956 C 310.748 583.073 304.178 569.638 320.705 549.542 C 326.214 542.844 336.122 540.419 344.464 540.219 C 385.102 539.243 472.706 608.585 479.994 647.497 C 484.683 652.291 492.252 645.556 491.169 660.547 C 492.578 662.53 493.92 663.48 496.206 664.495 C 503.028 667.524 508.415 678.738 510.516 685.751 C 513.526 695.799 511.634 703.192 508.019 712.711 C 525.451 737.486 516.412 747.436 499.344 767.573 C 496.404 771.042 491.159 778.965 488.778 783.121 C 469.414 816.92 498.301 827.439 443.464 824.426 C 435.012 841.798 428.365 845.029 408.265 843.986 C 392.944 843.191 377.227 842.007 362.018 839.907 C 359.234 868.984 350.421 936.355 338.168 962.18 C 348.606 981.543 349.544 982.654 336.236 1000.34 C 340.695 1001.32 347.353 1001.96 350.309 1005.82 C 351.966 1007.98 352.186 1010.98 352.723 1013.56 C 353.825 1018.88 453.022 1156.43 463.43 1172.53 C 487.241 1209.36 500.795 1250.15 516.287 1290.85 C 530.664 1329.58 546.098 1367.9 562.569 1405.78 L 560.456 1416.72 C 577.551 1444.76 605.87 1450.63 632.212 1465.74 C 633.963 1474.43 634.201 1478.81 634.089 1487.76 C 585.207 1488.47 530.777 1488.91 481.87 1488.23 L 481.702 1487.3 C 481.069 1483.62 480.14 1477.89 482.342 1474.76 C 487.77 1454.59 487.305 1449.66 496.354 1430.42 C 463.334 1404.7 455.078 1376.1 438.581 1340.53 C 415.99 1291.82 393.931 1249.55 350.428 1216.75 C 342.258 1210.59 328.336 1194.97 320.558 1186.91 C 289.377 1273.21 261.384 1302.07 199.94 1368.99 C 182.742 1388.1 165.653 1407.3 148.674 1426.61 C 154.176 1434.04 159.545 1442.56 167.057 1448.08 C 194.29 1468.11 227.484 1461.14 225.728 1508.13 L 120.334 1507.78 C 100.792 1507.75 77.017 1507.31 57.6315 1508.28 C 57.2248 1501 56.2756 1489.43 57.9978 1482.44 C 61.5048 1479.92 63.1739 1482.8 63.7018 1477.44 C 65.3363 1460.83 73.6844 1440.59 82.5085 1425.73 C 77.5596 1420.35 72.5746 1415 67.554 1409.68 C 90.4522 1370.32 111.636 1330.35 135.746 1291.5 C 144.917 1276.72 162.012 1258.67 171.404 1243.7 C 172.937 1241.26 175.423 1228.08 176.092 1224.61 C 181.744 1195.27 187.614 1166 194.099 1136.83 C 194.675 1134.24 192.778 1127.54 192.04 1124.74 L 191.091 1121.23 C 126.159 1150.24 123.033 1104.84 70.3432 1100.37 C 106.336 1040.13 129.106 997.332 151.179 929.142 C 168.724 874.941 178.179 815.456 204.123 765.633 C 215.991 743.914 231.809 725.055 251.433 710.215 C 259.694 703.967 282.357 693.125 285.301 685.945 C 299.809 650.561 289.021 622.929 327.308 598.956 z" fill="rgb(25,28,69)" transform="translate(0,0)"></path>
<path d="M 482.342 1474.76 C 502.271 1476.34 519.654 1473.61 538.562 1474.14 C 564.838 1474.87 596.498 1470.2 621.822 1472.56 C 617.772 1475.86 494.617 1478.35 482.134 1475.19 C 482.097 1479.21 482.208 1484.31 481.87 1488.23 L 481.702 1487.3 C 481.069 1483.62 480.14 1477.89 482.342 1474.76 z" fill="rgb(93,97,128)" transform="translate(0,0)"></path>
<path d="M 290.282 704.179 C 293.895 705.537 299.52 707.352 302.498 709.484 L 299.568 710.319 C 299.751 712.51 310.851 715.009 313.51 715.712 C 339.029 722.351 363.417 731.829 387.726 741.898 C 406.225 749.56 416.35 751.858 430.998 766.549 C 386.768 751.547 317.579 720.184 272.648 720.989 C 223.56 755.253 204.452 839.597 189.056 893.608 C 177.704 933.435 151.867 1013.15 127.532 1046.54 C 169.782 1033.81 225.727 980.364 260.793 952.442 C 291.216 928.216 321.596 903.876 345.619 873.116 C 342.964 900.698 320.969 918.6 303.561 938.614 C 291.954 951.958 273.553 964.59 258.934 974.836 C 241.496 986.764 223.652 998.088 205.434 1008.79 C 184.669 1021.04 163.26 1032.12 142.828 1044.82 C 137.552 1048.1 128.889 1050.99 125.229 1054.96 L 125.528 1056.68 C 126.599 1057.28 128.741 1058.47 129.978 1058.59 C 192.047 1064.49 248.108 1034.33 296.032 998.181 C 307.352 989.642 317.807 980.812 329.33 973.182 L 331.706 973.832 C 344.286 987.755 304.518 1013.73 295.108 1020.48 C 259.425 1046.09 220.201 1069.76 176.877 1079.3 C 149.405 1085.35 120.198 1086.17 92.1247 1088.3 C 127.798 1031.22 155.029 969.271 172.975 904.391 C 191.893 837.457 201.046 760.212 263.379 717.542 C 270.992 712.33 281.773 708.103 290.282 704.179 z" fill="rgb(254,255,254)" transform="translate(0,0)"></path>
<path d="M 342.571 1024.49 C 345.339 1026.52 375.725 1069.86 380.094 1076.52 C 406.943 1117.44 448.863 1165.26 468.874 1208.89 C 498.603 1273.7 521.588 1341.42 551.894 1405.92 C 549.053 1411.09 548.42 1412.04 544.405 1416.35 C 535.682 1395.89 525.036 1375.82 516.171 1354.73 C 505.2 1328.61 494.095 1302.54 482.857 1276.53 C 472.939 1253.48 463.446 1230.52 450.951 1208.68 C 437.463 1184.7 420.921 1162.74 405.149 1140.26 C 384.318 1110.52 362.463 1081.53 340.84 1052.37 C 332.123 1040.62 335.522 1035.12 342.571 1024.49 z" fill="rgb(254,255,254)" transform="translate(0,0)"></path>
<path d="M 210.59 1100.81 C 213.345 1104.86 211.982 1112.97 214.095 1119.14 C 216.378 1125.81 219.325 1132.45 221.641 1139.12 C 223.135 1142.41 217.455 1141.29 216.842 1143.71 C 207.921 1178.95 204.933 1217.58 191.534 1251.65 C 185.521 1266.94 168.81 1283.7 159.406 1298.49 C 136.317 1334.8 116.544 1372.82 94.2026 1409.45 C 100.753 1414.34 119.898 1425.16 123.11 1428.3 L 121.067 1429.36 C 105.491 1428.97 93.0495 1418.98 81.9082 1408.87 C 104.017 1371.84 123.829 1334.83 146.92 1298.25 C 157.559 1281.4 175.66 1262.84 183.526 1247.94 C 186.942 1241.47 193.131 1205.48 194.915 1196.06 C 198.663 1176.14 202.848 1156.31 207.468 1136.57 C 203.677 1127.96 202.48 1121.63 200.369 1112.47 C 203.642 1108.24 206.976 1104.73 210.59 1100.81 z" fill="rgb(254,255,254)" transform="translate(0,0)"></path>
<path d="M 352.571 602.232 C 381.856 599.423 406.436 615.889 417.398 642.948 C 421.674 653.501 422.074 662.13 422.243 673.406 C 411.797 669.873 409.442 668.053 401.043 661.302 C 368.877 632.341 359.46 629.019 315.125 625.5 C 325.73 610.625 335.065 605.458 352.571 602.232 z" fill="rgb(254,255,254)" transform="translate(0,0)"></path>
<path d="M 140.592 1432.99 C 142.92 1433.75 143.52 1435.36 145.134 1437.88 C 150.837 1446.75 156.489 1451.4 163.71 1458.04 C 173.264 1466.82 198.775 1471.92 205.751 1479.55 L 204.969 1480.87 C 198.21 1481.72 158.936 1480.3 152.039 1478.58 C 131.662 1470.01 109.033 1457.16 86.3087 1447.43 L 91.3607 1434.96 C 109.068 1443.42 123.345 1441.07 140.592 1432.99 z" fill="rgb(254,255,254)" transform="translate(0,0)"></path>
<path d="M 430.705 656.389 C 436.824 659.314 444.511 668.479 449.087 673.582 C 437.438 688.332 435.437 698.036 442.127 715.33 C 438.062 718.362 432.652 721.217 428.18 723.775 L 422.614 735.721 L 413.253 738.884 C 407.818 737.755 399.929 734.465 394.466 732.382 C 394.294 732.521 398.043 729.508 397.84 729.745 C 401.866 725.033 412.251 724.416 414.931 721.139 C 413.048 709.268 415.749 694.666 417.154 682.319 C 437.701 680.338 434.919 673.35 430.705 656.389 z" fill="rgb(254,255,254)" transform="translate(0,0)"></path>
<path d="M 337.52 913.745 C 338.748 920.544 333.454 944.486 329.806 951.256 C 316.717 975.547 276.156 992.266 251.794 1001.27 C 251.479 998.222 262.468 991.68 265.8 988.665 C 293.258 963.821 314.51 942.531 337.52 913.745 z" fill="rgb(254,255,254)" transform="translate(0,0)"></path>
<path d="M 476.021 653.857 C 479.082 654.462 479.037 654.364 481.743 655.848 C 483.744 660.297 481.958 660.933 481.948 667.199 C 486.376 675.073 486.55 667.654 492.736 671.174 C 499.234 689.636 509.263 681.376 499.751 704.168 C 490.246 698.536 483.435 695.806 472.457 694.659 C 462.307 695.463 460.958 697.947 452.473 704.322 L 451.033 704.05 C 448.264 697.629 461.19 666.826 468.649 665.542 C 469.276 668.186 469.39 668.231 470.707 670.648 L 472.223 670.936 C 474.724 663.864 469.271 664.667 476.021 653.857 z" fill="rgb(254,255,254)" transform="translate(0,0)"></path>
<path d="M 278.797 804.907 C 288.395 805.503 302.356 808.828 313.069 810.54 C 349.024 816.286 391.45 825.006 427.787 820.108 C 431.481 819.609 438.071 815.868 441.412 814.022 C 441.945 816.341 440.804 817.043 439.235 819.837 C 425.707 836.178 420.047 832.583 399.675 831.477 C 357.416 829.184 318.072 820.615 278.797 804.907 z" fill="rgb(254,255,254)" transform="translate(0,0)"></path>
<path d="M 555.248 1424.23 C 569.749 1442.54 593.72 1453.51 614.291 1463.64 C 590.903 1463.44 583.272 1466.12 563.413 1453.49 C 556.095 1448.81 551.531 1448.12 550.76 1439.23 L 549.127 1438.3 C 537.926 1443.76 511.982 1451.91 505.624 1436 L 506.755 1434.6 C 512.912 1433.4 517.246 1435.65 523.506 1435.94 C 537.238 1436.58 545.258 1432.4 555.248 1424.23 z" fill="rgb(254,255,254)" transform="translate(0,0)"></path>
<path d="M 250.895 1095.82 C 255.46 1100.42 263.784 1115.73 269.445 1122.37 C 287.056 1143.02 306.665 1164.04 331.581 1175.77 C 340.683 1180.05 348.27 1181.13 355.374 1184.32 L 354.722 1185.54 C 352.595 1186.19 348.544 1187.55 346.498 1187.76 C 304.983 1192.2 257.729 1129.45 250.895 1095.82 z" fill="rgb(254,255,254)" transform="translate(0,0)"></path>
<path d="M 420.532 748.455 C 437.152 744.853 452.906 740.909 469.103 750.761 C 473.601 753.497 478.604 759.811 479.855 765.09 C 478.536 766.223 479.257 766.027 477.789 765.959 C 474.331 766.303 472.041 765.264 470.011 762.493 C 446.711 752.392 440.217 754.999 420.532 748.455 z" fill="rgb(254,255,254)" transform="translate(0,0)"></path>
<path d="M 470.011 762.493 C 461.159 754.753 452.417 752.748 441.475 749.529 C 452.898 748.046 470.058 757.604 477.789 765.959 C 474.331 766.303 472.041 765.264 470.011 762.493 z" fill="rgb(56,59,83)" transform="translate(0,0)"></path>
<path d="M 331.496 1006.77 C 350.026 1010.41 328.063 1032.48 323.243 1039.78 C 321.324 1042.69 316.09 1050.53 313.655 1052.13 L 313.272 1050.65 C 316.289 1039.49 317.741 1034.17 323.407 1024.17 L 310.097 1024.07 C 317.306 1018.4 324.439 1012.63 331.496 1006.77 z" fill="rgb(254,255,254)" transform="translate(0,0)"></path>
<path d="M 401.692 677.375 C 402.808 677.882 404.939 679.208 406.096 679.875 C 409.157 684.519 407.446 701.54 404.168 705.342 C 399.253 700.423 398.55 699.461 394.946 693.668 C 397.105 686.252 398.105 684.087 401.692 677.375 z" fill="rgb(254,255,254)" transform="translate(0,0)"></path>
<path d="M 318.605 688.136 C 319.859 684.632 319.993 682.567 322.498 680.362 C 326.957 685.738 323.126 690.545 325.144 693.758 C 326.214 689.624 325.847 686.924 328.111 684.425 L 328.962 685.061 L 328.855 691.875 C 327.511 694.967 328.147 699.298 325.426 701.817 L 323.613 701.265 C 320.912 697.745 318.319 692.671 318.605 688.136 z" fill="rgb(254,255,254)" transform="translate(0,0)"></path>
<path d="M 317.203 685.416 L 316.346 685.045 C 318.126 659.639 342.944 670.763 332.637 687.634 C 332.704 681.323 333.965 672.868 324.974 673.405 C 320.238 676.259 318.747 680.201 317.203 685.416 z" fill="rgb(254,255,254)" transform="translate(0,0)"></path>
<path d="M 431.565 756.879 C 440.793 759.802 450.039 769.851 452.977 779.036 C 446.05 771.436 438.79 764.193 431.565 756.879 z" fill="rgb(254,255,254)" transform="translate(0,0)"></path>
<path d="M 443.537 724.896 L 444.346 726.197 C 441.866 730.691 440.365 731.91 436.797 735.576 C 435.178 734.32 435.79 735.135 435.067 733.054 C 436.986 729.241 440.049 727.527 443.537 724.896 z" fill="rgb(254,255,254)" transform="translate(0,0)"></path>
<path d="M 1398.42 2.86152 L 1485.2 2.9368 C 1476.63 23.7205 1461.2 52.3866 1451.01 72.9158 L 1380.41 214.344 L 1138.79 698.36 L 739.858 1503.55 L 569.766 1847.16 C 538.028 1911.39 505.593 1979.73 472.624 2043.07 L 385.305 2042.82 C 454.016 1899.33 528.785 1754.68 599.522 1611.88 L 1000.2 801.021 L 1211.55 376.272 L 1316.74 164.777 C 1343.12 111.773 1370.55 55.1047 1398.42 2.86152 z" fill="rgb(199,45,47)" transform="translate(0,0)"></path>
<path d="M 521.542 804.446 C 615.214 803.006 715.003 803.586 808.844 804.463 L 807.982 888.09 C 738.318 888.486 668.652 888.515 598.988 888.176 L 598.896 962.946 L 774.941 962.954 L 774.917 1004.25 L 774.805 1044.8 L 598.687 1044.82 L 598.384 1196.84 C 567.079 1196.43 535.77 1196.29 504.463 1196.42 C 504.28 1150.89 504.409 1105.35 504.85 1059.82 L 504.71 804.984 L 521.542 804.446 z" fill="rgb(25,28,69)" transform="translate(0,0)"></path>
<metadata><recraft-signature>{"signed_by": "recraft", "signature_b64": "tmzobNT/rM+Skat33miI8fyx6Z8OebSvdxUPhedR+rj+qqmd9Ul7fbBeRvjXJKbeTAGCJDwJeB1GH/bVOs7qAg==", "signing_algo": "Ed25519", "generation_timestamp": 1777331963, "identifier": "735d245f-248e-42c1-8b3c-3f75dab93182"}</recraft-signature></metadata></svg>