<svg xmlns="http://www.w3.org/2000/svg" height="1024" preserveAspectRatio="none" style="display: block;" version="1.1" viewBox="0 0 2048 2048" width="1024">
<path d="M 0 0 L 2048 0 L 2048 2048 L 0 2048 L 0 0 z" fill="rgb(255,255,255)" transform="translate(0,0)"></path>
<path d="M 728.654 819.386 C 748.081 782.926 767.876 748.435 786.312 711.065 C 813.775 655.398 840.732 599.664 867.419 543.633 C 889.119 498.073 917.008 453.77 941.959 409.988 C 951.425 393.378 960.89 376.113 971.504 360.253 C 978.414 350.532 1000.23 354.139 1008.74 359.546 C 1019.08 366.114 1027.77 374.206 1021.73 386.995 C 1013.71 404.002 1003.61 419.903 994.508 436.268 C 964.465 489.288 932.846 541.4 899.694 592.535 C 880.958 621.54 859.581 652.29 842.033 681.629 C 914.412 680.056 989.993 680.845 1062.56 681.035 C 1055.95 718.269 1051.22 756.432 1045.17 793.987 C 975.129 793.975 901.752 792.832 831.986 794.306 C 825.24 839.508 821.09 889.659 813.068 934.296 C 877.38 936.008 947.512 934.606 1012.13 934.311 C 1006.95 970.705 1001.7 1011.52 998.437 1048 L 798.347 1047.96 C 794.164 1066.44 790.073 1102.71 787.225 1122.67 C 780.486 1167.84 774.078 1213.05 768.003 1258.31 C 766.143 1272.14 760.643 1320.07 757.324 1330.98 C 748.602 1333.84 666.187 1331.99 651.513 1331.96 C 652.855 1314.43 656.24 1292.59 658.435 1274.85 C 666.317 1215.48 675.003 1156.23 684.489 1097.1 C 690.251 1060.15 695.357 1020.33 704.675 984.133 C 707.503 973.147 721.829 961.29 728.808 951.912 C 738.843 938.428 740.898 929.862 738.897 913.291 C 747.814 898.268 762.41 887.84 769.918 871.663 C 778.133 853.962 776.769 832.665 758.944 821.606 C 755.549 819.5 755.969 818.08 755.541 814.693 L 753.712 813.344 L 751.971 813.697 C 743.33 834.673 761.794 840.998 754.926 859.99 C 748.99 876.4 730.541 893.254 717.394 903.788 C 714.717 914.731 713.682 928.751 711.275 940.621 C 708.747 942.962 704.677 948.881 702.34 951.821 C 693.505 962.937 685.479 971.71 672.461 977.699 C 666.188 977.029 658.474 977.468 652.877 974.963 C 650.06 973.702 649.686 973.595 646.708 973 C 641.588 979.086 635.843 984.137 629.327 988.788 C 624.055 992.55 605.995 997.989 604.398 1002 C 598.661 1002.43 595.839 1004.87 590.75 1007.63 L 588.259 1008.05 C 576.832 1011.45 578.544 1032.63 566.855 1044.63 C 541.81 1070.33 509.597 1021.15 493.577 1021.63 C 492.02 1026.66 502.391 1046.44 504.56 1052.94 C 510.545 1072.1 515.806 1097.48 516.561 1117.56 C 517.635 1146.13 525.55 1153.81 538.416 1177.21 C 542.643 1184.9 532.132 1198.37 527.574 1205.67 C 533.696 1226.1 549.908 1249.21 561.512 1267.22 C 576.641 1290.31 591.574 1313.2 606.407 1336.5 C 662.566 1424.8 692.133 1524.35 726.272 1622.35 C 736.64 1652.11 741.164 1662.18 722.425 1689.51 C 725.798 1698 726.702 1711.69 728.499 1720.94 C 733.587 1747.13 736.517 1786.66 744.965 1811.54 C 783.394 1820.88 769.381 1839.08 796.102 1859.57 C 811.154 1871.11 834.013 1876.23 849.02 1887.62 C 856.657 1893.41 856.775 1898.07 857.468 1906.76 C 855.613 1909.19 852.088 1914.06 849.541 1915.35 C 811.398 1934.63 762.135 1920.09 724.358 1911.22 C 713.252 1922.56 711.883 1920.14 701.91 1909.17 C 697.256 1908.69 691.201 1908.7 688.179 1904.61 C 678.283 1891.21 681.93 1858.37 682.045 1842.22 C 684.931 1837.84 688.53 1833.44 691.765 1829.27 C 684.641 1809.5 654.171 1718.42 643.403 1703.26 C 640.552 1701.78 637.893 1702.52 634.565 1702.87 C 627.641 1694.43 619.533 1685.15 611.614 1677.71 C 595.896 1662.94 596.613 1654.75 599.477 1634.69 C 591.231 1615.83 580.648 1601.4 568.983 1584.62 C 553.658 1562.56 536.246 1536.2 518.185 1516.62 C 496.592 1493.21 471.564 1471.03 448.952 1448.54 C 442.892 1460.69 432.378 1502.34 427.766 1517.51 C 410.767 1573.41 392.094 1635.03 358.06 1683.27 C 340.924 1707.55 310.472 1726.23 285.198 1741.12 C 280.116 1744.11 273.018 1744.66 267.131 1748.4 C 240.022 1765.63 188.055 1818.26 172.721 1844.53 L 185.242 1850.76 C 184.347 1854.47 182.172 1868.58 179.583 1870.61 C 178.24 1866.68 178.492 1865.2 175.836 1862.91 C 173.291 1864.41 174.303 1863.42 172.815 1866.11 C 178.983 1882.84 216.936 1890.35 219.027 1911.94 C 219.602 1917.88 219.404 1932.48 210.055 1931.54 C 177.751 1928.28 131.387 1946.97 104.461 1922.65 C 92.8506 1928.33 84.4684 1923.45 75.1095 1915.16 C 70.6452 1899.13 87.1281 1847.24 100.658 1835.5 C 102.974 1833.49 110.296 1836.52 113.187 1837.33 C 125.775 1817.96 136.725 1796.79 147.743 1776.41 C 167.593 1739.71 185.343 1709.74 211.024 1676.87 C 208.458 1672.9 202.43 1665.18 204.068 1661.14 C 207.608 1652.46 214.817 1645.94 220.326 1638.58 C 229.517 1626.31 236.708 1612 249.611 1603.04 C 256.641 1598.15 264.445 1594.49 271.927 1590.33 C 264.721 1561.13 272.243 1522.48 272.94 1492.4 C 274.11 1441.95 283.108 1393.45 289.871 1343.82 C 291.143 1315.42 285.836 1285.5 291.792 1257.32 C 294.512 1244.45 313.317 1228.8 318.765 1218.06 C 324.303 1207.14 298.665 1205.45 295.262 1193.9 C 290.952 1179.28 297.436 1166.08 303.343 1152.37 C 301.33 1148.24 298.736 1144.74 296.596 1140.73 C 278.68 1107.2 261.185 1062.53 251.765 1025.72 C 248.058 1007.26 246.148 988.536 242.89 969.969 C 239.921 953.048 234.523 935.259 236.218 917.954 C 237.706 902.762 246.099 889.001 250.952 874.827 C 252.903 869.128 253.958 862.587 255.521 856.62 C 281.403 855.31 281.577 857.716 306.673 850.873 C 291.786 847.155 238.927 844.647 231.249 823.127 C 228.778 816.201 241.445 799.222 242.688 788.746 C 246.034 760.559 237.517 728.427 252.901 703.001 C 270.998 672.368 304.854 661.633 338.053 657.156 C 362.739 653.827 390.774 653.623 412.354 667.279 C 436.67 681.975 434.827 702.366 440.717 726.87 C 455.248 734.052 485.224 735.409 502.886 740.131 C 482.775 746.447 429.422 749.854 419.892 757.281 C 419.497 759.302 426.341 770.883 427.98 774.1 C 444.055 775.553 460.225 775.607 476.31 774.262 C 483.642 812.601 477.176 820.113 465.323 857.029 C 448.821 865.606 431.469 865.748 413.461 864.77 C 405.828 864.356 391.275 862.925 386.83 870.187 C 388.536 877.966 393.795 877.004 400.367 878.091 C 405.41 878.925 411.336 879.215 416.443 879.292 C 433.787 879.542 449.363 871.402 466.369 868.955 C 501.718 864.211 539.149 860.864 574.808 864.157 C 598.821 866.374 607.345 858.93 629.685 851.771 C 638.918 848.813 650.551 848.589 659.673 844.717 C 666.002 842.031 671.662 836.369 677.54 832.751 C 693.222 821.848 710.126 821.493 728.654 819.386 z" fill="rgb(24,35,75)" transform="translate(0,0)"></path>
<path d="M 591.09 994.077 L 596.751 997.7 C 599.322 996.591 599.919 994.279 600.551 991.601 C 601.213 996.935 599.391 998.351 604.398 1002 C 598.661 1002.43 595.839 1004.87 590.75 1007.63 C 588.842 1002.72 589.512 998.902 591.09 994.077 z" fill="rgb(14,30,77)" transform="translate(0,0)"></path>
<path d="M 588.259 1008.05 C 587.851 1001.5 586.905 999.858 589.403 993.6 L 590.612 992.873 L 590.456 992.35 L 591.168 991.946 L 592.427 992.38 L 591.09 994.077 C 589.512 998.902 588.842 1002.72 590.75 1007.63 L 588.259 1008.05 z" fill="rgb(145,150,164)" transform="translate(0,0)"></path>
<path d="M 652.198 896.437 C 654.981 896.972 659.024 896.957 661.984 897.061 C 659.917 899.405 658.602 900.717 656.28 902.704 C 631.762 923.697 612.385 941.109 582.122 953.834 C 580.073 954.695 567.694 960.368 566.422 960.157 C 557.883 958.742 556.783 957.055 547.436 957.035 C 539.6 957.018 523.067 961.279 517.779 960.855 C 512.189 959.818 505.796 958.103 500.188 956.736 C 520.975 947.34 542.265 939.267 563.511 931.029 C 573.894 927.003 592.634 915.526 601.749 912.736 C 620.585 906.968 633.535 903.58 652.198 896.437 z" fill="rgb(255,255,255)" transform="translate(0,0)"></path>
<path d="M 466.965 824.189 L 468.056 825.129 C 467.657 830.923 461.768 845.027 459.515 850.808 L 442.241 845.587 C 438.663 844.465 439.87 845.525 437.692 843.105 C 437.775 838.471 440.647 832.447 442.206 827.115 C 453.601 827.48 456.262 827.039 466.965 824.189 z" fill="rgb(255,255,255)" transform="translate(0,0)"></path>
<path d="M 447.126 802.718 C 455.995 803.341 461.858 803.198 470.19 806.375 C 472.589 809.035 471.856 807.539 472.545 810.994 C 471.193 814.057 471.303 814.298 468.771 816.639 C 459.316 819.443 454.256 820.067 444.56 820.361 C 445.252 814.626 446.278 808.472 447.126 802.718 z" fill="rgb(255,255,255)" transform="translate(0,0)"></path>
<path d="M 454.897 781.351 C 460.187 781.206 472.879 779.653 473.055 790.203 C 473.16 796.505 471.463 798.038 465.767 797.659 C 458.98 796.937 453.557 796.151 446.832 794.97 C 447.06 791.086 447.032 787.805 448.156 784.066 C 450.804 781.233 450.098 782.127 454.897 781.351 z" fill="rgb(255,255,255)" transform="translate(0,0)"></path>
<path d="M 427.686 798.022 C 432.542 799.774 436.674 800.54 441.689 801.63 C 440.884 807.427 439.483 813.084 438.196 818.798 C 435.568 820.058 433.238 819.762 430.858 818.326 C 428.154 812.396 428.102 804.647 427.686 798.022 z" fill="rgb(255,255,255)" transform="translate(0,0)"></path>
<path d="M 428.015 780.182 L 442.354 782.393 L 441.886 794.522 C 437.406 793.913 432.394 792.85 427.9 792.011 C 428.173 788.017 428.06 784.18 428.015 780.182 z" fill="rgb(255,255,255)" transform="translate(0,0)"></path>
<path d="M 433.484 849.558 C 438.723 851.759 447.888 851.747 451.207 855.527 L 449.772 857.3 C 444.304 858.038 437.592 860.438 433.258 858.092 C 431.701 854.329 432.527 854.431 433.484 849.558 z" fill="rgb(255,255,255)" transform="translate(0,0)"></path>
<path d="M 427.209 825.875 C 430.121 826.099 430.95 825.813 433.144 827.654 C 434.446 830.955 432.587 835.146 431.532 838.787 C 429.068 838.12 429.143 837.956 427.099 836.343 C 425.698 833.131 426.692 829.479 427.209 825.875 z" fill="rgb(255,255,255)" transform="translate(0,0)"></path>
<path d="M 425.18 853.216 C 426.167 853.403 425.463 853.208 427.005 854.433 C 426.657 857.71 427.319 856.407 425.343 858.64 C 420.745 860.066 415.802 859.204 410.875 858.82 L 409.654 858.664 L 410.044 857.346 C 415.024 855.437 419.989 854.441 425.18 853.216 z" fill="rgb(255,255,255)" transform="translate(0,0)"></path>
<path d="M 1150.76 56.8886 C 1171.22 80.3242 1193.11 109.423 1212.88 133.966 C 1286.57 225.415 1357.56 319.532 1430.4 411.627 C 1622.2 651.484 1812.15 892.819 2000.22 1135.61 C 1991.65 1143.5 1974.08 1156.45 1964.07 1164.58 C 1925.28 1195.64 1886.25 1226.39 1846.96 1256.81 L 1538.61 1500.97 C 1385.26 1623.61 1231.25 1745.43 1076.61 1866.44 L 966.35 1952.2 C 945.433 1968.7 918.793 1991.26 897.524 2006.22 C 878.112 1987.92 851.659 1954.73 830.37 1941.04 C 848.127 1938.57 856.836 1938.28 868.985 1924.4 C 880.238 1935.3 891.556 1947.79 902.64 1959.13 C 933.808 1933.11 972.1 1904.47 1004.54 1879.32 L 1145.42 1768.88 L 1515.56 1475.63 C 1593.65 1411.69 1676.05 1349.11 1755.42 1286.38 L 1904.81 1168.56 C 1920.71 1156.15 1936.19 1143.11 1952.27 1131.06 C 1934.75 1106.7 1918.94 1087.31 1900.54 1063.82 L 1796.38 931.342 L 1297.72 297.217 L 1190.21 161.571 C 1175.62 143.181 1160.38 125.149 1146.23 106.468 L 703.299 455.203 C 615.361 525.861 526.487 595.346 436.699 663.639 C 429.432 657.212 416.89 650.039 408.28 644.857 C 422.281 630.93 451.599 609.239 467.989 596.366 L 575.096 512.253 L 947.375 218.83 C 993.703 182.736 1039.77 146.311 1085.58 109.559 C 1104.19 94.7105 1134.39 72.575 1150.76 56.8886 z" fill="rgb(24,35,75)" transform="translate(0,0)"></path>
<path d="M 1086.64 681.229 C 1122.73 681.011 1158.82 681.019 1194.9 681.252 C 1198.33 695.194 1201.05 714.806 1203.51 729.372 L 1216.16 802.089 C 1236 917.204 1254.97 1032.67 1274.32 1147.86 C 1275.87 1157.07 1277.32 1165.55 1279.56 1174.68 C 1327.09 1067.44 1375.68 960.674 1425.34 854.401 L 1468.86 758.784 C 1475.78 743.529 1486.05 718.357 1494.49 705.102 C 1504.8 724.526 1533.87 749.561 1546.92 768.5 C 1549.22 771.83 1564.06 788.085 1562.44 791.963 C 1555.41 808.825 1546.63 825.359 1538.93 842.067 C 1530.32 859.337 1522.29 877.92 1513.73 895.445 L 1343.97 1249.27 C 1330.53 1277.16 1317.86 1305.06 1304.12 1332.87 C 1274.47 1331.82 1238.23 1332.88 1208.22 1332.93 C 1205.96 1324.75 1203.77 1308.65 1202.13 1299.75 L 1188.67 1225.62 L 1149.36 1014.79 L 1107.75 795.048 L 1093.64 722.2 C 1091.45 710.749 1087.44 692.368 1086.64 681.229 z" fill="rgb(24,35,75)" transform="translate(0,0)"></path>
<path d="M 1125.77 191.733 C 1132.22 196.722 1169.06 243.027 1176.5 252.093 L 1270.02 363.753 L 1590.04 747.803 C 1678.86 857.841 1768.3 967.385 1858.34 1076.43 C 1842.55 1089.9 1822.8 1104.24 1806.15 1117.61 L 1668.09 1227.57 L 1333.55 1492 C 1240.4 1566.75 1146.73 1640.86 1052.54 1714.32 L 969.082 1780.06 C 953.466 1792.45 930.8 1811.44 914.673 1822.09 C 879.349 1784.04 842.286 1747.1 806.813 1709.12 C 801.383 1703.31 761.047 1662.53 759.735 1657.47 C 753.045 1631.65 742.695 1606.88 734.73 1581.72 C 741.099 1587.4 750.597 1598.25 756.683 1604.81 L 796.642 1647.8 C 837.133 1690.55 877.86 1733.07 918.82 1775.37 C 941.219 1757.15 964.422 1740.05 987.073 1722.18 C 1089.88 1642.34 1192.05 1561.68 1293.57 1480.2 C 1342.85 1439.3 1400 1395.76 1450.53 1356.08 L 1664.77 1186.87 L 1754.98 1115.22 C 1766.51 1106.12 1800.09 1080.43 1807.84 1071.37 C 1793.29 1048.85 1762.81 1014.6 1744.86 992.166 C 1688.06 921.875 1630.74 852.004 1572.91 782.557 L 1298.98 452.017 C 1258.87 403.346 1218.17 355.175 1176.87 307.514 C 1161.04 289.02 1136.79 257.77 1120.24 241.5 C 1113.68 246.487 1106.77 252.771 1100.02 258.06 C 1067.49 283.557 1035.11 309.25 1002.89 335.139 C 1001.72 334.946 1000.54 334.783 999.361 334.65 C 953.118 329.463 953.388 353.476 933.602 384.025 C 929.9 389.74 920.398 397.711 914.845 402.269 C 862.955 444.862 810.047 486.211 757.408 527.866 L 509.291 724.811 C 494.284 718.743 482.138 716.32 465.85 715.534 C 474.314 707.672 494.906 692.608 505.204 684.389 L 612.711 599.634 L 968.606 316.893 C 1008.33 285.835 1048.57 255.384 1087.41 223.18 C 1097.69 214.648 1117.76 201.247 1125.77 191.733 z" fill="rgb(24,35,75)" transform="translate(0,0)"></path>
<path d="M 224.212 768.766 L 224.999 769.141 C 226.558 773.404 224.673 787.976 223.069 792.504 C 220.73 800.157 212.476 809.349 211.824 817.163 C 212.786 820.609 209.389 823.819 206.157 826.403 C 168.602 856.429 131.131 888.059 93.1811 917.525 C 100.03 929.079 130.262 963.01 140.66 975.101 L 204.538 1049.98 C 220.537 1068.55 236.654 1085.78 252.124 1105.06 C 264.956 1121.05 268.143 1133.87 280.269 1150.89 C 275.424 1161.91 273.692 1168.9 270.694 1180.72 L 254.221 1160.53 C 244.038 1147.93 231.823 1134.51 221.121 1122.05 L 150.119 1039.62 C 114.32 998.121 80.1416 956.242 43.9692 915.035 C 59.2199 901.587 76.7885 888.156 92.6629 875.178 L 224.212 768.766 z" fill="rgb(24,35,75)" transform="translate(0,0)"></path>
<path d="M 740.088 681.963 C 752.842 682.166 766.121 681.895 778.92 681.791 C 768.856 702.93 751.979 732.48 740.536 753.605 C 735.687 762.798 731.586 772.805 727.45 782.375 C 729.183 755.495 735.974 709.828 740.088 681.963 z" fill="rgb(24,35,75)" transform="translate(0,0)"></path>
<path d="M 457.772 1488.54 C 463.538 1491.32 506.03 1533.03 509.941 1538.78 C 522.264 1556.87 564.251 1606.78 569.213 1625.09 C 565.176 1622.05 552.21 1605.35 548.406 1600.57 L 510.896 1553.56 C 495.204 1534.14 471.825 1507.97 457.772 1488.54 z" fill="rgb(24,35,75)" transform="translate(0,0)"></path>
<path d="M 219.825 892.855 L 220.842 894.396 C 210.626 909.589 207.441 916.37 199.539 933.257 L 195.055 928.331 L 185.759 917.153 C 196.749 910.093 208.352 900.579 219.825 892.855 z" fill="rgb(14,30,77)" transform="translate(0,0)"></path>
<metadata><recraft-signature>{"signed_by": "recraft", "signature_b64": "MbFPLX/J0JvEsB3bLfjediXHAQ7zEvEgPaFFiDebxAvHEoPGwxOlmettvvaxbKuSn0yiH0xtsor/9ovmh2wMAw==", "signing_algo": "Ed25519", "generation_timestamp": 1777331349, "identifier": "d976f0a1-c205-4e09-ad80-0c7e8291ff41"}</recraft-signature></metadata></svg>