<svg xmlns="http://www.w3.org/2000/svg" height="1024" preserveAspectRatio="none" style="display: block;" version="1.1" viewBox="0 0 2048 2048" width="1024">
<path d="M 0 0 L 2048 0 L 2048 2048 L 0 2048 L 0 0 z" fill="rgb(255,255,255)" transform="translate(0,0)"></path>
<path d="M 1009.77 115.508 C 1073.26 113.82 1149.3 122.417 1210.85 137.079 C 1394.3 180.464 1557.5 285.028 1673.59 433.552 C 1700.62 467.947 1722.62 502.934 1745.41 539.962 C 1755.23 531.26 1764.92 522.416 1774.48 513.435 C 1779.77 487.147 1787.72 470.96 1813.37 459.376 C 1843.31 445.853 1880.39 462.369 1892.75 492.09 C 1898.95 507.277 1898.88 524.303 1892.56 539.441 C 1886.31 554.221 1874.44 565.908 1859.56 571.922 C 1842.54 578.774 1825.82 577.16 1809.25 570.17 C 1799.96 579.994 1787.43 596.181 1778.12 607.16 C 1819.48 716.328 1836.68 794.075 1844.74 910.145 C 1872.85 890.241 1900.86 870.184 1928.75 849.976 C 1939.02 842.566 1949.26 834.874 1959.53 827.459 C 1964.07 824.184 1968.03 822.17 1973.38 824.474 C 1975.45 827.519 1975.34 827.276 1975.54 830.962 C 1973.78 836.848 1939.56 859.988 1932.9 864.787 L 1845.43 927.384 C 1845.69 971.049 1842.54 1041.57 1834.21 1084.74 C 1871.56 1058.28 1908.17 1030.01 1944.84 1002.58 C 1951.96 997.255 1960.53 987.193 1969.88 990.313 C 1971.93 992.733 1972.17 992.266 1972.28 995.97 C 1972.34 998.054 1970.18 1002.13 1968.48 1003.35 C 1954.9 1013.09 1941.4 1023.52 1928.09 1033.55 L 1831.47 1105.56 C 1823.22 1136.47 1817.28 1167.37 1807.95 1199.04 C 1779.89 1294.13 1735.3 1383.53 1676.2 1463.14 C 1694.7 1488.08 1717.49 1513.86 1737.54 1537.72 C 1762.08 1566.92 1786.09 1595.59 1812.31 1623.35 C 1817.06 1621.94 1821.38 1620.74 1826.29 1619.99 C 1842.85 1617.6 1859.68 1621.83 1873.15 1631.74 C 1886.49 1641.7 1894.16 1655.88 1896.48 1672.15 C 1898.92 1688.49 1894.68 1705.13 1884.72 1718.32 C 1863.25 1746.6 1824.27 1749.27 1796.77 1728 C 1782.06 1716.63 1776.53 1699.42 1774.64 1681.6 C 1770.23 1675.31 1765.1 1668.53 1759.64 1663.17 C 1746.61 1650.57 1730.41 1641.74 1712.75 1637.63 C 1694.96 1633.46 1659.45 1634.93 1639.78 1634.93 L 1525.19 1635.16 C 1502.31 1648.92 1481.56 1664.27 1456.96 1678.39 C 1384.07 1720.8 1305.2 1751.96 1223 1770.79 C 1195.97 1776.85 1167.04 1781.24 1139.62 1785.44 C 1119.25 1815.45 1101.27 1848.18 1081.65 1878.77 C 1078 1884.47 1075.27 1890.08 1070.67 1895.16 C 1066.06 1897.35 1061.43 1895.82 1058.97 1891.47 C 1058.88 1888.5 1059.71 1884.77 1061.31 1882.28 C 1081.34 1851.14 1099.85 1819.08 1119.61 1787.76 C 1065.8 1791.73 1022.15 1792.16 967.995 1789.8 C 953.041 1809.79 879.195 1937.72 871.149 1941.39 C 869.011 1942.36 866.651 1942.57 864.527 1941.39 C 862.321 1940.16 860.734 1937.83 860.323 1935.37 C 859.367 1929.67 885.205 1892.65 890.019 1885.11 C 909.412 1854.46 932.042 1819.38 949.997 1788.11 C 897.418 1780.04 862.722 1775.86 810.656 1761.34 C 799.55 1780.72 688.188 1958.87 683.315 1962.56 C 680.874 1964.42 679.108 1964.56 676.164 1964.17 C 672.144 1961.16 671.567 1954.56 673.984 1950.55 C 683.427 1934.89 693.524 1919.47 703.347 1904 L 759.475 1814.5 C 769.743 1798.16 785.541 1774.61 793.92 1758.26 L 794.671 1756.78 C 751.366 1742.11 708.598 1725.9 666.449 1708.18 C 660.589 1718.83 608.714 1802.32 603.581 1805.8 C 601.461 1807.24 599.469 1806.92 597.091 1806.56 C 586.646 1800.27 598.058 1787.84 602.711 1780.62 C 619.647 1754.34 636.374 1727.89 653.776 1701.91 C 642.218 1695.33 629.079 1688.99 617.193 1682.4 C 590.822 1668.01 565.272 1652.16 540.664 1634.93 L 415.719 1634.8 C 397.839 1634.79 361.849 1633.8 345.639 1636.4 C 331.282 1638.57 317.498 1643.56 305.086 1651.1 C 295.378 1656.95 278.287 1670.06 274.646 1681.18 C 272.916 1686.94 272.614 1693.62 270.911 1699.34 C 261.302 1731.6 226.712 1748.1 194.983 1739.19 C 179.689 1734.86 166.787 1724.55 159.198 1710.58 C 151.303 1695.92 149.655 1678.7 154.626 1662.8 C 159.624 1647.29 170.543 1634.37 185.01 1626.86 C 203.223 1617.41 218.945 1619.14 237.447 1625.16 C 255.377 1605.17 274.776 1580.46 292.077 1559.52 C 319.341 1527.12 345.979 1494.2 371.976 1460.78 C 362.208 1447.74 349.315 1428.4 340.375 1414.63 C 214.882 1217.72 171.597 979.465 219.812 751.003 C 204.562 763.722 62.4646 878.01 54.0697 880.359 C 51.1068 881.189 49.3048 880.991 46.7026 879.441 C 41.6887 866.848 63.6744 854.926 72.1904 848.249 L 121.261 809.493 C 155.243 782.861 190.342 753.535 224.152 727.678 C 231.334 704.808 238.469 681.706 246.143 659.006 C 252.626 639.826 260.674 620.861 267.518 601.685 C 259.533 591.075 249.036 579.721 240.161 569.707 C 219.436 578.045 196.841 579.721 177.422 566.732 C 164.253 557.779 155.175 543.967 152.179 528.328 C 149.074 511.461 152.931 494.057 162.87 480.081 C 182.062 452.653 220.034 446.806 247.289 466.251 C 264.115 478.256 270.45 493.993 273.661 513.877 C 283.683 525.839 293.455 535.417 304.715 546.052 C 321.692 514.579 340.085 483.754 360.128 454.232 C 477.638 281.15 673.208 167.517 876.783 129.151 C 920.968 120.824 964.573 117.216 1009.77 115.508 z" fill="rgb(4,10,54)" transform="translate(0,0)"></path>
<path d="M 498.088 1329.86 L 1549.89 1329.84 C 1564.81 1349.84 1582.16 1369.51 1597.87 1389.13 C 1646.52 1449.82 1695.88 1509.93 1745.95 1569.45 C 1763.55 1590.41 1782.11 1611.06 1799.44 1631.95 C 1787.84 1642.97 1784.67 1647.92 1778.39 1662.68 C 1776 1660.05 1773.55 1657.46 1771.04 1654.94 C 1730.82 1615.06 1691.25 1621.92 1639.44 1621.99 L 1550.75 1622.1 L 721.493 1621.78 L 469.105 1621.76 L 398.619 1621.66 C 344.784 1621.45 312.349 1621.35 270.637 1661.55 C 265.27 1647.48 260.887 1641.72 249.083 1632.77 C 256.464 1622.39 268.085 1608.95 276.359 1598.89 L 324.282 1540.76 L 429.343 1412.25 C 452.424 1384.34 475.427 1358.28 498.088 1329.86 z" fill="rgb(255,255,255)" transform="translate(0,0)"></path>
<path d="M 1339.71 1415.45 C 1373.9 1409.57 1406.37 1432.53 1412.21 1466.72 C 1418.06 1500.91 1395.06 1533.35 1360.87 1539.16 C 1326.73 1544.96 1294.34 1522 1288.51 1487.87 C 1282.67 1453.74 1305.59 1421.33 1339.71 1415.45 z" fill="rgb(4,10,54)" transform="translate(0,0)"></path>
<path d="M 1338.93 1435.63 C 1361.96 1429.41 1385.65 1443.18 1391.65 1466.28 C 1397.65 1489.38 1383.65 1512.93 1360.5 1518.7 C 1337.66 1524.4 1314.49 1510.64 1308.58 1487.85 C 1302.66 1465.07 1316.2 1441.77 1338.93 1435.63 z" fill="rgb(255,255,255)" transform="translate(0,0)"></path>
<path d="M 848.143 1418.8 C 896.331 1418.02 956.693 1411.76 956.439 1480.93 C 956.379 1497.09 950.774 1507.45 939.897 1518.94 C 916.356 1540.41 879.202 1536.13 848.234 1535.47 C 847.229 1498.56 848.149 1456.1 848.143 1418.8 z" fill="rgb(4,10,54)" transform="translate(0,0)"></path>
<path d="M 867.836 1435.08 C 896.712 1434.79 933.846 1433.93 936.358 1473.6 C 937.208 1487.02 934.27 1496.69 925.143 1506.76 C 908.626 1520.73 888.432 1518.21 867.904 1518.07 L 867.836 1435.08 z" fill="rgb(255,255,255)" transform="translate(0,0)"></path>
<path d="M 1519.91 1417.98 L 1537.94 1417.99 L 1537.95 1536.74 C 1534.92 1538.32 1524.24 1537.06 1520.36 1536.78 C 1501.8 1511.68 1475.52 1481.44 1455.46 1456.53 C 1455.48 1483.38 1455.31 1510.22 1454.95 1537.06 L 1434.13 1536.95 L 1434.61 1417.99 C 1441.16 1417.94 1445.13 1418.29 1451.6 1418.94 C 1469.87 1445.16 1498.95 1477.07 1519.35 1503.43 L 1519.91 1417.98 z" fill="rgb(4,10,54)" transform="translate(0,0)"></path>
<path d="M 648.642 1418.23 L 733.134 1418.63 L 732.976 1434.98 L 668.786 1435.02 L 668.858 1466.49 C 688.009 1466.86 707.994 1466.61 727.211 1466.64 L 726.985 1483.34 C 708.1 1483.56 689.213 1483.59 670.328 1483.41 C 667.632 1486.76 668.806 1512.12 668.843 1518.13 L 736.399 1518.37 L 736.363 1535.83 C 707.18 1536.18 677.419 1535.91 648.189 1535.94 C 648.091 1496.7 648.242 1457.47 648.642 1418.23 z" fill="rgb(4,10,54)" transform="translate(0,0)"></path>
<path d="M 1176.15 1417.39 C 1191.67 1416.52 1204.97 1419.78 1218.59 1427.02 L 1212.15 1444.81 C 1198.01 1437.46 1174.65 1429.19 1160.36 1440.24 C 1158.23 1441.89 1152.72 1447.69 1153.84 1450.27 C 1163.44 1472.45 1200.79 1466.45 1216.66 1483.6 C 1221.74 1488.57 1224.7 1494.42 1224.63 1501.77 C 1224.38 1529.45 1197.54 1538.84 1173.98 1537.61 C 1156.84 1535.98 1145.89 1531.86 1131.8 1522.2 L 1139.52 1505.73 C 1154.67 1516.18 1166.49 1519.6 1184.96 1519.05 C 1205.68 1518.43 1210.26 1499.41 1191.65 1491.48 C 1175.42 1484.75 1136.65 1482.17 1134.36 1458.77 C 1131.39 1428.35 1151.88 1419.88 1176.15 1417.39 z" fill="rgb(4,10,54)" transform="translate(0,0)"></path>
<path d="M 1057.45 1418.19 C 1064.05 1418.01 1070.91 1418.06 1077.53 1418.02 C 1075.33 1424.27 1072.49 1430.98 1070 1437.18 C 1056.72 1469.11 1041.08 1504.29 1027.01 1536 C 1021.08 1535.96 1015.16 1535.85 1009.23 1535.66 C 999.069 1511 988.769 1486.38 978.333 1461.83 C 972.978 1449.15 964.646 1430.84 960.588 1418.27 L 981.205 1418.24 C 991.38 1445.59 1007.49 1484.19 1019.23 1510.7 C 1031.44 1479.65 1044.18 1448.81 1057.45 1418.19 z" fill="rgb(4,10,54)" transform="translate(0,0)"></path>
<path d="M 495.12 1418.27 L 578.822 1418.64 L 578.636 1435.01 C 560.602 1436.14 534.247 1435.22 515.578 1435.06 L 515.848 1469 C 524.399 1468.96 564.829 1468.21 570.054 1469.78 L 570.694 1471.88 L 570.63 1485.88 L 516.31 1485.8 C 515.931 1502.17 516.297 1519.53 516.39 1535.97 L 494.977 1536 L 495.12 1418.27 z" fill="rgb(4,10,54)" transform="translate(0,0)"></path>
<path d="M 755.621 1418.74 L 775.394 1418.61 C 775.82 1451.69 775.57 1485.35 775.647 1518.48 C 795.06 1518.7 815.32 1518.37 834.791 1518.31 L 834.898 1535.83 L 755.857 1535.98 C 756.031 1497.58 754.579 1456.54 755.621 1418.74 z" fill="rgb(4,10,54)" transform="translate(0,0)"></path>
<path d="M 1248.36 1417.5 L 1265.33 1417.47 C 1264.56 1445.53 1265.36 1474.17 1265.04 1502.25 C 1264.98 1507.82 1265.44 1531.2 1264.53 1535.34 L 1262.24 1535.97 L 1245.03 1535.97 C 1244.97 1522.46 1243.74 1423.33 1245.63 1418.05 L 1248.36 1417.5 z" fill="rgb(4,10,54)" transform="translate(0,0)"></path>
<path d="M 598.984 1418.56 L 619.009 1418.63 C 619.244 1457.74 619.267 1496.85 619.08 1535.96 L 598.852 1535.96 L 598.984 1418.56 z" fill="rgb(4,10,54)" transform="translate(0,0)"></path>
<path d="M 1092.32 1418.16 C 1098.99 1418.02 1105.96 1418.21 1112.65 1418.3 L 1112.27 1535.97 L 1092 1535.97 L 1092.32 1418.16 z" fill="rgb(4,10,54)" transform="translate(0,0)"></path>
<path d="M 1775.49 530.811 C 1776.02 531.34 1781.11 543.195 1782.85 546.066 C 1787.62 553.936 1790.5 557.138 1796.85 563.81 L 1652.23 738.451 L 1598.81 802.804 C 1587.13 816.844 1572.62 834.844 1559.93 847.58 C 1544.85 848.548 1524.91 848.184 1509.5 848.197 L 1432.18 848.327 L 1188.46 848.844 L 487.713 848.637 C 481.705 842.047 474.86 832.596 469.056 825.487 L 428.829 776.231 C 408.221 750.48 386.617 725.176 365.792 699.423 C 329.08 653.289 288.514 608.91 252.539 562.388 C 262.366 552.838 265.848 544.763 271.177 532.379 C 273.379 534.691 275.613 536.972 277.878 539.222 C 298.396 559.519 328.892 581.524 358.14 585.615 C 372.088 587.566 395.747 586.75 410.409 586.704 L 490.541 586.79 L 794.016 586.866 L 1649.42 586.931 C 1701.56 586.568 1739.26 567.533 1775.49 530.811 z" fill="rgb(255,255,255)" transform="translate(0,0)"></path>
<path d="M 803.227 662.252 C 832.727 660.632 857.378 671.071 863.392 703.086 C 870.388 740.325 861.387 777.112 818.528 784.934 C 785.876 786.417 763.802 771.815 757.414 738.776 C 750.729 704.194 765.204 668.873 803.227 662.252 z" fill="rgb(4,10,54)" transform="translate(0,0)"></path>
<path d="M 804.443 679.114 C 808.699 678.781 813.548 678.464 817.587 679.256 C 851.251 685.855 852.841 745.123 828.875 762.954 C 825.68 765.331 821.482 766.843 817.838 768.174 C 775.05 776.294 764.406 706.583 791.939 685.207 C 795.944 682.097 799.766 680.768 804.443 679.114 z" fill="rgb(255,255,255)" transform="translate(0,0)"></path>
<path d="M 928.484 662.282 C 975.612 659.018 992.823 695.083 987.851 736.016 C 984.574 762.993 970.254 779.713 943.241 784.76 C 911.934 786.472 888.052 772.653 883.105 739.603 C 877.924 704.99 888.469 668.099 928.484 662.282 z" fill="rgb(4,10,54)" transform="translate(0,0)"></path>
<path d="M 928.609 679.113 C 944.721 678.315 959.318 684.089 964.562 700.152 C 972.864 725.585 969.918 757.117 942.194 767.677 C 915.156 772.834 902.754 749.12 902.608 725.484 C 902.481 704.905 907.114 686.399 928.609 679.113 z" fill="rgb(255,255,255)" transform="translate(0,0)"></path>
<path d="M 1250.89 663.168 L 1271.99 663.443 L 1271.88 740.928 L 1290.42 741.061 L 1290.95 757.999 L 1271.98 757.848 L 1271.96 783.612 C 1265.52 783.835 1258.48 783.738 1251.98 783.779 C 1252 776.285 1252.36 765.58 1250.38 758.514 L 1248.25 757.545 L 1178.73 757.797 L 1178.73 740.526 C 1202.28 717.224 1227.9 684.372 1250.89 663.168 z" fill="rgb(4,10,54)" transform="translate(0,0)"></path>
<path d="M 1250.66 683.722 C 1251.9 691.263 1251.04 730.617 1250.97 740.257 L 1201.83 740.478 L 1201.4 739.393 C 1205.03 735.199 1209.02 731.383 1212.89 727.418 C 1226.37 713.604 1238.17 698.412 1250.66 683.722 z" fill="rgb(255,255,255)" transform="translate(0,0)"></path>
<path d="M 715.341 664.552 L 729.47 664.753 C 728.909 674.148 726.952 684.816 724.766 693.978 L 745.485 694.093 L 743.282 708.859 L 722.278 708.854 C 720.766 717.658 719.488 725.315 718.581 734.248 C 724.494 734.422 730.492 734.73 736.41 734.985 C 735.817 739.686 735.268 744.392 734.763 749.103 L 715.498 749.066 C 714.23 755.299 711.997 780.034 708.119 782.289 L 694.177 781.91 L 700.276 749.431 C 692.109 749.64 683.459 749.537 675.247 749.58 C 671.47 761.197 670.48 770.139 668.914 782.136 L 654.577 782.236 C 655.913 770.569 657.895 759.924 659.993 748.392 L 641.503 748.071 L 643.688 733.742 L 662.046 734.244 C 663.668 725.68 665.136 716.971 666.661 708.379 L 650.967 708.143 L 654.904 693.963 L 669.549 694.053 C 671.985 683.845 673.894 675.28 675.719 664.894 L 689.616 665.031 C 688.799 675.324 687.174 684.03 685.386 694.151 L 709.305 694.255 C 711.236 684.338 713.248 674.437 715.341 664.552 z" fill="rgb(4,10,54)" transform="translate(0,0)"></path>
<path d="M 682.057 708.845 L 706.465 708.844 L 702.288 734.991 L 677.265 734.774 C 678.562 726.2 680.402 717.383 682.057 708.845 z" fill="rgb(255,255,255)" transform="translate(0,0)"></path>
<path d="M 1046.53 661.343 C 1060.32 661.199 1076.3 663.35 1085.97 674.263 C 1091.76 680.796 1094.68 689.385 1094.07 698.093 C 1092.1 726.069 1055.08 748.753 1034.07 766.215 C 1053.63 767.177 1075.54 766.879 1095.27 767.027 L 1095.41 783.481 C 1076.95 784.143 1055.91 783.695 1037.25 783.734 L 1007.53 783.775 L 1007.6 766.581 C 1024.93 750.845 1113.27 695.315 1051.65 678.877 C 1039.04 675.513 1023.62 685.795 1014.24 693.608 C 1011.67 687.795 1008.62 683.195 1005.26 677.82 C 1018.6 667.194 1029.74 663.197 1046.53 661.343 z" fill="rgb(4,10,54)" transform="translate(0,0)"></path>
<path d="M 1299.89 663.685 L 1393.43 663.608 C 1393.17 679.159 1379.36 700.559 1371.81 714.468 L 1334.89 782.235 C 1332.06 784.762 1316.73 783.781 1311.79 783.726 C 1317.43 771.103 1325.46 757.269 1332.21 744.978 C 1343.82 723.586 1355.75 702.366 1367.99 681.325 C 1345.43 681.008 1322.86 680.84 1300.3 680.819 C 1300 675.327 1300 669.235 1299.89 663.685 z" fill="rgb(4,10,54)" transform="translate(0,0)"></path>
<path d="M 1113.03 663.891 L 1152.87 663.509 L 1153.21 783.942 L 1132.67 783.96 L 1132.61 680.29 L 1112.88 680.622 L 1113.03 663.891 z" fill="rgb(4,10,54)" transform="translate(0,0)"></path>
<path d="M 1401.08 904.858 C 1408.03 911.683 1434.37 949.411 1440.19 958.433 C 1426.86 988.431 1419.91 1018.97 1407.51 1048.13 C 1384.21 1056.23 1380.4 1084.34 1400.11 1095.21 C 1446.09 1120.56 1459.08 1034.45 1475.87 1007.84 L 1476.71 1006.53 C 1484.69 1018.58 1500.11 1048.98 1505.99 1062.53 C 1496.94 1084.21 1489.26 1106.42 1481.06 1128.43 C 1478.35 1135.71 1475.7 1143.04 1471.5 1149.63 C 1456.99 1154.2 1443.57 1162.58 1447.85 1180.33 C 1449.52 1187 1453.77 1192.74 1459.67 1196.28 C 1496.34 1218.58 1521.47 1147.87 1534.69 1125.18 C 1542.84 1142.87 1551.31 1160.91 1558.29 1179.08 C 1548.87 1201.22 1538.29 1228.74 1525.16 1248.75 C 1522.45 1252.88 1511.47 1258.84 1506.97 1264.96 C 1503.37 1269.81 1501.98 1275.95 1503.13 1281.87 C 1504.44 1288.63 1508.96 1294.54 1514.73 1298.18 C 1520.57 1301.89 1527.67 1303.09 1534.41 1301.5 C 1555.96 1296.42 1571 1254.03 1583.61 1233.1 C 1604.61 1272.98 1597.81 1299.55 1570.18 1333.52 C 1564.94 1326.54 1560.98 1320.97 1554.69 1314.83 C 1507.38 1317.05 1454.12 1315.88 1406.22 1316 L 1143.36 1316.32 L 491.577 1315.83 C 460.273 1355.26 421.503 1403.01 387.869 1440.62 C 382.109 1433.7 377.203 1426.65 371.987 1419.33 C 363.103 1407.18 355.021 1394.46 347.792 1381.26 C 364.248 1366.97 399.051 1343.03 417.744 1329.63 C 450.102 1306.42 482.629 1281.96 515 1259.02 C 525.726 1269.83 537.771 1276.97 553.658 1274.74 C 564.316 1273.17 573.907 1267.42 580.303 1258.75 C 586.822 1250.02 589.759 1239.55 588.036 1228.73 C 586.405 1218.03 580.502 1208.44 571.676 1202.17 C 562.265 1195.46 550.464 1193.03 539.169 1195.48 C 516.252 1200.24 503.361 1223.2 508.955 1245.54 C 496.388 1254.03 481.506 1265.69 469.041 1274.85 C 441.499 1295.23 413.837 1315.46 386.057 1335.52 C 371.241 1346.26 354.485 1358.9 339.071 1368.38 C 321.495 1341.97 292.693 1278.17 282.283 1248.45 C 297.475 1235.34 314.883 1223.53 331.151 1211.6 L 409.237 1153.9 C 448.827 1124.15 488.62 1094.67 528.613 1065.46 C 542.42 1055.36 558.916 1041.42 572.642 1032.46 C 594.118 1047.18 615.512 1053.64 639.584 1036.33 C 651.951 1027.44 656.581 1014.64 658.631 999.978 C 744.866 998.713 834.152 999.775 920.546 1000.02 C 920.992 1024.47 927.8 1046.18 943.61 1065.2 C 961.79 1087.03 988.01 1100.61 1016.33 1102.85 C 1044.21 1104.98 1071.77 1095.83 1092.84 1077.44 C 1117.94 1055.84 1124.64 1031.62 1127 1000.12 L 1280.95 999.958 C 1305.35 999.972 1329.74 1000.29 1354.13 1000.08 C 1376.08 999.885 1382.1 977.442 1386.18 959.967 C 1390.45 941.672 1394.02 922.302 1401.08 904.858 z" fill="rgb(255,255,255)" transform="translate(0,0)"></path>
<path d="M 921.361 1140.31 C 953.338 1137.77 981.558 1162.85 949.797 1186.66 C 960.128 1191.14 969.454 1196.93 971.295 1209.21 C 972.203 1215.33 970.586 1221.55 966.817 1226.45 C 959.027 1236.79 947.01 1239.08 935.237 1240.81 C 917.33 1241.45 898.521 1239.86 887.06 1223.97 C 876.457 1209.27 888.619 1195.84 901.255 1188.43 L 899.916 1187.18 C 876.541 1165.61 894.348 1143.92 921.361 1140.31 z" fill="rgb(4,10,54)" transform="translate(0,0)"></path>
<path d="M 915.816 1193.15 C 921.12 1193.03 926.739 1192.75 932.02 1193.07 C 961.355 1194.85 976.676 1220.12 940.521 1230.84 C 895.606 1237.4 876.711 1203.41 915.816 1193.15 z" fill="rgb(255,255,255)" transform="translate(0,0)"></path>
<path d="M 919.741 1149.1 C 956.333 1147.14 964.6 1178.02 933.193 1183.84 C 921.111 1184.17 905.961 1183.49 900.729 1170.46 C 895.827 1158.25 910.985 1151.73 919.741 1149.1 z" fill="rgb(255,255,255)" transform="translate(0,0)"></path>
<path d="M 1085.24 1141.15 C 1105.7 1139.69 1122.31 1146.96 1127.83 1167.9 C 1135.67 1197.63 1130.43 1231.92 1096.72 1240.97 C 1048.53 1243.11 1040.75 1192.53 1058.84 1157.79 C 1063.89 1148.09 1074.92 1143.45 1085.24 1141.15 z" fill="rgb(4,10,54)" transform="translate(0,0)"></path>
<path d="M 1084.47 1150.1 C 1121.96 1147.39 1124.34 1186.88 1115.45 1213.92 C 1112.68 1222.36 1106.15 1227.76 1098.05 1231.01 C 1059.91 1238.21 1055.7 1188.76 1067.52 1164.03 C 1071.27 1156.18 1076.38 1152.69 1084.47 1150.1 z" fill="rgb(255,255,255)" transform="translate(0,0)"></path>
<path d="M 762.712 1142.96 L 775.318 1142.94 C 774.645 1150.96 773.356 1159.92 772.485 1168.08 C 778.228 1167.87 784.234 1166.7 786.655 1173.18 C 783.917 1180.65 775.87 1179.5 769.503 1179.34 C 768.271 1186.44 767.245 1193.58 766.425 1200.74 C 773.25 1200.59 775.639 1199.25 779.933 1204.97 C 778.837 1213.33 770.081 1212.09 763.859 1211.94 C 762.355 1221.11 763.022 1229.56 759.363 1237.39 C 756.009 1240.1 756.29 1239.15 750.762 1239.22 C 749.122 1238.91 750.008 1239.24 748.253 1237.9 C 747.915 1233.59 750.964 1217.14 751.762 1211.94 L 729.408 1211.94 C 728.271 1220.78 726.759 1229.98 725.448 1238.83 L 712.976 1239.01 C 714.279 1229.71 715.442 1221.21 717.367 1211.99 L 712.489 1212.01 C 707.097 1212.06 704.566 1212.63 701.405 1207.53 C 703.545 1199.47 712.515 1200.91 719.091 1201.06 C 720.179 1193.62 720.776 1187.14 721.388 1179.63 C 714.952 1179.81 708.044 1181.27 705.769 1173.78 C 709.545 1166.24 716.682 1167.59 723.713 1167.87 C 725.52 1161.05 727.091 1150.19 728.357 1142.99 L 740.611 1143.07 L 736.553 1168.03 L 758.908 1168.24 C 760.811 1159.66 761.66 1151.66 762.712 1142.96 z" fill="rgb(4,10,54)" transform="translate(0,0)"></path>
<path d="M 734.366 1179.77 L 756.513 1179.72 C 755.418 1186.74 754.483 1193.77 753.708 1200.83 L 731.695 1200.84 C 732.797 1194.31 733.558 1186.44 734.366 1179.77 z" fill="rgb(255,255,255)" transform="translate(0,0)"></path>
<path d="M 1240.93 1141.9 C 1256.12 1141.81 1291.39 1140.41 1307.03 1142.98 C 1307.86 1143.11 1308.18 1144.87 1308.56 1145.97 C 1308.19 1147.29 1308.21 1148.31 1307.08 1149.22 C 1302.22 1153.18 1261 1151.06 1252.15 1151.04 L 1252.06 1186.94 C 1262.35 1186.98 1290.89 1186.06 1299.63 1187.54 L 1300.62 1189.14 C 1300.44 1193.06 1301.15 1193.89 1299.14 1196.18 C 1292.54 1197.53 1264.02 1196.78 1255.75 1196.73 C 1255.23 1196.75 1253.47 1197.27 1252.89 1197.42 C 1250.95 1202.51 1251.88 1223.55 1252.04 1230.45 C 1259.44 1230.62 1305.91 1229.83 1308.92 1231.99 C 1308.91 1235.51 1309.12 1235.98 1307.95 1239.36 C 1301.39 1240.8 1250.5 1240 1240.94 1239.97 L 1240.93 1141.9 z" fill="rgb(4,10,54)" transform="translate(0,0)"></path>
<path d="M 1174.61 1141.22 C 1176.75 1141 1178.89 1140.87 1181.04 1140.82 C 1197.85 1140.39 1218.52 1147.89 1216.88 1167.96 C 1214.84 1193 1177.94 1213.06 1160.68 1229.76 L 1159.62 1230.8 C 1175.61 1230.87 1191.6 1230.77 1207.58 1230.69 C 1211.7 1230.67 1219.02 1230.16 1221.76 1233.14 C 1222.06 1236.9 1222.34 1235.1 1220.58 1238.69 C 1216.91 1241.23 1188.27 1240.03 1181.87 1240 C 1175.13 1239.95 1149.71 1241.83 1146.35 1238.63 C 1146.5 1214.4 1203.7 1196.02 1204.94 1168.55 C 1205.12 1164.56 1203.57 1158.64 1200.42 1156.08 C 1185.19 1143.69 1167.68 1151.14 1155.57 1163.06 C 1152.94 1161.01 1150.06 1158.38 1147.5 1156.17 C 1156.11 1148.32 1163.72 1144.61 1174.61 1141.22 z" fill="rgb(4,10,54)" transform="translate(0,0)"></path>
<path d="M 826.113 1140.26 C 844.799 1138.54 868.532 1144.82 867.538 1167.01 C 866.521 1189.73 830.161 1214.46 814.469 1229.96 C 821.854 1230.14 863.784 1228.75 866.821 1231.73 C 867.009 1234.98 867.323 1236.12 866.065 1239.16 C 859.971 1240.54 825.56 1239.55 816.75 1239.44 C 811.246 1239.54 802.623 1240.06 797.544 1238.88 C 796.933 1236.56 796.915 1233.81 798.391 1231.94 C 813.485 1212.9 838.356 1199.3 852.439 1179.33 C 854.631 1176.22 855.741 1170.83 856.6 1167.06 C 847.589 1138.56 822.526 1146.34 804.818 1161.89 C 801.972 1161.75 798.78 1159.36 796.055 1157.76 C 805.296 1146.5 812.163 1142.69 826.113 1140.26 z" fill="rgb(4,10,54)" transform="translate(0,0)"></path>
<path d="M 1011.61 1141.39 L 1023.08 1141.26 C 1022.87 1156.18 1024.88 1230.54 1021.88 1239.5 C 1017.97 1240.7 1015.83 1240.08 1012.72 1237.67 C 1010.96 1233.43 1012.23 1224.83 1012.45 1219.45 L 1012.13 1151.09 C 1005.79 1152.77 992.719 1159.11 988.466 1158.16 C 987.226 1155.03 987.364 1155.23 987.987 1151.88 C 992.33 1144.95 1003.48 1143.28 1011.61 1141.39 z" fill="rgb(4,10,54)" transform="translate(0,0)"></path>
<path d="M 918.739 147.547 C 920.449 149.702 930.612 177.702 933.758 183.727 C 1001.93 314.322 1204.11 422.158 1332.25 480.384 C 1377.93 500.705 1424.25 519.54 1471.14 536.858 C 1494.69 545.543 1519.97 552.859 1544.02 560.123 C 1558.62 564.534 1574.19 568.151 1588.54 573.158 L 1272.3 573.354 L 1186.9 573.285 C 1168.93 573.246 1148.93 572.79 1131.18 573.777 C 1141.88 570.439 1151.57 569.207 1157.53 558.327 C 1167.13 544.738 1149.4 521.256 1135.41 525.129 C 1092.84 536.917 1042.11 552.022 1001.34 567.143 C 985.008 558.06 960.981 542.888 945.412 532.473 C 964.725 523.508 984.523 517.744 1004.55 510.878 C 1018.53 506.083 1042.94 504.034 1047.28 487.592 C 1048.85 481.794 1048 475.608 1044.93 470.444 C 1039.68 461.614 1027.43 456.198 1017.84 459.943 C 981.72 474.056 933.939 481.659 901.775 502.828 C 882.074 492.473 858.08 482.089 837.409 474.099 C 841.865 470.843 847.297 467.867 852.101 465.048 C 876.831 451.671 900.854 439.661 927.909 432.805 C 938.083 430.227 943.137 415.191 937.781 404.546 C 935.008 399.072 930.121 394.968 924.25 393.185 C 921.589 392.37 915.627 391.476 913.091 392.433 C 870.716 408.426 825.683 424.655 785.967 446.167 C 764.096 438.186 747.906 432.375 725.599 426.518 C 751.791 403.466 786.888 392.604 817.674 378.582 C 831.986 372.063 826.383 343.499 805.878 342.429 C 790.453 341.624 784.006 351.165 769.989 356.464 C 739.654 369.488 702.168 381.611 675.138 400.688 C 658.617 394.783 644.014 391.213 627.03 387.092 C 646.663 365.788 680.853 349.95 707.252 337.983 C 709.37 337.023 718.168 332.79 719.329 331.355 C 736.501 310.128 703.375 288.906 686.927 307.66 C 683.367 311.597 678.484 313.571 673.774 315.744 C 638.847 331.857 605.08 346.965 573.627 369.423 C 561.853 366.378 548.136 363.726 536.111 361.15 C 555.322 346.36 575.536 332.845 596.132 320.023 C 603.812 315.242 617.398 310.737 623.989 306.017 C 627.037 303.84 629.469 300.91 631.05 297.514 C 638.878 280.59 618.511 268.25 604.117 274.083 C 596.531 277.416 592.251 285.073 585.26 289.297 C 557.151 306.307 528.758 322.907 500.514 339.694 C 494.34 343.363 488.406 347.135 481.733 349.855 C 499.332 332.528 519.875 316.614 539.668 301.945 C 636.459 230.57 747.516 180.927 865.252 156.406 C 879.884 153.464 904.305 148.77 918.739 147.547 z" fill="rgb(255,255,255)" transform="translate(0,0)"></path>
<path d="M 1305.45 861.857 L 1355.33 861.747 C 1344.36 887.646 1346.18 919.792 1342.57 949.299 C 1322.99 955.761 1317.84 966.498 1323.86 986.019 L 1125.63 986.175 C 1122.35 974.945 1118.23 963.451 1112.57 953.2 C 1099.67 929.841 1077.93 912.648 1052.22 905.486 C 1025.45 898.068 996.829 901.469 972.537 914.957 C 943.853 931.248 930.256 954.688 921.774 985.6 C 843.833 987.035 762.679 986.06 684.5 986.167 L 658.295 986.148 C 653.494 971.4 646.216 960.129 631.872 952.879 C 619.348 946.689 604.837 945.886 591.706 950.656 C 560.329 961.741 554.481 992.141 565.054 1020.63 C 549.926 1031.05 535.309 1042.61 520.585 1053.64 L 450.595 1105.94 C 395.289 1147.74 333.292 1193.73 277.003 1233.6 C 261.825 1200.65 247.481 1139.82 240.385 1104.82 C 274.987 1076.32 321.173 1044.5 357.623 1017.46 C 405.975 981.606 456.932 940.891 505.929 906.706 C 514.45 911.936 522.424 914.492 532.602 913.718 C 542.951 913.02 552.543 908.048 559.078 899.993 C 568.714 888.065 568.012 876.692 566.689 862.74 L 732.94 862.5 L 1242.64 862.521 C 1246.04 902.894 1304.54 905.145 1305.45 861.857 z" fill="rgb(255,255,255)" transform="translate(0,0)"></path>
<path d="M 1758.21 630.714 C 1763.19 634.16 1777.4 678.377 1779.9 685.974 C 1815.95 795.843 1828.64 912.035 1817.15 1027.09 C 1814.9 1051.01 1811.29 1083.89 1805 1107.03 C 1793.34 1114.34 1776.34 1127.64 1765.1 1135.98 L 1698.63 1185.13 C 1669.91 1173.95 1614.11 1167.39 1582.73 1166.78 C 1573.64 1146.51 1564.82 1126.07 1554.61 1106.35 C 1587.81 1096.68 1607.86 1098.58 1635.8 1113.18 C 1650.27 1120.74 1679.99 1090.3 1662.91 1073.28 C 1650.79 1061.19 1619.7 1060.8 1602.23 1058.08 C 1577.89 1054.87 1556.33 1054.04 1531.83 1053.26 C 1522.98 1034.81 1508.96 1008.7 1496.89 992.566 C 1514.98 987.447 1539.42 986.647 1557.73 990.92 C 1567.87 993.287 1579.04 997.975 1589.61 996.853 C 1595.49 996.229 1601.6 990.622 1604.97 986.09 C 1609.09 980.563 1610.29 973.249 1608.95 966.547 C 1607.61 959.814 1603.36 953.797 1597.64 950.05 C 1579.58 938.226 1486.45 938.307 1463.53 943.377 C 1452.95 930.849 1427.09 898.659 1419.86 884.27 C 1433.35 879.758 1435.53 880.188 1450.56 879.081 C 1477.71 877.08 1512.23 897.021 1536.59 883.088 C 1544.62 878.495 1546.12 868.616 1547.22 860.911 L 1568.46 860.016 C 1595.23 824.893 1630.8 785.12 1659.16 750.492 C 1690.88 711.753 1725.41 668.273 1758.21 630.714 z" fill="rgb(255,255,255)" transform="translate(0,0)"></path>
<path d="M 471.664 358.695 L 472.642 359.466 C 472.321 362.69 461.002 375.853 458.307 380.248 C 454.193 386.869 451.215 395.628 449.266 403.097 C 446.717 412.867 445.401 423.122 444.774 433.194 C 444.249 443.306 441.835 452.794 447.48 461.941 C 454.288 472.972 471.837 477.687 482.336 469.331 C 498.562 456.416 488.354 429.686 490.885 411.964 C 492.799 398.563 499.407 391.651 509.518 383.836 L 510.674 382.953 C 526.505 384.565 540.279 387.269 555.887 390.243 C 554.795 394.325 553.878 398.453 553.14 402.614 C 550.239 419.848 549.582 439.789 548.318 457.309 C 548.005 465.21 546.327 473.705 547.073 481.554 C 548.93 501.095 573.408 509.972 588.354 498.156 C 603.206 486.414 598.802 471.361 596.936 455.394 C 594.821 437.285 592.499 422.305 608.633 410.014 L 609.689 409.223 C 627.196 412.235 644.241 417.351 661.284 422.287 C 659.495 441.897 657.858 461.52 656.374 481.155 C 655.113 497.21 650.151 525.997 664.499 535.776 C 683.789 548.924 704.987 534.52 705.944 512.326 C 706.51 499.182 702.36 454.979 710.469 447.764 L 713.632 448.385 C 733.51 456.227 753.589 461.252 772.665 471.46 C 769.697 486.977 768.107 504.823 766.316 520.701 C 764.379 537.876 761.949 556.344 760.738 573.506 L 489.979 573.833 L 411.183 573.983 C 378.598 574.04 353.942 577.827 325.436 558.894 C 353.38 502.684 388.285 450.213 429.329 402.717 C 440.755 389.241 457.917 369.825 471.664 358.695 z" fill="rgb(255,255,255)" transform="translate(0,0)"></path>
<path d="M 423.798 792.718 C 427.277 793.722 469.821 848.304 475.678 855.717 C 482.901 864.86 491.103 857.305 493.214 864.389 C 488.158 874.744 491.99 884.494 495.27 895.425 C 468.155 919.17 427.624 947.062 398.094 969.23 C 357.567 999.652 316.42 1030.52 275.382 1060.16 L 237.99 1087.57 C 228.071 1040.95 223.714 988.645 223.679 940.944 C 240.992 929.977 268.401 907.725 285.99 894.775 C 331.882 860.987 377.104 825.453 423.798 792.718 z" fill="rgb(255,255,255)" transform="translate(0,0)"></path>
<path d="M 1118.09 1634.83 C 1151.85 1633.75 1190.23 1634.59 1224.28 1634.63 C 1272.77 1634.44 1321.26 1634.65 1369.75 1635.26 C 1355.12 1661.89 1339.08 1687.63 1325.02 1714.58 C 1303.38 1723.98 1282.39 1730.21 1259.75 1736.57 C 1187.56 1757.56 1112.68 1767.83 1037.5 1767.04 C 1049.72 1744.44 1065.5 1719.51 1078.66 1697.39 C 1090.26 1677.89 1104.91 1652.82 1118.09 1634.83 z" fill="rgb(255,255,255)" transform="translate(0,0)"></path>
<path d="M 954.414 143.402 C 956.92 142.995 966.232 142.613 969.184 142.429 C 973.14 154.338 977.561 165.891 983.638 176.903 C 1051.53 299.919 1290 416.776 1419.31 469.055 C 1473.54 491.234 1528.99 510.271 1585.4 526.074 C 1613.96 534.21 1651.43 546.686 1681.15 541.014 C 1689.91 539.342 1699.62 533.901 1707.33 529.605 C 1713.3 537.72 1717.8 545.991 1722.17 555.019 C 1717.43 557.928 1712.36 560.335 1707.39 562.835 C 1665.7 583.019 1624.65 566.253 1582.89 555.694 C 1559.16 549.692 1533.98 541.606 1510.84 533.781 C 1389.72 492.842 1272.79 438.929 1162.99 373.45 C 1085.29 326.853 960.684 237.649 937.786 145.37 L 954.414 143.402 z" fill="rgb(255,255,255)" transform="translate(0,0)"></path>
<path d="M 1015.42 914.941 C 1063.73 910.429 1106.59 945.808 1111.32 994.091 C 1116.05 1042.37 1080.86 1085.4 1032.6 1090.34 C 984.032 1095.31 940.679 1059.85 935.921 1011.27 C 931.164 962.678 966.816 919.482 1015.42 914.941 z" fill="rgb(255,255,255)" transform="translate(0,0)"></path>
<path d="M 339.924 689.796 C 344.002 691.867 407.793 771.021 415.706 780.666 C 399.42 791.915 382.042 805.776 365.999 817.76 L 267.487 890.754 C 253.088 900.818 238.183 912.368 224.044 922.939 C 223.396 868.266 230.111 816.44 241.239 763.164 C 271.051 739.705 308.858 711.471 339.924 689.796 z" fill="rgb(255,255,255)" transform="translate(0,0)"></path>
<path d="M 955.46 1634.99 L 1098.27 1635.12 C 1072.51 1678.41 1046.47 1721.55 1020.17 1764.52 C 1019.72 1765.23 1018.9 1766.87 1018.27 1766.92 C 983.451 1769.99 912.96 1759.38 882.239 1753.28 C 905.812 1715.68 930.207 1670.77 955.46 1634.99 z" fill="rgb(255,255,255)" transform="translate(0,0)"></path>
<path d="M 1799.96 1129.93 C 1800.47 1135.75 1795.02 1155.9 1793.33 1162.62 C 1773.72 1240.47 1740.38 1314.65 1700.62 1384.18 C 1689.56 1403.52 1670.63 1424.25 1661.02 1443.28 L 1660.24 1444.86 C 1665.14 1424.64 1660.22 1419.43 1650.18 1402.01 C 1656.4 1393.9 1659.37 1390.78 1668.41 1385.76 C 1676.72 1386.46 1688.52 1388.59 1695.86 1383.64 C 1703.96 1378.46 1709.26 1360.81 1701.74 1353.51 C 1693.95 1345.93 1669.82 1347 1659.02 1346.58 C 1652.74 1346.06 1645.73 1345.88 1639.38 1345.58 C 1638.5 1338.33 1631.92 1313.11 1639.7 1309.07 C 1654.74 1300.51 1677.38 1315.39 1690.96 1315.09 C 1725.04 1314.35 1725.91 1273.81 1688.42 1270.64 C 1665.86 1268.73 1645.58 1262.62 1621.58 1264.07 C 1619.35 1251.65 1611.42 1229.1 1607.22 1216.28 C 1618.14 1212.63 1646 1211.42 1654.51 1217.97 C 1674.95 1233.71 1705.32 1228.97 1708.38 1196.45 C 1713.48 1192.25 1718.74 1188.21 1724.11 1184.35 C 1749.32 1166.26 1773.8 1146.61 1799.96 1129.93 z" fill="rgb(255,255,255)" transform="translate(0,0)"></path>
<path d="M 800.387 1634.49 C 845.359 1634.39 890.331 1634.54 935.302 1634.94 C 929.796 1645.64 920.188 1660.72 913.847 1671.3 C 899.542 1695.27 884.871 1719.02 869.837 1742.53 L 864.814 1750.3 C 820.357 1739.32 786.094 1729.27 743.177 1713.33 C 752.178 1695.09 779.297 1651.62 791.196 1634.77 L 800.387 1634.49 z" fill="rgb(255,255,255)" transform="translate(0,0)"></path>
<path d="M 1829 468.535 C 1855.13 464.567 1879.54 482.512 1883.55 508.639 C 1887.56 534.766 1869.65 559.203 1843.53 563.25 C 1817.35 567.306 1792.85 549.351 1788.83 523.168 C 1784.82 496.985 1802.81 472.512 1829 468.535 z" fill="rgb(255,255,255)" transform="translate(0,0)"></path>
<path d="M 1826.94 1634.15 C 1843.79 1630.76 1861.17 1636.69 1872.42 1649.7 C 1883.68 1662.7 1887.05 1680.76 1881.27 1696.95 C 1875.48 1713.14 1861.43 1724.97 1844.48 1727.9 C 1818.78 1732.34 1794.28 1715.31 1789.48 1689.68 C 1784.69 1664.04 1801.37 1639.31 1826.94 1634.15 z" fill="rgb(255,255,255)" transform="translate(0,0)"></path>
<path d="M 206.033 468.59 C 231.979 465.418 255.638 483.738 259.063 509.651 C 262.488 535.565 244.401 559.402 218.522 563.081 C 192.282 566.81 168.04 548.416 164.567 522.141 C 161.094 495.866 179.725 471.805 206.033 468.59 z" fill="rgb(255,255,255)" transform="translate(0,0)"></path>
<path d="M 206.339 1633.84 C 232.456 1630.33 256.44 1648.74 259.805 1674.88 C 263.17 1701.01 244.632 1724.9 218.479 1728.13 C 192.522 1731.33 168.856 1712.96 165.516 1687.02 C 162.176 1661.08 180.418 1637.32 206.339 1633.84 z" fill="rgb(255,255,255)" transform="translate(0,0)"></path>
<path d="M 649.612 1634.49 L 771.376 1634.99 C 763.983 1649.9 743.137 1682.71 734.077 1697.32 C 731.217 1701.81 730.131 1703.71 726.453 1707.69 C 693.877 1694.11 653.263 1676.4 622.755 1658.16 C 627.344 1649.69 633.259 1642.48 639.158 1634.91 L 649.612 1634.49 z" fill="rgb(255,255,255)" transform="translate(0,0)"></path>
<path d="M 1479.79 953.389 C 1503.75 950.244 1559.83 954.631 1584.38 958.826 C 1588.1 959.716 1595.82 963.729 1596.72 967.883 C 1599.21 979.359 1590.02 982.918 1582.09 985.904 C 1577.35 984.111 1570.71 980.372 1566.1 979.22 C 1545.14 973.98 1515.07 972.648 1494.54 979.608 C 1474.66 986.344 1465.42 997.973 1456.51 1015.72 C 1449.53 1031.77 1436.87 1078.58 1422.24 1085.24 C 1418.14 1087.1 1413.44 1087.37 1409.26 1085.57 C 1405.71 1084.05 1402.72 1081.07 1401.4 1077.42 C 1400.24 1074.29 1400.45 1070.81 1401.99 1067.85 C 1404.6 1062.86 1407.59 1062.2 1412.64 1060.79 L 1413.99 1060.42 C 1426.04 1045.3 1436.21 1005.59 1443.68 986.138 C 1447.72 975.628 1451.08 967.772 1455.88 957.429 C 1464.31 955.503 1471.23 954.475 1479.79 953.389 z" fill="rgb(222,24,58)" transform="translate(0,0)"></path>
<path d="M 916.373 405.206 C 922.29 406.21 927.244 407.853 927.916 414.797 C 924.109 422.483 909.532 423.879 901.718 427.389 C 880.718 436.821 822.709 459.175 813.82 481.398 C 805.789 501.476 804.01 550.451 802.088 573.931 L 785.75 573.934 L 774.813 573.815 C 774.615 558.093 777.544 540.589 779.005 524.892 C 780.499 508.84 782.197 492.754 785.238 476.938 C 790.072 451.795 811.833 445.312 832.616 437.067 C 852.649 429.166 872.979 421.539 893.023 413.637 C 900.626 410.64 908.413 407.1 916.373 405.206 z" fill="rgb(222,24,58)" transform="translate(0,0)"></path>
<path d="M 1523.54 1067.32 C 1556.6 1065.9 1585.31 1068.38 1617.96 1073.48 C 1628.88 1075.18 1639.36 1075.61 1650.45 1077.83 C 1654.27 1084.78 1656.01 1091.65 1649.94 1097.96 C 1640.52 1106.73 1631.89 1095.15 1625.63 1093.38 C 1589.82 1083.22 1555.01 1084.56 1529.04 1111.3 C 1511.53 1133.02 1506.07 1160.72 1486.47 1180.13 C 1481.62 1184.93 1473.12 1188.95 1466.42 1185.33 C 1463.56 1183.76 1461.47 1181.11 1460.61 1177.97 C 1459.73 1174.66 1460.38 1171.13 1462.38 1168.35 C 1465.5 1163.98 1469.71 1164.4 1475.03 1163.92 C 1496.05 1143.39 1502.23 1097.32 1517.18 1071.46 C 1519.27 1067.83 1519.96 1068.27 1523.54 1067.32 z" fill="rgb(222,24,58)" transform="translate(0,0)"></path>
<path d="M 800.736 354.828 C 806.122 354.458 810.3 356.114 812.629 361.107 C 812.497 364.523 811.468 367.871 807.944 369.146 C 774.642 381.174 741.819 395.976 714.548 418.905 C 687.997 440.371 692.987 471.803 693.284 501.99 C 693.408 514.599 693.623 524.567 679.9 528.07 C 673.479 526.669 666.891 523.502 667.393 515.63 C 669.331 485.578 669.368 454.017 674.455 424.397 C 678.057 408.855 701.99 399.597 714.748 393.803 C 744.177 380.436 772.962 371.273 800.736 354.828 z" fill="rgb(222,24,58)" transform="translate(0,0)"></path>
<path d="M 1429.57 861.488 L 1492.56 861.154 C 1503.53 861.06 1514.68 860.35 1525.61 860.932 C 1530.13 861.173 1533.96 861.698 1533.79 866.667 C 1531.38 870.116 1526.56 874.673 1522.45 874.674 C 1490.79 874.685 1459.24 858.872 1427.2 868.241 C 1416.72 871.303 1410.06 874.473 1405.68 885.049 C 1404.35 888.269 1399.89 887.825 1396.54 888.329 C 1388.37 894.185 1385.65 907.048 1382.9 916.506 C 1378.58 932.704 1373.16 976.561 1359.25 984.5 C 1354.59 987.171 1349.04 987.797 1343.9 986.23 C 1337.09 984.107 1332.56 978.377 1335.34 971.16 C 1338.07 964.066 1344.36 962.059 1350.71 959.088 C 1361.28 940.817 1358.25 913.007 1360.86 892.753 C 1362.33 881.327 1365.71 872.3 1370.48 861.923 L 1429.57 861.488 z" fill="rgb(222,24,58)" transform="translate(0,0)"></path>
<path d="M 1575.32 1180.22 C 1578.54 1180.1 1581.77 1180.03 1584.99 1180.01 C 1604.32 1179.92 1681.54 1187.56 1692.95 1198.82 C 1696.4 1208.17 1684.63 1212.9 1677.51 1215.95 C 1661.93 1206.83 1656.95 1201.62 1637.07 1199.97 C 1614.47 1198.1 1597.36 1203.74 1580.15 1218.28 C 1567.26 1231.54 1559.9 1249.88 1550.93 1266 C 1545.78 1275.06 1538.11 1290.79 1525.7 1289.67 C 1519.43 1289.11 1515.47 1281.5 1517.26 1275.76 C 1518.59 1270.88 1522.59 1268.61 1526.56 1265.87 C 1538.58 1257.58 1543.81 1243.22 1549.94 1230.59 C 1557.42 1215.21 1563.29 1198.83 1571.13 1183.65 C 1571.75 1182.46 1574.23 1180.92 1575.32 1180.22 z" fill="rgb(222,24,58)" transform="translate(0,0)"></path>
<path d="M 702.251 312.937 C 706.324 313.381 707.348 313.54 709.931 316.197 C 710.197 319.56 709.395 322.026 705.864 323.754 C 696.729 328.313 690.186 330.312 680.738 335.373 C 643.666 355.228 601.032 381.948 583.987 422.101 C 580.899 435.54 583.447 451.818 584.931 464.956 C 586.485 478.718 586.25 487.067 572.074 491.137 C 568.263 490.135 565.094 489.217 562.662 485.821 C 561.539 484.533 559.889 479.129 560.13 477.624 C 563.217 458.567 560.166 398.625 574.337 386.348 C 610.453 355.056 661.145 339.137 702.251 312.937 z" fill="rgb(222,24,58)" transform="translate(0,0)"></path>
<path d="M 822.531 498.213 C 834.17 501.424 875.058 521.509 886.447 527.55 C 885.986 537.398 885.515 564.146 882.403 572.533 L 880.25 573.436 C 858.784 573.66 837.316 573.58 815.852 573.195 C 817.542 548.209 818.822 522.981 822.531 498.213 z" fill="rgb(255,255,255)" transform="translate(0,0)"></path>
<path d="M 604.112 961.469 C 623.75 958.597 641.996 972.192 644.861 991.831 C 647.726 1011.47 634.124 1029.71 614.484 1032.57 C 594.854 1035.43 576.624 1021.83 573.761 1002.2 C 570.897 982.575 584.484 964.34 604.112 961.469 z" fill="rgb(255,255,255)" transform="translate(0,0)"></path>
<path d="M 285.375 624.034 C 293.135 629.911 322.967 669.582 329.225 677.929 C 316.725 689.857 288.211 709.679 273.431 720.575 C 264.463 727.36 255.55 734.217 246.694 741.146 C 253.735 706.374 270.776 656.422 285.375 624.034 z" fill="rgb(255,255,255)" transform="translate(0,0)"></path>
<path d="M 1021.76 471.989 C 1028.82 471.615 1034.65 474.652 1035.68 482.059 C 1031.83 493.773 985.715 501.427 973.529 507.794 C 962.551 513.53 944.462 514.787 934.795 524.677 C 923.309 536.427 926.039 559.042 926.16 573.565 L 910.049 573.427 L 896.302 573.48 C 897.312 557.889 896.755 533.412 903.307 519.394 C 911.633 501.584 999.122 481.215 1021.76 471.989 z" fill="rgb(222,24,58)" transform="translate(0,0)"></path>
<path d="M 1390.09 1635.05 C 1419.36 1634.57 1454.66 1634.12 1483.7 1635.44 C 1459.64 1648.23 1436.74 1662.83 1411.51 1676.03 C 1395.71 1684.1 1365.83 1699.37 1349.52 1704.87 C 1358.07 1685.98 1378.24 1653.1 1390.09 1635.05 z" fill="rgb(255,255,255)" transform="translate(0,0)"></path>
<path d="M 612.497 285.722 C 616.241 286.726 616.933 287.073 619.057 289.675 C 618.972 298 596.972 304.229 589.422 309.108 C 552.774 332.789 508.744 357.849 482.973 393.829 C 472.331 408.687 483.333 440.851 475.817 456.417 C 474.031 460.109 468.627 460.353 465.338 460.622 C 461.023 458.4 457.112 455.512 456.884 449.967 C 453.479 367.139 510.114 350.511 572.414 312.379 C 580.236 307.667 587.906 302.707 595.411 297.506 C 601.412 293.263 605.927 289.058 612.497 285.722 z" fill="rgb(222,24,58)" transform="translate(0,0)"></path>
<path d="M 1622.23 1277.16 C 1635.29 1276.18 1698.99 1281 1703.67 1291.4 C 1700.43 1309.9 1683.32 1299.3 1671.54 1296.01 C 1651.86 1290.52 1640.55 1293.12 1623.38 1302.69 C 1609.76 1310.7 1598.48 1336.46 1585.9 1351.61 C 1583.83 1349.16 1581.57 1346.05 1579.58 1343.46 C 1587.64 1332.75 1595.87 1321.15 1601.01 1308.68 C 1604.52 1300.16 1607.13 1289.02 1611.56 1281.18 C 1614.74 1278.35 1617.99 1278.12 1622.23 1277.16 z" fill="rgb(222,24,58)" transform="translate(0,0)"></path>
<path d="M 547.064 1208.39 C 561.399 1207.76 573.606 1218.71 574.539 1233.03 C 575.472 1247.35 564.789 1259.78 550.494 1261.02 C 540.971 1261.85 531.747 1257.46 526.383 1249.55 C 521.019 1241.64 520.354 1231.44 524.646 1222.9 C 528.938 1214.36 537.514 1208.81 547.064 1208.39 z" fill="rgb(255,255,255)" transform="translate(0,0)"></path>
<path d="M 1132.04 539.055 C 1151.32 537.223 1152.61 555.188 1134.4 560.051 C 1124.19 562.775 1111.32 565.59 1103.62 572.89 C 1081.99 572.748 1060.37 572.884 1038.75 573.298 L 1021.44 574.109 C 1055.68 560.324 1095.83 551.079 1132.04 539.055 z" fill="rgb(222,24,58)" transform="translate(0,0)"></path>
<path d="M 523.875 862.488 C 538.531 862.236 563.089 857.727 552.185 883.95 C 548.698 892.336 544.386 895.817 535.853 898.896 C 527.279 899.709 520.649 899.781 513.518 894.194 C 505.698 888.067 499.879 873.089 507.535 864.848 C 510.478 861.681 519.632 862.485 523.875 862.488 z" fill="rgb(255,255,255)" transform="translate(0,0)"></path>
<path d="M 1630.86 1360.21 C 1646.29 1358.69 1666.78 1360.59 1682.43 1360.91 C 1687.31 1361 1689.54 1362.3 1692.66 1365.83 C 1693.59 1369.21 1693.81 1367.7 1692.34 1370.55 C 1677.33 1380.88 1659.47 1360.94 1641.13 1393.44 L 1640.42 1394.72 C 1635.38 1409.85 1645.74 1414.18 1651.29 1430.66 L 1651.77 1432.12 C 1645.24 1425 1634.87 1408.64 1629.25 1400.23 C 1634.27 1382.31 1634.55 1378.56 1630.86 1360.21 z" fill="rgb(222,24,58)" transform="translate(0,0)"></path>
<path d="M 1256.7 861.711 C 1264.99 861.596 1290.26 857.951 1292.62 866.645 C 1291.63 871.037 1290.89 871.682 1288.3 875.534 C 1273.81 885.568 1256.73 881.225 1256.7 861.711 z" fill="rgb(222,24,58)" transform="translate(0,0)"></path>
<path d="M 1610.7 1338.86 C 1615.73 1344.57 1612.5 1373.38 1610.41 1380.98 L 1602.64 1373.04 C 1599.28 1369.28 1596.38 1365.5 1593.28 1361.53 C 1600.54 1354.3 1605 1347.35 1610.7 1338.86 z" fill="rgb(255,255,255)" transform="translate(0,0)"></path>
<path d="M 584.439 1635.16 C 594.512 1634.58 609.584 1635.09 620.035 1635.14 L 612.998 1646.43 C 611.476 1648.59 611.883 1648.08 609.953 1649.84 C 602.539 1649.66 590.567 1639.74 584.439 1635.16 z" fill="rgb(255,255,255)" transform="translate(0,0)"></path>
<path d="M 1543.07 1114.73 C 1549.54 1118.38 1566.82 1159.99 1570.43 1169.57 C 1565.39 1166.65 1546.73 1123.1 1543.07 1114.73 z" fill="rgb(153,31,61)" transform="translate(0,0)"></path>
<path d="M 1413.55 897.805 C 1417.74 901.387 1448.99 943.94 1450.17 948.085 C 1444.05 943.455 1415.54 904.555 1413.55 897.805 z" fill="rgb(153,31,61)" transform="translate(0,0)"></path>
<path d="M 1492.67 1006.67 C 1498.19 1014.99 1517.41 1046.25 1517.64 1055.21 C 1509.78 1044.22 1500.41 1020.9 1491.7 1008.38 L 1492.67 1006.67 z" fill="rgb(153,31,61)" transform="translate(0,0)"></path>
<path d="M 939.098 561.416 C 944.446 564.272 952.209 569.029 956.344 573.461 C 950.809 573.49 943.732 575.058 939.686 571.942 C 937.894 568.873 938.76 565.121 939.098 561.416 z" fill="rgb(255,255,255)" transform="translate(0,0)"></path>
<path d="M 1593.77 1223.73 C 1599.27 1226.95 1609.17 1258.41 1610.32 1265.38 C 1608.13 1263.79 1595.18 1228.51 1593.77 1223.73 z" fill="rgb(153,31,61)" transform="translate(0,0)"></path>
<path d="M 1622.25 1318.7 C 1624.87 1324.27 1628.05 1345.68 1625.98 1352.34 L 1624.78 1350.75 C 1623.68 1343.67 1620.4 1324.28 1622.25 1318.7 z" fill="rgb(222,24,58)" transform="translate(0,0)"></path>
<path d="M 1627.54 1363.61 C 1629.57 1369.15 1623.9 1387.47 1619.94 1391.19 L 1618.91 1390.67 C 1623.22 1380.62 1623.99 1372.75 1627.54 1363.61 z" fill="rgb(95,31,51)" transform="translate(0,0)"></path>
<path d="M 1491.7 1008.38 C 1489.47 1005.53 1487.8 1003.9 1486.86 1000.39 C 1489.57 1001.42 1490.58 1003.87 1492.67 1006.67 L 1491.7 1008.38 z" fill="rgb(95,31,51)" transform="translate(0,0)"></path>
<metadata><recraft-signature>{"signed_by": "recraft", "signature_b64": "AawQ5hgbMWuxmV4R0SO0zEmml9jYLrf5/03VVjbNwuTCQGU8MnXYEk3Gq7BJD8IYQua2Hz4Sra2EaV2sJnq8Ag==", "signing_algo": "Ed25519", "generation_timestamp": 1777331350, "identifier": "f988fd57-2b28-4637-84bc-14a18ee35431"}</recraft-signature></metadata></svg>