<svg xmlns="http://www.w3.org/2000/svg" height="1024" preserveAspectRatio="none" style="display: block;" version="1.1" viewBox="0 0 2048 2048" width="1024">
<defs>
	<linearGradient gradientUnits="userSpaceOnUse" id="Gradient1" x1="1431.13" x2="1430.85" y1="1498.14" y2="1494.48">
		<stop class="stop0" offset="0" stop-color="rgb(34,34,65)" stop-opacity="1"></stop>
		<stop class="stop1" offset="1" stop-color="rgb(41,54,76)" stop-opacity="1"></stop>
	</linearGradient>
</defs>
<path d="M 0 0 L 2048 0 L 2048 2048 L 0 2048 L 0 0 z" fill="rgb(255,255,255)" transform="translate(0,0)"></path>
<path d="M 1553.49 705.226 C 1564.6 704.063 1574.2 707.094 1583.92 712.469 C 1611.2 727.553 1613.13 750.217 1613.3 778.143 C 1613.35 785.027 1612.08 794.57 1615.21 800.733 C 1617.33 804.901 1629.49 809.347 1634.04 814.276 C 1645.52 826.716 1657.16 840.86 1667.61 853.949 C 1692.66 885.303 1698.26 922.512 1704.83 960.796 C 1706.7 971.738 1707.73 983.653 1710.07 994.594 C 1712.12 1004.12 1718.08 1012.73 1720.82 1022.2 C 1716.27 1033.22 1742.76 1071.18 1744.93 1086.56 C 1750.16 1116.54 1749 1146.09 1749.29 1176.23 C 1749.55 1203.29 1755.18 1235.95 1758.83 1262.69 C 1760.95 1278.16 1766.22 1304.03 1774.58 1316.61 C 1790.26 1340.18 1797.4 1361 1802.42 1388.83 C 1806.59 1410.41 1811.92 1432.49 1812.82 1454.86 C 1813.34 1467.66 1812.48 1480.36 1812.71 1493.28 C 1820.57 1503.06 1829.38 1527.87 1830.21 1540.93 C 1836.15 1542.46 1840.42 1542.88 1844.45 1547.37 L 1844.14 1549.31 C 1838.47 1553.25 1802.38 1555.24 1792.84 1556.13 C 1655.47 1569.02 1510.92 1576.22 1373.25 1568.12 C 1361.09 1567.38 1313.83 1565.29 1305.15 1559.08 L 1305.69 1557.98 C 1314.38 1554.71 1322.86 1554.13 1332 1552.93 C 1364.82 1548.62 1398.95 1546.82 1432.03 1544.82 C 1435.11 1544.64 1434.39 1544.86 1435.99 1542.93 C 1433.1 1538.4 1415.74 1535.81 1408.67 1532.56 C 1402.91 1529.88 1397.58 1526.39 1392.83 1522.18 C 1382.22 1512.82 1362.46 1486.07 1376.77 1471.69 C 1388.04 1460.36 1412.93 1480.56 1423.39 1483.44 C 1428.47 1484.84 1445.6 1484.67 1452.45 1484.98 L 1460.63 1477.52 C 1461.56 1466.44 1467.14 1452.55 1470.67 1441.66 C 1483.75 1401.35 1499.96 1362.03 1514.76 1322.36 C 1518.09 1311.04 1517.03 1298.81 1521 1287.62 C 1528.61 1266.17 1537 1244.85 1544.25 1223.3 C 1558.01 1182.35 1574.57 1142.2 1587.9 1101.17 C 1579.91 1100.84 1569.08 1100.39 1562.26 1096.06 C 1543.17 1083.95 1554.77 1031.72 1547.62 1010.86 C 1540.73 990.768 1528.39 978.38 1524.03 958.293 C 1514.97 962.652 1505.37 967.069 1495.12 966.578 C 1459.18 964.721 1473.69 929.72 1479.24 908.081 C 1485.92 881.99 1494.1 856.446 1500.3 830.303 C 1502.28 821.967 1502.79 810.789 1503.23 802.235 C 1494.03 800.64 1476.11 798.992 1470.07 793.42 C 1466.5 783.169 1486.62 770.171 1494.56 766.013 C 1496.99 721.431 1512.23 713.537 1553.49 705.226 z" fill="rgb(30,32,55)" transform="translate(0,0)"></path>
<path d="M 1627.23 1077.63 C 1650.43 1069.98 1675.94 1062.44 1700.69 1063.25 C 1705.4 1063.4 1713.27 1064.24 1717.41 1062.31 C 1717.8 1059.73 1715.28 1058.76 1713.03 1054.57 C 1714.39 1052.43 1713.46 1053.3 1716.4 1052.49 C 1717.06 1052.85 1717.62 1053.08 1718.11 1053.74 C 1747.33 1092.37 1735.57 1140.26 1738.74 1184.88 C 1741.38 1222.01 1747.25 1265.95 1756.96 1302.39 C 1761.19 1318.23 1773.52 1332.68 1779.7 1347.82 C 1793.68 1383.9 1803.04 1436.51 1803.91 1474.8 C 1797.79 1474.81 1791.37 1475.34 1785.24 1475.72 C 1775.58 1447.81 1772.04 1386.89 1752.08 1366.6 C 1734.9 1349.13 1711.41 1330.03 1693.02 1311.59 C 1707.68 1337.93 1739.26 1354.68 1753.01 1374.99 C 1764.07 1391.33 1775.77 1455.08 1780.74 1476.46 C 1774.04 1476.52 1766.57 1476.16 1759.8 1475.97 C 1755.53 1446.95 1741.35 1383.27 1724.11 1361.86 C 1699.84 1331.71 1695.18 1329.73 1679.63 1292.07 C 1673.73 1277.56 1667.51 1263.18 1660.97 1248.94 C 1667.83 1236.81 1675.04 1220.45 1682.55 1209.34 C 1708.85 1170.4 1733.14 1131.56 1719.94 1081.97 L 1716.8 1084.44 C 1720.56 1112.43 1718.98 1132.7 1706.09 1158.35 C 1698.77 1174 1687.35 1187.36 1678.62 1202.06 C 1657.02 1238.47 1633.38 1273.74 1613.9 1311.37 C 1604.41 1329.7 1596.29 1348.94 1587.46 1367.58 C 1576.04 1391.47 1564.01 1415.06 1551.4 1438.34 C 1545.35 1449.7 1527.27 1486.21 1517.62 1494.95 C 1513.31 1498.85 1491.9 1485.93 1486.03 1482.19 C 1490.23 1472.23 1494.47 1461.38 1499.07 1451.66 C 1532.71 1380.04 1559.2 1305.71 1587.81 1231.96 C 1603.08 1192.58 1621.52 1151.43 1629.89 1109.92 C 1632.27 1098.08 1630.16 1089.07 1627.23 1077.63 z" fill="rgb(255,255,255)" transform="translate(0,0)"></path>
<path d="M 1713.27 1068.02 C 1716.8 1073.74 1717.55 1075.78 1719.94 1081.97 L 1716.8 1084.44 C 1716.01 1079.03 1716.15 1074.42 1711.93 1071.24 C 1699.97 1070.48 1682.64 1075.61 1670.57 1077.94 C 1665.38 1078.94 1656.85 1083.7 1652.45 1080.89 L 1652.97 1079.91 C 1668.87 1072.01 1694.7 1071.52 1713.27 1068.02 z" fill="rgb(30,32,55)" transform="translate(0,0)"></path>
<path d="M 1657.67 1092.16 L 1660.23 1092.17 C 1664.96 1104.5 1670.91 1108.32 1685.38 1107.31 C 1691.6 1106.87 1699.37 1105.16 1703.09 1099.78 L 1704.68 1100.23 C 1705.51 1103.87 1705.65 1102.17 1704.54 1105.51 C 1691.03 1113.21 1679.18 1113.52 1664.97 1107.8 C 1667.56 1117.35 1674.58 1135.67 1687.32 1136.37 C 1699.2 1137.02 1699.49 1116.48 1705.31 1110.63 L 1706.88 1112.18 C 1708.3 1126.21 1693.6 1150.12 1676.45 1137.95 C 1663.38 1128.68 1660.79 1106.7 1657.67 1092.16 z" fill="rgb(51,51,75)" transform="translate(0,0)"></path>
<path d="M 1657.67 1092.16 C 1656.51 1087.92 1656.08 1089.59 1657.64 1086.67 C 1667.13 1083.8 1706.59 1074.17 1713.71 1081.29 L 1713.33 1082.83 C 1701.15 1088.88 1672.18 1088.52 1660.23 1092.17 L 1657.67 1092.16 z" fill="rgb(30,32,55)" transform="translate(0,0)"></path>
<path d="M 1682.08 1260.59 C 1687.16 1262.64 1733.42 1302.08 1736.59 1307.29 C 1723.1 1305.73 1690.23 1271.98 1682.08 1260.59 z" fill="rgb(30,32,55)" transform="translate(0,0)"></path>
<path d="M 1675.6 1223.03 C 1687.46 1227.85 1701.77 1244.76 1710.13 1254.39 C 1707.91 1254.08 1705.75 1253.39 1703.77 1252.33 C 1694.71 1247.58 1678.87 1233.03 1675.6 1223.03 z" fill="rgb(51,51,75)" transform="translate(0,0)"></path>
<path d="M 1710.23 1087.01 L 1711.8 1086.89 L 1712.3 1088.16 C 1710.22 1091.09 1708.16 1094.04 1706.11 1097 C 1703.14 1095.01 1701.84 1094.2 1702.14 1090.71 C 1704.44 1088.11 1706.82 1087.93 1710.23 1087.01 z" fill="rgb(51,51,75)" transform="translate(0,0)"></path>
<path d="M 1654.62 1260 C 1657.49 1264.33 1660.71 1273.59 1662.89 1278.74 C 1669.89 1295.27 1676.34 1313.57 1684.8 1329.36 C 1688.41 1336.1 1698.05 1346.97 1703.5 1352.63 C 1719.17 1368.87 1725 1383.52 1731.78 1404.7 C 1736.79 1420.3 1741.01 1436.14 1745.09 1451.99 C 1747.97 1463.12 1746.94 1478.53 1755.2 1487.05 C 1753.05 1495.34 1751.67 1499.31 1747.76 1506.75 C 1728.73 1517.67 1703.09 1511.61 1698.58 1536.91 C 1668.59 1539.12 1633.98 1538.95 1603.54 1539.77 C 1570.17 1540.33 1536.81 1541.32 1503.46 1542.74 C 1508.28 1529.07 1507.57 1519.18 1512.57 1505.37 C 1518.43 1505.53 1525.08 1506.52 1528.73 1501.01 C 1535.51 1490.77 1541.31 1479.7 1547.27 1468.94 C 1563.04 1440.59 1578.04 1411.83 1592.26 1382.67 C 1612.78 1339.62 1628.27 1300.9 1654.62 1260 z" fill="rgb(255,255,255)" transform="translate(0,0)"></path>
<path d="M 1576.36 841.927 C 1588.89 829.248 1605.94 819.779 1623.45 816.329 C 1635.9 828.05 1667.73 869.059 1675.31 883.908 C 1698.44 929.213 1695.73 988.427 1712.2 1036.34 C 1712.39 1038.8 1712.34 1038.66 1711.56 1041.03 L 1712.55 1042.22 C 1716.76 1042.49 1716.84 1041.71 1718.93 1043.98 L 1718.52 1045.92 C 1714.42 1048.21 1707.75 1048.64 1702.97 1049.04 L 1702.34 1047.44 L 1701.52 1047.04 C 1699.25 1050.05 1699.41 1050.03 1698.61 1053.53 L 1699.03 1054.89 L 1704.52 1054.06 L 1705.04 1054.67 C 1702.13 1055.43 1700.27 1056.19 1697.29 1055.78 L 1696.74 1053.28 C 1694.06 1051.93 1694.67 1052.9 1693.78 1050.84 C 1692.05 1042.52 1690.22 1029.96 1679.97 1028.5 C 1678.52 1038.94 1715.51 1063.82 1651.58 1058.41 C 1651.34 1054.54 1651.21 1046.53 1649.18 1043.67 C 1641.65 1033.03 1631.18 1024.18 1622.63 1013.87 C 1605.56 993.281 1596.12 974.454 1583.4 952.06 C 1589.2 978.961 1617.07 1025.92 1639.41 1040.24 C 1640.96 1041.21 1642.55 1042.11 1644.18 1042.93 C 1644.39 1049.25 1644.47 1055.71 1645.11 1061.98 C 1633.47 1066.47 1623.37 1072.06 1611.56 1066.39 C 1595.74 1058.78 1588.17 1047.48 1582.33 1031.86 C 1580.15 1025.87 1578.08 1019.85 1576.11 1013.78 C 1575.62 1035.51 1579.64 1052.14 1597.32 1065.98 C 1593.55 1066.08 1585.55 1066.05 1582.18 1066.72 L 1578.84 1068.28 C 1580.19 1068.99 1581.52 1069.81 1582.83 1070.58 C 1581.84 1072.52 1578.1 1073.62 1575.35 1075.16 C 1576.78 1077.45 1575.84 1076.48 1578.74 1077.57 C 1585.35 1076.64 1594.74 1071.9 1600.81 1068.86 C 1604.29 1069 1606.82 1071.43 1609.74 1073.55 C 1607.3 1073.97 1604.86 1074.44 1602.44 1074.98 C 1595.17 1076.65 1592.56 1079.72 1588.69 1085.89 C 1587.83 1087.27 1587.03 1087.66 1585.41 1088.14 C 1580.43 1089.62 1569.37 1087.17 1565.32 1084.03 C 1560.22 1080.09 1556.58 1016.32 1555.64 1005.44 C 1554.78 995.322 1553.27 978.506 1553.82 968.657 C 1554.24 967.237 1554.03 966.949 1553.94 965.363 C 1551.61 960.311 1551.69 948.437 1550.81 941.422 C 1548.93 938.682 1546.05 939.572 1542.84 939.496 C 1544.41 943.916 1548.62 979.546 1549.71 987.227 C 1542.5 974.602 1538.34 967.262 1533.59 953.432 C 1538.34 950.411 1540.92 949.831 1541.6 944.156 C 1539.65 940.625 1540.93 941.339 1538.15 940.089 C 1528.58 942.855 1481.93 976.046 1480.44 941.901 C 1480.35 939.825 1490.02 904.11 1491.32 902.008 C 1493.95 902.427 1493.43 902.328 1496.14 902.156 L 1496.44 901.006 L 1493.05 897.954 L 1493.4 897.12 L 1496.75 897.755 C 1504.13 891.492 1503.62 891.318 1512.06 896.233 C 1516.33 892.652 1519.99 889.683 1524.48 886.337 C 1536.45 895.926 1545.53 913.142 1556.7 914.761 L 1556.83 913.781 C 1548.19 905.437 1536.59 891.677 1528.86 882.141 C 1545.36 874.063 1551.61 864.699 1561.97 859.62 C 1572.2 848.901 1591.08 847.034 1604.39 842.157 C 1610.02 840.092 1613.76 836.973 1619.81 836.912 L 1618.11 834.252 C 1603.9 837.853 1590.87 839.828 1576.36 841.927 z" fill="rgb(255,255,255)" transform="translate(0,0)"></path>
<path d="M 1491.32 902.008 C 1493.95 902.427 1493.43 902.328 1496.14 902.156 L 1496.44 901.006 L 1493.05 897.954 L 1493.4 897.12 L 1496.75 897.755 C 1504.13 891.492 1503.62 891.318 1512.06 896.233 C 1524.47 906.241 1541.21 927.055 1553.29 933.887 C 1568.91 925.821 1584.63 915.503 1602.45 920.144 L 1603.25 921.24 C 1598.86 924.742 1592.68 925.237 1587.23 925.89 C 1602.78 930.939 1621.35 937.612 1637.51 939.699 C 1640.2 940.046 1639.99 940.001 1642.44 941.159 L 1642.89 942.452 C 1633.29 950.1 1588.43 933.654 1577.44 929.594 C 1568.45 933.988 1568.13 934.632 1560.66 941.907 C 1558.71 966.113 1564.52 1049.93 1582.18 1066.72 L 1578.84 1068.28 C 1580.19 1068.99 1581.52 1069.81 1582.83 1070.58 C 1581.84 1072.52 1578.1 1073.62 1575.35 1075.16 C 1576.78 1077.45 1575.84 1076.48 1578.74 1077.57 C 1585.35 1076.64 1594.74 1071.9 1600.81 1068.86 C 1604.29 1069 1606.82 1071.43 1609.74 1073.55 C 1607.3 1073.97 1604.86 1074.44 1602.44 1074.98 C 1595.17 1076.65 1592.56 1079.72 1588.69 1085.89 C 1587.83 1087.27 1587.03 1087.66 1585.41 1088.14 C 1580.43 1089.62 1569.37 1087.17 1565.32 1084.03 C 1560.22 1080.09 1556.58 1016.32 1555.64 1005.44 C 1554.78 995.322 1553.27 978.506 1553.82 968.657 C 1554.24 967.237 1554.03 966.949 1553.94 965.363 C 1551.61 960.311 1551.69 948.437 1550.81 941.422 C 1548.93 938.682 1546.05 939.572 1542.84 939.496 C 1544.41 943.916 1548.62 979.546 1549.71 987.227 C 1542.5 974.602 1538.34 967.262 1533.59 953.432 C 1538.34 950.411 1540.92 949.831 1541.6 944.156 C 1539.65 940.625 1540.93 941.339 1538.15 940.089 C 1528.58 942.855 1481.93 976.046 1480.44 941.901 C 1480.35 939.825 1490.02 904.11 1491.32 902.008 z" fill="rgb(51,51,75)" transform="translate(0,0)"></path>
<path d="M 1533.59 953.432 C 1538.34 950.411 1540.92 949.831 1541.6 944.156 C 1539.65 940.625 1540.93 941.339 1538.15 940.089 C 1528.58 942.855 1481.93 976.046 1480.44 941.901 C 1480.35 939.825 1490.02 904.11 1491.32 902.008 C 1494.51 909.519 1490.29 911.693 1493.02 916.494 C 1496.28 916.025 1508.22 905.781 1510.72 902.978 C 1518.74 911.148 1524.53 917.318 1531.95 926.139 C 1522.4 932.164 1506.72 941.083 1499.25 948.809 C 1514.7 945.92 1523.38 940.232 1534.32 929.089 C 1537.85 932.725 1539.85 935.49 1542.84 939.496 C 1544.41 943.916 1548.62 979.546 1549.71 987.227 C 1542.5 974.602 1538.34 967.262 1533.59 953.432 z" fill="rgb(255,255,255)" transform="translate(0,0)"></path>
<path d="M 1555.64 1005.44 C 1556.13 1001.47 1556.1 1000.82 1557.64 997.217 C 1560.46 1017.35 1563.15 1055.11 1578.84 1068.28 C 1580.19 1068.99 1581.52 1069.81 1582.83 1070.58 C 1581.84 1072.52 1578.1 1073.62 1575.35 1075.16 C 1576.78 1077.45 1575.84 1076.48 1578.74 1077.57 C 1585.35 1076.64 1594.74 1071.9 1600.81 1068.86 C 1604.29 1069 1606.82 1071.43 1609.74 1073.55 C 1607.3 1073.97 1604.86 1074.44 1602.44 1074.98 C 1595.17 1076.65 1592.56 1079.72 1588.69 1085.89 C 1587.83 1087.27 1587.03 1087.66 1585.41 1088.14 C 1580.43 1089.62 1569.37 1087.17 1565.32 1084.03 C 1560.22 1080.09 1556.58 1016.32 1555.64 1005.44 z" fill="rgb(255,255,255)" transform="translate(0,0)"></path>
<path d="M 1555.64 1005.44 C 1554.78 995.322 1553.27 978.506 1553.82 968.657 C 1555.51 977.843 1557.25 987.856 1557.64 997.217 C 1556.1 1000.82 1556.13 1001.47 1555.64 1005.44 z" fill="rgb(237,235,236)" transform="translate(0,0)"></path>
<path d="M 1550.81 941.422 C 1556.53 946.576 1553.82 957.51 1553.94 965.363 C 1551.61 960.311 1551.69 948.437 1550.81 941.422 z" fill="rgb(237,235,236)" transform="translate(0,0)"></path>
<path d="M 1680.35 1006.14 C 1693.21 1014.98 1700.65 1024.36 1710.17 1036.8 L 1712.2 1036.34 C 1712.39 1038.8 1712.34 1038.66 1711.56 1041.03 L 1712.55 1042.22 C 1716.76 1042.49 1716.84 1041.71 1718.93 1043.98 L 1718.52 1045.92 C 1714.42 1048.21 1707.75 1048.64 1702.97 1049.04 L 1702.34 1047.44 L 1701.52 1047.04 C 1699.25 1050.05 1699.41 1050.03 1698.61 1053.53 L 1699.03 1054.89 L 1704.52 1054.06 L 1705.04 1054.67 C 1702.13 1055.43 1700.27 1056.19 1697.29 1055.78 L 1696.74 1053.28 C 1694.06 1051.93 1694.67 1052.9 1693.78 1050.84 C 1699.52 1046.03 1702.21 1044.36 1708.75 1041.11 C 1695.75 1029.21 1690.71 1020.58 1680.35 1006.14 z" fill="rgb(51,51,75)" transform="translate(0,0)"></path>
<path d="M 1561.97 859.62 C 1571.08 858.666 1574.59 862.214 1581.25 868.125 C 1576.38 868.968 1566.23 862.451 1561.97 859.62 z" fill="rgb(30,32,55)" transform="translate(0,0)"></path>
<path d="M 1618.11 834.252 C 1621.63 833.073 1624.71 831.549 1628.2 832.403 L 1629.22 833.998 C 1627.24 837.346 1623.24 838.386 1619.81 836.912 L 1618.11 834.252 z" fill="rgb(51,51,75)" transform="translate(0,0)"></path>
<path d="M 1616.04 962.624 C 1620.37 963.84 1657.85 1018.72 1664.41 1026.28 C 1665.28 1027.28 1666.05 1030.72 1666.35 1032.15 C 1652.2 1022.84 1618.27 978.831 1616.04 962.624 z" fill="rgb(30,32,55)" transform="translate(0,0)"></path>
<path d="M 1565 957.666 C 1568.84 960.664 1584.27 996.953 1589.3 1005.11 C 1594.52 1013.57 1607.33 1030.07 1610.97 1037.43 C 1593.38 1034.73 1567.71 974.788 1565 957.666 z" fill="rgb(30,32,55)" transform="translate(0,0)"></path>
<path d="M 1657.09 983.114 C 1667.18 985.468 1691.43 997.659 1699.48 1004.95 C 1702.32 1007.51 1701.6 1007.01 1701.77 1010.39 C 1696.16 1010.36 1667.36 992.665 1660.63 988.645 C 1657.75 986.923 1657.61 985.732 1657.09 983.114 z" fill="rgb(30,32,55)" transform="translate(0,0)"></path>
<path d="M 1659.35 955.134 C 1670.22 955.737 1690.85 974.283 1693.67 985.028 C 1693.29 984.885 1692.91 984.762 1692.53 984.599 C 1689.38 983.209 1660.04 957.101 1659.35 955.134 z" fill="rgb(30,32,55)" transform="translate(0,0)"></path>
<path d="M 1574.68 884.355 L 1576.75 885.824 C 1578.37 889.514 1587.55 912.409 1587.51 915.264 C 1577.23 913.442 1572.92 892.713 1574.68 884.355 z" fill="rgb(51,51,75)" transform="translate(0,0)"></path>
<path d="M 1611.84 845.221 C 1616.98 844.89 1628.8 846.817 1634.29 847.68 C 1639.29 848.465 1641.1 848.485 1643.58 852.006 C 1636.46 854.884 1616.53 851.541 1611.84 845.221 z" fill="rgb(51,51,75)" transform="translate(0,0)"></path>
<path d="M 1590.99 878.674 C 1595.62 882.075 1603.41 898.586 1602.91 904.638 C 1600.88 904.95 1601.5 904.857 1599.39 904.483 C 1594.37 898.917 1590.68 886.084 1590.99 878.674 z" fill="rgb(30,32,55)" transform="translate(0,0)"></path>
<path d="M 1554.79 885.253 C 1563.12 887.63 1566.86 905.529 1569.4 913.514 C 1561.78 909.987 1557.4 893.219 1554.79 885.253 z" fill="rgb(30,32,55)" transform="translate(0,0)"></path>
<path d="M 1471.24 1472.24 C 1484.14 1427.19 1505.55 1381.57 1519.89 1336.66 C 1520.74 1334.01 1523.92 1333.25 1526.14 1332.48 C 1528.76 1322.43 1525.78 1308.44 1528.58 1298.41 C 1531.56 1287.71 1536.05 1276.49 1539.89 1266.02 C 1545.07 1251.65 1550.17 1237.24 1555.17 1222.8 C 1570.51 1179.1 1587.55 1135.78 1600.55 1091.42 C 1600.95 1090.04 1603.87 1087.89 1605.06 1085.13 L 1604.21 1084.02 L 1598.78 1084.76 L 1598.74 1083.65 C 1599.27 1083.19 1600.02 1082.49 1600.65 1082.09 C 1607.01 1078.1 1614.63 1076.65 1622.01 1078.03 C 1623.17 1083.52 1625.43 1090.49 1624.7 1095.69 L 1625.19 1099.5 C 1629.82 1113.6 1604.18 1174.98 1597.89 1191.09 L 1572.86 1255.91 C 1555.47 1300.33 1539.83 1344.37 1521.5 1388.53 C 1508.93 1418.81 1493.73 1449.67 1482.19 1479.91 C 1477.76 1477.29 1475.24 1475.34 1471.24 1472.24 z" fill="rgb(255,255,255)" transform="translate(0,0)"></path>
<path d="M 1625.19 1099.5 C 1619.38 1104.06 1607.78 1106.12 1602.77 1100.24 C 1606.54 1096.64 1618.95 1096.71 1624.7 1095.69 L 1625.19 1099.5 z" fill="rgb(51,51,75)" transform="translate(0,0)"></path>
<path d="M 1505.1 757.545 C 1504.74 734.783 1515.97 725.404 1535.84 717.912 C 1565.22 706.835 1591.78 718.825 1603.87 747.838 C 1575.42 757.005 1550.24 764.98 1519.94 764.485 C 1514.92 764.404 1509.05 765.493 1505.13 762.077 C 1505.41 760.148 1505.23 759.512 1505.1 757.545 z" fill="rgb(255,255,255)" transform="translate(0,0)"></path>
<path d="M 1554.9 749.719 C 1555.62 741.043 1547.96 732.587 1546.52 724.481 C 1553.54 722.214 1559.82 741.243 1561.77 746.57 C 1566.37 745.181 1570.11 743.694 1574.88 743.661 C 1572.86 746.716 1559.03 751.218 1555.05 752.656 L 1554.9 749.719 z" fill="rgb(51,51,75)" transform="translate(0,0)"></path>
<path d="M 1554.9 749.719 L 1555.05 752.656 C 1545.5 753.985 1510.52 757.607 1505.13 762.077 C 1505.41 760.148 1505.23 759.512 1505.1 757.545 C 1510.06 757.703 1548.98 751.083 1554.9 749.719 z" fill="rgb(51,51,75)" transform="translate(0,0)"></path>
<path d="M 1497.54 1529.6 C 1492.92 1541.03 1487.08 1559.06 1470.72 1553.17 C 1465.36 1551.24 1450.65 1545.41 1448.03 1540.54 C 1448.07 1537.44 1448.09 1536.53 1447.67 1533.36 C 1439.64 1527.34 1415.18 1524.18 1404.69 1515.76 C 1397.87 1510.29 1375.77 1490.98 1384.35 1480.82 C 1397.12 1475.65 1408.83 1490.57 1421.34 1493.69 C 1426.3 1493.82 1431.01 1493.94 1435.96 1494.31 C 1442.75 1495.53 1445.55 1494.22 1451.73 1494.82 L 1461.56 1493.96 C 1462.88 1496.32 1461.76 1499.8 1460.87 1502.3 C 1459.36 1506.52 1465.35 1517.72 1463.4 1520.53 L 1460.85 1519.97 L 1459.17 1521.24 C 1469.41 1534.89 1482.76 1534.88 1497.54 1529.6 z" fill="rgb(255,255,255)" transform="translate(0,0)"></path>
<path d="M 1451.73 1494.82 L 1461.56 1493.96 C 1462.88 1496.32 1461.76 1499.8 1460.87 1502.3 C 1459.36 1506.52 1465.35 1517.72 1463.4 1520.53 L 1460.85 1519.97 L 1459.17 1521.24 C 1451.46 1511.1 1456.49 1500.93 1443.62 1498.51 C 1447.57 1496.38 1446.53 1496.3 1451.73 1494.82 z" fill="rgb(51,51,75)" transform="translate(0,0)"></path>
<path d="M 1421.34 1493.69 C 1426.3 1493.82 1431.01 1493.94 1435.96 1494.31 C 1442.75 1495.53 1445.55 1494.22 1451.73 1494.82 C 1446.53 1496.3 1447.57 1496.38 1443.62 1498.51 C 1437.37 1499.54 1425.19 1502.07 1420.38 1497.47 L 1421.16 1495.42 L 1421.34 1493.69 z" fill="url(#Gradient1)" transform="translate(0,0)"></path>
<path d="M 1421.34 1493.69 C 1426.3 1493.82 1431.01 1493.94 1435.96 1494.31 C 1431.38 1497.06 1426.57 1495.95 1421.16 1495.42 L 1421.34 1493.69 z" fill="rgb(116,116,133)" transform="translate(0,0)"></path>
<path d="M 1494.86 889.135 C 1497.17 878.938 1507.85 832.195 1511.35 824.874 C 1516.46 821.651 1518.92 828.742 1523.78 822.54 L 1523.11 821.218 C 1520.19 820.1 1517.79 819.669 1516.22 817.135 C 1518.69 805.846 1531.68 814.095 1539.11 806.839 C 1543.66 802.396 1556.68 791.334 1556.62 784.642 C 1564.15 787.172 1561.85 792.011 1571.92 788.431 C 1574.14 786.533 1572.93 786.867 1575.39 786.586 C 1578.81 789.167 1577.76 787.563 1579.01 791.31 C 1577.67 792.617 1578.46 792.223 1576.63 792.503 L 1581.83 796.645 C 1581.65 799.133 1579.86 801.163 1577.92 802.939 C 1574.87 806.169 1575.68 804.379 1574.72 808.17 C 1579.13 813.749 1593.58 811.299 1598.92 807.013 C 1600.23 805.951 1601.51 804.852 1602.76 803.718 C 1605.39 805.654 1608.6 807.888 1610.97 810.03 C 1598.45 817.612 1587.08 824.379 1576.55 834.621 C 1575.72 835.433 1572.25 832.43 1571.64 836.211 C 1570.99 839.793 1571.38 840.416 1568.73 843.305 C 1558.72 847.268 1564.92 841.198 1554.43 849.21 C 1551.14 845.466 1546.07 840.206 1543.8 836.002 C 1544.35 833.983 1544.31 834.131 1545.18 832.09 C 1543.87 831.489 1543.76 831.283 1542.38 831.068 C 1538.29 833.147 1536.51 831.293 1533.93 828.263 L 1532.51 829.423 L 1530.61 828.428 L 1530.42 826.932 C 1532.43 824.033 1538.65 821.416 1542.47 818.979 C 1531.59 821.105 1515.69 824.119 1512.26 836.432 C 1510.86 841.457 1512.2 841.558 1509.25 846.961 C 1510.69 849.202 1510.82 849.157 1512.86 850.877 C 1514.77 854.87 1514.09 859.378 1513.98 863.982 C 1510.11 865.587 1505.64 866.937 1503.16 870.088 L 1503.58 871.644 C 1508.57 873.144 1509.4 870.36 1513.12 871.555 C 1512.67 884.208 1503.34 881.237 1494.86 889.135 z" fill="rgb(255,255,255)" transform="translate(0,0)"></path>
<path d="M 1542.47 818.979 C 1541.99 814.282 1541.23 812.956 1543.66 809.123 L 1545.39 809.065 C 1548.35 812.45 1548.33 814.576 1548.82 819.122 C 1545.19 821.442 1536.87 826.116 1533.93 828.263 L 1532.51 829.423 L 1530.61 828.428 L 1530.42 826.932 C 1532.43 824.033 1538.65 821.416 1542.47 818.979 z" fill="rgb(237,235,236)" transform="translate(0,0)"></path>
<path d="M 1571.92 788.431 C 1574.14 786.533 1572.93 786.867 1575.39 786.586 C 1578.81 789.167 1577.76 787.563 1579.01 791.31 C 1577.67 792.617 1578.46 792.223 1576.63 792.503 L 1581.83 796.645 C 1581.65 799.133 1579.86 801.163 1577.92 802.939 C 1572.52 798.726 1571.54 794.939 1571.92 788.431 z" fill="rgb(51,51,75)" transform="translate(0,0)"></path>
<path d="M 1548.82 819.122 L 1551.51 820.155 L 1551.75 821.827 C 1548.29 826.01 1544.35 827.824 1542.38 831.068 C 1538.29 833.147 1536.51 831.293 1533.93 828.263 C 1536.87 826.116 1545.19 821.442 1548.82 819.122 z" fill="rgb(51,51,75)" transform="translate(0,0)"></path>
<path d="M 1809.14 1507 L 1810.14 1507.61 C 1814.84 1515.15 1820.94 1529.33 1820.22 1538.4 C 1817.05 1543.54 1809.5 1543.66 1803.79 1544.13 C 1772.97 1546.63 1733.36 1553.19 1704.11 1540.97 C 1708.6 1540.94 1713.51 1541.78 1718 1542.27 C 1738.44 1544.47 1758.77 1544.29 1779.28 1543.4 C 1786.04 1543.1 1793.82 1543.47 1800.34 1541.81 L 1800.16 1541.01 L 1792.98 1539.27 C 1779.5 1537.16 1716.89 1540.32 1712.01 1532.11 C 1713.8 1527.49 1749.94 1512.74 1755.8 1512.58 L 1756.13 1513.4 C 1753.54 1514.77 1750.99 1516.18 1748.46 1517.65 C 1745.52 1519.4 1742.62 1521.17 1741.77 1524.54 C 1746.44 1531.43 1758.87 1518.72 1766.92 1517.44 C 1785.33 1514.52 1793.16 1517.67 1809.14 1507 z" fill="rgb(255,255,255)" transform="translate(0,0)"></path>
<path d="M 1468.99 1484.74 C 1480.89 1489.15 1491.69 1498.22 1505.39 1503.76 C 1503.2 1507.59 1500.7 1511.68 1498.95 1515.71 C 1497.57 1516.43 1482.38 1524.01 1481.14 1524.41 C 1475.7 1523.05 1468.6 1519.9 1465.52 1514.96 L 1466.02 1513.83 L 1471.19 1513.24 L 1471.66 1512.01 C 1469.13 1508.79 1468.78 1508.35 1467.07 1504.66 L 1467.95 1503.32 C 1468.33 1497.43 1468.92 1490.54 1468.99 1484.74 z" fill="rgb(255,255,255)" transform="translate(0,0)"></path>
<path d="M 1467.95 1503.32 C 1473.32 1510.45 1475.58 1515.54 1483.58 1519.76 L 1483.74 1521.35 L 1481.14 1524.41 C 1475.7 1523.05 1468.6 1519.9 1465.52 1514.96 L 1466.02 1513.83 L 1471.19 1513.24 L 1471.66 1512.01 C 1469.13 1508.79 1468.78 1508.35 1467.07 1504.66 L 1467.95 1503.32 z" fill="rgb(51,51,75)" transform="translate(0,0)"></path>
<path d="M 1799.07 1481.41 C 1802.03 1481.04 1800.79 1480.62 1803.02 1482.06 C 1804.52 1486.74 1804.08 1493.35 1804.09 1498.45 L 1795.81 1506.63 C 1787.52 1507.07 1776.71 1508.31 1768.73 1507.4 C 1766.14 1506.8 1764.53 1506.42 1761.97 1505.58 C 1760.73 1502.08 1764.66 1495.17 1765.4 1487.76 L 1765.53 1486.29 C 1775.7 1485.28 1788.65 1482.95 1799.07 1481.41 z" fill="rgb(255,255,255)" transform="translate(0,0)"></path>
<path d="M 1513.28 771.317 C 1523.16 770.839 1530.43 770.981 1540.24 771.317 C 1534.15 776.438 1514.32 790.88 1506.77 792.975 C 1495.51 793.21 1489.76 792.168 1478.71 789.897 C 1490.13 777.836 1496.69 773.7 1513.28 771.317 z" fill="rgb(255,255,255)" transform="translate(0,0)"></path>
<path d="M 1536.52 840.748 C 1537.34 841.572 1536.82 840.947 1537.56 842.965 C 1535.26 849.373 1528.45 849.658 1526.64 853.928 C 1522.79 863.014 1525.23 875.079 1516.69 882.269 C 1517.56 875.795 1521.64 848.846 1524.27 844.951 C 1528.06 843.777 1526.53 843.899 1531.03 845.943 C 1534.47 844.886 1533.83 844.423 1536.52 840.748 z" fill="rgb(255,255,255)" transform="translate(0,0)"></path>
<path d="M 1319.11 1556.54 C 1326.92 1555.8 1346.89 1555.76 1354.13 1557.97 C 1351.7 1559.31 1346.07 1559.05 1343.04 1559.13 C 1338.51 1559.45 1313.01 1561.58 1310.3 1558.42 C 1313.07 1556.56 1315.7 1556.79 1319.11 1556.54 z" fill="rgb(237,235,236)" transform="translate(0,0)"></path>
<path d="M 1578.5 761.095 C 1581.31 760.687 1581.77 760.239 1584.19 761.448 C 1581.78 764.826 1572.45 766.879 1568.3 767.844 C 1566.71 768.211 1564.45 768.312 1563.05 767.394 C 1564.94 764.417 1574.83 762.092 1578.5 761.095 z" fill="rgb(255,255,255)" transform="translate(0,0)"></path>
<path d="M 1536.1 852.193 L 1538.25 853.223 C 1538.6 856.453 1540.6 858.264 1541.72 861.331 L 1539.07 863.719 C 1537.11 865.619 1536.62 866.496 1534.01 867.215 C 1532.51 863.949 1535.09 856.345 1536.1 852.193 z" fill="rgb(237,235,236)" transform="translate(0,0)"></path>
<path d="M 1524.07 830.931 C 1524.67 839.059 1513.95 839.755 1519.75 851.655 C 1509.42 846.496 1519.4 836.159 1524.07 830.931 z" fill="rgb(237,235,236)" transform="translate(0,0)"></path>
<path d="M 527.969 478.407 C 553.737 476.32 568.667 480.781 583.99 503.092 C 575.69 497.184 564.299 489.043 553.98 487.089 C 530.066 482.562 505.401 490.837 485.305 503.129 C 462.007 517.38 460.152 531.046 454.351 555.173 C 492.647 561.475 544.743 554.194 582.903 550.411 C 582.74 564.168 583.109 605.604 571.604 613.897 L 569.794 613.428 C 567.99 610.855 568.383 606.193 568.804 603.01 C 569.897 594.753 561.399 581.463 552.601 581.303 C 541.896 588.433 552.187 606.617 541.731 611.186 C 532.802 609.599 531.312 593.444 522.033 583.374 L 521.144 582.426 C 499.58 589.162 489.353 594.742 472.933 610.212 C 479.029 612.476 499.333 615.566 500.906 616.739 C 501.747 620.284 501.979 618.678 500.462 621.755 L 495.663 622.479 L 494.913 623.956 C 496.463 626.074 496.873 626.101 496.927 628.623 C 485.061 642.024 469.578 611.412 460.259 609.778 L 459.405 611.18 C 461.116 617.207 473.7 627.645 478.943 632.562 C 479.087 637.525 478.99 639.484 478.354 644.407 C 488.734 655.508 496.123 667.531 504.891 679.819 C 516.196 695.663 529.756 684.112 546.103 679.473 C 551.839 669.946 581.739 637.632 592.879 644.386 C 591.797 649.122 574.18 660.528 568.984 666.103 C 553.329 682.898 540.499 701.478 527.79 720.503 C 524.035 726.125 520.189 738.667 516.44 741.735 C 503.406 753.19 489.032 763.044 475.827 774.365 C 465.083 783.575 453.645 792.353 443.081 801.762 C 431.47 812.103 420.43 823.104 409.001 833.658 C 417.944 845.357 474.125 894.67 486.983 904.177 C 501.749 890.753 516.511 882.234 533.503 872.258 C 543.201 866.484 591.531 838.49 599.6 838.325 L 600.616 839.346 C 598.438 846.402 571.639 860.415 564.763 864.471 C 551.024 872.508 537.565 881.014 524.408 889.972 C 525.887 905.178 546.574 955.861 541.306 965.152 C 531.995 961.668 517.563 909.615 514.156 898.78 C 505.235 903.552 494.772 911.35 486.038 917.189 C 481.249 914.442 475.593 909.575 471.162 906.04 C 452.472 917.597 434.413 929.121 414.33 938.299 C 407.251 941.535 395.498 951.97 388.319 949.667 C 387.637 948.309 386.202 945.844 385.006 945.073 C 372.394 936.947 361.487 929.107 350.286 918.947 C 324.706 895.745 300.281 871.523 275.491 847.487 C 266.455 838.726 256.931 829.614 247.788 820.894 C 229.83 806.958 218.067 810.184 205.059 785.124 C 212.109 765.436 202.481 765.388 222.19 748.855 C 229.576 741.678 245.174 739.849 252.949 733.583 C 275.557 715.364 273.469 707.262 305.564 713.892 C 334.241 693.033 360.843 673.161 390.424 653.181 C 403.685 644.224 438.741 620.296 450.062 609.996 C 436.809 609.639 404.666 609.753 398.993 596.37 C 391.164 577.898 433.504 562.487 444.725 557.962 C 447.376 509.525 481.225 482.686 527.969 478.407 z" fill="rgb(30,32,55)" transform="translate(0,0)"></path>
<path d="M 481.984 662.982 C 489.728 671.091 498.41 692.267 510.449 696.457 C 519.824 699.719 529.567 694.217 537.871 690.377 C 527.937 704.21 517.031 720.279 510.468 735.975 C 475.542 760.103 452.87 780.423 421.599 808.035 C 413.996 805.089 405.189 800.781 397.669 797.335 C 373.496 785.81 347.796 776.142 325.259 765.252 C 328.352 751.962 330.563 745.831 327.075 732.396 C 361.41 726.19 456.733 684.897 481.984 662.982 z" fill="rgb(255,255,255)" transform="translate(0,0)"></path>
<path d="M 245.902 750.483 C 249.743 750.049 261.98 759.571 270.583 762.889 L 257.013 748.039 C 263.552 750.575 265.714 751.348 271.229 755.418 C 287.117 767.143 281.991 775.407 283.383 791.815 C 283.541 793.684 285.918 799.559 287.635 801.165 C 308.233 820.428 334.941 834.696 358.599 849.868 C 367.345 855.476 374.831 860.733 383.102 866.123 C 386.74 864.673 384.557 860.288 385.701 859.309 C 391.076 854.709 399.563 847.813 404.856 843.495 C 424.602 861.709 442.501 880.544 462.763 898.567 L 447.827 908.086 C 429.992 920.478 411.355 927.077 393.229 938.702 C 357.619 917.069 321.739 877.972 291.359 848.832 C 275.838 833.946 262.442 818.596 243.894 807.001 C 246.646 794.868 249.695 789.753 251.199 776.575 C 240.373 771.558 235.509 767.264 225.712 760.937 C 232.655 752.342 235.256 751.672 245.902 750.483 z" fill="rgb(255,255,255)" transform="translate(0,0)"></path>
<path d="M 315.556 735.206 L 317.529 735.202 C 326.866 742.354 310.906 761.6 317.308 770.937 C 319.157 773.634 403.211 811.275 413.974 815.56 C 407.395 821.887 401.393 827.023 396.966 835.195 C 394.021 840.629 390.333 843.025 385.512 846.706 C 384.487 847.561 380.049 850.432 378.732 851.324 C 356.913 836.594 305.817 807.665 292.339 790.196 C 292.395 774.993 292.546 772.319 285.931 758.819 C 298.085 754.102 297.232 748.545 303.706 737.844 C 307.608 736.685 311.561 735.999 315.556 735.206 z" fill="rgb(255,255,255)" transform="translate(0,0)"></path>
<path d="M 455.776 563.132 C 458.573 563.162 469.18 564.73 473.09 565.067 C 485.073 566.1 496.167 566.511 508.181 566.868 C 497.229 582.512 477.248 591.816 459.869 598.37 C 448.536 601.645 415.612 604.812 409.956 592.129 C 409.125 577.25 444.385 566.587 455.776 563.132 z" fill="rgb(255,255,255)" transform="translate(0,0)"></path>
<path d="M 470.284 650.875 C 473.137 652.17 474.536 654.549 476.761 657.147 C 461.891 664.37 445.894 674.275 430.784 682.066 C 393.728 701.173 356.389 717.317 315.713 726.836 C 314.452 727.102 313.384 727.165 312.101 727.297 L 311.196 725.858 C 312.975 723.476 334.65 715.229 339.631 713.031 C 383.942 693.48 426.842 672.226 470.284 650.875 z" fill="rgb(255,255,255)" transform="translate(0,0)"></path>
<path d="M 460.316 631.073 C 464.829 634.703 469.126 636.315 469.368 642.55 C 468.959 643.546 468.549 644.542 468.14 645.538 C 446.796 658.768 399.967 680.29 379.684 689.517 C 376.76 690.974 375.032 692.517 372.339 692.242 C 386.244 679.941 404.643 669.463 420.023 658.871 C 433.546 649.557 446.61 640.153 460.316 631.073 z" fill="rgb(255,255,255)" transform="translate(0,0)"></path>
<path d="M 452.756 620.94 C 453.013 621.709 454.073 623.844 453.274 624.425 C 413.951 653.029 368.791 692.109 325.173 712.971 L 324.699 712.643 L 324.827 711.549 C 361.09 682.566 413.767 647.998 452.756 620.94 z" fill="rgb(255,255,255)" transform="translate(0,0)"></path>
<path d="M 282.263 721.056 C 289.048 720.407 304.405 718.886 307.656 726.559 C 305.465 734.551 294.046 734.504 287.067 735.396 L 282.947 735.978 C 281.951 737.343 282.649 736.678 280.566 737.621 C 274.675 736.557 273.006 733.569 273.534 727.903 C 274.968 724.7 276.946 723.995 279.988 722.152 L 282.263 721.056 z" fill="rgb(255,255,255)" transform="translate(0,0)"></path>
<path d="M 279.988 722.152 C 280.436 727.15 280.266 731.832 282.947 735.978 C 281.951 737.343 282.649 736.678 280.566 737.621 C 274.675 736.557 273.006 733.569 273.534 727.903 C 274.968 724.7 276.946 723.995 279.988 722.152 z" fill="rgb(255,255,255)" transform="translate(0,0)"></path>
<path d="M 279.988 722.152 L 282.263 721.056 C 283.567 727.475 283.646 729.665 287.067 735.396 L 282.947 735.978 C 280.266 731.832 280.436 727.15 279.988 722.152 z" fill="rgb(51,51,75)" transform="translate(0,0)"></path>
<path d="M 215.41 778.239 C 222.512 780.59 233.27 786.276 237.871 792.629 C 238.248 796.653 238.096 795.443 235.908 799.651 L 234.818 799.947 C 222.513 797.149 213.975 792.36 215.41 778.239 z" fill="rgb(255,255,255)" transform="translate(0,0)"></path>
<path d="M 222.769 762.39 C 224.891 763.14 241.984 780.86 241.414 784.458 L 238.654 785.093 C 231.768 781.868 219.752 778.067 217.86 770.183 C 218.431 766.457 220.188 765.195 222.769 762.39 z" fill="rgb(255,255,255)" transform="translate(0,0)"></path>
<path d="M 270.108 741.574 C 278.531 744.49 289.479 744.346 292.562 747.101 L 291.975 750.375 C 281.206 755.1 276.767 749.867 270.108 741.574 z" fill="rgb(255,255,255)" transform="translate(0,0)"></path>
<path d="M 1217.11 716.968 L 1267.54 716.969 C 1277.92 716.961 1288.63 716.632 1298.84 717.346 C 1376.38 722.993 1414.92 792.995 1411.55 864.963 C 1409.59 906.917 1402.02 934.647 1374.45 967.026 C 1372.53 969.049 1370.58 971.048 1368.6 973.023 C 1337.57 1003.89 1307.67 1005.06 1267.27 1004.97 L 1217.24 1004.78 C 1215.92 976.294 1217 938.544 1216.96 909.463 L 1217.11 716.968 z" fill="rgb(170,61,62)" transform="translate(0,0)"></path>
<path d="M 1268.43 769.397 C 1291.64 769.197 1308.2 766.906 1327.69 782.244 C 1345.93 796.6 1356.49 823.194 1358.83 845.74 C 1362.09 877.035 1356.94 904.209 1337.43 929.137 C 1336.3 930.295 1335.16 931.444 1334.01 932.585 C 1312.43 953.972 1296.95 952.169 1268.84 952 L 1268.43 769.397 z" fill="rgb(255,255,255)" transform="translate(0,0)"></path>
<path d="M 1146.7 1069.28 C 1277.14 1060.54 1292.96 1270.79 1172 1294.73 C 1149.2 1297.73 1130.57 1293.43 1111.35 1280.57 C 1036.84 1230.72 1049.89 1084.63 1146.7 1069.28 z" fill="rgb(51,51,75)" transform="translate(0,0)"></path>
<path d="M 1153.88 1112.31 C 1228.41 1107.57 1239.94 1235.89 1165.62 1251.2 C 1084.63 1252.64 1079.31 1124.16 1153.88 1112.31 z" fill="rgb(255,255,255)" transform="translate(0,0)"></path>
<path d="M 897.062 713.991 L 1020.01 714.323 L 1020.15 770.022 L 947.025 770.22 L 947.047 830.467 C 969.097 830.249 991.149 830.32 1013.2 830.679 C 1013.27 849.118 1013.2 867.557 1012.99 885.995 L 947.177 885.725 L 947.253 941.25 C 947.13 944.412 946.794 945.186 948.169 948.014 C 953.054 949.738 1011.47 948.649 1021.25 948.832 C 1021.43 967.34 1021.41 985.849 1021.2 1004.36 C 981.925 1005.56 936.621 1004.81 897.132 1004.6 C 896.257 971.907 896.961 936.352 896.973 903.479 L 897.062 713.991 z" fill="rgb(170,61,62)" transform="translate(0,0)"></path>
<path d="M 629.032 714.981 C 670.695 714.499 713.52 714.988 755.258 715.01 L 755.177 770.298 L 681.121 770.256 L 681.117 832.261 L 747.755 832.291 C 747.816 850.878 747.727 869.465 747.49 888.051 L 705.5 887.963 L 681.031 887.996 C 680.987 926.72 680.731 965.443 680.264 1004.16 C 663.79 1004.86 646.009 1004.49 629.418 1004.43 C 628.226 976.56 629.189 940.176 629.102 911.844 L 629.032 714.981 z" fill="rgb(170,61,62)" transform="translate(0,0)"></path>
<path d="M 1301.95 1071.54 L 1318.43 1071.07 C 1341.38 1116.82 1367.94 1165.97 1392.27 1211.37 L 1392.44 1071.21 L 1428.81 1071.37 L 1428.31 1293.01 L 1415.83 1292.98 L 1391.09 1292.94 C 1373.98 1257.65 1353.68 1223.49 1335.39 1188.76 C 1330.23 1178.97 1324.61 1168.8 1318.81 1159.42 L 1318.85 1292.88 C 1306.64 1292.73 1294.31 1292.83 1282.09 1292.84 L 1282.07 1071.73 L 1301.95 1071.54 z" fill="rgb(51,51,75)" transform="translate(0,0)"></path>
<path d="M 1065.02 714.998 L 1114.98 715.02 L 1114.98 949.165 L 1180.86 949.083 L 1180.95 1004.16 C 1155.61 1005.94 1128.13 1003.9 1102.6 1004.76 C 1090.84 1005.15 1076.98 1005.01 1065.25 1004.25 C 1063.66 976.982 1064.91 933.408 1064.93 905.086 L 1065.02 714.998 z" fill="rgb(170,61,62)" transform="translate(0,0)"></path>
<path d="M 904.544 1069.18 C 933.306 1067.39 948.324 1075.79 967.861 1096.4 C 961.195 1106.63 950.775 1120.04 942.962 1129.47 C 933.961 1120.3 925.596 1110.28 911.531 1110.19 C 899.449 1110.12 891.184 1121.85 891.939 1133.22 C 893.049 1150.16 916.175 1156.99 929.306 1163.86 C 955.764 1177.06 971.125 1196.64 970.745 1227.29 C 970.244 1267.64 946.413 1295.13 905.245 1295.07 C 903.095 1294.95 900.951 1294.75 898.817 1294.46 C 873.936 1291.11 859.092 1276.92 844.702 1257.8 C 850.426 1250.07 866.019 1235.56 873.288 1228.47 C 881.977 1242.47 896.152 1254.33 913.947 1252.86 C 926.572 1251.81 934.483 1235.95 931.341 1224.18 C 925.284 1204.01 900.232 1197.78 882.875 1187 C 850.015 1166.59 846.899 1123.26 866.434 1092.58 C 875.288 1078.68 888.172 1072.43 904.544 1069.18 z" fill="rgb(51,51,75)" transform="translate(0,0)"></path>
<path d="M 764.763 1071.49 L 765.529 1072.31 C 764.989 1078.08 762.007 1083.22 760.386 1088.82 C 754.62 1108.75 747.594 1128.21 740.889 1147.84 L 692.359 1292.68 L 662.667 1292.7 C 647.616 1237.04 629.687 1181.31 612.914 1126.01 L 595.976 1071.78 L 636.048 1071.68 C 650.936 1124.22 667.224 1176.35 680.971 1229.02 C 686.296 1211.53 691.018 1191.26 696.223 1173.09 L 726.087 1071.82 C 738.98 1071.83 751.873 1071.72 764.763 1071.49 z" fill="rgb(51,51,75)" transform="translate(0,0)"></path>
<path d="M 795.355 714.812 C 812.094 714.674 829.253 714.99 846.024 715.114 L 846.056 917.438 L 846.27 973.256 C 846.309 981.414 846.758 997.333 845.74 1004.87 L 795.432 1004.9 C 795.409 909.017 794.209 810.291 795.355 714.812 z" fill="rgb(170,61,62)" transform="translate(0,0)"></path>
<path d="M 786.64 1071.07 L 823.218 1071.18 L 823.063 1292.88 L 786.215 1292.65 C 785.523 1218.79 785.664 1144.92 786.64 1071.07 z" fill="rgb(51,51,75)" transform="translate(0,0)"></path>
<path d="M 998.918 1071.38 L 1035.59 1071.25 C 1035.71 1143.34 1037.52 1221.01 1035.08 1292.55 L 998.853 1292.52 L 998.918 1071.38 z" fill="rgb(51,51,75)" transform="translate(0,0)"></path>
<path d="M 593.24 819.827 C 594.354 820.245 593.734 819.878 594.767 821.356 C 594.401 821.961 593.881 822.916 593.315 823.289 C 558.01 846.545 512.14 869.295 469.241 866.312 C 467.739 865.83 468.573 866.243 466.972 864.685 C 469.898 862.833 496.122 859.633 502.533 858.078 C 534.971 850.21 563.08 832.421 593.24 819.827 z" fill="rgb(51,51,75)" transform="translate(0,0)"></path>
<path d="M 537.971 791.554 C 546.19 791.202 562.279 789.885 569.407 792.751 L 568.411 793.893 C 549.3 799.327 511.131 798.959 489.841 799.761 C 483.55 799.9 461.417 801.471 457.493 798.56 L 457.424 796.919 C 462.854 792.099 525.306 791.908 537.971 791.554 z" fill="rgb(51,51,75)" transform="translate(0,0)"></path>
<path d="M 577.282 686.156 C 583.684 685.237 588.393 685.121 593.467 689.287 C 592.216 691.344 585.652 690.843 581.911 691.715 C 570.609 694.348 557.965 702.255 548.052 708.167 C 541.67 712.359 539.257 713.785 532.307 716.866 C 543.674 700.376 557.851 690.604 577.282 686.156 z" fill="rgb(51,51,75)" transform="translate(0,0)"></path>
<path d="M 549.101 733.375 C 557.009 733.027 560.447 732.375 568.016 735.02 L 568.442 736.128 C 562.612 740.314 547.1 740.787 539.755 741.224 C 535.372 741.887 526.443 744.085 523.387 740.661 C 526.583 735.629 543.294 734.102 549.101 733.375 z" fill="rgb(51,51,75)" transform="translate(0,0)"></path>
<path d="M 525.816 495.714 C 526.44 496.645 527.411 498.005 527.979 498.955 C 536.364 512.987 551.711 519.072 552.864 537.19 C 551.582 536.269 550.354 534.276 549.708 532.867 C 543.435 519.197 526.165 510.935 525.816 495.714 z" fill="rgb(51,51,75)" transform="translate(0,0)"></path>
<metadata><recraft-signature>{"signed_by": "recraft", "signature_b64": "BMRz/TdjHZKFnOFcFHxwhqljJb8PR66EMG72SZ30LUbrzOyWAIqf4z6KtWjiCgWnwC4IJsfVuXKlG/Sdr+ZQCg==", "signing_algo": "Ed25519", "generation_timestamp": 1777331478, "identifier": "78848850-c5cd-4fe1-aaf5-2fbe12387563"}</recraft-signature></metadata></svg>