<svg xmlns="http://www.w3.org/2000/svg" height="1024" preserveAspectRatio="none" style="display: block;" version="1.1" viewBox="0 0 2048 2048" width="1024">
<path d="M 0 0 L 2048 0 L 2048 2048 L 0 2048 L 0 0 z" fill="rgb(250,250,249)" transform="translate(0,0)"></path>
<path d="M 1508.64 891.435 C 1533.22 889.893 1561.52 898.892 1580.9 914.118 C 1635.76 957.231 1642.44 1045.38 1598.82 1098.74 C 1576.72 1125.78 1553.04 1136.99 1518.72 1140.86 C 1360.15 1140.73 1360.51 900.854 1508.64 891.435 z" fill="rgb(38,51,78)" transform="translate(0,0)"></path>
<path d="M 1507.59 938.232 C 1597.33 934.186 1610.8 1078.12 1520.53 1093.95 C 1427.36 1098.77 1414.06 954.686 1507.59 938.232 z" fill="rgb(250,250,249)" transform="translate(0,0)"></path>
<path d="M 726.136 893.95 C 771.703 893.937 822.988 886.959 858.903 920.146 C 909.165 966.588 907.316 1057.56 863.51 1107.34 C 828.474 1147.33 773.989 1139.44 725.954 1139.38 L 726.136 893.95 z" fill="rgb(38,51,78)" transform="translate(0,0)"></path>
<path d="M 770.116 941.935 C 791.925 941.721 807.8 942.041 825.437 956.52 C 840.621 968.987 848.879 988.325 850.147 1007.65 C 851.904 1034.41 848.252 1051.1 831.115 1071.35 C 812.105 1089.57 795.513 1090.37 770.689 1090.66 C 770.796 1041.08 770.605 991.508 770.116 941.935 z" fill="rgb(250,250,249)" transform="translate(0,0)"></path>
<path d="M 1647.67 891.978 L 1663.92 891.734 C 1694.55 937.132 1725.78 982.131 1757.58 1026.72 C 1758.25 982.079 1757.37 936.802 1757.65 892.05 C 1772.03 892.173 1786.41 892.165 1800.79 892.025 C 1800.31 971.857 1801.99 1057.67 1799.67 1136.78 C 1799.35 1138.08 1799.2 1140.14 1798.19 1140.72 C 1792.52 1143.98 1784.84 1142.76 1781.05 1137.9 C 1768.67 1122.01 1757.87 1105.19 1746.6 1088.62 C 1728.1 1061.67 1709.41 1034.84 1690.53 1008.15 C 1689.46 1050.6 1690.29 1097.23 1690.24 1140 L 1648.01 1139.95 L 1647.67 891.978 z" fill="rgb(38,51,78)" transform="translate(0,0)"></path>
<path d="M 445.847 893.697 L 564.238 893.753 C 563.917 909.415 564.08 925.572 564.047 941.275 C 538.978 941.795 513.901 941.857 488.83 941.461 C 488.636 957.84 488.849 974.624 488.87 991.038 C 509.331 991.198 529.793 991.232 550.255 991.14 L 550.15 1038.5 C 529.848 1038.4 509.544 1038.55 489.246 1038.97 L 489.207 1082.25 C 489.119 1085.88 488.639 1085.94 490.243 1088.83 C 497.467 1089.87 511.005 1089.5 519.046 1089.53 L 566.608 1089.81 C 566.388 1106.19 566.385 1122.57 566.599 1138.95 L 445.984 1139.04 L 445.847 893.697 z" fill="rgb(38,51,78)" transform="translate(0,0)"></path>
<path d="M 1240.24 892.31 C 1268.56 888.921 1292.35 899.621 1311.33 920.114 C 1304.82 931.576 1295.38 951.58 1290.49 963.804 C 1279.73 952.8 1268.3 941.904 1252 940.701 C 1240.18 939.829 1227.45 947.911 1227.99 960.74 C 1228.77 979.668 1250.06 988.387 1263.81 997.325 C 1274.37 1004.19 1285.19 1010.35 1294.37 1019.15 C 1308.27 1032.06 1316.18 1048.31 1316.42 1067.36 C 1316.94 1087.2 1311.26 1108.94 1297.25 1123.71 C 1281.93 1139.41 1264.38 1142.47 1243.52 1142.92 C 1210.8 1140.03 1198.04 1130.76 1177.26 1106.85 C 1185.14 1094.15 1188.63 1081.45 1199 1066.43 C 1204.06 1071.54 1209.2 1076.63 1214.37 1081.51 C 1227.66 1094.17 1256.21 1103.17 1269.03 1085.66 C 1283.1 1066.7 1260.95 1052.3 1246.35 1043.9 C 1218.79 1028.04 1189.96 1010.14 1184.93 975.86 C 1178.76 933.767 1196.13 899.089 1240.24 892.31 z" fill="rgb(38,51,78)" transform="translate(0,0)"></path>
<path d="M 886.182 893.026 C 902.294 893.389 918.908 893.15 935.061 893.107 C 940.79 911.846 954.127 943.069 961.631 961.703 C 973.126 990.503 984.17 1019.48 994.761 1048.62 C 1008.47 1015.1 1020 980.384 1033.6 946.789 C 1040.82 928.966 1047.88 911.18 1054.76 893.225 C 1070.38 893.725 1086.45 893.387 1102.11 893.235 C 1093.58 915.994 1084.87 938.689 1076 961.318 C 1065.94 988.237 1053.93 1014.8 1043.46 1041.86 C 1035.21 1063.47 1026.68 1084.97 1017.88 1106.35 C 1015.32 1112.66 1005.3 1139.56 1001.53 1142.36 C 996.822 1143.48 993.01 1142.34 988.161 1141.51 C 980.938 1127.64 974.502 1110.33 968.645 1095.59 C 960.794 1075.81 952.791 1056.1 944.639 1036.44 C 926.227 991.747 901.094 937.073 886.182 893.026 z" fill="rgb(38,51,78)" transform="translate(0,0)"></path>
<path d="M 232.469 893.891 L 349.012 893.749 C 348.978 909.711 349.156 926.146 348.901 942.065 C 324.435 941.936 299.968 942.215 275.511 942.902 L 275.602 994.48 C 296.227 994.784 317.529 994.534 338.017 995.043 C 337.892 1009.43 338.139 1025.71 337.569 1039.92 L 275.344 1040.18 L 275.222 1138.9 C 261.03 1138.6 246.083 1138.54 231.963 1137.97 L 231.774 973.969 L 230.809 974.882 C 223.666 981.531 219.676 984.521 210.062 984.209 L 206.158 984.083 C 201.278 988.986 202.72 1005.8 202.061 1013.64 C 196.232 1005.63 180.29 980.474 171.848 975.362 C 171.025 974.864 170.405 975.715 169.479 976.387 C 164.329 967.694 167.745 970.464 165.15 962.589 L 164.854 960.205 C 174.613 963.849 183.333 963.046 189.121 969.788 C 195.057 971.1 189.997 967.648 193.198 967.517 C 218.83 966.465 207.843 959.588 211.989 951.364 C 217.663 947.148 222.387 951.018 229.778 950.998 L 232.563 950.246 C 232.322 931.462 232.291 912.676 232.469 893.891 z" fill="rgb(38,51,78)" transform="translate(0,0)"></path>
<path d="M 232.563 950.246 C 250.77 953.995 248.991 957.096 268.704 953.521 C 257.513 959.702 244.053 962.105 232.178 966.796 C 227.108 968.798 225.097 971.695 219.478 971.721 L 219.09 970.578 C 225.413 964.35 238.146 963.547 244.765 958.382 L 244.73 957.195 C 238.821 953.957 234.566 956.003 229.009 958.737 L 228.292 958.021 C 230.086 955.599 230.889 955.363 233.432 953.753 L 233.22 952.72 L 229.778 950.998 L 232.563 950.246 z" fill="rgb(250,250,249)" transform="translate(0,0)"></path>
<path d="M 591.189 893.365 C 605.505 893.468 619.822 893.464 634.138 893.353 L 634.91 1088.95 C 658.289 1089.29 681.67 1089.37 705.05 1089.2 L 705.11 1139.29 L 590.906 1139.02 L 591.189 893.365 z" fill="rgb(38,51,78)" transform="translate(0,0)"></path>
<path d="M 1116.72 893.001 L 1160.63 893.187 L 1160.41 1053.8 C 1160.35 1081.6 1161.07 1113.05 1160.03 1140.56 L 1116.12 1140.54 L 1116.72 893.001 z" fill="rgb(38,51,78)" transform="translate(0,0)"></path>
<path d="M 1334.09 893.103 C 1348.76 893.338 1363.44 893.425 1378.11 893.364 L 1378.3 1140.8 C 1363.55 1140.69 1348.81 1140.69 1334.06 1140.78 L 1334.09 893.103 z" fill="rgb(38,51,78)" transform="translate(0,0)"></path>
<path d="M 371.992 893.286 C 386.281 893.537 400.571 893.635 414.862 893.577 L 414.843 1139.11 L 372.364 1139.24 C 372.379 1057.78 371.148 974.528 371.992 893.286 z" fill="rgb(38,51,78)" transform="translate(0,0)"></path>
<path d="M 101.707 965.783 C 105.384 943.866 106.235 919.307 110.554 897.094 C 114.718 876.709 126.662 858.748 143.85 847.025 C 144.135 847.864 144.434 848.698 144.746 849.527 C 148.877 860.359 156.563 879.108 167.548 883.999 C 171.397 884.224 171.9 883.698 175.255 881.941 L 177.607 880.043 C 187.729 890.852 181.468 915.663 179.668 929.779 L 178.837 931.318 C 182.01 934.838 183.931 937.036 187.713 939.996 C 194.054 944.959 204.392 947.014 207.527 954.351 C 206.621 960.179 203.069 961.157 198.314 964.164 C 154.17 954.176 138.737 949.778 117.943 909.182 C 122.262 937.26 137.048 953.244 164.854 960.205 L 165.15 962.589 C 164.084 965.922 161.747 974.808 158.704 975.67 C 142.761 980.183 121.424 969.274 109.884 965.669 C 109.455 967.638 109.61 966.76 109.39 968.336 C 106.322 966.628 105.365 965.915 101.707 965.783 z" fill="rgb(38,51,78)" transform="translate(0,0)"></path>
<path d="M 177.607 880.043 C 187.729 890.852 181.468 915.663 179.668 929.779 C 174.161 924.162 177.313 889.395 177.607 880.043 z" fill="rgb(38,51,78)" transform="translate(0,0)"></path>
<path d="M 175.255 881.941 L 177.607 880.043 C 177.313 889.395 174.161 924.162 179.668 929.779 L 178.837 931.318 C 176.834 929.411 174.458 926.019 172.712 923.696 C 172.945 909.778 175.224 896.626 175.255 881.941 z" fill="rgb(250,250,249)" transform="translate(0,0)"></path>
<path d="M 165.15 962.589 C 167.745 970.464 164.329 967.694 169.479 976.387 L 167.908 978.545 C 166.889 979.277 165.87 980.009 164.852 980.741 C 160.234 992.714 155.335 1004.09 149.089 1015.32 C 146.621 1019.76 142.581 1026.27 140.846 1030.81 L 137.9 1030.1 C 136.686 1031.77 135.413 1033.4 134.083 1034.98 C 132.323 1037.05 129.005 1041.23 126.719 1041.41 L 125.804 1037.85 L 125.023 1037.6 C 123.274 1040.42 122.98 1042.79 122.772 1046.08 C 121.984 1058.51 82.4789 1115.1 75.269 1136.45 C 73.0189 1143.12 96.6639 1149.87 99.1555 1157.06 C 99.6455 1158.48 99.3342 1158.25 98.547 1159.73 C 89.623 1161.96 65.5999 1161.14 56.6639 1159.65 C 49.4703 1151.67 63.1211 1132.1 64.6557 1124.56 C 72.3242 1086.87 83.9061 1037.1 102.428 1003.29 L 100.623 1001.65 C 99.463 1004.81 99.0322 1006.82 95.8762 1007.78 C 93.8307 1006.65 92.4383 1006.32 91.9989 1003.37 C 90.841 995.611 98.2651 972.711 101.892 966.562 L 101.707 965.783 C 105.365 965.915 106.322 966.628 109.39 968.336 C 109.61 966.76 109.455 967.638 109.884 965.669 C 121.424 969.274 142.761 980.183 158.704 975.67 C 161.747 974.808 164.084 965.922 165.15 962.589 z" fill="rgb(38,51,78)" transform="translate(0,0)"></path>
<path d="M 165.15 962.589 C 167.745 970.464 164.329 967.694 169.479 976.387 L 167.908 978.545 C 166.889 979.277 165.87 980.009 164.852 980.741 C 160.234 992.714 155.335 1004.09 149.089 1015.32 C 146.621 1019.76 142.581 1026.27 140.846 1030.81 L 137.9 1030.1 C 147.329 1013.97 155.417 999.636 161.197 981.853 C 150.869 980.599 138.402 979.798 127.837 978.788 C 124.083 988.186 121.293 1012.94 112.024 1016.06 L 111.669 1015.13 C 112.997 1013.9 114.176 1012.88 115.567 1011.72 L 115.351 1010.27 C 112.227 1012.38 109.942 1014.46 106.283 1014.87 C 103.719 1013.5 103.919 1013.57 102.555 1010.98 C 102.725 1007.73 102.648 1006.45 102.428 1003.29 L 100.623 1001.65 C 99.463 1004.81 99.0322 1006.82 95.8762 1007.78 C 93.8307 1006.65 92.4383 1006.32 91.9989 1003.37 C 90.841 995.611 98.2651 972.711 101.892 966.562 L 101.707 965.783 C 105.365 965.915 106.322 966.628 109.39 968.336 C 109.61 966.76 109.455 967.638 109.884 965.669 C 121.424 969.274 142.761 980.183 158.704 975.67 C 161.747 974.808 164.084 965.922 165.15 962.589 z" fill="rgb(250,250,249)" transform="translate(0,0)"></path>
<path d="M 101.892 966.562 C 104.543 968.768 105.394 969.584 108.524 971.24 L 108.97 972.72 C 103.841 982.051 104.45 992.755 100.623 1001.65 C 99.463 1004.81 99.0322 1006.82 95.8762 1007.78 C 93.8307 1006.65 92.4383 1006.32 91.9989 1003.37 C 90.841 995.611 98.2651 972.711 101.892 966.562 z" fill="rgb(38,51,78)" transform="translate(0,0)"></path>
<path d="M 111.808 975.225 C 114.981 976.11 120.626 976.985 124.045 977.629 C 123.905 978.451 123.745 979.269 123.565 980.084 C 122.153 986.614 117.993 1006.81 112.697 1010.13 C 111.286 1008.28 110.51 1007.2 109.358 1005.21 L 108.375 1003.51 C 107.566 1005.71 107.816 1004.88 107.238 1007.03 L 106.861 1008.47 C 105.277 1002.42 109.873 981.732 111.808 975.225 z" fill="rgb(38,51,78)" transform="translate(0,0)"></path>
<path d="M 167.908 978.545 C 190.431 1023.72 207.784 1061.65 203.98 1113.99 C 203.198 1124.74 213.319 1129.27 204.576 1141.58 C 208.014 1139.71 207.943 1139.62 210.729 1136.76 C 219.438 1142.31 246.07 1153.6 248.266 1157.86 C 244.289 1162.51 201.946 1161.44 195.263 1160.13 C 187.435 1152.41 198.011 1143.44 196.558 1139.66 C 188.651 1119.07 156.748 1040.62 140.846 1030.81 C 142.581 1026.27 146.621 1019.76 149.089 1015.32 C 155.335 1004.09 160.234 992.714 164.852 980.741 C 165.87 980.009 166.889 979.277 167.908 978.545 z" fill="rgb(38,51,78)" transform="translate(0,0)"></path>
<path d="M 160.144 797.238 C 173.968 796.594 183.54 801.738 188.134 815.128 C 194.576 814.309 201.826 812.55 206.794 817.728 C 207.351 829.673 178.379 824.603 170.179 825.953 L 168.75 826.201 C 155.427 828.09 146.984 842.616 137.672 839.943 C 129.513 833.188 133.311 816.571 138.673 808.975 C 144.459 800.778 150.617 798.813 160.144 797.238 z" fill="rgb(38,51,78)" transform="translate(0,0)"></path>
<path d="M 163.815 818.32 C 167.685 818.155 172.946 817.564 176.496 818.66 L 174.872 819.757 C 171.48 820.297 165.41 821.798 162.597 820.564 L 163.815 818.32 z" fill="rgb(154,155,165)" transform="translate(0,0)"></path>
<path d="M 180.406 832.674 C 195.871 833.914 196.158 853.715 192.635 865.246 C 189.648 875.02 183.353 872.123 176.033 874.528 C 173.066 875.502 173.307 877.62 168.485 876.987 C 166.617 874.001 167.19 875.722 167.87 871.325 C 165.81 869.48 161.591 865.386 160.095 863.371 C 156.432 858.436 152.968 841.387 153.676 835.674 L 155.012 835.159 C 165.405 844.169 170.662 845.019 179.568 833.751 L 180.406 832.674 z" fill="rgb(228,2,22)" transform="translate(0,0)"></path>
<metadata><recraft-signature>{"signed_by": "recraft", "signature_b64": "1/ERbiBNVdSJY12wKnTFfXfg58JruOmt38RLt/hWW7OD/G7Hg8Vxaz14CzOo7Nhpi4aCV8s8YljVt5CpjCGGCw==", "signing_algo": "Ed25519", "generation_timestamp": 1777331682, "identifier": "280ea3d2-f9cb-45a3-ac7d-1b63fe615fef"}</recraft-signature></metadata></svg>