<svg xmlns="http://www.w3.org/2000/svg" height="1024" preserveAspectRatio="none" style="display: block;" version="1.1" viewBox="0 0 2048 2048" width="1024">
<path d="M 0 0 L 2048 0 L 2048 2048 L 0 2048 L 0 0 z" fill="rgb(255,255,255)" transform="translate(0,0)"></path>
<path d="M 1399.81 324.379 C 1402.76 295.901 1432.51 288.061 1446 308.743 C 1450.2 315.13 1451.65 322.944 1450 330.411 C 1445.17 352.682 1426.13 353.996 1408.59 344.843 C 1392.08 352.972 1365.06 366.552 1349.84 377.381 C 1371.27 389.058 1412.61 409.461 1430.83 421.835 C 1450.36 407.127 1493.17 389.69 1516.44 379.552 C 1518.23 365.329 1528.28 354.988 1543.22 357.119 C 1550.13 358.148 1556.35 361.857 1560.54 367.441 C 1574.06 385.525 1562.62 402.883 1543.32 409.466 C 1535.11 407.579 1531.58 406.976 1524.6 401.807 C 1500.37 410.216 1473.41 422.145 1451.18 435.167 C 1472.88 449.78 1511.32 473.942 1530.33 489.61 C 1549.97 478.331 1566.97 470.968 1588.05 462.457 C 1597.63 458.587 1612.79 453.453 1621.47 449.078 C 1623.61 441.682 1627.03 434.306 1634.05 430.529 C 1665.44 413.653 1686.64 463.034 1655.99 476.745 C 1646.61 480.941 1635.87 476.691 1627.17 472.57 C 1596.5 483.037 1577.37 489.781 1548.82 504.773 C 1571.9 522.842 1599.72 544.752 1620.64 565.165 C 1643.3 549.04 1685.83 536.778 1713.41 530.963 C 1716.26 522.993 1720.78 513.287 1729.05 509.954 C 1762.57 496.441 1784.49 548.172 1749.04 561.801 C 1738.09 566.011 1728.08 559.693 1720.09 552.496 C 1694.04 559.37 1660.42 566.663 1638.04 580.619 C 1650.08 592.231 1661.84 604.138 1673.3 616.329 C 1682.36 626.056 1693.76 639.209 1703.12 648.178 C 1732.11 634.078 1764.22 628.084 1795.77 622.304 C 1799.27 605.669 1808.61 594.1 1827.34 598.776 C 1833.95 600.428 1839.45 605.631 1842.48 611.693 C 1846.04 618.789 1846.61 627.018 1844.05 634.535 C 1836.86 655.113 1817.26 653.043 1801.34 644.729 C 1774.71 649.461 1744 655.851 1718.22 664.283 C 1732.12 680.411 1767.01 720.579 1777.9 737.832 C 1808.11 730.77 1836.55 723.102 1867.22 716.26 C 1870.12 708.543 1873.69 700.788 1881.64 697.381 C 1895.74 691.335 1910.34 697.874 1915.33 711.798 C 1917.95 719.056 1917.45 727.075 1913.95 733.951 C 1904.58 752.622 1885.45 751.767 1870.57 740.076 C 1848.15 744.322 1813.71 751.406 1792.87 760.862 C 1808.25 782.808 1825.12 807.419 1840.69 828.997 C 1869.28 823.068 1897.51 820.393 1926.56 817.703 C 1936.46 791.125 1965.62 790.29 1974.4 813.271 C 1977.23 820.554 1976.82 828.695 1973.3 835.666 C 1964.05 853.962 1945.48 853.146 1931.24 840.97 C 1907.14 841.288 1877.96 844.586 1854.91 850.71 C 1865.14 873.618 1886.26 904.352 1898.26 928.282 C 1925.04 926.685 1952.66 923.91 1979.26 922.83 C 1993.61 900.131 2022.43 903.205 2027.34 927.214 C 2028.92 934.957 2027.23 943.007 2022.68 949.466 C 2009.95 967.629 1990.91 962.028 1979.88 945.34 C 1965.06 946.377 1921.56 948.448 1910.18 953.387 L 1908.87 954.921 C 1903.62 956.725 1897.43 964.987 1890.01 963.227 C 1884.35 959.147 1882.11 953.359 1879.51 947.13 C 1881.19 941.577 1879.96 939.52 1876.84 934.088 C 1864.19 912.084 1850.7 889.981 1837.42 868.361 C 1825.11 895.179 1799.27 943.274 1771.53 954.759 C 1765.13 954.65 1760.55 948.368 1760.79 942.246 C 1760.97 937.636 1769.58 931.854 1772.61 928.758 C 1793.3 907.972 1815.43 869.861 1821.66 842.009 C 1805.52 816.339 1789.76 794.907 1771.9 770.442 C 1754.09 801.731 1744.85 837.936 1718.31 863.058 C 1710.56 870.395 1701.89 872.826 1700.57 858.662 C 1699.66 848.912 1714.41 836.233 1719.04 828.192 C 1733.23 805.06 1742.15 772.293 1759.23 751.868 C 1741.59 729.641 1719.8 701.468 1700.01 681.333 C 1693.13 692.369 1687.03 703.876 1681.76 715.769 C 1671.26 739.053 1661.95 775.406 1638.34 789.412 C 1633.48 792.292 1628.79 783.274 1629.25 778.513 C 1630.41 766.443 1641.26 757.372 1645.41 746.164 C 1655.64 723.786 1669.85 681.896 1685.83 664.387 C 1668.54 645.439 1649.91 627.776 1632.03 609.395 C 1628.87 606.147 1625.83 602.761 1622.48 599.712 C 1615.31 608.32 1612.77 615.127 1608.19 624.522 C 1599.66 642.004 1584.32 708.127 1562.96 712.057 C 1556.43 710.993 1552.72 704.414 1554.28 698.282 C 1556.42 689.85 1562.86 682.864 1566.47 675.041 C 1578.16 646.406 1586.25 608.609 1605.68 584.383 C 1581.97 562.715 1557.41 542.003 1532.05 522.295 C 1521.73 544.186 1514.77 562.297 1509.71 586.254 C 1507.12 598.543 1503.41 635.126 1491.49 638.88 C 1488.45 639.815 1485.15 639.341 1482.5 637.588 C 1472.05 630.689 1481.02 616.018 1482.89 607.001 C 1484.4 599.767 1485.54 592.509 1487.02 585.276 C 1492.69 556.893 1500.34 533.299 1515.58 508.497 C 1488.57 489.835 1461.22 469.342 1433.73 451.795 C 1417.51 478.531 1412.4 505.369 1413.72 536.315 C 1414.07 544.704 1418.49 571.452 1406.64 573.278 C 1395.96 574.923 1391.31 566.631 1391.85 557.318 C 1388.94 512.616 1391.83 478.66 1415.15 439.596 C 1386.2 424.199 1356.59 407.861 1326.66 394.708 C 1308.07 417.303 1307.66 436.395 1308.78 463.935 C 1309.35 477.748 1326.78 520.817 1304.47 518.073 C 1285.74 515.769 1284.58 443.09 1286.53 429.761 C 1289.04 412.507 1295.3 398.008 1306.26 386.095 C 1287.55 378.876 1268.69 372.056 1249.69 365.64 C 1238.52 361.921 1225.57 359.173 1215.08 353.913 C 1212.7 352.717 1211.05 351.288 1210.07 348.702 C 1208.8 345.372 1209.34 341.112 1211.03 338.022 C 1212.34 335.624 1214.47 333.594 1217.13 332.801 C 1228.73 329.342 1306.84 360.403 1324.62 367.225 C 1343.47 352.682 1378.08 334.025 1399.81 324.379 z" fill="rgb(159,34,40)" transform="translate(0,0)"></path>
<path d="M 223.898 1096.43 C 232.728 1086.2 239.635 1075.28 250.104 1064.59 C 268.526 1046.32 292.762 1026.03 317.392 1017.18 C 325.659 1014.21 333.52 1029.64 325.428 1034.38 C 291.71 1054.12 253.328 1081.06 236.443 1119.09 C 246.42 1144.36 255.234 1167.67 266.27 1192.64 C 285.298 1167.32 308.912 1144.73 334.639 1126.31 C 340.52 1122.34 345.676 1116.24 352.874 1114.94 C 363.503 1113.02 368.745 1127.56 359.86 1133.56 C 342.126 1145.53 327.659 1157.61 312.174 1172.47 C 299.035 1185.09 289.228 1200.13 276.833 1212.74 C 290.142 1241.5 302.317 1264.46 317.319 1292.52 C 335.85 1264.63 356.457 1239.5 381.777 1217.1 C 388.11 1211.49 411.302 1187.77 415.471 1211.97 C 416.262 1216.57 409.335 1222.13 406.417 1224.68 C 388.503 1238.83 374.157 1253.73 359.872 1271.52 C 349.9 1283.95 340.002 1299.2 328.986 1310.53 C 344.041 1336.78 360.224 1362.37 377.49 1387.22 C 395.597 1356.08 412.061 1327.46 437.406 1301.74 C 442.38 1296.69 447.443 1290.84 453.524 1287.56 C 460.833 1283.6 468.46 1286.88 469.224 1295.49 C 469.827 1302.29 461.042 1309.21 456.92 1313.74 C 439.462 1330.17 425.834 1348.21 413.518 1368.8 C 406.419 1380.67 399.828 1393.83 389.734 1403.54 C 404.128 1425.28 424.564 1453.71 441.733 1473.62 L 442.637 1472.66 C 449.764 1464.94 455.484 1455.94 460.927 1446.99 C 469.079 1433.58 501.736 1369.69 516.403 1369.06 C 519.787 1368.92 523.74 1370.65 525.844 1373.35 C 527.685 1375.71 528.068 1377.48 527.692 1380.43 C 526.543 1389.46 514.475 1400.25 509.3 1407.45 C 495.188 1427.09 485.746 1449.92 472.181 1469.99 C 467.446 1476.99 462.189 1483.82 455.79 1489.4 C 475.65 1510.94 499.767 1539.71 521.93 1558.04 C 547.449 1535.88 558.81 1508.45 569.174 1476.7 C 571.703 1468.96 574.684 1455.77 579.293 1448.35 C 589.378 1439.15 600.502 1448.28 596.358 1462.85 C 585.57 1500.79 568.524 1548.82 538.221 1574.94 C 561.967 1595.54 586.919 1615.5 610.14 1635.73 C 629.2 1617.16 642.133 1580.93 648.827 1555.65 C 650.495 1549.35 651.412 1537.07 654.385 1530.7 C 666.728 1517.72 676.78 1527.39 673.658 1543.79 C 665.964 1584.21 654.84 1617.45 628.474 1649.57 C 654.387 1668.51 678.308 1683.35 704.071 1701.2 C 725.377 1679.6 736.155 1652.32 740.329 1622.6 C 741.516 1614.15 741.787 1603.79 744.703 1596.06 C 746.081 1592.42 758.009 1591.75 760.526 1595.81 C 767.365 1606.82 761.783 1624.72 760.619 1636.87 C 754.457 1666.41 745.044 1691.03 723.013 1711.83 C 756.95 1731.01 790.606 1748.95 825.529 1766.22 C 837.913 1772.34 830.203 1783.65 821.422 1789.18 C 785.352 1775.59 734.56 1746.66 699.756 1727.69 C 672.702 1740.26 657.689 1746.08 629.348 1755.03 C 626.902 1772.07 617.894 1784.19 599.18 1780.74 C 592.502 1779.51 586.623 1775.59 582.921 1769.9 C 567.7 1746.55 590.346 1714 622.861 1734.77 C 642.077 1728.51 660.033 1721.89 678.296 1713.09 C 655.628 1698.35 631.023 1682.71 609.351 1666.59 C 598.068 1672.91 591.85 1675.12 578.149 1679.56 C 562.427 1684.65 542.955 1687.97 526.919 1692.66 C 526.954 1692.65 524.207 1697.45 524.042 1697.77 C 516.667 1712.2 509.046 1717.03 492.964 1712.98 C 486.479 1711.34 480.926 1706.03 478.051 1699.85 C 474.783 1692.85 474.541 1684.81 477.382 1677.62 C 485.592 1656.64 504.554 1657.17 520.332 1669.58 C 544.941 1666.6 566.866 1660.45 589.962 1651.53 C 567.787 1632.89 536.204 1603.44 514.612 1587.43 C 484.831 1595.14 460.456 1599.3 429.927 1603.64 C 427.853 1621.31 419.451 1635.6 399.316 1632.05 C 392.65 1630.92 386.78 1627.01 383.166 1621.29 C 378.934 1614.66 377.584 1606.58 379.425 1598.93 C 384.783 1576.88 403.773 1575.75 421.623 1583.14 C 444.865 1579.05 474.798 1574.98 497.159 1569.68 C 474.538 1546.22 454.199 1523.62 432.103 1500.06 C 405.513 1509.51 369.901 1514.02 341.56 1518.7 C 333.357 1546.42 306.076 1548.71 293.981 1525.83 C 280.551 1500.42 311.754 1477.62 334.567 1497.66 C 359.625 1494.85 392.88 1488.07 418.367 1483.74 L 366.182 1415.01 C 326.484 1421.04 304.134 1418 268.417 1420.85 C 254.614 1461.92 208.021 1440.79 218.589 1407.53 C 225.168 1386.82 246.935 1382.97 263.042 1399.5 C 293.221 1398.69 324.396 1397.93 354.465 1395.55 C 337.973 1371.38 322.128 1346.78 306.946 1321.76 C 275.299 1324.76 234.335 1323.08 201.658 1323.01 C 191.332 1347.8 161.4 1347.95 153.435 1324.74 C 150.91 1317.45 151.553 1309.44 155.208 1302.65 C 166.305 1281.81 185.806 1287.52 200.015 1301.25 C 231.602 1301.22 263.188 1301.37 294.772 1301.7 C 282.297 1276.45 263.283 1246.86 253.732 1221.11 C 220.721 1220.56 184.863 1219.1 151.644 1217.88 C 145.92 1232.76 129.603 1239.92 116.574 1232.93 C 80.0856 1213.36 120.705 1153.8 151.331 1196.03 C 166.217 1197.12 180.814 1197.15 195.712 1197.62 C 211.63 1198.12 227.444 1199.15 243.385 1199.04 C 236.958 1184.79 230.892 1171.28 225.142 1156.7 C 220.077 1143.86 215.54 1128.54 208.998 1116.6 C 207.498 1113.86 198.148 1105.61 195.307 1102.78 C 203.567 1089.64 205.286 1084.22 210.382 1069.64 C 214.041 1078.05 218.773 1088.8 223.898 1096.43 z" fill="rgb(159,34,40)" transform="translate(0,0)"></path>
<path d="M 125.604 955.98 C 150.123 931.484 177.151 904.777 205.042 884.18 C 324.258 796.141 469.122 754.406 616.321 754.135 C 757.968 753.875 931.576 801.249 1053.78 871.642 C 1009.13 855.482 950.416 836.193 903.959 825.188 C 747.829 788.204 565.841 782.622 417.091 850.676 C 327.456 891.684 265.72 949.277 211.419 1030.75 C 205.114 1016.21 202.869 1003.74 191.75 990.548 C 172.704 967.955 153.842 959.324 125.604 955.98 z" fill="rgb(11,20,62)" transform="translate(0,0)"></path>
<path d="M 485.839 928.935 C 541.885 921.465 593.343 960.926 600.668 1016.99 C 607.992 1073.06 568.398 1124.41 512.314 1131.59 C 456.436 1138.74 405.308 1099.33 398.011 1043.47 C 390.713 987.606 429.999 936.377 485.839 928.935 z" fill="rgb(11,20,62)" transform="translate(0,0)"></path>
<path d="M 488.756 974.313 C 519.662 968.079 549.77 988.08 556.004 1018.99 C 562.237 1049.89 542.235 1080 511.329 1086.23 C 480.423 1092.47 450.317 1072.47 444.083 1041.56 C 437.85 1010.65 457.851 980.547 488.756 974.313 z" fill="rgb(255,255,255)" transform="translate(0,0)"></path>
<path d="M 493.796 1005.22 C 507.829 1001.87 521.898 1010.61 525.11 1024.68 C 528.323 1038.74 519.445 1052.72 505.35 1055.8 C 491.445 1058.84 477.692 1050.1 474.523 1036.23 C 471.354 1022.36 479.953 1008.52 493.796 1005.22 z" fill="rgb(226,32,46)" transform="translate(0,0)"></path>
<path d="M 195.307 1102.78 C 193.616 1104.64 191.901 1106.48 190.161 1108.29 C 171.824 1127.35 150.085 1138.93 123.236 1139.21 C 96.4579 1139.67 70.6309 1129.28 51.637 1110.4 C 33.8607 1092.97 24.8943 1071.41 24.9624 1046.48 C 24.881 1022.91 34.2777 1000.29 51.0402 983.71 C 72.2694 962.696 96.4786 955.625 125.604 955.98 C 153.842 959.324 172.704 967.955 191.75 990.548 C 202.869 1003.74 205.114 1016.21 211.419 1030.75 C 214.86 1043.28 212.873 1057.15 210.382 1069.64 C 205.286 1084.22 203.567 1089.64 195.307 1102.78 z" fill="rgb(0,1,3)" transform="translate(0,0)"></path>
<path d="M 90.3852 974.689 C 110.607 965.615 128.977 964.928 149.866 972.928 C 169.578 980.456 185.435 995.596 193.866 1014.94 C 202.706 1034.83 203.127 1057.44 195.032 1077.64 C 190.002 1090.29 177.507 1106.9 165.582 1113.07 L 156.522 1118.74 C 154.714 1117.99 153.119 1117.4 151.187 1117.06 C 143.819 1121.88 152.089 1121.31 141.785 1124.77 C 108.733 1132.17 74.8008 1121.42 53.7177 1094.41 C 40.6276 1077.69 34.859 1056.38 37.7249 1035.34 C 40.8772 1012.41 52.564 996.179 70.6472 982.546 C 72.5845 983.677 85.5165 992.474 85.4707 992.463 C 87.2425 986.058 78.1501 986.118 75.2663 979.726 L 76.9156 978.887 C 79.2621 980.137 80.8271 981.406 82.9311 982.984 C 87.0926 983.45 85.0746 983.861 88.9797 980.8 C 89.0193 977.613 89.2859 977.728 90.3852 974.689 z" fill="rgb(255,255,255)" transform="translate(0,0)"></path>
<path d="M 141.785 1124.77 C 139.061 1119.71 137.057 1118.41 140.079 1113.45 C 146.07 1109.97 158.1 1112.32 165.582 1113.07 L 156.522 1118.74 C 154.714 1117.99 153.119 1117.4 151.187 1117.06 C 143.819 1121.88 152.089 1121.31 141.785 1124.77 z" fill="rgb(226,32,46)" transform="translate(0,0)"></path>
<path d="M 82.1849 1017.69 C 87.8212 1019 88.6507 1019.29 91.9969 1024.34 C 88.74 1026.17 87.7741 1022.35 85.3745 1025.36 C 86.4528 1029.72 85.5687 1029.2 88.3768 1031.21 L 93.2887 1031.26 C 95.2366 1033.72 94.7299 1032.33 94.5896 1035.68 C 92.2419 1036.36 91.4511 1036.5 89.0208 1036.83 C 88.5122 1039.67 88.5096 1038.2 90.0985 1041.32 C 95.7405 1043.27 95.476 1041.55 98.5838 1045.18 L 98.9761 1048.18 L 98.0101 1048.88 L 93.21 1047.45 C 91.9189 1050.02 93.0706 1051.86 93.8305 1055.49 C 99.4772 1056.26 95.6284 1053.68 102.513 1055.94 L 103.732 1058.05 C 101.228 1063.69 96.4042 1059.26 97.1704 1066.81 C 103.184 1065.04 107.489 1063.45 110.373 1070.55 C 108.99 1073.59 107.501 1073.48 104.179 1073.97 L 104.22 1075.7 C 109.885 1080.36 116.185 1075.27 117.031 1081.39 L 115.185 1081.94 C 113.135 1082.57 112.84 1082.63 111.15 1084.03 C 111.776 1087.07 112.18 1086.98 114.44 1089.27 C 117.631 1089.1 118.359 1088.82 121.399 1088.06 L 123.161 1088.8 L 123.914 1091.09 C 122.517 1093.25 122.337 1093.16 120.186 1094.66 C 119.799 1098.04 119.666 1096.28 122.105 1100.04 L 119.361 1100.5 C 116.697 1099.73 116.759 1101.18 112.619 1100.62 L 111.086 1098.41 C 111.477 1094.19 112.26 1092.91 108.38 1090.91 C 106.164 1092.16 106.857 1091.97 104.447 1092.55 C 101.507 1086.67 105.562 1086.69 102.846 1081.51 C 100.746 1081.05 100.122 1081.06 98.0023 1081.1 L 96.8537 1079.51 C 97.8066 1076.64 98.1769 1076.48 97.6787 1073.59 L 92.9855 1072.18 L 92.8472 1070.93 L 95.0346 1069.02 L 93.9873 1066.55 L 91.002 1066.51 C 89.6776 1061.03 88.7509 1055.75 87.5319 1050.27 C 84.75 1050.46 86.0257 1050.72 83.5557 1049.5 L 82.9423 1047.05 C 83.7308 1045.63 84.651 1044.39 85.6741 1043.13 L 85.2275 1040.85 L 81.6795 1040 C 79.1407 1037.63 79.989 1039.05 79.2761 1035.45 C 80.299 1033.54 81.2651 1032.51 82.7758 1030.95 C 80.5567 1024.95 81.3676 1032.27 77.1137 1027.45 C 77.1896 1024.18 79.5485 1021.12 81.3243 1018.2 L 82.1849 1017.69 z" fill="rgb(226,32,46)" transform="translate(0,0)"></path>
<path d="M 80.8957 1005.07 C 77.3113 1005.87 77.5078 1006.46 74.6741 1005.33 L 73.6584 1002.5 C 75.23 996.108 74.1989 1002.76 78.0562 998.992 C 76.8042 996.406 75.9514 995.062 74.4502 992.65 L 74.9395 990.997 L 77.5468 990.024 C 80.1913 991.915 87.7132 1000.63 88.8565 1003.54 L 87.0661 1004.52 C 84.6053 1003.92 84.404 1003.77 81.9105 1003.84 L 80.8957 1005.07 z" fill="rgb(226,32,46)" transform="translate(0,0)"></path>
<path d="M 137.781 1104.19 C 139.654 1104.48 143.375 1105.77 144.192 1107.57 C 142.336 1109.81 136.65 1111.69 133.307 1113.39 L 133.121 1114.33 L 131.617 1115.06 L 129.558 1114.06 C 128.008 1110.33 128.168 1112.2 129.087 1108.25 C 131.49 1105.34 134.041 1105.18 137.781 1104.19 z" fill="rgb(226,32,46)" transform="translate(0,0)"></path>
<path d="M 122.105 1100.04 C 125.451 1097.51 130.536 1094.59 133.804 1098.93 C 132.088 1104.31 127.406 1106.94 121.874 1107.24 C 119.179 1105.42 119.614 1103.84 119.361 1100.5 L 122.105 1100.04 z" fill="rgb(226,32,46)" transform="translate(0,0)"></path>
<path d="M 80.8957 1005.07 L 81.9105 1003.84 C 83.2104 1008.95 84.6062 1008.35 89.7277 1009.61 C 91.7609 1012.27 91.3164 1010.84 91.4771 1013.9 C 85.4301 1015.11 86.8594 1012.31 82.5511 1014.65 C 82.4476 1015.37 82.1529 1017.03 82.1849 1017.69 L 81.3243 1018.2 C 78.494 1017.2 78.5268 1017.41 76.6022 1015.18 C 76.4036 1011.2 78.604 1008.92 80.8957 1005.07 z" fill="rgb(226,32,46)" transform="translate(0,0)"></path>
<path d="M 88.9797 980.8 C 84.1584 977.153 80.0202 978.895 78.2178 975.891 C 81.0191 973.117 80.8598 973.249 84.5676 971.857 C 88.7121 972.369 86.7447 971.682 90.3852 974.689 C 89.2859 977.728 89.0193 977.613 88.9797 980.8 z" fill="rgb(248,240,247)" transform="translate(0,0)"></path>
<path d="M 1879.51 947.13 C 1882.11 953.359 1884.35 959.147 1890.01 963.227 C 1897.43 964.987 1903.62 956.725 1908.87 954.921 C 1916.45 976.918 1934.45 1009.51 1943.87 1033.82 C 1960.37 1035.37 2005.47 1038.91 2018.09 1045.1 C 2021.02 1046.53 2024.45 1048.95 2025.02 1052.41 C 2025.53 1055.51 2023.27 1059.67 2021.06 1061.71 C 2015.19 1067.12 1963 1057.78 1952.08 1056.7 C 1964.32 1084.58 1974.12 1113.46 1981.34 1143.04 C 1983.35 1143.86 1985.33 1144.74 1987.29 1145.68 C 1992.64 1148.29 2044.86 1175.87 2016.57 1187.13 C 2010.84 1189.41 1993.95 1175.31 1988.05 1170.81 C 1996.02 1215.41 2011.81 1263.59 2012.35 1309.2 C 2012.41 1314.23 1995.12 1318.8 1992.45 1307.1 C 1989.36 1293.55 1987.67 1279.78 1985.3 1266.09 C 1981.05 1242.67 1976.53 1219.29 1971.75 1195.97 C 1954.49 1225.48 1937.13 1247.84 1904.89 1261.41 C 1899.68 1263.6 1885.72 1271.13 1881.71 1263.32 C 1873.14 1246.66 1895.03 1244.02 1904.81 1237.57 C 1935.4 1218.62 1952.78 1192.16 1962.7 1157.58 C 1955.8 1131.48 1947.75 1105.69 1938.58 1080.3 C 1920.48 1112.91 1897.08 1138.44 1862.02 1153.32 C 1851 1157.99 1835.79 1164.21 1836.92 1144.44 C 1837.35 1136.77 1860.21 1132.49 1865.44 1128.03 C 1898.59 1107.41 1915.4 1086.1 1925.84 1047.37 C 1917.71 1025.47 1904.26 993.462 1892.19 973.529 C 1878.2 998.347 1860.68 1020 1838.27 1037.71 C 1829.99 1043.43 1818.39 1054.4 1807.67 1053.25 C 1801.28 1052.56 1798.91 1043.39 1801.02 1038.24 C 1803.28 1032.71 1812.97 1029.73 1818 1026.43 C 1845.13 1008.62 1868.18 978.879 1879.18 948.369 C 1879.29 947.956 1879.4 947.543 1879.51 947.13 z" fill="rgb(11,20,62)" transform="translate(0,0)"></path>
<path d="M 1534.12 941.246 C 1624.94 930.332 1641.69 1077.37 1551.81 1096.74 C 1458.16 1105.26 1447.66 957.679 1534.12 941.246 z" fill="rgb(11,20,62)" transform="translate(0,0)"></path>
<path d="M 1535.19 975.173 C 1575.1 971.217 1583.81 1008.81 1574.01 1040.17 C 1570.5 1051.41 1561.34 1058.41 1550.78 1062.78 C 1499.17 1066.73 1494.42 991.253 1535.19 975.173 z" fill="rgb(255,255,255)" transform="translate(0,0)"></path>
<path d="M 1016.13 942.539 L 1018.64 942.446 C 1046.41 941.488 1082.82 938.489 1103.59 960.173 C 1133.83 991.762 1130.01 1049.6 1100.48 1079.99 C 1075.83 1100.74 1041.32 1095.29 1009.44 1095.05 L 1009.8 1000.71 C 1009.8 983.395 1009.08 961.065 1010.14 944.132 C 1012.23 942.046 1012.22 942.755 1016.13 942.539 z" fill="rgb(11,20,62)" transform="translate(0,0)"></path>
<path d="M 1041.02 975.976 C 1071.87 975.012 1091.23 981.323 1092.36 1018.29 C 1092.75 1030.98 1089.01 1041.12 1081.35 1051.29 C 1069.35 1063.22 1056.68 1063 1041.02 1062.69 L 1041.02 975.976 z" fill="rgb(255,255,255)" transform="translate(0,0)"></path>
<path d="M 1706.76 942.076 L 1738.01 941.919 L 1737.99 1094.62 C 1730.77 1095.45 1717.66 1095.04 1709.98 1095.02 C 1692.96 1068.36 1674.96 1032.85 1657.7 1008.43 C 1658.18 1037.17 1657.9 1066.64 1657.94 1095.44 L 1625.9 1095.12 L 1625.59 942.08 L 1653.95 942.047 C 1671.77 972.123 1689.32 1002.35 1706.61 1032.74 C 1707.1 1002.88 1706.73 972.013 1706.76 942.076 z" fill="rgb(11,20,62)" transform="translate(0,0)"></path>
<path d="M 165.062 645.999 C 186.552 646.402 178.202 670.401 176.33 685.239 C 174.66 698.346 173.236 711.482 172.06 724.642 C 169.029 757.805 169.148 790.974 169.85 824.228 C 184.627 807.081 203.093 790.536 224.322 782.423 C 235.945 778.723 280.035 759.958 285.066 777.981 C 288.664 790.868 261.308 791.316 252.924 794.511 C 225.919 804.802 202.643 820.742 183.274 842.129 C 180.53 845.159 175.41 850.278 173.712 853.542 C 173.683 854.154 173.61 856.429 173.41 856.796 C 171.179 860.888 153.227 870.511 149.497 872.68 C 147.788 863.017 147.455 852.99 145.669 842.892 C 134.934 837.125 115.473 829.632 103.781 824.797 C 91.0962 841.319 70.2092 844.546 57.8211 826.088 C 53.362 819.514 51.7237 811.426 53.2727 803.635 C 56.5819 787.071 72.613 779.208 88.7769 783.245 C 98.8557 785.762 104.399 794.282 108.998 803.024 C 120.882 806.338 132.538 810.422 143.891 815.25 C 143.724 773.547 146.157 731.874 151.175 690.474 C 152.54 678.883 153.812 665.638 156.713 654.317 C 158.037 649.151 160.552 648.237 165.062 645.999 z" fill="rgb(159,34,40)" transform="translate(0,0)"></path>
<path d="M 1360.62 940.398 C 1362.59 940.441 1364.55 940.543 1366.51 940.704 C 1384.33 942.219 1398.6 949.958 1410 963.589 C 1404.49 973.951 1401.79 979.985 1397.54 991.012 C 1390.96 986.982 1351.9 958.716 1346.52 983.553 C 1344.39 993.393 1374.18 1002.73 1383.3 1005.75 C 1417.82 1017.19 1422.16 1061.14 1398.93 1084.96 C 1388.29 1095.96 1372.38 1097.67 1356.18 1097.13 C 1335.68 1095.13 1323.15 1086.7 1309.75 1071.91 C 1314.7 1062.58 1319.95 1052.05 1325.72 1043.32 C 1334.65 1052.37 1342.25 1058.66 1354.81 1062.06 C 1360.68 1063.65 1381.34 1064.2 1379.42 1054.52 C 1373.97 1033.68 1342.82 1037.06 1327.62 1023.62 C 1308.8 1006.98 1309.31 976.166 1324.42 957.293 C 1333.42 946.044 1346.21 941.435 1360.62 940.398 z" fill="rgb(11,20,62)" transform="translate(0,0)"></path>
<path d="M 812.352 942.053 L 898.804 942.033 L 898.886 972.851 L 843.324 973.058 L 843.397 999.469 L 889.34 999.276 L 889.434 1032.53 C 875.19 1033.11 858.309 1032.75 843.857 1032.81 L 843.838 1048.75 L 843.803 1061.98 L 900.069 1062.09 L 900.031 1095.02 L 812.64 1095.12 L 812.352 942.053 z" fill="rgb(11,20,62)" transform="translate(0,0)"></path>
<path d="M 1122.94 942.083 C 1135.11 941.862 1147.29 941.83 1159.47 941.988 C 1166.61 964.223 1172.1 990.714 1178.78 1013.42 C 1181.9 1024.04 1183.8 1035.23 1187.81 1045.69 C 1198.42 1012.03 1208.05 976.056 1218.04 941.981 L 1251.71 941.919 C 1247.63 954.583 1243.67 967.288 1239.85 980.033 C 1228.29 1018.42 1216.5 1056.75 1204.46 1094.99 L 1170.37 1095.1 C 1161.97 1063.11 1150.98 1030.81 1141.84 998.959 C 1136.34 979.792 1128.8 961.1 1122.94 942.083 z" fill="rgb(11,20,62)" transform="translate(0,0)"></path>
<path d="M 655.626 941.978 C 684.154 941.44 714.392 941.989 743.055 942.028 L 743.072 973.221 L 688.095 973.438 L 688.156 1002.12 L 734.292 1002.07 C 734.059 1008.36 735.369 1029.83 732.88 1033.66 L 730.25 1034 L 688.591 1034.12 C 687.378 1052.4 688.051 1076.71 688.047 1095.4 C 677.387 1095.06 666.275 1095.13 655.576 1095.03 L 655.626 941.978 z" fill="rgb(11,20,62)" transform="translate(0,0)"></path>
<path d="M 914.149 942.126 L 945.884 942.044 L 945.549 1061.94 L 998.756 1062.2 L 998.835 1094.69 C 994.631 1095.54 976.33 1095.25 971.179 1095.24 L 914.534 1095.06 C 914.757 1044.08 914.629 993.104 914.149 942.126 z" fill="rgb(11,20,62)" transform="translate(0,0)"></path>
<path d="M 1428.63 941.941 L 1460.47 942.011 C 1461.02 992.526 1460.13 1044.61 1460.22 1095.36 C 1449.58 1095.49 1438.93 1095.44 1428.29 1095.22 C 1428.05 1044.12 1428.16 993.031 1428.63 941.941 z" fill="rgb(11,20,62)" transform="translate(0,0)"></path>
<path d="M 757.658 941.995 L 789.169 941.894 L 789.015 1095.29 L 757.895 1095.2 C 757.376 1044.13 757.297 993.063 757.658 941.995 z" fill="rgb(11,20,62)" transform="translate(0,0)"></path>
<path d="M 1262.78 941.984 L 1294.37 941.997 C 1293.92 993.104 1293.8 1044.21 1294.04 1095.32 L 1262.6 1095.17 C 1262.3 1044.11 1262.36 993.045 1262.78 941.984 z" fill="rgb(11,20,62)" transform="translate(0,0)"></path>
<path d="M 82.6658 907.356 C 91.1037 906.019 103.386 907.37 111.72 908.754 C 101.647 916.252 98.3891 918.742 90.8526 928.709 C 85.1577 929.284 80.4898 930.424 74.9325 931.65 C 69.4604 933.038 63.5752 934.962 58.0462 934.799 C 54.3288 932.99 51.8488 930.204 50.7113 926.216 C 46.2589 910.61 72.8619 908.807 82.6658 907.356 z" fill="rgb(159,34,40)" transform="translate(0,0)"></path>
<metadata><recraft-signature>{"signed_by": "recraft", "signature_b64": "rG6Aix+77eF4uts2Y7WTPCBIzGuXUP5UBmKNh4LEjKHJNvclMUFJIKNHq5/gFHKEK41uJSzo5SPKQWv7W13DCA==", "signing_algo": "Ed25519", "generation_timestamp": 1777330441, "identifier": "919d0d28-f5e5-4d19-b28e-39bcce0347a0"}</recraft-signature></metadata></svg>