<svg xmlns="http://www.w3.org/2000/svg" height="1024" preserveAspectRatio="none" style="display: block;" version="1.1" viewBox="0 0 2048 2048" width="1024">
<path d="M 0 0 L 2048 0 L 2048 2048 L 0 2048 L 0 0 z" fill="rgb(255,255,255)" transform="translate(0,0)"></path>
<path d="M 289.93 132.917 C 298.152 118.83 312.599 106.875 328.821 117.686 C 329.583 118.198 330.336 118.724 331.08 119.263 C 363.42 117.038 390.07 117.452 416.393 140.527 C 423.156 146.558 429.118 153.432 434.131 160.98 C 441.066 171.371 447.096 185.78 457.229 192.377 C 466.521 190.929 474.988 190.792 484.588 191.757 C 499.752 193.281 516.094 193.036 530.749 197.518 C 536.966 199.42 541.195 206.498 541.501 213.121 C 543.108 247.877 502.675 255.524 475.831 256.572 L 474.693 256.611 C 480.012 281.42 467.576 282.224 462.589 302.587 C 462.159 304.343 464.441 314.1 465.044 316.565 C 480.013 311.359 536.598 297.465 542.702 284.833 C 547.461 274.984 542.667 266.58 555.435 261.219 C 560.613 259.045 566.411 259.367 571.802 258.038 C 591.815 253.105 594.102 249.819 615.831 255.087 C 623.834 245.769 635.257 243.869 646.978 240.498 C 658.484 225.691 682.859 222.159 700.335 225.88 C 727.748 208.308 786.022 191.63 817.62 179.093 C 827.553 175.152 868.461 160.511 877.998 158.486 C 884.624 157.031 891.492 157.077 898.097 158.619 C 928.519 165.525 947.196 199.925 939.776 229.739 C 936.219 244.143 927.057 256.53 914.326 264.149 C 890.959 278.163 769.927 290.556 734.456 299.556 C 710.749 329.73 694.02 322.972 669.927 346.578 C 662.523 353.832 653.633 374.201 648.667 383.837 C 639.617 401.396 627.299 425.254 614.456 440.002 C 630.423 497.451 647.361 552.921 641.075 613.29 C 638.321 639.746 637.471 657.26 606.655 663.003 C 579.512 668.063 552.341 665.222 526.971 654.584 L 525.646 655.111 C 512.215 660.365 453.012 667.07 449.853 670.29 C 444.205 689.899 461.008 856.46 468.198 884.807 C 473.181 904.455 484.423 919.932 492.012 936.981 C 467.761 981.239 486.811 996.244 508.24 1035.67 C 520.072 1057.43 534.455 1083.56 542.344 1107.01 C 592.072 1107.56 641.803 1107.72 691.533 1107.49 L 1030.51 1107.61 L 1779.33 1107.97 C 1775.95 1145.06 1764.87 1196.54 1754.82 1232.32 C 1777.12 1238.3 1802.26 1244.6 1824.14 1251.3 C 1879.94 1268.17 1934.34 1289.36 1986.85 1314.67 C 1946.9 1313.04 1834.36 1326.2 1801 1352.15 C 1798.23 1354.31 1795.52 1358.74 1795.51 1362.59 C 1795.48 1368.89 1801.68 1375.43 1806.15 1379.4 C 1820.26 1391.94 1838.05 1404.36 1851.2 1417.67 C 1876.53 1443.29 1903.65 1481.32 1921.39 1512.33 C 1896.4 1501.28 1867.81 1488.47 1841.8 1480.44 C 1777.32 1460.52 1702.41 1447.69 1635.16 1441.4 C 1615.44 1439.34 1597.49 1438.51 1577.65 1437.92 C 1558.1 1435.56 1522.18 1436.74 1501.57 1436.86 C 1479.55 1456.12 1460.74 1473.79 1437.73 1492.42 C 1328.57 1581.8 1204.57 1651.32 1071.37 1697.83 C 1048.13 1706.06 1007.64 1721.94 983.484 1721.34 C 972.98 1721.08 946.136 1711.06 935.452 1707.25 C 883.51 1688.19 832.456 1666.8 782.445 1643.13 C 765.094 1634.85 748.05 1625.64 730.81 1617.32 C 741.411 1676.96 750.17 1737.26 764.453 1796.13 C 766.991 1803.94 771.196 1811.41 774.811 1818.7 C 780.16 1829.48 786.942 1839.53 790.404 1851.12 C 792.521 1858.21 786.699 1864.08 782.485 1869.03 C 795.736 1881.99 803.907 1889.61 820.795 1899.42 C 842.279 1911.9 876.217 1916.71 891.668 1936.68 C 893.608 1939.19 894.666 1944.36 895.361 1947.48 C 949.662 1947.88 1003.97 1947.95 1058.27 1947.71 L 1334.03 1947.68 L 1979.92 1947.34 L 1979.83 1967.87 L 52.7855 1967.85 L 52.7617 1946.96 L 125.935 1947 C 87.4148 1929.69 98.2197 1916.83 106.512 1882.03 C 112.319 1857.66 111.71 1860.71 131.33 1848.28 C 130.268 1842.02 127.327 1827.38 132.151 1822.97 C 139.816 1815.96 157.112 1813.49 145.784 1797.25 C 135.921 1783.11 138.253 1778.01 148.336 1764.57 C 202.764 1692.76 211.019 1595.7 272.253 1527.28 C 298.166 1498.32 314.754 1490.92 304.031 1447.2 C 249.605 1453.81 195.033 1469.98 143.499 1488.57 C 124.304 1495.49 101.987 1506.87 84.048 1513.03 C 101.752 1473.92 128.269 1441.07 159.829 1412.3 C 172.359 1400.88 186.035 1389.31 197 1376.34 C 228.201 1339.42 142.858 1325.84 121.627 1322.43 C 90.4841 1317.43 56.1047 1315.39 23.8217 1314.28 C 68.6599 1293.38 114.587 1274.91 161.404 1258.93 C 187.884 1250.07 213.526 1243.49 239.758 1235.27 C 232.825 1206.76 227.236 1178.45 222.075 1149.59 C 221.367 1145.63 220.117 1136.92 217.314 1134.4 C 196.542 1137.15 186.777 1089.25 179.993 1072.69 C 165.754 1069.77 153.934 1059.66 149.136 1046.1 C 139.885 1019.96 136.972 989.646 142.554 962.463 C 148.711 932.485 166.149 905.048 167.245 874.198 C 167.365 870.471 164.114 859.106 162.939 854.719 C 167.021 841.01 170.532 838.923 181.362 829.298 C 149.876 716.924 131.22 538.702 188.679 429.961 C 196.827 414.54 224.387 374.802 242.729 371.632 C 247.203 370.86 248.907 371.128 253.255 371.703 C 257.943 364.175 258.152 345.263 258.601 336.136 C 241.497 326.807 238.775 306.777 238.79 289.123 C 225.364 277.773 227.525 263.998 225.26 247.983 C 219.147 204.761 244.555 145.883 289.93 132.917 z" fill="rgb(26,33,77)" transform="translate(0,0)"></path>
<path d="M 255.638 1138.89 C 273.868 1137.87 297.749 1138.53 316.317 1138.62 L 418.698 1138.92 L 752.523 1138.88 L 1743.54 1138.94 C 1723.94 1242.74 1697.07 1316.42 1644.99 1409.13 C 1621.4 1405.14 1588.62 1404.38 1564.74 1403.82 C 1539.14 1403.21 1511.55 1402.43 1486.04 1402.88 C 1481.87 1406.3 1478.05 1409.97 1474.1 1413.65 L 1472.79 1415 C 1367.12 1523.16 1206.3 1610.74 1065.88 1663.19 C 986.82 1692.72 982.055 1689.41 905.021 1658.92 C 754.778 1599.45 617.785 1520.76 502.04 1406.92 C 449.717 1406.7 402.928 1407.13 350.571 1410.77 C 332.907 1381.56 315.492 1354.77 303.056 1322.46 C 280.313 1263.37 264.118 1201.64 255.638 1138.89 z" fill="rgb(255,255,255)" transform="translate(0,0)"></path>
<path d="M 1363.32 1210.87 C 1401.56 1205.93 1436.53 1233.01 1441.32 1271.27 C 1446.1 1309.53 1418.89 1344.39 1380.61 1349.03 C 1342.54 1353.65 1307.91 1326.61 1303.15 1288.56 C 1298.39 1250.51 1325.29 1215.77 1363.32 1210.87 z" fill="rgb(173,21,43)" transform="translate(0,0)"></path>
<path d="M 1368.97 1243.2 C 1414.03 1242.77 1419.22 1305.15 1378.2 1316.2 C 1327.38 1315.44 1325.33 1252.9 1368.97 1243.2 z" fill="rgb(255,255,255)" transform="translate(0,0)"></path>
<path d="M 810.712 1212.77 C 842.873 1212.55 888.682 1206.98 913.36 1231.71 C 938.978 1257.39 937.118 1302.69 912.103 1328.67 C 891.594 1346.95 871.398 1346.33 845.657 1346.37 L 810.265 1346.57 C 809.949 1302.32 810.576 1257.11 810.712 1212.77 z" fill="rgb(173,21,43)" transform="translate(0,0)"></path>
<path d="M 846.833 1243.5 C 859.417 1243.7 871.3 1242.96 882.248 1250.3 C 889.452 1255.11 894.344 1262.68 895.762 1271.22 C 897.85 1283.7 894.148 1295.49 886.988 1305.63 C 873.379 1316.56 862.027 1315 845.603 1314.75 C 845.595 1305.35 844.873 1249.18 846.833 1243.5 z" fill="rgb(255,255,255)" transform="translate(0,0)"></path>
<path d="M 1489.49 1212.46 C 1495.21 1212.57 1504.53 1230.26 1508.17 1235.45 C 1519 1250.92 1529.04 1267.16 1540.34 1282.31 C 1540.82 1259.07 1541 1235.83 1540.87 1212.58 L 1576.11 1212.64 L 1576.34 1347.15 L 1544.46 1347 C 1527.68 1323.14 1508.95 1298.08 1493.51 1273.62 L 1494.03 1346.91 L 1458.7 1346.86 L 1458.87 1212.86 L 1489.49 1212.46 z" fill="rgb(173,21,43)" transform="translate(0,0)"></path>
<path d="M 582.135 1212.71 C 612.915 1211.57 651.273 1212.78 682.646 1212.89 L 682.613 1243.14 C 660.886 1243.38 638.705 1243.17 616.947 1243.16 L 616.954 1263.15 C 636.577 1263.32 656.202 1263.32 675.825 1263.14 L 675.798 1293.39 L 620.75 1293.3 C 618.263 1293.42 619.379 1292.99 617.426 1294.65 C 616.221 1300.39 616.764 1308.21 616.905 1314.3 L 683.81 1314.86 L 683.885 1346.28 L 582.895 1346.11 L 582.135 1212.71 z" fill="rgb(173,21,43)" transform="translate(0,0)"></path>
<path d="M 1176.65 1211.33 C 1197.03 1209.75 1213.58 1214.28 1231.39 1223.75 L 1218.51 1252.05 C 1215.07 1250.53 1211.6 1249.08 1208.1 1247.68 C 1196.78 1243.28 1172.4 1235.38 1166.59 1251.14 C 1169.81 1269.52 1240.2 1265.29 1237.18 1305.99 C 1234.52 1341.89 1208.5 1348.28 1178.49 1348.2 C 1160.39 1347.54 1141.52 1340.49 1126.06 1331.41 C 1130.56 1321.74 1135.36 1312.22 1140.46 1302.85 C 1152 1309.6 1166.7 1316.74 1180.25 1317.89 C 1187.16 1318.47 1200.34 1316.39 1200.25 1307.32 C 1189.6 1292.16 1132.33 1295.86 1130.07 1259.59 C 1128.12 1228.42 1149.69 1214.96 1176.65 1211.33 z" fill="rgb(173,21,43)" transform="translate(0,0)"></path>
<path d="M 930.23 1212.96 L 967.519 1212.96 C 977.44 1241.98 988.615 1270.22 998.781 1299.13 C 1009.91 1271.7 1020.31 1241.06 1030.04 1212.98 L 1065.38 1212.98 C 1062.71 1222.84 1055.8 1239.63 1051.92 1249.79 C 1039.66 1281.69 1026.79 1314.89 1015.62 1347.12 C 1004.27 1347.09 992.911 1346.93 981.557 1346.66 C 974.764 1331.77 969.126 1313.93 962.993 1298.48 C 951.72 1270.09 940.46 1241.76 930.23 1212.96 z" fill="rgb(173,21,43)" transform="translate(0,0)"></path>
<path d="M 407.735 1212.51 L 505.998 1212.72 L 506.005 1243.85 L 442.383 1243.56 L 442.292 1266.35 C 460.767 1266.31 479.501 1266.68 497.995 1266.88 L 498.009 1283.19 L 498.07 1297.96 L 442.504 1297.88 C 442.11 1313.97 442.285 1330.87 442.204 1347.02 L 407.544 1346.84 L 407.043 1256.06 C 407.001 1247.46 406.334 1219.21 407.735 1212.51 z" fill="rgb(173,21,43)" transform="translate(0,0)"></path>
<path d="M 700.787 1212.86 L 736.102 1212.74 L 735.946 1314.01 L 795.488 1314.13 C 795.85 1324.68 795.684 1335.74 795.687 1346.33 C 765.574 1346.06 731.009 1345.5 701.173 1346.54 C 699.743 1304.28 700.841 1255.54 700.787 1212.86 z" fill="rgb(173,21,43)" transform="translate(0,0)"></path>
<path d="M 1282.12 1212.5 L 1285.54 1212.65 C 1286.03 1213.22 1286.52 1213.79 1287.01 1214.36 C 1287.18 1242.16 1287.03 1324.1 1287.01 1346.99 L 1255.75 1347.02 C 1255.14 1347.03 1252.89 1346.71 1252.2 1346.63 C 1250.36 1343.24 1251.66 1227.77 1251.68 1212.78 L 1282.12 1212.5 z" fill="rgb(173,21,43)" transform="translate(0,0)"></path>
<path d="M 1074.81 1212.98 L 1109.86 1213.03 L 1109.72 1346.37 L 1074.64 1346.48 C 1074.14 1302.31 1074.7 1257.22 1074.81 1212.98 z" fill="rgb(173,21,43)" transform="translate(0,0)"></path>
<path d="M 523.12 1212.38 L 558.093 1212.5 C 557.584 1257.05 558.52 1301.88 557.815 1346.41 C 546.347 1346.4 534.879 1346.48 523.412 1346.65 C 522.641 1302.77 522.879 1256.34 523.12 1212.38 z" fill="rgb(173,21,43)" transform="translate(0,0)"></path>
<path d="M 1065.53 1437.12 C 1099.21 1435.55 1103.7 1471.75 1093.42 1496.67 C 1090.31 1504.23 1083.72 1508.52 1076.11 1511 C 1042.09 1512.32 1036.97 1478.28 1047.01 1452.38 C 1050.2 1444.16 1057.4 1439.72 1065.53 1437.12 z" fill="rgb(26,33,77)" transform="translate(0,0)"></path>
<path d="M 1067.24 1449.91 C 1088.05 1450.47 1087.93 1488.22 1073.44 1497.49 C 1055.58 1496.41 1055.93 1479.51 1057.64 1465.05 C 1058.5 1457.8 1061.36 1454 1067.24 1449.91 z" fill="rgb(255,255,255)" transform="translate(0,0)"></path>
<path d="M 938.206 1436.29 C 944.84 1436.43 951.328 1437.9 955.645 1440.55 C 967.468 1447.8 962.53 1462.29 957.141 1471.25 C 955.804 1473.47 966.897 1477.87 967.259 1485.26 C 967.501 1490.2 968.348 1494.49 964.165 1499.83 C 958.384 1507.67 952.694 1509.38 943.942 1511.12 C 918.28 1511.8 900.067 1491.8 922.962 1471.62 C 906.798 1454.4 916.671 1438.96 938.206 1436.29 z" fill="rgb(26,33,77)" transform="translate(0,0)"></path>
<path d="M 936.07 1477.99 C 951.274 1479.84 959.388 1491.81 942.185 1498.19 C 926.018 1498.7 920.296 1485.01 936.07 1477.99 z" fill="rgb(255,255,255)" transform="translate(0,0)"></path>
<path d="M 935.681 1448.42 C 938.934 1447.25 942.57 1447.93 945.169 1450.22 C 947.768 1452.5 948.918 1456.02 948.169 1459.39 C 947.421 1462.77 944.893 1465.47 941.572 1466.44 C 936.656 1467.88 931.487 1465.16 929.895 1460.29 C 928.304 1455.42 930.865 1450.17 935.681 1448.42 z" fill="rgb(255,255,255)" transform="translate(0,0)"></path>
<path d="M 805.399 1436.37 C 809.626 1436.45 814.195 1436.75 818.45 1436.95 C 817.314 1443.41 815.595 1449.83 814.016 1456.21 C 819.813 1456.46 823.198 1455.8 826.726 1460.87 C 825.205 1468.42 816.438 1467.04 810.645 1466.75 C 809.869 1470.05 809.189 1474.06 808.516 1477.45 C 814.774 1477.4 819.132 1476.07 823.018 1481.61 C 821.567 1489.48 812.1 1487.9 806.037 1487.7 C 804.463 1495.48 802.744 1503.23 800.881 1510.95 L 788.743 1510.89 L 794.008 1487.37 L 782.122 1487.18 C 780.544 1493.8 778.823 1500.46 777.169 1507.07 C 776.891 1508.99 776.911 1508.49 775.966 1510.3 C 772.28 1511.67 768.997 1512.27 765.501 1510.15 C 765.29 1504.58 768.463 1493.67 769.933 1487.75 L 765.989 1487.82 C 760.789 1487.91 759.103 1488.44 756.152 1483.54 C 757.201 1475.72 766.28 1477 771.879 1477.24 L 774.594 1465.9 L 759.896 1465.94 L 762.126 1455.89 L 777.157 1456.08 L 781.933 1436.8 L 793.811 1437.02 L 788.846 1456 L 801.455 1456.12 C 803.393 1449.23 804.249 1443.42 805.399 1436.37 z" fill="rgb(26,33,77)" transform="translate(0,0)"></path>
<path d="M 786.217 1466.37 L 798.09 1466.59 L 795.796 1477.17 C 792.263 1477.27 788.079 1477.86 785.206 1476.17 C 784.039 1472.38 785.193 1470.67 786.217 1466.37 z" fill="rgb(255,255,255)" transform="translate(0,0)"></path>
<path d="M 977.79 1543.07 L 997.24 1543.11 L 997.655 1616.85 C 997.726 1628.19 999.329 1654.65 994.957 1663.83 C 986.18 1669.62 979.128 1668.32 978.449 1656.36 C 977.67 1642.6 977.939 1628.79 977.934 1615.01 L 977.79 1543.07 z" fill="rgb(173,21,43)" transform="translate(0,0)"></path>
<path d="M 1197.96 1437.17 L 1245.67 1437.01 L 1245.46 1451.02 L 1213.08 1450.99 L 1213.05 1466.11 L 1240.8 1466.19 L 1240.36 1478.31 C 1234.87 1478.24 1217.89 1477.51 1213.38 1479.3 L 1212.7 1481.75 L 1212.8 1497.57 C 1223.99 1497.82 1235.69 1497.69 1246.92 1497.74 L 1246.86 1510.13 L 1197.84 1509.98 L 1197.96 1437.17 z" fill="rgb(26,33,77)" transform="translate(0,0)"></path>
<path d="M 1140.73 1437.16 C 1158.27 1436.02 1168.49 1440.35 1173.22 1457.91 C 1169.21 1478.02 1159.3 1484.44 1144.6 1497.48 C 1154.12 1497.05 1166.14 1497.25 1175.84 1497.18 L 1175.93 1509.98 L 1141.25 1510.01 C 1134.39 1510.13 1127.75 1510.52 1121 1509.32 C 1109 1498.96 1173.02 1470.45 1153.63 1451.69 C 1144.74 1447.87 1137.34 1452.36 1131.5 1458.93 C 1127.46 1455.82 1123.44 1452.68 1119.44 1449.51 C 1127.44 1442.14 1130.39 1440.2 1140.73 1437.16 z" fill="rgb(26,33,77)" transform="translate(0,0)"></path>
<path d="M 858.205 1437.22 C 865.857 1436.52 873.456 1436.45 879.616 1441.6 C 902.973 1461.14 873.157 1484 860.676 1497.65 C 871.479 1497.9 883.246 1497.7 894.114 1497.69 L 894.089 1510.59 C 882.276 1510.44 870.25 1510.54 858.417 1510.53 C 853.155 1510.73 840.337 1512.39 837.42 1508.68 C 837.369 1493.62 882.943 1468.11 871.574 1453.03 C 861.216 1447.74 856.966 1451.7 851.605 1460.12 C 847.76 1457.87 846.891 1457.39 843.628 1454.45 C 840.009 1444.78 850.773 1440.75 858.205 1437.22 z" fill="rgb(26,33,77)" transform="translate(0,0)"></path>
<path d="M 1002.32 1437.98 L 1016.75 1437.91 L 1016.9 1510.47 C 1012.46 1510.45 1006.08 1511.19 1002.52 1509.55 L 1002.02 1507.25 L 1001.98 1454.15 L 990.291 1461.33 L 986.677 1449.19 C 991.423 1446.28 997.674 1441.41 1002.32 1437.98 z" fill="rgb(26,33,77)" transform="translate(0,0)"></path>
<path d="M 454.607 1441.94 C 465.894 1441.41 477.157 1441.88 488.455 1442.17 C 505.592 1458.54 536.276 1485.01 550.772 1500.86 C 559.995 1554.65 574.25 1621.72 587.245 1674.84 C 592.436 1696 597.744 1717.13 603.168 1738.23 C 605.126 1745.7 610.584 1762.3 610.901 1769.18 C 611.853 1789.83 592.232 1794.33 605.252 1816.83 C 630.712 1822.11 617.301 1835.98 609.563 1850.91 C 613.929 1866.78 622.232 1867.67 631.861 1880.59 C 628.065 1892.14 615.768 1925.7 623.169 1936.77 C 627.137 1942.71 661.663 1943.04 670.256 1943.44 C 694.683 1944.55 719.121 1945.41 743.565 1946.02 L 741.987 1948.02 L 306.611 1947.83 C 308.033 1919.32 295.854 1916.86 272.239 1909.12 C 268.551 1902.45 257.941 1879.29 259.958 1871 C 261.932 1862.88 274.155 1864.15 279.788 1859.87 C 290.876 1851.46 285.766 1827.42 288.792 1813.08 C 291.557 1799.96 292.422 1797.91 297.227 1785.59 C 321.012 1723.67 352.39 1667.45 385.283 1610.08 C 402.265 1580.47 424.62 1547.32 439.212 1516.9 C 447.989 1498.6 450.839 1463.02 454.607 1441.94 z" fill="rgb(255,255,255)" transform="translate(0,0)"></path>
<path d="M 316.323 124.048 C 318.549 124.356 318.758 124.509 320.925 125.19 C 323.159 127.666 322.841 131.028 323.115 134.589 C 340.233 128.236 351.673 127.082 369.866 130.633 C 411.801 138.818 425.94 169.157 447.286 201.475 C 441.867 211.459 421.983 232.727 425.178 241.635 C 431.534 248.04 456.157 252.212 466.009 254.383 C 452.4 255.619 439.761 254.961 426.545 255.846 C 417.638 256.442 401.872 262.001 392.88 264.933 C 379.231 269.374 364.215 273.627 350.257 277.869 C 334.803 282.566 247.08 289.135 242.375 275.683 C 227.966 234.487 238.244 173.345 280.123 150.353 C 287.838 146.117 296.463 143.619 304.29 138.846 C 306.446 128.724 306.734 128.044 316.323 124.048 z" fill="rgb(255,255,255)" transform="translate(0,0)"></path>
<path d="M 625.071 260.865 C 639.493 264.702 640.598 277.854 646.103 290.504 C 643.592 303.375 652.501 310.339 652.961 322.03 C 653.053 324.37 628.044 378.922 625.15 382.622 C 619.736 389.546 611.369 394.344 605.5 401.451 C 598.249 360.321 608.812 364.169 614.618 329.844 L 614.879 328.23 C 599.757 350.289 590.106 362.194 593.138 390.911 C 598.055 437.473 615.723 481.651 624.564 527.194 C 629.3 552.509 630.88 578.314 629.267 604.017 C 628.458 617.707 628.316 631.869 622.306 644.295 C 602.295 653.355 584.619 654.763 562.861 651.743 C 553.664 650.578 545.024 647.896 536.213 645.146 C 537.997 643.399 539.771 641.642 541.535 639.875 C 571.119 610.195 597.498 577.186 582.101 534.106 C 576.304 517.886 570.868 509.981 558.732 498.111 C 558.971 485.377 560.664 471.651 560.786 459.499 C 561.125 425.856 562.078 389.767 558.749 356.4 C 556.582 334.679 543.777 319.933 542.634 296.799 C 550.394 299.23 563.298 302.328 569.608 295.663 C 570.719 284.003 560.092 290.577 555.768 287.397 C 553.478 281.761 552.878 274.696 559.552 272.516 C 567.145 270.036 591.421 260.88 598.811 262.284 C 612.659 264.917 610.817 305.428 618.694 307.679 C 626.063 304.372 634.166 288.96 634.289 280.95 C 634.421 272.262 630.77 266.967 625.071 260.865 z" fill="rgb(255,255,255)" transform="translate(0,0)"></path>
<path d="M 197.528 832.88 C 169.004 736.739 158.195 627.783 171.982 528.018 C 172.988 520.733 176.521 500.234 180.195 494.622 C 180.173 498.745 177.925 513.735 177.307 518.989 C 175.682 532.808 174.643 546.69 174.193 560.597 C 172.039 627.827 178.417 695.059 193.172 760.685 C 197.469 780.658 201.746 800.202 208.382 819.535 C 249.142 793.231 286.399 761.861 319.26 726.176 C 329.728 714.578 338.234 700.72 349.077 689.665 C 324.888 733.657 289.523 771.125 251.985 804.387 C 237.099 817.577 209.023 832.056 197.914 846.081 C 192.504 852.912 189.768 882.099 186.748 893.112 C 181.636 911.75 175.798 929.815 169.82 948.39 C 236.64 888.967 303.491 831.494 363.025 764.492 C 367.982 758.913 372.903 753.322 378.52 748.398 C 333.002 817.129 229.958 924.033 159.72 969.026 C 154.039 986.01 154.726 1029.2 170.021 1038.95 C 196.603 1055.9 239.888 1018.32 261.831 1008.76 C 317.132 984.686 381.582 977.926 439.087 996.899 C 448.656 1000.06 457.483 1001.24 465.993 1006.92 C 467.185 1010.65 466.985 1008.73 466.089 1012.94 C 464.128 1014.63 463.582 1014.97 460.709 1013.95 C 435.471 1005.06 412.604 999.784 385.475 998.633 C 379.035 998.663 367.748 998.561 361.413 999.506 C 326.265 1002.38 286.395 1012.33 254.536 1029.73 C 231.766 1041.98 199.819 1073.09 172.738 1055.14 C 158.194 1045.5 152.765 999.706 153.886 983.236 C 156.262 948.345 176.887 916.714 181.064 882.237 C 182.098 873.702 179.515 861.64 178.03 853.066 C 183.469 846.335 191.258 839.066 197.528 832.88 z" fill="rgb(255,255,255)" transform="translate(0,0)"></path>
<path d="M 1744.92 1262.55 C 1776.04 1267.21 1837.92 1287.92 1869.31 1297.99 C 1840.21 1301.82 1796.05 1314.3 1775.65 1335.77 C 1741.19 1372.06 1792.87 1407.22 1818.12 1428.69 C 1825.44 1435.12 1832.69 1441.63 1839.86 1448.22 C 1819.24 1442.02 1797.84 1435.02 1776.93 1430.29 C 1745.12 1423.09 1712.1 1417.89 1679.91 1412.46 C 1706.15 1364.6 1727.92 1314.42 1744.92 1262.55 z" fill="rgb(255,255,255)" transform="translate(0,0)"></path>
<path d="M 542.841 348.976 L 544.279 349.631 C 550.431 361.3 549.054 409.09 548.96 424.968 C 535.442 438.226 510.447 461.379 494.992 472.041 C 467.959 463.048 441.923 450.448 415.618 440.02 C 405.703 436.253 400.68 430.374 392.716 423.758 C 388.964 420.641 375.385 411.981 374.96 407.957 C 379.486 405.579 407.863 405.73 415.645 405.048 C 445.548 402.427 441.177 387.602 458.616 380.138 C 485.734 368.532 515.199 360.298 542.841 348.976 z" fill="rgb(255,255,255)" transform="translate(0,0)"></path>
<path d="M 244.416 1267.16 L 246.502 1266.97 C 250.19 1269.15 251.175 1274.77 252.317 1278.85 C 265.716 1326.73 287.763 1371.56 312.43 1414.68 C 307.248 1415.8 301.515 1416.87 296.273 1417.68 C 251.557 1424.64 209.51 1435.24 166.277 1448.28 C 170.126 1443.66 175.956 1438.03 180.275 1433.64 C 200.446 1414.87 229.056 1394.07 234.257 1365.65 C 243.196 1316.79 169.38 1303.41 137.037 1297.24 C 165.764 1286.05 213.638 1274.72 244.416 1267.16 z" fill="rgb(255,255,255)" transform="translate(0,0)"></path>
<path d="M 882.271 169.118 C 883.495 169.031 884.721 168.97 885.948 168.937 C 897.52 168.652 902.153 171.003 910.202 178.806 C 893.871 182.958 873.339 190.607 856.836 195.79 C 817.937 207.603 779.275 220.184 740.873 233.526 L 729.227 237.37 C 725.378 234.385 720.47 231.515 716.29 228.897 C 768.846 212.546 829.856 184.133 882.271 169.118 z" fill="rgb(255,255,255)" transform="translate(0,0)"></path>
<path d="M 243.544 387.604 C 251.229 391.014 259.617 395.793 267.449 398.048 C 295.975 406.26 322.091 401.863 350.758 399.946 C 357.538 399.492 369.015 400.676 376.095 401.351 C 372.176 405.532 368.271 409.904 364.407 414.147 C 337.977 413.344 318.141 420.438 293.169 420.332 C 272.143 420.243 249.524 415.459 234.823 399.054 C 237.595 394.773 240.343 391.537 243.544 387.604 z" fill="rgb(255,255,255)" transform="translate(0,0)"></path>
<path d="M 673.204 1876.45 C 686.891 1877 704.112 1887.29 716.388 1894.06 C 749.2 1912.14 778.469 1922.57 815.404 1928.71 C 811.916 1931.57 807.274 1934.75 803.556 1937.45 C 799.374 1936.96 795.027 1936.25 790.845 1935.63 C 766.494 1930.29 739.941 1919.82 717.378 1908.87 C 687.837 1894.53 676.73 1885.97 644.062 1879.01 L 673.204 1876.45 z" fill="rgb(255,255,255)" transform="translate(0,0)"></path>
<path d="M 363.657 1002.43 C 368.853 1002.04 374.902 1001.36 380.017 1001.75 C 398.39 1036.41 422.001 1072.65 439.244 1106.82 L 422.379 1106.76 L 387.604 1044.46 C 381.738 1033.72 370.404 1012.04 363.657 1002.43 z" fill="rgb(255,255,255)" transform="translate(0,0)"></path>
<path d="M 683.725 235.327 C 733.383 229.819 744.564 287.544 706.504 309.566 C 704.188 309.358 700.273 305.137 696.651 302.818 C 703.973 296.326 708.948 291.162 711.394 281.093 C 713.469 272.323 711.944 263.086 707.16 255.448 C 699.609 243.384 689.979 240.111 677.11 237.162 L 677.398 236.26 L 677.884 237.219 L 680.471 235.43 L 679.603 235.653 L 683.725 235.327 z" fill="rgb(255,255,255)" transform="translate(0,0)"></path>
<path d="M 341.962 422.413 C 363.74 420.884 384.108 423.581 402.203 436.214 C 393.535 435.701 383.457 433.53 374.337 432.923 C 352.305 431.457 331.96 434.248 310.643 439.293 C 297.264 442.615 275.297 451.548 261.685 456.725 C 287.369 440.189 310.929 424.959 341.962 422.413 z" fill="rgb(255,255,255)" transform="translate(0,0)"></path>
<path d="M 664.899 246.316 C 686.164 247.333 699.915 278.066 678.861 289.514 C 676.218 290.951 670.59 291.517 667.69 290.263 C 666.5 286.868 667.777 284.75 668.775 280.724 C 671.009 253.568 649.239 256.7 630.265 258.402 C 641.708 251.831 651.931 248.47 664.899 246.316 z" fill="rgb(255,255,255)" transform="translate(0,0)"></path>
<path d="M 359.056 288.686 L 359.469 289.201 L 357.696 292.107 C 342.433 317.024 355.746 329.299 369.719 350.277 C 365.304 347.906 360.695 344.655 356.479 341.859 C 354.989 340.804 353.519 339.721 352.071 338.608 C 343.078 331.667 332.848 317.833 331.752 306.343 C 330.225 290.349 347.944 289.169 359.056 288.686 z" fill="rgb(255,255,255)" transform="translate(0,0)"></path>
<path d="M 548.801 442.802 C 549.63 448.86 546.998 477.683 546.831 487.138 C 538.244 484.999 527.835 481.517 519.23 478.896 L 510.527 476.964 C 523.68 465.348 535.864 454.833 548.801 442.802 z" fill="rgb(255,255,255)" transform="translate(0,0)"></path>
<path d="M 198.626 1084.41 L 199.894 1082.11 C 203.169 1088.55 218.512 1115.56 217.731 1119.98 C 210.421 1120.67 201.446 1091.57 198.626 1084.41 z" fill="rgb(255,255,255)" transform="translate(0,0)"></path>
<path d="M 743.565 1946.02 C 747.929 1946.04 753.561 1945.9 757.802 1946.22 L 758.425 1947.5 L 760.575 1946.88 L 757.904 1946.25 L 760.569 1947 L 759.371 1947.42 L 759.575 1946.51 L 759.05 1946.43 L 757.746 1947.68 C 752.499 1947.98 747.242 1948.1 741.987 1948.02 L 743.565 1946.02 z" fill="rgb(158,159,177)" transform="translate(0,0)"></path>
<path d="M 198.626 1084.41 C 196.054 1078.43 194.749 1075.02 192.848 1068.79 C 195.932 1073.87 197.411 1076.79 199.894 1082.11 L 198.626 1084.41 z" fill="rgb(158,159,177)" transform="translate(0,0)"></path>
<path d="M 985.142 321.699 C 1003.33 323.734 997.82 346.552 997.735 360.978 C 1006.02 361.182 1014.3 361.641 1022.56 362.354 C 1189.78 375.303 1358.47 455.59 1467.89 583.65 C 1564.8 694.865 1619.09 836.863 1621.1 984.361 C 1621.79 1020.02 1619.47 1041.13 1616.79 1075.78 L 1596.61 1075.54 C 1601.17 1047.16 1602.18 1016.82 1602.05 988.144 C 1561.23 987.491 1516.99 988.485 1476.05 988.759 C 1474.87 1020.04 1472.84 1045 1466.76 1075.96 L 1448.58 1076.03 C 1453.42 1048.84 1456.92 1016.3 1457.18 988.743 C 1412.77 988.456 1368.36 988.503 1323.94 988.884 C 1321.09 1022.12 1317.67 1043.3 1308.5 1075.81 L 1289.66 1075.79 C 1298.47 1043.8 1301.8 1021.11 1305.15 988.425 L 1218.67 988.828 C 1205.45 988.878 1192.2 989.053 1179 988.959 C 1170.67 988.9 1167.21 978.826 1172.71 973.119 C 1174.84 970.907 1178.42 970.311 1181.36 970.214 C 1195.2 969.754 1209.15 970.215 1223.01 970.284 C 1250.73 970.448 1278.45 970.427 1306.17 970.219 C 1305.86 893.243 1284.19 823.129 1234.91 762.68 C 1178.91 693.971 1099.1 650.499 1010.49 642.421 C 920.427 634.384 830.885 662.693 761.805 721.043 C 682.144 787.485 648.135 869.142 639.067 970.059 C 671.519 970.054 703.971 970.256 736.421 970.664 C 752.945 970.754 769.476 970.738 785.995 971.028 C 790.32 971.104 794.931 974.818 795.26 979.234 C 795.421 981.672 794.482 984.055 792.702 985.729 C 787.306 990.726 743.884 988.945 734.967 988.935 L 640.532 988.812 C 638.517 995.205 639.039 997.207 632.483 1000.38 C 624.464 1000.22 623.405 995.586 621.567 988.719 C 604.883 988.586 502.571 991.408 495.926 986.049 C 493.904 984.418 492.874 982.078 492.779 979.513 C 492.692 977.158 493.343 974.443 495.154 972.8 C 497.648 970.538 502.343 970.403 505.523 970.181 C 518.673 969.262 532.318 970.024 545.523 970.054 L 622.073 970.188 C 623.064 951.096 623.899 938.295 627.048 919.23 C 638.387 853.959 671.731 786.672 717.152 738.351 C 782.238 667.965 872.753 626.51 968.561 623.207 C 1061.69 620.036 1152.16 654.561 1219.49 718.969 C 1291.45 787.402 1322.36 872.361 1324.86 970.05 C 1368.92 970.387 1412.97 970.376 1457.03 970.019 C 1457.79 865.198 1416.12 751.383 1356.72 665.838 C 1346.36 650.979 1335.4 636.55 1323.86 622.59 C 1316.27 613.505 1304.31 600.779 1298.48 591.277 C 1298.39 578.788 1310.34 580.085 1316 586.183 C 1389.05 664.802 1441.45 761.389 1463.32 866.694 C 1470.53 901.448 1474.06 934.543 1476.04 969.794 C 1517.88 970.299 1559.72 970.45 1601.57 970.249 C 1599.72 894.808 1580.54 818.162 1550.46 749.132 C 1524.49 688.382 1488.33 632.523 1443.52 583.972 C 1301.32 429.025 1070.61 344.746 863.879 392.148 C 836.035 398.533 808.025 405.08 781.583 415.627 C 775.054 418.231 759.98 425.049 757.097 414.566 C 754.612 405.531 761.636 402.316 768.813 399.883 C 836.299 375.788 906.272 361.863 978.04 360.996 C 978.307 346.481 973.524 331.708 985.142 321.699 z" fill="rgb(173,21,43)" transform="translate(0,0)"></path>
<path d="M 1114.66 174.699 C 1152.3 187.107 1090.16 221.03 1077.79 230.478 C 1097.65 234.273 1120.86 238.526 1140.44 243.562 C 1152.37 236.669 1204.09 202.558 1213.36 203.334 C 1216.68 203.612 1219.69 205.47 1221.71 208.076 C 1223.8 210.764 1225.19 214.815 1224.33 218.188 C 1222 227.365 1179.44 245.803 1169.54 252.174 C 1187 257.183 1212.74 267.112 1229.74 273.632 C 1239.4 268.536 1303.16 238.089 1309.6 239.536 C 1312.62 240.215 1314.41 242.446 1315.9 244.951 C 1317.83 248.207 1318.85 251.152 1317.68 254.914 C 1317.08 256.862 1316.08 258.676 1314.59 260.089 C 1308.2 266.166 1269.7 279.107 1258.51 284.761 C 1275.76 292.059 1299.68 304.338 1317 312.795 C 1340.52 306.01 1365.37 293.221 1388.91 287.473 C 1404.2 283.741 1412.11 306.115 1388.65 312.903 C 1374.33 317.045 1357.35 322 1342.77 326.043 C 1351.4 334.005 1386.39 355.459 1398.34 363.472 C 1409.64 360.476 1468.52 341.958 1475.53 345.164 C 1479.1 346.802 1481.65 349.858 1482.97 353.533 C 1484.16 356.816 1484.27 360.635 1482.41 363.709 C 1481.35 365.459 1479.94 366.655 1478.08 367.441 C 1464.46 373.209 1440.95 374.978 1425.15 380.067 C 1440.34 393.933 1456.11 404.542 1472.69 420.192 C 1483.7 417.814 1546.1 407.539 1553.32 412.383 C 1556.21 414.325 1558.25 417.964 1558.73 421.329 C 1559.11 423.994 1558.35 427.116 1556.61 429.194 C 1548.73 438.576 1509.24 438.504 1496.02 439.366 C 1512.66 455.222 1523.81 467.688 1539.47 483.888 C 1551.82 483.568 1613.32 480.418 1620.71 487.316 C 1623.63 490.047 1624.22 493.444 1624.1 497.231 C 1623.97 501.024 1623.24 503.691 1620.45 506.437 C 1614.24 509.247 1569.58 506.745 1560.26 506.57 C 1573.7 524.898 1586.23 539.964 1599.94 559.492 C 1612.26 561.104 1669.07 562.79 1676.1 569.689 C 1678.62 572.168 1680.14 576.8 1679.97 580.277 C 1679.83 583.005 1678.66 585.471 1676.51 587.192 C 1667.57 594.335 1627.38 585.29 1615.82 583.576 C 1628.87 603.044 1637.8 619.257 1649.05 639.702 C 1658.4 641.96 1694.48 649.968 1702.64 650.355 C 1730.22 651.662 1733.93 678.081 1712.85 676.703 C 1703.99 676.124 1674.38 667.776 1662.11 665.843 C 1669.69 680.617 1685.03 708.902 1689.36 723.872 C 1693.11 725.053 1707.47 729.351 1710.53 731.097 C 1726.13 739.989 1785.23 744.816 1754.7 771.615 C 1737.51 766.32 1718.07 758.567 1700.52 752.715 C 1708.52 771.419 1714.42 792.051 1720.47 811.565 C 1730.44 815.768 1784.39 839.093 1786.43 846.579 C 1797.11 885.738 1740.28 847.828 1727.5 841.177 C 1733.02 860.869 1736.75 885.332 1739.62 905.622 C 1752.7 911.417 1797.59 934.674 1803.21 946.012 C 1804.68 948.962 1805.07 952.245 1803.86 955.356 C 1802.74 958.242 1800.05 961.079 1797.11 962.148 C 1788.2 965.386 1755.61 941.315 1745.07 936.128 L 1743.73 935.477 C 1745.81 956.145 1747.62 976.839 1749.18 997.553 C 1767.19 1009 1786.62 1024.06 1804.46 1036.2 C 1808.82 1039.17 1811.2 1047.04 1808.05 1051.74 C 1798.82 1065.49 1781.71 1049.03 1772.64 1043.43 C 1764.6 1038.02 1757.38 1033.12 1749.52 1028.11 C 1748.58 1041.43 1748.82 1057.09 1748.14 1071 L 1729.03 1071.28 C 1729.16 1057.85 1729.19 1044.43 1729.14 1031 C 1718.13 1039.85 1673.36 1086.51 1671.96 1048.92 C 1676.53 1042.8 1720.93 1005.68 1728.92 999.79 C 1727.82 979.146 1726.06 958.542 1723.65 938.01 C 1715.5 946.409 1685.9 978.275 1672.63 972.579 C 1668.37 970.753 1667.35 959.961 1671.37 955.197 C 1677.46 947.994 1684.72 942.025 1691.71 935.55 C 1701.29 926.761 1710.65 917.726 1719.76 908.453 C 1717.42 890.326 1711.65 863.234 1707.24 845.218 C 1698.36 854.7 1689.4 865.033 1679.97 875.648 C 1669.2 887.766 1651.51 890.912 1654.27 869.733 C 1654.56 867.433 1666.6 854.856 1669.44 851.879 C 1680.22 840.578 1691.14 829.34 1701.25 817.176 C 1694.82 796.532 1687.68 776.122 1679.81 755.982 C 1671.88 767.078 1629.25 835.333 1627.85 785.657 C 1627.81 784.238 1664.96 738.048 1670.84 729.92 C 1662.44 710.919 1652.39 691.931 1642.92 673.381 C 1637.77 681.469 1616.25 723.71 1607.39 723.45 C 1578.74 722.611 1603.84 691.952 1610.27 681.204 C 1617.24 669.564 1624 658.994 1631.55 648.46 C 1620.31 629.271 1608.75 610.27 1596.88 591.466 C 1589.44 605.085 1582.99 634.208 1571.35 643.125 C 1568.96 644.953 1566.12 645.958 1563.1 645.161 C 1560.09 644.366 1556.44 641.113 1555.13 638.27 C 1551.74 630.904 1578.05 578.215 1582.27 567.032 C 1568.53 550.287 1555.79 533.791 1541.67 516.929 C 1535.55 534.044 1533.04 555.968 1524.04 571.702 C 1517.4 581.577 1502.7 574.604 1504.55 564.357 C 1508.76 540.995 1518.65 519.681 1522.84 496.124 C 1509.09 478.853 1494.16 465.838 1478.16 450.751 C 1476.04 463.621 1475.02 512.447 1459.29 511.866 C 1456.26 511.751 1453.43 510.311 1451.56 507.928 C 1450.29 506.318 1448.64 502.94 1448.73 501.031 C 1449.75 479.074 1455.54 454.649 1457.49 432.851 C 1446.51 422.183 1418.73 400.971 1406.14 392.228 C 1406.06 400.842 1407.36 449.926 1401.87 453.6 C 1377.94 469.63 1382.6 430.071 1382.8 418.39 C 1382.96 404.321 1383.03 390.251 1383.01 376.182 C 1366.2 366.774 1345.27 352.645 1328.66 342.124 C 1330.88 357.845 1335.45 387.944 1329.8 403.053 C 1326.65 411.504 1310.89 404.735 1310.07 396.941 C 1307.71 374.701 1306.01 351.857 1304.62 329.446 C 1284.98 319.337 1263.31 309.16 1243.31 299.865 C 1246.05 313.5 1248.87 327.121 1251.75 340.727 C 1253.43 348.748 1258.56 368.693 1245.36 370.062 C 1242.24 370.386 1239.11 369.492 1236.62 367.563 C 1229.49 362.002 1220.41 302.338 1218.46 289.95 C 1197.11 284.015 1177.01 275.979 1155.84 270.205 C 1160.72 282.608 1176.58 321.646 1171.4 332.998 C 1170.1 335.872 1167.87 337.661 1164.83 338.519 C 1162.14 339.28 1159.7 338.85 1157.29 337.48 C 1148.13 332.271 1133.32 275.476 1130.1 262.823 C 1109.52 258.306 1088.88 254.098 1068.17 250.202 C 1074.39 264.829 1079.2 279.464 1084.92 294.534 C 1094.84 310.887 1074.91 324.658 1067.63 310.494 C 1059.92 295.5 1048.14 262.11 1041.65 245.962 C 1025.99 244.301 1010.33 242.772 994.649 241.374 C 990.567 233.701 987.376 226.744 983.794 218.853 C 999.231 218.674 1029.33 223.081 1045.66 225.087 C 1065.04 212.814 1094.69 189.135 1114.66 174.699 z" fill="rgb(173,21,43)" transform="translate(0,0)"></path>
<path d="M 1577.65 1437.92 C 1597.49 1438.51 1615.44 1439.34 1635.16 1441.4 L 1629.96 1451.96 C 1641.25 1452.15 1677.9 1451.02 1686.01 1453.96 C 1688.47 1454.86 1690.12 1456.59 1691.11 1459.01 C 1692.63 1462.73 1691.93 1470.02 1689.81 1473.39 C 1685.28 1480.56 1623.94 1474.96 1611.42 1477.05 C 1611.01 1477.12 1610.6 1477.2 1610.19 1477.27 C 1605.21 1481.95 1598.8 1489.97 1594.12 1495.31 L 1566.85 1525.88 C 1583.53 1526.92 1611.46 1526.46 1626.97 1532.68 C 1635.81 1536.24 1630.48 1553.1 1622.04 1552.94 C 1596.43 1552.47 1571.75 1547.89 1545.84 1547.92 C 1534.85 1557.01 1507.32 1584.78 1497.77 1595.97 C 1510.57 1597.69 1550.76 1600.34 1561.92 1608.82 C 1567.77 1613.25 1562.17 1628.83 1550.67 1627.23 C 1526.25 1623.82 1501.55 1618.25 1477.15 1613.31 C 1461.84 1626.07 1445.19 1639.63 1430.38 1652.83 C 1446.24 1656.39 1476.8 1662.65 1490.01 1672.25 C 1496.28 1676.81 1489.18 1690.7 1481.82 1689.36 C 1456.41 1684.75 1432.22 1675.23 1406.71 1669.72 C 1387.87 1681.01 1370.18 1694.02 1350.75 1705.47 C 1362.39 1708.98 1407.84 1723.81 1409.9 1730.72 C 1418.84 1760.64 1373.64 1738.09 1370.05 1736.72 C 1355.13 1731.02 1340.09 1725.62 1324.95 1720.53 C 1306.4 1730.49 1287.56 1739.73 1268.95 1749.74 C 1277.29 1753.53 1323.27 1770.77 1323.76 1780.48 C 1325.11 1807.53 1291.12 1785.19 1280.08 1780.46 C 1266.87 1774.79 1253.77 1768.12 1241.31 1761.13 C 1221.94 1768.18 1202.63 1775.43 1183.4 1782.88 C 1194.92 1790.23 1231.03 1805.81 1235.26 1817.47 C 1236.21 1820.11 1236.11 1822.87 1234.84 1825.39 C 1233.36 1828.34 1230.71 1830.84 1227.51 1831.75 C 1219.12 1834.13 1164.53 1798.62 1153.9 1792.5 C 1132.94 1797.91 1111.6 1803.9 1090.52 1808.57 C 1104.83 1820.32 1125.74 1831.39 1136.95 1846.02 C 1142.77 1853.62 1131.81 1866.19 1123.91 1861.35 C 1101.57 1847.65 1081.75 1830.18 1060.11 1815.08 C 1039.7 1818.33 1018.03 1820.55 997.402 1823.39 C 1006.31 1835.66 1039.94 1861.99 1039.58 1868.23 C 1037.53 1904.25 995.43 1854.44 991.743 1850.59 C 977.883 1836.13 972.995 1820.07 975.079 1801.45 C 976.774 1786.31 987.655 1762.01 997.593 1750.78 C 1004.31 1743.36 1015.68 1753.77 1014.38 1758.96 C 1010.92 1772.74 1004.19 1787.11 999.305 1801.02 C 1014.03 1798.2 1038.68 1796.28 1054.28 1794.68 C 1056.54 1786.64 1075.56 1725.46 1079.36 1723.52 C 1115.12 1705.24 1083.72 1776.81 1079.97 1787.8 C 1103 1783.28 1121.79 1778.99 1144.26 1772.51 C 1146.14 1761.5 1158.19 1702.65 1166.91 1699.75 C 1191.27 1691.64 1178.86 1727.13 1175.8 1738.01 C 1173.71 1745.39 1170.54 1758.42 1168.81 1765.13 C 1189.55 1757.34 1211.41 1749.84 1231.55 1740.92 C 1233.19 1728.36 1239.21 1673.95 1245.89 1667.94 C 1248.32 1665.76 1252.88 1663.77 1256.2 1664.36 C 1258.5 1664.77 1259.87 1665.93 1261.18 1667.75 C 1267.86 1677.03 1257.48 1718.71 1255.28 1731.07 C 1273.7 1722.8 1295.32 1710.99 1313.62 1701.68 C 1314.83 1692.82 1321.04 1626.44 1323.74 1624.19 C 1353.68 1599.27 1339.11 1674.65 1338.75 1687.72 C 1355.43 1677.81 1375.36 1661.46 1392.14 1654.55 C 1392.49 1640.33 1387.69 1586.66 1392.51 1578.4 C 1394.21 1575.5 1397.41 1573.09 1400.78 1572.72 C 1403.63 1572.4 1405.84 1572.99 1408.08 1574.76 C 1416.51 1581.4 1413.17 1626.58 1413.43 1638.46 C 1431.53 1625.55 1448.49 1611.11 1464.12 1595.31 C 1461.32 1584.77 1450.54 1534.68 1456.42 1527.39 C 1478.37 1500.15 1481.02 1568.82 1482.55 1580.84 C 1499.14 1565.04 1513.75 1548.62 1529.44 1532.01 C 1526.81 1522.47 1509.22 1477.17 1513.05 1470.39 C 1531.77 1437.21 1543.74 1503.97 1546.95 1515.83 C 1557.97 1504.06 1574.93 1483.01 1584.69 1470.28 C 1581.41 1459.57 1579.45 1448.93 1577.65 1437.92 z" fill="rgb(173,21,43)" transform="translate(0,0)"></path>
<path d="M 970.713 773.418 C 1001.09 769.535 1044.78 779.029 1072.83 792.408 C 1121.46 815.334 1160.94 857.716 1179.74 908.166 C 1182.16 914.644 1180.9 921.666 1173.42 923.625 C 1162.08 921.166 1159.72 907.152 1155.04 897.492 C 1148.52 884.013 1140.34 871.407 1130.67 859.971 C 1094.29 816.637 1050.02 796.263 994.327 791.419 C 977.317 789.452 950.08 793.652 933.721 798.138 C 885.685 811.188 844.397 841.994 818.206 884.325 C 814.548 890.273 804.222 913.982 802.329 916.164 C 785.427 935.634 779.452 916.882 790.55 897.471 C 801.501 878.317 807.112 865.863 821.907 848.322 C 860.781 802.231 911.394 778.52 970.713 773.418 z" fill="rgb(173,21,43)" transform="translate(0,0)"></path>
<path d="M 983.943 819.508 C 985.991 820.585 1001.39 844.568 1003.94 848.291 C 1014.96 852.367 1028.65 856.386 1040 860.024 C 1034.52 868.777 1027.47 874.387 1021.13 882.893 C 1022.85 891.007 1027.58 911.06 1021.83 916.854 C 1014.43 918.931 994.682 910.209 986.241 907.017 C 978.082 905.861 959.488 917.093 951.81 920.007 C 941.828 918.852 947.613 891.076 948.421 883.25 C 942.402 875.383 936.752 868.838 930.714 860.564 C 941.025 856.213 954.345 852.416 965.185 849.147 C 971.762 839.476 978.018 829.591 983.943 819.508 z" fill="rgb(173,21,43)" transform="translate(0,0)"></path>
<path d="M 1098.31 915.643 C 1110.21 925.111 1119.36 956.282 1123.77 970.404 C 1116.6 993.876 1113.09 1006.45 1098.58 1026.44 C 1092.41 1018.92 1086.33 1011.33 1080.35 1003.65 L 1069.75 1006.29 C 1062.46 1007.89 1053.86 1008.93 1046.37 1010.01 L 1039.59 1003.38 C 1040.16 1002.4 1040.71 1001.42 1041.26 1000.43 C 1055.5 974.935 1052.25 958.354 1039.43 935.788 C 1038.83 934.735 1039.97 933.765 1040.69 932.701 C 1050.75 928.589 1071.24 933.308 1081.52 936.427 L 1098.31 915.643 z" fill="rgb(173,21,43)" transform="translate(0,0)"></path>
<path d="M 869.058 915.346 C 877.293 921.319 886.375 929.63 894.172 936.4 C 901.955 934.416 927.81 927.54 933.819 934.072 C 933.656 937.512 926.813 946.019 924.718 954.129 C 919.353 974.906 924.394 985.941 933.865 1003.39 C 931.499 1005.46 929.193 1007.76 926.923 1009.96 C 921.544 1008.66 915.615 1007.71 910.137 1006.72 C 904.149 1005.6 900.101 1004.45 894.277 1002.75 C 886.162 1010.61 878.349 1018.25 869.858 1025.71 C 861.72 1008.24 857.619 988.032 849.596 971.365 C 855.728 956.974 864.479 930.511 869.058 915.346 z" fill="rgb(173,21,43)" transform="translate(0,0)"></path>
<path d="M 945.825 1017.62 C 959.648 1020.75 972.994 1026.69 986.136 1032.1 C 999.062 1027.16 1012.35 1021.84 1025.51 1017.7 C 1025.12 1029.72 1023.58 1040.93 1021.58 1052.76 C 1028.06 1058.59 1036.21 1067.33 1042.5 1073.68 L 1033.16 1077.18 C 999.195 1085.89 961.013 1084.29 927.476 1074.26 C 933.203 1066 939.627 1059.3 948.491 1054.51 C 946.918 1042.19 945.375 1030.04 945.825 1017.62 z" fill="rgb(173,21,43)" transform="translate(0,0)"></path>
<path d="M 816.05 497.193 C 851.22 493.405 856.576 525.818 848.533 552.789 C 845.917 561.562 839.213 566.84 831.129 570.488 C 797.017 578.095 791.043 539.615 799.212 515.452 C 802.379 506.086 807.274 501.358 816.05 497.193 z" fill="rgb(26,33,77)" transform="translate(0,0)"></path>
<path d="M 821.813 508.898 C 838.776 512.316 837.063 528.702 835.358 542.791 C 834.505 549.844 832.159 555.243 826.256 559.306 C 807.511 558.533 810.093 532.219 813.173 519.314 C 814.439 514.009 817.168 511.404 821.813 508.898 z" fill="rgb(255,255,255)" transform="translate(0,0)"></path>
<path d="M 908.561 497.153 C 921.939 496.158 934.663 501.951 938.46 515.218 C 944.934 537.841 943.641 562.471 918.696 571.193 C 885.866 575.887 879.767 533.075 890.737 510.896 C 894.755 502.771 900.205 499.695 908.561 497.153 z" fill="rgb(26,33,77)" transform="translate(0,0)"></path>
<path d="M 911.962 509.867 C 912.818 510.032 913.671 510.211 914.521 510.405 C 931.307 514.322 929.772 550.454 916.046 558.073 C 898.24 554.634 899.23 537.144 902.151 521.9 C 903.278 516.02 906.703 512.594 911.962 509.867 z" fill="rgb(255,255,255)" transform="translate(0,0)"></path>
<path d="M 725.065 494.904 L 739.474 494.855 C 737.077 500.666 735.083 508.279 733.303 514.458 L 744.077 514.564 L 749.106 494.954 L 762.259 495 C 760.599 501.461 757.061 509.644 761.061 515.322 C 763.468 515.816 763.801 515.877 766.051 516.828 C 767.076 519.81 766.233 523.896 764.512 526.473 C 754.946 526.656 754.044 528.122 752.323 537.537 C 753.945 539.309 757.673 538.767 761.3 539.259 C 763.341 542.515 762.492 545.273 761.187 548.539 C 757.766 551.011 754.75 549.982 749.652 549.908 C 747.7 556.484 746.282 563.997 744.847 570.775 L 731.405 570.824 C 730.763 564.089 736.286 557.993 734.877 551.64 C 732.355 549.589 730.75 549.862 727.472 549.66 C 722.842 553.023 721.225 564.908 719.808 571.148 L 706.065 571.054 C 707.697 565.561 711.675 555.541 709.581 550.73 C 706.064 550.799 705.216 551.104 702.309 549.095 C 700.218 545.833 700.694 542.294 700.68 538.34 L 715.074 538.743 L 717.853 526.891 L 703.241 526.998 L 704.458 515.094 L 720.307 515.226 L 725.065 494.904 z" fill="rgb(26,33,77)" transform="translate(0,0)"></path>
<path d="M 730.491 526.858 C 734.155 526.732 737.984 526.076 740.875 528.025 C 742.129 531.212 740.545 535.304 739.651 538.858 L 728.014 538.639 L 730.491 526.858 z" fill="rgb(255,255,255)" transform="translate(0,0)"></path>
<path d="M 1176.71 498.043 C 1181.97 497.885 1187.72 497.981 1193.02 497.974 C 1193.09 505.89 1191.65 538.021 1193.86 542.653 C 1202.09 543.108 1202.7 547.659 1199.22 554.856 C 1197.03 555.897 1196.22 556.337 1194.18 557.656 C 1192.06 561.25 1193 565.944 1193.28 570.307 C 1188.68 570.299 1182.15 571.354 1178.99 569.232 C 1177.01 566.382 1177.7 563.41 1177.86 559.75 C 1177.88 557.355 1178.22 558.444 1176.85 556.48 C 1170.86 555.052 1151 555.772 1143.59 555.899 C 1143.61 551.643 1143.8 547.261 1143.93 542.995 C 1155.57 528.538 1166.51 513.537 1176.71 498.043 z" fill="rgb(26,33,77)" transform="translate(0,0)"></path>
<path d="M 1177.75 517.891 C 1179.6 519.949 1178.83 539.221 1178.8 543.246 L 1163.04 543.113 L 1162.02 541.903 C 1163 536.124 1173.7 523.215 1177.75 517.891 z" fill="rgb(255,255,255)" transform="translate(0,0)"></path>
<path d="M 995.804 497.193 C 1004.47 497.202 1012.3 498.373 1018.86 504.652 C 1022.77 508.35 1025.04 513.463 1025.15 518.845 C 1025.43 535.64 1009.27 544.914 998.851 555.868 L 997.919 556.861 L 1029.02 556.589 L 1028.96 570.244 L 996.5 570.365 C 989.337 570.498 979.356 571.909 974.266 567.023 C 971.541 555.43 1020.2 532.346 1007.54 513.809 C 998.579 508.599 990.151 512.744 983.242 518.74 L 976.032 507.334 C 983.662 500.925 985.77 499.373 995.804 497.193 z" fill="rgb(26,33,77)" transform="translate(0,0)"></path>
<path d="M 1237.55 498.173 L 1289.02 498.061 C 1289.04 500.771 1289.15 507.149 1288.2 509.399 C 1279.7 529.446 1268.66 550.557 1259.11 570.063 L 1242.55 570.245 C 1252.04 550.965 1261.77 529.811 1273.33 511.906 L 1237.24 511.065 C 1237.15 506.923 1237.41 502.347 1237.55 498.173 z" fill="rgb(26,33,77)" transform="translate(0,0)"></path>
<path d="M 980.425 223.736 C 989.134 233.283 995.542 253.893 997.776 266.558 C 1000.1 279.707 1006.3 293.023 993.056 301.45 C 977.764 303.117 977.333 274.509 974.982 263.934 C 971.701 249.18 970.009 235.449 980.425 223.736 z" fill="rgb(173,21,43)" transform="translate(0,0)"></path>
<path d="M 1087.07 498.041 C 1090.89 497.85 1092.63 497.493 1096.29 498.698 C 1097.18 504.364 1096.84 517.032 1096.86 523.549 L 1096.92 570.147 L 1081.4 570.163 L 1081.68 559.428 L 1081.6 517.66 C 1076.94 520.727 1072.72 522.79 1067.79 525.305 L 1065.35 511.777 C 1073.61 507.183 1079.28 503.374 1087.07 498.041 z" fill="rgb(26,33,77)" transform="translate(0,0)"></path>
<path d="M 986.867 669.912 C 999.168 673.529 998.793 684.577 997.569 695.955 C 995.817 712.242 1003.6 734.37 989.369 743.898 C 979.349 741.638 976.831 734.065 978.011 724.856 C 980.227 707.563 970.955 679.897 986.867 669.912 z" fill="rgb(173,21,43)" transform="translate(0,0)"></path>
<path d="M 1015.12 159.652 C 1022.58 159.772 1030.45 164.691 1029.2 171.983 C 1027.19 183.689 1004.15 199.979 995.569 208.362 L 988.562 216.057 C 988.014 206.01 987.798 195.601 987.453 185.518 C 994.26 178.379 1007.58 165.433 1015.12 159.652 z" fill="rgb(173,21,43)" transform="translate(0,0)"></path>
<path d="M 784.123 1016.52 C 786.763 1017.36 789.996 1018.33 791.465 1020.7 C 796.465 1028.77 814.466 1064.79 813.412 1072.24 C 811.599 1075.85 810.859 1076 807.313 1078.3 C 806.081 1078.17 800.757 1077.64 800.03 1076.57 C 791.453 1063.85 781.769 1040.84 777.303 1026.15 C 776.364 1023.06 782.516 1017.96 784.123 1016.52 z" fill="rgb(173,21,43)" transform="translate(0,0)"></path>
<path d="M 984.731 403.736 C 990.386 403.971 994.662 404.917 996.483 411.098 C 999.877 422.618 998.383 436.855 997.587 448.78 C 997.229 454.138 995.408 455.961 991.474 459.032 C 973.026 459.007 979.093 432.818 978.494 420.643 C 978.152 413.717 979.891 408.71 984.731 403.736 z" fill="rgb(173,21,43)" transform="translate(0,0)"></path>
<metadata><recraft-signature>{"signed_by": "recraft", "signature_b64": "E4ywg1REYJTSle5tJo/noSQuyltTj77pA3GWcyFp7wAeqL/q02vIg3rJYCuDTrCyK6MwlVdaRetcqtbWshtFAQ==", "signing_algo": "Ed25519", "generation_timestamp": 1777331349, "identifier": "f46f7c63-e107-457e-b8e3-dd9e8dfa5e32"}</recraft-signature></metadata></svg>