<svg xmlns="http://www.w3.org/2000/svg" height="1024" preserveAspectRatio="none" style="display: block;" version="1.1" viewBox="0 0 2048 2048" width="1024">
<path d="M 0 0 L 2048 0 L 2048 2048 L 0 2048 L 0 0 z" fill="rgb(255,255,255)" transform="translate(0,0)"></path>
<path d="M 985.251 308.395 C 1017.9 308.077 1056.96 317.654 1071.41 350.2 C 1080.43 353.63 1123.72 374.871 1131 383.789 C 1132.52 385.645 1131.46 387.856 1130.69 389.751 C 1122.15 397.456 1082.6 401.741 1069.35 403.395 L 1061.94 418.513 C 1075.02 419.699 1093.17 423.902 1106.79 425.802 C 1113.02 427.857 1135.78 429.203 1139.94 431.699 C 1166.87 447.879 1198.32 442.93 1228.34 449.476 C 1256.16 455.541 1234.15 515.35 1221.02 517.579 C 1204.53 520.38 1157.63 499.466 1141.18 492.688 L 1140.62 493.526 L 1139.66 494.907 C 1128.94 510.677 1111.69 515.782 1094.06 519.815 C 1084.95 565.433 1068.89 624.423 1038.33 660.187 C 1018.16 683.779 977.596 642.117 963.369 627.958 C 953.217 636.865 949.656 638.286 937.342 644.218 C 935.426 658.006 931.853 667.324 927.116 680.263 C 933.659 690.898 932.331 699.953 931.94 711.962 C 931.478 726.127 934.85 736.027 927.228 748.511 C 934.22 758.782 941.39 773.719 947.229 785.141 C 957.105 804.249 966.751 823.475 976.165 842.815 C 983.583 858.019 1007.15 900.848 1005.55 915.346 C 998.858 975.835 989.497 1036.42 980.348 1096.59 C 978.008 1111.98 962.317 1098.87 954.072 1105.87 C 948.647 1110.36 950.088 1117.7 950.278 1124.1 C 975.055 1121.89 999.863 1120.03 1024.69 1118.53 C 1046.09 1117.42 1068.73 1117.09 1089.94 1115.43 C 1089.96 1114.52 1089.98 1113.62 1089.99 1112.71 C 1090.26 1086.1 1082.64 1073.85 1064.71 1055.56 C 1093.61 1066.68 1101.8 1086.71 1102.98 1115.6 C 1107.98 1115.65 1113.42 1115.37 1118.45 1115.21 C 1127.5 1061.66 1139.77 1018.5 1182.45 980.406 C 1210.02 955.806 1242.54 943.922 1279.52 947.071 C 1301.91 948.979 1325 957.235 1339.92 974.762 C 1295.58 954.121 1257.17 952.523 1213.88 978.402 C 1164.19 1008.1 1146.08 1061.8 1133.16 1114.91 L 1160.46 1117.2 C 1173.37 1083.58 1201.14 1053.82 1235.73 1042.43 C 1229.94 1047.75 1222.07 1053 1215.84 1058.7 C 1196.09 1076.78 1185.55 1093.68 1176.64 1118.38 C 1199.13 1120.87 1219.58 1123.34 1241.53 1129.15 C 1254.65 1132.62 1269.46 1139.32 1282.59 1140.84 C 1327.91 1146.09 1373.9 1145.38 1419.07 1152.15 C 1433.74 1154.34 1448.36 1157.32 1462.91 1160.18 C 1454.23 1115.62 1426.18 1088.34 1391.07 1063.67 C 1432.5 1075.61 1451.54 1094.99 1467.73 1134.24 C 1471.14 1071.63 1493.38 1009.98 1545.64 971.272 C 1550.12 967.954 1562.05 959.158 1567.36 960.031 C 1567.66 963.09 1546.43 981.583 1541.65 986.973 C 1511.49 1021.03 1494.2 1060.3 1486.95 1105.01 C 1485.33 1115.02 1478.03 1158.89 1482.37 1165.14 C 1492.36 1167.54 1493.03 1156.78 1494.61 1149.69 C 1505.42 1100.99 1542.68 1048.4 1595.66 1041.78 C 1588.32 1047.7 1576.97 1053.41 1568.83 1059.57 C 1543.22 1078.95 1526.88 1104.87 1515.95 1134.61 C 1511.69 1146.81 1508.99 1159.54 1506.31 1172.16 C 1581.57 1192.44 1753.18 1237.74 1812.84 1279.06 C 1801.7 1276.57 1786.36 1271.15 1775.02 1267.78 C 1743.6 1258.55 1712.3 1248.95 1681.1 1238.99 C 1639.46 1225.96 1597.6 1213.63 1555.53 1202.02 C 1514.29 1190.36 1474.92 1179.65 1433.05 1170.32 C 1379.33 1158.35 1324.34 1162.91 1270.89 1155.22 C 1240.91 1150.12 1212.4 1140.9 1182.27 1136.12 C 1123.15 1126.73 1063.65 1132.37 1004.18 1134.25 C 987.491 1134.77 968.24 1137.63 951.568 1139.68 C 973.522 1152.45 982.504 1159.43 1008.66 1157.96 C 1034.89 1156.48 1047.77 1185.35 1025.57 1199.27 C 1003.53 1213.09 957.103 1215.04 932.791 1211.62 C 930.991 1213.14 929.042 1214.49 926.972 1215.62 C 917.651 1220.66 894.247 1220.93 884.184 1218.12 C 859.918 1211.34 883.742 1163.43 890.088 1147.69 C 842.29 1152.29 784.278 1161.28 736.527 1168.28 C 733.771 1175.98 729.608 1182.89 721.314 1185.74 C 701.373 1192.6 680.39 1191.29 659.835 1194.42 C 642.69 1197.03 625.794 1202.05 608.531 1203.8 C 603.632 1204.28 598.05 1198.55 594.634 1195.24 C 573.538 1198.8 549.847 1204.25 528.681 1208.72 C 468.731 1221.32 409.077 1235.3 349.768 1250.64 C 316.237 1259.05 274.396 1270.71 241.082 1277.07 C 265.803 1264.63 306.252 1251.77 332.865 1243.68 C 388.667 1226.98 445 1212.1 501.775 1199.07 C 531.722 1191.95 566.06 1185.08 595.233 1176.81 C 597.4 1171.83 604.065 1146.55 604.046 1146.57 C 617.227 1131.41 617.802 1120.49 622.828 1100.69 C 618.97 1099.21 614.243 1097.81 612.204 1094.24 C 613.319 1079.89 695.823 907.848 707.009 886.232 C 699.432 892.38 692.337 897.388 682.41 899.587 C 642.119 908.652 598.544 900.405 563.098 879.717 C 540.484 866.519 515.918 848.788 524.955 819.206 C 530.632 800.627 537.214 783.935 544.395 765.942 C 557.716 732.562 570.159 698.746 587.708 667.286 C 597.506 650.154 608.435 635.71 627.468 628.555 C 651.319 619.589 669.963 596.103 689.398 579.302 C 735.884 539.187 784.788 501.961 835.833 467.835 C 856.86 453.953 866.459 444.094 891.903 437.267 C 885.053 422.374 885.054 415.187 884.038 399.116 C 853.629 390.624 870.355 366.875 890.392 359.124 C 895.578 357.117 906.948 349.598 911.902 346.496 C 925.434 317.916 955.963 310.288 985.251 308.395 z" fill="rgb(38,39,59)" transform="translate(0,0)"></path>
<path d="M 826.044 836.821 C 847.68 863.62 893.964 916.262 898.282 951.157 C 899.009 957.025 894.289 985.501 893.068 993.603 L 885.341 1047.77 C 883.957 1057.37 878.689 1083.81 880.574 1091.11 C 884.655 1096.09 894.797 1097.22 901.327 1098.64 C 899.933 1109.42 899.195 1121.09 896.804 1131.58 C 852.996 1135.58 803.453 1143.16 759.781 1149.94 C 752.191 1151.04 744.626 1152.32 737.091 1153.75 C 712.522 1125.31 697.359 1158.1 669.273 1126.17 L 672.863 1112.59 C 683.195 1113.5 690.046 1114.85 700.827 1114.93 C 705.96 1107.83 711.24 1094.29 714.977 1085.82 L 733.372 1044.5 C 763.735 976.166 792.871 903.627 826.044 836.821 z" fill="rgb(255,255,255)" transform="translate(0,0)"></path>
<path d="M 689.777 626.4 C 716.993 622.414 734.888 669.459 737.017 690.259 C 737.375 700.282 732.489 711.004 731.159 720.809 C 726.068 758.354 718.948 795.868 709.749 832.615 C 705.587 849.241 698.588 871.182 686.591 883.844 C 676.585 887.231 669.377 888.357 658.969 889.404 C 660.73 882.975 661.276 872.882 663.268 867.473 C 668.442 853.422 674.303 839.573 679.423 825.452 C 687.912 801.648 695.655 777.584 702.639 753.296 C 705.653 743.089 712.111 723.563 712.291 713.508 C 712.852 682.093 684.644 655.678 660.324 641.333 C 686.365 672.46 715.783 686.979 699.253 734.933 C 689.59 762.964 680.577 792.147 670.473 820.242 C 663.613 839.912 653.381 859.959 647.132 880.113 C 643.19 892.826 616.797 886.587 606.651 883.197 C 583.227 875.371 552.72 863.597 539.136 841.186 C 532.037 829.254 546.17 799.593 551.007 787.515 C 556.452 773.917 562.016 760.458 567.073 746.7 C 583.44 763.047 607.78 788.643 632.524 787.485 C 650.516 786.642 681.923 761.302 693.529 748.476 C 685.576 750.913 677.066 755.035 670.034 758.916 C 646.613 771.843 636.052 788.319 609.098 771.058 C 593.59 761.127 583.652 751.652 570.285 738.953 C 599.37 665.258 604.928 636.347 689.777 626.4 z" fill="rgb(255,255,255)" transform="translate(0,0)"></path>
<path d="M 629.799 687.624 C 643.076 685.709 655.379 694.957 657.23 708.243 C 659.08 721.53 649.773 733.787 636.478 735.574 C 623.273 737.348 611.117 728.118 609.279 714.922 C 607.441 701.726 616.612 689.526 629.799 687.624 z" fill="rgb(236,43,50)" transform="translate(0,0)"></path>
<path d="M 801.84 787.17 C 837.811 781.09 880.641 765.949 916.282 753.969 C 934.894 790.029 953.157 826.267 971.07 862.679 C 974.796 870.264 991.465 902.531 991.676 908.512 C 992.318 926.751 986.832 957.722 984.234 976.538 C 978.959 1014.75 972.553 1052.71 968.056 1090.91 C 939.81 1089.42 922.409 1088.49 894.567 1081.65 C 898.862 1051.89 902.958 1022.09 906.855 992.269 C 908.321 981.258 910.793 957.613 912.988 947.665 C 915.556 946.454 915.63 946.49 918.445 945.961 L 918.111 945.213 C 916.046 945.497 915.111 945.516 913.017 945.533 C 910.364 942.763 910.946 940.367 910.421 935.823 L 909.159 933.076 L 908.791 931.355 C 908.384 929.405 908.323 929.019 908.41 926.967 L 910.064 924.527 C 908.265 924.334 907.662 924.375 905.855 924.402 C 903.802 922.402 898.266 911.963 896.058 908.493 C 890.253 899.334 884.137 890.377 877.721 881.635 C 855.172 850.96 826.445 816.36 801.84 787.17 z" fill="rgb(255,255,255)" transform="translate(0,0)"></path>
<path d="M 918.111 945.213 C 924.349 943.535 949.729 941.088 954.697 942.375 C 949.757 944.42 945.74 944.685 940.461 945.447 C 943.471 945.671 949.031 945.507 950.839 947.082 C 945.331 950.719 929.896 945.74 918.445 945.961 L 918.111 945.213 z" fill="rgb(38,39,59)" transform="translate(0,0)"></path>
<path d="M 909.159 933.076 C 913.315 932.638 928.075 930.31 930.802 931.867 C 925.274 934.478 912.799 933.02 910.421 935.823 L 909.159 933.076 z" fill="rgb(107,104,106)" transform="translate(0,0)"></path>
<path d="M 881.737 805.23 L 882.203 805.913 C 877.058 809.355 848.629 823.437 842.697 825.935 C 842.064 825.33 842.442 825.795 842.146 824.223 C 850.242 815.746 870.483 809.379 881.737 805.23 z" fill="rgb(43,45,61)" transform="translate(0,0)"></path>
<path d="M 882.08 813.232 L 882.068 814.123 C 870.744 820.781 859.249 829.098 848.03 834.983 C 847.392 834.329 847.771 834.83 847.533 833.165 C 854.845 826.15 872.625 817.054 882.08 813.232 z" fill="rgb(38,39,59)" transform="translate(0,0)"></path>
<path d="M 915.583 937.381 C 926.009 936.521 938.262 937.558 949.155 937.472 L 948.592 938.107 C 942.668 939.405 919.89 940.069 914.893 938.569 L 915.583 937.381 z" fill="rgb(107,104,106)" transform="translate(0,0)"></path>
<path d="M 911.25 501.407 C 952.398 497.454 960.347 522.111 982.257 550.075 C 964.232 547.188 947.553 538.739 931.669 530.1 C 944.415 542.083 955.721 548.661 972.841 553.767 C 976.871 555.406 984.282 553.587 987.504 556.368 C 994.809 562.675 1002.09 570.121 1008.89 576.88 C 987.128 589.697 959.166 615.273 937.433 631.706 C 912.191 590.523 908.426 586.857 870.596 556.01 C 877.355 565.241 891.612 578.874 896.355 586.538 L 895.972 588.011 C 875.89 594.555 858.375 563.657 850.74 549.421 C 856.26 573.99 864.065 583.618 887.735 593.069 C 861.701 606.392 850.376 605.15 821.261 602.528 C 864.245 619.866 888.143 596.208 897.903 599.736 C 893.91 612.568 772.588 680.566 750.93 696.709 C 751.255 681.485 748.195 675.032 742.98 661.228 C 765.459 626.543 782.37 575.554 807.363 543.212 C 822.043 524.215 886.099 503.992 911.25 501.407 z" fill="rgb(255,255,255)" transform="translate(0,0)"></path>
<path d="M 907.187 562.661 C 916.221 565.895 931.012 587.113 935.622 595.318 C 929.606 591.418 912.3 569.051 907.187 562.661 z" fill="rgb(38,39,59)" transform="translate(0,0)"></path>
<path d="M 947.4 559.123 C 957.434 558.863 978.87 563.012 988.564 566.093 C 973.092 566.107 961.927 564.304 947.4 559.123 z" fill="rgb(38,39,59)" transform="translate(0,0)"></path>
<path d="M 978.184 322.38 C 990.675 321.201 1003.28 322.135 1015.46 325.142 C 1026.2 327.762 1037.37 332.294 1046.59 338.407 C 1075.52 357.594 1037.31 361.26 1024.2 363.986 C 1040.92 366.474 1048.08 366.003 1063.95 359.521 C 1078.43 367.92 1094.23 376.259 1108.96 384.371 C 1061.41 395.04 1025.26 395.328 977.5 395.022 C 951.462 395.112 902.854 391.324 878.483 382.671 C 889.075 372.315 906.187 364.742 919.635 358.393 C 941.194 366.561 963.908 370.314 986.795 366.95 C 964.944 363.868 942.272 359.668 923.725 347.028 C 936.185 331.057 958.946 324.815 978.184 322.38 z" fill="rgb(255,255,255)" transform="translate(0,0)"></path>
<path d="M 1096.84 446.16 L 1090.18 445.254 C 1087.48 441.798 1086.11 441.291 1085.68 437.648 L 1087.44 435.852 C 1090.78 435.243 1090.63 435.032 1093.7 436.355 L 1093.97 439.042 C 1097.26 440.483 1100.55 438.86 1103.6 437.484 L 1104.45 437.093 L 1107.07 438.552 C 1112.4 438.961 1117.22 439.965 1122.14 440.365 L 1131.34 440.813 C 1132.81 442.683 1132.97 442.405 1133.65 444.508 L 1134.04 446.617 L 1139.13 449.252 C 1143.23 453.056 1138.19 468.773 1136.32 473.882 L 1135.61 474.486 L 1136.02 461.93 C 1135.16 465.501 1134.62 467.796 1133.36 471.228 L 1131.71 470.163 C 1131.34 469.656 1128.8 467.476 1128.17 466.912 L 1126.49 474.051 C 1127.18 477.211 1128.7 483.851 1127.53 486.79 C 1121.62 501.544 1098.97 504.896 1085.85 512.269 C 1081.11 520.635 1078.37 535.492 1075.56 545.332 C 1065.11 581.936 1054.35 628.038 1025.15 654.097 C 1004.22 650.801 987.403 634.696 973.4 619.797 C 983.06 610.34 991.622 602.234 1001.79 593.342 C 1006.57 598.793 1010.56 602.928 1016.97 606.646 C 1019.64 602.592 1020.27 588.772 1024.95 581.091 C 1034.15 565.966 1046.21 553.681 1056.65 539.541 C 1069.68 521.884 1072.62 504.499 1079.05 484.203 C 1081.8 475.527 1086.84 467.019 1089.14 458.106 C 1088.02 457.031 1088.53 457.734 1087.88 455.814 C 1088.58 450.198 1093.04 449.29 1097.89 448.377 L 1098.79 448.218 L 1096.84 446.16 z" fill="rgb(255,255,255)" transform="translate(0,0)"></path>
<path d="M 1131.34 440.813 C 1132.81 442.683 1132.97 442.405 1133.65 444.508 L 1134.04 446.617 L 1139.13 449.252 C 1143.23 453.056 1138.19 468.773 1136.32 473.882 L 1135.61 474.486 L 1136.02 461.93 C 1135.16 465.501 1134.62 467.796 1133.36 471.228 L 1131.71 470.163 C 1131.34 469.656 1128.8 467.476 1128.17 466.912 L 1126.49 474.051 L 1124.95 473.918 C 1124.07 475.314 1124.7 474.724 1122.83 475.43 C 1120.85 473.092 1120.34 472.044 1117.41 471.148 C 1117.28 466.264 1116.64 458.627 1120.21 455.265 C 1121.9 453.677 1121.53 453.37 1122.06 450.62 C 1123.23 445.581 1123.19 445.267 1127.76 443.977 C 1130.26 443.375 1129.13 443.675 1131.34 440.813 z" fill="rgb(43,45,61)" transform="translate(0,0)"></path>
<path d="M 1134.04 446.617 L 1139.13 449.252 C 1143.23 453.056 1138.19 468.773 1136.32 473.882 L 1135.61 474.486 L 1136.02 461.93 C 1135.16 465.501 1134.62 467.796 1133.36 471.228 L 1131.71 470.163 C 1131.34 469.656 1128.8 467.476 1128.17 466.912 L 1127.62 461.475 L 1129.69 459.72 C 1132.38 457.134 1133.16 450.614 1134.04 446.617 z" fill="rgb(255,255,255)" transform="translate(0,0)"></path>
<path d="M 1134.04 446.617 L 1139.13 449.252 C 1133.36 454.918 1131.68 462.234 1131.71 470.163 C 1131.34 469.656 1128.8 467.476 1128.17 466.912 L 1127.62 461.475 L 1129.69 459.72 C 1132.38 457.134 1133.16 450.614 1134.04 446.617 z" fill="rgb(43,45,61)" transform="translate(0,0)"></path>
<path d="M 1131.34 440.813 C 1132.81 442.683 1132.97 442.405 1133.65 444.508 L 1134.04 446.617 C 1133.16 450.614 1132.38 457.134 1129.69 459.72 L 1127.62 461.475 C 1124.67 454.258 1127.01 452.756 1127.62 445.78 L 1127.76 443.977 C 1130.26 443.375 1129.13 443.675 1131.34 440.813 z" fill="rgb(43,45,61)" transform="translate(0,0)"></path>
<path d="M 1133.65 444.508 L 1134.04 446.617 C 1133.16 450.614 1132.38 457.134 1129.69 459.72 C 1129.28 454.694 1130.33 448.523 1133.65 444.508 z" fill="rgb(173,172,182)" transform="translate(0,0)"></path>
<path d="M 1122.06 450.62 C 1123.23 445.581 1123.19 445.267 1127.76 443.977 L 1127.62 445.78 C 1127.01 452.756 1124.67 454.258 1127.62 461.475 L 1128.17 466.912 L 1126.49 474.051 L 1124.95 473.918 C 1126.59 462.101 1124.88 462.319 1122.06 450.62 z" fill="rgb(173,172,182)" transform="translate(0,0)"></path>
<path d="M 1096.84 446.16 L 1090.18 445.254 C 1087.48 441.798 1086.11 441.291 1085.68 437.648 L 1087.44 435.852 C 1090.78 435.243 1090.63 435.032 1093.7 436.355 L 1093.97 439.042 C 1097.26 440.483 1100.55 438.86 1103.6 437.484 L 1104.45 437.093 L 1107.07 438.552 C 1112.4 438.961 1117.22 439.965 1122.14 440.365 L 1131.34 440.813 C 1129.13 443.675 1130.26 443.375 1127.76 443.977 C 1123.19 445.267 1123.23 445.581 1122.06 450.62 C 1121.53 453.37 1121.9 453.677 1120.21 455.265 C 1116.64 458.627 1117.28 466.264 1117.41 471.148 C 1114.29 469.731 1107 466.181 1106.47 462.793 L 1109.99 462.122 C 1113 456.777 1113.97 445.702 1107.48 442.272 C 1104.06 441.595 1102.31 440.863 1099.07 442.103 C 1097.1 444.347 1097.57 443.35 1096.84 446.16 z" fill="rgb(45,46,68)" transform="translate(0,0)"></path>
<path d="M 1107.07 438.552 C 1112.4 438.961 1117.22 439.965 1122.14 440.365 C 1117.42 444.299 1111.58 440.988 1107.07 438.552 z" fill="rgb(173,172,182)" transform="translate(0,0)"></path>
<path d="M 1096.84 446.16 C 1097.57 443.35 1097.1 444.347 1099.07 442.103 C 1102.31 440.863 1104.06 441.595 1107.48 442.272 C 1105.15 448.489 1105.07 459.529 1104.06 461.889 C 1096.18 460.977 1093.93 458.756 1089.14 458.106 C 1088.02 457.031 1088.53 457.734 1087.88 455.814 C 1088.58 450.198 1093.04 449.29 1097.89 448.377 L 1098.79 448.218 L 1096.84 446.16 z" fill="rgb(43,45,61)" transform="translate(0,0)"></path>
<path d="M 778.273 722.592 C 825.208 688.986 874.972 661.793 916.126 620.217 L 926.631 639.619 C 924.556 652.54 918.431 667.832 914.606 680.95 C 919.872 692.103 920.573 690.998 919.081 703.753 C 904.412 698.139 882.55 692.741 866.856 695.98 C 870.412 697.987 872.237 697.616 876.493 697.71 C 877.948 699.099 877.62 698.359 877.958 699.647 C 888.141 700.453 898.151 702.741 907.674 706.438 C 912.567 708.393 918.377 710.801 920.503 715.791 C 920.351 717.347 919.888 720.307 918.375 720.753 C 878.759 732.416 810.003 753.391 778.273 722.592 z" fill="rgb(255,255,255)" transform="translate(0,0)"></path>
<path d="M 843.45 702.044 C 850.878 699.448 858.977 696.435 866.856 695.98 C 870.412 697.987 872.237 697.616 876.493 697.71 C 877.948 699.099 877.62 698.359 877.958 699.647 C 864.325 699.082 856.87 699.696 843.45 702.044 z" fill="rgb(45,46,68)" transform="translate(0,0)"></path>
<path d="M 1025.84 427.075 C 1025.99 420.46 1027.74 412.333 1032.46 407.487 L 1033.45 408.42 C 1033.29 411.572 1032.91 410.6 1034.04 413.196 L 1036.21 412.688 C 1037.1 410.176 1036.94 409.911 1038.81 408.122 C 1040.91 407.685 1040.3 407.873 1042.61 408.36 L 1042.45 411.446 L 1043.75 410.974 C 1045.68 407.089 1046.24 403.561 1050.78 404.314 C 1053.95 406.831 1053.11 405.295 1054.03 408.672 C 1052.11 413.685 1049.21 412.978 1047.18 416.842 L 1051.18 419.082 C 1055.55 434.813 1032.92 470.617 1021.74 481.939 C 1009.84 486.072 993.801 474.53 984.207 468.358 C 977.978 477.233 973.233 483.292 966.389 491.558 C 959.998 483.652 952.592 473.118 946.211 464.772 C 961.669 455.677 960.616 453.764 963.909 436.286 C 966.005 441.108 966.126 442.856 970.404 445.116 C 975.808 445.37 978.913 443.828 983.368 440.736 L 982.113 439.029 C 967.48 436.086 965.096 412.33 982.531 404.861 C 996.882 406.772 1000.93 419.433 1001.27 432.291 C 1009.45 430.495 1017.64 428.756 1025.84 427.075 z" fill="rgb(255,255,255)" transform="translate(0,0)"></path>
<path d="M 1054.04 456.427 L 1056.91 458.315 C 1058.29 467.763 1060.19 469.336 1067.04 475.499 C 1063.34 486.394 1063.18 497.91 1060.42 506.777 C 1054.3 526.448 1031.08 550.763 1017.56 567.771 C 994.228 544.734 985.39 534.429 966.086 507.905 C 977.007 499.755 979.259 497.155 987.05 485.842 C 1000.46 493.105 1006.21 495.088 1021.38 496.636 C 1038.75 489 1047.43 473.39 1054.04 456.427 z" fill="rgb(255,255,255)" transform="translate(0,0)"></path>
<path d="M 770.228 727.893 C 774.645 730.481 778.189 735.135 783.032 737.811 C 813.37 754.57 854.458 747.202 886.141 738.78 C 895.748 736.226 904.044 733.234 913.475 730.41 C 916.505 729.503 916.409 729.622 918.022 730.667 C 918.756 734.046 919.227 734.824 917.755 737.958 C 911.697 744.241 898.108 746.886 889.26 749.45 C 851.638 760.77 793.484 787.499 755.909 774.214 C 753.671 763.943 752.512 752.724 751.189 742.237 C 757.446 737.338 763.794 732.556 770.228 727.893 z" fill="rgb(255,255,255)" transform="translate(0,0)"></path>
<path d="M 928.742 1138.75 C 932.693 1141.03 938.57 1145.8 942.376 1148.7 C 939.521 1154.4 933.412 1167.6 940.043 1172.05 C 943.348 1169.28 945.728 1160.28 950.145 1154.68 C 953.077 1153.88 952.873 1153.96 955.808 1154.86 C 958.195 1160.39 950.017 1165.29 948.406 1172.33 L 950.503 1173.99 C 954.812 1173.39 958.567 1167.34 963.94 1166.23 C 965.839 1165.84 967.59 1167.48 969.711 1168.71 L 973.238 1169.91 C 976.059 1168.26 978.085 1168.73 979.884 1171.2 C 980.603 1175.57 979.454 1178.34 978.326 1182.63 L 985.256 1171.03 C 992.776 1170.96 1018.08 1169.58 1021.87 1176.56 C 1028.22 1191.41 994.936 1193.69 987.571 1196.04 C 971.269 1201.25 903.62 1187.07 897.451 1174.49 C 896.717 1167.33 901.144 1157.24 903.67 1150.34 C 913.206 1143.55 917.526 1141.92 928.742 1138.75 z" fill="rgb(255,255,255)" transform="translate(0,0)"></path>
<path d="M 969.711 1168.71 L 973.238 1169.91 C 970.559 1175.83 968.722 1179.58 965.481 1185.23 C 966.794 1178.41 967.46 1175.26 969.711 1168.71 z" fill="rgb(45,46,68)" transform="translate(0,0)"></path>
<path d="M 907.274 480.442 C 924.119 479.873 934.723 483.614 947.491 494.168 C 929.025 489.627 912.383 487.805 893.671 491.72 C 820.191 507.094 754.027 557.083 697.464 603.218 C 693.075 606.843 688.987 610.705 684.802 614.563 C 678.758 615.536 672.442 616.783 666.39 617.877 C 726.928 557.861 819.269 485.733 907.274 480.442 z" fill="rgb(255,255,255)" transform="translate(0,0)"></path>
<path d="M 1144.78 450.584 C 1171 454.87 1195.27 457.276 1221.11 461.03 C 1214.96 474.899 1211.97 483.757 1210.3 498.769 C 1209.99 501.301 1209.95 501.155 1208.69 503.407 C 1202.78 503.79 1148.45 481.447 1138.53 477.624 C 1139.95 467.064 1141.16 460.539 1144.78 450.584 z" fill="rgb(255,255,255)" transform="translate(0,0)"></path>
<path d="M 648.378 1138.93 C 652.128 1138.48 653.676 1138.83 656.763 1140.8 C 660.215 1146.07 656.742 1156.38 656.074 1164.7 C 659.888 1159.92 662.695 1150.09 666.55 1148.69 C 670.447 1152.68 668.721 1159.96 668.119 1165.1 L 674.579 1153.68 C 687.003 1155.53 720.273 1150.6 724.332 1161.73 C 723.251 1167.03 719.505 1169.45 715.19 1172.36 C 698.806 1178.91 667.22 1177.22 648.988 1176.58 C 640.937 1176.29 623.011 1174.76 618.035 1167.76 C 614.336 1162.55 616.921 1155.67 618.332 1149.8 C 629.679 1146.69 637.646 1143.41 648.378 1138.93 z" fill="rgb(255,255,255)" transform="translate(0,0)"></path>
<path d="M 906.263 609.746 L 908.355 610.693 L 908.887 612.489 C 907.025 616.106 896.493 624.574 892.756 627.645 C 856.058 657.795 816.421 683.913 776.535 709.58 C 766.687 715.917 756.447 722.868 747.3 730.191 L 746.507 730.804 L 745.292 730.466 C 744.527 725.024 745.797 718.574 746.534 712.988 C 769.208 694.39 806.955 673.862 832.418 658.883 C 860.251 642.511 880.736 629.333 906.263 609.746 z" fill="rgb(255,255,255)" transform="translate(0,0)"></path>
<path d="M 780.273 558.06 C 780.606 559.506 780.028 560.694 779.253 562.044 C 763.482 589.512 750.789 618.229 736.636 646.456 C 731.631 638.494 728.241 633.739 721.779 627.025 C 713.991 620.431 710.638 619.092 701.299 615.962 C 707.135 610.532 717.091 603.605 723.541 598.523 C 742.173 583.843 760.261 570.79 780.273 558.06 z" fill="rgb(255,255,255)" transform="translate(0,0)"></path>
<path d="M 891.928 452.133 C 905.25 450.361 922.069 463.149 931.183 471.829 C 905.417 463.938 877.332 471.201 852.536 479.044 C 841.775 482.11 829.087 487.509 818.225 491.395 C 840.722 476.618 866.173 459.527 891.928 452.133 z" fill="rgb(255,255,255)" transform="translate(0,0)"></path>
<path d="M 739.568 753.152 C 740.916 762.191 741.782 770.584 745.185 779.069 C 737.314 801.501 721.326 855.338 710.865 874.404 L 707.459 875.535 L 706.373 874.757 C 724.375 830.93 727.182 797.371 739.568 753.152 z" fill="rgb(255,255,255)" transform="translate(0,0)"></path>
<path d="M 913.615 1101.76 C 920.758 1102.3 928.932 1103.39 936.136 1104.17 C 935.479 1110.3 934.968 1116.61 934.394 1122.77 C 927.212 1122.51 919.22 1122.79 911.965 1122.89 C 912.009 1114.42 912.429 1110.2 913.615 1101.76 z" fill="rgb(255,255,255)" transform="translate(0,0)"></path>
<path d="M 637.762 1105.59 C 644.934 1107.45 653.054 1109.11 660.346 1110.77 C 659.515 1114.52 659.203 1116.8 657.565 1120.24 C 653.927 1122.84 654.429 1122.01 649.244 1122.5 C 642.07 1123.56 638.643 1124.15 631.694 1126.16 C 633.403 1119.5 635.754 1112.24 637.762 1105.59 z" fill="rgb(255,255,255)" transform="translate(0,0)"></path>
<path d="M 1054.04 456.427 C 1056.14 450.622 1060.49 436.604 1064.83 433.449 C 1064.99 439.514 1061.1 437.717 1062.36 442.57 L 1064.94 443.648 C 1058.02 448.316 1058.56 450.511 1056.91 458.315 L 1054.04 456.427 z" fill="rgb(255,255,255)" transform="translate(0,0)"></path>
<path d="M 1398.45 1321.12 C 1438.37 1314.83 1475.75 1342.3 1481.68 1382.27 C 1487.6 1422.24 1459.8 1459.37 1419.78 1464.93 C 1380.27 1470.42 1343.72 1443.04 1337.87 1403.59 C 1332.02 1364.13 1359.05 1327.33 1398.45 1321.12 z" fill="rgb(43,45,61)" transform="translate(0,0)"></path>
<path d="M 1401.06 1349.72 C 1424.85 1344.93 1448.03 1360.33 1452.83 1384.13 C 1457.63 1407.92 1442.24 1431.1 1418.45 1435.92 C 1394.64 1440.74 1371.43 1425.33 1366.63 1401.52 C 1361.82 1377.71 1377.24 1354.51 1401.06 1349.72 z" fill="rgb(255,255,255)" transform="translate(0,0)"></path>
<path d="M 821.262 1323.41 C 854.145 1323.39 901.371 1317.92 926.824 1341.39 C 957.916 1370.05 954.262 1411.99 927.946 1442.33 C 897.714 1469.06 860.255 1462.88 820.94 1462.77 C 821.262 1416.55 820.362 1369.44 821.262 1323.41 z" fill="rgb(43,45,61)" transform="translate(0,0)"></path>
<path d="M 850.762 1349.37 C 868.981 1349.08 892.023 1348.5 905.938 1361.68 C 925.147 1379.87 921.712 1406.29 905.587 1424.79 C 888.688 1438.9 871.159 1436.91 850.331 1436.85 C 850.073 1408.9 849.927 1377.13 850.762 1349.37 z" fill="rgb(255,255,255)" transform="translate(0,0)"></path>
<path d="M 1504.65 1323.03 L 1527.78 1322.84 C 1550.24 1350.81 1574.06 1379.1 1595.99 1407.07 C 1596.41 1379.43 1596.07 1350.84 1596.11 1323.15 L 1623.87 1323.07 C 1623.78 1340.75 1625.12 1456.56 1621.92 1461.14 L 1601.46 1461.17 C 1579.74 1436.57 1553.33 1401.81 1532.12 1375.51 C 1534.56 1396.23 1533.12 1440.69 1533 1462.74 L 1504.8 1462.83 C 1503.47 1418.4 1504.66 1367.89 1504.65 1323.03 z" fill="rgb(43,45,61)" transform="translate(0,0)"></path>
<path d="M 667.253 1323.5 L 686.825 1323.35 L 686.381 1349.14 L 618.322 1349.03 L 618.39 1379.81 L 673.034 1379.93 L 673.014 1405.04 L 618.62 1404.99 L 618.652 1437.06 L 667.5 1436.9 L 688.024 1436.89 L 688.178 1462.99 L 590.006 1463.11 L 589.903 1323.57 L 667.253 1323.5 z" fill="rgb(43,45,61)" transform="translate(0,0)"></path>
<path d="M 1200.77 1322.3 C 1222.88 1319.51 1238.97 1325.5 1257.4 1336.56 C 1252.31 1343.61 1247.32 1351.55 1242.53 1358.87 C 1229.82 1352.36 1208.45 1341.24 1194.44 1352.46 C 1191.22 1355.04 1189.91 1357.5 1189.55 1361.59 C 1196.15 1383.35 1261.83 1377.49 1260.75 1417.82 C 1259.83 1452.09 1238.61 1464.59 1207.75 1464.57 C 1194.12 1463.62 1162.02 1456.16 1156.86 1442.64 C 1157.19 1435.71 1165.55 1425.88 1169.92 1419.84 C 1181.3 1430.01 1193.02 1436.67 1208.54 1438.15 C 1217.14 1438.17 1231.7 1435.09 1230.22 1423.47 C 1228.77 1412.19 1206.85 1407.4 1197.83 1404.53 C 1183.52 1399.99 1168.05 1394.26 1161.77 1379.31 C 1156.88 1367.66 1158.77 1351.76 1166.8 1341.91 C 1176.54 1328.92 1185.15 1325.1 1200.77 1322.3 z" fill="rgb(43,45,61)" transform="translate(0,0)"></path>
<path d="M 421.177 1323.5 C 451.059 1323.66 480.942 1323.6 510.823 1323.33 L 510.847 1349.61 C 488.468 1349.62 466.089 1349.48 443.712 1349.19 L 443.767 1383.03 L 493.342 1383.02 L 493.424 1403.25 C 493.334 1407.36 494.121 1405.92 492.204 1408.68 C 483.408 1409.75 454.392 1408.85 444.188 1408.82 L 443.863 1462.92 L 414.267 1462.9 L 414.055 1373.51 C 414.001 1359.46 413.298 1338.34 414.359 1324.75 C 416.987 1323.03 417.496 1323.63 421.177 1323.5 z" fill="rgb(43,45,61)" transform="translate(0,0)"></path>
<path d="M 954.098 1323.63 C 963.69 1323.36 974.469 1323.69 984.149 1323.76 C 993.446 1348.16 1008.14 1383.73 1019.82 1407.4 C 1033.55 1381.13 1045.39 1351.19 1057.57 1323.85 L 1087 1323.79 C 1081.78 1336.72 1076.29 1349.54 1070.53 1362.25 C 1060.76 1384.12 1050.78 1405.91 1040.6 1427.6 C 1037.27 1434.87 1027.96 1456.47 1023.52 1462.11 C 1019.17 1463.03 1019.35 1463.1 1015.01 1462.4 C 1009.91 1458.25 958.816 1337.66 954.098 1323.63 z" fill="rgb(43,45,61)" transform="translate(0,0)"></path>
<path d="M 711.054 1323.37 L 740.554 1323.37 C 739.061 1358.55 740.039 1400.77 740.009 1436.45 C 759.945 1436.23 779.883 1436.2 799.82 1436.38 L 799.91 1462.88 C 770.74 1463.32 740.449 1462.88 711.188 1462.86 L 711.054 1323.37 z" fill="rgb(43,45,61)" transform="translate(0,0)"></path>
<path d="M 1104.81 1323.36 L 1134.01 1323.48 L 1133.87 1462.84 L 1104.71 1462.8 L 1104.81 1323.36 z" fill="rgb(43,45,61)" transform="translate(0,0)"></path>
<path d="M 1284.1 1323.28 L 1313.23 1323.23 L 1312.99 1462.99 L 1284.09 1462.96 C 1283.04 1417.83 1283.8 1368.63 1284.1 1323.28 z" fill="rgb(43,45,61)" transform="translate(0,0)"></path>
<path d="M 529.792 1323.85 L 558.618 1323.65 L 558.083 1462.68 C 551.572 1463.44 536.755 1462.96 529.628 1462.92 C 529.948 1416.56 530.003 1370.21 529.792 1323.85 z" fill="rgb(43,45,61)" transform="translate(0,0)"></path>
<metadata><recraft-signature>{"signed_by": "recraft", "signature_b64": "HOQF6/FLBo0G8rLOZzgWgCtXSLgcP8OtGkO2mf8JE8IwBChgaaBsl0kMOhcPtCXhmpLryAIPtaRGMHbVPPBtBQ==", "signing_algo": "Ed25519", "generation_timestamp": 1777331559, "identifier": "efc62726-d12f-4e1f-8e83-02071fc96472"}</recraft-signature></metadata></svg>